<svg id="kity_svg_6" xmlns="http://www.w3.org/2000/svg" xmlns:xlink="http://www.w3.org/1999/xlink" version="1.1" width="645" height="299" style="background: rgb(251, 251, 251); visibility: visible;" viewBox="0 0 645 299"><defs id="kity_defs_7"><linearGradient id="kity_linearGradient_17" x1="0" y1="0" x2="0" y2="1"><stop id="kity_stop_18" offset="0" stop-color="rgb(255, 255, 255)"></stop><stop id="kity_stop_19" offset="1" stop-color="rgb(204, 204, 204)"></stop></linearGradient><marker id="kity_marker_2" orient="auto" refX="6" refY="0" viewBox="-7 -7 14 14" markerWidth="7" markerHeight="7" markerUnits="userSpaceOnUse"><path id="kity_path_3" fill="rgb(115, 161, 191)" stroke="none" d="M6,0A6,6,0,1,1,-6,0A6,6,0,1,1,6,0"></path></marker></defs><g id="kity_g_8"><g id="minder1" text-rendering="optimize-speed"><g id="minder_connect_group1"><path id="kity_path_31" fill="none" stroke="rgb(115, 161, 191)" stroke-width="1" d="M101.0000033264829,150.49998997571183A96.5,105.5,0,0,1,197.5000033264829,44.99998997571183"></path><path id="kity_path_33" fill="none" stroke="none" display="none"></path><path id="kity_path_35" fill="none" stroke="none" display="none"></path><path id="kity_path_37" fill="none" stroke="none" display="none"></path><path id="kity_path_39" fill="none" stroke="none" display="none"></path><path id="kity_path_41" fill="none" stroke="none" display="none"></path><path id="kity_path_43" fill="none" stroke="none" display="none"></path><path id="kity_path_45" fill="none" stroke="none" display="none"></path><path id="kity_path_47" fill="none" stroke="none" display="none"></path><path id="kity_path_49" fill="none" stroke="none" display="none"></path><path id="kity_path_51" fill="none" stroke="none" display="none"></path><path id="kity_path_53" fill="none" stroke="none" display="none"></path><path id="kity_path_55" fill="none" stroke="none" display="none"></path><path id="kity_path_57" fill="none" stroke="none" display="none"></path><path id="kity_path_59" fill="none" stroke="none" display="none"></path><path id="kity_path_61" fill="none" stroke="none" display="none"></path><path id="kity_path_63" fill="none" stroke="none" display="none"></path><path id="kity_path_65" fill="none" stroke="none" display="none"></path><path id="kity_path_67" fill="none" stroke="none" display="none"></path><path id="kity_path_69" fill="none" stroke="none" display="none"></path><path id="kity_path_71" fill="none" stroke="rgb(115, 161, 191)" stroke-width="1" d="M101.0000033264829,150.49998997571183A96.5,42.5,0,0,1,197.5000033264829,107.99998997571183"></path><path id="kity_path_73" fill="none" stroke="none" display="none"></path><path id="kity_path_75" fill="none" stroke="none" display="none"></path><path id="kity_path_77" fill="none" stroke="none" display="none"></path><path id="kity_path_79" fill="none" stroke="none" display="none"></path><path id="kity_path_81" fill="none" stroke="rgb(115, 161, 191)" stroke-width="1" d="M101.0000033264829,150.49998997571183A96.5,31.5,0,0,0,197.5000033264829,181.99998997571183"></path><path id="kity_path_83" fill="none" stroke="rgb(115, 161, 191)" stroke-width="1" d="M366.5000033264829,182.49998997571183C374.5000033264829,181.99998997571183,374.5000033264829,156.49998997571183,382.5000033264829,156.49998997571183"></path><path id="kity_path_85" fill="none" stroke="rgb(115, 161, 191)" stroke-width="1" d="M440.5000033264829,156.49998997571183C448.5000033264829,156.49998997571183,448.5000033264829,156.49998997571183,456.5000033264829,156.49998997571183"></path><path id="kity_path_87" fill="none" stroke="rgb(115, 161, 191)" stroke-width="1" d="M366.5000033264829,182.49998997571183C374.5000033264829,181.99998997571183,374.5000033264829,182.49998997571183,382.5000033264829,182.49998997571183"></path><path id="kity_path_89" fill="none" stroke="rgb(115, 161, 191)" stroke-width="1" d="M366.5000033264829,182.49998997571183C374.5000033264829,181.99998997571183,374.5000033264829,208.49998997571183,382.5000033264829,208.49998997571183"></path><path id="kity_path_91" fill="none" stroke="rgb(115, 161, 191)" stroke-width="1" d="M101.0000033264829,150.49998997571183A96.5,106.5,0,0,0,197.5000033264829,256.99998997571186"></path><path id="kity_path_284" fill="none" stroke="rgb(115, 161, 191)" stroke-width="1" d="M443.5000033264829,182.49998997571183C451.5000033264829,182.49998997571183,451.5000033264829,182.49998997571183,459.5000033264829,182.49998997571183"></path></g><g id="minder_node1"><path id="node_outline1" fill="rgb(115, 161, 191)" stroke="rgb(115, 161, 191)" d="M25.500003326482897,124.49998997571183h151a5,5,0,0,1,5,5v42a5,5,0,0,1,-5,5h-151a5,5,0,0,1,-5,-5v-42a5,5,0,0,1,5,-5z" stroke-width="3"></path><g id="node_text1" fill="white"><text id="kity_text_22" text-rendering="inherit" font-size="16" dy=".8em" y="128.0999899450604" x="32.5000033264829">机器学习</text><text id="kity_text_158" text-rendering="inherit" font-size="16" dy=".8em" y="152.0999899450604" x="32.5000033264829">Machine Learning</text></g></g><g id="kity_g_12"><path id="kity_path_13" fill="none" stroke="none" d="M32.5000033264829,150.49998997571183h0v0h0z"></path></g><g id="kity_g_14"><path id="kity_path_15" fill="none" stroke="none" d="M32.5000033264829,150.49998997571183h0v0h0z"></path><path id="kity_path_16" fill="none" stroke="none"></path></g><g id="minder_node2"><g id="node_expander20" style="cursor: pointer;"><path id="kity_path_248" fill="white" stroke="gray" d="M198.50000052485547,44.99999230568875A6,6,0,1,1,186.50000052485547,44.99999230568875A6,6,0,1,1,198.50000052485547,44.99999230568875"></path><path id="kity_path_249" fill="none" stroke="gray" d="M188.00000052485547,44.99999230568875L197.00000052485547,44.99999230568875M192.50000052485547,40.49999230568875L192.50000052485547,49.49999230568875"></path></g><path id="node_outline21" fill="rgb(238, 243, 246)" stroke="rgb(115, 161, 191)" d="M202.4999991965712,21.499992316731294h170a3,3,0,0,1,3,3v41a3,3,0,0,1,-3,3h-170a3,3,0,0,1,-3,-3v-41a3,3,0,0,1,3,-3z" stroke-width="1"></path><g id="node_text21" fill="black"><text id="kity_text_131" text-rendering="inherit" font-size="14" dy=".8em" y="24.8999924990504" x="219.4999991965712">监督学习</text><text id="kity_text_132" text-rendering="inherit" font-size="14" dy=".8em" y="45.8999924990504" x="219.4999991965712">Supervised Learning</text></g></g><g id="minder_node3" display="none"><g id="node_expander10" style="cursor: pointer;" display="none"><path id="kity_path_218" fill="white" stroke="gray" d="M391.49999532130727,37.49999247132692A6,6,0,1,1,379.49999532130727,37.49999247132692A6,6,0,1,1,391.49999532130727,37.49999247132692"></path><path id="kity_path_219" fill="none" stroke="gray"></path></g><path id="node_outline11" fill="none" stroke="none" d="M391.49999539793583,28.49999247132692h111a5,5,0,0,1,5,5v8a5,5,0,0,1,-5,5h-111a5,5,0,0,1,-5,-5v-8a5,5,0,0,1,5,-5z"></path><g id="node_text11" fill="black"><text id="kity_text_111" text-rendering="inherit" font-size="12" dy=".8em" y="29.699992657477452" x="391.49999539793583">回归（Regression）</text></g></g><g id="minder_node4" display="none"><g id="node_expander1" style="cursor: pointer;" display="none"><path id="kity_path_191" fill="white" stroke="gray" d="M407.49999496794584,13.499993001369063A6,6,0,1,1,395.49999496794584,13.499993001369063A6,6,0,1,1,407.49999496794584,13.499993001369063"></path><path id="kity_path_192" fill="none" stroke="gray"></path></g><path id="node_outline2" fill="none" stroke="none" d="M407.4999950445744,4.499993001369063h152a5,5,0,0,1,5,5v8a5,5,0,0,1,-5,5h-152a5,5,0,0,1,-5,-5v-8a5,5,0,0,1,5,-5z"></path><g id="node_text2" fill="black"><text id="kity_text_93" text-rendering="inherit" font-size="12" dy=".8em" y="5.6999931875195955" x="407.4999950445744">代价函数（Cost Function）</text></g></g><g id="minder_node5" display="none"><g id="node_expander2" style="cursor: pointer;" display="none"><path id="kity_path_194" fill="white" stroke="gray" d="M407.49999496794584,21.49999282468835A6,6,0,1,1,395.49999496794584,21.49999282468835A6,6,0,1,1,407.49999496794584,21.49999282468835"></path><path id="kity_path_195" fill="none" stroke="gray"></path></g><path id="node_outline3" fill="none" stroke="none" d="M407.4999950445744,12.499992824688348h184a5,5,0,0,1,5,5v8a5,5,0,0,1,-5,5h-184a5,5,0,0,1,-5,-5v-8a5,5,0,0,1,5,-5z"></path><g id="node_text3" fill="black"><text id="kity_text_95" text-rendering="inherit" font-size="12" dy=".8em" y="13.699993010838881" x="407.4999950445744">梯度下降法（Gradient Descent）</text></g></g><g id="minder_node6" display="none"><g id="node_expander4" style="cursor: pointer;" display="none"><path id="kity_path_200" fill="white" stroke="gray" d="M407.49999496794584,29.499992648007634A6,6,0,1,1,395.49999496794584,29.499992648007634A6,6,0,1,1,407.49999496794584,29.499992648007634"></path><path id="kity_path_201" fill="none" stroke="gray"></path></g><path id="node_outline5" fill="none" stroke="none" d="M407.4999950445744,20.499992648007634h207a5,5,0,0,1,5,5v8a5,5,0,0,1,-5,5h-207a5,5,0,0,1,-5,-5v-8a5,5,0,0,1,5,-5z"></path><g id="node_text5" fill="black"><text id="kity_text_99" text-rendering="inherit" font-size="12" dy=".8em" y="21.699992834158166" x="407.4999950445744">最小二乘法（Least Square Method）</text></g></g><g id="minder_node7" display="none"><g id="node_expander3" style="cursor: pointer;" display="none"><path id="kity_path_197" fill="white" stroke="gray" d="M423.49999461458447,29.499992648007634A6,6,0,1,1,411.49999461458447,29.499992648007634A6,6,0,1,1,423.49999461458447,29.499992648007634"></path><path id="kity_path_198" fill="none" stroke="gray"></path></g><path id="node_outline4" fill="none" stroke="none" d="M423.49999469121303,20.499992648007634h169a5,5,0,0,1,5,5v8a5,5,0,0,1,-5,5h-169a5,5,0,0,1,-5,-5v-8a5,5,0,0,1,5,-5z"></path><g id="node_text4" fill="black"><text id="kity_text_97" text-rendering="inherit" font-size="12" dy=".8em" y="21.699992834158166" x="423.49999469121303">正规方程（Normal Function）</text></g></g><g id="minder_node8" display="none"><g id="node_expander9" style="cursor: pointer;" display="none"><path id="kity_path_215" fill="white" stroke="gray" d="M407.49999496794584,37.49999247132692A6,6,0,1,1,395.49999496794584,37.49999247132692A6,6,0,1,1,407.49999496794584,37.49999247132692"></path><path id="kity_path_216" fill="none" stroke="gray"></path></g><path id="node_outline10" fill="none" stroke="none" d="M407.4999950445744,28.49999247132692h155a5,5,0,0,1,5,5v8a5,5,0,0,1,-5,5h-155a5,5,0,0,1,-5,-5v-8a5,5,0,0,1,5,-5z"></path><g id="node_text10" fill="black"><text id="kity_text_109" text-rendering="inherit" font-size="12" dy=".8em" y="29.699992657477452" x="407.4999950445744">牛顿法（Newton Method）</text></g></g><g id="minder_node9" display="none"><g id="node_expander8" style="cursor: pointer;" display="none"><path id="kity_path_212" fill="white" stroke="gray" d="M423.49999461458447,37.49999247132692A6,6,0,1,1,411.49999461458447,37.49999247132692A6,6,0,1,1,423.49999461458447,37.49999247132692"></path><path id="kity_path_213" fill="none" stroke="gray"></path></g><path id="node_outline9" fill="none" stroke="none" d="M423.49999469121303,28.49999247132692h205a5,5,0,0,1,5,5v8a5,5,0,0,1,-5,5h-205a5,5,0,0,1,-5,-5v-8a5,5,0,0,1,5,-5z"></path><g id="node_text9" fill="black"><text id="kity_text_107" text-rendering="inherit" font-size="12" dy=".8em" y="29.699992657477452" x="423.49999469121303">拟牛顿法（Quasi-Newton Method）</text></g></g><g id="minder_node10" display="none"><g id="node_expander5" style="cursor: pointer;" display="none"><path id="kity_path_203" fill="white" stroke="gray" d="M439.49999426122304,21.49999282468835A6,6,0,1,1,427.49999426122304,21.49999282468835A6,6,0,1,1,439.49999426122304,21.49999282468835"></path><path id="kity_path_204" fill="none" stroke="gray"></path></g><path id="node_outline6" fill="none" stroke="none" d="M439.4999943378516,12.499992824688348h23a5,5,0,0,1,5,5v8a5,5,0,0,1,-5,5h-23a5,5,0,0,1,-5,-5v-8a5,5,0,0,1,5,-5z"></path><g id="node_text6" fill="black"><text id="kity_text_101" text-rendering="inherit" font-size="12" dy=".8em" y="13.699993010838881" x="439.4999943378516">DFP</text></g></g><g id="minder_node11" display="none"><g id="node_expander6" style="cursor: pointer;" display="none"><path id="kity_path_206" fill="white" stroke="gray" d="M439.49999426122304,29.499992648007634A6,6,0,1,1,427.49999426122304,29.499992648007634A6,6,0,1,1,439.49999426122304,29.499992648007634"></path><path id="kity_path_207" fill="none" stroke="gray"></path></g><path id="node_outline7" fill="none" stroke="none" d="M439.4999943378516,20.499992648007634h30a5,5,0,0,1,5,5v8a5,5,0,0,1,-5,5h-30a5,5,0,0,1,-5,-5v-8a5,5,0,0,1,5,-5z"></path><g id="node_text7" fill="black"><text id="kity_text_103" text-rendering="inherit" font-size="12" dy=".8em" y="21.699992834158166" x="439.4999943378516">BFGS</text></g></g><g id="minder_node12" display="none"><g id="node_expander7" style="cursor: pointer;" display="none"><path id="kity_path_209" fill="white" stroke="gray" d="M439.49999426122304,37.49999247132692A6,6,0,1,1,427.49999426122304,37.49999247132692A6,6,0,1,1,439.49999426122304,37.49999247132692"></path><path id="kity_path_210" fill="none" stroke="gray"></path></g><path id="node_outline8" fill="none" stroke="none" d="M439.4999943378516,28.49999247132692h41a5,5,0,0,1,5,5v8a5,5,0,0,1,-5,5h-41a5,5,0,0,1,-5,-5v-8a5,5,0,0,1,5,-5z"></path><g id="node_text8" fill="black"><text id="kity_text_105" text-rendering="inherit" font-size="12" dy=".8em" y="29.699992657477452" x="439.4999943378516">L-BFGS</text></g></g><g id="minder_node13" display="none"><g id="node_expander19" style="cursor: pointer;" display="none"><path id="kity_path_245" fill="white" stroke="gray" d="M391.49999532130727,45.499992294646205A6,6,0,1,1,379.49999532130727,45.499992294646205A6,6,0,1,1,391.49999532130727,45.499992294646205"></path><path id="kity_path_246" fill="none" stroke="gray"></path></g><path id="node_outline20" fill="none" stroke="none" d="M391.49999539793583,36.499992294646205h124a5,5,0,0,1,5,5v8a5,5,0,0,1,-5,5h-124a5,5,0,0,1,-5,-5v-8a5,5,0,0,1,5,-5z"></path><g id="node_text20" fill="black"><text id="kity_text_129" text-rendering="inherit" font-size="12" dy=".8em" y="37.69999248079674" x="391.49999539793583">分类（Classification）</text></g></g><g id="minder_node14" display="none"><g id="node_expander11" style="cursor: pointer;" display="none"><path id="kity_path_221" fill="white" stroke="gray" d="M407.49999496794584,5.4999931780497775A6,6,0,1,1,395.49999496794584,5.4999931780497775A6,6,0,1,1,407.49999496794584,5.4999931780497775"></path><path id="kity_path_222" fill="none" stroke="gray"></path></g><path id="node_outline12" fill="none" stroke="none" d="M407.4999950445744,-3.5000068219502225h183a5,5,0,0,1,5,5v8a5,5,0,0,1,-5,5h-183a5,5,0,0,1,-5,-5v-8a5,5,0,0,1,5,-5z"></path><g id="node_text12" fill="black"><text id="kity_text_113" text-rendering="inherit" font-size="12" dy=".8em" y="-2.30000663579969" x="407.4999950445744">逻辑回归（Logistic Regression）</text></g></g><g id="minder_node15" display="none"><g id="node_expander13" style="cursor: pointer;" display="none"><path id="kity_path_227" fill="white" stroke="gray" d="M407.49999496794584,13.499993001369063A6,6,0,1,1,395.49999496794584,13.499993001369063A6,6,0,1,1,407.49999496794584,13.499993001369063"></path><path id="kity_path_228" fill="none" stroke="gray"></path></g><path id="node_outline14" fill="none" stroke="none" d="M407.4999950445744,4.499993001369063h164a5,5,0,0,1,5,5v8a5,5,0,0,1,-5,5h-164a5,5,0,0,1,-5,-5v-8a5,5,0,0,1,5,-5z"></path><g id="node_text14" fill="black"><text id="kity_text_117" text-rendering="inherit" font-size="12" dy=".8em" y="5.6999931875195955" x="407.4999950445744">神经网络（Neural Network）</text></g></g><g id="minder_node16" display="none"><g id="node_expander12" style="cursor: pointer;" display="none"><path id="kity_path_224" fill="white" stroke="gray" d="M423.49999461458447,13.499993001369063A6,6,0,1,1,411.49999461458447,13.499993001369063A6,6,0,1,1,423.49999461458447,13.499993001369063"></path><path id="kity_path_225" fill="none" stroke="gray"></path></g><path id="node_outline13" fill="none" stroke="none" d="M423.49999469121303,4.499993001369063h301a5,5,0,0,1,5,5v8a5,5,0,0,1,-5,5h-301a5,5,0,0,1,-5,-5v-8a5,5,0,0,1,5,-5z"></path><g id="node_text13" fill="black"><text id="kity_text_115" text-rendering="inherit" font-size="12" dy=".8em" y="5.6999931875195955" x="423.49999469121303">前馈神经网络（Feedforward Neural Network，FNN）</text></g></g><g id="minder_node17" display="none"><g id="node_expander15" style="cursor: pointer;" display="none"><path id="kity_path_233" fill="white" stroke="gray" d="M407.49999496794584,21.49999282468835A6,6,0,1,1,395.49999496794584,21.49999282468835A6,6,0,1,1,407.49999496794584,21.49999282468835"></path><path id="kity_path_234" fill="none" stroke="gray"></path></g><path id="node_outline16" fill="none" stroke="none" d="M407.4999950445744,12.499992824688348h225a5,5,0,0,1,5,5v8a5,5,0,0,1,-5,5h-225a5,5,0,0,1,-5,-5v-8a5,5,0,0,1,5,-5z"></path><g id="node_text16" fill="black"><text id="kity_text_121" text-rendering="inherit" font-size="12" dy=".8em" y="13.699993010838881" x="407.4999950445744">支持向量机（Support Vector Machine）</text></g></g><g id="minder_node18" display="none"><g id="node_expander14" style="cursor: pointer;" display="none"><path id="kity_path_230" fill="white" stroke="gray" d="M423.49999461458447,21.49999282468835A6,6,0,1,1,411.49999461458447,21.49999282468835A6,6,0,1,1,423.49999461458447,21.49999282468835"></path><path id="kity_path_231" fill="none" stroke="gray"></path></g><path id="node_outline15" fill="none" stroke="none" d="M423.49999469121303,12.499992824688348h326a5,5,0,0,1,5,5v8a5,5,0,0,1,-5,5h-326a5,5,0,0,1,-5,-5v-8a5,5,0,0,1,5,-5z"></path><g id="node_text15" fill="black"><text id="kity_text_119" text-rendering="inherit" font-size="12" dy=".8em" y="13.699993010838881" x="423.49999469121303">序列最小优化（Sequential Minimal Optimization，SMO）</text></g></g><g id="minder_node19" display="none"><g id="node_expander16" style="cursor: pointer;" display="none"><path id="kity_path_236" fill="white" stroke="gray" d="M407.49999496794584,29.499992648007634A6,6,0,1,1,395.49999496794584,29.499992648007634A6,6,0,1,1,407.49999496794584,29.499992648007634"></path><path id="kity_path_237" fill="none" stroke="gray"></path></g><path id="node_outline17" fill="none" stroke="none" d="M407.4999950445744,20.499992648007634h176a5,5,0,0,1,5,5v8a5,5,0,0,1,-5,5h-176a5,5,0,0,1,-5,-5v-8a5,5,0,0,1,5,-5z"></path><g id="node_text17" fill="black"><text id="kity_text_123" text-rendering="inherit" font-size="12" dy=".8em" y="21.699992834158166" x="407.4999950445744">K-近邻（K-Nearest Neighbor）</text></g></g><g id="minder_node20" display="none"><g id="node_expander17" style="cursor: pointer;" display="none"><path id="kity_path_239" fill="white" stroke="gray" d="M407.49999496794584,37.49999247132692A6,6,0,1,1,395.49999496794584,37.49999247132692A6,6,0,1,1,407.49999496794584,37.49999247132692"></path><path id="kity_path_240" fill="none" stroke="gray"></path></g><path id="node_outline18" fill="none" stroke="none" d="M407.4999950445744,28.49999247132692h138a5,5,0,0,1,5,5v8a5,5,0,0,1,-5,5h-138a5,5,0,0,1,-5,-5v-8a5,5,0,0,1,5,-5z"></path><g id="node_text18" fill="black"><text id="kity_text_125" text-rendering="inherit" font-size="12" dy=".8em" y="29.699992657477452" x="407.4999950445744">决策树（Decision Tree）</text></g></g><g id="minder_node21" display="none"><g id="node_expander18" style="cursor: pointer;" display="none"><path id="kity_path_242" fill="white" stroke="gray" d="M407.49999496794584,45.499992294646205A6,6,0,1,1,395.49999496794584,45.499992294646205A6,6,0,1,1,407.49999496794584,45.499992294646205"></path><path id="kity_path_243" fill="none" stroke="gray"></path></g><path id="node_outline19" fill="none" stroke="none" d="M407.4999950445744,36.499992294646205h171a5,5,0,0,1,5,5v8a5,5,0,0,1,-5,5h-171a5,5,0,0,1,-5,-5v-8a5,5,0,0,1,5,-5z"></path><g id="node_text19" fill="black"><text id="kity_text_127" text-rendering="inherit" font-size="12" dy=".8em" y="37.69999248079674" x="407.4999950445744">朴素贝叶斯（Naive Bayesian）</text></g></g><g id="minder_node22"><g id="node_expander25" style="cursor: pointer;"><path id="kity_path_263" fill="white" stroke="gray" d="M198.50000052485547,107.99999091432812A6,6,0,1,1,186.50000052485547,107.99999091432812A6,6,0,1,1,198.50000052485547,107.99999091432812"></path><path id="kity_path_264" fill="none" stroke="gray" d="M188.00000052485547,107.99999091432812L197.00000052485547,107.99999091432812M192.50000052485547,103.49999091432812L192.50000052485547,112.49999091432812"></path></g><path id="node_outline26" fill="rgb(238, 243, 246)" stroke="rgb(115, 161, 191)" d="M202.4999991965712,84.49999092537067h187a3,3,0,0,1,3,3v41a3,3,0,0,1,-3,3h-187a3,3,0,0,1,-3,-3v-41a3,3,0,0,1,3,-3z" stroke-width="1"></path><g id="node_text26" fill="black"><text id="kity_text_142" text-rendering="inherit" font-size="14" dy=".8em" y="87.89999110768977" x="219.4999991965712">无监督学习</text><text id="kity_text_143" text-rendering="inherit" font-size="14" dy=".8em" y="108.89999110768977" x="219.4999991965712">Unsupervised Learning</text></g></g><g id="minder_node23" display="none"><g id="node_expander22" style="cursor: pointer;" display="none"><path id="kity_path_254" fill="white" stroke="gray" d="M408.49999494586075,100.49999107996629A6,6,0,1,1,396.49999494586075,100.49999107996629A6,6,0,1,1,408.49999494586075,100.49999107996629"></path><path id="kity_path_255" fill="none" stroke="gray"></path></g><path id="node_outline23" fill="none" stroke="none" d="M408.4999950224893,91.49999107996629h107a5,5,0,0,1,5,5v8a5,5,0,0,1,-5,5h-107a5,5,0,0,1,-5,-5v-8a5,5,0,0,1,5,-5z"></path><g id="node_text23" fill="black"><text id="kity_text_136" text-rendering="inherit" font-size="12" dy=".8em" y="92.69999126611683" x="408.4999950224893">聚类（Clustering）</text></g></g><g id="minder_node24" display="none"><g id="node_expander21" style="cursor: pointer;" display="none"><path id="kity_path_251" fill="white" stroke="gray" d="M424.4999945924993,100.49999107996629A6,6,0,1,1,412.4999945924993,100.49999107996629A6,6,0,1,1,424.4999945924993,100.49999107996629"></path><path id="kity_path_252" fill="none" stroke="gray"></path></g><path id="node_outline22" fill="none" stroke="none" d="M424.4999946691279,91.49999107996629h112a5,5,0,0,1,5,5v8a5,5,0,0,1,-5,5h-112a5,5,0,0,1,-5,-5v-8a5,5,0,0,1,5,-5z"></path><g id="node_text22" fill="black"><text id="kity_text_134" text-rendering="inherit" font-size="12" dy=".8em" y="92.69999126611683" x="424.4999946691279">K-均值（K-Means）</text></g></g><g id="minder_node25" display="none"><g id="node_expander24" style="cursor: pointer;" display="none"><path id="kity_path_260" fill="white" stroke="gray" d="M408.49999494586075,108.49999090328558A6,6,0,1,1,396.49999494586075,108.49999090328558A6,6,0,1,1,408.49999494586075,108.49999090328558"></path><path id="kity_path_261" fill="none" stroke="gray"></path></g><path id="node_outline25" fill="none" stroke="none" d="M408.4999950224893,99.49999090328558h195a5,5,0,0,1,5,5v8a5,5,0,0,1,-5,5h-195a5,5,0,0,1,-5,-5v-8a5,5,0,0,1,5,-5z"></path><g id="node_text25" fill="black"><text id="kity_text_140" text-rendering="inherit" font-size="12" dy=".8em" y="100.69999108943611" x="408.4999950224893">降维（Dimensionality Reduction）</text></g></g><g id="minder_node26" display="none"><g id="node_expander23" style="cursor: pointer;" display="none"><path id="kity_path_257" fill="white" stroke="gray" d="M424.4999945924993,108.49999090328558A6,6,0,1,1,412.4999945924993,108.49999090328558A6,6,0,1,1,424.4999945924993,108.49999090328558"></path><path id="kity_path_258" fill="none" stroke="gray"></path></g><path id="node_outline24" fill="none" stroke="none" d="M424.4999946691279,99.49999090328558h267a5,5,0,0,1,5,5v8a5,5,0,0,1,-5,5h-267a5,5,0,0,1,-5,-5v-8a5,5,0,0,1,5,-5z"></path><g id="node_text24" fill="black"><text id="kity_text_138" text-rendering="inherit" font-size="12" dy=".8em" y="100.69999108943611" x="424.4999946691279">主成分分析法（Principal Component Analysis）</text></g></g><g id="minder_node27"><g id="node_expander30" style="cursor: pointer;"><path id="kity_path_278" fill="white" stroke="gray" d="M198.50000052485547,181.9999892800315A6,6,0,1,1,186.50000052485547,181.9999892800315A6,6,0,1,1,198.50000052485547,181.9999892800315"></path><path id="kity_path_279" fill="none" stroke="gray" d="M188.00000052485547,181.9999892800315L197.00000052485547,181.9999892800315"></path></g><path id="node_outline31" fill="rgb(238, 243, 246)" stroke="rgb(115, 161, 191)" d="M202.4999991965712,158.49998929107406h161a3,3,0,0,1,3,3v41a3,3,0,0,1,-3,3h-161a3,3,0,0,1,-3,-3v-41a3,3,0,0,1,3,-3z" stroke-width="1"></path><g id="node_text31" fill="black"><text id="kity_text_153" text-rendering="inherit" font-size="14" dy=".8em" y="161.89998947339316" x="219.4999991965712">集成学习</text><text id="kity_text_154" text-rendering="inherit" font-size="14" dy=".8em" y="182.89998947339316" x="219.4999991965712">Ensemble Learning</text></g></g><g id="minder_node28"><g id="node_expander27" style="cursor: pointer;"><path id="kity_path_269" fill="white" stroke="gray" d="M382.4999956246426,156.4999898432013A6,6,0,1,1,370.4999956246426,156.4999898432013A6,6,0,1,1,382.4999956246426,156.4999898432013"></path><path id="kity_path_270" fill="none" stroke="gray" d="M371.9999956246426,156.4999898432013L380.9999956246426,156.4999898432013"></path></g><path id="node_outline28" fill="none" stroke="none" d="M387.4999954862762,147.4999898432013h48a5,5,0,0,1,5,5v8a5,5,0,0,1,-5,5h-48a5,5,0,0,1,-5,-5v-8a5,5,0,0,1,5,-5z"></path><g id="node_text28" fill="black"><text id="kity_text_147" text-rendering="inherit" font-size="12" dy=".8em" y="148.69999002935182" x="387.4999954862762">Bagging</text></g></g><g id="minder_node29"><g id="node_expander26" style="cursor: pointer;" display="none"><path id="kity_path_266" fill="white" stroke="gray" d="M456.499993990346,156.4999898432013A6,6,0,1,1,444.499993990346,156.4999898432013A6,6,0,1,1,456.499993990346,156.4999898432013"></path><path id="kity_path_267" fill="none" stroke="gray"></path></g><path id="node_outline27" fill="none" stroke="none" d="M461.4999938519796,147.4999898432013h159a5,5,0,0,1,5,5v8a5,5,0,0,1,-5,5h-159a5,5,0,0,1,-5,-5v-8a5,5,0,0,1,5,-5z"></path><g id="node_text27" fill="black"><text id="kity_text_145" text-rendering="inherit" font-size="12" dy=".8em" y="148.69999002935182" x="461.4999938519796">随机森林（Random Forest）</text></g></g><g id="minder_node30"><g id="node_expander28" style="cursor: pointer;"><path id="kity_path_272" fill="white" stroke="gray" d="M382.4999956246426,182.49998926898897A6,6,0,1,1,370.4999956246426,182.49998926898897A6,6,0,1,1,382.4999956246426,182.49998926898897"></path><path id="kity_path_273" fill="none" stroke="gray" d="M371.9999956246426,182.49998926898897L380.9999956246426,182.49998926898897"></path></g><path id="node_outline29" fill="none" stroke="none" d="M387.4999954862762,173.49998926898897h51a5,5,0,0,1,5,5v8a5,5,0,0,1,-5,5h-51a5,5,0,0,1,-5,-5v-8a5,5,0,0,1,5,-5z" stroke-width="3"></path><g id="node_text29" fill="black"><text id="kity_text_149" text-rendering="inherit" font-size="12" dy=".8em" y="174.6999894551395" x="387.4999954862762">Boosting</text></g></g><g id="minder_node31"><g id="node_expander29" style="cursor: pointer;" display="none"><path id="kity_path_275" fill="white" stroke="gray" d="M382.4999956246426,208.49998869477665A6,6,0,1,1,370.4999956246426,208.49998869477665A6,6,0,1,1,382.4999956246426,208.49998869477665"></path><path id="kity_path_276" fill="none" stroke="gray"></path></g><path id="node_outline30" fill="none" stroke="none" d="M387.4999954862762,199.49998869477665h49a5,5,0,0,1,5,5v8a5,5,0,0,1,-5,5h-49a5,5,0,0,1,-5,-5v-8a5,5,0,0,1,5,-5z"></path><g id="node_text30" fill="black"><text id="kity_text_151" text-rendering="inherit" font-size="12" dy=".8em" y="200.69998888092718" x="387.4999954862762">Stacking</text></g></g><g id="minder_node32"><g id="node_expander31" style="cursor: pointer;" display="none"><path id="kity_path_281" fill="white" stroke="gray" d="M198.50000052485547,256.9999876236499A6,6,0,1,1,186.50000052485547,256.9999876236499A6,6,0,1,1,198.50000052485547,256.9999876236499"></path><path id="kity_path_282" fill="none" stroke="gray"></path></g><path id="node_outline32" fill="rgb(238, 243, 246)" stroke="rgb(115, 161, 191)" d="M202.4999991965712,233.4999876346924h195a3,3,0,0,1,3,3v41a3,3,0,0,1,-3,3h-195a3,3,0,0,1,-3,-3v-41a3,3,0,0,1,3,-3z" stroke-width="1"></path><g id="node_text32" fill="black"><text id="kity_text_156" text-rendering="inherit" font-size="14" dy=".8em" y="236.8999878170115" x="219.4999991965712">强化学习</text><text id="kity_text_157" text-rendering="inherit" font-size="14" dy=".8em" y="257.8999878170115" x="219.4999991965712">Reinforcement Learning</text></g></g><g id="minder_node33"><g id="node_expander32" style="cursor: pointer;" display="none"><path id="kity_path_289" fill="white" stroke="gray" d="M459.49999392409075,182.49998926898897A6,6,0,1,1,447.49999392409075,182.49998926898897A6,6,0,1,1,459.49999392409075,182.49998926898897"></path><path id="kity_path_290" fill="none" stroke="gray"></path></g><path id="node_outline33" fill="none" stroke="none" d="M464.4999937857243,173.49998926898897h57a5,5,0,0,1,5,5v8a5,5,0,0,1,-5,5h-57a5,5,0,0,1,-5,-5v-8a5,5,0,0,1,5,-5z" stroke-width="3"></path><g id="node_text33" fill="black"><text id="kity_text_286" text-rendering="inherit" font-size="12" dy=".8em" y="174.6999894551395" x="464.4999937857243">AdaBoost</text></g></g></g></g></svg>