<svg id="kity_svg_6" xmlns="http://www.w3.org/2000/svg" xmlns:xlink="http://www.w3.org/1999/xlink" version="1.1" width="754" height="261" style="background: rgb(251, 251, 251); visibility: visible;" viewBox="0 0 754 261"><defs id="kity_defs_7"><linearGradient id="kity_linearGradient_17" x1="0" y1="0" x2="0" y2="1"><stop id="kity_stop_18" offset="0" stop-color="rgb(255, 255, 255)"></stop><stop id="kity_stop_19" offset="1" stop-color="rgb(204, 204, 204)"></stop></linearGradient><marker id="kity_marker_2" orient="auto" refX="6" refY="0" viewBox="-7 -7 14 14" markerWidth="7" markerHeight="7" markerUnits="userSpaceOnUse"><path id="kity_path_3" fill="rgb(115, 161, 191)" stroke="none" d="M6,0A6,6,0,1,1,-6,0A6,6,0,1,1,6,0"></path></marker></defs><g id="kity_g_8"><g id="minder1" text-rendering="optimize-speed"><g id="minder_connect_group1"><path id="kity_path_31" fill="none" stroke="rgb(115, 161, 191)" stroke-width="1" d="M101.000004703179,149.5000034738332A96.5,68.5,0,0,1,197.500004703179,81.0000034738332"></path><path id="kity_path_33" fill="none" stroke="rgb(115, 161, 191)" stroke-width="1" d="M375.500004703179,81.5000034738332C383.500004703179,81.0000034738332,383.500004703179,55.5000034738332,391.500004703179,55.5000034738332"></path><path id="kity_path_35" fill="none" stroke="rgb(115, 161, 191)" stroke-width="1" d="M512.500004703179,55.5000034738332C520.500004703179,55.5000034738332,520.500004703179,29.500003473833203,528.500004703179,29.500003473833203"></path><path id="kity_path_37" fill="none" stroke="rgb(115, 161, 191)" stroke-width="1" d="M512.500004703179,55.5000034738332C520.500004703179,55.5000034738332,520.500004703179,55.5000034738332,528.500004703179,55.5000034738332"></path><path id="kity_path_39" fill="none" stroke="rgb(115, 161, 191)" stroke-width="1" d="M512.500004703179,55.5000034738332C520.500004703179,55.5000034738332,520.500004703179,81.5000034738332,528.500004703179,81.5000034738332"></path><path id="kity_path_41" fill="none" stroke="rgb(115, 161, 191)" stroke-width="1" d="M375.500004703179,81.5000034738332C383.500004703179,81.0000034738332,383.500004703179,107.5000034738332,391.500004703179,107.5000034738332"></path><path id="kity_path_43" fill="none" stroke="rgb(115, 161, 191)" stroke-width="1" d="M525.500004703179,107.5000034738332C533.500004703179,107.5000034738332,533.500004703179,107.5000034738332,541.500004703179,107.5000034738332"></path><path id="kity_path_49" fill="none" stroke="rgb(115, 161, 191)" stroke-width="1" d="M101.000004703179,149.5000034738332A96.5,5.5,0,0,0,197.500004703179,155.0000034738332"></path><path id="kity_path_51" fill="none" stroke="none" display="none"></path><path id="kity_path_53" fill="none" stroke="none" display="none"></path><path id="kity_path_55" fill="none" stroke="rgb(115, 161, 191)" stroke-width="1" d="M101.000004703179,149.5000034738332A96.5,68.5,0,0,0,197.500004703179,218.0000034738332"></path></g><g id="minder_node1"><path id="node_outline1" fill="rgb(115, 161, 191)" stroke="rgb(115, 161, 191)" d="M25.500004703179002,123.5000034738332h151a5,5,0,0,1,5,5v42a5,5,0,0,1,-5,5h-151a5,5,0,0,1,-5,-5v-42a5,5,0,0,1,5,-5z" stroke-width="3"></path><g id="node_text1" fill="white"><text id="kity_text_22" text-rendering="inherit" font-size="16" dy=".8em" y="127.10000339595842" x="32.500004703179">机器学习</text><text id="kity_text_85" text-rendering="inherit" font-size="16" dy=".8em" y="151.10000339595842" x="32.500004703179">Machine Learning</text></g></g><g id="kity_g_12"><path id="kity_path_13" fill="none" stroke="none" d="M32.500004703179,149.5000034738332h0v0h0z"></path></g><g id="kity_g_14"><path id="kity_path_15" fill="none" stroke="none" d="M32.500004703179,149.5000034738332h0v0h0z"></path><path id="kity_path_16" fill="none" stroke="none"></path></g><g id="minder_node2"><g id="node_expander9" style="cursor: pointer;"><path id="kity_path_124" fill="white" stroke="gray" d="M198.50000768341124,81.00000219792128A6,6,0,1,1,186.50000768341124,81.00000219792128A6,6,0,1,1,198.50000768341124,81.00000219792128"></path><path id="kity_path_125" fill="none" stroke="gray" d="M188.00000768341124,81.00000219792128L197.00000768341124,81.00000219792128"></path></g><path id="node_outline10" fill="rgb(238, 243, 246)" stroke="rgb(115, 161, 191)" d="M202.50000818632543,57.50000218860805h170a3,3,0,0,1,3,3v41a3,3,0,0,1,-3,3h-170a3,3,0,0,1,-3,-3v-41a3,3,0,0,1,3,-3z" stroke-width="1"></path><g id="node_text10" fill="black"><text id="kity_text_73" text-rendering="inherit" font-size="14" dy=".8em" y="60.90000218266378" x="219.50000818632543">监督学习</text><text id="kity_text_74" text-rendering="inherit" font-size="14" dy=".8em" y="81.90000218266378" x="219.50000818632543">Supervised Learning</text></g></g><g id="minder_node3"><g id="node_expander4" style="cursor: pointer;"><path id="kity_path_109" fill="white" stroke="gray" d="M391.5000112783164,55.50000172294676A6,6,0,1,1,379.5000112783164,55.50000172294676A6,6,0,1,1,391.5000112783164,55.50000172294676"></path><path id="kity_path_110" fill="none" stroke="gray" d="M381.0000112783164,55.50000172294676L390.0000112783164,55.50000172294676"></path></g><path id="node_outline5" fill="none" stroke="none" d="M396.50001148320735,46.50000172294676h111a5,5,0,0,1,5,5v8a5,5,0,0,1,-5,5h-111a5,5,0,0,1,-5,-5v-8a5,5,0,0,1,5,-5z"></path><g id="node_text5" fill="black"><text id="kity_text_63" text-rendering="inherit" font-size="12" dy=".8em" y="47.700001788932994" x="396.50001148320735">回归（Regression）</text></g></g><g id="minder_node4"><g id="node_expander1" display="none" style="cursor: pointer;"><path id="kity_path_100" fill="white" stroke="gray" d="M528.5000138301402,29.500001238659024A6,6,0,1,1,516.5000138301402,29.500001238659024A6,6,0,1,1,528.5000138301402,29.500001238659024"></path><path id="kity_path_101" fill="none" stroke="gray"></path></g><path id="node_outline2" fill="none" stroke="none" d="M533.5000140350312,20.500001238659024h152a5,5,0,0,1,5,5v8a5,5,0,0,1,-5,5h-152a5,5,0,0,1,-5,-5v-8a5,5,0,0,1,5,-5z"></path><g id="node_text2" fill="black"><text id="kity_text_57" text-rendering="inherit" font-size="12" dy=".8em" y="21.700001304645255" x="533.5000140350312">代价函数（Cost Function）</text></g></g><g id="minder_node5"><g id="node_expander2" display="none" style="cursor: pointer;"><path id="kity_path_103" fill="white" stroke="gray" d="M528.5000138301402,55.50000172294676A6,6,0,1,1,516.5000138301402,55.50000172294676A6,6,0,1,1,528.5000138301402,55.50000172294676"></path><path id="kity_path_104" fill="none" stroke="gray"></path></g><path id="node_outline3" fill="none" stroke="none" d="M533.5000140350312,46.50000172294676h184a5,5,0,0,1,5,5v8a5,5,0,0,1,-5,5h-184a5,5,0,0,1,-5,-5v-8a5,5,0,0,1,5,-5z"></path><g id="node_text3" fill="black"><text id="kity_text_59" text-rendering="inherit" font-size="12" dy=".8em" y="47.700001788932994" x="533.5000140350312">梯度下降法（Gradient Descent）</text></g></g><g id="minder_node6"><g id="node_expander3" display="none" style="cursor: pointer;"><path id="kity_path_106" fill="white" stroke="gray" d="M528.5000138301402,81.5000022072345A6,6,0,1,1,516.5000138301402,81.5000022072345A6,6,0,1,1,528.5000138301402,81.5000022072345"></path><path id="kity_path_107" fill="none" stroke="gray"></path></g><path id="node_outline4" fill="none" stroke="none" d="M533.5000140350312,72.5000022072345h182a5,5,0,0,1,5,5v8a5,5,0,0,1,-5,5h-182a5,5,0,0,1,-5,-5v-8a5,5,0,0,1,5,-5z"></path><g id="node_text4" fill="black"><text id="kity_text_61" text-rendering="inherit" font-size="12" dy=".8em" y="73.70000227322073" x="533.5000140350312">正规方程法（Normal Equation）</text></g></g><g id="minder_node7"><g id="node_expander8" style="cursor: pointer;"><path id="kity_path_121" fill="white" stroke="gray" d="M391.5000112783164,107.50000269152224A6,6,0,1,1,379.5000112783164,107.50000269152224A6,6,0,1,1,391.5000112783164,107.50000269152224"></path><path id="kity_path_122" fill="none" stroke="gray" d="M381.0000112783164,107.50000269152224L390.0000112783164,107.50000269152224"></path></g><path id="node_outline9" fill="none" stroke="none" d="M396.50001148320735,98.50000269152224h124a5,5,0,0,1,5,5v8a5,5,0,0,1,-5,5h-124a5,5,0,0,1,-5,-5v-8a5,5,0,0,1,5,-5z"></path><g id="node_text9" fill="black"><text id="kity_text_71" text-rendering="inherit" font-size="12" dy=".8em" y="99.70000275750847" x="396.50001148320735">分类（Classification）</text></g></g><g id="minder_node8"><g id="node_expander5" style="cursor: pointer;" display="none"><path id="kity_path_112" fill="white" stroke="gray" d="M541.5000140722841,107.50000269152224A6,6,0,1,1,529.5000140722841,107.50000269152224A6,6,0,1,1,541.5000140722841,107.50000269152224"></path><path id="kity_path_113" fill="none" stroke="gray"></path></g><path id="node_outline6" fill="none" stroke="none" d="M546.5000142771751,98.50000269152224h183a5,5,0,0,1,5,5v8a5,5,0,0,1,-5,5h-183a5,5,0,0,1,-5,-5v-8a5,5,0,0,1,5,-5z" stroke-width="3"></path><g id="node_text6" fill="black"><text id="kity_text_65" text-rendering="inherit" font-size="12" dy=".8em" y="99.70000275750847" x="546.5000142771751">逻辑回归（Logistic Regression）</text></g></g><g id="minder_node11"><g id="node_expander12" style="cursor: pointer;"><path id="kity_path_133" fill="white" stroke="gray" d="M198.50000768341124,155.0000035762787A6,6,0,1,1,186.50000768341124,155.0000035762787A6,6,0,1,1,198.50000768341124,155.0000035762787"></path><path id="kity_path_134" fill="none" stroke="gray" d="M188.00000768341124,155.0000035762787L197.00000768341124,155.0000035762787M192.50000768341124,150.5000035762787L192.50000768341124,159.5000035762787"></path></g><path id="node_outline13" fill="rgb(238, 243, 246)" stroke="rgb(115, 161, 191)" d="M202.50000818632543,131.50000356696546h187a3,3,0,0,1,3,3v41a3,3,0,0,1,-3,3h-187a3,3,0,0,1,-3,-3v-41a3,3,0,0,1,3,-3z" stroke-width="1"></path><g id="node_text13" fill="black"><text id="kity_text_80" text-rendering="inherit" font-size="14" dy=".8em" y="134.9000035610212" x="219.50000818632543">无监督学习</text><text id="kity_text_81" text-rendering="inherit" font-size="14" dy=".8em" y="155.9000035610212" x="219.50000818632543">Unsupervised Learning</text></g></g><g id="minder_node12" display="none"><g id="node_expander10" display="none" style="cursor: pointer;"><path id="kity_path_127" fill="white" stroke="gray" d="M408.50001159496605,147.5000034365803A6,6,0,1,1,396.50001159496605,147.5000034365803A6,6,0,1,1,408.50001159496605,147.5000034365803"></path><path id="kity_path_128" fill="none" stroke="gray"></path></g><path id="node_outline11" fill="none" stroke="none" d="M408.50001170672476,138.5000034365803h106a5,5,0,0,1,5,5v8a5,5,0,0,1,-5,5h-106a5,5,0,0,1,-5,-5v-8a5,5,0,0,1,5,-5z"></path><g id="node_text11" fill="black"><text id="kity_text_76" text-rendering="inherit" font-size="12" dy=".8em" y="139.70000350256652" x="408.50001170672476">聚类（Clustering）</text></g></g><g id="minder_node13" display="none"><g id="node_expander11" display="none" style="cursor: pointer;"><path id="kity_path_130" fill="white" stroke="gray" d="M408.50001159496605,155.5000035855919A6,6,0,1,1,396.50001159496605,155.5000035855919A6,6,0,1,1,408.50001159496605,155.5000035855919"></path><path id="kity_path_131" fill="none" stroke="gray"></path></g><path id="node_outline12" fill="none" stroke="none" d="M408.50001170672476,146.5000035855919h146a5,5,0,0,1,5,5v8a5,5,0,0,1,-5,5h-146a5,5,0,0,1,-5,-5v-8a5,5,0,0,1,5,-5z"></path><g id="node_text12" fill="black"><text id="kity_text_78" text-rendering="inherit" font-size="12" dy=".8em" y="147.70000365157813" x="408.50001170672476">非聚类（Non-clustering）</text></g></g><g id="minder_node14"><g id="node_expander13" display="none" style="cursor: pointer;"><path id="kity_path_136" fill="white" stroke="gray" d="M198.50000768341124,218.00000474974513A6,6,0,1,1,186.50000768341124,218.00000474974513A6,6,0,1,1,198.50000768341124,218.00000474974513"></path><path id="kity_path_137" fill="none" stroke="gray"></path></g><path id="node_outline14" fill="rgb(238, 243, 246)" stroke="rgb(115, 161, 191)" d="M202.50000818632543,194.5000047404319h195a3,3,0,0,1,3,3v41a3,3,0,0,1,-3,3h-195a3,3,0,0,1,-3,-3v-41a3,3,0,0,1,3,-3z" stroke-width="1"></path><g id="node_text14" fill="black"><text id="kity_text_83" text-rendering="inherit" font-size="14" dy=".8em" y="197.90000473448765" x="219.50000818632543">强化学习</text><text id="kity_text_84" text-rendering="inherit" font-size="14" dy=".8em" y="218.90000473448765" x="219.50000818632543">Reinforcement Learning</text></g></g></g></g></svg>