<svg id="kity_svg_6" xmlns="http://www.w3.org/2000/svg" xmlns:xlink="http://www.w3.org/1999/xlink" version="1.1" width="804" height="351" style="background: rgb(251, 251, 251); visibility: visible;" viewBox="0 0 804 351"><defs id="kity_defs_7"><linearGradient id="kity_linearGradient_17" x1="0" y1="0" x2="0" y2="1"><stop id="kity_stop_18" offset="0" stop-color="rgb(255, 255, 255)"></stop><stop id="kity_stop_19" offset="1" stop-color="rgb(204, 204, 204)"></stop></linearGradient><marker id="kity_marker_2" orient="auto" refX="6" refY="0" viewBox="-7 -7 14 14" markerWidth="7" markerHeight="7" markerUnits="userSpaceOnUse"><path id="kity_path_3" fill="rgb(115, 161, 191)" stroke="none" d="M6,0A6,6,0,1,1,-6,0A6,6,0,1,1,6,0"></path></marker></defs><g id="kity_g_8"><g id="minder1" text-rendering="optimize-speed"><g id="minder_connect_group1"><path id="kity_path_31" fill="none" stroke="rgb(115, 161, 191)" stroke-width="1" d="M101.99999821780023,176.49999361991885A96.5,131.5,0,0,1,198.49999821780023,44.999993619918854"></path><path id="kity_path_33" fill="none" stroke="rgb(115, 161, 191)" stroke-width="1" d="M376.4999982178002,-38.500006380081146C384.4999982178002,-39.000006380081146,384.4999982178002,-129.50000638008115,392.4999982178002,-129.50000638008115" display="none"></path><path id="kity_path_35" fill="none" stroke="rgb(115, 161, 191)" stroke-width="1" d="M513.4999982178002,-129.50000638008115C521.4999982178002,-129.50000638008115,521.4999982178002,-194.50000638008115,529.4999982178002,-194.50000638008115" display="none"></path><path id="kity_path_37" fill="none" stroke="rgb(115, 161, 191)" stroke-width="1" d="M513.4999982178002,-129.50000638008115C521.4999982178002,-129.50000638008115,521.4999982178002,-168.50000638008115,529.4999982178002,-168.50000638008115" display="none"></path><path id="kity_path_39" fill="none" stroke="rgb(115, 161, 191)" stroke-width="1" d="M746.4999982178002,-168.50000638008115C754.4999982178002,-168.50000638008115,754.4999982178002,-168.50000638008115,762.4999982178002,-168.50000638008115" display="none"></path><path id="kity_path_41" fill="none" stroke="rgb(115, 161, 191)" stroke-width="1" d="M513.4999982178002,-129.50000638008115C521.4999982178002,-129.50000638008115,521.4999982178002,-116.50000638008115,529.4999982178002,-116.50000638008115" display="none"></path><path id="kity_path_43" fill="none" stroke="rgb(115, 161, 191)" stroke-width="1" d="M694.4999982178002,-116.50000638008115C702.4999982178002,-116.50000638008115,702.4999982178002,-116.50000638008115,710.4999982178002,-116.50000638008115" display="none"></path><path id="kity_path_45" fill="none" stroke="rgb(115, 161, 191)" stroke-width="1" d="M925.4999982178002,-116.50000638008115C933.4999982178002,-116.50000638008115,933.4999982178002,-142.50000638008115,941.4999982178002,-142.50000638008115" display="none"></path><path id="kity_path_47" fill="none" stroke="rgb(115, 161, 191)" stroke-width="1" d="M925.4999982178002,-116.50000638008115C933.4999982178002,-116.50000638008115,933.4999982178002,-116.50000638008115,941.4999982178002,-116.50000638008115" display="none"></path><path id="kity_path_49" fill="none" stroke="rgb(115, 161, 191)" stroke-width="1" d="M925.4999982178002,-116.50000638008115C933.4999982178002,-116.50000638008115,933.4999982178002,-90.50000638008115,941.4999982178002,-90.50000638008115" display="none"></path><path id="kity_path_51" fill="none" stroke="rgb(115, 161, 191)" stroke-width="1" d="M513.4999982178002,-129.50000638008115C521.4999982178002,-129.50000638008115,521.4999982178002,-64.50000638008115,529.4999982178002,-64.50000638008115" display="none"></path><path id="kity_path_53" fill="none" stroke="rgb(115, 161, 191)" stroke-width="1" d="M691.4999982178002,-64.50000638008115C699.4999982178002,-64.50000638008115,699.4999982178002,-64.50000638008115,707.4999982178002,-64.50000638008115" display="none"></path><path id="kity_path_55" fill="none" stroke="rgb(115, 161, 191)" stroke-width="1" d="M376.4999982178002,-38.500006380081146C384.4999982178002,-39.000006380081146,384.4999982178002,52.499993619918854,392.4999982178002,52.499993619918854" display="none"></path><path id="kity_path_57" fill="none" stroke="rgb(115, 161, 191)" stroke-width="1" d="M526.4999982178002,52.499993619918854C534.4999982178002,52.499993619918854,534.4999982178002,-38.500006380081146,542.4999982178002,-38.500006380081146" display="none"></path><path id="kity_path_59" fill="none" stroke="rgb(115, 161, 191)" stroke-width="1" d="M526.4999982178002,52.499993619918854C534.4999982178002,52.499993619918854,534.4999982178002,-12.500006380081146,542.4999982178002,-12.500006380081146" display="none"></path><path id="kity_path_61" fill="none" stroke="rgb(115, 161, 191)" stroke-width="1" d="M716.4999982178002,-12.500006380081146C724.4999982178002,-12.500006380081146,724.4999982178002,-12.500006380081146,732.4999982178002,-12.500006380081146" display="none"></path><path id="kity_path_63" fill="none" stroke="rgb(115, 161, 191)" stroke-width="1" d="M526.4999982178002,52.499993619918854C534.4999982178002,52.499993619918854,534.4999982178002,13.499993619918854,542.4999982178002,13.499993619918854" display="none"></path><path id="kity_path_65" fill="none" stroke="rgb(115, 161, 191)" stroke-width="1" d="M777.4999982178002,13.499993619918854C785.4999982178002,13.499993619918854,785.4999982178002,13.499993619918854,793.4999982178002,13.499993619918854" display="none"></path><path id="kity_path_67" fill="none" stroke="rgb(115, 161, 191)" stroke-width="1" d="M526.4999982178002,52.499993619918854C534.4999982178002,52.499993619918854,534.4999982178002,39.499993619918854,542.4999982178002,39.499993619918854" display="none"></path><path id="kity_path_69" fill="none" stroke="rgb(115, 161, 191)" stroke-width="1" d="M526.4999982178002,52.499993619918854C534.4999982178002,52.499993619918854,534.4999982178002,91.49999361991885,542.4999982178002,91.49999361991885" display="none"></path><path id="kity_path_71" fill="none" stroke="rgb(115, 161, 191)" stroke-width="1" d="M690.4999982178002,91.49999361991885C698.4999982178002,91.49999361991885,698.4999982178002,65.49999361991885,706.4999982178002,65.49999361991885" display="none"></path><path id="kity_path_73" fill="none" stroke="rgb(115, 161, 191)" stroke-width="1" d="M736.4999982178002,65.49999361991885C744.4999982178002,65.49999361991885,744.4999982178002,65.49999361991885,752.4999982178002,65.49999361991885" display="none"></path><path id="kity_path_75" fill="none" stroke="rgb(115, 161, 191)" stroke-width="1" d="M690.4999982178002,91.49999361991885C698.4999982178002,91.49999361991885,698.4999982178002,91.49999361991885,706.4999982178002,91.49999361991885" display="none"></path><path id="kity_path_77" fill="none" stroke="rgb(115, 161, 191)" stroke-width="1" d="M741.4999982178002,91.49999361991885C749.4999982178002,91.49999361991885,749.4999982178002,91.49999361991885,757.4999982178002,91.49999361991885" display="none"></path><path id="kity_path_79" fill="none" stroke="rgb(115, 161, 191)" stroke-width="1" d="M690.4999982178002,91.49999361991885C698.4999982178002,91.49999361991885,698.4999982178002,117.49999361991885,706.4999982178002,117.49999361991885" display="none"></path><path id="kity_path_81" fill="none" stroke="rgb(115, 161, 191)" stroke-width="1" d="M748.4999982178002,117.49999361991885C756.4999982178002,117.49999361991885,756.4999982178002,117.49999361991885,764.4999982178002,117.49999361991885" display="none"></path><path id="kity_path_83" fill="none" stroke="rgb(115, 161, 191)" stroke-width="1" d="M526.4999982178002,52.499993619918854C534.4999982178002,52.499993619918854,534.4999982178002,143.49999361991885,542.4999982178002,143.49999361991885" display="none"></path><path id="kity_path_85" fill="none" stroke="rgb(115, 161, 191)" stroke-width="1" d="M101.99999821780023,176.49999361991885A96.5,68.5,0,0,1,198.49999821780023,107.99999361991885"></path><path id="kity_path_87" fill="none" stroke="rgb(115, 161, 191)" stroke-width="1" d="M393.4999982178002,108.49999361991885C401.4999982178002,107.99999361991885,401.4999982178002,95.49999361991885,409.4999982178002,95.49999361991885" display="none"></path><path id="kity_path_89" fill="none" stroke="rgb(115, 161, 191)" stroke-width="1" d="M526.4999982178002,95.49999361991885C534.4999982178002,95.49999361991885,534.4999982178002,95.49999361991885,542.4999982178002,95.49999361991885" display="none"></path><path id="kity_path_91" fill="none" stroke="rgb(115, 161, 191)" stroke-width="1" d="M393.4999982178002,108.49999361991885C401.4999982178002,107.99999361991885,401.4999982178002,121.49999361991885,409.4999982178002,121.49999361991885" display="none"></path><path id="kity_path_93" fill="none" stroke="rgb(115, 161, 191)" stroke-width="1" d="M614.4999982178002,121.49999361991885C622.4999982178002,121.49999361991885,622.4999982178002,121.49999361991885,630.4999982178002,121.49999361991885" display="none"></path><path id="kity_path_95" fill="none" stroke="rgb(115, 161, 191)" stroke-width="1" d="M101.99999821780023,176.49999361991885A96.5,31.5,0,0,0,198.49999821780023,207.99999361991885"></path><path id="kity_path_97" fill="none" stroke="rgb(115, 161, 191)" stroke-width="1" d="M367.4999982178002,208.49999361991885C375.4999982178002,207.99999361991885,375.4999982178002,156.49999361991885,383.4999982178002,156.49999361991885"></path><path id="kity_path_99" fill="none" stroke="rgb(115, 161, 191)" stroke-width="1" d="M441.4999982178002,156.49999361991885C449.4999982178002,156.49999361991885,449.4999982178002,156.49999361991885,457.4999982178002,156.49999361991885"></path><path id="kity_path_101" fill="none" stroke="rgb(115, 161, 191)" stroke-width="1" d="M367.4999982178002,208.49999361991885C375.4999982178002,207.99999361991885,375.4999982178002,208.49999361991885,383.4999982178002,208.49999361991885"></path><path id="kity_path_103" fill="none" stroke="rgb(115, 161, 191)" stroke-width="1" d="M444.4999982178002,208.49999361991885C452.4999982178002,208.49999361991885,452.4999982178002,182.49999361991885,460.4999982178002,182.49999361991885"></path><path id="kity_path_105" fill="none" stroke="rgb(115, 161, 191)" stroke-width="1" d="M444.4999982178002,208.49999361991885C452.4999982178002,208.49999361991885,452.4999982178002,208.49999361991885,460.4999982178002,208.49999361991885"></path><path id="kity_path_107" fill="none" stroke="rgb(115, 161, 191)" stroke-width="1" d="M785.4999982178002,208.49999361991885C793.4999982178002,208.49999361991885,793.4999982178002,208.49999361991885,801.4999982178002,208.49999361991885" display="none"></path><path id="kity_path_109" fill="none" stroke="rgb(115, 161, 191)" stroke-width="1" d="M444.4999982178002,208.49999361991885C452.4999982178002,208.49999361991885,452.4999982178002,234.49999361991885,460.4999982178002,234.49999361991885"></path><path id="kity_path_111" fill="none" stroke="rgb(115, 161, 191)" stroke-width="1" d="M367.4999982178002,208.49999361991885C375.4999982178002,207.99999361991885,375.4999982178002,260.4999936199189,383.4999982178002,260.4999936199189"></path><path id="kity_path_113" fill="none" stroke="rgb(115, 161, 191)" stroke-width="1" d="M101.99999821780023,176.49999361991885A96.5,132.5,0,0,0,198.49999821780023,308.9999936199189"></path></g><g id="minder_node1"><path id="node_outline1" fill="rgb(115, 161, 191)" stroke="rgb(115, 161, 191)" d="M26.499998217800226,150.49999361991885h151a5,5,0,0,1,5,5v42a5,5,0,0,1,-5,5h-151a5,5,0,0,1,-5,-5v-42a5,5,0,0,1,5,-5z" stroke-width="3"></path><g id="node_text1" fill="white"><text id="kity_text_22" text-rendering="inherit" font-size="16" dy=".8em" y="154.09999358926743" x="33.499998217800226">机器学习</text><text id="kity_text_202" text-rendering="inherit" font-size="16" dy=".8em" y="178.09999358926743" x="33.499998217800226">Machine Learning</text></g></g><g id="kity_g_12"><path id="kity_path_13" fill="none" stroke="none" d="M33.499998217800226,176.49999361991885h0v0h0z"></path></g><g id="kity_g_14"><path id="kity_path_15" fill="none" stroke="none" d="M33.499998217800226,176.49999361991885h0v0h0z"></path><path id="kity_path_16" fill="none" stroke="none"></path></g><g id="minder_node2"><g id="node_expander27" style="cursor: pointer;"><path id="kity_path_324" fill="white" stroke="gray" d="M199.4999954161728,44.99999652410808A6,6,0,1,1,187.4999954161728,44.99999652410808A6,6,0,1,1,199.4999954161728,44.99999652410808"></path><path id="kity_path_325" fill="none" stroke="gray" d="M188.9999954161728,44.99999652410808L197.9999954161728,44.99999652410808M193.4999954161728,40.49999652410808L193.4999954161728,49.49999652410808"></path></g><path id="node_outline28" fill="rgb(238, 243, 246)" stroke="rgb(115, 161, 191)" d="M203.49999408788852,21.499996535150615h170a3,3,0,0,1,3,3v41a3,3,0,0,1,-3,3h-170a3,3,0,0,1,-3,-3v-41a3,3,0,0,1,3,-3z" stroke-width="1"></path><g id="node_text28" fill="black"><text id="kity_text_167" text-rendering="inherit" font-size="14" dy=".8em" y="24.899996717469726" x="220.49999408788852">监督学习</text><text id="kity_text_168" text-rendering="inherit" font-size="14" dy=".8em" y="45.899996717469726" x="220.49999408788852">Supervised Learning</text></g></g><g id="minder_node3" display="none"><g id="node_expander11" style="cursor: pointer;" display="none"><path id="kity_path_276" fill="white" stroke="gray" d="M392.4999902126246,37.49999668974625A6,6,0,1,1,380.4999902126246,37.49999668974625A6,6,0,1,1,392.4999902126246,37.49999668974625"></path><path id="kity_path_277" fill="none" stroke="gray" d="M381.9999902126246,37.49999668974625L390.9999902126246,37.49999668974625"></path></g><path id="node_outline12" fill="none" stroke="none" d="M392.49999028925316,28.49999668974624h111a5,5,0,0,1,5,5v8a5,5,0,0,1,-5,5h-111a5,5,0,0,1,-5,-5v-8a5,5,0,0,1,5,-5z"></path><g id="node_text12" fill="black"><text id="kity_text_135" text-rendering="inherit" font-size="12" dy=".8em" y="29.699996875896773" x="392.49999028925316">回归（Regression）</text></g></g><g id="minder_node4" display="none"><g id="node_expander1" style="cursor: pointer;" display="none"><path id="kity_path_246" fill="white" stroke="gray" d="M408.49998985926317,13.49999721978839A6,6,0,1,1,396.49998985926317,13.49999721978839A6,6,0,1,1,408.49998985926317,13.49999721978839"></path><path id="kity_path_247" fill="none" stroke="gray"></path></g><path id="node_outline2" fill="none" stroke="none" d="M408.49998993589173,4.4999972197883835h184a5,5,0,0,1,5,5v8a5,5,0,0,1,-5,5h-184a5,5,0,0,1,-5,-5v-8a5,5,0,0,1,5,-5z"></path><g id="node_text2" fill="black"><text id="kity_text_115" text-rendering="inherit" font-size="12" dy=".8em" y="5.699997405938916" x="408.49998993589173">梯度下降法（Gradient Descent）</text></g></g><g id="minder_node5" display="none"><g id="node_expander3" style="cursor: pointer;" display="none"><path id="kity_path_252" fill="white" stroke="gray" d="M408.49998985926317,21.499997043107676A6,6,0,1,1,396.49998985926317,21.499997043107676A6,6,0,1,1,408.49998985926317,21.499997043107676"></path><path id="kity_path_253" fill="none" stroke="gray" d="M397.99998985926317,21.499997043107676L406.99998985926317,21.499997043107676"></path></g><path id="node_outline4" fill="none" stroke="none" d="M408.49998993589173,12.499997043107669h207a5,5,0,0,1,5,5v8a5,5,0,0,1,-5,5h-207a5,5,0,0,1,-5,-5v-8a5,5,0,0,1,5,-5z"></path><g id="node_text4" fill="black"><text id="kity_text_119" text-rendering="inherit" font-size="12" dy=".8em" y="13.699997229258202" x="408.49998993589173">最小二乘法（Least Square Method）</text></g></g><g id="minder_node6" display="none"><g id="node_expander2" style="cursor: pointer;" display="none"><path id="kity_path_249" fill="white" stroke="gray" d="M424.49998950590174,21.499997043107676A6,6,0,1,1,412.49998950590174,21.499997043107676A6,6,0,1,1,424.49998950590174,21.499997043107676"></path><path id="kity_path_250" fill="none" stroke="gray"></path></g><path id="node_outline3" fill="none" stroke="none" d="M424.4999895825303,12.499997043107669h169a5,5,0,0,1,5,5v8a5,5,0,0,1,-5,5h-169a5,5,0,0,1,-5,-5v-8a5,5,0,0,1,5,-5z"></path><g id="node_text3" fill="black"><text id="kity_text_117" text-rendering="inherit" font-size="12" dy=".8em" y="13.699997229258202" x="424.4999895825303">正规方程（Normal Function）</text></g></g><g id="minder_node7" display="none"><g id="node_expander8" style="cursor: pointer;" display="none"><path id="kity_path_267" fill="white" stroke="gray" d="M408.49998985926317,29.49999686642696A6,6,0,1,1,396.49998985926317,29.49999686642696A6,6,0,1,1,408.49998985926317,29.49999686642696"></path><path id="kity_path_268" fill="none" stroke="gray" d="M397.99998985926317,29.49999686642696L406.99998985926317,29.49999686642696"></path></g><path id="node_outline9" fill="none" stroke="none" d="M408.49998993589173,20.499996866426955h155a5,5,0,0,1,5,5v8a5,5,0,0,1,-5,5h-155a5,5,0,0,1,-5,-5v-8a5,5,0,0,1,5,-5z"></path><g id="node_text9" fill="black"><text id="kity_text_129" text-rendering="inherit" font-size="12" dy=".8em" y="21.699997052577487" x="408.49998993589173">牛顿法（Newton Method）</text></g></g><g id="minder_node8" display="none"><g id="node_expander7" style="cursor: pointer;" display="none"><path id="kity_path_264" fill="white" stroke="gray" d="M424.49998950590174,29.49999686642696A6,6,0,1,1,412.49998950590174,29.49999686642696A6,6,0,1,1,424.49998950590174,29.49999686642696"></path><path id="kity_path_265" fill="none" stroke="gray" d="M413.99998950590174,29.49999686642696L422.99998950590174,29.49999686642696"></path></g><path id="node_outline8" fill="none" stroke="none" d="M424.4999895825303,20.499996866426955h205a5,5,0,0,1,5,5v8a5,5,0,0,1,-5,5h-205a5,5,0,0,1,-5,-5v-8a5,5,0,0,1,5,-5z"></path><g id="node_text8" fill="black"><text id="kity_text_127" text-rendering="inherit" font-size="12" dy=".8em" y="21.699997052577487" x="424.4999895825303">拟牛顿法（Quasi-Newton Method）</text></g></g><g id="minder_node9" display="none"><g id="node_expander4" style="cursor: pointer;" display="none"><path id="kity_path_255" fill="white" stroke="gray" d="M440.4999891525403,13.49999721978839A6,6,0,1,1,428.4999891525403,13.49999721978839A6,6,0,1,1,440.4999891525403,13.49999721978839"></path><path id="kity_path_256" fill="none" stroke="gray"></path></g><path id="node_outline5" fill="none" stroke="none" d="M440.4999892291689,4.4999972197883835h23a5,5,0,0,1,5,5v8a5,5,0,0,1,-5,5h-23a5,5,0,0,1,-5,-5v-8a5,5,0,0,1,5,-5z"></path><g id="node_text5" fill="black"><text id="kity_text_121" text-rendering="inherit" font-size="12" dy=".8em" y="5.699997405938916" x="440.4999892291689">DFP</text></g></g><g id="minder_node10" display="none"><g id="node_expander5" style="cursor: pointer;" display="none"><path id="kity_path_258" fill="white" stroke="gray" d="M440.4999891525403,21.499997043107676A6,6,0,1,1,428.4999891525403,21.499997043107676A6,6,0,1,1,440.4999891525403,21.499997043107676"></path><path id="kity_path_259" fill="none" stroke="gray"></path></g><path id="node_outline6" fill="none" stroke="none" d="M440.4999892291689,12.499997043107669h30a5,5,0,0,1,5,5v8a5,5,0,0,1,-5,5h-30a5,5,0,0,1,-5,-5v-8a5,5,0,0,1,5,-5z"></path><g id="node_text6" fill="black"><text id="kity_text_123" text-rendering="inherit" font-size="12" dy=".8em" y="13.699997229258202" x="440.4999892291689">BFGS</text></g></g><g id="minder_node11" display="none"><g id="node_expander6" style="cursor: pointer;" display="none"><path id="kity_path_261" fill="white" stroke="gray" d="M440.4999891525403,29.49999686642696A6,6,0,1,1,428.4999891525403,29.49999686642696A6,6,0,1,1,440.4999891525403,29.49999686642696"></path><path id="kity_path_262" fill="none" stroke="gray"></path></g><path id="node_outline7" fill="none" stroke="none" d="M440.4999892291689,20.499996866426955h41a5,5,0,0,1,5,5v8a5,5,0,0,1,-5,5h-41a5,5,0,0,1,-5,-5v-8a5,5,0,0,1,5,-5z"></path><g id="node_text7" fill="black"><text id="kity_text_125" text-rendering="inherit" font-size="12" dy=".8em" y="21.699997052577487" x="440.4999892291689">L-BFGS</text></g></g><g id="minder_node12" display="none"><g id="node_expander10" style="cursor: pointer;" display="none"><path id="kity_path_273" fill="white" stroke="gray" d="M408.49998985926317,37.49999668974625A6,6,0,1,1,396.49998985926317,37.49999668974625A6,6,0,1,1,408.49998985926317,37.49999668974625"></path><path id="kity_path_274" fill="none" stroke="gray" d="M397.99998985926317,37.49999668974625L406.99998985926317,37.49999668974625"></path></g><path id="node_outline11" fill="none" stroke="none" d="M408.49998993589173,28.49999668974624h152a5,5,0,0,1,5,5v8a5,5,0,0,1,-5,5h-152a5,5,0,0,1,-5,-5v-8a5,5,0,0,1,5,-5z"></path><g id="node_text11" fill="black"><text id="kity_text_133" text-rendering="inherit" font-size="12" dy=".8em" y="29.699996875896773" x="408.49998993589173">回归树（Regression Tree）</text></g></g><g id="minder_node13" display="none"><g id="node_expander9" style="cursor: pointer;" display="none"><path id="kity_path_270" fill="white" stroke="gray" d="M424.49998950590174,37.49999668974625A6,6,0,1,1,412.49998950590174,37.49999668974625A6,6,0,1,1,424.49998950590174,37.49999668974625"></path><path id="kity_path_271" fill="none" stroke="gray"></path></g><path id="node_outline10" fill="none" stroke="none" d="M424.4999895825303,28.49999668974624h283a5,5,0,0,1,5,5v8a5,5,0,0,1,-5,5h-283a5,5,0,0,1,-5,-5v-8a5,5,0,0,1,5,-5z"></path><g id="node_text10" fill="black"><text id="kity_text_131" text-rendering="inherit" font-size="12" dy=".8em" y="29.699996875896773" x="424.4999895825303">最小二乘回归树（Least Squares Regression Tree）</text></g></g><g id="minder_node14" display="none"><g id="node_expander26" style="cursor: pointer;" display="none"><path id="kity_path_321" fill="white" stroke="gray" d="M392.4999902126246,45.49999651306553A6,6,0,1,1,380.4999902126246,45.49999651306553A6,6,0,1,1,392.4999902126246,45.49999651306553"></path><path id="kity_path_322" fill="none" stroke="gray" d="M381.9999902126246,45.49999651306553L390.9999902126246,45.49999651306553"></path></g><path id="node_outline27" fill="none" stroke="none" d="M392.49999028925316,36.499996513065526h124a5,5,0,0,1,5,5v8a5,5,0,0,1,-5,5h-124a5,5,0,0,1,-5,-5v-8a5,5,0,0,1,5,-5z"></path><g id="node_text27" fill="black"><text id="kity_text_165" text-rendering="inherit" font-size="12" dy=".8em" y="37.69999669921606" x="392.49999028925316">分类（Classification）</text></g></g><g id="minder_node15" display="none"><g id="node_expander12" style="cursor: pointer;" display="none"><path id="kity_path_279" fill="white" stroke="gray" d="M408.49998985926317,5.499997396469105A6,6,0,1,1,396.49998985926317,5.499997396469105A6,6,0,1,1,408.49998985926317,5.499997396469105"></path><path id="kity_path_280" fill="none" stroke="gray"></path></g><path id="node_outline13" fill="none" stroke="none" d="M408.49998993589173,-3.500002603530902h183a5,5,0,0,1,5,5v8a5,5,0,0,1,-5,5h-183a5,5,0,0,1,-5,-5v-8a5,5,0,0,1,5,-5z"></path><g id="node_text13" fill="black"><text id="kity_text_137" text-rendering="inherit" font-size="12" dy=".8em" y="-2.3000024173803695" x="408.49998993589173">逻辑回归（Logistic Regression）</text></g></g><g id="minder_node16" display="none"><g id="node_expander14" style="cursor: pointer;" display="none"><path id="kity_path_285" fill="white" stroke="gray" d="M408.49998985926317,13.49999721978839A6,6,0,1,1,396.49998985926317,13.49999721978839A6,6,0,1,1,408.49998985926317,13.49999721978839"></path><path id="kity_path_286" fill="none" stroke="gray" d="M397.99998985926317,13.49999721978839L406.99998985926317,13.49999721978839"></path></g><path id="node_outline15" fill="none" stroke="none" d="M408.49998993589173,4.4999972197883835h164a5,5,0,0,1,5,5v8a5,5,0,0,1,-5,5h-164a5,5,0,0,1,-5,-5v-8a5,5,0,0,1,5,-5z"></path><g id="node_text15" fill="black"><text id="kity_text_141" text-rendering="inherit" font-size="12" dy=".8em" y="5.699997405938916" x="408.49998993589173">神经网络（Neural Network）</text></g></g><g id="minder_node17" display="none"><g id="node_expander13" style="cursor: pointer;" display="none"><path id="kity_path_282" fill="white" stroke="gray" d="M424.49998950590174,13.49999721978839A6,6,0,1,1,412.49998950590174,13.49999721978839A6,6,0,1,1,424.49998950590174,13.49999721978839"></path><path id="kity_path_283" fill="none" stroke="gray"></path></g><path id="node_outline14" fill="none" stroke="none" d="M424.4999895825303,4.4999972197883835h301a5,5,0,0,1,5,5v8a5,5,0,0,1,-5,5h-301a5,5,0,0,1,-5,-5v-8a5,5,0,0,1,5,-5z"></path><g id="node_text14" fill="black"><text id="kity_text_139" text-rendering="inherit" font-size="12" dy=".8em" y="5.699997405938916" x="424.4999895825303">前馈神经网络（Feedforward Neural Network，FNN）</text></g></g><g id="minder_node18" display="none"><g id="node_expander16" style="cursor: pointer;" display="none"><path id="kity_path_291" fill="white" stroke="gray" d="M408.49998985926317,21.499997043107676A6,6,0,1,1,396.49998985926317,21.499997043107676A6,6,0,1,1,408.49998985926317,21.499997043107676"></path><path id="kity_path_292" fill="none" stroke="gray" d="M397.99998985926317,21.499997043107676L406.99998985926317,21.499997043107676"></path></g><path id="node_outline17" fill="none" stroke="none" d="M408.49998993589173,12.499997043107669h225a5,5,0,0,1,5,5v8a5,5,0,0,1,-5,5h-225a5,5,0,0,1,-5,-5v-8a5,5,0,0,1,5,-5z"></path><g id="node_text17" fill="black"><text id="kity_text_145" text-rendering="inherit" font-size="12" dy=".8em" y="13.699997229258202" x="408.49998993589173">支持向量机（Support Vector Machine）</text></g></g><g id="minder_node19" display="none"><g id="node_expander15" style="cursor: pointer;" display="none"><path id="kity_path_288" fill="white" stroke="gray" d="M424.49998950590174,21.499997043107676A6,6,0,1,1,412.49998950590174,21.499997043107676A6,6,0,1,1,424.49998950590174,21.499997043107676"></path><path id="kity_path_289" fill="none" stroke="gray"></path></g><path id="node_outline16" fill="none" stroke="none" d="M424.4999895825303,12.499997043107669h326a5,5,0,0,1,5,5v8a5,5,0,0,1,-5,5h-326a5,5,0,0,1,-5,-5v-8a5,5,0,0,1,5,-5z"></path><g id="node_text16" fill="black"><text id="kity_text_143" text-rendering="inherit" font-size="12" dy=".8em" y="13.699997229258202" x="424.4999895825303">序列最小优化（Sequential Minimal Optimization，SMO）</text></g></g><g id="minder_node20" display="none"><g id="node_expander17" style="cursor: pointer;" display="none"><path id="kity_path_294" fill="white" stroke="gray" d="M408.49998985926317,29.49999686642696A6,6,0,1,1,396.49998985926317,29.49999686642696A6,6,0,1,1,408.49998985926317,29.49999686642696"></path><path id="kity_path_295" fill="none" stroke="gray"></path></g><path id="node_outline18" fill="none" stroke="none" d="M408.49998993589173,20.499996866426955h176a5,5,0,0,1,5,5v8a5,5,0,0,1,-5,5h-176a5,5,0,0,1,-5,-5v-8a5,5,0,0,1,5,-5z"></path><g id="node_text18" fill="black"><text id="kity_text_147" text-rendering="inherit" font-size="12" dy=".8em" y="21.699997052577487" x="408.49998993589173">K-近邻（K-Nearest Neighbor）</text></g></g><g id="minder_node21" display="none"><g id="node_expander24" style="cursor: pointer;" display="none"><path id="kity_path_315" fill="white" stroke="gray" d="M408.49998985926317,37.49999668974625A6,6,0,1,1,396.49998985926317,37.49999668974625A6,6,0,1,1,408.49998985926317,37.49999668974625"></path><path id="kity_path_316" fill="none" stroke="gray" d="M397.99998985926317,37.49999668974625L406.99998985926317,37.49999668974625"></path></g><path id="node_outline25" fill="none" stroke="none" d="M408.49998993589173,28.49999668974624h138a5,5,0,0,1,5,5v8a5,5,0,0,1,-5,5h-138a5,5,0,0,1,-5,-5v-8a5,5,0,0,1,5,-5z"></path><g id="node_text25" fill="black"><text id="kity_text_161" text-rendering="inherit" font-size="12" dy=".8em" y="29.699996875896773" x="408.49998993589173">决策树（Decision Tree）</text></g></g><g id="minder_node22" display="none"><g id="node_expander19" style="cursor: pointer;" display="none"><path id="kity_path_300" fill="white" stroke="gray" d="M424.49998950590174,21.499997043107676A6,6,0,1,1,412.49998950590174,21.499997043107676A6,6,0,1,1,424.49998950590174,21.499997043107676"></path><path id="kity_path_301" fill="none" stroke="gray" d="M413.99998950590174,21.499997043107676L422.99998950590174,21.499997043107676"></path></g><path id="node_outline20" fill="none" stroke="none" d="M424.4999895825303,12.499997043107669h20a5,5,0,0,1,5,5v8a5,5,0,0,1,-5,5h-20a5,5,0,0,1,-5,-5v-8a5,5,0,0,1,5,-5z"></path><g id="node_text20" fill="black"><text id="kity_text_151" text-rendering="inherit" font-size="12" dy=".8em" y="13.699997229258202" x="424.4999895825303">ID3</text></g></g><g id="minder_node23" display="none"><g id="node_expander18" style="cursor: pointer;" display="none"><path id="kity_path_297" fill="white" stroke="gray" d="M440.4999891525403,21.499997043107676A6,6,0,1,1,428.4999891525403,21.499997043107676A6,6,0,1,1,440.4999891525403,21.499997043107676"></path><path id="kity_path_298" fill="none" stroke="gray"></path></g><path id="node_outline19" fill="none" stroke="none" d="M440.4999892291689,12.499997043107669h170a5,5,0,0,1,5,5v8a5,5,0,0,1,-5,5h-170a5,5,0,0,1,-5,-5v-8a5,5,0,0,1,5,-5z"></path><g id="node_text19" fill="black"><text id="kity_text_149" text-rendering="inherit" font-size="12" dy=".8em" y="13.699997229258202" x="440.4999892291689">信息增益（Information Gain）</text></g></g><g id="minder_node24" display="none"><g id="node_expander21" style="cursor: pointer;" display="none"><path id="kity_path_306" fill="white" stroke="gray" d="M424.49998950590174,29.49999686642696A6,6,0,1,1,412.49998950590174,29.49999686642696A6,6,0,1,1,424.49998950590174,29.49999686642696"></path><path id="kity_path_307" fill="none" stroke="gray" d="M413.99998950590174,29.49999686642696L422.99998950590174,29.49999686642696"></path></g><path id="node_outline22" fill="none" stroke="none" d="M424.4999895825303,20.499996866426955h25a5,5,0,0,1,5,5v8a5,5,0,0,1,-5,5h-25a5,5,0,0,1,-5,-5v-8a5,5,0,0,1,5,-5z"></path><g id="node_text22" fill="black"><text id="kity_text_155" text-rendering="inherit" font-size="12" dy=".8em" y="21.699997052577487" x="424.4999895825303">C4.5</text></g></g><g id="minder_node25" display="none"><g id="node_expander20" style="cursor: pointer;" display="none"><path id="kity_path_303" fill="white" stroke="gray" d="M440.4999891525403,29.49999686642696A6,6,0,1,1,428.4999891525403,29.49999686642696A6,6,0,1,1,440.4999891525403,29.49999686642696"></path><path id="kity_path_304" fill="none" stroke="gray"></path></g><path id="node_outline21" fill="none" stroke="none" d="M440.4999892291689,20.499996866426955h120a5,5,0,0,1,5,5v8a5,5,0,0,1,-5,5h-120a5,5,0,0,1,-5,-5v-8a5,5,0,0,1,5,-5z"></path><g id="node_text21" fill="black"><text id="kity_text_153" text-rendering="inherit" font-size="12" dy=".8em" y="21.699997052577487" x="440.4999892291689">增益率（Gain Ratio）</text></g></g><g id="minder_node26" display="none"><g id="node_expander23" style="cursor: pointer;" display="none"><path id="kity_path_312" fill="white" stroke="gray" d="M424.49998950590174,37.49999668974625A6,6,0,1,1,412.49998950590174,37.49999668974625A6,6,0,1,1,424.49998950590174,37.49999668974625"></path><path id="kity_path_313" fill="none" stroke="gray" d="M413.99998950590174,37.49999668974625L422.99998950590174,37.49999668974625"></path></g><path id="node_outline24" fill="none" stroke="none" d="M424.4999895825303,28.49999668974624h32a5,5,0,0,1,5,5v8a5,5,0,0,1,-5,5h-32a5,5,0,0,1,-5,-5v-8a5,5,0,0,1,5,-5z"></path><g id="node_text24" fill="black"><text id="kity_text_159" text-rendering="inherit" font-size="12" dy=".8em" y="29.699996875896773" x="424.4999895825303">CART</text></g></g><g id="minder_node27" display="none"><g id="node_expander22" style="cursor: pointer;" display="none"><path id="kity_path_309" fill="white" stroke="gray" d="M440.4999891525403,37.49999668974625A6,6,0,1,1,428.4999891525403,37.49999668974625A6,6,0,1,1,440.4999891525403,37.49999668974625"></path><path id="kity_path_310" fill="none" stroke="gray"></path></g><path id="node_outline23" fill="none" stroke="none" d="M440.4999892291689,28.49999668974624h131a5,5,0,0,1,5,5v8a5,5,0,0,1,-5,5h-131a5,5,0,0,1,-5,-5v-8a5,5,0,0,1,5,-5z"></path><g id="node_text23" fill="black"><text id="kity_text_157" text-rendering="inherit" font-size="12" dy=".8em" y="29.699996875896773" x="440.4999892291689">基尼系数（Gini Index）</text></g></g><g id="minder_node28" display="none"><g id="node_expander25" style="cursor: pointer;" display="none"><path id="kity_path_318" fill="white" stroke="gray" d="M408.49998985926317,45.49999651306553A6,6,0,1,1,396.49998985926317,45.49999651306553A6,6,0,1,1,408.49998985926317,45.49999651306553"></path><path id="kity_path_319" fill="none" stroke="gray"></path></g><path id="node_outline26" fill="none" stroke="none" d="M408.49998993589173,36.499996513065526h171a5,5,0,0,1,5,5v8a5,5,0,0,1,-5,5h-171a5,5,0,0,1,-5,-5v-8a5,5,0,0,1,5,-5z"></path><g id="node_text26" fill="black"><text id="kity_text_163" text-rendering="inherit" font-size="12" dy=".8em" y="37.69999669921606" x="408.49998993589173">朴素贝叶斯（Naive Bayesian）</text></g></g><g id="minder_node29"><g id="node_expander32" style="cursor: pointer;"><path id="kity_path_339" fill="white" stroke="gray" d="M199.4999954161728,107.99999513274747A6,6,0,1,1,187.4999954161728,107.99999513274747A6,6,0,1,1,199.4999954161728,107.99999513274747"></path><path id="kity_path_340" fill="none" stroke="gray" d="M188.9999954161728,107.99999513274747L197.9999954161728,107.99999513274747M193.4999954161728,103.49999513274747L193.4999954161728,112.49999513274747"></path></g><path id="node_outline33" fill="rgb(238, 243, 246)" stroke="rgb(115, 161, 191)" d="M203.49999408788852,84.49999514379002h187a3,3,0,0,1,3,3v41a3,3,0,0,1,-3,3h-187a3,3,0,0,1,-3,-3v-41a3,3,0,0,1,3,-3z" stroke-width="1"></path><g id="node_text33" fill="black"><text id="kity_text_178" text-rendering="inherit" font-size="14" dy=".8em" y="87.89999532610912" x="220.49999408788852">无监督学习</text><text id="kity_text_179" text-rendering="inherit" font-size="14" dy=".8em" y="108.89999532610912" x="220.49999408788852">Unsupervised Learning</text></g></g><g id="minder_node30" display="none"><g id="node_expander29" style="cursor: pointer;" display="none"><path id="kity_path_330" fill="white" stroke="gray" d="M409.4999898371781,100.49999529838564A6,6,0,1,1,397.4999898371781,100.49999529838564A6,6,0,1,1,409.4999898371781,100.49999529838564"></path><path id="kity_path_331" fill="none" stroke="gray" d="M398.9999898371781,100.49999529838564L407.9999898371781,100.49999529838564"></path></g><path id="node_outline30" fill="none" stroke="none" d="M409.49998991380664,91.49999529838564h107a5,5,0,0,1,5,5v8a5,5,0,0,1,-5,5h-107a5,5,0,0,1,-5,-5v-8a5,5,0,0,1,5,-5z"></path><g id="node_text30" fill="black"><text id="kity_text_172" text-rendering="inherit" font-size="12" dy=".8em" y="92.69999548453617" x="409.49998991380664">聚类（Clustering）</text></g></g><g id="minder_node31" display="none"><g id="node_expander28" style="cursor: pointer;" display="none"><path id="kity_path_327" fill="white" stroke="gray" d="M425.49998948381665,100.49999529838564A6,6,0,1,1,413.49998948381665,100.49999529838564A6,6,0,1,1,425.49998948381665,100.49999529838564"></path><path id="kity_path_328" fill="none" stroke="gray"></path></g><path id="node_outline29" fill="none" stroke="none" d="M425.4999895604452,91.49999529838564h112a5,5,0,0,1,5,5v8a5,5,0,0,1,-5,5h-112a5,5,0,0,1,-5,-5v-8a5,5,0,0,1,5,-5z"></path><g id="node_text29" fill="black"><text id="kity_text_170" text-rendering="inherit" font-size="12" dy=".8em" y="92.69999548453617" x="425.4999895604452">K-均值（K-Means）</text></g></g><g id="minder_node32" display="none"><g id="node_expander31" style="cursor: pointer;" display="none"><path id="kity_path_336" fill="white" stroke="gray" d="M409.4999898371781,108.49999512170493A6,6,0,1,1,397.4999898371781,108.49999512170493A6,6,0,1,1,409.4999898371781,108.49999512170493"></path><path id="kity_path_337" fill="none" stroke="gray" d="M398.9999898371781,108.49999512170493L407.9999898371781,108.49999512170493"></path></g><path id="node_outline32" fill="none" stroke="none" d="M409.49998991380664,99.49999512170493h195a5,5,0,0,1,5,5v8a5,5,0,0,1,-5,5h-195a5,5,0,0,1,-5,-5v-8a5,5,0,0,1,5,-5z"></path><g id="node_text32" fill="black"><text id="kity_text_176" text-rendering="inherit" font-size="12" dy=".8em" y="100.69999530785546" x="409.49998991380664">降维（Dimensionality Reduction）</text></g></g><g id="minder_node33" display="none"><g id="node_expander30" style="cursor: pointer;" display="none"><path id="kity_path_333" fill="white" stroke="gray" d="M425.49998948381665,108.49999512170493A6,6,0,1,1,413.49998948381665,108.49999512170493A6,6,0,1,1,425.49998948381665,108.49999512170493"></path><path id="kity_path_334" fill="none" stroke="gray"></path></g><path id="node_outline31" fill="none" stroke="none" d="M425.4999895604452,99.49999512170493h267a5,5,0,0,1,5,5v8a5,5,0,0,1,-5,5h-267a5,5,0,0,1,-5,-5v-8a5,5,0,0,1,5,-5z"></path><g id="node_text31" fill="black"><text id="kity_text_174" text-rendering="inherit" font-size="12" dy=".8em" y="100.69999530785546" x="425.4999895604452">主成分分析法（Principal Component Analysis）</text></g></g><g id="minder_node34"><g id="node_expander41" style="cursor: pointer;"><path id="kity_path_366" fill="white" stroke="gray" d="M199.4999954161728,207.99999292423854A6,6,0,1,1,187.4999954161728,207.99999292423854A6,6,0,1,1,199.4999954161728,207.99999292423854"></path><path id="kity_path_367" fill="none" stroke="gray" d="M188.9999954161728,207.99999292423854L197.9999954161728,207.99999292423854"></path></g><path id="node_outline42" fill="rgb(238, 243, 246)" stroke="rgb(115, 161, 191)" d="M203.49999408788852,184.49999293528109h161a3,3,0,0,1,3,3v41a3,3,0,0,1,-3,3h-161a3,3,0,0,1,-3,-3v-41a3,3,0,0,1,3,-3z" stroke-width="1"></path><g id="node_text42" fill="black"><text id="kity_text_197" text-rendering="inherit" font-size="14" dy=".8em" y="187.8999931176002" x="220.49999408788852">集成学习</text><text id="kity_text_198" text-rendering="inherit" font-size="14" dy=".8em" y="208.8999931176002" x="220.49999408788852">Ensemble Learning</text></g></g><g id="minder_node35"><g id="node_expander34" style="cursor: pointer;"><path id="kity_path_345" fill="white" stroke="gray" d="M383.49999051595995,156.49999406162064A6,6,0,1,1,371.49999051595995,156.49999406162064A6,6,0,1,1,383.49999051595995,156.49999406162064"></path><path id="kity_path_346" fill="none" stroke="gray" d="M372.99999051595995,156.49999406162064L381.99999051595995,156.49999406162064"></path></g><path id="node_outline35" fill="none" stroke="none" d="M388.4999903775935,147.49999406162064h48a5,5,0,0,1,5,5v8a5,5,0,0,1,-5,5h-48a5,5,0,0,1,-5,-5v-8a5,5,0,0,1,5,-5z"></path><g id="node_text35" fill="black"><text id="kity_text_183" text-rendering="inherit" font-size="12" dy=".8em" y="148.69999424777117" x="388.4999903775935">Bagging</text></g></g><g id="minder_node36"><g id="node_expander33" display="none" style="cursor: pointer;"><path id="kity_path_342" fill="white" stroke="gray" d="M457.49998888166334,156.49999406162064A6,6,0,1,1,445.49998888166334,156.49999406162064A6,6,0,1,1,457.49998888166334,156.49999406162064"></path><path id="kity_path_343" fill="none" stroke="gray"></path></g><path id="node_outline34" fill="none" stroke="none" d="M462.4999887432969,147.49999406162064h159a5,5,0,0,1,5,5v8a5,5,0,0,1,-5,5h-159a5,5,0,0,1,-5,-5v-8a5,5,0,0,1,5,-5z"></path><g id="node_text34" fill="black"><text id="kity_text_181" text-rendering="inherit" font-size="12" dy=".8em" y="148.69999424777117" x="462.4999887432969">随机森林（Random Forest）</text></g></g><g id="minder_node37"><g id="node_expander39" style="cursor: pointer;"><path id="kity_path_360" fill="white" stroke="gray" d="M383.49999051595995,208.499992913196A6,6,0,1,1,371.49999051595995,208.499992913196A6,6,0,1,1,383.49999051595995,208.499992913196"></path><path id="kity_path_361" fill="none" stroke="gray" d="M372.99999051595995,208.499992913196L381.99999051595995,208.499992913196"></path></g><path id="node_outline40" fill="none" stroke="none" d="M388.4999903775935,199.499992913196h51a5,5,0,0,1,5,5v8a5,5,0,0,1,-5,5h-51a5,5,0,0,1,-5,-5v-8a5,5,0,0,1,5,-5z"></path><g id="node_text40" fill="black"><text id="kity_text_193" text-rendering="inherit" font-size="12" dy=".8em" y="200.69999309934653" x="388.4999903775935">Boosting</text></g></g><g id="minder_node38"><g id="node_expander35" display="none" style="cursor: pointer;"><path id="kity_path_348" fill="white" stroke="gray" d="M460.49998881540813,182.49999348740832A6,6,0,1,1,448.49998881540813,182.49999348740832A6,6,0,1,1,460.49998881540813,182.49999348740832"></path><path id="kity_path_349" fill="none" stroke="gray"></path></g><path id="node_outline36" fill="none" stroke="none" d="M465.4999886770417,173.49999348740832h57a5,5,0,0,1,5,5v8a5,5,0,0,1,-5,5h-57a5,5,0,0,1,-5,-5v-8a5,5,0,0,1,5,-5z"></path><g id="node_text36" fill="black"><text id="kity_text_185" text-rendering="inherit" font-size="12" dy=".8em" y="174.69999367355885" x="465.4999886770417">AdaBoost</text></g></g><g id="minder_node39"><g id="node_expander37" style="cursor: pointer;"><path id="kity_path_354" fill="white" stroke="gray" d="M460.49998881540813,208.499992913196A6,6,0,1,1,448.49998881540813,208.499992913196A6,6,0,1,1,460.49998881540813,208.499992913196"></path><path id="kity_path_355" fill="none" stroke="gray" d="M449.99998881540813,208.499992913196L458.99998881540813,208.499992913196M454.49998881540813,203.999992913196L454.49998881540813,212.999992913196"></path></g><path id="node_outline38" fill="none" stroke="none" d="M465.4999886770417,199.499992913196h315a5,5,0,0,1,5,5v8a5,5,0,0,1,-5,5h-315a5,5,0,0,1,-5,-5v-8a5,5,0,0,1,5,-5z" stroke-width="3"></path><g id="node_text38" fill="black"><text id="kity_text_189" text-rendering="inherit" font-size="12" dy=".8em" y="200.69999309934653" x="465.4999886770417">梯度提升树（Gradient Boosting Decision Tree，GBDT）</text></g></g><g id="minder_node40" display="none"><g id="node_expander36" style="cursor: pointer;" display="none"><path id="kity_path_351" fill="white" stroke="gray" d="M801.4999811798232,208.499992913196A6,6,0,1,1,789.4999811798232,208.499992913196A6,6,0,1,1,801.4999811798232,208.499992913196"></path><path id="kity_path_352" fill="none" stroke="gray"></path></g><path id="node_outline37" fill="none" stroke="none" d="M801.4999812564517,199.499992913196h265a5,5,0,0,1,5,5v8a5,5,0,0,1,-5,5h-265a5,5,0,0,1,-5,-5v-8a5,5,0,0,1,5,-5z" stroke-width="3"></path><g id="node_text37" fill="black"><text id="kity_text_187" text-rendering="inherit" font-size="12" dy=".8em" y="200.69999309934653" x="801.4999812564517">前向分布算法（Forward Stagewise Algorithm）</text></g></g><g id="minder_node41"><g id="node_expander38" style="cursor: pointer;" display="none"><path id="kity_path_357" fill="white" stroke="gray" d="M460.49998881540813,234.49999233898367A6,6,0,1,1,448.49998881540813,234.49999233898367A6,6,0,1,1,460.49998881540813,234.49999233898367"></path><path id="kity_path_358" fill="none" stroke="gray"></path></g><path id="node_outline39" fill="none" stroke="none" d="M465.4999886770417,225.49999233898367h50a5,5,0,0,1,5,5v8a5,5,0,0,1,-5,5h-50a5,5,0,0,1,-5,-5v-8a5,5,0,0,1,5,-5z" stroke-width="3"></path><g id="node_text39" fill="black"><text id="kity_text_191" text-rendering="inherit" font-size="12" dy=".8em" y="226.6999925251342" x="465.4999886770417">XgBoost</text></g></g><g id="minder_node42"><g id="node_expander40" display="none" style="cursor: pointer;"><path id="kity_path_363" fill="white" stroke="gray" d="M383.49999051595995,260.4999917647714A6,6,0,1,1,371.49999051595995,260.4999917647714A6,6,0,1,1,383.49999051595995,260.4999917647714"></path><path id="kity_path_364" fill="none" stroke="gray"></path></g><path id="node_outline41" fill="none" stroke="none" d="M388.4999903775935,251.49999176477138h49a5,5,0,0,1,5,5v8a5,5,0,0,1,-5,5h-49a5,5,0,0,1,-5,-5v-8a5,5,0,0,1,5,-5z"></path><g id="node_text41" fill="black"><text id="kity_text_195" text-rendering="inherit" font-size="12" dy=".8em" y="252.6999919509219" x="388.4999903775935">Stacking</text></g></g><g id="minder_node43"><g id="node_expander42" display="none" style="cursor: pointer;"><path id="kity_path_369" fill="white" stroke="gray" d="M199.4999954161728,308.9999906936446A6,6,0,1,1,187.4999954161728,308.9999906936446A6,6,0,1,1,199.4999954161728,308.9999906936446"></path><path id="kity_path_370" fill="none" stroke="gray"></path></g><path id="node_outline43" fill="rgb(238, 243, 246)" stroke="rgb(115, 161, 191)" d="M203.49999408788852,285.4999907046871h195a3,3,0,0,1,3,3v41a3,3,0,0,1,-3,3h-195a3,3,0,0,1,-3,-3v-41a3,3,0,0,1,3,-3z" stroke-width="1"></path><g id="node_text43" fill="black"><text id="kity_text_200" text-rendering="inherit" font-size="14" dy=".8em" y="288.8999908870062" x="220.49999408788852">强化学习</text><text id="kity_text_201" text-rendering="inherit" font-size="14" dy=".8em" y="309.8999908870062" x="220.49999408788852">Reinforcement Learning</text></g></g></g></g></svg>