<svg width="561" height="474" xmlns="http://www.w3.org/2000/svg" xmlns:xlink="http://www.w3.org/1999/xlink" overflow="hidden"><defs><clipPath id="clip0"><path d="M203 114 764 114 764 588 203 588Z" fill-rule="evenodd" clip-rule="evenodd"/></clipPath></defs><g clip-path="url(#clip0)" transform="translate(-203 -114)"><path d="M285.041 302.92C316.453 203.39 422.602 148.17 522.132 179.582 621.661 210.993 676.882 317.142 645.47 416.672 614.058 516.201 507.909 571.422 408.38 540.01 308.85 508.599 253.63 402.45 285.041 302.92Z" stroke="#F8CBAD" stroke-width="6" stroke-miterlimit="8" stroke-opacity="0.701961" fill="none" fill-rule="evenodd"/><path d="M411 360C411 330.177 435.177 306 465 306 494.823 306 519 330.177 519 360 519 389.823 494.823 414 465 414 435.177 414 411 389.823 411 360Z" stroke="#2E75B6" stroke-width="6" stroke-miterlimit="8" stroke-opacity="0.701961" fill="none" fill-rule="evenodd"/><path d="M362.363 327.323C380.297 270.497 440.903 238.969 497.729 256.903 554.555 274.837 586.083 335.443 568.149 392.269 550.214 449.095 489.609 480.623 432.783 462.689 375.956 444.754 344.428 384.149 362.363 327.323Z" stroke="#9DC3E6" stroke-width="6" stroke-miterlimit="8" stroke-opacity="0.701961" fill="none" fill-rule="evenodd"/><path d="M1.2016e-06-2 164.744-1.9999 164.744 2.0001-1.2016e-06 2ZM162.744-5.9999 174.744 0.000104987 162.744 6.0001Z" fill="#4472C4" transform="matrix(-1 -8.74228e-08 -8.74228e-08 1 639.744 289)"/><path d="M203.5 360 748.169 360 748.169 361 203.5 361ZM746.833 356.5 754.833 360.5 746.833 364.5Z" fill="#4472C4"/><path d="M0.5-1.1298e-07 0.500103 457.961-0.499896 457.961-0.5 1.1298e-07ZM4.0001 456.628 0.000104987 464.628-3.9999 456.628Z" fill="#4472C4" transform="matrix(1 0 0 -1 465.5 588.128)"/><text font-family="Cambria Math,Cambria Math_MSFontService,sans-serif" font-weight="400" font-size="24" transform="translate(448.551 355)">0</text><path d="M638.5 289.5C638.5 287.843 639.843 286.5 641.5 286.5 643.157 286.5 644.5 287.843 644.5 289.5 644.5 291.157 643.157 292.5 641.5 292.5 639.843 292.5 638.5 291.157 638.5 289.5Z" stroke="#FF0000" stroke-miterlimit="8" fill="#FF0000" fill-rule="evenodd"/><text font-family="Cambria Math,Cambria Math_MSFontService,sans-serif" font-weight="400" font-size="24" transform="translate(515.457 274)">𝛽<tspan font-size="18" x="12.42" y="4">1</tspan><tspan x="23.58" y="0">𝒖</tspan><tspan font-size="18" x="38.5267" y="4">1</tspan><tspan x="151.115" y="14">𝒙</tspan><tspan font-size="18" x="164.949" y="19">0</tspan><tspan x="-84.5037" y="1">𝒙</tspan><tspan font-size="18" x="-71.2237" y="6">1</tspan></text><path d="M464 288.984 464 182 467 182 467 288.984ZM461 183.5 465.5 174.5 470 183.5Z" fill="#843C0C"/><path d="M463.5 289.5C463.5 287.843 464.619 286.5 466 286.5 467.381 286.5 468.5 287.843 468.5 289.5 468.5 291.157 467.381 292.5 466 292.5 464.619 292.5 463.5 291.157 463.5 289.5Z" stroke="#FF0000" stroke-miterlimit="8" fill="#FF0000" fill-rule="evenodd"/><text font-family="Cambria Math,Cambria Math_MSFontService,sans-serif" font-weight="400" font-size="24" transform="translate(476.084 212)">∇<tspan x="14.3333" y="0">𝑓</tspan><tspan x="28.2" y="0">(</tspan><tspan x="38.2" y="0">𝒙</tspan><tspan font-size="18" x="51.48" y="5">1</tspan><tspan x="62.64" y="0">)</tspan><tspan x="247.357" y="172">𝒙</tspan><tspan font-size="18" x="260.637" y="177">1</tspan><tspan x="-1.77454" y="-64">𝒙</tspan><tspan font-size="18" x="12.0588" y="-59">2</tspan></text></g></svg>