<svg width="753" height="267" xmlns="http://www.w3.org/2000/svg" xmlns:xlink="http://www.w3.org/1999/xlink" overflow="hidden"><defs><clipPath id="clip0"><path d="M245 121 998 121 998 388 245 388Z" fill-rule="evenodd" clip-rule="evenodd"/></clipPath></defs><g clip-path="url(#clip0)" transform="translate(-245 -121)"><path d="M1.11786-1.00019 127.852 140.645 125.617 142.645-1.11786 1.00019ZM129.088 137.526 131.736 147.234 122.381 143.528Z" fill="#843C0C" transform="matrix(1 0 0 -1 435.5 338.734)"/><path d="M434 338.505 434 138 437 138 437 338.505ZM431 139.5 435.5 130.5 440 139.5Z" fill="#843C0C"/><path d="M435 335 659.185 335 659.185 341 435 341ZM656.185 329 674.185 338 656.185 347Z" fill="#4472C4"/><path d="M432.281 340.509 272.418 203.054 276.33 198.505 436.193 335.959ZM270.781 209.56 263 191 282.516 195.911Z" fill="#4472C4"/><text font-family="Cambria Math,Cambria Math_MSFontService,sans-serif" font-weight="400" font-size="32" transform="translate(531.316 373)">𝒖<tspan x="-213.844" y="-90">𝒗</tspan><tspan x="-143.478" y="-138">𝐴</tspan><tspan x="-123.144" y="-138">𝒗</tspan><tspan x="-16.1057" y="-103">𝐴</tspan><tspan x="4.22766" y="-103">𝒖</tspan></text><path d="M828.619 195.461 828.619 196.804C827.192 197.107 825.901 198.502 824.744 200.992 823.588 203.482 823.01 207.419 823.01 212.804 823.01 214.992 823.348 218.338 824.026 222.844 824.703 227.349 825.041 230.117 825.041 231.148 825.041 234.2 824.734 236.682 824.119 238.594 823.505 240.505 822.427 241.924 820.885 242.851L820.885 243.273C822.427 244.2 823.505 245.62 824.119 247.531 824.734 249.442 825.041 251.924 825.041 254.976 825.041 256.008 824.703 258.776 824.026 263.281 823.348 267.786 823.01 271.133 823.01 273.32 823.01 278.601 823.588 282.487 824.744 284.976 825.901 287.466 827.192 288.862 828.619 289.164L828.619 290.508C826.348 290.195 824.328 288.471 822.557 285.336 820.786 282.2 819.901 277.32 819.901 270.695 819.901 268.258 820.255 264.914 820.963 260.664 821.671 256.414 822.026 253.513 822.026 251.961 822.026 249.419 821.653 247.461 820.908 246.086 820.164 244.711 819.208 243.971 818.041 243.867L818.041 242.258C819.208 242.153 820.164 241.414 820.908 240.039 821.653 238.664 822.026 236.706 822.026 234.164 822.026 232.612 821.671 229.711 820.963 225.461 820.255 221.211 819.901 217.867 819.901 215.429 819.901 208.7 820.786 203.768 822.557 200.633 824.328 197.497 826.348 195.773 828.619 195.461Z" fill-rule="evenodd"/><text fill="#000000" fill-opacity="0" font-family="Arial,Arial_MSFontService,sans-serif" font-size="95.0469" x="818.041" y="278.627">൝</text><path d="M835.437 215.763C836.531 215.763 837.336 216.039 837.851 216.591 838.367 217.143 838.625 217.945 838.625 218.997 838.625 219.737 838.474 220.7 838.172 221.888L837.484 224.513C837.057 226.148 836.843 227.341 836.843 228.091 836.843 229.018 837.208 229.481 837.937 229.481 838.271 229.481 838.63 229.356 839.015 229.106 839.401 228.856 839.83 228.474 840.304 227.958 840.778 227.442 841.166 226.872 841.468 226.247 841.771 225.622 842.015 224.882 842.203 224.028L843.953 216.013 848.422 216.013 845.875 226.841C845.75 227.372 845.687 227.898 845.687 228.419 845.687 228.763 845.745 229.028 845.859 229.216 845.974 229.403 846.172 229.497 846.453 229.497 846.776 229.497 847.125 229.351 847.5 229.059 847.875 228.768 848.312 228.336 848.812 227.763L849.937 228.888C848.843 229.981 847.901 230.734 847.109 231.145 846.317 231.557 845.484 231.763 844.609 231.763 843.734 231.763 843.041 231.52 842.531 231.036 842.021 230.552 841.765 229.914 841.765 229.122 841.765 228.862 841.797 228.612 841.859 228.372L841.703 228.247C840.734 229.445 839.804 230.33 838.914 230.903 838.023 231.476 836.995 231.763 835.828 231.763 834.765 231.763 833.935 231.461 833.336 230.856 832.737 230.252 832.437 229.429 832.437 228.388 832.437 228.054 832.471 227.638 832.539 227.138 832.606 226.638 832.687 226.195 832.781 225.809L834.015 220.934C834.192 220.237 834.281 219.627 834.281 219.106 834.281 218.7 834.213 218.419 834.078 218.263 833.942 218.106 833.75 218.028 833.5 218.028 833.198 218.028 832.862 218.171 832.492 218.458 832.122 218.744 831.677 219.179 831.156 219.763L830.031 218.638C831.104 217.565 832.036 216.817 832.828 216.395 833.62 215.974 834.489 215.763 835.437 215.763Z" fill-rule="evenodd"/><text fill="#000000" fill-opacity="0" font-family="Arial,Arial_MSFontService,sans-serif" font-size="16" x="830.031" y="229.763">𝒖</text><path d="M851.906 205.227 864.159 205.227 863.249 209.191 862.07 209.191 862.07 208.551C862.07 208.431 862.064 208.294 862.053 208.141 862.042 207.988 862.025 207.834 862.002 207.681 861.98 207.527 861.954 207.385 861.924 207.254 861.894 207.123 861.86 207.016 861.823 206.934 861.77 206.829 861.716 206.743 861.66 206.675 861.604 206.608 861.533 206.556 861.446 206.518 861.36 206.481 861.257 206.455 861.138 206.44 861.018 206.425 860.864 206.417 860.677 206.417L858.869 206.417 856.556 216.659C856.473 217.004 856.415 217.298 856.381 217.541 856.348 217.784 856.331 218.003 856.331 218.198 856.338 218.348 856.361 218.477 856.398 218.585 856.436 218.694 856.503 218.786 856.6 218.86 856.698 218.935 856.829 218.992 856.994 219.029 857.158 219.066 857.372 219.093 857.634 219.108L857.476 219.793 852.513 219.793 852.659 219.108C852.846 219.063 853.007 219.023 853.141 218.99 853.276 218.956 853.392 218.911 853.49 218.855 853.587 218.799 853.671 218.722 853.742 218.625 853.813 218.527 853.883 218.394 853.95 218.226 854.017 218.057 854.085 217.839 854.152 217.569 854.22 217.299 854.298 216.966 854.388 216.569L856.657 206.417 855.107 206.417C854.86 206.417 854.65 206.425 854.478 206.44 854.306 206.455 854.148 206.494 854.006 206.557 853.864 206.621 853.731 206.709 853.608 206.821 853.484 206.934 853.357 207.087 853.226 207.282 853.095 207.477 852.952 207.716 852.799 208.001 852.645 208.285 852.468 208.626 852.266 209.023L851.064 209.023Z" fill-rule="evenodd"/><text fill="#000000" fill-opacity="0" font-family="Arial,Arial_MSFontService,sans-serif" font-size="14.5659" x="851.064" y="217.972">𝑇</text><path d="M878.955 208.934 879.377 210.138C876.939 210.94 875.135 212.505 873.963 214.833 872.791 217.161 872.205 220.086 872.205 223.606 872.205 227.252 872.791 230.257 873.963 232.622 875.135 234.987 876.924 236.57 879.33 237.372L878.955 238.575C875.903 237.773 873.564 236.046 871.939 233.395 870.314 230.744 869.502 227.533 869.502 223.763 869.502 220.002 870.317 216.791 871.947 214.13 873.577 211.468 875.913 209.737 878.955 208.934Z" fill-rule="evenodd"/><text fill="#000000" fill-opacity="0" font-family="Arial,Arial_MSFontService,sans-serif" font-size="29.6406" x="869.502" y="234.87">(</text><path d="M893.101 213.231 887.538 223.075 893.648 223.075 893.382 218.044C893.351 217.356 893.325 216.497 893.304 215.466 893.283 214.434 893.273 213.69 893.273 213.231ZM893.195 209.934 895.554 209.934 896.679 227.356C896.731 228.179 896.825 228.822 896.96 229.286 897.096 229.75 897.28 230.093 897.515 230.317 897.749 230.541 898.09 230.684 898.538 230.747L898.366 231.513 891.866 231.513 892.038 230.747C892.653 230.695 893.111 230.455 893.413 230.028 893.715 229.601 893.866 228.851 893.866 227.778 893.866 227.372 893.851 226.929 893.82 226.45L893.71 224.434 886.835 224.434 885.976 225.966C885.57 226.684 885.273 227.302 885.085 227.817 884.898 228.333 884.804 228.789 884.804 229.184 884.804 230.059 885.33 230.58 886.382 230.747L886.21 231.513 879.82 231.513 879.991 230.747C880.314 230.705 880.619 230.578 880.905 230.364 881.192 230.151 881.497 229.828 881.82 229.395 882.142 228.963 882.596 228.247 883.179 227.247Z" fill-rule="evenodd"/><text fill="#000000" fill-opacity="0" font-family="Arial,Arial_MSFontService,sans-serif" font-size="21.5781" x="879.82" y="228.815">𝐴</text><path d="M906.309 215.763C907.33 215.763 908.119 216.044 908.676 216.606 909.234 217.169 909.512 217.877 909.512 218.731 909.512 219.252 909.455 219.794 909.34 220.356L908.325 225.122C908.231 225.674 908.153 226.211 908.09 226.731 908.028 227.252 907.997 227.716 907.997 228.122 907.997 228.518 908.023 228.841 908.075 229.091 908.127 229.341 908.195 229.466 908.278 229.466 908.57 229.466 908.947 229.33 909.411 229.059 909.874 228.789 910.374 228.414 910.911 227.934 911.447 227.455 911.984 226.893 912.52 226.247 913.056 225.601 913.541 224.903 913.973 224.153 914.405 223.403 914.754 222.609 915.02 221.77 915.286 220.932 915.418 220.086 915.418 219.231 915.418 218.815 915.338 218.492 915.176 218.263 915.015 218.033 914.762 217.919 914.418 217.919 914.033 217.919 913.676 218.062 913.348 218.349 913.02 218.635 912.684 219.018 912.34 219.497L911.247 218.622C911.903 217.716 912.635 217.013 913.442 216.513 914.249 216.013 915.148 215.763 916.137 215.763 917.116 215.763 917.809 216.015 918.215 216.52 918.622 217.026 918.825 217.7 918.825 218.544 918.825 219.033 918.731 219.599 918.543 220.239 918.356 220.88 918.085 221.554 917.731 222.263 917.377 222.971 916.96 223.7 916.481 224.45 916.002 225.2 915.471 225.927 914.887 226.63 914.304 227.333 913.681 227.997 913.02 228.622 912.359 229.247 911.671 229.791 910.958 230.255 910.244 230.718 909.52 231.086 908.786 231.356 908.051 231.627 907.314 231.763 906.575 231.763 906.023 231.763 905.57 231.687 905.215 231.536 904.861 231.385 904.603 231.171 904.442 230.895 904.28 230.619 904.174 230.296 904.122 229.927 904.07 229.557 904.043 229.153 904.043 228.716 904.043 228.112 904.08 227.474 904.153 226.802 904.226 226.13 904.32 225.455 904.434 224.778L905.387 220.356C905.45 220.086 905.502 219.838 905.543 219.614 905.585 219.39 905.606 219.211 905.606 219.075 905.606 218.763 905.541 218.515 905.411 218.333 905.28 218.151 905.012 218.059 904.606 218.059 903.96 218.059 903.038 218.606 901.84 219.7L900.872 218.606C901.361 217.992 902.093 217.364 903.067 216.724 904.041 216.083 905.122 215.763 906.309 215.763Z" fill-rule="evenodd"/><text fill="#000000" fill-opacity="0" font-family="Arial,Arial_MSFontService,sans-serif" font-size="16" x="900.872" y="229.763">𝒗</text><path d="M920.538 208.934C923.58 209.737 925.916 211.468 927.546 214.13 929.176 216.791 929.991 220.002 929.991 223.763 929.991 227.533 929.179 230.744 927.554 233.395 925.929 236.046 923.59 237.773 920.538 238.575L920.163 237.372C922.57 236.57 924.359 234.987 925.53 232.622 926.702 230.257 927.288 227.252 927.288 223.606 927.288 220.086 926.705 217.161 925.538 214.833 924.372 212.505 922.564 210.94 920.116 210.138Z" fill-rule="evenodd"/><text fill="#000000" fill-opacity="0" font-family="Arial,Arial_MSFontService,sans-serif" font-size="29.6406" x="920.116" y="234.87">)</text><path d="M944.071 224.575 963.321 224.575 963.321 226.653 944.071 226.653ZM944.071 218.091 963.321 218.091 963.321 220.169 944.071 220.169Z" fill-rule="evenodd"/><text fill="#000000" fill-opacity="0" font-family="Arial,Arial_MSFontService,sans-serif" font-size="8.5625" x="944.071" y="225.583">=</text><path d="M983.322 211.263C982.603 211.263 982.002 211.476 981.517 211.903 981.033 212.33 980.642 212.945 980.345 213.747 980.049 214.549 979.838 215.526 979.713 216.677 979.588 217.828 979.525 219.127 979.525 220.575 979.525 223.971 979.84 226.463 980.47 228.052 981.101 229.64 982.077 230.434 983.4 230.434 984.661 230.434 985.595 229.687 986.205 228.192 986.814 226.697 987.119 224.382 987.119 221.247 987.119 218.851 986.963 216.911 986.65 215.427 986.338 213.942 985.903 212.877 985.345 212.231 984.788 211.586 984.114 211.263 983.322 211.263ZM983.4 209.934C985.681 209.934 987.379 210.815 988.494 212.575 989.608 214.336 990.166 216.997 990.166 220.559 990.166 224.247 989.569 227.036 988.377 228.927 987.184 230.817 985.442 231.763 983.15 231.763 980.9 231.763 979.226 230.877 978.127 229.106 977.028 227.336 976.478 224.648 976.478 221.044 976.478 219.127 976.648 217.471 976.986 216.075 977.325 214.679 977.799 213.526 978.408 212.614 979.017 211.703 979.749 211.028 980.603 210.591 981.457 210.153 982.39 209.934 983.4 209.934Z" fill-rule="evenodd"/><text fill="#000000" fill-opacity="0" font-family="Arial,Arial_MSFontService,sans-serif" font-size="21.8281" x="976.478" y="229.034">0</text><path d="M885.165 251.328C888.207 252.13 890.542 253.862 892.173 256.523 893.803 259.185 894.618 262.396 894.618 266.156 894.618 269.927 893.806 273.138 892.181 275.789 890.556 278.44 888.217 280.166 885.165 280.968L884.79 279.765C887.196 278.963 888.985 277.38 890.157 275.015 891.329 272.651 891.915 269.646 891.915 266 891.915 262.479 891.332 259.554 890.165 257.226 888.998 254.898 887.191 253.333 884.743 252.531ZM841.822 251.328 842.243 252.531C839.806 253.333 838.001 254.898 836.829 257.226 835.657 259.554 835.072 262.479 835.072 266 835.072 269.646 835.657 272.651 836.829 275.015 838.001 277.38 839.79 278.963 842.197 279.765L841.822 280.968C838.769 280.166 836.431 278.44 834.806 275.789 833.181 273.138 832.368 269.927 832.368 266.156 832.368 262.396 833.184 259.185 834.814 256.523 836.444 253.862 838.78 252.13 841.822 251.328Z" fill-rule="evenodd"/><path d="M848.617 259.536C849.711 259.536 850.516 259.812 851.031 260.364 851.547 260.916 851.805 261.718 851.805 262.77 851.805 263.51 851.654 264.473 851.352 265.661L850.664 268.286C850.237 269.921 850.023 271.114 850.023 271.864 850.023 272.791 850.388 273.255 851.117 273.255 851.451 273.255 851.81 273.13 852.195 272.88 852.581 272.63 853.01 272.247 853.484 271.731 853.958 271.216 854.346 270.645 854.648 270.02 854.951 269.395 855.195 268.656 855.383 267.802L857.133 259.786 861.602 259.786 859.055 270.614C858.93 271.145 858.867 271.671 858.867 272.192 858.867 272.536 858.924 272.802 859.039 272.989 859.154 273.177 859.352 273.27 859.633 273.27 859.956 273.27 860.305 273.124 860.68 272.833 861.055 272.541 861.492 272.109 861.992 271.536L863.117 272.661C862.023 273.755 861.081 274.507 860.289 274.919 859.497 275.33 858.664 275.536 857.789 275.536 856.914 275.536 856.221 275.294 855.711 274.809 855.201 274.325 854.945 273.687 854.945 272.895 854.945 272.635 854.977 272.385 855.039 272.145L854.883 272.02C853.914 273.218 852.984 274.104 852.094 274.677 851.203 275.249 850.174 275.536 849.008 275.536 847.945 275.536 847.115 275.234 846.516 274.63 845.917 274.026 845.617 273.203 845.617 272.161 845.617 271.828 845.651 271.411 845.719 270.911 845.786 270.411 845.867 269.968 845.961 269.583L847.195 264.708C847.372 264.01 847.461 263.401 847.461 262.88 847.461 262.473 847.393 262.192 847.258 262.036 847.122 261.88 846.93 261.802 846.68 261.802 846.378 261.802 846.042 261.945 845.672 262.231 845.302 262.518 844.857 262.953 844.336 263.536L843.211 262.411C844.284 261.338 845.216 260.591 846.008 260.169 846.799 259.747 847.669 259.536 848.617 259.536Z" fill-rule="evenodd"/><text fill="#000000" fill-opacity="0" font-family="Arial,Arial_MSFontService,sans-serif" font-size="16" x="843.211" y="273.536">𝒖</text><path d="M876.581 257.005 871.018 266.848 877.128 266.848 876.862 261.817C876.831 261.13 876.805 260.27 876.784 259.239 876.763 258.208 876.753 257.463 876.753 257.005ZM876.674 253.708 879.034 253.708 880.159 271.13C880.211 271.953 880.305 272.596 880.44 273.059 880.576 273.523 880.76 273.867 880.995 274.091 881.229 274.315 881.57 274.458 882.018 274.52L881.846 275.286 875.346 275.286 875.518 274.52C876.133 274.468 876.591 274.229 876.893 273.802 877.195 273.374 877.346 272.624 877.346 271.552 877.346 271.145 877.331 270.703 877.299 270.223L877.19 268.208 870.315 268.208 869.456 269.739C869.049 270.458 868.753 271.075 868.565 271.591 868.378 272.106 868.284 272.562 868.284 272.958 868.284 273.833 868.81 274.354 869.862 274.52L869.69 275.286 863.299 275.286 863.471 274.52C863.794 274.479 864.099 274.351 864.385 274.137 864.672 273.924 864.977 273.601 865.299 273.169 865.622 272.736 866.076 272.02 866.659 271.02Z" fill-rule="evenodd"/><text fill="#000000" fill-opacity="0" font-family="Arial,Arial_MSFontService,sans-serif" font-size="21.5781" x="863.299" y="272.589">𝐴</text><path d="M899.013 249 911.265 249 910.356 252.964 909.176 252.964 909.176 252.324C909.176 252.204 909.171 252.068 909.16 251.914 909.148 251.761 909.131 251.607 909.109 251.454 909.087 251.3 909.06 251.158 909.03 251.027 909 250.896 908.967 250.789 908.929 250.707 908.877 250.602 908.823 250.516 908.766 250.449 908.71 250.381 908.639 250.329 908.553 250.292 908.467 250.254 908.364 250.228 908.244 250.213 908.124 250.198 907.971 250.19 907.784 250.19L905.976 250.19 903.662 260.433C903.58 260.777 903.522 261.071 903.488 261.314 903.454 261.558 903.438 261.777 903.438 261.971 903.445 262.121 903.468 262.25 903.505 262.359 903.542 262.467 903.61 262.559 903.707 262.634 903.805 262.709 903.935 262.765 904.1 262.802 904.265 262.84 904.478 262.866 904.74 262.881L904.583 263.566 899.619 263.566 899.765 262.881C899.952 262.836 900.113 262.797 900.248 262.763 900.383 262.729 900.499 262.684 900.596 262.628 900.694 262.572 900.778 262.495 900.849 262.398 900.92 262.301 900.989 262.168 901.057 261.999 901.124 261.831 901.192 261.612 901.259 261.342 901.326 261.073 901.405 260.74 901.495 260.343L903.763 250.19 902.214 250.19C901.966 250.19 901.757 250.198 901.585 250.213 901.412 250.228 901.255 250.267 901.113 250.331 900.971 250.394 900.838 250.482 900.714 250.595 900.591 250.707 900.463 250.861 900.332 251.055 900.201 251.25 900.059 251.489 899.906 251.774 899.752 252.058 899.574 252.399 899.372 252.796L898.171 252.796Z" fill-rule="evenodd"/><text fill="#000000" fill-opacity="0" font-family="Arial,Arial_MSFontService,sans-serif" font-size="14.5659" x="898.171" y="261.745">𝑇</text><path d="M919.749 259.536C920.77 259.536 921.559 259.817 922.116 260.38 922.674 260.942 922.952 261.651 922.952 262.505 922.952 263.026 922.895 263.567 922.78 264.13L921.765 268.895C921.671 269.447 921.593 269.984 921.53 270.505 921.468 271.026 921.437 271.489 921.437 271.895 921.437 272.291 921.463 272.614 921.515 272.864 921.567 273.114 921.635 273.239 921.718 273.239 922.01 273.239 922.387 273.104 922.851 272.833 923.314 272.562 923.814 272.187 924.351 271.708 924.887 271.229 925.424 270.666 925.96 270.02 926.496 269.374 926.981 268.677 927.413 267.927 927.845 267.177 928.194 266.382 928.46 265.544 928.726 264.705 928.858 263.859 928.858 263.005 928.858 262.588 928.778 262.265 928.616 262.036 928.455 261.807 928.202 261.692 927.858 261.692 927.473 261.692 927.116 261.835 926.788 262.122 926.46 262.408 926.124 262.791 925.78 263.27L924.687 262.395C925.343 261.489 926.075 260.786 926.882 260.286 927.689 259.786 928.588 259.536 929.577 259.536 930.556 259.536 931.249 259.789 931.655 260.294 932.062 260.799 932.265 261.473 932.265 262.317 932.265 262.807 932.171 263.372 931.983 264.012 931.796 264.653 931.525 265.328 931.171 266.036 930.817 266.744 930.4 267.473 929.921 268.223 929.442 268.973 928.911 269.7 928.327 270.403 927.744 271.106 927.121 271.77 926.46 272.395 925.799 273.02 925.111 273.565 924.398 274.028 923.684 274.492 922.96 274.859 922.226 275.13 921.491 275.401 920.754 275.536 920.015 275.536 919.463 275.536 919.01 275.46 918.655 275.309 918.301 275.158 918.043 274.945 917.882 274.669 917.72 274.393 917.614 274.07 917.562 273.7 917.51 273.33 917.483 272.927 917.483 272.489 917.483 271.885 917.52 271.247 917.593 270.575 917.666 269.903 917.76 269.229 917.874 268.552L918.827 264.13C918.89 263.859 918.942 263.611 918.983 263.387 919.025 263.164 919.046 262.984 919.046 262.848 919.046 262.536 918.981 262.289 918.851 262.106 918.72 261.924 918.452 261.833 918.046 261.833 917.4 261.833 916.478 262.38 915.28 263.473L914.312 262.38C914.801 261.765 915.533 261.137 916.507 260.497 917.481 259.856 918.562 259.536 919.749 259.536Z" fill-rule="evenodd"/><text fill="#000000" fill-opacity="0" font-family="Arial,Arial_MSFontService,sans-serif" font-size="16" x="914.312" y="273.536">𝒗</text><path d="M944.177 268.348 963.427 268.348 963.427 270.427 944.177 270.427ZM944.177 261.864 963.427 261.864 963.427 263.942 944.177 263.942Z" fill-rule="evenodd"/><text fill="#000000" fill-opacity="0" font-family="Arial,Arial_MSFontService,sans-serif" font-size="8.5625" x="944.177" y="269.356">=</text><path d="M983.429 255.036C982.71 255.036 982.108 255.249 981.624 255.677 981.14 256.104 980.749 256.718 980.452 257.52 980.155 258.322 979.944 259.299 979.819 260.45 979.694 261.601 979.632 262.901 979.632 264.348 979.632 267.744 979.947 270.236 980.577 271.825 981.207 273.414 982.184 274.208 983.507 274.208 984.767 274.208 985.702 273.46 986.311 271.966 986.921 270.471 987.226 268.156 987.226 265.02 987.226 262.624 987.069 260.684 986.757 259.2 986.444 257.716 986.009 256.651 985.452 256.005 984.895 255.359 984.22 255.036 983.429 255.036ZM983.507 253.708C985.788 253.708 987.486 254.588 988.601 256.348 989.715 258.109 990.272 260.77 990.272 264.333 990.272 268.02 989.676 270.809 988.483 272.7 987.291 274.591 985.548 275.536 983.257 275.536 981.007 275.536 979.332 274.651 978.233 272.88 977.134 271.109 976.585 268.421 976.585 264.817 976.585 262.901 976.754 261.244 977.093 259.848 977.431 258.453 977.905 257.299 978.515 256.387 979.124 255.476 979.856 254.802 980.71 254.364 981.564 253.927 982.496 253.708 983.507 253.708Z" fill-rule="evenodd"/><text fill="#000000" fill-opacity="0" font-family="Arial,Arial_MSFontService,sans-serif" font-size="21.8281" x="976.585" y="272.807">0</text></g></svg>