<svg id="kity_svg_6" xmlns="http://www.w3.org/2000/svg" xmlns:xlink="http://www.w3.org/1999/xlink" version="1.1" width="1022" height="516" style="background: rgb(251, 251, 251); visibility: visible;" viewBox="0 0 1022 516"><defs id="kity_defs_7"><linearGradient id="kity_linearGradient_17" x1="0" y1="0" x2="0" y2="1"><stop id="kity_stop_18" offset="0" stop-color="rgb(255, 255, 255)"></stop><stop id="kity_stop_19" offset="1" stop-color="rgb(204, 204, 204)"></stop></linearGradient><marker id="kity_marker_2" orient="auto" refX="6" refY="0" viewBox="-7 -7 14 14" markerWidth="7" markerHeight="7" markerUnits="userSpaceOnUse"><path id="kity_path_3" fill="rgb(115, 161, 191)" stroke="none" d="M6,0A6,6,0,1,1,-6,0A6,6,0,1,1,6,0"></path></marker></defs><g id="kity_g_8"><g id="minder1" text-rendering="optimize-speed"><g id="minder_connect_group1"><path id="kity_path_82" fill="none" stroke="rgb(115, 161, 191)" stroke-width="1" d="M127.99999774096307,259.4999845263834A224.5,225,0,0,1,352.49999774096307,34.4999845263834"></path><path id="kity_path_84" fill="none" stroke="rgb(115, 161, 191)" stroke-width="1" d="M636.4999977409631,34.4999845263834C656.4999977409631,34.4999845263834,656.4999977409631,34.4999845263834,676.4999977409631,34.4999845263834"></path><path id="kity_path_98" fill="none" stroke="rgb(115, 161, 191)" stroke-width="1" d="M127.99999774096307,259.4999845263834A224.5,109,0,0,1,352.49999774096307,150.4999845263834"></path><path id="kity_path_106" fill="none" stroke="rgb(115, 161, 191)" stroke-width="1" d="M609.4999977409631,150.4999845263834C629.4999977409631,150.4999845263834,629.4999977409631,98.4999845263834,649.4999977409631,98.4999845263834"></path><path id="kity_path_114" fill="none" stroke="rgb(115, 161, 191)" stroke-width="1" d="M609.4999977409631,150.4999845263834C629.4999977409631,150.4999845263834,629.4999977409631,150.4999845263834,649.4999977409631,150.4999845263834"></path><path id="kity_path_122" fill="none" stroke="rgb(115, 161, 191)" stroke-width="1" d="M609.4999977409631,150.4999845263834C629.4999977409631,150.4999845263834,629.4999977409631,202.4999845263834,649.4999977409631,202.4999845263834"></path><path id="kity_path_191" fill="none" stroke="rgb(115, 161, 191)" stroke-width="1" d="M127.99999774096307,259.4999845263834A224.5,109,0,0,0,352.49999774096307,368.4999845263834"></path><path id="kity_path_193" fill="none" stroke="rgb(115, 161, 191)" stroke-width="1" d="M575.4999977409631,368.4999845263834C595.4999977409631,368.4999845263834,595.4999977409631,316.4999845263834,615.4999977409631,316.4999845263834"></path><path id="kity_path_195" fill="none" stroke="rgb(115, 161, 191)" stroke-width="1" d="M840.4999977409631,316.4999845263834C860.4999977409631,316.4999845263834,860.4999977409631,264.4999845263834,880.4999977409631,264.4999845263834"></path><path id="kity_path_197" fill="none" stroke="rgb(115, 161, 191)" stroke-width="1" d="M840.4999977409631,316.4999845263834C860.4999977409631,316.4999845263834,860.4999977409631,316.4999845263834,880.4999977409631,316.4999845263834"></path><path id="kity_path_199" fill="none" stroke="rgb(115, 161, 191)" stroke-width="1" d="M840.4999977409631,316.4999845263834C860.4999977409631,316.4999845263834,860.4999977409631,368.4999845263834,880.4999977409631,368.4999845263834"></path><path id="kity_path_201" fill="none" stroke="rgb(115, 161, 191)" stroke-width="1" d="M575.4999977409631,368.4999845263834C595.4999977409631,368.4999845263834,595.4999977409631,420.4999845263834,615.4999977409631,420.4999845263834"></path><path id="kity_path_239" fill="none" stroke="rgb(115, 161, 191)" stroke-width="1" d="M127.99999774096307,259.4999845263834A224.5,225,0,0,0,352.49999774096307,484.4999845263834"></path><path id="kity_path_247" fill="none" stroke="rgb(115, 161, 191)" stroke-width="1" d="M623.4999977409631,484.4999845263834C643.4999977409631,484.4999845263834,643.4999977409631,484.4999845263834,663.4999977409631,484.4999845263834"></path></g><g id="minder_node1"><path id="node_outline1" fill="rgb(115, 161, 191)" stroke="rgb(115, 161, 191)" d="M26.499997740963067,227.4999845263834h203a5,5,0,0,1,5,5v54a5,5,0,0,1,-5,5h-203a5,5,0,0,1,-5,-5v-54a5,5,0,0,1,5,-5z" stroke-width="3"></path><g id="node_text1" fill="white"><text id="kity_text_22" text-rendering="inherit" font-size="16" dy=".8em" y="237.09998449573197" x="45.49999774096307">最优化方法</text><text id="kity_text_30" text-rendering="inherit" font-size="16" dy=".8em" y="261.099984495732" x="45.49999774096307">Optimization Method</text></g></g><g id="kity_g_14" display="none"><path id="kity_path_15" fill="none" stroke="none" d="M45.49999774096307,259.4999845263834h0v0h0z"></path><path id="kity_path_16" fill="none" stroke="none"></path></g><g id="minder_node7"><g id="node_expander7" style="cursor: pointer;"><path id="kity_path_95" fill="white" stroke="gray" d="M353.49999180325295,34.4999894955285A6,6,0,1,1,341.49999180325295,34.4999894955285A6,6,0,1,1,353.49999180325295,34.4999894955285"></path><path id="kity_path_96" fill="none" stroke="gray" d="M342.99999180325295,34.4999894955285L351.99999180325295,34.4999894955285"></path></g><path id="node_outline8" fill="rgb(238, 243, 246)" stroke="rgb(115, 161, 191)" d="M357.4999904749687,21.499989495528496h276a3,3,0,0,1,3,3v20a3,3,0,0,1,-3,3h-276a3,3,0,0,1,-3,-3v-20a3,3,0,0,1,3,-3z" stroke-width="1"></path><g id="node_text8" fill="black"><text id="kity_text_88" text-rendering="inherit" font-size="14" dy=".8em" y="25.399989677847607" x="374.4999904749687">最小二乘法（Least Square Method）</text></g></g><g id="minder_node8"><g id="node_expander6" style="cursor: pointer;" display="none"><path id="kity_path_92" fill="white" stroke="gray" d="M676.4999839377822,34.4999894955285A6,6,0,1,1,664.4999839377822,34.4999894955285A6,6,0,1,1,676.4999839377822,34.4999894955285"></path><path id="kity_path_93" fill="none" stroke="gray"></path></g><path id="node_outline7" fill="none" stroke="none" d="M681.4999835844208,23.499989495528496h179a5,5,0,0,1,5,5v12a5,5,0,0,1,-5,5h-179a5,5,0,0,1,-5,-5v-12a5,5,0,0,1,5,-5z" stroke-width="3"></path><g id="node_text7" fill="black"><text id="kity_text_86" text-rendering="inherit" font-size="12" dy=".8em" y="26.699989681679035" x="686.4999835844208">正规方程（Normal Function）</text></g></g><g id="minder_node9"><g id="node_expander8" style="cursor: pointer;"><path id="kity_path_103" fill="white" stroke="gray" d="M353.49999180325295,150.49998693365814A6,6,0,1,1,341.49999180325295,150.49998693365814A6,6,0,1,1,353.49999180325295,150.49998693365814"></path><path id="kity_path_104" fill="none" stroke="gray" d="M342.99999180325295,150.49998693365814L351.99999180325295,150.49998693365814"></path></g><path id="node_outline9" fill="rgb(238, 243, 246)" stroke="rgb(115, 161, 191)" d="M357.4999904749687,137.49998693365814h249a3,3,0,0,1,3,3v20a3,3,0,0,1,-3,3h-249a3,3,0,0,1,-3,-3v-20a3,3,0,0,1,3,-3z" stroke-width="1"></path><g id="node_text9" fill="black"><text id="kity_text_100" text-rendering="inherit" font-size="14" dy=".8em" y="141.39998711597724" x="374.4999904749687">梯度下降法（Gradient Descent）</text></g></g><g id="minder_node10"><g id="node_expander9" style="cursor: pointer;" display="none"><path id="kity_path_111" fill="white" stroke="gray" d="M649.4999845340797,98.49998808208278A6,6,0,1,1,637.4999845340797,98.49998808208278A6,6,0,1,1,649.4999845340797,98.49998808208278"></path><path id="kity_path_112" fill="none" stroke="gray"></path></g><path id="node_outline10" fill="none" stroke="none" d="M654.4999841807182,87.49998808208278h242a5,5,0,0,1,5,5v12a5,5,0,0,1,-5,5h-242a5,5,0,0,1,-5,-5v-12a5,5,0,0,1,5,-5z" stroke-width="3"></path><g id="node_text10" fill="black"><text id="kity_text_108" text-rendering="inherit" font-size="12" dy=".8em" y="90.69998826823331" x="659.4999841807182">批量梯度下降（Batch Gradient Descent）</text></g></g><g id="minder_node11"><g id="node_expander10" style="cursor: pointer;" display="none"><path id="kity_path_119" fill="white" stroke="gray" d="M649.4999845340797,150.49998693365814A6,6,0,1,1,637.4999845340797,150.49998693365814A6,6,0,1,1,649.4999845340797,150.49998693365814"></path><path id="kity_path_120" fill="none" stroke="gray"></path></g><path id="node_outline11" fill="none" stroke="none" d="M654.4999841807182,139.49998693365814h267a5,5,0,0,1,5,5v12a5,5,0,0,1,-5,5h-267a5,5,0,0,1,-5,-5v-12a5,5,0,0,1,5,-5z" stroke-width="3"></path><g id="node_text11" fill="black"><text id="kity_text_116" text-rendering="inherit" font-size="12" dy=".8em" y="142.69998711980867" x="659.4999841807182">随机梯度下降（Stochastic Gradient Descent）</text></g></g><g id="minder_node12"><g id="node_expander11" style="cursor: pointer;" display="none"><path id="kity_path_127" fill="white" stroke="gray" d="M649.4999845340797,202.4999857852335A6,6,0,1,1,637.4999845340797,202.4999857852335A6,6,0,1,1,649.4999845340797,202.4999857852335"></path><path id="kity_path_128" fill="none" stroke="gray"></path></g><path id="node_outline12" fill="none" stroke="none" d="M654.4999841807182,191.4999857852335h285a5,5,0,0,1,5,5v12a5,5,0,0,1,-5,5h-285a5,5,0,0,1,-5,-5v-12a5,5,0,0,1,5,-5z" stroke-width="3"></path><g id="node_text12" fill="black"><text id="kity_text_124" text-rendering="inherit" font-size="12" dy=".8em" y="194.69998597138402" x="659.4999841807182">小批量梯度下降（Mini-Batch Gradient Descent）</text></g></g><g id="kity_g_12" display="none"><path id="kity_path_13" fill="none" stroke="rgb(66, 94, 112)" d="M26.499997740963067,227.4999845263834h203a5,5,0,0,1,5,5v54a5,5,0,0,1,-5,5h-203a5,5,0,0,1,-5,-5v-54a5,5,0,0,1,5,-5z" stroke-width="5"></path></g><g id="minder_node20"><g id="node_expander24" style="cursor: pointer;"><path id="kity_path_236" fill="white" stroke="gray" d="M353.49999180325295,368.4999821191087A6,6,0,1,1,341.49999180325295,368.4999821191087A6,6,0,1,1,353.49999180325295,368.4999821191087"></path><path id="kity_path_237" fill="none" stroke="gray" d="M342.99999180325295,368.4999821191087L351.99999180325295,368.4999821191087"></path></g><path id="node_outline25" fill="rgb(238, 243, 246)" stroke="rgb(115, 161, 191)" d="M357.4999904749687,355.4999821191087h215a3,3,0,0,1,3,3v20a3,3,0,0,1,-3,3h-215a3,3,0,0,1,-3,-3v-20a3,3,0,0,1,3,-3z" stroke-width="1"></path><g id="node_text25" fill="black"><text id="kity_text_213" text-rendering="inherit" font-size="14" dy=".8em" y="359.3999823014278" x="374.4999904749687">牛顿法（Newton Method）</text></g></g><g id="minder_node21"><g id="node_expander22" style="cursor: pointer;"><path id="kity_path_230" fill="white" stroke="gray" d="M615.4999852849726,316.4999832675333A6,6,0,1,1,603.4999852849726,316.4999832675333A6,6,0,1,1,615.4999852849726,316.4999832675333"></path><path id="kity_path_231" fill="none" stroke="gray" d="M604.9999852849726,316.4999832675333L613.9999852849726,316.4999832675333"></path></g><path id="node_outline23" fill="none" stroke="none" d="M620.4999849316112,305.4999832675333h215a5,5,0,0,1,5,5v12a5,5,0,0,1,-5,5h-215a5,5,0,0,1,-5,-5v-12a5,5,0,0,1,5,-5z"></path><g id="node_text23" fill="black"><text id="kity_text_209" text-rendering="inherit" font-size="12" dy=".8em" y="308.69998345368384" x="625.4999849316112">拟牛顿法（Quasi-Newton Method）</text></g></g><g id="minder_node22"><g id="node_expander19" style="cursor: pointer;" display="none"><path id="kity_path_221" fill="white" stroke="gray" d="M880.4999794324241,264.49998441595795A6,6,0,1,1,868.4999794324241,264.49998441595795A6,6,0,1,1,880.4999794324241,264.49998441595795"></path><path id="kity_path_222" fill="none" stroke="gray"></path></g><path id="node_outline20" fill="none" stroke="none" d="M885.4999790790627,253.49998441595795h33a5,5,0,0,1,5,5v12a5,5,0,0,1,-5,5h-33a5,5,0,0,1,-5,-5v-12a5,5,0,0,1,5,-5z"></path><g id="node_text20" fill="black"><text id="kity_text_203" text-rendering="inherit" font-size="12" dy=".8em" y="256.6999846021085" x="890.4999790790627">DFP</text></g></g><g id="minder_node23"><g id="node_expander20" style="cursor: pointer;" display="none"><path id="kity_path_224" fill="white" stroke="gray" d="M880.4999794324241,316.4999832675333A6,6,0,1,1,868.4999794324241,316.4999832675333A6,6,0,1,1,880.4999794324241,316.4999832675333"></path><path id="kity_path_225" fill="none" stroke="gray"></path></g><path id="node_outline21" fill="none" stroke="none" d="M885.4999790790627,305.4999832675333h113a5,5,0,0,1,5,5v12a5,5,0,0,1,-5,5h-113a5,5,0,0,1,-5,-5v-12a5,5,0,0,1,5,-5z"></path><g id="node_text21" fill="black"><text id="kity_text_205" text-rendering="inherit" font-size="12" dy=".8em" y="308.69998345368384" x="890.4999790790627">变尺度法（BFGS）</text></g></g><g id="minder_node24"><g id="node_expander21" style="cursor: pointer;" display="none"><path id="kity_path_227" fill="white" stroke="gray" d="M880.4999794324241,368.4999821191087A6,6,0,1,1,868.4999794324241,368.4999821191087A6,6,0,1,1,880.4999794324241,368.4999821191087"></path><path id="kity_path_228" fill="none" stroke="gray"></path></g><path id="node_outline22" fill="none" stroke="none" d="M885.4999790790627,357.4999821191087h51a5,5,0,0,1,5,5v12a5,5,0,0,1,-5,5h-51a5,5,0,0,1,-5,-5v-12a5,5,0,0,1,5,-5z"></path><g id="node_text22" fill="black"><text id="kity_text_207" text-rendering="inherit" font-size="12" dy=".8em" y="360.69998230525925" x="890.4999790790627">L-BFGS</text></g></g><g id="minder_node25"><g id="node_expander23" style="cursor: pointer;" display="none"><path id="kity_path_233" fill="white" stroke="gray" d="M615.4999852849726,420.499980970684A6,6,0,1,1,603.4999852849726,420.499980970684A6,6,0,1,1,615.4999852849726,420.499980970684"></path><path id="kity_path_234" fill="none" stroke="gray"></path></g><path id="node_outline24" fill="none" stroke="none" d="M620.4999849316112,409.499980970684h229a5,5,0,0,1,5,5v12a5,5,0,0,1,-5,5h-229a5,5,0,0,1,-5,-5v-12a5,5,0,0,1,5,-5z"></path><g id="node_text24" fill="black"><text id="kity_text_211" text-rendering="inherit" font-size="12" dy=".8em" y="412.69998115683455" x="625.4999849316112">高斯牛顿法（Gauss-Newton Method）</text></g></g><g id="minder_node26"><g id="node_expander25" style="cursor: pointer;"><path id="kity_path_244" fill="white" stroke="gray" d="M353.49999180325295,484.49997955723825A6,6,0,1,1,341.49999180325295,484.49997955723825A6,6,0,1,1,353.49999180325295,484.49997955723825"></path><path id="kity_path_245" fill="none" stroke="gray" d="M342.99999180325295,484.49997955723825L351.99999180325295,484.49997955723825"></path></g><path id="node_outline26" fill="rgb(238, 243, 246)" stroke="rgb(115, 161, 191)" d="M357.4999904749687,471.49997955723825h263a3,3,0,0,1,3,3v20a3,3,0,0,1,-3,3h-263a3,3,0,0,1,-3,-3v-20a3,3,0,0,1,3,-3z" stroke-width="1"></path><g id="node_text26" fill="black"><text id="kity_text_241" text-rendering="inherit" font-size="14" dy=".8em" y="475.39997973955735" x="374.4999904749687">共轭梯度法（Conjugate Gradient）</text></g></g><g id="minder_node27"><g id="node_expander26" style="cursor: pointer;" display="none"><path id="kity_path_252" fill="white" stroke="gray" d="M663.4999842248883,484.49997955723825A6,6,0,1,1,651.4999842248883,484.49997955723825A6,6,0,1,1,663.4999842248883,484.49997955723825"></path><path id="kity_path_253" fill="none" stroke="gray"></path></g><path id="node_outline27" fill="none" stroke="none" d="M668.4999838715269,473.49997955723825h259a5,5,0,0,1,5,5v12a5,5,0,0,1,-5,5h-259a5,5,0,0,1,-5,-5v-12a5,5,0,0,1,5,-5z" stroke-width="3"></path><g id="node_text27" fill="black"><text id="kity_text_249" text-rendering="inherit" font-size="12" dy=".8em" y="476.6999797433888" x="673.4999838715269">共轭方向法（Conjugate Direction Method）</text></g></g></g></g></svg>