<svg id="kity_svg_6" xmlns="http://www.w3.org/2000/svg" xmlns:xlink="http://www.w3.org/1999/xlink" version="1.1" width="796" height="340" style="background: rgb(251, 251, 251); visibility: visible;" viewBox="0 0 796 340"><defs id="kity_defs_7"><linearGradient id="kity_linearGradient_17" x1="0" y1="0" x2="0" y2="1"><stop id="kity_stop_18" offset="0" stop-color="rgb(255, 255, 255)"></stop><stop id="kity_stop_19" offset="1" stop-color="rgb(204, 204, 204)"></stop></linearGradient><marker id="kity_marker_2" orient="auto" refX="6" refY="0" viewBox="-7 -7 14 14" markerWidth="7" markerHeight="7" markerUnits="userSpaceOnUse"><path id="kity_path_3" fill="rgb(115, 161, 191)" stroke="none" d="M6,0A6,6,0,1,1,-6,0A6,6,0,1,1,6,0"></path></marker></defs><g id="kity_g_8"><g id="minder1" text-rendering="optimize-speed"><g id="minder_connect_group1"><path id="kity_path_31" fill="none" stroke="rgb(115, 161, 191)" stroke-width="1" d="M101.00000578351319,185.50000555999577A96.5,110.5,0,0,1,197.5000057835132,75.00000555999577"></path><path id="kity_path_33" fill="none" stroke="rgb(115, 161, 191)" stroke-width="1" d="M375.5000057835132,75.50000555999577C383.5000057835132,75.00000555999577,383.5000057835132,29.50000555999577,391.5000057835132,29.50000555999577"></path><path id="kity_path_35" fill="none" stroke="rgb(115, 161, 191)" stroke-width="1" d="M512.5000057835132,9.50000555999577C520.5000057835132,9.50000555999577,520.5000057835132,-16.49999444000423,528.5000057835132,-16.49999444000423" display="none"></path><path id="kity_path_37" fill="none" stroke="rgb(115, 161, 191)" stroke-width="1" d="M512.5000057835132,9.50000555999577C520.5000057835132,9.50000555999577,520.5000057835132,9.50000555999577,528.5000057835132,9.50000555999577" display="none"></path><path id="kity_path_39" fill="none" stroke="rgb(115, 161, 191)" stroke-width="1" d="M512.5000057835132,9.50000555999577C520.5000057835132,9.50000555999577,520.5000057835132,35.50000555999577,528.5000057835132,35.50000555999577" display="none"></path><path id="kity_path_41" fill="none" stroke="rgb(115, 161, 191)" stroke-width="1" d="M375.5000057835132,75.50000555999577C383.5000057835132,75.00000555999577,383.5000057835132,120.50000555999577,391.5000057835132,120.50000555999577"></path><path id="kity_path_43" fill="none" stroke="rgb(115, 161, 191)" stroke-width="1" d="M525.5000057835132,120.50000555999577C533.5000057835132,120.50000555999577,533.5000057835132,55.50000555999577,541.5000057835132,55.50000555999577"></path><path id="kity_path_45" fill="none" stroke="rgb(115, 161, 191)" stroke-width="1" d="M525.5000057835132,120.50000555999577C533.5000057835132,120.50000555999577,533.5000057835132,81.50000555999577,541.5000057835132,81.50000555999577"></path><path id="kity_path_47" fill="none" stroke="rgb(115, 161, 191)" stroke-width="1" d="M525.5000057835132,120.50000555999577C533.5000057835132,120.50000555999577,533.5000057835132,107.50000555999577,541.5000057835132,107.50000555999577"></path><path id="kity_path_49" fill="none" stroke="rgb(115, 161, 191)" stroke-width="1" d="M525.5000057835132,120.50000555999577C533.5000057835132,120.50000555999577,533.5000057835132,133.50000555999577,541.5000057835132,133.50000555999577"></path><path id="kity_path_51" fill="none" stroke="rgb(115, 161, 191)" stroke-width="1" d="M525.5000057835132,120.50000555999577C533.5000057835132,120.50000555999577,533.5000057835132,159.50000555999577,541.5000057835132,159.50000555999577"></path><path id="kity_path_53" fill="none" stroke="rgb(115, 161, 191)" stroke-width="1" d="M101.00000578351319,185.50000555999577A96.5,48.5,0,0,0,197.5000057835132,234.00000555999577"></path><path id="kity_path_55" fill="none" stroke="rgb(115, 161, 191)" stroke-width="1" d="M392.5000057835132,234.50000555999577C400.5000057835132,234.00000555999577,400.5000057835132,221.50000555999577,408.5000057835132,221.50000555999577"></path><path id="kity_path_57" fill="none" stroke="none" display="none"></path><path id="kity_path_59" fill="none" stroke="rgb(115, 161, 191)" stroke-width="1" d="M392.5000057835132,234.50000555999577C400.5000057835132,234.00000555999577,400.5000057835132,247.50000555999577,408.5000057835132,247.50000555999577"></path><path id="kity_path_61" fill="none" stroke="none" display="none"></path><path id="kity_path_63" fill="none" stroke="rgb(115, 161, 191)" stroke-width="1" d="M101.00000578351319,185.50000555999577A96.5,111.5,0,0,0,197.5000057835132,297.00000555999577"></path><path id="kity_path_171" fill="none" stroke="rgb(115, 161, 191)" stroke-width="1" d="M525.5000057835132,120.50000555999577C533.5000057835132,120.50000555999577,533.5000057835132,185.50000555999577,541.5000057835132,185.50000555999577"></path></g><g id="minder_node1"><path id="node_outline1" fill="rgb(115, 161, 191)" stroke="rgb(115, 161, 191)" d="M25.50000578351319,159.50000555999577h151a5,5,0,0,1,5,5v42a5,5,0,0,1,-5,5h-151a5,5,0,0,1,-5,-5v-42a5,5,0,0,1,5,-5z" stroke-width="3"></path><g id="node_text1" fill="white"><text id="kity_text_22" text-rendering="inherit" font-size="16" dy=".8em" y="163.100005482121" x="32.50000578351319">机器学习</text><text id="kity_text_101" text-rendering="inherit" font-size="16" dy=".8em" y="187.100005482121" x="32.50000578351319">Machine Learning</text></g></g><g id="kity_g_12"><path id="kity_path_13" fill="none" stroke="none" d="M32.50000578351319,185.50000555999577h0v0h0z"></path></g><g id="kity_g_14"><path id="kity_path_15" fill="none" stroke="none" d="M32.50000578351319,185.50000555999577h0v0h0z"></path><path id="kity_path_16" fill="none" stroke="none"></path></g><g id="minder_node2"><g id="node_expander11" style="cursor: pointer;"><path id="kity_path_150" fill="white" stroke="gray" d="M198.50000876374543,75.00000350177288A6,6,0,1,1,186.50000876374543,75.00000350177288A6,6,0,1,1,198.50000876374543,75.00000350177288"></path><path id="kity_path_151" fill="none" stroke="gray" d="M188.00000876374543,75.00000350177288L197.00000876374543,75.00000350177288"></path></g><path id="node_outline12" fill="rgb(238, 243, 246)" stroke="rgb(115, 161, 191)" d="M202.50000926665962,51.500003492459655h170a3,3,0,0,1,3,3v41a3,3,0,0,1,-3,3h-170a3,3,0,0,1,-3,-3v-41a3,3,0,0,1,3,-3z" stroke-width="1"></path><g id="node_text12" fill="black"><text id="kity_text_85" text-rendering="inherit" font-size="14" dy=".8em" y="54.90000348651539" x="219.50000926665962">监督学习</text><text id="kity_text_86" text-rendering="inherit" font-size="14" dy=".8em" y="75.90000348651539" x="219.50000926665962">Supervised Learning</text></g></g><g id="minder_node3"><g id="node_expander4" style="cursor: pointer;"><path id="kity_path_129" fill="white" stroke="gray" d="M391.50001235865057,29.500002654269338A6,6,0,1,1,379.50001235865057,29.500002654269338A6,6,0,1,1,391.50001235865057,29.500002654269338"></path><path id="kity_path_130" fill="none" stroke="gray" d="M381.00001235865057,29.500002654269338L390.00001235865057,29.500002654269338M385.50001235865057,25.000002654269338L385.50001235865057,34.00000265426934"></path></g><path id="node_outline5" fill="none" stroke="none" d="M396.50001256354153,20.500002654269338h111a5,5,0,0,1,5,5v8a5,5,0,0,1,-5,5h-111a5,5,0,0,1,-5,-5v-8a5,5,0,0,1,5,-5z" stroke-width="3"></path><g id="node_text5" fill="black"><text id="kity_text_71" text-rendering="inherit" font-size="12" dy=".8em" y="21.70000272025557" x="396.50001256354153">回归（Regression）</text></g></g><g id="minder_node4" display="none"><g id="node_expander1" style="cursor: pointer;" display="none"><path id="kity_path_120" fill="white" stroke="gray" d="M528.5000149104744,13.500002356246114A6,6,0,1,1,516.5000149104744,13.500002356246114A6,6,0,1,1,528.5000149104744,13.500002356246114"></path><path id="kity_path_121" fill="none" stroke="gray"></path></g><path id="node_outline2" fill="none" stroke="none" d="M528.5000150222331,4.500002356246114h152a5,5,0,0,1,5,5v8a5,5,0,0,1,-5,5h-152a5,5,0,0,1,-5,-5v-8a5,5,0,0,1,5,-5z"></path><g id="node_text2" fill="black"><text id="kity_text_65" text-rendering="inherit" font-size="12" dy=".8em" y="5.700002422232345" x="528.5000150222331">代价函数（Cost Function）</text></g></g><g id="minder_node5" display="none"><g id="node_expander2" style="cursor: pointer;" display="none"><path id="kity_path_123" fill="white" stroke="gray" d="M528.5000149104744,21.500002505257726A6,6,0,1,1,516.5000149104744,21.500002505257726A6,6,0,1,1,528.5000149104744,21.500002505257726"></path><path id="kity_path_124" fill="none" stroke="gray"></path></g><path id="node_outline3" fill="none" stroke="none" d="M528.5000150222331,12.500002505257726h184a5,5,0,0,1,5,5v8a5,5,0,0,1,-5,5h-184a5,5,0,0,1,-5,-5v-8a5,5,0,0,1,5,-5z"></path><g id="node_text3" fill="black"><text id="kity_text_67" text-rendering="inherit" font-size="12" dy=".8em" y="13.700002571243957" x="528.5000150222331">梯度下降法（Gradient Descent）</text></g></g><g id="minder_node6" display="none"><g id="node_expander3" style="cursor: pointer;" display="none"><path id="kity_path_126" fill="white" stroke="gray" d="M528.5000149104744,29.500002654269338A6,6,0,1,1,516.5000149104744,29.500002654269338A6,6,0,1,1,528.5000149104744,29.500002654269338"></path><path id="kity_path_127" fill="none" stroke="gray"></path></g><path id="node_outline4" fill="none" stroke="none" d="M528.5000150222331,20.500002654269338h182a5,5,0,0,1,5,5v8a5,5,0,0,1,-5,5h-182a5,5,0,0,1,-5,-5v-8a5,5,0,0,1,5,-5z"></path><g id="node_text4" fill="black"><text id="kity_text_69" text-rendering="inherit" font-size="12" dy=".8em" y="21.70000272025557" x="528.5000150222331">正规方程法（Normal Equation）</text></g></g><g id="minder_node7"><g id="node_expander10" style="cursor: pointer;"><path id="kity_path_147" fill="white" stroke="gray" d="M391.50001235865057,120.50000434927642A6,6,0,1,1,379.50001235865057,120.50000434927642A6,6,0,1,1,391.50001235865057,120.50000434927642"></path><path id="kity_path_148" fill="none" stroke="gray" d="M381.00001235865057,120.50000434927642L390.00001235865057,120.50000434927642"></path></g><path id="node_outline11" fill="none" stroke="none" d="M396.50001256354153,111.50000434927642h124a5,5,0,0,1,5,5v8a5,5,0,0,1,-5,5h-124a5,5,0,0,1,-5,-5v-8a5,5,0,0,1,5,-5z" stroke-width="3"></path><g id="node_text11" fill="black"><text id="kity_text_83" text-rendering="inherit" font-size="12" dy=".8em" y="112.70000441526265" x="396.50001256354153">分类（Classification）</text></g></g><g id="minder_node8"><g id="node_expander5" style="cursor: pointer;" display="none"><path id="kity_path_132" fill="white" stroke="gray" d="M541.5000151526183,55.50000313855708A6,6,0,1,1,529.5000151526183,55.50000313855708A6,6,0,1,1,541.5000151526183,55.50000313855708"></path><path id="kity_path_133" fill="none" stroke="gray"></path></g><path id="node_outline6" fill="none" stroke="none" d="M546.5000153575093,46.50000313855708h183a5,5,0,0,1,5,5v8a5,5,0,0,1,-5,5h-183a5,5,0,0,1,-5,-5v-8a5,5,0,0,1,5,-5z" stroke-width="3"></path><g id="node_text6" fill="black"><text id="kity_text_73" text-rendering="inherit" font-size="12" dy=".8em" y="47.70000320454331" x="546.5000153575093">逻辑回归（Logistic Regression）</text></g></g><g id="minder_node9"><g id="node_expander6" style="cursor: pointer;" display="none"><path id="kity_path_135" fill="white" stroke="gray" d="M541.5000151526183,81.50000362284482A6,6,0,1,1,529.5000151526183,81.50000362284482A6,6,0,1,1,541.5000151526183,81.50000362284482"></path><path id="kity_path_136" fill="none" stroke="gray"></path></g><path id="node_outline7" fill="none" stroke="none" d="M546.5000153575093,72.50000362284482h164a5,5,0,0,1,5,5v8a5,5,0,0,1,-5,5h-164a5,5,0,0,1,-5,-5v-8a5,5,0,0,1,5,-5z" stroke-width="3"></path><g id="node_text7" fill="black"><text id="kity_text_75" text-rendering="inherit" font-size="12" dy=".8em" y="73.70000368883105" x="546.5000153575093">神经网络（Neural Network）</text></g></g><g id="minder_node10"><g id="node_expander7" style="cursor: pointer;" display="none"><path id="kity_path_138" fill="white" stroke="gray" d="M541.5000151526183,107.50000410713255A6,6,0,1,1,529.5000151526183,107.50000410713255A6,6,0,1,1,541.5000151526183,107.50000410713255"></path><path id="kity_path_139" fill="none" stroke="gray"></path></g><path id="node_outline8" fill="none" stroke="none" d="M546.5000153575093,98.50000410713255h225a5,5,0,0,1,5,5v8a5,5,0,0,1,-5,5h-225a5,5,0,0,1,-5,-5v-8a5,5,0,0,1,5,-5z" stroke-width="3"></path><g id="node_text8" fill="black"><text id="kity_text_77" text-rendering="inherit" font-size="12" dy=".8em" y="99.70000417311878" x="546.5000153575093">支持向量机（Support Vector Machine）</text></g></g><g id="minder_node11"><g id="node_expander8" style="cursor: pointer;" display="none"><path id="kity_path_141" fill="white" stroke="gray" d="M541.5000151526183,133.5000045914203A6,6,0,1,1,529.5000151526183,133.5000045914203A6,6,0,1,1,541.5000151526183,133.5000045914203"></path><path id="kity_path_142" fill="none" stroke="gray"></path></g><path id="node_outline9" fill="none" stroke="none" d="M546.5000153575093,124.50000459142029h176a5,5,0,0,1,5,5v8a5,5,0,0,1,-5,5h-176a5,5,0,0,1,-5,-5v-8a5,5,0,0,1,5,-5z" stroke-width="3"></path><g id="node_text9" fill="black"><text id="kity_text_79" text-rendering="inherit" font-size="12" dy=".8em" y="125.70000465740651" x="546.5000153575093">K-近邻（K-Nearest Neighbor）</text></g></g><g id="minder_node12"><g id="node_expander9" style="cursor: pointer;" display="none"><path id="kity_path_144" fill="white" stroke="gray" d="M541.5000151526183,159.50000507570803A6,6,0,1,1,529.5000151526183,159.50000507570803A6,6,0,1,1,541.5000151526183,159.50000507570803"></path><path id="kity_path_145" fill="none" stroke="gray"></path></g><path id="node_outline10" fill="none" stroke="none" d="M546.5000153575093,150.50000507570803h138a5,5,0,0,1,5,5v8a5,5,0,0,1,-5,5h-138a5,5,0,0,1,-5,-5v-8a5,5,0,0,1,5,-5z" stroke-width="3"></path><g id="node_text10" fill="black"><text id="kity_text_81" text-rendering="inherit" font-size="12" dy=".8em" y="151.70000514169425" x="546.5000153575093">决策树（Decision Tree）</text></g></g><g id="minder_node13"><g id="node_expander16" style="cursor: pointer;"><path id="kity_path_165" fill="white" stroke="gray" d="M198.50000876374543,234.00000646337867A6,6,0,1,1,186.50000876374543,234.00000646337867A6,6,0,1,1,198.50000876374543,234.00000646337867"></path><path id="kity_path_166" fill="none" stroke="gray" d="M188.00000876374543,234.00000646337867L197.00000876374543,234.00000646337867"></path></g><path id="node_outline17" fill="rgb(238, 243, 246)" stroke="rgb(115, 161, 191)" d="M202.50000926665962,210.50000645406544h187a3,3,0,0,1,3,3v41a3,3,0,0,1,-3,3h-187a3,3,0,0,1,-3,-3v-41a3,3,0,0,1,3,-3z" stroke-width="1"></path><g id="node_text17" fill="black"><text id="kity_text_96" text-rendering="inherit" font-size="14" dy=".8em" y="213.9000064481212" x="219.50000926665962">无监督学习</text><text id="kity_text_97" text-rendering="inherit" font-size="14" dy=".8em" y="234.9000064481212" x="219.50000926665962">Unsupervised Learning</text></g></g><g id="minder_node14"><g id="node_expander13" style="cursor: pointer;"><path id="kity_path_156" fill="white" stroke="gray" d="M408.50001267530024,221.50000623054802A6,6,0,1,1,396.50001267530024,221.50000623054802A6,6,0,1,1,408.50001267530024,221.50000623054802"></path><path id="kity_path_157" fill="none" stroke="gray" d="M398.00001267530024,221.50000623054802L407.00001267530024,221.50000623054802M402.50001267530024,217.00000623054802L402.50001267530024,226.00000623054802"></path></g><path id="node_outline14" fill="none" stroke="none" d="M413.5000128801912,212.50000623054802h106a5,5,0,0,1,5,5v8a5,5,0,0,1,-5,5h-106a5,5,0,0,1,-5,-5v-8a5,5,0,0,1,5,-5z" stroke-width="3"></path><g id="node_text14" fill="black"><text id="kity_text_90" text-rendering="inherit" font-size="12" dy=".8em" y="213.70000629653424" x="413.5000128801912">聚类（Clustering）</text></g></g><g id="minder_node15" display="none"><g id="node_expander12" style="cursor: pointer;" display="none"><path id="kity_path_153" fill="white" stroke="gray" d="M540.5000151339918,221.50000623054802A6,6,0,1,1,528.5000151339918,221.50000623054802A6,6,0,1,1,540.5000151339918,221.50000623054802"></path><path id="kity_path_154" fill="none" stroke="gray"></path></g><path id="node_outline13" fill="none" stroke="none" d="M540.5000152457505,212.50000623054802h112a5,5,0,0,1,5,5v8a5,5,0,0,1,-5,5h-112a5,5,0,0,1,-5,-5v-8a5,5,0,0,1,5,-5z"></path><g id="node_text13" fill="black"><text id="kity_text_88" text-rendering="inherit" font-size="12" dy=".8em" y="213.70000629653424" x="540.5000152457505">K-均值（K-Means）</text></g></g><g id="minder_node16"><g id="node_expander15" style="cursor: pointer;"><path id="kity_path_162" fill="white" stroke="gray" d="M408.50001267530024,247.50000671483576A6,6,0,1,1,396.50001267530024,247.50000671483576A6,6,0,1,1,408.50001267530024,247.50000671483576"></path><path id="kity_path_163" fill="none" stroke="gray" d="M398.00001267530024,247.50000671483576L407.00001267530024,247.50000671483576M402.50001267530024,243.00000671483576L402.50001267530024,252.00000671483576"></path></g><path id="node_outline16" fill="none" stroke="none" d="M413.5000128801912,238.50000671483576h195a5,5,0,0,1,5,5v8a5,5,0,0,1,-5,5h-195a5,5,0,0,1,-5,-5v-8a5,5,0,0,1,5,-5z" stroke-width="3"></path><g id="node_text16" fill="black"><text id="kity_text_94" text-rendering="inherit" font-size="12" dy=".8em" y="239.70000678082198" x="413.5000128801912">降维（Dimensionality Reduction）</text></g></g><g id="minder_node17" display="none"><g id="node_expander14" style="cursor: pointer;" display="none"><path id="kity_path_159" fill="white" stroke="gray" d="M629.500016791746,247.50000671483576A6,6,0,1,1,617.500016791746,247.50000671483576A6,6,0,1,1,629.500016791746,247.50000671483576"></path><path id="kity_path_160" fill="none" stroke="gray"></path></g><path id="node_outline15" fill="none" stroke="none" d="M629.5000169035047,238.50000671483576h267a5,5,0,0,1,5,5v8a5,5,0,0,1,-5,5h-267a5,5,0,0,1,-5,-5v-8a5,5,0,0,1,5,-5z"></path><g id="node_text15" fill="black"><text id="kity_text_92" text-rendering="inherit" font-size="12" dy=".8em" y="239.70000678082198" x="629.5000169035047">主成分分析法（Principal Component Analysis）</text></g></g><g id="minder_node18"><g id="node_expander17" style="cursor: pointer;" display="none"><path id="kity_path_168" fill="white" stroke="gray" d="M198.50000876374543,297.0000076368451A6,6,0,1,1,186.50000876374543,297.0000076368451A6,6,0,1,1,198.50000876374543,297.0000076368451"></path><path id="kity_path_169" fill="none" stroke="gray"></path></g><path id="node_outline18" fill="rgb(238, 243, 246)" stroke="rgb(115, 161, 191)" d="M202.50000926665962,273.5000076275319h195a3,3,0,0,1,3,3v41a3,3,0,0,1,-3,3h-195a3,3,0,0,1,-3,-3v-41a3,3,0,0,1,3,-3z" stroke-width="1"></path><g id="node_text18" fill="black"><text id="kity_text_99" text-rendering="inherit" font-size="14" dy=".8em" y="276.90000762158763" x="219.50000926665962">强化学习</text><text id="kity_text_100" text-rendering="inherit" font-size="14" dy=".8em" y="297.90000762158763" x="219.50000926665962">Reinforcement Learning</text></g></g><g id="minder_node19"><g id="node_expander18" style="cursor: pointer;" display="none"><path id="kity_path_176" fill="white" stroke="gray" d="M541.5000151526183,185.50000555999577A6,6,0,1,1,529.5000151526183,185.50000555999577A6,6,0,1,1,541.5000151526183,185.50000555999577"></path><path id="kity_path_177" fill="none" stroke="gray"></path></g><path id="node_outline19" fill="none" stroke="none" d="M546.5000153575093,176.50000555999577h171a5,5,0,0,1,5,5v8a5,5,0,0,1,-5,5h-171a5,5,0,0,1,-5,-5v-8a5,5,0,0,1,5,-5z" stroke-width="3"></path><g id="node_text19" fill="black"><text id="kity_text_173" text-rendering="inherit" font-size="12" dy=".8em" y="177.700005625982" x="546.5000153575093">朴素贝叶斯（Naive Bayesian）</text></g></g></g></g></svg>