<svg width="796" height="266" xmlns="http://www.w3.org/2000/svg" xmlns:xlink="http://www.w3.org/1999/xlink" overflow="hidden"><defs><clipPath id="clip0"><path d="M188 193 984 193 984 459 188 459Z" fill-rule="evenodd" clip-rule="evenodd"/></clipPath></defs><g clip-path="url(#clip0)" transform="translate(-188 -193)"><rect x="647" y="194" width="336" height="197" fill="#BDD7EE"/><path d="M932 270.5C944.426 270.5 954.5 280.574 954.5 293 954.5 305.426 944.426 315.5 932 315.5 919.574 315.5 909.5 305.426 909.5 293 909.5 280.574 919.574 270.5 932 270.5Z" stroke="#000000" stroke-miterlimit="8" fill="#FFFFFF" fill-rule="evenodd"/><path d="M857 270.5C869.426 270.5 879.5 280.574 879.5 293 879.5 305.426 869.426 315.5 857 315.5 844.574 315.5 834.5 305.426 834.5 293 834.5 280.574 844.574 270.5 857 270.5Z" stroke="#2F528F" stroke-miterlimit="8" fill-rule="evenodd"/><path d="M781 270.5C793.426 270.5 803.5 280.574 803.5 293 803.5 305.426 793.426 315.5 781 315.5 768.574 315.5 758.5 305.426 758.5 293 758.5 280.574 768.574 270.5 781 270.5Z" stroke="#2F528F" stroke-miterlimit="8" fill-rule="evenodd"/><path d="M703 270.5C715.426 270.5 725.5 280.574 725.5 293 725.5 305.426 715.426 315.5 703 315.5 690.574 315.5 680.5 305.426 680.5 293 680.5 280.574 690.574 270.5 703 270.5Z" stroke="#2F528F" stroke-miterlimit="8" fill-rule="evenodd"/><rect x="189" y="194" width="336" height="197" fill="#BDD7EE"/><path d="M473.5 270.5C485.65 270.5 495.5 280.574 495.5 293 495.5 305.426 485.65 315.5 473.5 315.5 461.35 315.5 451.5 305.426 451.5 293 451.5 280.574 461.35 270.5 473.5 270.5Z" stroke="#000000" stroke-miterlimit="8" fill="#FFFFFF" fill-rule="evenodd"/><path d="M399 270.5C411.426 270.5 421.5 280.574 421.5 293 421.5 305.426 411.426 315.5 399 315.5 386.574 315.5 376.5 305.426 376.5 293 376.5 280.574 386.574 270.5 399 270.5Z" stroke="#2F528F" stroke-miterlimit="8" fill-rule="evenodd"/><path d="M250 270.5C262.426 270.5 272.5 280.574 272.5 293 272.5 305.426 262.426 315.5 250 315.5 237.574 315.5 227.5 305.426 227.5 293 227.5 280.574 237.574 270.5 250 270.5Z" stroke="#000000" stroke-miterlimit="8" fill="#FFFFFF" fill-rule="evenodd"/><path d="M324.5 270.5C336.65 270.5 346.5 280.574 346.5 293 346.5 305.426 336.65 315.5 324.5 315.5 312.35 315.5 302.5 305.426 302.5 293 302.5 280.574 312.35 270.5 324.5 270.5Z" stroke="#000000" stroke-miterlimit="8" fill="#FFFFFF" fill-rule="evenodd"/><text font-family="DengXian,DengXian_MSFontService,sans-serif" font-weight="400" font-size="24" transform="translate(310.416 437)">一号盒子<tspan x="456.854" y="0">二号盒子</tspan></text></g></svg>