<svg width="342" height="301" xmlns="http://www.w3.org/2000/svg" xmlns:xlink="http://www.w3.org/1999/xlink" overflow="hidden"><defs><clipPath id="clip0"><path d="M261 113 603 113 603 414 261 414Z" fill-rule="evenodd" clip-rule="evenodd"/></clipPath></defs><g clip-path="url(#clip0)" transform="translate(-261 -113)"><path d="M262.5 318 587.994 318 587.994 319 262.5 319ZM586.66 314.5 594.66 318.5 586.66 322.5Z" fill="#4472C4"/><path d="M0.5-1.8001e-07 0.500103 284.948-0.499897 284.948-0.5 1.8001e-07ZM4.0001 283.615 0.000104987 291.615-3.9999 283.615Z" fill="#4472C4" transform="matrix(1 0 0 -1 355.5 414.115)"/><text font-family="Cambria Math,Cambria Math_MSFontService,sans-serif" font-weight="400" font-size="24" transform="translate(565.247 348)">𝑥<tspan x="-233.09" y="-204">𝑦</tspan><tspan x="-197.127" y="-5">0</tspan><tspan x="-16.9683" y="-171">𝒖</tspan></text><path d="M498.5 266.5C498.5 264.843 499.843 263.5 501.5 263.5 503.157 263.5 504.5 264.843 504.5 266.5 504.5 268.157 503.157 269.5 501.5 269.5 499.843 269.5 498.5 268.157 498.5 266.5Z" stroke="#FF0000" stroke-miterlimit="8" fill="#FF0000" fill-rule="evenodd"/><path d="M364.5 275C364.5 273.619 365.619 272.5 367 272.5 368.381 272.5 369.5 273.619 369.5 275 369.5 276.381 368.381 277.5 367 277.5 365.619 277.5 364.5 276.381 364.5 275Z" stroke="#FF0000" stroke-miterlimit="8" fill="#FF0000" fill-rule="evenodd"/><path d="M273.5 293C273.5 291.619 274.395 290.5 275.5 290.5 276.605 290.5 277.5 291.619 277.5 293 277.5 294.381 276.605 295.5 275.5 295.5 274.395 295.5 273.5 294.381 273.5 293Z" stroke="#FF0000" stroke-miterlimit="8" fill="#FF0000" fill-rule="evenodd"/><path d="M317.5 318C317.5 316.619 318.619 315.5 320 315.5 321.381 315.5 322.5 316.619 322.5 318 322.5 319.381 321.381 320.5 320 320.5 318.619 320.5 317.5 319.381 317.5 318Z" stroke="#FF0000" stroke-miterlimit="8" fill="#FF0000" fill-rule="evenodd"/><path d="M313.5 403C313.5 401.619 314.619 400.5 316 400.5 317.381 400.5 318.5 401.619 318.5 403 318.5 404.381 317.381 405.5 316 405.5 314.619 405.5 313.5 404.381 313.5 403Z" stroke="#FF0000" stroke-miterlimit="8" fill="#FF0000" fill-rule="evenodd"/><path d="M498.736 264.266 461.5 222.5" stroke="#4472C4" stroke-miterlimit="8" stroke-dasharray="3 1" fill="none" fill-rule="evenodd"/><path d="M383.223 292.893 369.5 277.5" stroke="#4472C4" stroke-miterlimit="8" stroke-dasharray="3 1" fill="none" fill-rule="evenodd"/><path d="M336.223 335.893 322.5 320.5" stroke="#4472C4" stroke-miterlimit="8" stroke-dasharray="3 1" fill="none" fill-rule="evenodd"/><path d="M313.138 400.771 291.5 376.5" stroke="#4472C4" stroke-miterlimit="8" stroke-dasharray="3 1" fill="none" fill-rule="evenodd"/><path d="M0.332302-0.373598 276.852 245.581 276.188 246.328-0.332302 0.373598ZM278.182 242.079 281.501 250.385 272.865 248.057Z" fill="#4472C4" transform="matrix(1 0 0 -1 262.5 401.885)"/><path d="M459.5 225.5 462 220.5 464.5 225.5Z" stroke="#2F528F" stroke-miterlimit="8" fill="#4472C4" fill-rule="evenodd"/><path d="M381.5 294.5 384 289.5 386.5 294.5Z" stroke="#2F528F" stroke-miterlimit="8" fill="#4472C4" fill-rule="evenodd"/><path d="M333.5 338.5 336 333.5 338.5 338.5Z" stroke="#2F528F" stroke-miterlimit="8" fill="#4472C4" fill-rule="evenodd"/><path d="M287.5 376.5 290.5 372.5 293.5 376.5Z" stroke="#2F528F" stroke-miterlimit="8" fill="#4472C4" fill-rule="evenodd"/><path d="M323.092 346.639 277.5 295.5" stroke="#4472C4" stroke-miterlimit="8" stroke-dasharray="3 1" fill="none" fill-rule="evenodd"/><path d="M321.5 348.5 324 343.5 326.5 348.5Z" stroke="#2F528F" stroke-miterlimit="8" fill="#4472C4" fill-rule="evenodd"/><path d="M0.164644-0.472115 139.139 47.9937 138.81 48.9379-0.164644 0.472115ZM139.033 44.2499 145.27 50.6611 136.399 51.8037Z" fill="#FF0000" transform="matrix(1 0 0 -1 354.5 318.161)"/><text font-family="Cambria Math,Cambria Math_MSFontService,sans-serif" font-weight="400" font-size="24" transform="translate(392.406 300)">𝜃</text><text font-family="Cambria Math,Cambria Math_MSFontService,sans-serif" font-weight="400" font-size="24" transform="matrix(0.748361 -0.663292 0.663292 0.748361 402.992 271)">𝒙<tspan font-size="18" x="13.9984" y="-8.9729">𝑇</tspan><tspan x="25.9416" y="0.276456">𝒖</tspan></text><text font-family="Cambria Math,Cambria Math_MSFontService,sans-serif" font-weight="400" font-size="24" transform="translate(438.421 304)">𝒙<tspan font-size="16" x="49.027" y="-63">𝑙𝑜𝑠𝑡</tspan></text></g></svg>