<svg width="342" height="345" xmlns="http://www.w3.org/2000/svg" xmlns:xlink="http://www.w3.org/1999/xlink" overflow="hidden"><defs><clipPath id="clip0"><path d="M261 113 603 113 603 458 261 458Z" fill-rule="evenodd" clip-rule="evenodd"/></clipPath></defs><g clip-path="url(#clip0)" transform="translate(-261 -113)"><path d="M0 0 103.777 92.5199" stroke="#4472C4" stroke-miterlimit="8" stroke-dasharray="3 1" fill="none" fill-rule="evenodd" transform="matrix(1 0 0 -1 393.5 362.02)"/><path d="M262.5 318 587.994 318 587.994 319 262.5 319ZM586.66 314.5 594.66 318.5 586.66 322.5Z" fill="#4472C4"/><path d="M0.5-1.8001e-07 0.500103 284.948-0.499897 284.948-0.5 1.8001e-07ZM4.0001 283.615 0.000104987 291.615-3.9999 283.615Z" fill="#4472C4" transform="matrix(1 0 0 -1 355.5 414.115)"/><text font-family="Cambria Math,Cambria Math_MSFontService,sans-serif" font-weight="400" font-size="19" transform="translate(567.921 338)">𝑥<tspan x="-233.778" y="-199">𝑦</tspan><tspan x="-231.298" y="-29">0</tspan><tspan font-size="24" x="-19.556" y="-161">𝒖</tspan><tspan font-size="18" x="-4.05597" y="-156">𝟏</tspan></text><path d="M498.5 266.5C498.5 264.843 499.843 263.5 501.5 263.5 503.157 263.5 504.5 264.843 504.5 266.5 504.5 268.157 503.157 269.5 501.5 269.5 499.843 269.5 498.5 268.157 498.5 266.5Z" stroke="#FF0000" stroke-miterlimit="8" fill="#FF0000" fill-rule="evenodd"/><path d="M498.736 264.266 461.5 222.5" stroke="#4472C4" stroke-miterlimit="8" stroke-dasharray="3 1" fill="none" fill-rule="evenodd"/><path d="M0.332302-0.373598 276.852 245.581 276.188 246.328-0.332302 0.373598ZM278.182 242.079 281.501 250.385 272.865 248.057Z" fill="#4472C4" transform="matrix(1 0 0 -1 262.5 401.885)"/><path d="M0.164644-0.472115 139.139 47.9937 138.81 48.9379-0.164644 0.472115ZM139.033 44.2499 145.27 50.6611 136.399 51.8037Z" fill="#FF0000" transform="matrix(1 0 0 -1 354.5 318.161)"/><text font-family="Cambria Math,Cambria Math_MSFontService,sans-serif" font-weight="400" font-size="19" transform="matrix(0.748361 -0.663292 0.663292 0.748361 389.753 278)">𝑥<tspan font-size="14" x="10.7392" y="-6.51658">𝑇</tspan><tspan x="20.7894" y="-0.281381">𝑢</tspan><tspan font-size="14" x="31.0632" y="3.47959">1</tspan></text><text font-family="Cambria Math,Cambria Math_MSFontService,sans-serif" font-weight="400" font-size="24" transform="translate(423.481 297)">𝒙</text><path d="M262.874 214.168 449.689 424.199 448.942 424.864 262.126 214.832ZM451.419 420.877 453.747 429.513 445.441 426.194Z" fill="#4472C4"/><text font-family="Cambria Math,Cambria Math_MSFontService,sans-serif" font-weight="400" font-size="24" transform="translate(421.291 446)">𝒖<tspan font-size="18" x="15.5" y="4">𝟐</tspan></text><path d="M0.331912-0.373944 103.112 90.8534 102.448 91.6013-0.331912 0.373944ZM104.438 87.3508 107.766 95.6529 99.1275 93.3339Z" fill="#FF0000" transform="matrix(1 0 0 -1 355.5 318.153)"/><path d="M355.874 317.168 390.147 355.782 389.4 356.446 355.126 317.832ZM391.88 352.461 394.199 361.1 385.897 357.772Z" fill="#FF0000"/><text font-family="Cambria Math,Cambria Math_MSFontService,sans-serif" font-weight="400" font-size="19" transform="matrix(0.66533 0.74655 -0.74655 0.66533 348.727 339)">𝑥<tspan font-size="14" x="11.2585" y="-6.62082">𝑇</tspan><tspan x="21.0371" y="0.443005">𝑢</tspan><tspan font-size="14" x="31.3336" y="3.91975">2</tspan></text></g></svg>