<svg id="kity_svg_6" xmlns="http://www.w3.org/2000/svg" xmlns:xlink="http://www.w3.org/1999/xlink" version="1.1" width="837" height="236" style="background: rgb(251, 251, 251); visibility: visible;" viewBox="0 0 837 236"><defs id="kity_defs_7"><linearGradient id="kity_linearGradient_17" x1="0" y1="0" x2="0" y2="1"><stop id="kity_stop_18" offset="0" stop-color="rgb(255, 255, 255)"></stop><stop id="kity_stop_19" offset="1" stop-color="rgb(204, 204, 204)"></stop></linearGradient><marker id="kity_marker_2" orient="auto" refX="6" refY="0" viewBox="-7 -7 14 14" markerWidth="7" markerHeight="7" markerUnits="userSpaceOnUse"><path id="kity_path_3" fill="rgb(115, 161, 191)" stroke="none" d="M6,0A6,6,0,1,1,-6,0A6,6,0,1,1,6,0"></path></marker></defs><g id="kity_g_8"><g id="minder1" text-rendering="optimize-speed"><g id="minder_connect_group1"><path id="kity_path_31" fill="none" stroke="rgb(115, 161, 191)" stroke-width="1" d="M101.0000046659261,118.50000420026481A96.5,74.5,0,0,1,197.5000046659261,44.00000420026481"></path><path id="kity_path_33" fill="none" stroke="rgb(115, 161, 191)" stroke-width="1" d="M375.5000046659261,44.50000420026481C383.5000046659261,44.00000420026481,383.5000046659261,31.50000420026481,391.5000046659261,31.50000420026481"></path><path id="kity_path_35" fill="none" stroke="rgb(115, 161, 191)" stroke-width="1" d="M512.5000046659261,12.500004200264812C520.5000046659261,12.500004200264812,520.5000046659261,-13.499995799735188,528.5000046659261,-13.499995799735188" display="none"></path><path id="kity_path_37" fill="none" stroke="rgb(115, 161, 191)" stroke-width="1" d="M512.5000046659261,12.500004200264812C520.5000046659261,12.500004200264812,520.5000046659261,12.500004200264812,528.5000046659261,12.500004200264812" display="none"></path><path id="kity_path_39" fill="none" stroke="rgb(115, 161, 191)" stroke-width="1" d="M512.5000046659261,12.500004200264812C520.5000046659261,12.500004200264812,520.5000046659261,38.50000420026481,528.5000046659261,38.50000420026481" display="none"></path><path id="kity_path_41" fill="none" stroke="rgb(115, 161, 191)" stroke-width="1" d="M375.5000046659261,44.50000420026481C383.5000046659261,44.00000420026481,383.5000046659261,57.50000420026481,391.5000046659261,57.50000420026481"></path><path id="kity_path_43" fill="none" stroke="rgb(115, 161, 191)" stroke-width="1" d="M525.5000046659261,58.50000420026481C533.5000046659261,58.50000420026481,533.5000046659261,32.50000420026481,541.5000046659261,32.50000420026481" display="none"></path><path id="kity_path_45" fill="none" stroke="rgb(115, 161, 191)" stroke-width="1" d="M525.5000046659261,58.50000420026481C533.5000046659261,58.50000420026481,533.5000046659261,58.50000420026481,541.5000046659261,58.50000420026481" display="none"></path><path id="kity_path_47" fill="none" stroke="rgb(115, 161, 191)" stroke-width="1" d="M525.5000046659261,58.50000420026481C533.5000046659261,58.50000420026481,533.5000046659261,84.50000420026481,541.5000046659261,84.50000420026481" display="none"></path><path id="kity_path_49" fill="none" stroke="rgb(115, 161, 191)" stroke-width="1" d="M101.0000046659261,118.50000420026481A96.5,6.5,0,0,0,197.5000046659261,125.00000420026481"></path><path id="kity_path_51" fill="none" stroke="rgb(115, 161, 191)" stroke-width="1" d="M392.5000046659261,125.50000420026481C400.5000046659261,125.00000420026481,400.5000046659261,105.50000420026481,408.5000046659261,105.50000420026481"></path><path id="kity_path_53" fill="none" stroke="rgb(115, 161, 191)" stroke-width="1" d="M524.5000046659261,105.50000420026481C532.5000046659261,105.50000420026481,532.5000046659261,92.50000420026481,540.5000046659261,92.50000420026481"></path><path id="kity_path_55" fill="none" stroke="rgb(115, 161, 191)" stroke-width="1" d="M392.5000046659261,125.50000420026481C400.5000046659261,125.00000420026481,400.5000046659261,144.5000042002648,408.5000046659261,144.5000042002648"></path><path id="kity_path_57" fill="none" stroke="rgb(115, 161, 191)" stroke-width="1" d="M101.0000046659261,118.50000420026481A96.5,74.5,0,0,0,197.5000046659261,193.0000042002648"></path><path id="kity_path_147" fill="none" stroke="rgb(115, 161, 191)" stroke-width="1" d="M524.5000046659261,105.50000420026481C532.5000046659261,105.50000420026481,532.5000046659261,118.50000420026481,540.5000046659261,118.50000420026481"></path></g><g id="minder_node1"><path id="node_outline1" fill="rgb(115, 161, 191)" stroke="rgb(115, 161, 191)" d="M25.5000046659261,92.50000420026481h151a5,5,0,0,1,5,5v42a5,5,0,0,1,-5,5h-151a5,5,0,0,1,-5,-5v-42a5,5,0,0,1,5,-5z" stroke-width="3"></path><g id="node_text1" fill="white"><text id="kity_text_22" text-rendering="inherit" font-size="16" dy=".8em" y="96.10000412239005" x="32.5000046659261">机器学习</text><text id="kity_text_89" text-rendering="inherit" font-size="16" dy=".8em" y="120.10000412239005" x="32.5000046659261">Machine Learning</text></g></g><g id="kity_g_12"><path id="kity_path_13" fill="none" stroke="none" d="M32.5000046659261,118.50000420026481h0v0h0z"></path></g><g id="kity_g_14"><path id="kity_path_15" fill="none" stroke="none" d="M32.5000046659261,118.50000420026481h0v0h0z"></path><path id="kity_path_16" fill="none" stroke="none"></path></g><g id="minder_node2"><g id="node_expander9" style="cursor: pointer;"><path id="kity_path_129" fill="white" stroke="gray" d="M198.50000764615834,44.000002812594175A6,6,0,1,1,186.50000764615834,44.000002812594175A6,6,0,1,1,198.50000764615834,44.000002812594175"></path><path id="kity_path_130" fill="none" stroke="gray" d="M188.00000764615834,44.000002812594175L197.00000764615834,44.000002812594175"></path></g><path id="node_outline10" fill="rgb(238, 243, 246)" stroke="rgb(115, 161, 191)" d="M202.50000814907253,20.50000280328095h170a3,3,0,0,1,3,3v41a3,3,0,0,1,-3,3h-170a3,3,0,0,1,-3,-3v-41a3,3,0,0,1,3,-3z" stroke-width="1"></path><g id="node_text10" fill="black"><text id="kity_text_75" text-rendering="inherit" font-size="14" dy=".8em" y="23.900002797336683" x="219.50000814907253">监督学习</text><text id="kity_text_76" text-rendering="inherit" font-size="14" dy=".8em" y="44.90000279733668" x="219.50000814907253">Supervised Learning</text></g></g><g id="minder_node3"><g id="node_expander4" style="cursor: pointer;"><path id="kity_path_114" fill="white" stroke="gray" d="M391.5000112410635,31.50000257976353A6,6,0,1,1,379.5000112410635,31.50000257976353A6,6,0,1,1,391.5000112410635,31.50000257976353"></path><path id="kity_path_115" fill="none" stroke="gray" d="M381.0000112410635,31.50000257976353L390.0000112410635,31.50000257976353M385.5000112410635,27.00000257976353L385.5000112410635,36.00000257976353"></path></g><path id="node_outline5" fill="none" stroke="none" d="M396.50001144595444,22.50000257976353h111a5,5,0,0,1,5,5v8a5,5,0,0,1,-5,5h-111a5,5,0,0,1,-5,-5v-8a5,5,0,0,1,5,-5z" stroke-width="3"></path><g id="node_text5" fill="black"><text id="kity_text_65" text-rendering="inherit" font-size="12" dy=".8em" y="23.700002645749763" x="396.50001144595444">回归（Regression）</text></g></g><g id="minder_node4" display="none"><g id="node_expander1" style="cursor: pointer;" display="none"><path id="kity_path_105" fill="white" stroke="gray" d="M528.5000137928873,15.500002281740308A6,6,0,1,1,516.5000137928873,15.500002281740308A6,6,0,1,1,528.5000137928873,15.500002281740308"></path><path id="kity_path_106" fill="none" stroke="gray"></path></g><path id="node_outline2" fill="none" stroke="none" d="M528.500013904646,6.500002281740308h152a5,5,0,0,1,5,5v8a5,5,0,0,1,-5,5h-152a5,5,0,0,1,-5,-5v-8a5,5,0,0,1,5,-5z"></path><g id="node_text2" fill="black"><text id="kity_text_59" text-rendering="inherit" font-size="12" dy=".8em" y="7.700002347726539" x="528.500013904646">代价函数（Cost Function）</text></g></g><g id="minder_node5" display="none"><g id="node_expander2" style="cursor: pointer;" display="none"><path id="kity_path_108" fill="white" stroke="gray" d="M528.5000137928873,23.50000243075192A6,6,0,1,1,516.5000137928873,23.50000243075192A6,6,0,1,1,528.5000137928873,23.50000243075192"></path><path id="kity_path_109" fill="none" stroke="gray"></path></g><path id="node_outline3" fill="none" stroke="none" d="M528.500013904646,14.50000243075192h184a5,5,0,0,1,5,5v8a5,5,0,0,1,-5,5h-184a5,5,0,0,1,-5,-5v-8a5,5,0,0,1,5,-5z"></path><g id="node_text3" fill="black"><text id="kity_text_61" text-rendering="inherit" font-size="12" dy=".8em" y="15.70000249673815" x="528.500013904646">梯度下降法（Gradient Descent）</text></g></g><g id="minder_node6" display="none"><g id="node_expander3" style="cursor: pointer;" display="none"><path id="kity_path_111" fill="white" stroke="gray" d="M528.5000137928873,31.50000257976353A6,6,0,1,1,516.5000137928873,31.50000257976353A6,6,0,1,1,528.5000137928873,31.50000257976353"></path><path id="kity_path_112" fill="none" stroke="gray"></path></g><path id="node_outline4" fill="none" stroke="none" d="M528.500013904646,22.50000257976353h182a5,5,0,0,1,5,5v8a5,5,0,0,1,-5,5h-182a5,5,0,0,1,-5,-5v-8a5,5,0,0,1,5,-5z"></path><g id="node_text4" fill="black"><text id="kity_text_63" text-rendering="inherit" font-size="12" dy=".8em" y="23.700002645749763" x="528.500013904646">正规方程法（Normal Equation）</text></g></g><g id="minder_node7"><g id="node_expander8" style="cursor: pointer;"><path id="kity_path_126" fill="white" stroke="gray" d="M391.5000112410635,57.50000306405127A6,6,0,1,1,379.5000112410635,57.50000306405127A6,6,0,1,1,391.5000112410635,57.50000306405127"></path><path id="kity_path_127" fill="none" stroke="gray" d="M381.0000112410635,57.50000306405127L390.0000112410635,57.50000306405127M385.5000112410635,53.00000306405127L385.5000112410635,62.00000306405127"></path></g><path id="node_outline9" fill="none" stroke="none" d="M396.50001144595444,48.50000306405127h124a5,5,0,0,1,5,5v8a5,5,0,0,1,-5,5h-124a5,5,0,0,1,-5,-5v-8a5,5,0,0,1,5,-5z" stroke-width="3"></path><g id="node_text9" fill="black"><text id="kity_text_73" text-rendering="inherit" font-size="12" dy=".8em" y="49.7000031300375" x="396.50001144595444">分类（Classification）</text></g></g><g id="minder_node8" display="none"><g id="node_expander5" style="cursor: pointer;" display="none"><path id="kity_path_117" fill="white" stroke="gray" d="M541.5000140350312,41.50000276602805A6,6,0,1,1,529.5000140350312,41.50000276602805A6,6,0,1,1,541.5000140350312,41.50000276602805"></path><path id="kity_path_118" fill="none" stroke="gray"></path></g><path id="node_outline6" fill="none" stroke="none" d="M541.5000141467899,32.50000276602805h183a5,5,0,0,1,5,5v8a5,5,0,0,1,-5,5h-183a5,5,0,0,1,-5,-5v-8a5,5,0,0,1,5,-5z"></path><g id="node_text6" fill="black"><text id="kity_text_67" text-rendering="inherit" font-size="12" dy=".8em" y="33.70000283201428" x="541.5000141467899">逻辑回归（Logistic Regression）</text></g></g><g id="minder_node9" display="none"><g id="node_expander6" style="cursor: pointer;" display="none"><path id="kity_path_120" fill="white" stroke="gray" d="M541.5000140350312,49.50000291503966A6,6,0,1,1,529.5000140350312,49.50000291503966A6,6,0,1,1,541.5000140350312,49.50000291503966"></path><path id="kity_path_121" fill="none" stroke="gray"></path></g><path id="node_outline7" fill="none" stroke="none" d="M541.5000141467899,40.50000291503966h164a5,5,0,0,1,5,5v8a5,5,0,0,1,-5,5h-164a5,5,0,0,1,-5,-5v-8a5,5,0,0,1,5,-5z"></path><g id="node_text7" fill="black"><text id="kity_text_69" text-rendering="inherit" font-size="12" dy=".8em" y="41.70000298102589" x="541.5000141467899">神经网络（Neural Network）</text></g></g><g id="minder_node10" display="none"><g id="node_expander7" style="cursor: pointer;" display="none"><path id="kity_path_123" fill="white" stroke="gray" d="M541.5000140350312,57.50000306405127A6,6,0,1,1,529.5000140350312,57.50000306405127A6,6,0,1,1,541.5000140350312,57.50000306405127"></path><path id="kity_path_124" fill="none" stroke="gray"></path></g><path id="node_outline8" fill="none" stroke="none" d="M541.5000141467899,48.50000306405127h225a5,5,0,0,1,5,5v8a5,5,0,0,1,-5,5h-225a5,5,0,0,1,-5,-5v-8a5,5,0,0,1,5,-5z"></path><g id="node_text8" fill="black"><text id="kity_text_71" text-rendering="inherit" font-size="12" dy=".8em" y="49.7000031300375" x="541.5000141467899">支持向量机（Support Vector Machine）</text></g></g><g id="minder_node11"><g id="node_expander13" style="cursor: pointer;"><path id="kity_path_141" fill="white" stroke="gray" d="M198.50000764615834,125.00000432133675A6,6,0,1,1,186.50000764615834,125.00000432133675A6,6,0,1,1,198.50000764615834,125.00000432133675"></path><path id="kity_path_142" fill="none" stroke="gray" d="M188.00000764615834,125.00000432133675L197.00000764615834,125.00000432133675"></path></g><path id="node_outline14" fill="rgb(238, 243, 246)" stroke="rgb(115, 161, 191)" d="M202.50000814907253,101.50000431202352h187a3,3,0,0,1,3,3v41a3,3,0,0,1,-3,3h-187a3,3,0,0,1,-3,-3v-41a3,3,0,0,1,3,-3z" stroke-width="1"></path><g id="node_text14" fill="black"><text id="kity_text_84" text-rendering="inherit" font-size="14" dy=".8em" y="104.90000430607925" x="219.50000814907253">无监督学习</text><text id="kity_text_85" text-rendering="inherit" font-size="14" dy=".8em" y="125.90000430607925" x="219.50000814907253">Unsupervised Learning</text></g></g><g id="minder_node12"><g id="node_expander11" style="cursor: pointer;"><path id="kity_path_135" fill="white" stroke="gray" d="M408.50001155771315,105.50000395812094A6,6,0,1,1,396.50001155771315,105.50000395812094A6,6,0,1,1,408.50001155771315,105.50000395812094"></path><path id="kity_path_136" fill="none" stroke="gray" d="M398.00001155771315,105.50000395812094L407.00001155771315,105.50000395812094"></path></g><path id="node_outline12" fill="none" stroke="none" d="M413.5000117626041,96.50000395812094h106a5,5,0,0,1,5,5v8a5,5,0,0,1,-5,5h-106a5,5,0,0,1,-5,-5v-8a5,5,0,0,1,5,-5z" stroke-width="3"></path><g id="node_text12" fill="black"><text id="kity_text_80" text-rendering="inherit" font-size="12" dy=".8em" y="97.70000402410717" x="413.5000117626041">聚类（Clustering）</text></g></g><g id="minder_node13"><g id="node_expander10" style="cursor: pointer;" display="none"><path id="kity_path_132" fill="white" stroke="gray" d="M540.5000140164047,92.50000371597707A6,6,0,1,1,528.5000140164047,92.50000371597707A6,6,0,1,1,540.5000140164047,92.50000371597707"></path><path id="kity_path_133" fill="none" stroke="gray"></path></g><path id="node_outline11" fill="none" stroke="none" d="M545.5000142212957,83.50000371597707h112a5,5,0,0,1,5,5v8a5,5,0,0,1,-5,5h-112a5,5,0,0,1,-5,-5v-8a5,5,0,0,1,5,-5z"></path><g id="node_text11" fill="black"><text id="kity_text_78" text-rendering="inherit" font-size="12" dy=".8em" y="84.7000037819633" x="545.5000142212957">K-均值（K-Means）</text></g></g><g id="minder_node14"><g id="node_expander12" style="cursor: pointer;" display="none"><path id="kity_path_138" fill="white" stroke="gray" d="M408.50001155771315,144.50000468455255A6,6,0,1,1,396.50001155771315,144.50000468455255A6,6,0,1,1,408.50001155771315,144.50000468455255"></path><path id="kity_path_139" fill="none" stroke="gray"></path></g><path id="node_outline13" fill="none" stroke="none" d="M413.5000117626041,135.50000468455255h146a5,5,0,0,1,5,5v8a5,5,0,0,1,-5,5h-146a5,5,0,0,1,-5,-5v-8a5,5,0,0,1,5,-5z"></path><g id="node_text13" fill="black"><text id="kity_text_82" text-rendering="inherit" font-size="12" dy=".8em" y="136.70000475053877" x="413.5000117626041">非聚类（Non-clustering）</text></g></g><g id="minder_node15"><g id="node_expander14" style="cursor: pointer;" display="none"><path id="kity_path_144" fill="white" stroke="gray" d="M198.50000764615834,193.00000558793545A6,6,0,1,1,186.50000764615834,193.00000558793545A6,6,0,1,1,198.50000764615834,193.00000558793545"></path><path id="kity_path_145" fill="none" stroke="gray"></path></g><path id="node_outline15" fill="rgb(238, 243, 246)" stroke="rgb(115, 161, 191)" d="M202.50000814907253,169.50000557862222h195a3,3,0,0,1,3,3v41a3,3,0,0,1,-3,3h-195a3,3,0,0,1,-3,-3v-41a3,3,0,0,1,3,-3z" stroke-width="1"></path><g id="node_text15" fill="black"><text id="kity_text_87" text-rendering="inherit" font-size="14" dy=".8em" y="172.90000557267797" x="219.50000814907253">强化学习</text><text id="kity_text_88" text-rendering="inherit" font-size="14" dy=".8em" y="193.90000557267797" x="219.50000814907253">Reinforcement Learning</text></g></g><g id="minder_node16"><g id="node_expander15" style="cursor: pointer;" display="none"><path id="kity_path_152" fill="white" stroke="gray" d="M540.5000140164047,118.50000420026481A6,6,0,1,1,528.5000140164047,118.50000420026481A6,6,0,1,1,540.5000140164047,118.50000420026481"></path><path id="kity_path_153" fill="none" stroke="gray"></path></g><path id="node_outline16" fill="none" stroke="none" d="M545.5000142212957,109.50000420026481h267a5,5,0,0,1,5,5v8a5,5,0,0,1,-5,5h-267a5,5,0,0,1,-5,-5v-8a5,5,0,0,1,5,-5z" stroke-width="3"></path><g id="node_text16" fill="black"><text id="kity_text_149" text-rendering="inherit" font-size="12" dy=".8em" y="110.70000426625104" x="545.5000142212957">主成分分析法（Principal Component Analysis）</text></g></g></g></g></svg>