<svg id="kity_svg_6" xmlns="http://www.w3.org/2000/svg" xmlns:xlink="http://www.w3.org/1999/xlink" version="1.1" width="796" height="288" style="background: rgb(251, 251, 251); visibility: visible;" viewBox="0 0 796 288"><defs id="kity_defs_7"><linearGradient id="kity_linearGradient_17" x1="0" y1="0" x2="0" y2="1"><stop id="kity_stop_18" offset="0" stop-color="rgb(255, 255, 255)"></stop><stop id="kity_stop_19" offset="1" stop-color="rgb(204, 204, 204)"></stop></linearGradient><marker id="kity_marker_2" orient="auto" refX="6" refY="0" viewBox="-7 -7 14 14" markerWidth="7" markerHeight="7" markerUnits="userSpaceOnUse"><path id="kity_path_3" fill="rgb(115, 161, 191)" stroke="none" d="M6,0A6,6,0,1,1,-6,0A6,6,0,1,1,6,0"></path></marker></defs><g id="kity_g_8"><g id="minder1" text-rendering="optimize-speed"><g id="minder_connect_group1"><path id="kity_path_31" fill="none" stroke="rgb(115, 161, 191)" stroke-width="1" d="M101.00000406987965,153.500003548339A96.5,91.5,0,0,1,197.50000406987965,62.00000354833901"></path><path id="kity_path_33" fill="none" stroke="rgb(115, 161, 191)" stroke-width="1" d="M375.50000406987965,62.50000354833901C383.50000406987965,62.00000354833901,383.50000406987965,29.50000354833901,391.50000406987965,29.50000354833901"></path><path id="kity_path_35" fill="none" stroke="none" display="none"></path><path id="kity_path_37" fill="none" stroke="none" display="none"></path><path id="kity_path_39" fill="none" stroke="none" display="none"></path><path id="kity_path_41" fill="none" stroke="rgb(115, 161, 191)" stroke-width="1" d="M375.50000406987965,62.50000354833901C383.50000406987965,62.00000354833901,383.50000406987965,94.50000354833901,391.50000406987965,94.50000354833901"></path><path id="kity_path_43" fill="none" stroke="rgb(115, 161, 191)" stroke-width="1" d="M525.5000040698797,94.50000354833901C533.5000040698797,94.50000354833901,533.5000040698797,55.50000354833901,541.5000040698797,55.50000354833901"></path><path id="kity_path_45" fill="none" stroke="rgb(115, 161, 191)" stroke-width="1" d="M525.5000040698797,94.50000354833901C533.5000040698797,94.50000354833901,533.5000040698797,81.50000354833901,541.5000040698797,81.50000354833901"></path><path id="kity_path_47" fill="none" stroke="rgb(115, 161, 191)" stroke-width="1" d="M525.5000040698797,94.50000354833901C533.5000040698797,94.50000354833901,533.5000040698797,107.50000354833901,541.5000040698797,107.50000354833901"></path><path id="kity_path_49" fill="none" stroke="rgb(115, 161, 191)" stroke-width="1" d="M101.00000406987965,153.500003548339A96.5,28.5,0,0,0,197.50000406987965,182.000003548339"></path><path id="kity_path_51" fill="none" stroke="rgb(115, 161, 191)" stroke-width="1" d="M392.50000406987965,182.500003548339C400.50000406987965,182.000003548339,400.50000406987965,169.500003548339,408.50000406987965,169.500003548339"></path><path id="kity_path_53" fill="none" stroke="rgb(115, 161, 191)" stroke-width="1" d="M524.5000040698797,169.500003548339C532.5000040698797,169.500003548339,532.5000040698797,169.500003548339,540.5000040698797,169.500003548339" display="none"></path><path id="kity_path_57" fill="none" stroke="rgb(115, 161, 191)" stroke-width="1" d="M392.50000406987965,182.500003548339C400.50000406987965,182.000003548339,400.50000406987965,195.500003548339,408.50000406987965,195.500003548339"></path><path id="kity_path_59" fill="none" stroke="rgb(115, 161, 191)" stroke-width="1" d="M101.00000406987965,153.500003548339A96.5,91.5,0,0,0,197.50000406987965,245.000003548339"></path><path id="kity_path_155" fill="none" stroke="rgb(115, 161, 191)" stroke-width="1" d="M525.5000040698797,94.50000354833901C533.5000040698797,94.50000354833901,533.5000040698797,133.500003548339,541.5000040698797,133.500003548339"></path><path id="kity_path_165" fill="none" stroke="rgb(115, 161, 191)" stroke-width="1" d="M613.5000040698797,195.500003548339C621.5000040698797,195.500003548339,621.5000040698797,195.500003548339,629.5000040698797,195.500003548339" display="none"></path></g><g id="minder_node1"><path id="node_outline1" fill="rgb(115, 161, 191)" stroke="rgb(115, 161, 191)" d="M25.50000406987965,127.50000354833901h151a5,5,0,0,1,5,5v42a5,5,0,0,1,-5,5h-151a5,5,0,0,1,-5,-5v-42a5,5,0,0,1,5,-5z" stroke-width="3"></path><g id="node_text1" fill="white"><text id="kity_text_22" text-rendering="inherit" font-size="16" dy=".8em" y="131.10000347046423" x="32.50000406987965">机器学习</text><text id="kity_text_93" text-rendering="inherit" font-size="16" dy=".8em" y="155.10000347046423" x="32.50000406987965">Machine Learning</text></g></g><g id="kity_g_12"><path id="kity_path_13" fill="none" stroke="none" d="M32.50000406987965,153.500003548339h0v0h0z"></path></g><g id="kity_g_14"><path id="kity_path_15" fill="none" stroke="none" d="M32.50000406987965,153.500003548339h0v0h0z"></path><path id="kity_path_16" fill="none" stroke="none"></path></g><g id="minder_node2"><g id="node_expander9" style="cursor: pointer;"><path id="kity_path_134" fill="white" stroke="gray" d="M198.5000070501119,62.0000018440187A6,6,0,1,1,186.5000070501119,62.0000018440187A6,6,0,1,1,198.5000070501119,62.0000018440187"></path><path id="kity_path_135" fill="none" stroke="gray" d="M188.0000070501119,62.0000018440187L197.0000070501119,62.0000018440187"></path></g><path id="node_outline10" fill="rgb(238, 243, 246)" stroke="rgb(115, 161, 191)" d="M202.50000755302608,38.50000183470547h170a3,3,0,0,1,3,3v41a3,3,0,0,1,-3,3h-170a3,3,0,0,1,-3,-3v-41a3,3,0,0,1,3,-3z" stroke-width="1"></path><g id="node_text10" fill="black"><text id="kity_text_77" text-rendering="inherit" font-size="14" dy=".8em" y="41.900001828761205" x="219.50000755302608">监督学习</text><text id="kity_text_78" text-rendering="inherit" font-size="14" dy=".8em" y="62.900001828761205" x="219.50000755302608">Supervised Learning</text></g></g><g id="minder_node3"><g id="node_expander4" style="cursor: pointer;"><path id="kity_path_119" fill="white" stroke="gray" d="M391.500010645017,29.500001238659024A6,6,0,1,1,379.500010645017,29.500001238659024A6,6,0,1,1,391.500010645017,29.500001238659024"></path><path id="kity_path_120" fill="none" stroke="gray" d="M381.000010645017,29.500001238659024L390.000010645017,29.500001238659024M385.500010645017,25.000001238659024L385.500010645017,34.000001238659024"></path></g><path id="node_outline5" fill="none" stroke="none" d="M396.500010849908,20.500001238659024h111a5,5,0,0,1,5,5v8a5,5,0,0,1,-5,5h-111a5,5,0,0,1,-5,-5v-8a5,5,0,0,1,5,-5z"></path><g id="node_text5" fill="black"><text id="kity_text_67" text-rendering="inherit" font-size="12" dy=".8em" y="21.700001304645255" x="396.500010849908">回归（Regression）</text></g></g><g id="minder_node4" display="none"><g id="node_expander1" style="cursor: pointer;" display="none"><path id="kity_path_110" fill="white" stroke="gray" d="M528.5000131968409,13.5000009406358A6,6,0,1,1,516.5000131968409,13.5000009406358A6,6,0,1,1,528.5000131968409,13.5000009406358"></path><path id="kity_path_111" fill="none" stroke="gray"></path></g><path id="node_outline2" fill="none" stroke="none" d="M528.5000133085996,4.5000009406358h152a5,5,0,0,1,5,5v8a5,5,0,0,1,-5,5h-152a5,5,0,0,1,-5,-5v-8a5,5,0,0,1,5,-5z"></path><g id="node_text2" fill="black"><text id="kity_text_61" text-rendering="inherit" font-size="12" dy=".8em" y="5.700001006622031" x="528.5000133085996">代价函数（Cost Function）</text></g></g><g id="minder_node5" display="none"><g id="node_expander2" style="cursor: pointer;" display="none"><path id="kity_path_113" fill="white" stroke="gray" d="M528.5000131968409,21.500001089647412A6,6,0,1,1,516.5000131968409,21.500001089647412A6,6,0,1,1,528.5000131968409,21.500001089647412"></path><path id="kity_path_114" fill="none" stroke="gray"></path></g><path id="node_outline3" fill="none" stroke="none" d="M528.5000133085996,12.500001089647412h184a5,5,0,0,1,5,5v8a5,5,0,0,1,-5,5h-184a5,5,0,0,1,-5,-5v-8a5,5,0,0,1,5,-5z"></path><g id="node_text3" fill="black"><text id="kity_text_63" text-rendering="inherit" font-size="12" dy=".8em" y="13.700001155633643" x="528.5000133085996">梯度下降法（Gradient Descent）</text></g></g><g id="minder_node6" display="none"><g id="node_expander3" style="cursor: pointer;" display="none"><path id="kity_path_116" fill="white" stroke="gray" d="M528.5000131968409,29.500001238659024A6,6,0,1,1,516.5000131968409,29.500001238659024A6,6,0,1,1,528.5000131968409,29.500001238659024"></path><path id="kity_path_117" fill="none" stroke="gray"></path></g><path id="node_outline4" fill="none" stroke="none" d="M528.5000133085996,20.500001238659024h182a5,5,0,0,1,5,5v8a5,5,0,0,1,-5,5h-182a5,5,0,0,1,-5,-5v-8a5,5,0,0,1,5,-5z"></path><g id="node_text4" fill="black"><text id="kity_text_65" text-rendering="inherit" font-size="12" dy=".8em" y="21.700001304645255" x="528.5000133085996">正规方程法（Normal Equation）</text></g></g><g id="minder_node7"><g id="node_expander8" style="cursor: pointer;"><path id="kity_path_131" fill="white" stroke="gray" d="M391.500010645017,94.50000244937837A6,6,0,1,1,379.500010645017,94.50000244937837A6,6,0,1,1,391.500010645017,94.50000244937837"></path><path id="kity_path_132" fill="none" stroke="gray" d="M381.000010645017,94.50000244937837L390.000010645017,94.50000244937837"></path></g><path id="node_outline9" fill="none" stroke="none" d="M396.500010849908,85.50000244937837h124a5,5,0,0,1,5,5v8a5,5,0,0,1,-5,5h-124a5,5,0,0,1,-5,-5v-8a5,5,0,0,1,5,-5z" stroke-width="3"></path><g id="node_text9" fill="black"><text id="kity_text_75" text-rendering="inherit" font-size="12" dy=".8em" y="86.7000025153646" x="396.500010849908">分类（Classification）</text></g></g><g id="minder_node8"><g id="node_expander5" style="cursor: pointer;" display="none"><path id="kity_path_122" fill="white" stroke="gray" d="M541.5000134389848,55.50000172294676A6,6,0,1,1,529.5000134389848,55.50000172294676A6,6,0,1,1,541.5000134389848,55.50000172294676"></path><path id="kity_path_123" fill="none" stroke="gray"></path></g><path id="node_outline6" fill="none" stroke="none" d="M546.5000136438757,46.50000172294676h183a5,5,0,0,1,5,5v8a5,5,0,0,1,-5,5h-183a5,5,0,0,1,-5,-5v-8a5,5,0,0,1,5,-5z"></path><g id="node_text6" fill="black"><text id="kity_text_69" text-rendering="inherit" font-size="12" dy=".8em" y="47.700001788932994" x="546.5000136438757">逻辑回归（Logistic Regression）</text></g></g><g id="minder_node9"><g id="node_expander6" style="cursor: pointer;" display="none"><path id="kity_path_125" fill="white" stroke="gray" d="M541.5000134389848,81.5000022072345A6,6,0,1,1,529.5000134389848,81.5000022072345A6,6,0,1,1,541.5000134389848,81.5000022072345"></path><path id="kity_path_126" fill="none" stroke="gray"></path></g><path id="node_outline7" fill="none" stroke="none" d="M546.5000136438757,72.5000022072345h164a5,5,0,0,1,5,5v8a5,5,0,0,1,-5,5h-164a5,5,0,0,1,-5,-5v-8a5,5,0,0,1,5,-5z"></path><g id="node_text7" fill="black"><text id="kity_text_71" text-rendering="inherit" font-size="12" dy=".8em" y="73.70000227322073" x="546.5000136438757">神经网络（Neural Network）</text></g></g><g id="minder_node10"><g id="node_expander7" style="cursor: pointer;" display="none"><path id="kity_path_128" fill="white" stroke="gray" d="M541.5000134389848,107.50000269152224A6,6,0,1,1,529.5000134389848,107.50000269152224A6,6,0,1,1,541.5000134389848,107.50000269152224"></path><path id="kity_path_129" fill="none" stroke="gray"></path></g><path id="node_outline8" fill="none" stroke="none" d="M546.5000136438757,98.50000269152224h225a5,5,0,0,1,5,5v8a5,5,0,0,1,-5,5h-225a5,5,0,0,1,-5,-5v-8a5,5,0,0,1,5,-5z"></path><g id="node_text8" fill="black"><text id="kity_text_73" text-rendering="inherit" font-size="12" dy=".8em" y="99.70000275750847" x="546.5000136438757">支持向量机（Support Vector Machine）</text></g></g><g id="minder_node11"><g id="node_expander14" style="cursor: pointer;"><path id="kity_path_149" fill="white" stroke="gray" d="M198.5000070501119,182.00000407919288A6,6,0,1,1,186.5000070501119,182.00000407919288A6,6,0,1,1,198.5000070501119,182.00000407919288"></path><path id="kity_path_150" fill="none" stroke="gray" d="M188.0000070501119,182.00000407919288L197.0000070501119,182.00000407919288"></path></g><path id="node_outline15" fill="rgb(238, 243, 246)" stroke="rgb(115, 161, 191)" d="M202.50000755302608,158.50000406987965h187a3,3,0,0,1,3,3v41a3,3,0,0,1,-3,3h-187a3,3,0,0,1,-3,-3v-41a3,3,0,0,1,3,-3z" stroke-width="1"></path><g id="node_text15" fill="black"><text id="kity_text_88" text-rendering="inherit" font-size="14" dy=".8em" y="161.9000040639354" x="219.50000755302608">无监督学习</text><text id="kity_text_89" text-rendering="inherit" font-size="14" dy=".8em" y="182.9000040639354" x="219.50000755302608">Unsupervised Learning</text></g></g><g id="minder_node12"><g id="node_expander12" style="cursor: pointer;"><path id="kity_path_143" fill="white" stroke="gray" d="M408.5000109616667,169.50000384636223A6,6,0,1,1,396.5000109616667,169.50000384636223A6,6,0,1,1,408.5000109616667,169.50000384636223"></path><path id="kity_path_144" fill="none" stroke="gray" d="M398.0000109616667,169.50000384636223L407.0000109616667,169.50000384636223M402.5000109616667,165.00000384636223L402.5000109616667,174.00000384636223"></path></g><path id="node_outline13" fill="none" stroke="none" d="M413.50001116655767,160.50000384636223h106a5,5,0,0,1,5,5v8a5,5,0,0,1,-5,5h-106a5,5,0,0,1,-5,-5v-8a5,5,0,0,1,5,-5z" stroke-width="3"></path><g id="node_text13" fill="black"><text id="kity_text_84" text-rendering="inherit" font-size="12" dy=".8em" y="161.70000391234845" x="413.50001116655767">聚类（Clustering）</text></g></g><g id="minder_node13" display="none"><g id="node_expander10" style="cursor: pointer;" display="none"><path id="kity_path_137" fill="white" stroke="gray" d="M540.5000134203583,169.50000384636223A6,6,0,1,1,528.5000134203583,169.50000384636223A6,6,0,1,1,540.5000134203583,169.50000384636223"></path><path id="kity_path_138" fill="none" stroke="gray"></path></g><path id="node_outline11" fill="none" stroke="none" d="M540.500013532117,160.50000384636223h112a5,5,0,0,1,5,5v8a5,5,0,0,1,-5,5h-112a5,5,0,0,1,-5,-5v-8a5,5,0,0,1,5,-5z" stroke-width="3"></path><g id="node_text11" fill="black"><text id="kity_text_80" text-rendering="inherit" font-size="12" dy=".8em" y="161.70000391234845" x="540.500013532117">K-均值（K-Means）</text></g></g><g id="minder_node15"><g id="node_expander13" style="cursor: pointer;"><path id="kity_path_146" fill="white" stroke="gray" d="M408.5000109616667,195.50000433064997A6,6,0,1,1,396.5000109616667,195.50000433064997A6,6,0,1,1,408.5000109616667,195.50000433064997"></path><path id="kity_path_147" fill="none" stroke="gray" d="M398.0000109616667,195.50000433064997L407.0000109616667,195.50000433064997M402.5000109616667,191.00000433064997L402.5000109616667,200.00000433064997"></path></g><path id="node_outline14" fill="none" stroke="none" d="M413.50001116655767,186.50000433064997h195a5,5,0,0,1,5,5v8a5,5,0,0,1,-5,5h-195a5,5,0,0,1,-5,-5v-8a5,5,0,0,1,5,-5z" stroke-width="3"></path><g id="node_text14" fill="black"><text id="kity_text_86" text-rendering="inherit" font-size="12" dy=".8em" y="187.7000043966362" x="413.50001116655767">降维（Dimensionality Reduction）</text></g></g><g id="minder_node16"><g id="node_expander15" style="cursor: pointer;" display="none"><path id="kity_path_152" fill="white" stroke="gray" d="M198.5000070501119,245.00000525265932A6,6,0,1,1,186.5000070501119,245.00000525265932A6,6,0,1,1,198.5000070501119,245.00000525265932"></path><path id="kity_path_153" fill="none" stroke="gray"></path></g><path id="node_outline16" fill="rgb(238, 243, 246)" stroke="rgb(115, 161, 191)" d="M202.50000755302608,221.5000052433461h195a3,3,0,0,1,3,3v41a3,3,0,0,1,-3,3h-195a3,3,0,0,1,-3,-3v-41a3,3,0,0,1,3,-3z" stroke-width="1"></path><g id="node_text16" fill="black"><text id="kity_text_91" text-rendering="inherit" font-size="14" dy=".8em" y="224.90000523740184" x="219.50000755302608">强化学习</text><text id="kity_text_92" text-rendering="inherit" font-size="14" dy=".8em" y="245.90000523740184" x="219.50000755302608">Reinforcement Learning</text></g></g><g id="minder_node17"><g id="node_expander16" style="cursor: pointer;" display="none"><path id="kity_path_160" fill="white" stroke="gray" d="M541.5000134389848,133.50000317580998A6,6,0,1,1,529.5000134389848,133.50000317580998A6,6,0,1,1,541.5000134389848,133.50000317580998"></path><path id="kity_path_161" fill="none" stroke="gray"></path></g><path id="node_outline17" fill="none" stroke="none" d="M546.5000136438757,124.50000317580998h176a5,5,0,0,1,5,5v8a5,5,0,0,1,-5,5h-176a5,5,0,0,1,-5,-5v-8a5,5,0,0,1,5,-5z" stroke-width="3"></path><g id="node_text17" fill="black"><text id="kity_text_157" text-rendering="inherit" font-size="12" dy=".8em" y="125.7000032417962" x="546.5000136438757">K-近邻（K-Nearest Neighbor）</text></g></g><g id="minder_node18" display="none"><g id="node_expander17" style="cursor: pointer;" display="none"><path id="kity_path_170" fill="white" stroke="gray" d="M629.5000150781125,195.50000433064997A6,6,0,1,1,617.5000150781125,195.50000433064997A6,6,0,1,1,629.5000150781125,195.50000433064997"></path><path id="kity_path_171" fill="none" stroke="gray"></path></g><path id="node_outline18" fill="none" stroke="none" d="M629.5000151898712,186.50000433064997h267a5,5,0,0,1,5,5v8a5,5,0,0,1,-5,5h-267a5,5,0,0,1,-5,-5v-8a5,5,0,0,1,5,-5z" stroke-width="3"></path><g id="node_text18" fill="black"><text id="kity_text_167" text-rendering="inherit" font-size="12" dy=".8em" y="187.7000043966362" x="629.5000151898712">主成分分析法（Principal Component Analysis）</text></g></g></g></g></svg>