<svg width="945" height="480" xmlns="http://www.w3.org/2000/svg" xmlns:xlink="http://www.w3.org/1999/xlink" overflow="hidden"><defs><clipPath id="clip0"><rect x="166" y="101" width="945" height="480"/></clipPath></defs><g clip-path="url(#clip0)" transform="translate(-166 -101)"><path d="M168.5 126C168.5 113.021 179.021 102.5 192 102.5 204.979 102.5 215.5 113.021 215.5 126 215.5 138.979 204.979 149.5 192 149.5 179.021 149.5 168.5 138.979 168.5 126Z" stroke="#2F528F" stroke-width="1.33333" stroke-miterlimit="8" fill="#4472C4" fill-rule="evenodd"/><path d="M407.5 126C407.5 113.021 418.245 102.5 431.5 102.5 444.755 102.5 455.5 113.021 455.5 126 455.5 138.979 444.755 149.5 431.5 149.5 418.245 149.5 407.5 138.979 407.5 126Z" stroke="#2F528F" stroke-width="1.33333" stroke-miterlimit="8" fill="#4472C4" fill-rule="evenodd"/><path d="M281.5 274C281.5 261.021 292.021 250.5 305 250.5 317.979 250.5 328.5 261.021 328.5 274 328.5 286.979 317.979 297.5 305 297.5 292.021 297.5 281.5 286.979 281.5 274Z" stroke="#2F528F" stroke-width="1.33333" stroke-miterlimit="8" fill="#4472C4" fill-rule="evenodd"/><path d="M516.5 274C516.5 261.021 527.021 250.5 540 250.5 552.979 250.5 563.5 261.021 563.5 274 563.5 286.979 552.979 297.5 540 297.5 527.021 297.5 516.5 286.979 516.5 274Z" stroke="#2F528F" stroke-width="1.33333" stroke-miterlimit="8" fill="#4472C4" fill-rule="evenodd"/><path d="M407.5 422C407.5 409.021 418.245 398.5 431.5 398.5 444.755 398.5 455.5 409.021 455.5 422 455.5 434.979 444.755 445.5 431.5 445.5 418.245 445.5 407.5 434.979 407.5 422Z" stroke="#2F528F" stroke-width="1.33333" stroke-miterlimit="8" fill="#4472C4" fill-rule="evenodd"/><path d="M215.5 125 400.621 125 400.621 128 215.5 128ZM399.121 122 408.121 126.5 399.121 131Z" fill="#4472C4"/><path d="M209.731 141.643 285.097 249.933 282.634 251.647 207.269 143.357ZM286.702 246.988 288.15 256.946 279.315 252.13Z" fill="#4472C4"/><path d="M449.753 141.676 520.931 249.856 518.425 251.505 447.247 143.325ZM522.613 246.954 523.801 256.946 515.094 251.901Z" fill="#4472C4"/><path d="M322.662 289.551 411.393 398.189 409.069 400.086 320.338 291.449ZM412.767 395.129 414.975 404.946 405.797 400.822Z" fill="#4472C4"/><path d="M433 149.5 433 390.388 430 390.388 430 149.5ZM436 388.888 431.5 397.888 427 388.888Z" fill="#4472C4"/><path d="M713.5 126C713.5 113.021 724.021 102.5 737 102.5 749.979 102.5 760.5 113.021 760.5 126 760.5 138.979 749.979 149.5 737 149.5 724.021 149.5 713.5 138.979 713.5 126Z" stroke="#2F528F" stroke-width="1.33333" stroke-miterlimit="8" fill="#4472C4" fill-rule="evenodd"/><path d="M953.5 126C953.5 113.021 964.021 102.5 977 102.5 989.979 102.5 1000.5 113.021 1000.5 126 1000.5 138.979 989.979 149.5 977 149.5 964.021 149.5 953.5 138.979 953.5 126Z" stroke="#2F528F" stroke-width="1.33333" stroke-miterlimit="8" fill="#4472C4" fill-rule="evenodd"/><path d="M826.5 274C826.5 261.021 837.021 250.5 850 250.5 862.979 250.5 873.5 261.021 873.5 274 873.5 286.979 862.979 297.5 850 297.5 837.021 297.5 826.5 286.979 826.5 274Z" stroke="#2F528F" stroke-width="1.33333" stroke-miterlimit="8" fill="#4472C4" fill-rule="evenodd"/><path d="M1062.5 274C1062.5 261.021 1073.02 250.5 1086 250.5 1098.98 250.5 1109.5 261.021 1109.5 274 1109.5 286.979 1098.98 297.5 1086 297.5 1073.02 297.5 1062.5 286.979 1062.5 274Z" stroke="#2F528F" stroke-width="1.33333" stroke-miterlimit="8" fill="#4472C4" fill-rule="evenodd"/><path d="M953.5 422C953.5 409.021 964.021 398.5 977 398.5 989.979 398.5 1000.5 409.021 1000.5 422 1000.5 434.979 989.979 445.5 977 445.5 964.021 445.5 953.5 434.979 953.5 422Z" stroke="#2F528F" stroke-width="1.33333" stroke-miterlimit="8" fill="#4472C4" fill-rule="evenodd"/><path d="M0 0 192.621 0.000104987" stroke="#4472C4" stroke-width="3" stroke-miterlimit="8" fill="none" fill-rule="evenodd" transform="matrix(-1 0 0 1 953.121 126.5)"/><path d="M833.791 257.053 737.5 149.5" stroke="#4472C4" stroke-width="3" stroke-miterlimit="8" fill="none" fill-rule="evenodd"/><path d="M0 0 188.272 0.000104987" stroke="#4472C4" stroke-width="3" stroke-miterlimit="8" fill="none" fill-rule="evenodd" transform="matrix(-1 0 0 1 1061.77 273.5)"/><path d="M1085.44 250.053 993.5 142.5" stroke="#4472C4" stroke-width="3" stroke-miterlimit="8" fill="none" fill-rule="evenodd"/><path d="M959.975 404.946 866.5 290.5" stroke="#4472C4" stroke-width="3" stroke-miterlimit="8" fill="none" fill-rule="evenodd"/><path d="M0 0 93.4752 114.446" stroke="#4472C4" stroke-width="3" stroke-miterlimit="8" fill="none" fill-rule="evenodd" transform="matrix(-1 0 0 1 959.975 142.5)"/><path d="M753.5 142.5 1068.49 256.946" stroke="#4472C4" stroke-width="3" stroke-miterlimit="8" fill="none" fill-rule="evenodd"/><text font-family="Source Han Serif CN,Source Han Serif CN_MSFontService,sans-serif" font-weight="700" font-size="24" transform="translate(299.925 531)">цЬЙхРСцЧачОпхЫ╛<tspan x="-42.1067" y="29">ш┤ЭхП╢</tspan>цЦпч╜Сч╗Ья╝ИBN<tspan x="138.107" y="29">я╝Й</tspan><tspan x="600.169" y="0">цЧахРСхЫ╛</tspan><tspan x="518.415" y="29">щймх░ФхПпхдлч╜Сч╗Ья╝И</tspan>MN<tspan x="729.915" y="29">я╝Й</tspan><tspan fill="#FFFFFF" font-family="Cambria Math,Cambria Math_MSFontService,sans-serif" font-weight="400" x="-120.236" y="-401">ЁЭСе</tspan><tspan fill="#FFFFFF" font-family="Cambria Math,Cambria Math_MSFontService,sans-serif" font-weight="400" font-size="18" x="-108.189" y="-396">1</tspan><tspan fill="#FFFFFF" font-family="Cambria Math,Cambria Math_MSFontService,sans-serif" font-weight="400" x="119.427" y="-401">ЁЭСе</tspan><tspan fill="#FFFFFF" font-family="Cambria Math,Cambria Math_MSFontService,sans-serif" font-weight="400" font-size="18" x="132.027" y="-396">2</tspan><tspan fill="#FFFFFF" font-family="Cambria Math,Cambria Math_MSFontService,sans-serif" font-weight="400" x="-4.73596" y="-253">ЁЭСе</tspan><tspan fill="#FFFFFF" font-family="Cambria Math,Cambria Math_MSFontService,sans-serif" font-weight="400" font-size="18" x="7.86404" y="-248">3</tspan><tspan fill="#FFFFFF" font-family="Cambria Math,Cambria Math_MSFontService,sans-serif" font-weight="400" x="426.467" y="-401">ЁЭСе</tspan><tspan fill="#FFFFFF" font-family="Cambria Math,Cambria Math_MSFontService,sans-serif" font-weight="400" font-size="18" x="438.514" y="-396">1</tspan><tspan fill="#FFFFFF" font-family="Cambria Math,Cambria Math_MSFontService,sans-serif" font-weight="400" x="537.935" y="-253">ЁЭСе</tspan><tspan fill="#FFFFFF" font-family="Cambria Math,Cambria Math_MSFontService,sans-serif" font-weight="400" font-size="18" x="550.535" y="-248">3</tspan><tspan fill="#FFFFFF" font-family="Cambria Math,Cambria Math_MSFontService,sans-serif" font-weight="400" x="666.13" y="-401">ЁЭСе</tspan><tspan fill="#FFFFFF" font-family="Cambria Math,Cambria Math_MSFontService,sans-serif" font-weight="400" font-size="18" x="678.73" y="-396">2</tspan><tspan fill="#FFFFFF" font-family="Cambria Math,Cambria Math_MSFontService,sans-serif" font-weight="400" x="120.05" y="-104">ЁЭСе</tspan><tspan fill="#FFFFFF" font-family="Cambria Math,Cambria Math_MSFontService,sans-serif" font-weight="400" font-size="18" x="132.65" y="-100">5</tspan><tspan fill="#FFFFFF" font-family="Cambria Math,Cambria Math_MSFontService,sans-serif" font-weight="400" x="666.44" y="-104">ЁЭСе</tspan><tspan fill="#FFFFFF" font-family="Cambria Math,Cambria Math_MSFontService,sans-serif" font-weight="400" font-size="18" x="679.04" y="-100">5</tspan><tspan fill="#FFFFFF" font-family="Cambria Math,Cambria Math_MSFontService,sans-serif" font-weight="400" x="231.003" y="-253">ЁЭСе</tspan><tspan fill="#FFFFFF" font-family="Cambria Math,Cambria Math_MSFontService,sans-serif" font-weight="400" font-size="18" x="243.603" y="-248">4</tspan><tspan fill="#FFFFFF" font-family="Cambria Math,Cambria Math_MSFontService,sans-serif" font-weight="400" x="772.976" y="-254">ЁЭСе</tspan><tspan fill="#FFFFFF" font-family="Cambria Math,Cambria Math_MSFontService,sans-serif" font-weight="400" font-size="18" x="785.576" y="-250">4</tspan></text></g></svg>