<svg id="kity_svg_6" xmlns="http://www.w3.org/2000/svg" xmlns:xlink="http://www.w3.org/1999/xlink" version="1.1" width="963" height="232" style="background: rgb(251, 251, 251); visibility: visible;" viewBox="0 0 963 232"><defs id="kity_defs_7"><linearGradient id="kity_linearGradient_17" x1="0" y1="0" x2="0" y2="1"><stop id="kity_stop_18" offset="0" stop-color="rgb(255, 255, 255)"></stop><stop id="kity_stop_19" offset="1" stop-color="rgb(204, 204, 204)"></stop></linearGradient><marker id="kity_marker_2" orient="auto" refX="6" refY="0" viewBox="-7 -7 14 14" markerWidth="7" markerHeight="7" markerUnits="userSpaceOnUse"><path id="kity_path_3" fill="rgb(115, 161, 191)" stroke="none" d="M6,0A6,6,0,1,1,-6,0A6,6,0,1,1,6,0"></path></marker></defs><g id="kity_g_8"><g id="minder1" text-rendering="optimize-speed"><g id="minder_connect_group1"><path id="kity_path_82" fill="none" stroke="rgb(115, 161, 191)" stroke-width="1" d="M127.99999399452878,91.5000052338315A224.5,58,0,0,1,352.4999939945288,33.5000052338315"></path><path id="kity_path_84" fill="none" stroke="rgb(115, 161, 191)" stroke-width="1" d="M636.4999939945287,33.5000052338315C656.4999939945287,33.5000052338315,656.4999939945287,33.5000052338315,676.4999939945287,33.5000052338315"></path><path id="kity_path_98" fill="none" stroke="rgb(115, 161, 191)" stroke-width="1" d="M127.99999399452878,91.5000052338315A224.5,58,0,0,0,352.4999939945288,149.5000052338315"></path><path id="kity_path_106" fill="none" stroke="rgb(115, 161, 191)" stroke-width="1" d="M609.4999939945287,149.5000052338315C629.4999939945287,149.5000052338315,629.4999939945287,97.5000052338315,649.4999939945287,97.5000052338315"></path><path id="kity_path_114" fill="none" stroke="rgb(115, 161, 191)" stroke-width="1" d="M609.4999939945287,149.5000052338315C629.4999939945287,149.5000052338315,629.4999939945287,149.5000052338315,649.4999939945287,149.5000052338315"></path><path id="kity_path_122" fill="none" stroke="rgb(115, 161, 191)" stroke-width="1" d="M609.4999939945287,149.5000052338315C629.4999939945287,149.5000052338315,629.4999939945287,201.5000052338315,649.4999939945287,201.5000052338315"></path></g><g id="minder_node1"><path id="node_outline1" fill="rgb(115, 161, 191)" stroke="rgb(115, 161, 191)" d="M26.49999399452878,59.5000052338315h203a5,5,0,0,1,5,5v54a5,5,0,0,1,-5,5h-203a5,5,0,0,1,-5,-5v-54a5,5,0,0,1,5,-5z" stroke-width="3"></path><g id="node_text1" fill="white"><text id="kity_text_22" text-rendering="inherit" font-size="16" dy=".8em" y="69.10000520318007" x="45.49999399452878">最优化方法</text><text id="kity_text_30" text-rendering="inherit" font-size="16" dy=".8em" y="93.10000520318007" x="45.49999399452878">Optimization Method</text></g></g><g id="kity_g_12" display="none"><path id="kity_path_13" fill="none" stroke="none" d="M45.49999399452878,91.5000052338315h0v0h0z"></path></g><g id="kity_g_14" display="none"><path id="kity_path_15" fill="none" stroke="none" d="M45.49999399452878,91.5000052338315h0v0h0z"></path><path id="kity_path_16" fill="none" stroke="none"></path></g><g id="minder_node7"><g id="node_expander7" style="cursor: pointer;"><path id="kity_path_95" fill="white" stroke="gray" d="M353.4999880568186,33.50000651476669A6,6,0,1,1,341.4999880568186,33.50000651476669A6,6,0,1,1,353.4999880568186,33.50000651476669"></path><path id="kity_path_96" fill="none" stroke="gray" d="M342.9999880568186,33.50000651476669L351.9999880568186,33.50000651476669"></path></g><path id="node_outline8" fill="rgb(238, 243, 246)" stroke="rgb(115, 161, 191)" d="M357.49998672853434,20.50000651476669h276a3,3,0,0,1,3,3v20a3,3,0,0,1,-3,3h-276a3,3,0,0,1,-3,-3v-20a3,3,0,0,1,3,-3z" stroke-width="1"></path><g id="node_text8" fill="black"><text id="kity_text_88" text-rendering="inherit" font-size="14" dy=".8em" y="24.400006697085793" x="374.49998672853434">最小二乘法（Least Square Method）</text></g></g><g id="minder_node8"><g id="node_expander6" style="cursor: pointer;" display="none"><path id="kity_path_92" fill="white" stroke="gray" d="M676.499980191348,33.50000651476669A6,6,0,1,1,664.499980191348,33.50000651476669A6,6,0,1,1,676.499980191348,33.50000651476669"></path><path id="kity_path_93" fill="none" stroke="gray"></path></g><path id="node_outline7" fill="none" stroke="none" d="M681.4999798379865,22.50000651476669h179a5,5,0,0,1,5,5v12a5,5,0,0,1,-5,5h-179a5,5,0,0,1,-5,-5v-12a5,5,0,0,1,5,-5z" stroke-width="3"></path><g id="node_text7" fill="black"><text id="kity_text_86" text-rendering="inherit" font-size="12" dy=".8em" y="25.70000670091722" x="686.4999798379865">正规方程（Normal Function）</text></g></g><g id="minder_node9"><g id="node_expander8" style="cursor: pointer;"><path id="kity_path_103" fill="white" stroke="gray" d="M353.4999880568186,149.50000395289632A6,6,0,1,1,341.4999880568186,149.50000395289632A6,6,0,1,1,353.4999880568186,149.50000395289632"></path><path id="kity_path_104" fill="none" stroke="gray" d="M342.9999880568186,149.50000395289632L351.9999880568186,149.50000395289632"></path></g><path id="node_outline9" fill="rgb(238, 243, 246)" stroke="rgb(115, 161, 191)" d="M357.49998672853434,136.50000395289632h249a3,3,0,0,1,3,3v20a3,3,0,0,1,-3,3h-249a3,3,0,0,1,-3,-3v-20a3,3,0,0,1,3,-3z" stroke-width="1"></path><g id="node_text9" fill="black"><text id="kity_text_100" text-rendering="inherit" font-size="14" dy=".8em" y="140.40000413521543" x="374.49998672853434">梯度下降法（Gradient Descent）</text></g></g><g id="minder_node10"><g id="node_expander9" style="cursor: pointer;" display="none"><path id="kity_path_111" fill="white" stroke="gray" d="M649.4999807876454,97.50000510132097A6,6,0,1,1,637.4999807876454,97.50000510132097A6,6,0,1,1,649.4999807876454,97.50000510132097"></path><path id="kity_path_112" fill="none" stroke="gray"></path></g><path id="node_outline10" fill="none" stroke="none" d="M654.499980434284,86.50000510132097h242a5,5,0,0,1,5,5v12a5,5,0,0,1,-5,5h-242a5,5,0,0,1,-5,-5v-12a5,5,0,0,1,5,-5z" stroke-width="3"></path><g id="node_text10" fill="black"><text id="kity_text_108" text-rendering="inherit" font-size="12" dy=".8em" y="89.7000052874715" x="659.499980434284">批量梯度下降（Batch Gradient Descent）</text></g></g><g id="minder_node11"><g id="node_expander10" style="cursor: pointer;" display="none"><path id="kity_path_119" fill="white" stroke="gray" d="M649.4999807876454,149.50000395289632A6,6,0,1,1,637.4999807876454,149.50000395289632A6,6,0,1,1,649.4999807876454,149.50000395289632"></path><path id="kity_path_120" fill="none" stroke="gray"></path></g><path id="node_outline11" fill="none" stroke="none" d="M654.499980434284,138.50000395289632h267a5,5,0,0,1,5,5v12a5,5,0,0,1,-5,5h-267a5,5,0,0,1,-5,-5v-12a5,5,0,0,1,5,-5z" stroke-width="3"></path><g id="node_text11" fill="black"><text id="kity_text_116" text-rendering="inherit" font-size="12" dy=".8em" y="141.70000413904685" x="659.499980434284">随机梯度下降（Stochastic Gradient Descent）</text></g></g><g id="minder_node12"><g id="node_expander11" style="cursor: pointer;" display="none"><path id="kity_path_127" fill="white" stroke="gray" d="M649.4999807876454,201.50000280447165A6,6,0,1,1,637.4999807876454,201.50000280447165A6,6,0,1,1,649.4999807876454,201.50000280447165"></path><path id="kity_path_128" fill="none" stroke="gray"></path></g><path id="node_outline12" fill="none" stroke="none" d="M654.499980434284,190.50000280447165h285a5,5,0,0,1,5,5v12a5,5,0,0,1,-5,5h-285a5,5,0,0,1,-5,-5v-12a5,5,0,0,1,5,-5z" stroke-width="3"></path><g id="node_text12" fill="black"><text id="kity_text_124" text-rendering="inherit" font-size="12" dy=".8em" y="193.70000299062218" x="659.499980434284">小批量梯度下降（Mini-Batch Gradient Descent）</text></g></g></g></g></svg>