<svg width="851" height="573" xmlns="http://www.w3.org/2000/svg" xmlns:xlink="http://www.w3.org/1999/xlink" overflow="hidden"><defs><clipPath id="clip0"><path d="M142 32 993 32 993 605 142 605Z" fill-rule="evenodd" clip-rule="evenodd"/></clipPath></defs><g clip-path="url(#clip0)" transform="translate(-142 -32)"><path d="M483.176 267.884C489.409 248.134 523.709 241.353 559.786 252.739 595.863 264.125 620.056 289.366 613.823 309.116 607.589 328.867 573.29 335.647 537.213 324.261 501.136 312.875 476.943 287.634 483.176 267.884Z" stroke="#1F4E79" stroke-width="6" stroke-miterlimit="8" stroke-opacity="0.701961" fill="none" fill-rule="evenodd"/><path d="M440.119 255.997C450.427 223.334 507.307 212.17 567.164 231.061 627.021 249.952 667.188 291.744 656.88 324.407 646.571 357.069 589.691 368.233 529.834 349.342 469.978 330.451 429.811 288.659 440.119 255.997Z" stroke="#2E75B6" stroke-width="6" stroke-miterlimit="8" stroke-opacity="0.701961" fill="none" fill-rule="evenodd"/><path d="M400.432 242.718C414.789 197.227 493.788 181.61 576.883 207.834 659.978 234.059 715.701 292.196 701.344 337.686 686.987 383.176 607.987 398.794 524.893 372.569 441.798 346.344 386.075 288.208 400.432 242.718Z" stroke="#9DC3E6" stroke-width="6" stroke-miterlimit="8" stroke-opacity="0.701961" fill="none" fill-rule="evenodd"/><path d="M349.94 226.048C369.115 165.291 474.626 144.433 585.607 179.458 696.587 214.484 771.01 292.13 751.835 352.886 732.66 413.643 627.149 434.502 516.169 399.476 405.189 364.451 330.766 286.804 349.94 226.048Z" stroke="#BDD7EE" stroke-width="6" stroke-miterlimit="8" stroke-opacity="0.701961" fill="none" fill-rule="evenodd"/><path d="M301.534 215.865C326.01 138.312 460.691 111.686 602.353 156.395 744.015 201.104 839.013 300.217 814.537 377.77 790.062 455.323 655.38 481.949 513.718 437.24 372.056 392.531 277.058 293.418 301.534 215.865Z" stroke="#DEEBF7" stroke-width="6" stroke-miterlimit="8" stroke-opacity="0.701961" fill="none" fill-rule="evenodd"/><path d="M252.271 202.259C281.447 109.811 441.995 78.0717 610.865 131.367 779.734 184.662 892.977 302.811 863.8 395.258 834.624 487.706 674.076 519.445 505.207 466.15 336.337 412.855 223.094 294.706 252.271 202.259Z" stroke="#FBE5D6" stroke-width="6" stroke-miterlimit="8" stroke-opacity="0.701961" fill="none" fill-rule="evenodd"/><path d="M205.852 184.682C240.343 75.3963 430.133 37.876 629.76 100.879 829.387 163.881 963.256 303.549 928.765 412.835 894.274 522.121 704.484 559.641 504.857 496.639 305.23 433.636 171.361 293.969 205.852 184.682Z" stroke="#F8CBAD" stroke-width="6" stroke-miterlimit="8" stroke-opacity="0.701961" fill="none" fill-rule="evenodd"/><path d="M151.678 167.585C191.338 41.9193 409.573-1.2244 639.12 71.2208 868.666 143.666 1022.6 304.267 982.939 429.932 943.279 555.598 725.044 598.742 495.497 526.296 265.951 453.851 112.017 293.251 151.678 167.585Z" stroke="#F4B183" stroke-width="6" stroke-miterlimit="8" stroke-opacity="0.701961" fill="none" fill-rule="evenodd"/><path d="M259 493C259 439.981 301.981 397 355 397 408.019 397 451 439.981 451 493 451 546.019 408.019 589 355 589 301.981 589 259 546.019 259 493Z" fill="#DAE3F3" fill-rule="evenodd"/><path d="M245.5 493 758.19 493 758.19 494 245.5 494ZM756.857 489.5 764.857 493.5 756.857 497.5Z" fill="#4472C4"/><path d="M0.5-1.08826e-07 0.500104 475.694-0.499896 475.694-0.5 1.08826e-07ZM4.0001 474.361 0.000104987 482.361-3.9999 474.361Z" fill="#4472C4" transform="matrix(1 0 0 -1 355.5 604.861)"/><text font-family="Cambria Math,Cambria Math_MSFontService,sans-serif" font-weight="400" font-size="19" transform="translate(548.515 306)">ğœ½<tspan font-size="14" x="11.6666" y="-7">âˆ—</tspan><tspan x="-224.273" y="-163">ğœƒ</tspan><tspan font-size="14" x="-214.427" y="-159">2</tspan><tspan x="-210.199" y="177">0</tspan></text><path d="M401.5 408C401.5 406.619 402.619 405.5 404 405.5 405.381 405.5 406.5 406.619 406.5 408 406.5 409.381 405.381 410.5 404 410.5 402.619 410.5 401.5 409.381 401.5 408Z" stroke="#FF0000" stroke-miterlimit="8" fill="#FF0000" fill-rule="evenodd"/><path d="M546.5 287C546.5 285.619 547.619 284.5 549 284.5 550.381 284.5 551.5 285.619 551.5 287 551.5 288.381 550.381 289.5 549 289.5 547.619 289.5 546.5 288.381 546.5 287Z" stroke="#FF0000" stroke-miterlimit="8" fill="#FF0000" fill-rule="evenodd"/><text font-family="Cambria Math,Cambria Math_MSFontService,sans-serif" font-weight="400" font-size="19" transform="translate(743.687 515)">ğœƒ<tspan font-size="14" x="9.41333" y="4">1</tspan><tspan x="-327.347" y="-105">ğœ½</tspan></text><path d="M5.47266-28.2305 19.4531-9.24609 19.4531-7.82813 4.35938 12.6563 24.6914 12.6563C25.5898 12.6562 26.2773 12.3398 26.7539 11.707 27.2305 11.0742 27.6406 9.66016 27.9844 7.46484L29.7188 7.46484 29.1211 16.0547 0.304688 16.0547 0.304688 14.8945 16.7227-7.35938 0.785156-28.6523 0.785156-29.7656 29.0859-29.7656 29.0859-22.8281 27.5391-22.8281C27.3594-24.4922 26.9961-25.8086 26.4492-26.7773 25.9023-27.7461 25.0742-28.2305 23.9648-28.2305Z" transform="translate(713.123 107)"/><path d="M906.438 85.6288C908.875 86.2694 910.754 87.9295 912.074 90.6092 913.395 93.2889 914.055 96.4608 914.055 100.125 914.055 103.789 913.395 106.961 912.074 109.64 910.754 112.32 908.875 113.98 906.438 114.621L906.145 113.66C908.035 112.949 909.467 111.4 910.439 109.014 911.412 106.627 911.898 103.668 911.898 100.137 911.898 96.5975 911.412 93.6327 910.439 91.242 909.467 88.8514 908.035 87.3006 906.145 86.5897ZM754.663 85.6288 754.956 86.5897C753.065 87.3006 751.633 88.8514 750.661 91.242 749.688 93.6327 749.202 96.5975 749.202 100.137 749.202 103.668 749.688 106.627 750.661 109.014 751.633 111.4 753.065 112.949 754.956 113.66L754.663 114.621C752.225 113.98 750.346 112.32 749.026 109.64 747.706 106.961 747.045 103.789 747.045 100.125 747.045 96.4608 747.706 93.2889 749.026 90.6092 750.346 87.9295 752.225 86.2694 754.663 85.6288Z" fill-rule="evenodd"/><text font-family="Cambria Math,Cambria Math_MSFontService,sans-serif" font-weight="400" font-size="24" transform="translate(755.716 107)">â„<tspan font-size="18" x="13.3333" y="5">ğœƒ</tspan></text><path d="M830.011 85.6288C832.448 86.2694 834.327 87.9295 835.648 90.6092 836.968 93.2889 837.628 96.4608 837.628 100.125 837.628 103.789 836.968 106.961 835.648 109.64 834.327 112.32 832.448 113.98 830.011 114.621L829.718 113.66C831.608 112.949 833.04 111.4 834.013 109.014 834.985 106.627 835.472 103.668 835.472 100.137 835.472 96.5975 834.985 93.6327 834.013 91.242 833.04 88.8514 831.608 87.3006 829.718 86.5897ZM791.449 85.6288 791.742 86.5897C789.852 87.3006 788.42 88.8514 787.447 91.242 786.475 93.6327 785.988 96.5975 785.988 100.137 785.988 103.668 786.475 106.627 787.447 109.014 788.42 111.4 789.852 112.949 791.742 113.66L791.449 114.621C789.012 113.98 787.133 112.32 785.813 109.64 784.492 106.961 783.832 103.789 783.832 100.125 783.832 96.4608 784.492 93.2889 785.813 90.6092 787.133 87.9295 789.012 86.2694 791.449 85.6288Z" fill-rule="evenodd"/><text font-family="Cambria Math,Cambria Math_MSFontService,sans-serif" font-weight="400" font-size="24" transform="translate(792.503 107)">ğ‘¥</text><path d="M821.261 84.7468C822.972 85.198 824.286 86.1721 825.203 87.6692 826.12 89.1662 826.578 90.9724 826.578 93.0876 826.578 95.2087 826.121 97.0149 825.207 98.5061 824.293 99.9973 822.978 100.968 821.261 101.42L821.05 100.743C822.403 100.292 823.41 99.4011 824.069 98.071 824.728 96.7409 825.058 95.0505 825.058 92.9997 825.058 91.0192 824.729 89.3742 824.073 88.0647 823.417 86.7551 822.4 85.8747 821.023 85.4235ZM813.549 84.7468 813.786 85.4235C812.415 85.8747 811.4 86.7551 810.741 88.0647 810.082 89.3742 809.752 91.0192 809.752 92.9997 809.752 95.0505 810.082 96.7409 810.741 98.071 811.4 99.4011 812.406 100.292 813.76 100.743L813.549 101.42C811.832 100.968 810.517 99.9973 809.603 98.5061 808.688 97.0149 808.231 95.2087 808.231 93.0876 808.231 90.9724 808.69 89.1662 809.607 87.6692 810.524 86.1721 811.838 85.198 813.549 84.7468Z" fill-rule="evenodd"/><text font-family="Cambria Math,Cambria Math_MSFontService,sans-serif" font-weight="400" font-size="18" transform="translate(813.923 98)">ğ‘–<tspan font-size="24" x="31.1467" y="9">âˆ’</tspan><tspan font-size="24" x="54.48" y="9">ğ‘¦</tspan></text><path d="M897.687 84.7468C899.398 85.198 900.712 86.1721 901.629 87.6692 902.546 89.1662 903.005 90.9724 903.005 93.0876 903.005 95.2087 902.548 97.0149 901.634 98.5061 900.72 99.9973 899.404 100.968 897.687 101.42L897.476 100.743C898.83 100.292 899.836 99.4011 900.495 98.071 901.155 96.7409 901.484 95.0505 901.484 92.9997 901.484 91.0192 901.156 89.3742 900.5 88.0647 899.844 86.7551 898.827 85.8747 897.45 85.4235ZM889.976 84.7468 890.213 85.4235C888.842 85.8747 887.827 86.7551 887.167 88.0647 886.508 89.3742 886.179 91.0192 886.179 92.9997 886.179 95.0505 886.508 96.7409 887.167 98.071 887.827 99.4011 888.833 100.292 890.186 100.743L889.976 101.42C888.259 100.968 886.943 99.9973 886.029 98.5061 885.115 97.0149 884.658 95.2087 884.658 93.0876 884.658 90.9724 885.117 89.1662 886.034 87.6692 886.951 86.1721 888.265 85.198 889.976 84.7468Z" fill-rule="evenodd"/><text font-family="Cambria Math,Cambria Math_MSFontService,sans-serif" font-weight="400" font-size="18" transform="translate(890.349 98)">ğ‘–<tspan x="25.8134" y="-8">2</tspan><tspan x="-164.707" y="40">ğ‘–</tspan><tspan x="36.9734" y="-21"> </tspan><tspan font-size="21" x="-589.353" y="421">ğœƒ</tspan><tspan font-size="15" x="-578.593" y="425">1</tspan><tspan font-size="15" x="-576.307" y="412">2</tspan><tspan font-size="21" x="-561.68" y="421">+</tspan><tspan font-size="21" x="-540.94" y="421">ğœƒ</tspan><tspan font-size="15" x="-529.687" y="425">2</tspan><tspan font-size="15" x="-527.893" y="412">2</tspan><tspan font-size="21" x="-512.08" y="421">&lt;</tspan><tspan font-size="21" x="-490.153" y="421">ğ‘¡</tspan></text></g></svg>