<svg width="721" height="504" xmlns="http://www.w3.org/2000/svg" xmlns:xlink="http://www.w3.org/1999/xlink" overflow="hidden"><defs><clipPath id="clip0"><path d="M166 82 887 82 887 586 166 586Z" fill-rule="evenodd" clip-rule="evenodd"/></clipPath></defs><g clip-path="url(#clip0)" transform="translate(-166 -82)"><path d="M166.5 493 866.459 493 866.459 494 166.5 494ZM865.125 489.5 873.125 493.5 865.125 497.5Z" fill="#4472C4"/><path d="M0.5-1.06066e-07 0.500104 488.246-0.499896 488.246-0.5 1.06066e-07ZM4.0001 486.913 0.000104987 494.913-3.9999 486.913Z" fill="#4472C4" transform="matrix(1 0 0 -1 464.5 585.413)"/><text font-family="Cambria Math,Cambria Math_MSFontService,sans-serif" font-weight="400" font-size="27" transform="translate(430.01 116)">𝛼<tspan font-size="20" x="16" y="6">2</tspan><tspan font-size="24" x="15.3473" y="372">0</tspan><tspan x="422.899" y="407">𝛼</tspan><tspan font-size="20" x="438.279" y="412">1</tspan></text><rect x="464.5" y="271.5" width="222" height="222" stroke="#2F528F" stroke-miterlimit="8" fill="none"/><text font-family="Cambria Math,Cambria Math_MSFontService,sans-serif" font-weight="400" font-size="27" transform="translate(677 526)">𝐶<tspan x="-239.303" y="-248">𝐶</tspan></text><path d="M0 0 83.8147 83.8148" stroke="#FF0000" stroke-width="4" stroke-miterlimit="8" stroke-dasharray="12 4" stroke-opacity="0.309804" fill="none" fill-rule="evenodd" transform="matrix(-1 -8.74228e-08 -8.74228e-08 1 683.815 409)"/><path d="M0 0 358.369 358.369" stroke="#FF0000" stroke-width="4" stroke-miterlimit="8" stroke-dasharray="12 4" fill="none" fill-rule="evenodd" transform="matrix(-1 -8.74228e-08 -8.74228e-08 1 685.369 135)"/><text font-family="Cambria Math,Cambria Math_MSFontService,sans-serif" font-weight="400" font-size="32" transform="translate(496.848 543)">𝑦<tspan font-size="23" x="19.3933" y="-12">(</tspan><tspan font-size="23" x="29.06" y="-12">1</tspan><tspan font-size="23" x="42.56" y="-12">)</tspan><tspan x="62.44" y="0">≠</tspan><tspan x="95.16" y="0">𝑦</tspan></text><path d="M635.324 513.716C637.51 514.293 639.189 515.538 640.361 517.451 641.533 519.364 642.119 521.671 642.119 524.374 642.119 527.084 641.535 529.392 640.367 531.298 639.199 533.203 637.518 534.444 635.324 535.021L635.055 534.156C636.784 533.579 638.07 532.441 638.912 530.742 639.755 529.042 640.176 526.882 640.176 524.262 640.176 521.731 639.756 519.629 638.918 517.956 638.079 516.283 636.78 515.158 635.021 514.581ZM620.217 513.716 620.52 514.581C618.768 515.158 617.471 516.283 616.629 517.956 615.786 519.629 615.365 521.731 615.365 524.262 615.365 526.882 615.786 529.042 616.629 530.742 617.471 532.441 618.757 533.579 620.486 534.156L620.217 535.021C618.023 534.444 616.342 533.203 615.174 531.298 614.006 529.392 613.422 527.084 613.422 524.374 613.422 521.671 614.008 519.364 615.18 517.451 616.352 515.538 618.031 514.293 620.217 513.716Z" fill-rule="evenodd"/><text font-family="Cambria Math,Cambria Math_MSFontService,sans-serif" font-weight="400" font-size="23" transform="translate(621.094 531)">2<tspan font-size="21" x="-147.901" y="-152">(</tspan><tspan font-size="21" x="-139.067" y="-152">0</tspan><tspan font-size="21" x="-127.234" y="-152">,</tspan><tspan font-size="21" x="-119.347" y="-152">−</tspan><tspan font-size="21" x="-103.347" y="-152">𝑘</tspan><tspan font-size="21" x="-90.8873" y="-152">)</tspan><tspan font-size="21" x="-260.832" y="-49">(</tspan><tspan font-size="21" x="-251.998" y="-49">𝑘</tspan><tspan font-size="21" x="-239.538" y="-49">,</tspan><tspan font-size="21" x="-231.652" y="-49">0</tspan><tspan font-size="21" x="-219.818" y="-49">)</tspan><tspan font-size="21" x="-147.618" y="-287">(</tspan><tspan font-size="21" x="-138.785" y="-287">𝑘</tspan><tspan font-size="21" x="-121.585" y="-287">+</tspan><tspan font-size="21" x="-100.845" y="-287">𝐶</tspan><tspan font-size="21" x="-87.2383" y="-287">,</tspan><tspan font-size="21" x="-79.3517" y="-287">𝐶</tspan><tspan font-size="21" x="-65.745" y="-287">)</tspan><tspan font-size="21" x="75.0359" y="-389">(</tspan><tspan font-size="21" x="83.8693" y="-389">𝐶</tspan><tspan font-size="21" x="97.4759" y="-389">,</tspan><tspan font-size="21" x="105.363" y="-389">𝐶</tspan><tspan font-size="21" x="123.709" y="-389">−</tspan><tspan font-size="21" x="144.449" y="-389">𝑘</tspan><tspan font-size="21" x="156.909" y="-389">)</tspan></text><path d="M0 0 0.000104987 382.549" stroke="#4472C4" stroke-miterlimit="8" fill="none" fill-rule="evenodd" transform="matrix(1 0 0 -1 686.5 493.049)"/><path d="M545 270.5C545 268.015 547.239 266 550 266 552.761 266 555 268.015 555 270.5 555 272.985 552.761 275 550 275 547.239 275 545 272.985 545 270.5Z" fill-rule="evenodd"/><path d="M681 135.5C681 133.015 683.015 131 685.5 131 687.985 131 690 133.015 690 135.5 690 137.985 687.985 140 685.5 140 683.015 140 681 137.985 681 135.5Z" fill-rule="evenodd"/><path d="M459 359.5C459 357.015 461.015 355 463.5 355 465.985 355 468 357.015 468 359.5 468 361.985 465.985 364 463.5 364 461.015 364 459 361.985 459 359.5Z" fill-rule="evenodd"/><path d="M324 493C324 490.239 326.015 488 328.5 488 330.985 488 333 490.239 333 493 333 495.761 330.985 498 328.5 498 326.015 498 324 495.761 324 493Z" fill-rule="evenodd"/></g></svg>