<svg width="1299" height="794" xmlns="http://www.w3.org/2000/svg" xmlns:xlink="http://www.w3.org/1999/xlink" overflow="hidden"><defs><clipPath id="clip0"><path d="M152-74 1451-74 1451 720 152 720Z" fill-rule="evenodd" clip-rule="evenodd"/></clipPath></defs><g clip-path="url(#clip0)" transform="translate(-152 74)"><path d="M689.322 276.835C698.657 247.257 750.024 237.102 804.054 254.153 858.084 271.205 894.316 309.007 884.981 338.585 875.646 368.164 824.278 378.319 770.249 361.267 716.219 344.215 679.987 306.414 689.322 276.835Z" stroke="#1F4E79" stroke-width="6" stroke-miterlimit="8" stroke-opacity="0.701961" fill="none" fill-rule="evenodd"/><path d="M624.839 259.033C640.277 210.117 725.461 193.398 815.104 221.689 904.747 249.98 964.901 312.569 949.464 361.485 934.026 410.4 848.841 427.12 759.198 398.828 669.556 370.537 609.401 307.948 624.839 259.033Z" stroke="#2E75B6" stroke-width="6" stroke-miterlimit="8" stroke-opacity="0.701961" fill="none" fill-rule="evenodd"/><path d="M565.403 239.146C586.904 171.019 705.215 147.629 829.659 186.904 954.103 226.178 1037.56 313.245 1016.05 381.372 994.553 449.499 876.241 472.888 751.797 433.614 627.354 394.339 543.902 307.273 565.403 239.146Z" stroke="#9DC3E6" stroke-width="6" stroke-miterlimit="8" stroke-opacity="0.701961" fill="none" fill-rule="evenodd"/><path d="M489.786 214.181C518.502 123.191 676.518 91.9522 842.724 144.407 1008.93 196.862 1120.39 313.147 1091.67 404.136 1062.95 495.126 904.938 526.365 738.733 473.91 572.527 421.455 461.069 305.17 489.786 214.181Z" stroke="#BDD7EE" stroke-width="6" stroke-miterlimit="8" stroke-opacity="0.701961" fill="none" fill-rule="evenodd"/><path d="M417.291 198.931C453.947 82.7861 655.648 42.9111 867.804 109.868 1079.96 176.824 1222.23 325.257 1185.57 441.402 1148.92 557.547 947.218 597.422 735.062 530.466 522.907 463.509 380.636 315.076 417.291 198.931Z" stroke="#DEEBF7" stroke-width="6" stroke-miterlimit="8" stroke-opacity="0.701961" fill="none" fill-rule="evenodd"/><path d="M343.514 178.554C387.21 40.1022 627.649-7.43105 880.551 72.385 1133.45 152.201 1303.05 329.142 1259.35 467.593 1215.66 606.045 975.217 653.578 722.315 573.762 469.414 493.946 299.819 317.005 343.514 178.554Z" stroke="#FBE5D6" stroke-width="6" stroke-miterlimit="8" stroke-opacity="0.701961" fill="none" fill-rule="evenodd"/><path d="M273.996 152.231C325.65-11.4377 609.883-67.6287 908.848 26.7251 1207.81 121.079 1408.3 330.247 1356.64 493.916 1304.99 657.585 1020.76 713.776 721.792 619.422 422.827 525.068 222.342 315.9 273.996 152.231Z" stroke="#F8CBAD" stroke-width="6" stroke-miterlimit="8" stroke-opacity="0.701961" fill="none" fill-rule="evenodd"/><path d="M192.864 126.626C252.26-61.5735 579.093-126.186 922.866-17.691 1266.64 90.8042 1497.17 331.323 1437.78 519.522 1378.38 707.721 1051.55 772.333 707.774 663.838 364.001 555.343 133.468 314.825 192.864 126.626Z" stroke="#F4B183" stroke-width="6" stroke-miterlimit="8" stroke-opacity="0.701961" fill="none" fill-rule="evenodd"/><path d="M153.5 523 666.19 523 666.19 524 153.5 524ZM664.857 519.5 672.857 523.5 664.857 527.5Z" fill="#4472C4"/><path d="M0.5-1.06066e-07 0.500104 488.246-0.499896 488.246-0.5 1.06066e-07ZM4.0001 486.913 0.000104987 494.913-3.9999 486.913Z" fill="#4472C4" transform="matrix(1 0 0 -1 263.5 616.413)"/><text font-family="Cambria Math,Cambria Math_MSFontService,sans-serif" font-weight="400" font-size="27" transform="translate(229.214 146)">ğ›¼<tspan font-size="20" x="16" y="6">2</tspan><tspan font-size="24" x="15.3472" y="372">0</tspan><tspan x="422.899" y="407">ğ›¼</tspan><tspan font-size="20" x="438.279" y="413">1</tspan></text><rect x="263.5" y="183.5" width="340" height="340" stroke="#2F528F" stroke-miterlimit="8" fill="none"/><text font-family="Cambria Math,Cambria Math_MSFontService,sans-serif" font-weight="400" font-size="27" transform="translate(592.931 550)">ğ¶<tspan x="-358.261" y="-359">ğ¶</tspan></text><path d="M0 0 354.335 354.335" stroke="#FF0000" stroke-width="4" stroke-miterlimit="8" stroke-dasharray="12 4" fill="none" fill-rule="evenodd" transform="matrix(-1 -8.74228e-08 -8.74228e-08 1 724.335 199)"/><path d="M669 250C669 246.686 671.462 244 674.5 244 677.538 244 680 246.686 680 250 680 253.314 677.538 256 674.5 256 671.462 256 669 253.314 669 250Z" fill="#4472C4" fill-rule="evenodd"/><path d="M598 319C598 315.686 600.462 313 603.5 313 606.538 313 609 315.686 609 319 609 322.314 606.538 325 603.5 325 600.462 325 598 322.314 598 319Z" fill="#4472C4" fill-rule="evenodd"/><text font-family="Cambria Math,Cambria Math_MSFontService,sans-serif" font-weight="400" font-size="27" transform="translate(696.184 253)">Î±<tspan font-size="20" x="15.3333" y="-10">new</tspan><tspan font-size="20" x="55.3333" y="-10"> </tspan><tspan font-size="20" x="59.6667" y="-10">unc</tspan><tspan x="-86.0096" y="79">Î±</tspan><tspan font-size="20" x="-70.6763" y="69">new</tspan><tspan x="-182.014" y="183">ğ›¼</tspan><tspan font-size="20" x="-164.687" y="173">old</tspan></text><path d="M507 410C507 406.686 509.462 404 512.5 404 515.538 404 518 406.686 518 410 518 413.314 515.538 416 512.5 416 509.462 416 507 413.314 507 410Z" fill="#4472C4" fill-rule="evenodd"/></g></svg>