<svg width="1202" height="504" xmlns="http://www.w3.org/2000/svg" xmlns:xlink="http://www.w3.org/1999/xlink" overflow="hidden"><defs><clipPath id="clip0"><path d="M28 82 1230 82 1230 586 28 586Z" fill-rule="evenodd" clip-rule="evenodd"/></clipPath></defs><g clip-path="url(#clip0)" transform="translate(-28 -82)"><path d="M28.5001 493 541.19 493 541.19 494 28.5001 494ZM539.857 489.5 547.857 493.5 539.857 497.5Z" fill="#4472C4"/><path d="M0.5-1.06066e-07 0.500104 488.246-0.499896 488.246-0.5 1.06066e-07ZM4.0001 486.913 0.000104987 494.913-3.9999 486.913Z" fill="#4472C4" transform="matrix(1 0 0 -1 138.5 585.413)"/><text font-family="Cambria Math,Cambria Math_MSFontService,sans-serif" font-weight="400" font-size="27" transform="translate(104.677 116)">𝛼<tspan font-size="20" x="16" y="6">2</tspan><tspan font-size="24" x="15.3472" y="372">0</tspan><tspan x="422.899" y="407">𝛼</tspan><tspan font-size="20" x="438.279" y="412">1</tspan></text><rect x="138.5" y="153.5" width="341" height="340" stroke="#2F528F" stroke-miterlimit="8" fill="none"/><text font-family="Cambria Math,Cambria Math_MSFontService,sans-serif" font-weight="400" font-size="27" transform="translate(468.394 520)">𝐶<tspan x="-358.261" y="-359">𝐶</tspan></text><path d="M697.5 493 1210.19 493 1210.19 494 697.5 494ZM1208.86 489.5 1216.86 493.5 1208.86 497.5Z" fill="#4472C4"/><path d="M0.5-1.06066e-07 0.500104 488.246-0.499896 488.246-0.5 1.06066e-07ZM4.0001 486.913 0.000104987 494.913-3.9999 486.913Z" fill="#4472C4" transform="matrix(1 0 0 -1 807.5 585.413)"/><text font-family="Cambria Math,Cambria Math_MSFontService,sans-serif" font-weight="400" font-size="27" transform="translate(773.104 116)">𝛼<tspan font-size="20" x="16" y="6">2</tspan><tspan font-size="24" x="15.3472" y="372">0</tspan><tspan x="422.899" y="407">𝛼</tspan><tspan font-size="20" x="438.279" y="412">1</tspan></text><rect x="807.5" y="153.5" width="340" height="340" stroke="#2F528F" stroke-miterlimit="8" fill="none"/><text font-family="Cambria Math,Cambria Math_MSFontService,sans-serif" font-weight="400" font-size="27" transform="translate(1136.82 520)">𝐶<tspan x="-358.261" y="-359">𝐶</tspan></text><path d="M963 154 1146.83 337.827" stroke="#FF0000" stroke-width="4" stroke-miterlimit="8" stroke-dasharray="12 4" fill="none" fill-rule="evenodd"/><path d="M807 309 990.827 492.827" stroke="#FF0000" stroke-width="4" stroke-miterlimit="8" stroke-dasharray="12 4" fill="none" fill-rule="evenodd"/><path d="M0 0 204.05 204.05" stroke="#FF0000" stroke-width="4" stroke-miterlimit="8" stroke-dasharray="12 4" fill="none" fill-rule="evenodd" transform="matrix(-1 -8.74228e-08 -8.74228e-08 1 479.05 289)"/><path d="M0 0 204.05 204.05" stroke="#FF0000" stroke-width="4" stroke-miterlimit="8" stroke-dasharray="12 4" fill="none" fill-rule="evenodd" transform="matrix(-1 -8.74228e-08 -8.74228e-08 1 342.05 153)"/><text font-family="Cambria Math,Cambria Math_MSFontService,sans-serif" font-weight="400" font-size="32" transform="translate(816.68 562)">𝑦<tspan font-size="23" x="19.3933" y="-11">(</tspan><tspan font-size="23" x="29.06" y="-11">1</tspan><tspan font-size="23" x="42.56" y="-11">)</tspan><tspan x="62.44" y="0">=</tspan><tspan x="95.16" y="0">𝑦</tspan><tspan font-size="23" x="114.553" y="-11">(</tspan><tspan font-size="23" x="124.22" y="-11">2</tspan><tspan font-size="23" x="137.72" y="-11">)</tspan><tspan x="157.6" y="0">⇒</tspan><tspan x="194.153" y="0">𝛼</tspan><tspan font-size="23" x="212.58" y="7">1</tspan><tspan x="234.52" y="0">+</tspan><tspan x="265.467" y="0">𝛼</tspan><tspan font-size="23" x="284.633" y="7">2</tspan><tspan x="308.347" y="0">=</tspan><tspan x="341.067" y="0">𝑘</tspan><tspan x="-664.73" y="0">𝑦</tspan><tspan font-size="23" x="-645.337" y="-12">(</tspan><tspan font-size="23" x="-635.67" y="-12">1</tspan><tspan font-size="23" x="-622.17" y="-12">)</tspan><tspan x="-602.29" y="0">≠</tspan><tspan x="-569.57" y="0">𝑦</tspan></text><path d="M290.426 532.638C292.613 533.214 294.292 534.459 295.463 536.372 296.635 538.285 297.221 540.592 297.221 543.295 297.221 546.006 296.637 548.313 295.469 550.219 294.301 552.124 292.62 553.365 290.426 553.942L290.157 553.077C291.886 552.5 293.172 551.362 294.015 549.663 294.857 547.963 295.278 545.803 295.278 543.183 295.278 540.652 294.859 538.55 294.02 536.877 293.182 535.204 291.883 534.079 290.123 533.502ZM275.319 532.638 275.622 533.502C273.87 534.079 272.573 535.204 271.731 536.877 270.889 538.55 270.467 540.652 270.467 543.183 270.467 545.803 270.889 547.963 271.731 549.663 272.573 551.362 273.859 552.5 275.589 553.077L275.319 553.942C273.125 553.365 271.445 552.124 270.277 550.219 269.109 548.313 268.525 546.006 268.525 543.295 268.525 540.592 269.111 538.285 270.282 536.372 271.454 534.459 273.133 533.214 275.319 532.638Z" fill-rule="evenodd"/><text font-family="Cambria Math,Cambria Math_MSFontService,sans-serif" font-weight="400" font-size="23" transform="translate(276.196 550)">2<tspan font-size="32" x="33.4067" y="12">⇒</tspan><tspan font-size="32" x="69.96" y="12">𝛼</tspan><tspan x="88.3867" y="18">1</tspan><tspan font-size="32" x="110.327" y="12">−</tspan><tspan font-size="32" x="141.273" y="12">𝛼</tspan><tspan x="160.44" y="18">2</tspan><tspan font-size="32" x="184.153" y="12">=</tspan><tspan font-size="32" x="216.873" y="12">𝑘</tspan></text></g></svg>