<svg id="kity_svg_6" xmlns="http://www.w3.org/2000/svg" xmlns:xlink="http://www.w3.org/1999/xlink" version="1.1" width="1106" height="340" style="background: rgb(251, 251, 251); visibility: visible;" viewBox="0 0 1106 340"><defs id="kity_defs_7"><linearGradient id="kity_linearGradient_17" x1="0" y1="0" x2="0" y2="1"><stop id="kity_stop_18" offset="0" stop-color="rgb(255, 255, 255)"></stop><stop id="kity_stop_19" offset="1" stop-color="rgb(204, 204, 204)"></stop></linearGradient><marker id="kity_marker_2" orient="auto" refX="6" refY="0" viewBox="-7 -7 14 14" markerWidth="7" markerHeight="7" markerUnits="userSpaceOnUse"><path id="kity_path_3" fill="rgb(115, 161, 191)" stroke="none" d="M6,0A6,6,0,1,1,-6,0A6,6,0,1,1,6,0"></path></marker></defs><g id="kity_g_8"><g id="minder1" text-rendering="optimize-speed"><g id="minder_connect_group1"><path id="kity_path_31" fill="none" stroke="rgb(115, 161, 191)" stroke-width="1" d="M101.99999751431636,186.49999732805185A96.5,110.5,0,0,1,198.49999751431636,75.99999732805185"></path><path id="kity_path_33" fill="none" stroke="rgb(115, 161, 191)" stroke-width="1" d="M376.49999751431636,76.49999732805185C384.49999751431636,75.99999732805185,384.49999751431636,30.499997328051847,392.49999751431636,30.499997328051847"></path><path id="kity_path_35" fill="none" stroke="rgb(115, 161, 191)" stroke-width="1" d="M513.4999975143164,10.499997328051847C521.4999975143164,10.499997328051847,521.4999975143164,-15.500002671948153,529.4999975143164,-15.500002671948153" display="none"></path><path id="kity_path_37" fill="none" stroke="rgb(115, 161, 191)" stroke-width="1" d="M513.4999975143164,10.499997328051847C521.4999975143164,10.499997328051847,521.4999975143164,10.499997328051847,529.4999975143164,10.499997328051847" display="none"></path><path id="kity_path_39" fill="none" stroke="rgb(115, 161, 191)" stroke-width="1" d="M513.4999975143164,10.499997328051847C521.4999975143164,10.499997328051847,521.4999975143164,36.49999732805185,529.4999975143164,36.49999732805185" display="none"></path><path id="kity_path_41" fill="none" stroke="rgb(115, 161, 191)" stroke-width="1" d="M376.49999751431636,76.49999732805185C384.49999751431636,75.99999732805185,384.49999751431636,121.49999732805185,392.49999751431636,121.49999732805185"></path><path id="kity_path_43" fill="none" stroke="rgb(115, 161, 191)" stroke-width="1" d="M525.4999975143164,121.49999732805185C533.4999975143164,121.49999732805185,533.4999975143164,56.49999732805185,541.4999975143164,56.49999732805185"></path><path id="kity_path_45" fill="none" stroke="rgb(115, 161, 191)" stroke-width="1" d="M525.4999975143164,121.49999732805185C533.4999975143164,121.49999732805185,533.4999975143164,82.49999732805185,541.4999975143164,82.49999732805185"></path><path id="kity_path_47" fill="none" stroke="rgb(115, 161, 191)" stroke-width="1" d="M525.4999975143164,121.49999732805185C533.4999975143164,121.49999732805185,533.4999975143164,108.49999732805185,541.4999975143164,108.49999732805185"></path><path id="kity_path_49" fill="none" stroke="rgb(115, 161, 191)" stroke-width="1" d="M525.4999975143164,121.49999732805185C533.4999975143164,121.49999732805185,533.4999975143164,134.49999732805185,541.4999975143164,134.49999732805185"></path><path id="kity_path_51" fill="none" stroke="rgb(115, 161, 191)" stroke-width="1" d="M525.4999975143164,121.49999732805185C533.4999975143164,121.49999732805185,533.4999975143164,160.49999732805185,541.4999975143164,160.49999732805185"></path><path id="kity_path_53" fill="none" stroke="rgb(115, 161, 191)" stroke-width="1" d="M525.4999975143164,121.49999732805185C533.4999975143164,121.49999732805185,533.4999975143164,186.49999732805185,541.4999975143164,186.49999732805185"></path><path id="kity_path_55" fill="none" stroke="rgb(115, 161, 191)" stroke-width="1" d="M101.99999751431636,186.49999732805185A96.5,48.5,0,0,0,198.49999751431636,234.99999732805185"></path><path id="kity_path_57" fill="none" stroke="rgb(115, 161, 191)" stroke-width="1" d="M393.49999751431636,235.49999732805185C401.49999751431636,234.99999732805185,401.49999751431636,222.49999732805185,409.49999751431636,222.49999732805185"></path><path id="kity_path_59" fill="none" stroke="rgb(115, 161, 191)" stroke-width="1" d="M525.4999975143164,222.49999732805185C533.4999975143164,222.49999732805185,533.4999975143164,222.49999732805185,541.4999975143164,222.49999732805185" display="none"></path><path id="kity_path_61" fill="none" stroke="rgb(115, 161, 191)" stroke-width="1" d="M393.49999751431636,235.49999732805185C401.49999751431636,234.99999732805185,401.49999751431636,248.49999732805185,409.49999751431636,248.49999732805185"></path><path id="kity_path_63" fill="none" stroke="rgb(115, 161, 191)" stroke-width="1" d="M614.4999975143164,254.49999732805185C622.4999975143164,254.49999732805185,622.4999975143164,254.49999732805185,630.4999975143164,254.49999732805185" display="none"></path><path id="kity_path_65" fill="none" stroke="rgb(115, 161, 191)" stroke-width="1" d="M101.99999751431636,186.49999732805185A96.5,111.5,0,0,0,198.49999751431636,297.99999732805185"></path><path id="kity_path_196" fill="none" stroke="rgb(115, 161, 191)" stroke-width="1" d="M776.4999975143164,108.49999732805185C784.4999975143164,108.49999732805185,784.4999975143164,108.49999732805185,792.4999975143164,108.49999732805185"></path></g><g id="minder_node1"><path id="node_outline1" fill="rgb(115, 161, 191)" stroke="rgb(115, 161, 191)" d="M26.499997514316362,160.49999732805185h151a5,5,0,0,1,5,5v42a5,5,0,0,1,-5,5h-151a5,5,0,0,1,-5,-5v-42a5,5,0,0,1,5,-5z" stroke-width="3"></path><g id="node_text1" fill="white"><text id="kity_text_22" text-rendering="inherit" font-size="16" dy=".8em" y="164.09999725663084" x="33.49999751431636">机器学习</text><text id="kity_text_105" text-rendering="inherit" font-size="16" dy=".8em" y="188.09999725663084" x="33.49999751431636">Machine Learning</text></g></g><g id="kity_g_12" display="none"><path id="kity_path_13" fill="none" stroke="none" d="M33.49999751431636,186.49999732805185h0v0h0z"></path></g><g id="kity_g_14" display="none"><path id="kity_path_15" fill="none" stroke="none" d="M33.49999751431636,186.49999732805185h0v0h0z"></path><path id="kity_path_16" fill="none" stroke="none"></path></g><g id="minder_node2"><g id="node_expander12" style="cursor: pointer;"><path id="kity_path_158" fill="white" stroke="gray" d="M199.4999935197594,76.00000020234208A6,6,0,1,1,187.4999935197594,76.00000020234208A6,6,0,1,1,199.4999935197594,76.00000020234208"></path><path id="kity_path_159" fill="none" stroke="gray" d="M188.9999935197594,76.00000020234208L197.9999935197594,76.00000020234208"></path></g><path id="node_outline13" fill="rgb(238, 243, 246)" stroke="rgb(115, 161, 191)" d="M203.49999265013287,52.50000021534791h170a3,3,0,0,1,3,3v41a3,3,0,0,1,-3,3h-170a3,3,0,0,1,-3,-3v-41a3,3,0,0,1,3,-3z" stroke-width="1"></path><g id="node_text13" fill="black"><text id="kity_text_89" text-rendering="inherit" font-size="14" dy=".8em" y="55.900000320165816" x="220.49999265013287">监督学习</text><text id="kity_text_90" text-rendering="inherit" font-size="14" dy=".8em" y="76.90000032016582" x="220.49999265013287">Supervised Learning</text></g></g><g id="minder_node3"><g id="node_expander4" style="cursor: pointer;"><path id="kity_path_134" fill="white" stroke="gray" d="M392.4999884995059,30.500001385873368A6,6,0,1,1,380.4999884995059,30.500001385873368A6,6,0,1,1,392.4999884995059,30.500001385873368"></path><path id="kity_path_135" fill="none" stroke="gray" d="M381.9999884995059,30.500001385873368L390.9999884995059,30.500001385873368M386.4999884995059,26.000001385873368L386.4999884995059,35.00000138587337"></path></g><path id="node_outline5" fill="none" stroke="none" d="M397.49998804606616,21.50000138587336h111a5,5,0,0,1,5,5v8a5,5,0,0,1,-5,5h-111a5,5,0,0,1,-5,-5v-8a5,5,0,0,1,5,-5z" stroke-width="3"></path><g id="node_text5" fill="black"><text id="kity_text_73" text-rendering="inherit" font-size="12" dy=".8em" y="22.7000014996189" x="397.49998804606616">回归（Regression）</text></g></g><g id="minder_node4" display="none"><g id="node_expander1" style="cursor: pointer;" display="none"><path id="kity_path_125" fill="white" stroke="gray" d="M529.4999851032176,14.50000180206019A6,6,0,1,1,517.4999851032176,14.50000180206019A6,6,0,1,1,529.4999851032176,14.50000180206019"></path><path id="kity_path_126" fill="none" stroke="gray"></path></g><path id="node_outline2" fill="none" stroke="none" d="M529.4999846125249,5.500001802060183h152a5,5,0,0,1,5,5v8a5,5,0,0,1,-5,5h-152a5,5,0,0,1,-5,-5v-8a5,5,0,0,1,5,-5z"></path><g id="node_text2" fill="black"><text id="kity_text_67" text-rendering="inherit" font-size="12" dy=".8em" y="6.700001915805721" x="529.4999846125249">代价函数（Cost Function）</text></g></g><g id="minder_node5" display="none"><g id="node_expander2" style="cursor: pointer;" display="none"><path id="kity_path_128" fill="white" stroke="gray" d="M529.4999851032176,22.50000159396678A6,6,0,1,1,517.4999851032176,22.50000159396678A6,6,0,1,1,529.4999851032176,22.50000159396678"></path><path id="kity_path_129" fill="none" stroke="gray"></path></g><path id="node_outline3" fill="none" stroke="none" d="M529.4999846125249,13.500001593966772h184a5,5,0,0,1,5,5v8a5,5,0,0,1,-5,5h-184a5,5,0,0,1,-5,-5v-8a5,5,0,0,1,5,-5z"></path><g id="node_text3" fill="black"><text id="kity_text_69" text-rendering="inherit" font-size="12" dy=".8em" y="14.70000170771231" x="529.4999846125249">梯度下降法（Gradient Descent）</text></g></g><g id="minder_node6" display="none"><g id="node_expander3" style="cursor: pointer;" display="none"><path id="kity_path_131" fill="white" stroke="gray" d="M529.4999851032176,30.500001385873368A6,6,0,1,1,517.4999851032176,30.500001385873368A6,6,0,1,1,529.4999851032176,30.500001385873368"></path><path id="kity_path_132" fill="none" stroke="gray"></path></g><path id="node_outline4" fill="none" stroke="none" d="M529.4999846125249,21.50000138587336h207a5,5,0,0,1,5,5v8a5,5,0,0,1,-5,5h-207a5,5,0,0,1,-5,-5v-8a5,5,0,0,1,5,-5z"></path><g id="node_text4" fill="black"><text id="kity_text_71" text-rendering="inherit" font-size="12" dy=".8em" y="22.7000014996189" x="529.4999846125249">最小二乘法（Least Square Method）</text></g></g><g id="minder_node7"><g id="node_expander11" style="cursor: pointer;"><path id="kity_path_155" fill="white" stroke="gray" d="M392.4999884995059,121.49999901881083A6,6,0,1,1,380.4999884995059,121.49999901881083A6,6,0,1,1,392.4999884995059,121.49999901881083"></path><path id="kity_path_156" fill="none" stroke="gray" d="M381.9999884995059,121.49999901881083L390.9999884995059,121.49999901881083"></path></g><path id="node_outline12" fill="none" stroke="none" d="M397.49998804606616,112.49999901881081h123a5,5,0,0,1,5,5v8a5,5,0,0,1,-5,5h-123a5,5,0,0,1,-5,-5v-8a5,5,0,0,1,5,-5z" stroke-width="3"></path><g id="node_text12" fill="black"><text id="kity_text_87" text-rendering="inherit" font-size="12" dy=".8em" y="113.69999913255634" x="397.49998804606616">分类（Classification）</text></g></g><g id="minder_node8"><g id="node_expander5" style="cursor: pointer;" display="none"><path id="kity_path_137" fill="white" stroke="gray" d="M541.4999846237661,56.50000070956978A6,6,0,1,1,529.4999846237661,56.50000070956978A6,6,0,1,1,541.4999846237661,56.50000070956978"></path><path id="kity_path_138" fill="none" stroke="gray"></path></g><path id="node_outline6" fill="none" stroke="none" d="M546.4999841703263,47.500000709569775h183a5,5,0,0,1,5,5v8a5,5,0,0,1,-5,5h-183a5,5,0,0,1,-5,-5v-8a5,5,0,0,1,5,-5z" stroke-width="3"></path><g id="node_text6" fill="black"><text id="kity_text_75" text-rendering="inherit" font-size="12" dy=".8em" y="48.700000823315314" x="546.4999841703263">逻辑回归（Logistic Regression）</text></g></g><g id="minder_node9"><g id="node_expander6" style="cursor: pointer;" display="none"><path id="kity_path_140" fill="white" stroke="gray" d="M541.4999846237661,82.50000003326619A6,6,0,1,1,529.4999846237661,82.50000003326619A6,6,0,1,1,541.4999846237661,82.50000003326619"></path><path id="kity_path_141" fill="none" stroke="gray"></path></g><path id="node_outline7" fill="none" stroke="none" d="M546.4999841703263,73.50000003326619h164a5,5,0,0,1,5,5v8a5,5,0,0,1,-5,5h-164a5,5,0,0,1,-5,-5v-8a5,5,0,0,1,5,-5z" stroke-width="3"></path><g id="node_text7" fill="black"><text id="kity_text_77" text-rendering="inherit" font-size="12" dy=".8em" y="74.70000014701174" x="546.4999841703263">神经网络（Neural Network）</text></g></g><g id="minder_node10"><g id="node_expander7" style="cursor: pointer;"><path id="kity_path_143" fill="white" stroke="gray" d="M541.4999846237661,108.4999993569626A6,6,0,1,1,529.4999846237661,108.4999993569626A6,6,0,1,1,541.4999846237661,108.4999993569626"></path><path id="kity_path_144" fill="none" stroke="gray" d="M530.9999846237661,108.4999993569626L539.9999846237661,108.4999993569626"></path></g><path id="node_outline8" fill="none" stroke="none" d="M546.4999841703263,99.4999993569626h225a5,5,0,0,1,5,5v8a5,5,0,0,1,-5,5h-225a5,5,0,0,1,-5,-5v-8a5,5,0,0,1,5,-5z" stroke-width="3"></path><g id="node_text8" fill="black"><text id="kity_text_79" text-rendering="inherit" font-size="12" dy=".8em" y="100.69999947070815" x="546.4999841703263">支持向量机（Support Vector Machine）</text></g></g><g id="minder_node11"><g id="node_expander8" style="cursor: pointer;" display="none"><path id="kity_path_146" fill="white" stroke="gray" d="M541.4999846237661,134.49999868065902A6,6,0,1,1,529.4999846237661,134.49999868065902A6,6,0,1,1,541.4999846237661,134.49999868065902"></path><path id="kity_path_147" fill="none" stroke="gray"></path></g><path id="node_outline9" fill="none" stroke="none" d="M546.4999841703263,125.49999868065902h176a5,5,0,0,1,5,5v8a5,5,0,0,1,-5,5h-176a5,5,0,0,1,-5,-5v-8a5,5,0,0,1,5,-5z" stroke-width="3"></path><g id="node_text9" fill="black"><text id="kity_text_81" text-rendering="inherit" font-size="12" dy=".8em" y="126.69999879440456" x="546.4999841703263">K-近邻（K-Nearest Neighbor）</text></g></g><g id="minder_node12"><g id="node_expander9" style="cursor: pointer;" display="none"><path id="kity_path_149" fill="white" stroke="gray" d="M541.4999846237661,160.49999800435543A6,6,0,1,1,529.4999846237661,160.49999800435543A6,6,0,1,1,541.4999846237661,160.49999800435543"></path><path id="kity_path_150" fill="none" stroke="gray"></path></g><path id="node_outline10" fill="none" stroke="none" d="M546.4999841703263,151.49999800435543h137a5,5,0,0,1,5,5v8a5,5,0,0,1,-5,5h-137a5,5,0,0,1,-5,-5v-8a5,5,0,0,1,5,-5z" stroke-width="3"></path><g id="node_text10" fill="black"><text id="kity_text_83" text-rendering="inherit" font-size="12" dy=".8em" y="152.69999811810098" x="546.4999841703263">决策树（Decision Tree）</text></g></g><g id="minder_node13"><g id="node_expander10" style="cursor: pointer;" display="none"><path id="kity_path_152" fill="white" stroke="gray" d="M541.4999846237661,186.49999732805185A6,6,0,1,1,529.4999846237661,186.49999732805185A6,6,0,1,1,541.4999846237661,186.49999732805185"></path><path id="kity_path_153" fill="none" stroke="gray"></path></g><path id="node_outline11" fill="none" stroke="none" d="M546.4999841703263,177.49999732805185h171a5,5,0,0,1,5,5v8a5,5,0,0,1,-5,5h-171a5,5,0,0,1,-5,-5v-8a5,5,0,0,1,5,-5z" stroke-width="3"></path><g id="node_text11" fill="black"><text id="kity_text_85" text-rendering="inherit" font-size="12" dy=".8em" y="178.6999974417974" x="546.4999841703263">朴素贝叶斯（Naive Bayesian）</text></g></g><g id="minder_node14"><g id="node_expander17" style="cursor: pointer;"><path id="kity_path_173" fill="white" stroke="gray" d="M199.4999935197594,234.99999606648555A6,6,0,1,1,187.4999935197594,234.99999606648555A6,6,0,1,1,199.4999935197594,234.99999606648555"></path><path id="kity_path_174" fill="none" stroke="gray" d="M188.9999935197594,234.99999606648555L197.9999935197594,234.99999606648555"></path></g><path id="node_outline18" fill="rgb(238, 243, 246)" stroke="rgb(115, 161, 191)" d="M203.49999265013287,211.49999607949138h187a3,3,0,0,1,3,3v41a3,3,0,0,1,-3,3h-187a3,3,0,0,1,-3,-3v-41a3,3,0,0,1,3,-3z" stroke-width="1"></path><g id="node_text18" fill="black"><text id="kity_text_100" text-rendering="inherit" font-size="14" dy=".8em" y="214.8999961843093" x="220.49999265013287">无监督学习</text><text id="kity_text_101" text-rendering="inherit" font-size="14" dy=".8em" y="235.8999961843093" x="220.49999265013287">Unsupervised Learning</text></g></g><g id="minder_node15"><g id="node_expander14" style="cursor: pointer;"><path id="kity_path_164" fill="white" stroke="gray" d="M409.4999880573074,222.4999963916315A6,6,0,1,1,397.4999880573074,222.4999963916315A6,6,0,1,1,409.4999880573074,222.4999963916315"></path><path id="kity_path_165" fill="none" stroke="gray" d="M398.9999880573074,222.4999963916315L407.9999880573074,222.4999963916315M403.4999880573074,217.9999963916315L403.4999880573074,226.9999963916315"></path></g><path id="node_outline15" fill="none" stroke="none" d="M414.4999876038677,213.4999963916315h106a5,5,0,0,1,5,5v8a5,5,0,0,1,-5,5h-106a5,5,0,0,1,-5,-5v-8a5,5,0,0,1,5,-5z" stroke-width="3"></path><g id="node_text15" fill="black"><text id="kity_text_94" text-rendering="inherit" font-size="12" dy=".8em" y="214.69999650537704" x="414.4999876038677">聚类（Clustering）</text></g></g><g id="minder_node16" display="none"><g id="node_expander13" style="cursor: pointer;" display="none"><path id="kity_path_161" fill="white" stroke="gray" d="M541.4999847910774,222.4999963916315A6,6,0,1,1,529.4999847910774,222.4999963916315A6,6,0,1,1,541.4999847910774,222.4999963916315"></path><path id="kity_path_162" fill="none" stroke="gray"></path></g><path id="node_outline14" fill="none" stroke="none" d="M541.4999843003848,213.4999963916315h112a5,5,0,0,1,5,5v8a5,5,0,0,1,-5,5h-112a5,5,0,0,1,-5,-5v-8a5,5,0,0,1,5,-5z"></path><g id="node_text14" fill="black"><text id="kity_text_92" text-rendering="inherit" font-size="12" dy=".8em" y="214.69999650537704" x="541.4999843003848">K-均值（K-Means）</text></g></g><g id="minder_node17"><g id="node_expander16" style="cursor: pointer;"><path id="kity_path_170" fill="white" stroke="gray" d="M409.4999880573074,248.4999957153279A6,6,0,1,1,397.4999880573074,248.4999957153279A6,6,0,1,1,409.4999880573074,248.4999957153279"></path><path id="kity_path_171" fill="none" stroke="gray" d="M398.9999880573074,248.4999957153279L407.9999880573074,248.4999957153279M403.4999880573074,243.9999957153279L403.4999880573074,252.9999957153279"></path></g><path id="node_outline17" fill="none" stroke="none" d="M414.4999876038677,239.4999957153279h195a5,5,0,0,1,5,5v8a5,5,0,0,1,-5,5h-195a5,5,0,0,1,-5,-5v-8a5,5,0,0,1,5,-5z" stroke-width="3"></path><g id="node_text17" fill="black"><text id="kity_text_98" text-rendering="inherit" font-size="12" dy=".8em" y="240.69999582907346" x="414.4999876038677">降维（Dimensionality Reduction）</text></g></g><g id="minder_node18" display="none"><g id="node_expander15" style="cursor: pointer;" display="none"><path id="kity_path_167" fill="white" stroke="gray" d="M630.4999824760382,248.4999957153279A6,6,0,1,1,618.4999824760382,248.4999957153279A6,6,0,1,1,630.4999824760382,248.4999957153279"></path><path id="kity_path_168" fill="none" stroke="gray"></path></g><path id="node_outline16" fill="none" stroke="none" d="M630.4999819853456,239.4999957153279h267a5,5,0,0,1,5,5v8a5,5,0,0,1,-5,5h-267a5,5,0,0,1,-5,-5v-8a5,5,0,0,1,5,-5z"></path><g id="node_text16" fill="black"><text id="kity_text_96" text-rendering="inherit" font-size="12" dy=".8em" y="240.69999582907346" x="630.4999819853456">主成分分析法（Principal Component Analysis）</text></g></g><g id="minder_node19"><g id="node_expander18" style="cursor: pointer;" display="none"><path id="kity_path_176" fill="white" stroke="gray" d="M199.4999935197594,297.99999442775A6,6,0,1,1,187.4999935197594,297.99999442775A6,6,0,1,1,199.4999935197594,297.99999442775"></path><path id="kity_path_177" fill="none" stroke="gray"></path></g><path id="node_outline19" fill="rgb(238, 243, 246)" stroke="rgb(115, 161, 191)" d="M203.49999265013287,274.4999944407558h195a3,3,0,0,1,3,3v41a3,3,0,0,1,-3,3h-195a3,3,0,0,1,-3,-3v-41a3,3,0,0,1,3,-3z" stroke-width="1"></path><g id="node_text19" fill="black"><text id="kity_text_103" text-rendering="inherit" font-size="14" dy=".8em" y="277.89999454557375" x="220.49999265013287">强化学习</text><text id="kity_text_104" text-rendering="inherit" font-size="14" dy=".8em" y="298.89999454557375" x="220.49999265013287">Reinforcement Learning</text></g></g><g id="minder_node22"><g id="node_expander21" style="cursor: pointer;" display="none"><path id="kity_path_201" fill="white" stroke="gray" d="M792.4999780948353,108.4999993569626A6,6,0,1,1,780.4999780948353,108.4999993569626A6,6,0,1,1,792.4999780948353,108.4999993569626"></path><path id="kity_path_202" fill="none" stroke="gray"></path></g><path id="node_outline22" fill="none" stroke="none" d="M797.4999776413956,99.4999993569626h285a5,5,0,0,1,5,5v8a5,5,0,0,1,-5,5h-285a5,5,0,0,1,-5,-5v-8a5,5,0,0,1,5,-5z" stroke-width="3"></path><g id="node_text22" fill="black"><text id="kity_text_198" text-rendering="inherit" font-size="12" dy=".8em" y="100.69999947070815" x="797.4999776413956">序列最小优化（Sequential Minimal Optimization）</text></g></g></g></g></svg>