<svg width="1338" height="411" xmlns="http://www.w3.org/2000/svg" xmlns:xlink="http://www.w3.org/1999/xlink" overflow="hidden"><defs><clipPath id="clip0"><path d="M-26 101 1312 101 1312 512-26 512Z" fill-rule="evenodd" clip-rule="evenodd"/></clipPath></defs><g clip-path="url(#clip0)" transform="translate(26 -101)"><path d="M814 455 932.114 214 1295 214 1176.89 455Z" fill="#FFF2CC" fill-rule="evenodd"/><path d="M-25.5001 456 514.233 456 514.233 457-25.5001 457ZM512.9 452.5 520.9 456.5 512.9 460.5Z" fill="#4472C4"/><path d="M0.5-1.30615e-07 0.500103 395.227-0.499897 395.227-0.5 1.30615e-07ZM4.0001 393.894 0.000104987 401.894-3.9999 393.894Z" fill="#4472C4" transform="matrix(1 0 0 -1 29.5001 512.394)"/><text font-family="Cambria Math,Cambria Math_MSFontService,sans-serif" font-weight="400" font-size="27" transform="translate(494.405 484)">𝑥<tspan x="-494.79" y="-345">𝑦</tspan><tspan font-size="24" x="-487.817" y="-3">0</tspan></text><rect x="30" y="334" width="122" height="122" fill="#FFF2CC"/><path d="M0 0 0.000104987 8.59927" stroke="#4472C4" stroke-miterlimit="8" fill="none" fill-rule="evenodd" transform="matrix(1 0 0 -1 151.5 456.099)"/><path d="M0 0 0.000104987 8.59927" stroke="#4472C4" stroke-miterlimit="8" fill="none" fill-rule="evenodd" transform="matrix(1 0 0 -1 273.5 456.099)"/><path d="M0 0 0.000104987 8.59927" stroke="#4472C4" stroke-miterlimit="8" fill="none" fill-rule="evenodd" transform="matrix(1 0 0 -1 395.5 456.099)"/><path d="M0 0 0.000104987 8.59927" stroke="#4472C4" stroke-miterlimit="8" fill="none" fill-rule="evenodd" transform="matrix(-4.37114e-08 1 1 4.37114e-08 29.5001 212.5)"/><path d="M0 0 0.000104987 8.59927" stroke="#4472C4" stroke-miterlimit="8" fill="none" fill-rule="evenodd" transform="matrix(-4.37114e-08 1 1 4.37114e-08 29.5001 334.5)"/><path d="M29 452 136.424 452 136.424 458 29 458ZM133.424 446 151.424 455 133.424 464Z" fill="#4472C4"/><path d="M3-2.58325e-06 3.00009 106.924-2.99991 106.924-3 2.58325e-06ZM9.00009 103.924 0.000104987 121.924-8.99991 103.924Z" fill="#4472C4" transform="matrix(1 0 0 -1 29 455.924)"/><text font-family="Cambria Math,Cambria Math_MSFontService,sans-serif" font-weight="400" font-size="24" transform="translate(143.959 485)">1<tspan x="122.943" y="-2">2</tspan><tspan x="245.552" y="-4">3</tspan><tspan x="-137.372" y="-145">1</tspan><tspan x="-137.503" y="-266">2</tspan></text><path d="M757.5 455 1297.23 455 1297.23 456 757.5 456ZM1295.9 451.5 1303.9 455.5 1295.9 459.5Z" fill="#4472C4"/><path d="M0.5-1.30615e-07 0.500103 395.227-0.499897 395.227-0.5 1.30615e-07ZM4.0001 393.894 0.000104987 401.894-3.9999 393.894Z" fill="#4472C4" transform="matrix(1 0 0 -1 811.5 511.394)"/><text font-family="Cambria Math,Cambria Math_MSFontService,sans-serif" font-weight="400" font-size="27" transform="translate(1277.28 484)">𝑥<tspan x="-494.79" y="-345">𝑦</tspan><tspan font-size="24" x="-487.817" y="-3">0</tspan></text><path d="M0 0 0.000104987 8.59927" stroke="#4472C4" stroke-miterlimit="8" fill="none" fill-rule="evenodd" transform="matrix(1 0 0 -1 934.5 456.099)"/><path d="M0 0 0.000104987 8.59927" stroke="#4472C4" stroke-miterlimit="8" fill="none" fill-rule="evenodd" transform="matrix(1 0 0 -1 1056.5 455.099)"/><path d="M0 0 0.000104987 8.59927" stroke="#4472C4" stroke-miterlimit="8" fill="none" fill-rule="evenodd" transform="matrix(1 0 0 -1 1178.5 456.099)"/><path d="M0 0 0.000104987 8.59927" stroke="#4472C4" stroke-miterlimit="8" fill="none" fill-rule="evenodd" transform="matrix(-4.37114e-08 1 1 4.37114e-08 812.5 212.5)"/><path d="M0 0 0.000104987 8.59927" stroke="#4472C4" stroke-miterlimit="8" fill="none" fill-rule="evenodd" transform="matrix(-4.37114e-08 1 1 4.37114e-08 811.5 334.5)"/><path d="M0.00816081-2.99999 352.657-2.04069 352.64 3.95929-0.00816081 2.99999ZM349.673-8.04883 367.648 1.0001 349.624 9.95111Z" fill="#4472C4" transform="matrix(1 0 0 -1 811 455)"/><path d="M2.694-1.31998 115.729 229.379 110.341 232.019-2.694 1.31998ZM119.797 224.045 119.635 244.169 103.633 231.965Z" fill="#4472C4" transform="matrix(1 0 0 -1 813 455.169)"/><text font-family="Cambria Math,Cambria Math_MSFontService,sans-serif" font-weight="400" font-size="24" transform="translate(926.835 485)">1<tspan x="122.943" y="-2">2</tspan><tspan x="245.552" y="-4">3</tspan><tspan x="-137.372" y="-145">1</tspan><tspan x="-141.794" y="-266">2</tspan><tspan font-size="32" x="-843" y="8">𝒊</tspan><tspan font-size="32" x="-68.7278" y="-170">𝒋</tspan><tspan font-size="32" x="77.1348" y="5">𝒊</tspan></text></g></svg>