<svg width="702" height="314" xmlns="http://www.w3.org/2000/svg" xmlns:xlink="http://www.w3.org/1999/xlink" overflow="hidden"><defs><clipPath id="clip0"><path d="M289 203 991 203 991 517 289 517Z" fill-rule="evenodd" clip-rule="evenodd"/></clipPath></defs><g clip-path="url(#clip0)" transform="translate(-289 -203)"><rect x="290" y="204" width="700" height="312" fill="#DAE3F3"/><path d="M670 240C670 236.686 672.91 234 676.5 234 680.09 234 683 236.686 683 240 683 243.314 680.09 246 676.5 246 672.91 246 670 243.314 670 240Z" fill="#2F5597" fill-rule="evenodd"/><path d="M670 380C670 376.686 672.91 374 676.5 374 680.09 374 683 376.686 683 380 683 383.314 680.09 386 676.5 386 672.91 386 670 383.314 670 380Z" fill="#2F5597" fill-rule="evenodd"/><path d="M748 310C748 306.686 750.91 304 754.5 304 758.09 304 761 306.686 761 310 761 313.314 758.09 316 754.5 316 750.91 316 748 313.314 748 310Z" fill="#2F5597" fill-rule="evenodd"/><path d="M748 380C748 376.686 750.91 374 754.5 374 758.09 374 761 376.686 761 380 761 383.314 758.09 386 754.5 386 750.91 386 748 383.314 748 380Z" fill="#2F5597" fill-rule="evenodd"/><path d="M0 0 0.664987 127.706" stroke="#4472C4" stroke-width="2" stroke-miterlimit="8" fill="none" fill-rule="evenodd" transform="matrix(-1 -8.74228e-08 -8.74228e-08 1 676.665 246)"/><path d="M0 0 65.6454 0.000104987" stroke="#4472C4" stroke-width="2" stroke-miterlimit="8" fill="none" fill-rule="evenodd" transform="matrix(-1 -8.74228e-08 -8.74228e-08 1 748.645 310)"/><path d="M0 0 0.000104987 57.6881" stroke="#4472C4" stroke-width="2" stroke-miterlimit="8" fill="none" fill-rule="evenodd" transform="matrix(1 0 0 -1 754 373.688)"/><path d="M0 0 65.6696 0.000104987" stroke="#4472C4" stroke-width="2" stroke-miterlimit="8" fill="none" fill-rule="evenodd" transform="matrix(-1 -8.74228e-08 -8.74228e-08 1 748.67 380)"/><path d="M517 310C517 306.686 519.91 304 523.5 304 527.09 304 530 306.686 530 310 530 313.314 527.09 316 523.5 316 519.91 316 517 313.314 517 310Z" fill="#2F5597" fill-rule="evenodd"/><path d="M517 380C517 376.686 519.91 374 523.5 374 527.09 374 530 376.686 530 380 530 383.314 527.09 386 523.5 386 519.91 386 517 383.314 517 380Z" fill="#2F5597" fill-rule="evenodd"/><path d="M595 310C595 306.686 597.91 304 601.5 304 605.09 304 608 306.686 608 310 608 313.314 605.09 316 601.5 316 597.91 316 595 313.314 595 310Z" fill="#2F5597" fill-rule="evenodd"/><path d="M595 380C595 376.686 597.91 374 601.5 374 605.09 374 608 376.686 608 380 608 383.314 605.09 386 601.5 386 597.91 386 595 383.314 595 380Z" fill="#2F5597" fill-rule="evenodd"/><path d="M0 0 65.6696 0.000104987" stroke="#4472C4" stroke-width="2" stroke-miterlimit="8" fill="none" fill-rule="evenodd" transform="matrix(-1 -8.74228e-08 -8.74228e-08 1 595.67 310)"/><path d="M0 0 0.000104987 57.6881" stroke="#4472C4" stroke-width="2" stroke-miterlimit="8" fill="none" fill-rule="evenodd" transform="matrix(1 0 0 -1 602 373.688)"/><path d="M524 316 524 373.688" stroke="#4472C4" stroke-width="2" stroke-miterlimit="8" fill="none" fill-rule="evenodd"/><text fill="#2F5597" font-family="Source Han Serif CN,Source Han Serif CN_MSFontService,sans-serif" font-weight="600" font-size="53" transform="translate(557.061 452)">图<tspan x="107.333" y="0">论</tspan><tspan font-size="24" x="-13.5" y="36">Graph </tspan><tspan font-size="24" x="91.3467" y="36">Theory</tspan></text><path d="M670 310C670 306.686 672.91 304 676.5 304 680.09 304 683 306.686 683 310 683 313.314 680.09 316 676.5 316 672.91 316 670 313.314 670 310Z" fill="#2F5597" fill-rule="evenodd"/></g></svg>