<svg width="335" height="223" xmlns="http://www.w3.org/2000/svg" xmlns:xlink="http://www.w3.org/1999/xlink" overflow="hidden"><defs><clipPath id="clip0"><path d="M331 487 666 487 666 710 331 710Z" fill-rule="evenodd" clip-rule="evenodd"/></clipPath></defs><g clip-path="url(#clip0)" transform="translate(-331 -487)"><path d="M428 633C428 629.686 430.686 627 434 627 437.314 627 440 629.686 440 633 440 636.314 437.314 639 434 639 430.686 639 428 636.314 428 633Z" fill="#2F5597" fill-rule="evenodd"/><path d="M434 522 434 626.355" stroke="#4472C4" stroke-width="2" stroke-miterlimit="8" fill="none" fill-rule="evenodd"/><path d="M551 516C551 512.686 553.686 510 557 510 560.314 510 563 512.686 563 516 563 519.314 560.314 522 557 522 553.686 522 551 519.314 551 516Z" fill="#2F5597" fill-rule="evenodd"/><path d="M551 633C551 629.686 553.686 627 557 627 560.314 627 563 629.686 563 633 563 636.314 560.314 639 557 639 553.686 639 551 636.314 551 633Z" fill="#2F5597" fill-rule="evenodd"/><path d="M557 522 557 626.355" stroke="#4472C4" stroke-width="2" stroke-miterlimit="8" fill="none" fill-rule="evenodd"/><path d="M436 516 551.021 516" stroke="#4472C4" stroke-width="2" stroke-miterlimit="8" fill="none" fill-rule="evenodd"/><path d="M440 633 551.021 633" stroke="#4472C4" stroke-width="2" stroke-miterlimit="8" fill="none" fill-rule="evenodd"/><path d="M438 521 552.633 628.966" stroke="#4472C4" stroke-width="2" stroke-miterlimit="8" fill="none" fill-rule="evenodd"/><path d="M0 0 93.4189 49.6238" stroke="#4472C4" stroke-width="2" stroke-miterlimit="8" fill="none" fill-rule="evenodd" transform="matrix(-1 -8.74228e-08 -8.74228e-08 1 655.419 579)"/><path d="M653 574.5C653 570.91 655.686 568 659 568 662.314 568 665 570.91 665 574.5 665 578.09 662.314 581 659 581 655.686 581 653 578.09 653 574.5Z" fill="#2F5597" fill-rule="evenodd"/><path d="M562 521 655.419 570.624" stroke="#4472C4" stroke-width="2" stroke-miterlimit="8" fill="none" fill-rule="evenodd"/><path d="M332 575C332 571.686 334.686 569 338 569 341.314 569 344 571.686 344 575 344 578.314 341.314 581 338 581 334.686 581 332 578.314 332 575Z" fill="#2F5597" fill-rule="evenodd"/><path d="M0 0 87.2536 50.3307" stroke="#4472C4" stroke-width="2" stroke-miterlimit="8" fill="none" fill-rule="evenodd" transform="matrix(1 0 0 -1 342 571.331)"/><path d="M342 580 427.448 633.276" stroke="#4472C4" stroke-width="2" stroke-miterlimit="8" fill="none" fill-rule="evenodd"/><path d="M428 516C428 512.686 430.686 510 434 510 437.314 510 440 512.686 440 516 440 519.314 437.314 522 434 522 430.686 522 428 519.314 428 516Z" fill="#2F5597" fill-rule="evenodd"/><text font-family="Source Han Serif CN,Source Han Serif CN_MSFontService,sans-serif" font-weight="400" font-size="19" transform="translate(373.223 543)">1<tspan x="-0.341309" y="80">2</tspan><tspan x="45.2115" y="38">3</tspan><tspan x="119.134" y="-32">4</tspan><tspan x="127.628" y="29">5</tspan><tspan x="112.969" y="84">6</tspan><tspan x="237.865" y="-3">9</tspan><tspan x="193.047" y="39">8</tspan><tspan x="243.979" y="76">7</tspan><tspan font-size="27" x="81.7605" y="144">赋权图</tspan></text></g></svg>