<svg width="773" height="180" xmlns="http://www.w3.org/2000/svg" xmlns:xlink="http://www.w3.org/1999/xlink" overflow="hidden"><defs><clipPath id="clip0"><path d="M198 163 971 163 971 343 198 343Z" fill-rule="evenodd" clip-rule="evenodd"/></clipPath></defs><g clip-path="url(#clip0)" transform="translate(-198 -163)"><path d="M211 170C211 166.686 213.686 164 217 164 220.314 164 223 166.686 223 170 223 173.314 220.314 176 217 176 213.686 176 211 173.314 211 170Z" fill="#2F5597" fill-rule="evenodd"/><path d="M211 287C211 283.686 213.686 281 217 281 220.314 281 223 283.686 223 287 223 290.314 220.314 293 217 293 213.686 293 211 290.314 211 287Z" fill="#2F5597" fill-rule="evenodd"/><path d="M217 176 217 280.355" stroke="#4472C4" stroke-width="2" stroke-miterlimit="8" fill="none" fill-rule="evenodd"/><path d="M368 170C368 166.686 370.91 164 374.5 164 378.09 164 381 166.686 381 170 381 173.314 378.09 176 374.5 176 370.91 176 368 173.314 368 170Z" fill="#2F5597" fill-rule="evenodd"/><path d="M368 287C368 283.686 370.91 281 374.5 281 378.09 281 381 283.686 381 287 381 290.314 378.09 293 374.5 293 370.91 293 368 290.314 368 287Z" fill="#2F5597" fill-rule="evenodd"/><path d="M374 176 374 280.355" stroke="#4472C4" stroke-width="2" stroke-miterlimit="8" fill="none" fill-rule="evenodd"/><path d="M470 226.5C470 222.91 472.91 220 476.5 220 480.09 220 483 222.91 483 226.5 483 230.09 480.09 233 476.5 233 472.91 233 470 230.09 470 226.5Z" fill="#2F5597" fill-rule="evenodd"/><path d="M379 175 472.415 222.56" stroke="#4472C4" stroke-width="2" stroke-miterlimit="8" fill="none" fill-rule="evenodd"/><path d="M0 0 93.4146 51.6878" stroke="#4472C4" stroke-width="2" stroke-miterlimit="8" fill="none" fill-rule="evenodd" transform="matrix(1 0 0 -1 379 282.688)"/><path d="M602 170C602 166.686 604.686 164 608 164 611.314 164 614 166.686 614 170 614 173.314 611.314 176 608 176 604.686 176 602 173.314 602 170Z" fill="#2F5597" fill-rule="evenodd"/><path d="M602 287C602 283.686 604.686 281 608 281 611.314 281 614 283.686 614 287 614 290.314 611.314 293 608 293 604.686 293 602 290.314 602 287Z" fill="#2F5597" fill-rule="evenodd"/><path d="M608 176 608 280.355" stroke="#4472C4" stroke-width="2" stroke-miterlimit="8" fill="none" fill-rule="evenodd"/><path d="M725 170C725 166.686 727.686 164 731 164 734.314 164 737 166.686 737 170 737 173.314 734.314 176 731 176 727.686 176 725 173.314 725 170Z" fill="#2F5597" fill-rule="evenodd"/><path d="M725 287C725 283.686 727.686 281 731 281 734.314 281 737 283.686 737 287 737 290.314 734.314 293 731 293 727.686 293 725 290.314 725 287Z" fill="#2F5597" fill-rule="evenodd"/><path d="M731 176 731 280.355" stroke="#4472C4" stroke-width="2" stroke-miterlimit="8" fill="none" fill-rule="evenodd"/><path d="M610 170 725.021 170" stroke="#4472C4" stroke-width="2" stroke-miterlimit="8" fill="none" fill-rule="evenodd"/><path d="M614 287 725.021 287" stroke="#4472C4" stroke-width="2" stroke-miterlimit="8" fill="none" fill-rule="evenodd"/><path d="M612 175 726.633 282.966" stroke="#4472C4" stroke-width="2" stroke-miterlimit="8" fill="none" fill-rule="evenodd"/><path d="M0 0 114.633 107.966" stroke="#4472C4" stroke-width="2" stroke-miterlimit="8" fill="none" fill-rule="evenodd" transform="matrix(-1 -8.74228e-08 -8.74228e-08 1 726.633 175)"/><path d="M867 172C867 168.686 869.686 166 873 166 876.314 166 879 168.686 879 172 879 175.314 876.314 178 873 178 869.686 178 867 175.314 867 172Z" fill="#2F5597" fill-rule="evenodd"/><path d="M893 289C893 285.686 895.91 283 899.5 283 903.09 283 906 285.686 906 289 906 292.314 903.09 295 899.5 295 895.91 295 893 292.314 893 289Z" fill="#2F5597" fill-rule="evenodd"/><path d="M873 178 899.572 282.355" stroke="#4472C4" stroke-width="2" stroke-miterlimit="8" fill="none" fill-rule="evenodd"/><path d="M957 234C957 230.686 959.91 228 963.5 228 967.09 228 970 230.686 970 234 970 237.314 967.09 240 963.5 240 959.91 240 957 237.314 957 234Z" fill="#2F5597" fill-rule="evenodd"/><path d="M877 176 959.11 229.267" stroke="#4472C4" stroke-width="2" stroke-miterlimit="8" fill="none" fill-rule="evenodd"/><path d="M0 0 55.5387 45.9808" stroke="#4472C4" stroke-width="2" stroke-miterlimit="8" fill="none" fill-rule="evenodd" transform="matrix(1 0 0 -1 904 283.981)"/><path d="M935 178C935 174.686 937.686 172 941 172 944.314 172 947 174.686 947 178 947 181.314 944.314 184 941 184 937.686 184 935 181.314 935 178Z" fill="#2F5597" fill-rule="evenodd"/><path d="M839 239C839 235.686 841.91 233 845.5 233 849.09 233 852 235.686 852 239 852 242.314 849.09 245 845.5 245 841.91 245 839 242.314 839 239Z" fill="#2F5597" fill-rule="evenodd"/><path d="M0 0 86.924 51.914" stroke="#4472C4" stroke-width="2" stroke-miterlimit="8" fill="none" fill-rule="evenodd" transform="matrix(1 0 0 -1 850 234.914)"/><path d="M850 243 895.041 284.163" stroke="#4472C4" stroke-width="2" stroke-miterlimit="8" fill="none" fill-rule="evenodd"/><path d="M0 0 105.687 4.81753" stroke="#4472C4" stroke-width="2" stroke-miterlimit="8" fill="none" fill-rule="evenodd" transform="matrix(1 0 0 -1 852 238.818)"/><path d="M0 0 22.8291 56.2785" stroke="#4472C4" stroke-width="2" stroke-miterlimit="8" fill="none" fill-rule="evenodd" transform="matrix(1 0 0 -1 846 232.279)"/><path d="M879 172 935.124 178.17" stroke="#4472C4" stroke-width="2" stroke-miterlimit="8" fill="none" fill-rule="evenodd"/><path d="M941 184 959.016 229.291" stroke="#4472C4" stroke-width="2" stroke-miterlimit="8" fill="none" fill-rule="evenodd"/><path d="M0 0 33.1638 101.796" stroke="#4472C4" stroke-width="2" stroke-miterlimit="8" fill="none" fill-rule="evenodd" transform="matrix(1 0 0 -1 904 284.796)"/><text font-family="Cambria Math,Cambria Math_MSFontService,sans-serif" font-weight="400" font-size="27" transform="translate(202.555 334)">𝐾<tspan font-size="20" x="16.5333" y="6">2</tspan><tspan x="208.4" y="0">𝐾</tspan><tspan font-size="20" x="224.933" y="6">3</tspan><tspan x="452.342" y="1">𝐾</tspan><tspan font-size="20" x="468.876" y="6">4</tspan><tspan x="688.416" y="1">𝐾</tspan><tspan font-size="20" x="704.949" y="7">5</tspan></text></g></svg>