<svg width="442" height="179" xmlns="http://www.w3.org/2000/svg" xmlns:xlink="http://www.w3.org/1999/xlink" overflow="hidden"><defs><clipPath id="clip0"><path d="M223 403 665 403 665 582 223 582Z" fill-rule="evenodd" clip-rule="evenodd"/></clipPath></defs><g clip-path="url(#clip0)" transform="translate(-223 -403)"><path d="M223 409.5C223 405.91 225.91 403 229.5 403 233.09 403 236 405.91 236 409.5 236 413.09 233.09 416 229.5 416 225.91 416 223 413.09 223 409.5Z" fill="#2F5597" fill-rule="evenodd"/><path d="M223 526C223 522.686 225.91 520 229.5 520 233.09 520 236 522.686 236 526 236 529.314 233.09 532 229.5 532 225.91 532 223 529.314 223 526Z" fill="#2F5597" fill-rule="evenodd"/><path d="M230 416 230 520.355" stroke="#4472C4" stroke-width="2" stroke-miterlimit="8" fill="none" fill-rule="evenodd"/><path d="M347 409.5C347 405.91 349.686 403 353 403 356.314 403 359 405.91 359 409.5 359 413.09 356.314 416 353 416 349.686 416 347 413.09 347 409.5Z" fill="#2F5597" fill-rule="evenodd"/><path d="M347 526C347 522.686 349.686 520 353 520 356.314 520 359 522.686 359 526 359 529.314 356.314 532 353 532 349.686 532 347 529.314 347 526Z" fill="#2F5597" fill-rule="evenodd"/><path d="M353 416 353 520.355" stroke="#4472C4" stroke-width="2" stroke-miterlimit="8" fill="none" fill-rule="evenodd"/><path d="M0 0 114.633 107.966" stroke="#4472C4" stroke-width="2" stroke-miterlimit="8" fill="none" fill-rule="evenodd" transform="matrix(-1 -8.74228e-08 -8.74228e-08 1 348.633 414)"/><text font-family="Cambria Math,Cambria Math_MSFontService,sans-serif" font-weight="400" font-size="27" transform="translate(276.72 574)">𝐺<tspan font-size="20" x="15.4333" y="5">1</tspan></text><path d="M528 409.5C528 405.91 530.91 403 534.5 403 538.09 403 541 405.91 541 409.5 541 413.09 538.09 416 534.5 416 530.91 416 528 413.09 528 409.5Z" fill="#2F5597" fill-rule="evenodd"/><path d="M528 526C528 522.686 530.91 520 534.5 520 538.09 520 541 522.686 541 526 541 529.314 538.09 532 534.5 532 530.91 532 528 529.314 528 526Z" fill="#2F5597" fill-rule="evenodd"/><path d="M652 409.5C652 405.91 654.686 403 658 403 661.314 403 664 405.91 664 409.5 664 413.09 661.314 416 658 416 654.686 416 652 413.09 652 409.5Z" fill="#2F5597" fill-rule="evenodd"/><path d="M652 526C652 522.686 654.686 520 658 520 661.314 520 664 522.686 664 526 664 529.314 661.314 532 658 532 654.686 532 652 529.314 652 526Z" fill="#2F5597" fill-rule="evenodd"/><path d="M537 409 652.021 409" stroke="#4472C4" stroke-width="2" stroke-miterlimit="8" fill="none" fill-rule="evenodd"/><path d="M541 526 652.021 526" stroke="#4472C4" stroke-width="2" stroke-miterlimit="8" fill="none" fill-rule="evenodd"/><path d="M539 414 653.633 521.966" stroke="#4472C4" stroke-width="2" stroke-miterlimit="8" fill="none" fill-rule="evenodd"/><text font-family="Cambria Math,Cambria Math_MSFontService,sans-serif" font-weight="400" font-size="27" transform="translate(581.824 574)">𝐺<tspan font-size="20" x="16.0533" y="5">2</tspan></text></g></svg>