<svg width="1132" height="379" xmlns="http://www.w3.org/2000/svg" xmlns:xlink="http://www.w3.org/1999/xlink" overflow="hidden"><defs><clipPath id="clip0"><path d="M44 266 1176 266 1176 645 44 645Z" fill-rule="evenodd" clip-rule="evenodd"/></clipPath></defs><g clip-path="url(#clip0)" transform="translate(-44 -266)"><path d="M268 273C268 269.686 270.91 267 274.5 267 278.09 267 281 269.686 281 273 281 276.314 278.09 279 274.5 279 270.91 279 268 276.314 268 273Z" fill="#2F5597" fill-rule="evenodd"/><path d="M268 393C268 389.686 270.91 387 274.5 387 278.09 387 281 389.686 281 393 281 396.314 278.09 399 274.5 399 270.91 399 268 396.314 268 393Z" fill="#2F5597" fill-rule="evenodd"/><path d="M157 393C157 389.686 159.686 387 163 387 166.314 387 169 389.686 169 393 169 396.314 166.314 399 163 399 159.686 399 157 396.314 157 393Z" fill="#2F5597" fill-rule="evenodd"/><path d="M380 393C380 389.686 382.686 387 386 387 389.314 387 392 389.686 392 393 392 396.314 389.314 399 386 399 382.686 399 380 396.314 380 393Z" fill="#2F5597" fill-rule="evenodd"/><path d="M156 513.5C156 509.91 158.686 507 162 507 165.314 507 168 509.91 168 513.5 168 517.09 165.314 520 162 520 158.686 520 156 517.09 156 513.5Z" fill="#2F5597" fill-rule="evenodd"/><path d="M44 513.5C44 509.91 46.9101 507 50.5 507 54.0899 507 57 509.91 57 513.5 57 517.09 54.0899 520 50.5 520 46.9101 520 44 517.09 44 513.5Z" fill="#2F5597" fill-rule="evenodd"/><path d="M279 513.5C279 509.91 281.91 507 285.5 507 289.09 507 292 509.91 292 513.5 292 517.09 289.09 520 285.5 520 281.91 520 279 517.09 279 513.5Z" fill="#2F5597" fill-rule="evenodd"/><path d="M491 513.5C491 509.91 493.686 507 497 507 500.314 507 503 509.91 503 513.5 503 517.09 500.314 520 497 520 493.686 520 491 517.09 491 513.5Z" fill="#2F5597" fill-rule="evenodd"/><path d="M380 513.5C380 509.91 382.686 507 386 507 389.314 507 392 509.91 392 513.5 392 517.09 389.314 520 386 520 382.686 520 380 517.09 380 513.5Z" fill="#2F5597" fill-rule="evenodd"/><path d="M285 638C285 634.686 287.91 632 291.5 632 295.09 632 298 634.686 298 638 298 641.314 295.09 644 291.5 644 287.91 644 285 641.314 285 638Z" fill="#2F5597" fill-rule="evenodd"/><path d="M274 279 274 387.006" stroke="#4472C4" stroke-width="2" stroke-miterlimit="8" fill="none" fill-rule="evenodd"/><path d="M0 0 102.615 111.618" stroke="#4472C4" stroke-width="2" stroke-miterlimit="8" fill="none" fill-rule="evenodd" transform="matrix(-1 -8.74228e-08 -8.74228e-08 1 269.615 277)"/><path d="M279 277 381.615 388.458" stroke="#4472C4" stroke-width="2" stroke-miterlimit="8" fill="none" fill-rule="evenodd"/><path d="M0 0 103.945 111.618" stroke="#4472C4" stroke-width="2" stroke-miterlimit="8" fill="none" fill-rule="evenodd" transform="matrix(-1 -8.74228e-08 -8.74228e-08 1 158.945 398)"/><path d="M0 0 1.33029 108.006" stroke="#4472C4" stroke-width="2" stroke-miterlimit="8" fill="none" fill-rule="evenodd" transform="matrix(-1 -8.74228e-08 -8.74228e-08 1 163.33 399)"/><path d="M167 398 280.615 509.618" stroke="#4472C4" stroke-width="2" stroke-miterlimit="8" fill="none" fill-rule="evenodd"/><path d="M386 399 386 507.166" stroke="#4472C4" stroke-width="2" stroke-miterlimit="8" fill="none" fill-rule="evenodd"/><path d="M390 397 492.615 508.778" stroke="#4472C4" stroke-width="2" stroke-miterlimit="8" fill="none" fill-rule="evenodd"/><path d="M0 0 85.4494 115.977" stroke="#4472C4" stroke-width="2" stroke-miterlimit="8" fill="none" fill-rule="evenodd" transform="matrix(-1 -8.74228e-08 -8.74228e-08 1 381.449 518)"/><path d="M940 273C940 269.686 942.686 267 946 267 949.314 267 952 269.686 952 273 952 276.314 949.314 279 946 279 942.686 279 940 276.314 940 273Z" fill="#2F5597" fill-rule="evenodd"/><path d="M940 393C940 389.686 942.686 387 946 387 949.314 387 952 389.686 952 393 952 396.314 949.314 399 946 399 942.686 399 940 396.314 940 393Z" fill="#2F5597" fill-rule="evenodd"/><path d="M829 393C829 389.686 831.686 387 835 387 838.314 387 841 389.686 841 393 841 396.314 838.314 399 835 399 831.686 399 829 396.314 829 393Z" fill="#2F5597" fill-rule="evenodd"/><path d="M1053 395C1053 391.686 1055.91 389 1059.5 389 1063.09 389 1066 391.686 1066 395 1066 398.314 1063.09 401 1059.5 401 1055.91 401 1053 398.314 1053 395Z" fill="#2F5597" fill-rule="evenodd"/><path d="M827 513.5C827 509.91 829.91 507 833.5 507 837.09 507 840 509.91 840 513.5 840 517.09 837.09 520 833.5 520 829.91 520 827 517.09 827 513.5Z" fill="#2F5597" fill-rule="evenodd"/><path d="M716 513.5C716 509.91 718.686 507 722 507 725.314 507 728 509.91 728 513.5 728 517.09 725.314 520 722 520 718.686 520 716 517.09 716 513.5Z" fill="#2F5597" fill-rule="evenodd"/><path d="M951 513.5C951 509.91 953.686 507 957 507 960.314 507 963 509.91 963 513.5 963 517.09 960.314 520 957 520 953.686 520 951 517.09 951 513.5Z" fill="#2F5597" fill-rule="evenodd"/><path d="M1163 513.5C1163 509.91 1165.69 507 1169 507 1172.31 507 1175 509.91 1175 513.5 1175 517.09 1172.31 520 1169 520 1165.69 520 1163 517.09 1163 513.5Z" fill="#2F5597" fill-rule="evenodd"/><path d="M1051 513.5C1051 509.91 1053.91 507 1057.5 507 1061.09 507 1064 509.91 1064 513.5 1064 517.09 1061.09 520 1057.5 520 1053.91 520 1051 517.09 1051 513.5Z" fill="#2F5597" fill-rule="evenodd"/><path d="M957 638C957 634.686 959.686 632 963 632 966.314 632 969 634.686 969 638 969 641.314 966.314 644 963 644 959.686 644 957 641.314 957 638Z" fill="#2F5597" fill-rule="evenodd"/><path d="M0 0 102.615 111.618" stroke="#4472C4" stroke-width="2" stroke-miterlimit="8" fill="none" fill-rule="evenodd" transform="matrix(-1 -8.74228e-08 -8.74228e-08 1 941.615 277)"/><path d="M0 0 103.945 111.618" stroke="#4472C4" stroke-width="2" stroke-miterlimit="8" fill="none" fill-rule="evenodd" transform="matrix(-1 -8.74228e-08 -8.74228e-08 1 830.945 398)"/><path d="M0 0 1.95118 106.2" stroke="#4472C4" stroke-width="2" stroke-miterlimit="8" fill="none" fill-rule="evenodd" transform="matrix(-1 -8.74228e-08 -8.74228e-08 1 1058.95 401)"/><path d="M0 0 85.4494 115.977" stroke="#4472C4" stroke-width="2" stroke-miterlimit="8" fill="none" fill-rule="evenodd" transform="matrix(-1 -8.74228e-08 -8.74228e-08 1 1053.45 518)"/><path d="M952 393 1052.95 394.806" stroke="#ED7D31" stroke-width="2" stroke-miterlimit="8" fill="none" fill-rule="evenodd"/><path d="M0 0 99.003 0.000104987" stroke="#ED7D31" stroke-width="2" stroke-miterlimit="8" fill="none" fill-rule="evenodd" transform="matrix(-1 -8.74228e-08 -8.74228e-08 1 940.003 393)"/><path d="M0 0 99.003 0.000104987" stroke="#ED7D31" stroke-width="2" stroke-miterlimit="8" fill="none" fill-rule="evenodd" transform="matrix(-1 -8.74228e-08 -8.74228e-08 1 827.003 514)"/><path d="M0 0 111.333 0.000104987" stroke="#ED7D31" stroke-width="2" stroke-miterlimit="8" fill="none" fill-rule="evenodd" transform="matrix(-1 -8.74228e-08 -8.74228e-08 1 951.333 514)"/><path d="M0 0 99.003 0.000104987" stroke="#ED7D31" stroke-width="2" stroke-miterlimit="8" fill="none" fill-rule="evenodd" transform="matrix(-1 -8.74228e-08 -8.74228e-08 1 1163 514)"/><path d="M560.5 452.5 650.891 452.5 650.891 450.5 659.5 454.5 650.891 458.5 650.891 456.5 560.5 456.5Z" stroke="#2F528F" stroke-miterlimit="8" fill="#4472C4" fill-rule="evenodd"/></g></svg>