<svg width="547" height="333" xmlns="http://www.w3.org/2000/svg" xmlns:xlink="http://www.w3.org/1999/xlink" overflow="hidden"><defs><clipPath id="clip0"><path d="M301 102 848 102 848 435 301 435Z" fill-rule="evenodd" clip-rule="evenodd"/></clipPath></defs><g clip-path="url(#clip0)" transform="translate(-301 -102)"><rect x="301" y="102" width="546" height="298" fill="#DEEBF7"/><path d="M369 232.5C369 177.548 413.324 133 468 133 522.676 133 567 177.548 567 232.5 567 287.452 522.676 332 468 332 413.324 332 369 287.452 369 232.5Z" fill="#FFF2CC" fill-rule="evenodd"/><path d="M588 232.5C588 177.548 632.548 133 687.5 133 742.452 133 787 177.548 787 232.5 787 287.452 742.452 332 687.5 332 632.548 332 588 287.452 588 232.5Z" fill="#FFF2CC" fill-rule="evenodd"/><path d="M638.128 161.719C639.043 158.439 642.443 156.522 645.723 157.437 649.002 158.352 650.919 161.752 650.005 165.032 649.09 168.311 645.689 170.228 642.41 169.314 639.13 168.399 637.213 164.998 638.128 161.719Z" fill="#2F5597" fill-rule="evenodd"/><path d="M606.776 274.113C607.691 270.833 611.092 268.916 614.371 269.831 617.651 270.746 619.568 274.146 618.653 277.426 617.739 280.706 614.338 282.623 611.058 281.708 607.779 280.793 605.862 277.393 606.776 274.113Z" fill="#2F5597" fill-rule="evenodd"/><path d="M642.41 169.314 614.372 269.831" stroke="#4472C4" stroke-width="2" stroke-miterlimit="8" fill="none" fill-rule="evenodd"/><path d="M756.944 194.861C757.858 191.581 761.259 189.664 764.539 190.579 767.818 191.494 769.735 194.894 768.82 198.174 767.906 201.454 764.505 203.371 761.226 202.456 757.946 201.541 756.029 198.141 756.944 194.861Z" fill="#2F5597" fill-rule="evenodd"/><path d="M725.592 307.256C726.507 303.976 729.908 302.059 733.187 302.974 736.467 303.888 738.384 307.289 737.469 310.568 736.554 313.848 733.154 315.765 729.874 314.85 726.595 313.936 724.678 310.535 725.592 307.256Z" fill="#2F5597" fill-rule="evenodd"/><path d="M761.226 202.456 733.187 302.974" stroke="#4472C4" stroke-width="2" stroke-miterlimit="8" fill="none" fill-rule="evenodd"/><path d="M646.152 163.957 756.944 194.861" stroke="#4472C4" stroke-width="2" stroke-miterlimit="8" fill="none" fill-rule="evenodd"/><path d="M618.654 277.426 725.592 307.256" stroke="#4472C4" stroke-width="2" stroke-miterlimit="8" fill="none" fill-rule="evenodd"/><text font-family="Cambria Math,Cambria Math_MSFontService,sans-serif" font-weight="400" font-size="27" transform="translate(673.067 369)">𝐺′<tspan font-size="20" x="23.6666" y="5">2</tspan></text><path d="M443.158 175.071C444.15 171.814 447.595 169.979 450.852 170.971 454.109 171.964 455.945 175.409 454.952 178.666 453.96 181.923 450.515 183.759 447.258 182.766 444.001 181.774 442.165 178.329 443.158 175.071Z" fill="#2F5597" fill-rule="evenodd"/><path d="M409.141 286.688C410.134 283.431 413.579 281.595 416.836 282.588 420.093 283.581 421.929 287.026 420.936 290.283 419.943 293.54 416.498 295.375 413.241 294.383 409.984 293.39 408.149 289.945 409.141 286.688Z" fill="#2F5597" fill-rule="evenodd"/><path d="M447.258 182.766 416.836 282.588" stroke="#4472C4" stroke-width="2" stroke-miterlimit="8" fill="none" fill-rule="evenodd"/><path d="M524.448 258.68C525.441 255.423 528.886 253.587 532.143 254.58 535.4 255.572 537.235 259.017 536.243 262.274 535.25 265.531 531.805 267.367 528.548 266.374 525.291 265.382 523.456 261.937 524.448 258.68Z" fill="#2F5597" fill-rule="evenodd"/><path d="M451.954 182.31 527.446 255.036" stroke="#4472C4" stroke-width="2" stroke-miterlimit="8" fill="none" fill-rule="evenodd"/><path d="M0 0 93.4146 51.6878" stroke="#4472C4" stroke-width="2" stroke-miterlimit="8" fill="none" fill-rule="evenodd" transform="matrix(0.956564 0.291523 0.291523 -0.956564 420.479 285.586)"/><text font-family="Cambria Math,Cambria Math_MSFontService,sans-serif" font-weight="400" font-size="27" transform="translate(453.604 366)">𝐺′<tspan font-size="20" x="23.0467" y="6">1</tspan><tspan x="112.843" y="61">𝐺</tspan></text></g></svg>