<svg width="366" height="200" xmlns="http://www.w3.org/2000/svg" xmlns:xlink="http://www.w3.org/1999/xlink" overflow="hidden"><defs><clipPath id="clip0"><path d="M665 348 1031 348 1031 548 665 548Z" fill-rule="evenodd" clip-rule="evenodd"/></clipPath></defs><g clip-path="url(#clip0)" transform="translate(-665 -348)"><text font-family="Source Han Serif CN,Source Han Serif CN_MSFontService,sans-serif" font-weight="400" font-size="19" transform="translate(795.401 372)">b</text><path d="M795 504C795 500.686 797.686 498 801 498 804.314 498 807 500.686 807 504 807 507.314 804.314 510 801 510 797.686 510 795 507.314 795 504Z" fill="#2F5597" fill-rule="evenodd"/><path d="M801 394 801 498.355" stroke="#4472C4" stroke-width="2" stroke-miterlimit="8" fill="none" fill-rule="evenodd"/><path d="M918 387.5C918 383.91 920.686 381 924 381 927.314 381 930 383.91 930 387.5 930 391.09 927.314 394 924 394 920.686 394 918 391.09 918 387.5Z" fill="#2F5597" fill-rule="evenodd"/><path d="M989 504C989 500.686 991.91 498 995.5 498 999.09 498 1002 500.686 1002 504 1002 507.314 999.09 510 995.5 510 991.91 510 989 507.314 989 504Z" fill="#2F5597" fill-rule="evenodd"/><path d="M924 394 995.333 498.355" stroke="#4472C4" stroke-width="2" stroke-miterlimit="8" fill="none" fill-rule="evenodd"/><path d="M803 388 918.021 388" stroke="#4472C4" stroke-width="2" stroke-miterlimit="8" fill="none" fill-rule="evenodd"/><path d="M807 504 989.355 504" stroke="#4472C4" stroke-width="2" stroke-miterlimit="8" fill="none" fill-rule="evenodd"/><path d="M805 392 990.966 499.966" stroke="#4472C4" stroke-width="2" stroke-miterlimit="8" fill="none" fill-rule="evenodd"/><path d="M699 446.5C699 442.91 701.686 440 705 440 708.314 440 711 442.91 711 446.5 711 450.09 708.314 453 705 453 701.686 453 699 450.09 699 446.5Z" fill="#2F5597" fill-rule="evenodd"/><path d="M0 0 87.2536 50.3307" stroke="#4472C4" stroke-width="2" stroke-miterlimit="8" fill="none" fill-rule="evenodd" transform="matrix(1 0 0 -1 709 442.331)"/><path d="M709 451 794.448 504.276" stroke="#4472C4" stroke-width="2" stroke-miterlimit="8" fill="none" fill-rule="evenodd"/><path d="M795 387.5C795 383.91 797.686 381 801 381 804.314 381 807 383.91 807 387.5 807 391.09 804.314 394 801 394 797.686 394 795 391.09 795 387.5Z" fill="#2F5597" fill-rule="evenodd"/><text font-family="Source Han Serif CN,Source Han Serif CN_MSFontService,sans-serif" font-weight="400" font-size="19" transform="translate(740.115 415)">1<tspan x="-0.341309" y="80">2</tspan><tspan x="45.2115" y="37">3</tspan><tspan x="119.134" y="-33">4</tspan><tspan x="157.6" y="27">5</tspan><tspan x="137.521" y="112">6</tspan><tspan x="230.505" y="37">7</tspan><tspan x="-63.1962" y="38">a</tspan><tspan x="56.3251" y="116">c</tspan><tspan x="267.04" y="108">d</tspan><tspan x="195.765" y="-37">e</tspan></text></g></svg>