<svg width="747" height="197" xmlns="http://www.w3.org/2000/svg" xmlns:xlink="http://www.w3.org/1999/xlink" overflow="hidden"><defs><clipPath id="clip0"><path d="M229 163 976 163 976 360 229 360Z" fill-rule="evenodd" clip-rule="evenodd"/></clipPath></defs><g clip-path="url(#clip0)" transform="translate(-229 -163)"><path d="M0 0 0.000104987 104.355" stroke="#4472C4" stroke-width="2" stroke-miterlimit="8" fill="none" fill-rule="evenodd" transform="matrix(1 0 0 -1 359 280.355)"/><path d="M602 287C602 283.686 604.686 281 608 281 611.314 281 614 283.686 614 287 614 290.314 611.314 293 608 293 604.686 293 602 290.314 602 287Z" fill="#2F5597" fill-rule="evenodd"/><path d="M608 176 608 280.355" stroke="#4472C4" stroke-width="2" stroke-miterlimit="8" fill="none" fill-rule="evenodd"/><path d="M725 170C725 166.686 727.686 164 731 164 734.314 164 737 166.686 737 170 737 173.314 734.314 176 731 176 727.686 176 725 173.314 725 170Z" fill="#2F5597" fill-rule="evenodd"/><path d="M725 287C725 283.686 727.686 281 731 281 734.314 281 737 283.686 737 287 737 290.314 734.314 293 731 293 727.686 293 725 290.314 725 287Z" fill="#2F5597" fill-rule="evenodd"/><path d="M731 176 731 280.355" stroke="#4472C4" stroke-width="2" stroke-miterlimit="8" fill="none" fill-rule="evenodd"/><path d="M610 170 725.021 170" stroke="#4472C4" stroke-width="2" stroke-miterlimit="8" fill="none" fill-rule="evenodd"/><path d="M614 287 725.021 287" stroke="#4472C4" stroke-width="2" stroke-miterlimit="8" fill="none" fill-rule="evenodd"/><text font-family="Cambria Math,Cambria Math_MSFontService,sans-serif" font-weight="400" font-size="27" transform="translate(619.795 336)">2<tspan font-family="Source Han Serif CN,Source Han Serif CN_MSFontService,sans-serif" x="14.8334" y="0">-</tspan><tspan font-family="Source Han Serif CN,Source Han Serif CN_MSFontService,sans-serif" x="23.8334" y="0">正则图</tspan></text><path d="M353 170C353 166.686 355.686 164 359 164 362.314 164 365 166.686 365 170 365 173.314 362.314 176 359 176 355.686 176 353 173.314 353 170Z" fill="#2F5597" fill-rule="evenodd"/><path d="M476 170C476 166.686 478.686 164 482 164 485.314 164 488 166.686 488 170 488 173.314 485.314 176 482 176 478.686 176 476 173.314 476 170Z" fill="#2F5597" fill-rule="evenodd"/><path d="M0 0 0.000104987 104.355" stroke="#4472C4" stroke-width="2" stroke-miterlimit="8" fill="none" fill-rule="evenodd" transform="matrix(1 0 0 -1 482 280.355)"/><path d="M229 170C229 166.686 231.91 164 235.5 164 239.09 164 242 166.686 242 170 242 173.314 239.09 176 235.5 176 231.91 176 229 173.314 229 170Z" fill="#2F5597" fill-rule="evenodd"/><path d="M476 287C476 283.686 478.686 281 482 281 485.314 281 488 283.686 488 287 488 290.314 485.314 293 482 293 478.686 293 476 290.314 476 287Z" fill="#2F5597" fill-rule="evenodd"/><path d="M0 0 116.827 112.326" stroke="#4472C4" stroke-width="2" stroke-miterlimit="8" fill="none" fill-rule="evenodd" transform="matrix(1 0 0 -1 361 287.326)"/><path d="M229 287C229 283.686 231.91 281 235.5 281 239.09 281 242 283.686 242 287 242 290.314 239.09 293 235.5 293 231.91 293 229 290.314 229 287Z" fill="#2F5597" fill-rule="evenodd"/><path d="M353 287C353 283.686 355.686 281 359 281 362.314 281 365 283.686 365 287 365 290.314 362.314 293 359 293 355.686 293 353 290.314 353 287Z" fill="#2F5597" fill-rule="evenodd"/><path d="M602 170C602 166.686 604.686 164 608 164 611.314 164 614 166.686 614 170 614 173.314 611.314 176 608 176 604.686 176 602 173.314 602 170Z" fill="#2F5597" fill-rule="evenodd"/><path d="M0 0 114.633 107.966" stroke="#4472C4" stroke-width="2" stroke-miterlimit="8" fill="none" fill-rule="evenodd" transform="matrix(1 0 0 -1 240 282.966)"/><path d="M236 176 236 280.355" stroke="#4472C4" stroke-width="2" stroke-miterlimit="8" fill="none" fill-rule="evenodd"/><path d="M354.633 282.966 240 175" stroke="#4472C4" stroke-width="2" stroke-miterlimit="8" fill="none" fill-rule="evenodd"/><path d="M0 0 234.373 116.685" stroke="#4472C4" stroke-width="2" stroke-miterlimit="8" fill="none" fill-rule="evenodd" transform="matrix(1 0 0 -1 242 286.685)"/><path d="M476.373 286.685 242 170" stroke="#4472C4" stroke-width="2" stroke-miterlimit="8" fill="none" fill-rule="evenodd"/><path d="M363 175 477.633 282.966" stroke="#4472C4" stroke-width="2" stroke-miterlimit="8" fill="none" fill-rule="evenodd"/><path d="M867 172C867 168.686 869.686 166 873 166 876.314 166 879 168.686 879 172 879 175.314 876.314 178 873 178 869.686 178 867 175.314 867 172Z" fill="#2F5597" fill-rule="evenodd"/><path d="M893 289C893 285.686 895.91 283 899.5 283 903.09 283 906 285.686 906 289 906 292.314 903.09 295 899.5 295 895.91 295 893 292.314 893 289Z" fill="#2F5597" fill-rule="evenodd"/><path d="M873 178 899.572 282.355" stroke="#4472C4" stroke-width="2" stroke-miterlimit="8" fill="none" fill-rule="evenodd"/><path d="M957 234C957 230.686 959.91 228 963.5 228 967.09 228 970 230.686 970 234 970 237.314 967.09 240 963.5 240 959.91 240 957 237.314 957 234Z" fill="#2F5597" fill-rule="evenodd"/><path d="M877 176 959.11 229.267" stroke="#4472C4" stroke-width="2" stroke-miterlimit="8" fill="none" fill-rule="evenodd"/><path d="M0 0 53.7329 50.3402" stroke="#4472C4" stroke-width="2" stroke-miterlimit="8" fill="none" fill-rule="evenodd" transform="matrix(1 0 0 -1 906 288.34)"/><path d="M935 178C935 174.686 937.686 172 941 172 944.314 172 947 174.686 947 178 947 181.314 944.314 184 941 184 937.686 184 935 181.314 935 178Z" fill="#2F5597" fill-rule="evenodd"/><path d="M839 239C839 235.686 841.91 233 845.5 233 849.09 233 852 235.686 852 239 852 242.314 849.09 245 845.5 245 841.91 245 839 242.314 839 239Z" fill="#2F5597" fill-rule="evenodd"/><path d="M0 0 86.924 51.914" stroke="#4472C4" stroke-width="2" stroke-miterlimit="8" fill="none" fill-rule="evenodd" transform="matrix(1 0 0 -1 850 234.914)"/><path d="M850 243 893.236 288.523" stroke="#4472C4" stroke-width="2" stroke-miterlimit="8" fill="none" fill-rule="evenodd"/><path d="M0 0 105.687 4.81753" stroke="#4472C4" stroke-width="2" stroke-miterlimit="8" fill="none" fill-rule="evenodd" transform="matrix(1 0 0 -1 852 238.818)"/><path d="M0 0 22.8291 56.2785" stroke="#4472C4" stroke-width="2" stroke-miterlimit="8" fill="none" fill-rule="evenodd" transform="matrix(1 0 0 -1 846 232.279)"/><path d="M879 172 935.124 178.17" stroke="#4472C4" stroke-width="2" stroke-miterlimit="8" fill="none" fill-rule="evenodd"/><path d="M946 183 959.656 230.096" stroke="#4472C4" stroke-width="2" stroke-miterlimit="8" fill="none" fill-rule="evenodd"/><path d="M0 0 41.8825 98.1845" stroke="#4472C4" stroke-width="2" stroke-miterlimit="8" fill="none" fill-rule="evenodd" transform="matrix(1 0 0 -1 899 282.184)"/><text font-family="Cambria Math,Cambria Math_MSFontService,sans-serif" font-weight="400" font-size="27" transform="translate(306.37 336)">3<tspan font-family="Source Han Serif CN,Source Han Serif CN_MSFontService,sans-serif" x="14.8333" y="0">-</tspan><tspan font-family="Source Han Serif CN,Source Han Serif CN_MSFontService,sans-serif" x="23.8333" y="0">正则图</tspan><tspan x="549.058" y="2">4</tspan><tspan font-family="Source Han Serif CN,Source Han Serif CN_MSFontService,sans-serif" x="563.892" y="2">-</tspan><tspan font-family="Source Han Serif CN,Source Han Serif CN_MSFontService,sans-serif" x="572.892" y="2">正则图</tspan></text></g></svg>