<svg width="427" height="182" xmlns="http://www.w3.org/2000/svg" xmlns:xlink="http://www.w3.org/1999/xlink" overflow="hidden"><defs><clipPath id="clip0"><path d="M51 492 478 492 478 674 51 674Z" fill-rule="evenodd" clip-rule="evenodd"/></clipPath></defs><g clip-path="url(#clip0)" transform="translate(-51 -492)"><path d="M79 499C79 495.686 81.6863 493 85 493 88.3137 493 91 495.686 91 499 91 502.314 88.3137 505 85 505 81.6863 505 79 502.314 79 499Z" fill="#2F5597" fill-rule="evenodd"/><path d="M105 615.5C105 611.91 107.686 609 111 609 114.314 609 117 611.91 117 615.5 117 619.09 114.314 622 111 622 107.686 622 105 619.09 105 615.5Z" fill="#2F5597" fill-rule="evenodd"/><path d="M169 561C169 557.686 171.91 555 175.5 555 179.09 555 182 557.686 182 561 182 564.314 179.09 567 175.5 567 171.91 567 169 564.314 169 561Z" fill="#2F5597" fill-rule="evenodd"/><path d="M0 0 55.5387 45.9808" stroke="#4472C4" stroke-width="2" stroke-miterlimit="8" fill="none" fill-rule="evenodd" transform="matrix(1 0 0 -1 116 610.981)"/><path d="M147 505C147 501.686 149.686 499 153 499 156.314 499 159 501.686 159 505 159 508.314 156.314 511 153 511 149.686 511 147 508.314 147 505Z" fill="#2F5597" fill-rule="evenodd"/><path d="M51 565.5C51 561.91 53.9101 559 57.5 559 61.0899 559 64 561.91 64 565.5 64 569.09 61.0899 572 57.5 572 53.9101 572 51 569.09 51 565.5Z" fill="#2F5597" fill-rule="evenodd"/><path d="M62 570 107.041 611.163" stroke="#4472C4" stroke-width="2" stroke-miterlimit="8" fill="none" fill-rule="evenodd"/><path d="M0 0 22.8291 56.2785" stroke="#4472C4" stroke-width="2" stroke-miterlimit="8" fill="none" fill-rule="evenodd" transform="matrix(1 0 0 -1 58 559.279)"/><path d="M91 499 147.124 505.17" stroke="#4472C4" stroke-width="2" stroke-miterlimit="8" fill="none" fill-rule="evenodd"/><path d="M158 509 176.016 554.291" stroke="#4472C4" stroke-width="2" stroke-miterlimit="8" fill="none" fill-rule="evenodd"/><path d="M374 499C374 495.686 376.686 493 380 493 383.314 493 386 495.686 386 499 386 502.314 383.314 505 380 505 376.686 505 374 502.314 374 499Z" fill="#2F5597" fill-rule="evenodd"/><path d="M400 615.5C400 611.91 402.91 609 406.5 609 410.09 609 413 611.91 413 615.5 413 619.09 410.09 622 406.5 622 402.91 622 400 619.09 400 615.5Z" fill="#2F5597" fill-rule="evenodd"/><path d="M380 505 406.572 609.355" stroke="#4472C4" stroke-width="2" stroke-miterlimit="8" fill="none" fill-rule="evenodd"/><path d="M465 561C465 557.686 467.686 555 471 555 474.314 555 477 557.686 477 561 477 564.314 474.314 567 471 567 467.686 567 465 564.314 465 561Z" fill="#2F5597" fill-rule="evenodd"/><path d="M384 503 466.11 556.267" stroke="#4472C4" stroke-width="2" stroke-miterlimit="8" fill="none" fill-rule="evenodd"/><path d="M442 505C442 501.686 444.686 499 448 499 451.314 499 454 501.686 454 505 454 508.314 451.314 511 448 511 444.686 511 442 508.314 442 505Z" fill="#2F5597" fill-rule="evenodd"/><path d="M347 565.5C347 561.91 349.686 559 353 559 356.314 559 359 561.91 359 565.5 359 569.09 356.314 572 353 572 349.686 572 347 569.09 347 565.5Z" fill="#2F5597" fill-rule="evenodd"/><path d="M0 0 86.924 51.914" stroke="#4472C4" stroke-width="2" stroke-miterlimit="8" fill="none" fill-rule="evenodd" transform="matrix(1 0 0 -1 357 560.914)"/><path d="M0 0 105.687 4.81753" stroke="#4472C4" stroke-width="2" stroke-miterlimit="8" fill="none" fill-rule="evenodd" transform="matrix(1 0 0 -1 359 565.818)"/><path d="M0 0 41.8825 98.1845" stroke="#4472C4" stroke-width="2" stroke-miterlimit="8" fill="none" fill-rule="evenodd" transform="matrix(1 0 0 -1 406 609.184)"/><text font-family="Cambria Math,Cambria Math_MSFontService,sans-serif" font-weight="400" font-size="27" transform="translate(97.3176 666)">𝐺<tspan font-size="20" x="15.4333" y="6">1</tspan><tspan x="305.104" y="0">𝐺</tspan><tspan font-size="20" x="321.157" y="6">2</tspan></text></g></svg>