<svg width="193" height="190" xmlns="http://www.w3.org/2000/svg" xmlns:xlink="http://www.w3.org/1999/xlink" overflow="hidden"><defs><clipPath id="clip0"><path d="M576 133 769 133 769 323 576 323Z" fill-rule="evenodd" clip-rule="evenodd"/></clipPath></defs><g clip-path="url(#clip0)" transform="translate(-576 -133)"><path d="M602 170C602 166.686 604.686 164 608 164 611.314 164 614 166.686 614 170 614 173.314 611.314 176 608 176 604.686 176 602 173.314 602 170Z" fill="#2F5597" fill-rule="evenodd"/><path d="M602 287C602 283.686 604.686 281 608 281 611.314 281 614 283.686 614 287 614 290.314 611.314 293 608 293 604.686 293 602 290.314 602 287Z" fill="#2F5597" fill-rule="evenodd"/><path d="M725 170C725 166.686 727.686 164 731 164 734.314 164 737 166.686 737 170 737 173.314 734.314 176 731 176 727.686 176 725 173.314 725 170Z" fill="#2F5597" fill-rule="evenodd"/><path d="M725 287C725 283.686 727.686 281 731 281 734.314 281 737 283.686 737 287 737 290.314 734.314 293 731 293 727.686 293 725 290.314 725 287Z" fill="#2F5597" fill-rule="evenodd"/><path d="M725.947 283.694 616.167 180.299 617.539 178.843 727.318 282.238ZM615.081 183.397 612 175 620.566 177.573Z" fill="#4472C4"/><path d="M1-1.00606e-06 1.0001 97.6881-0.999902 97.6881-1 1.00606e-06ZM4.0001 96.3547 0.000104987 104.355-3.9999 96.3548Z" fill="#4472C4" transform="matrix(1 0 0 -1 731 280.355)"/><path d="M609 176 609 273.688 607 273.688 607 176ZM612 272.355 608 280.355 604 272.355Z" fill="#4472C4"/><path d="M9.45646e-07-1 104.355-0.999901 104.355 1.0001-9.45646e-07 1ZM103.021-3.9999 111.021 0.000104987 103.021 4.0001Z" fill="#4472C4" transform="matrix(-1 -8.74228e-08 -8.74228e-08 1 725.021 170)"/><path d="M614 286 718.355 286 718.355 288 614 288ZM717.021 283 725.021 287 717.021 291Z" fill="#4472C4"/><text font-family="Source Han Serif CN,Source Han Serif CN_MSFontService,sans-serif" font-weight="400" font-size="19" transform="translate(590.583 157)">b<tspan x="-3.01306" y="150">a</tspan><tspan x="154.52" y="14">d</tspan><tspan x="157.072" y="150">c</tspan><tspan x="75.1039" y="11">4</tspan><tspan x="66.6666" y="86">3</tspan><tspan x="70.5718" y="148">1</tspan><tspan x="2.54895" y="81">2</tspan><tspan x="147.611" y="82">5</tspan></text></g></svg>