<svg width="726" height="466" xmlns="http://www.w3.org/2000/svg" xmlns:xlink="http://www.w3.org/1999/xlink" overflow="hidden"><defs><clipPath id="clip0"><path d="M240 83 966 83 966 549 240 549Z" fill-rule="evenodd" clip-rule="evenodd"/></clipPath></defs><g clip-path="url(#clip0)" transform="translate(-240 -83)"><path d="M287.5 427.5 294.5 303.5 308.5 303.5 315.5 427.5Z" stroke="#385723" stroke-miterlimit="8" fill="#385723" fill-rule="evenodd"/><path d="M310.5 365 320.5 348.5 330.5 348.5 310.5 381.5Z" stroke="#385723" stroke-miterlimit="8" fill="#385723" fill-rule="evenodd"/><path d="M346.929 334.919C346.841 345.005 338.433 353.063 328.148 352.918 323.98 352.859 319.945 351.431 316.688 348.862 311.888 355.27 302.684 356.616 296.131 351.867 294.985 351.037 293.967 350.048 293.108 348.933 289.318 354.273 281.818 355.562 276.355 351.812 274.844 350.774 273.592 349.411 272.698 347.828 267.157 352.589 258.693 352.028 253.791 346.575 251.731 344.283 250.545 341.366 250.437 338.325 242.987 335.105 239.572 326.574 242.809 319.27 243.081 318.656 243.396 318.061 243.753 317.491 238.704 308.636 241.907 297.486 250.907 292.587 253.708 291.062 256.868 290.274 260.08 290.298 261.411 281.77 269.551 275.957 278.26 277.313 281.17 277.767 283.901 278.999 286.149 280.875 290.512 271.739 301.599 267.848 310.912 272.185 314.815 274.003 317.963 277.092 319.819 280.927 330.663 276.505 343.14 281.588 347.687 292.281 347.745 292.416 347.8 292.551 347.855 292.687 354.493 292.902 359.731 298.34 359.555 304.832 359.461 308.293 357.813 311.527 355.05 313.673 360.22 317.768 361.062 325.205 356.929 330.284 354.545 333.214 350.883 334.843 347.068 334.67Z" stroke="#548235" stroke-width="1.33333" stroke-miterlimit="8" fill="#548235" fill-rule="evenodd"/><path d="M348.192 311.397C350.632 311.569 352.964 312.471 354.875 313.985M344.624 293.356C345.65 293.121 346.704 293.019 347.76 293.054M319.775 281.27C320.346 282.451 320.788 283.687 321.093 284.959M284.811 284.818C285.106 283.562 285.536 282.34 286.093 281.174M266.915 305.864C261.83 302.446 259.183 296.481 260.112 290.53M243.778 317.707C244.963 315.809 246.582 314.209 248.506 313.032M250.378 338.617C250.348 337.776 250.401 336.934 250.536 336.103M275.185 345.242C274.501 346.311 273.662 347.277 272.693 348.109M294.342 346.529C293.992 347.445 293.527 348.314 292.958 349.115M316.699 348.884C315.52 347.954 314.46 346.888 313.542 345.71M346.722 332.039C346.868 332.993 346.937 333.956 346.929 334.919" stroke="#548235" stroke-width="1.33333" stroke-miterlimit="8" fill="none" fill-rule="evenodd"/><path d="M275.781 369.445 293.388 375.575 299.127 387.443 263.913 375.184Z" stroke="#385723" stroke-width="1.33333" stroke-miterlimit="8" fill="#385723" fill-rule="evenodd"/><path d="M279.36 370.923C280.442 373.793 278.941 377.001 276.008 378.089 274.82 378.529 273.519 378.567 272.313 378.196 271.655 380.54 269.193 381.931 266.813 381.304 266.397 381.194 266 381.026 265.634 380.803 265.145 382.734 263.16 383.922 261.199 383.458 260.656 383.33 260.152 383.081 259.724 382.73 258.676 384.688 256.213 385.458 254.225 384.449 253.389 384.025 252.733 383.328 252.369 382.477 249.902 382.382 247.998 380.337 248.114 377.91 248.124 377.706 248.148 377.503 248.187 377.302 245.783 375.345 245.468 371.832 247.483 369.455 248.11 368.715 248.919 368.144 249.833 367.799 249.275 365.234 250.945 362.692 253.564 362.121 254.439 361.931 255.349 361.981 256.192 362.266 256.427 359.196 259.145 356.876 262.262 357.084 263.568 357.171 264.8 357.702 265.747 358.586 268.337 356.142 272.433 356.214 274.896 358.748 274.927 358.78 274.958 358.812 274.988 358.845 276.894 358.177 278.977 359.145 279.639 361.005 279.992 361.997 279.88 363.095 279.332 364.007 281.247 364.601 282.302 366.618 281.687 368.512 281.333 369.604 280.473 370.468 279.372 370.837Z" stroke="#548235" stroke-width="1.33333" stroke-miterlimit="8" fill="#548235" fill-rule="evenodd"/><path d="M277.137 364.114C277.848 363.895 278.608 363.895 279.316 364.115M274.145 359.389C274.411 359.21 274.698 359.065 275.001 358.959M265.772 358.688C266.064 358.96 266.325 359.262 266.55 359.59M256.246 363.531C256.191 363.142 256.179 362.749 256.209 362.357M253.48 371.463C251.662 371.052 250.257 369.651 249.868 367.861M248.217 377.361C248.345 376.692 248.629 376.061 249.045 375.516M252.384 382.567C252.283 382.331 252.205 382.087 252.153 381.836M260.146 381.723C260.069 382.102 259.937 382.468 259.754 382.81M265.72 379.986C265.721 380.284 265.685 380.582 265.611 380.872M272.319 378.201C271.883 378.067 271.465 377.881 271.075 377.647M278.985 370.129C279.131 370.384 279.257 370.649 279.36 370.923" stroke="#548235" stroke-width="1.33333" stroke-miterlimit="8" fill="none" fill-rule="evenodd"/><path d="M489.5 427.5 496.5 303.5 510.5 303.5 517.5 427.5Z" stroke="#385723" stroke-miterlimit="8" fill="#385723" fill-rule="evenodd"/><path d="M513.5 366 523.5 349.5 533.5 349.5 513.5 382.5Z" stroke="#385723" stroke-miterlimit="8" fill="#385723" fill-rule="evenodd"/><path d="M549.687 335.434C549.599 345.519 541.191 353.577 530.906 353.432 526.738 353.373 522.703 351.945 519.446 349.376 514.646 355.784 505.442 357.13 498.889 352.381 497.743 351.551 496.725 350.563 495.866 349.447 492.076 354.787 484.576 356.076 479.113 352.326 477.602 351.288 476.35 349.925 475.456 348.342 469.915 353.103 461.451 352.542 456.549 347.089 454.489 344.797 453.303 341.88 453.195 338.839 445.745 335.62 442.33 327.088 445.567 319.784 445.839 319.17 446.154 318.576 446.511 318.005 441.462 309.15 444.665 298 453.665 293.102 456.466 291.577 459.626 290.788 462.838 290.812 464.169 282.284 472.309 276.471 481.018 277.828 483.928 278.281 486.659 279.513 488.907 281.389 493.27 272.253 504.357 268.362 513.67 272.699 517.573 274.517 520.721 277.606 522.577 281.441 533.421 277.019 545.898 282.103 550.445 292.795 550.503 292.93 550.558 293.065 550.613 293.201 557.251 293.417 562.489 298.854 562.313 305.347 562.219 308.807 560.571 312.041 557.808 314.187 562.978 318.283 563.82 325.72 559.687 330.799 557.303 333.729 553.641 335.357 549.826 335.184Z" stroke="#548235" stroke-width="1.33333" stroke-miterlimit="8" fill="#548235" fill-rule="evenodd"/><path d="M550.95 311.912C553.39 312.083 555.722 312.986 557.633 314.499M547.382 293.871C548.408 293.635 549.462 293.534 550.518 293.568M522.533 281.784C523.104 282.965 523.546 284.202 523.851 285.473M487.569 285.333C487.864 284.076 488.294 282.854 488.851 281.688M469.673 306.378C464.588 302.96 461.941 296.995 462.87 291.044M446.536 318.221C447.721 316.323 449.34 314.723 451.264 313.547M453.136 339.131C453.106 338.29 453.159 337.448 453.294 336.617M477.943 345.756C477.259 346.825 476.42 347.791 475.451 348.624M497.1 347.043C496.75 347.959 496.285 348.828 495.716 349.63M519.457 349.398C518.278 348.468 517.218 347.403 516.3 346.224M549.48 332.554C549.626 333.507 549.695 334.47 549.687 335.433" stroke="#548235" stroke-width="1.33333" stroke-miterlimit="8" fill="none" fill-rule="evenodd"/><path d="M478.539 369.96 496.146 376.089 501.885 387.957 466.671 375.698Z" stroke="#385723" stroke-width="1.33333" stroke-miterlimit="8" fill="#385723" fill-rule="evenodd"/><path d="M482.118 371.438C483.2 374.308 481.699 377.516 478.766 378.603 477.578 379.043 476.277 379.081 475.071 378.71 474.413 381.054 471.951 382.446 469.571 381.818 469.155 381.708 468.758 381.54 468.392 381.318 467.903 383.248 465.918 384.437 463.957 383.972 463.414 383.844 462.91 383.595 462.482 383.244 461.434 385.202 458.971 385.972 456.983 384.963 456.147 384.539 455.491 383.842 455.127 382.992 452.66 382.896 450.756 380.851 450.872 378.425 450.882 378.221 450.906 378.017 450.945 377.817 448.541 375.859 448.226 372.346 450.241 369.969 450.868 369.229 451.678 368.659 452.591 368.313 452.033 365.748 453.703 363.207 456.322 362.636 457.197 362.445 458.107 362.495 458.95 362.78 459.185 359.71 461.903 357.39 465.02 357.598 466.326 357.686 467.558 358.216 468.505 359.1 471.095 356.656 475.191 356.729 477.654 359.262 477.685 359.294 477.716 359.326 477.746 359.359 479.652 358.692 481.735 359.659 482.397 361.52 482.75 362.511 482.638 363.609 482.09 364.521 484.005 365.115 485.06 367.132 484.445 369.026 484.091 370.118 483.231 370.982 482.13 371.352Z" stroke="#548235" stroke-width="1.33333" stroke-miterlimit="8" fill="#548235" fill-rule="evenodd"/><path d="M479.895 364.628C480.606 364.409 481.366 364.409 482.074 364.629M476.903 359.903C477.169 359.724 477.457 359.579 477.76 359.473M468.53 359.202C468.822 359.474 469.083 359.777 469.309 360.104M459.004 364.045C458.949 363.657 458.937 363.263 458.967 362.871M456.238 371.977C454.421 371.566 453.015 370.165 452.626 368.375M450.975 377.875C451.103 377.207 451.387 376.575 451.803 376.031M455.142 383.081C455.041 382.846 454.964 382.601 454.911 382.351M462.904 382.237C462.827 382.616 462.695 382.982 462.512 383.324M468.478 380.501C468.479 380.799 468.443 381.096 468.37 381.386M475.077 378.715C474.641 378.581 474.223 378.395 473.833 378.161M481.743 370.644C481.889 370.898 482.015 371.163 482.118 371.437" stroke="#548235" stroke-width="1.33333" stroke-miterlimit="8" fill="none" fill-rule="evenodd"/><path d="M686.5 427.5 693.5 303.5 707.5 303.5 714.5 427.5Z" stroke="#385723" stroke-miterlimit="8" fill="#385723" fill-rule="evenodd"/><path d="M710.5 365 720.5 348.5 730.5 348.5 710.5 381.5Z" stroke="#385723" stroke-miterlimit="8" fill="#385723" fill-rule="evenodd"/><path d="M746.609 335.045C746.522 345.131 738.113 353.189 727.828 353.043 723.66 352.984 719.625 351.556 716.368 348.987 711.568 355.396 702.364 356.741 695.811 351.993 694.666 351.162 693.647 350.174 692.788 349.059 688.998 354.398 681.498 355.687 676.036 351.938 674.524 350.9 673.272 349.537 672.378 347.954 666.837 352.715 658.373 352.153 653.471 346.7 651.411 344.408 650.226 341.492 650.117 338.45 642.667 335.231 639.252 326.7 642.489 319.395 642.761 318.781 643.076 318.187 643.433 317.616 638.384 308.762 641.587 297.612 650.587 292.713 653.388 291.188 656.548 290.399 659.76 290.423 661.091 281.896 669.231 276.082 677.941 277.439 680.851 277.892 683.581 279.125 685.829 281 690.192 271.864 701.279 267.973 710.592 272.311 714.495 274.128 717.643 277.218 719.499 281.053 730.343 276.631 742.821 281.714 747.367 292.407 747.425 292.541 747.481 292.677 747.535 292.813 754.173 293.028 759.411 298.466 759.235 304.958 759.141 308.418 757.493 311.653 754.73 313.798 759.9 317.894 760.742 325.331 756.609 330.41 754.225 333.34 750.563 334.969 746.748 334.795Z" stroke="#548235" stroke-width="1.33333" stroke-miterlimit="8" fill="#548235" fill-rule="evenodd"/><path d="M747.872 311.523C750.313 311.694 752.644 312.597 754.555 314.11M744.304 293.482C745.33 293.247 746.384 293.145 747.44 293.179M719.455 281.396C720.026 282.576 720.468 283.813 720.773 285.084M684.491 284.944C684.786 283.687 685.216 282.466 685.773 281.299M666.595 305.989C661.51 302.572 658.863 296.607 659.792 290.656M643.458 317.832C644.643 315.934 646.262 314.334 648.186 313.158M650.058 338.743C650.028 337.901 650.081 337.059 650.216 336.229M674.865 345.367C674.181 346.437 673.342 347.403 672.373 348.235M694.022 346.655C693.672 347.57 693.207 348.439 692.638 349.241M716.379 349.009C715.2 348.08 714.14 347.014 713.222 345.835M746.402 332.165C746.548 333.118 746.617 334.081 746.609 335.044" stroke="#548235" stroke-width="1.33333" stroke-miterlimit="8" fill="none" fill-rule="evenodd"/><path d="M675.461 369.571 693.068 375.7 698.807 387.568 663.593 375.31Z" stroke="#385723" stroke-width="1.33333" stroke-miterlimit="8" fill="#385723" fill-rule="evenodd"/><path d="M679.04 371.049C680.122 373.919 678.621 377.127 675.689 378.214 674.5 378.655 673.199 378.693 671.993 378.322 671.335 380.666 668.873 382.057 666.493 381.429 666.077 381.32 665.68 381.151 665.314 380.929 664.825 382.859 662.84 384.048 660.879 383.584 660.336 383.455 659.832 383.206 659.405 382.855 658.356 384.814 655.893 385.583 653.905 384.575 653.069 384.151 652.413 383.454 652.049 382.603 649.583 382.507 647.678 380.463 647.794 378.036 647.804 377.832 647.828 377.629 647.867 377.428 645.463 375.471 645.148 371.957 647.163 369.58 647.79 368.84 648.6 368.27 649.513 367.924 648.955 365.36 650.626 362.818 653.245 362.247 654.12 362.056 655.029 362.106 655.872 362.391 656.107 359.322 658.825 357.002 661.942 357.21 663.248 357.297 664.48 357.828 665.427 358.712 668.017 356.268 672.114 356.34 674.576 358.874 674.607 358.905 674.638 358.938 674.668 358.97 676.575 358.303 678.657 359.27 679.319 361.131 679.672 362.123 679.56 363.221 679.012 364.132 680.927 364.727 681.982 366.743 681.368 368.637 681.013 369.73 680.153 370.594 679.052 370.963Z" stroke="#548235" stroke-width="1.33333" stroke-miterlimit="8" fill="#548235" fill-rule="evenodd"/><path d="M676.817 364.24C677.528 364.02 678.288 364.021 678.996 364.24M673.826 359.515C674.091 359.335 674.379 359.191 674.682 359.085M665.452 358.814C665.744 359.086 666.005 359.388 666.231 359.715M655.926 363.657C655.872 363.268 655.859 362.874 655.889 362.482M653.16 371.589C651.343 371.178 649.938 369.776 649.548 367.987M647.898 377.486C648.026 376.818 648.309 376.187 648.726 375.642M652.064 382.692C651.963 382.457 651.886 382.212 651.833 381.962M659.826 381.849C659.75 382.227 659.617 382.593 659.434 382.936M665.4 380.112C665.402 380.41 665.365 380.707 665.292 380.997M671.999 378.326C671.563 378.192 671.145 378.006 670.756 377.773M678.665 370.255C678.811 370.509 678.937 370.775 679.04 371.049" stroke="#548235" stroke-width="1.33333" stroke-miterlimit="8" fill="none" fill-rule="evenodd"/><path d="M892.5 426.5 899.5 303.5 913.5 303.5 920.5 426.5Z" stroke="#385723" stroke-miterlimit="8" fill="#385723" fill-rule="evenodd"/><path d="M915.5 365 925.5 348.5 935.5 348.5 915.5 381.5Z" stroke="#385723" stroke-miterlimit="8" fill="#385723" fill-rule="evenodd"/><path d="M951.882 334.681C951.794 344.767 943.385 352.825 933.1 352.679 928.932 352.62 924.897 351.192 921.64 348.623 916.84 355.032 907.637 356.377 901.084 351.628 899.938 350.798 898.92 349.81 898.061 348.694 894.271 354.034 886.77 355.323 881.308 351.573 879.796 350.536 878.545 349.173 877.65 347.59 872.11 352.35 863.645 351.789 858.744 346.336 856.684 344.044 855.498 341.128 855.39 338.086 847.94 334.867 844.524 326.336 847.761 319.031 848.033 318.417 848.349 317.823 848.705 317.252 843.657 308.397 846.86 297.248 855.859 292.349 858.661 290.824 861.82 290.035 865.032 290.059 866.363 281.532 874.503 275.718 883.213 277.075 886.123 277.528 888.853 278.761 891.101 280.636 895.465 271.5 906.552 267.609 915.865 271.946 919.768 273.764 922.915 276.854 924.771 280.688 935.616 276.266 948.093 281.35 952.64 292.042 952.697 292.177 952.753 292.313 952.807 292.448 959.445 292.664 964.684 298.102 964.508 304.594 964.414 308.054 962.766 311.288 960.002 313.434 965.173 317.53 966.014 324.967 961.882 330.046 959.498 332.976 955.835 334.605 952.02 334.431Z" stroke="#548235" stroke-width="1.33333" stroke-miterlimit="8" fill="#548235" fill-rule="evenodd"/><path d="M953.145 311.159C955.585 311.33 957.917 312.233 959.827 313.746M949.576 293.118C950.603 292.883 951.657 292.781 952.712 292.815M924.727 281.032C925.299 282.212 925.74 283.449 926.045 284.72M889.763 284.58C890.058 283.323 890.488 282.102 891.045 280.935M871.868 305.625C866.782 302.208 864.136 296.242 865.065 290.292M848.73 317.468C849.916 315.57 851.534 313.97 853.458 312.794M855.33 338.379C855.3 337.537 855.353 336.695 855.488 335.865M880.138 345.003C879.454 346.073 878.614 347.039 877.646 347.871M899.294 346.29C898.944 347.206 898.48 348.075 897.91 348.877M921.651 348.645C920.473 347.716 919.413 346.65 918.495 345.471M951.674 331.801C951.821 332.754 951.89 333.717 951.881 334.68" stroke="#548235" stroke-width="1.33333" stroke-miterlimit="8" fill="none" fill-rule="evenodd"/><path d="M880.733 369.207 898.341 375.336 904.079 387.204 868.865 374.946Z" stroke="#385723" stroke-width="1.33333" stroke-miterlimit="8" fill="#385723" fill-rule="evenodd"/><path d="M884.312 370.685C885.394 373.555 883.894 376.763 880.961 377.85 879.772 378.291 878.471 378.328 877.266 377.957 876.608 380.301 874.145 381.693 871.766 381.065 871.35 380.956 870.952 380.787 870.586 380.565 870.098 382.495 868.112 383.684 866.151 383.22 865.609 383.091 865.104 382.842 864.677 382.491 863.628 384.449 861.166 385.219 859.177 384.21 858.342 383.786 857.685 383.089 857.321 382.239 854.855 382.143 852.95 380.099 853.067 377.672 853.076 377.468 853.101 377.265 853.139 377.064 850.736 375.107 850.421 371.593 852.435 369.216 853.062 368.476 853.872 367.906 854.786 367.56 854.227 364.996 855.898 362.454 858.517 361.883 859.392 361.692 860.301 361.742 861.145 362.027 861.38 358.957 864.097 356.638 867.214 356.846 868.52 356.933 869.752 357.464 870.699 358.347 873.29 355.903 877.386 355.976 879.849 358.509 879.88 358.541 879.91 358.574 879.941 358.606 881.847 357.939 883.929 358.906 884.592 360.767 884.945 361.758 884.832 362.857 884.284 363.768 886.2 364.362 887.254 366.379 886.64 368.273 886.285 369.366 885.425 370.229 884.324 370.599Z" stroke="#548235" stroke-width="1.33333" stroke-miterlimit="8" fill="#548235" fill-rule="evenodd"/><path d="M882.089 363.875C882.8 363.656 883.561 363.656 884.269 363.876M879.098 359.151C879.363 358.971 879.651 358.827 879.954 358.721M870.724 358.45C871.016 358.722 871.277 359.024 871.503 359.351M861.198 363.293C861.144 362.904 861.132 362.51 861.162 362.118M858.432 371.225C856.615 370.814 855.21 369.412 854.82 367.623M853.17 377.122C853.298 376.454 853.581 375.823 853.998 375.278M857.336 382.328C857.235 382.093 857.158 381.848 857.105 381.598M865.099 381.485C865.022 381.863 864.89 382.229 864.706 382.572M870.673 379.748C870.674 380.046 870.637 380.343 870.564 380.633M877.271 377.962C876.835 377.828 876.418 377.642 876.028 377.409M883.938 369.891C884.084 370.145 884.209 370.411 884.312 370.685" stroke="#548235" stroke-width="1.33333" stroke-miterlimit="8" fill="none" fill-rule="evenodd"/><path d="M586.5 108.5C586.5 96.3498 596.35 86.5001 608.5 86.5001 620.65 86.5001 630.5 96.3498 630.5 108.5 630.5 120.65 620.65 130.5 608.5 130.5 596.35 130.5 586.5 120.65 586.5 108.5Z" stroke="#000000" stroke-width="3" stroke-miterlimit="8" fill="#FFFFFF" fill-rule="evenodd"/><text fill="#002060" font-family="Source Han Serif CN,Source Han Serif CN_MSFontService,sans-serif" font-weight="700" font-size="27" transform="translate(601.814 118)">?</text><path d="M0.21183-0.452911 271.964 126.648 271.541 127.554-0.21183 0.452911ZM272.239 122.913 277.791 129.925 268.85 130.159Z" fill="#4472C4" transform="matrix(-1 -8.74228e-08 -8.74228e-08 1 608.291 130.5)"/><path d="M0.409591-0.286767 89.5731 127.066 88.754 127.639-0.409591 0.286767ZM91.6757 123.966 92.9873 132.814 85.1223 128.555Z" fill="#4472C4" transform="matrix(-1 -8.74228e-08 -8.74228e-08 1 608.487 130.5)"/><path d="M608.913 130.218 695.673 257.523 694.847 258.087 608.087 130.782ZM697.815 254.451 699.015 263.314 691.204 258.956Z" fill="#4472C4"/><path d="M608.715 130.049 881.306 259.994 880.876 260.897 608.285 130.951ZM881.608 256.261 887.109 263.314 878.166 263.482Z" fill="#4472C4"/><path d="M0.5-8.85534e-07 0.500093 52.6122-0.499907 52.6122-0.5 8.85534e-07ZM4.00009 51.2788 0.000104987 59.2788-3.99991 51.2789Z" fill="#4472C4" transform="matrix(-1 -8.74228e-08 -8.74228e-08 1 301.5 436.5)"/><text font-family="DengXian,DengXian_MSFontService,sans-serif" font-weight="400" font-size="24" transform="translate(276.39 527)">黑的</text><path d="M0.5-8.85534e-07 0.500093 52.6122-0.499907 52.6122-0.5 8.85534e-07ZM4.00009 51.2788 0.000104987 59.2788-3.99991 51.2789Z" fill="#4472C4" transform="matrix(-1 -8.74228e-08 -8.74228e-08 1 502.5 436.5)"/><text font-family="DengXian,DengXian_MSFontService,sans-serif" font-weight="400" font-size="24" transform="translate(477.557 527)">黑的</text><path d="M0.5-8.85534e-07 0.500093 52.6122-0.499907 52.6122-0.5 8.85534e-07ZM4.00009 51.2788 0.000104987 59.2788-3.99991 51.2789Z" fill="#4472C4" transform="matrix(-1 -8.74228e-08 -8.74228e-08 1 703.5 435.5)"/><text font-family="DengXian,DengXian_MSFontService,sans-serif" font-weight="400" font-size="24" transform="translate(679.124 526)">白的</text><path d="M0.5-8.85534e-07 0.500093 52.6122-0.499907 52.6122-0.5 8.85534e-07ZM4.00009 51.2788 0.000104987 59.2788-3.99991 51.2789Z" fill="#4472C4" transform="matrix(-1 -8.74228e-08 -8.74228e-08 1 905.5 435.5)"/><text font-family="DengXian,DengXian_MSFontService,sans-serif" font-weight="400" font-size="24" transform="translate(880.291 526)">黑的</text></g></svg>