<svg width="898" height="486" xmlns="http://www.w3.org/2000/svg" xmlns:xlink="http://www.w3.org/1999/xlink" overflow="hidden"><defs><clipPath id="clip0"><path d="M103 119 1001 119 1001 605 103 605Z" fill-rule="evenodd" clip-rule="evenodd"/></clipPath></defs><g clip-path="url(#clip0)" transform="translate(-103 -119)"><path d="M684.5 526.5 691 410.5 704 410.5 710.5 526.5Z" stroke="#385723" stroke-miterlimit="8" fill="#385723" fill-rule="evenodd"/><path d="M706.5 468.5 716 452.5 725.5 452.5 706.5 484.5Z" stroke="#385723" stroke-miterlimit="8" fill="#385723" fill-rule="evenodd"/><path d="M740.512 440C740.429 449.477 732.528 457.048 722.864 456.911 718.948 456.856 715.156 455.514 712.096 453.1 707.586 459.122 698.938 460.386 692.78 455.924 691.704 455.144 690.747 454.215 689.94 453.167 686.379 458.185 679.331 459.396 674.198 455.873 672.778 454.897 671.602 453.617 670.762 452.129 665.555 456.603 657.602 456.075 652.996 450.951 651.061 448.798 649.946 446.057 649.845 443.2 642.844 440.174 639.635 432.158 642.677 425.295 642.932 424.718 643.229 424.159 643.564 423.623 638.82 415.303 641.83 404.826 650.286 400.223 652.918 398.79 655.887 398.049 658.905 398.072 660.156 390.059 667.804 384.596 675.988 385.871 678.723 386.297 681.288 387.455 683.401 389.218 687.5 380.633 697.918 376.977 706.669 381.052 710.336 382.76 713.294 385.663 715.038 389.267 725.228 385.112 736.952 389.888 741.224 399.935 741.278 400.062 741.33 400.189 741.382 400.317 747.619 400.519 752.541 405.629 752.375 411.729 752.287 414.981 750.739 418.019 748.142 420.036 753 423.884 753.791 430.872 749.908 435.644 747.668 438.398 744.227 439.928 740.642 439.765Z" stroke="#548235" stroke-width="1.33333" stroke-miterlimit="8" fill="#548235" fill-rule="evenodd"/><path d="M741.699 417.898C743.991 418.059 746.183 418.907 747.978 420.329M738.346 400.946C739.31 400.725 740.301 400.629 741.292 400.661M714.997 389.589C715.534 390.698 715.949 391.86 716.235 393.055M682.143 392.923C682.421 391.742 682.824 390.595 683.348 389.499M665.328 412.698C660.55 409.487 658.063 403.882 658.936 398.29M643.587 423.826C644.701 422.043 646.222 420.539 648.03 419.434M649.789 443.474C649.76 442.684 649.81 441.892 649.937 441.112M673.099 449.699C672.456 450.704 671.667 451.611 670.757 452.393M691.099 450.908C690.77 451.769 690.333 452.585 689.799 453.339M712.106 453.121C710.999 452.248 710.003 451.246 709.14 450.139M740.317 437.294C740.454 438.189 740.52 439.094 740.512 439.999" stroke="#548235" stroke-width="1.33333" stroke-miterlimit="8" fill="none" fill-rule="evenodd"/><path d="M673.658 472.441 690.203 478.201 695.595 489.353 662.507 477.834Z" stroke="#385723" stroke-width="1.33333" stroke-miterlimit="8" fill="#385723" fill-rule="evenodd"/><path d="M677.022 473.83C678.038 476.527 676.628 479.541 673.872 480.563 672.756 480.977 671.533 481.013 670.4 480.664 669.782 482.866 667.468 484.174 665.232 483.584 664.841 483.481 664.468 483.323 664.124 483.114 663.665 484.928 661.799 486.045 659.957 485.609 659.447 485.488 658.973 485.254 658.571 484.924 657.586 486.764 655.272 487.487 653.404 486.539 652.619 486.141 652.002 485.486 651.659 484.687 649.342 484.597 647.552 482.676 647.662 480.396 647.671 480.204 647.694 480.013 647.73 479.824 645.472 477.985 645.176 474.684 647.069 472.45 647.658 471.755 648.419 471.219 649.277 470.894 648.753 468.485 650.322 466.096 652.783 465.56 653.605 465.38 654.46 465.427 655.252 465.695 655.473 462.811 658.026 460.631 660.955 460.826 662.183 460.908 663.34 461.407 664.23 462.238 666.664 459.941 670.513 460.009 672.827 462.39 672.856 462.42 672.885 462.45 672.914 462.481 674.705 461.854 676.661 462.763 677.284 464.511 677.616 465.443 677.51 466.474 676.995 467.331 678.795 467.889 679.786 469.785 679.208 471.564 678.875 472.591 678.067 473.402 677.033 473.75Z" stroke="#548235" stroke-width="1.33333" stroke-miterlimit="8" fill="#548235" fill-rule="evenodd"/><path d="M674.933 467.432C675.601 467.226 676.315 467.226 676.98 467.432M672.122 462.992C672.371 462.824 672.641 462.688 672.926 462.588M664.254 462.334C664.528 462.589 664.773 462.873 664.985 463.181M655.302 466.884C655.252 466.519 655.24 466.149 655.268 465.781M652.703 474.337C650.996 473.951 649.676 472.634 649.31 470.953M647.759 479.879C647.879 479.251 648.146 478.658 648.537 478.146M651.674 484.771C651.579 484.55 651.506 484.32 651.457 484.085M658.967 483.978C658.896 484.334 658.771 484.678 658.599 484.999M664.205 482.346C664.206 482.626 664.172 482.906 664.103 483.178M670.405 480.668C669.996 480.542 669.603 480.368 669.237 480.148M676.669 473.084C676.807 473.323 676.924 473.573 677.021 473.83" stroke="#548235" stroke-width="1.33333" stroke-miterlimit="8" fill="none" fill-rule="evenodd"/><path d="M807.5 529.5 814 412.5 827 412.5 833.5 529.5Z" stroke="#385723" stroke-miterlimit="8" fill="#385723" fill-rule="evenodd"/><path d="M829.5 471 839 455.5 848.5 455.5 829.5 486.5Z" stroke="#385723" stroke-miterlimit="8" fill="#385723" fill-rule="evenodd"/><path d="M863.418 442.423C863.335 451.9 855.434 459.472 845.77 459.335 841.854 459.28 838.062 457.938 835.002 455.524 830.491 461.546 821.844 462.81 815.686 458.348 814.609 457.568 813.653 456.639 812.846 455.591 809.285 460.609 802.237 461.82 797.104 458.296 795.684 457.321 794.508 456.04 793.667 454.553 788.461 459.026 780.508 458.499 775.902 453.375 773.966 451.222 772.852 448.481 772.751 445.623 765.75 442.598 762.541 434.582 765.583 427.719 765.838 427.142 766.135 426.583 766.469 426.047 761.726 417.727 764.735 407.25 773.192 402.647 775.824 401.214 778.793 400.473 781.811 400.495 783.062 392.483 790.71 387.02 798.894 388.295 801.629 388.721 804.194 389.879 806.306 391.641 810.406 383.057 820.824 379.401 829.575 383.476 833.242 385.184 836.2 388.087 837.944 391.69 848.134 387.535 859.858 392.312 864.13 402.359 864.184 402.486 864.236 402.613 864.287 402.74 870.525 402.943 875.447 408.052 875.281 414.153 875.193 417.404 873.644 420.443 871.048 422.459 875.906 426.308 876.697 433.296 872.814 438.068 870.574 440.821 867.133 442.352 863.548 442.189Z" stroke="#548235" stroke-width="1.33333" stroke-miterlimit="8" fill="#548235" fill-rule="evenodd"/><path d="M864.604 420.321C866.897 420.482 869.088 421.331 870.883 422.753M861.251 403.369C862.216 403.148 863.206 403.053 864.198 403.085M837.903 392.013C838.44 393.122 838.855 394.284 839.141 395.479M805.049 395.347C805.326 394.166 805.73 393.018 806.254 391.922M788.234 415.122C783.455 411.911 780.969 406.305 781.841 400.714M766.493 426.25C767.607 424.466 769.128 422.963 770.936 421.858M772.694 445.898C772.666 445.107 772.716 444.316 772.843 443.536M796.005 452.122C795.362 453.127 794.573 454.035 793.663 454.817M814.005 453.332C813.676 454.193 813.239 455.009 812.704 455.762M835.012 455.545C833.905 454.671 832.909 453.67 832.046 452.562M863.223 439.717C863.36 440.613 863.425 441.518 863.417 442.423" stroke="#548235" stroke-width="1.33333" stroke-miterlimit="8" fill="none" fill-rule="evenodd"/><path d="M796.564 474.865 813.109 480.625 818.501 491.776 785.412 480.258Z" stroke="#385723" stroke-width="1.33333" stroke-miterlimit="8" fill="#385723" fill-rule="evenodd"/><path d="M799.927 476.254C800.944 478.951 799.534 481.965 796.778 482.987 795.661 483.401 794.439 483.436 793.306 483.088 792.688 485.29 790.374 486.598 788.138 486.008 787.747 485.905 787.374 485.746 787.03 485.538 786.571 487.351 784.705 488.468 782.863 488.032 782.353 487.912 781.879 487.677 781.477 487.348 780.492 489.188 778.178 489.911 776.31 488.963 775.524 488.565 774.908 487.91 774.565 487.111 772.248 487.021 770.458 485.099 770.568 482.819 770.577 482.628 770.6 482.437 770.636 482.248 768.378 480.409 768.081 477.107 769.975 474.874 770.564 474.179 771.324 473.643 772.183 473.318 771.658 470.908 773.228 468.52 775.689 467.983 776.511 467.804 777.366 467.851 778.158 468.119 778.379 465.235 780.932 463.055 783.861 463.25 785.089 463.332 786.246 463.831 787.136 464.661 789.57 462.365 793.419 462.433 795.733 464.814 795.762 464.844 795.791 464.874 795.82 464.904 797.611 464.277 799.567 465.186 800.19 466.935 800.521 467.866 800.416 468.898 799.901 469.755 801.701 470.313 802.692 472.208 802.114 473.988 801.781 475.014 800.973 475.826 799.938 476.173Z" stroke="#548235" stroke-width="1.33333" stroke-miterlimit="8" fill="#548235" fill-rule="evenodd"/><path d="M797.839 469.856C798.507 469.65 799.221 469.65 799.886 469.856M795.028 465.416C795.277 465.247 795.547 465.112 795.832 465.012M787.16 464.757C787.434 465.013 787.679 465.297 787.891 465.604M778.208 469.308C778.157 468.943 778.146 468.573 778.174 468.205M775.609 476.761C773.902 476.375 772.582 475.058 772.216 473.377M770.665 482.303C770.785 481.675 771.051 481.082 771.443 480.57M774.58 487.195C774.485 486.973 774.412 486.744 774.362 486.508M781.873 486.402C781.801 486.758 781.677 487.102 781.505 487.423M787.111 484.77C787.112 485.05 787.078 485.329 787.009 485.602M793.311 483.092C792.901 482.966 792.509 482.791 792.143 482.572M799.575 475.508C799.712 475.747 799.83 475.996 799.927 476.254" stroke="#548235" stroke-width="1.33333" stroke-miterlimit="8" fill="none" fill-rule="evenodd"/><path d="M931.5 528.5 938 412.5 951 412.5 957.5 528.5Z" stroke="#385723" stroke-miterlimit="8" fill="#385723" fill-rule="evenodd"/><path d="M952.5 470 962 454.5 971.5 454.5 952.5 485.5Z" stroke="#385723" stroke-miterlimit="8" fill="#385723" fill-rule="evenodd"/><path d="M987.134 441.73C987.051 451.206 979.15 458.778 969.486 458.641 965.569 458.586 961.778 457.244 958.717 454.83 954.207 460.852 945.559 462.116 939.402 457.654 938.325 456.874 937.368 455.945 936.561 454.897 933 459.915 925.953 461.126 920.82 457.602 919.399 456.627 918.224 455.347 917.383 453.859 912.177 458.332 904.223 457.805 899.618 452.681 897.682 450.528 896.568 447.787 896.466 444.929 889.466 441.904 886.257 433.888 889.298 427.025 889.554 426.448 889.85 425.889 890.185 425.353 885.442 417.033 888.451 406.556 896.908 401.953 899.54 400.52 902.509 399.779 905.527 399.801 906.778 391.789 914.426 386.326 922.61 387.601 925.344 388.027 927.91 389.185 930.022 390.948 934.122 382.363 944.54 378.707 953.291 382.782 956.958 384.49 959.916 387.393 961.66 390.996 971.849 386.841 983.573 391.618 987.846 401.665 987.9 401.792 987.952 401.919 988.003 402.047 994.24 402.249 999.163 407.358 998.997 413.459 998.909 416.71 997.36 419.749 994.764 421.766 999.622 425.614 1000.41 432.602 996.53 437.374 994.29 440.127 990.848 441.658 987.264 441.495Z" stroke="#548235" stroke-width="1.33333" stroke-miterlimit="8" fill="#548235" fill-rule="evenodd"/><path d="M988.32 419.627C990.613 419.788 992.804 420.637 994.599 422.059M984.967 402.675C985.931 402.454 986.922 402.359 987.914 402.391M961.618 391.319C962.155 392.428 962.57 393.59 962.856 394.785M928.765 394.653C929.042 393.472 929.446 392.324 929.969 391.228M911.95 414.428C907.171 411.217 904.684 405.612 905.557 400.02M890.209 425.556C891.323 423.773 892.843 422.269 894.651 421.164M896.41 445.204C896.382 444.413 896.432 443.622 896.559 442.842M919.72 451.429C919.078 452.434 918.289 453.341 917.379 454.123M937.721 452.638C937.392 453.499 936.955 454.315 936.42 455.069M958.728 454.851C957.62 453.977 956.624 452.976 955.762 451.869M986.938 439.023C987.076 439.919 987.141 440.824 987.133 441.729" stroke="#548235" stroke-width="1.33333" stroke-miterlimit="8" fill="none" fill-rule="evenodd"/><path d="M920.28 474.171 936.824 479.931 942.217 491.082 909.128 479.564Z" stroke="#385723" stroke-width="1.33333" stroke-miterlimit="8" fill="#385723" fill-rule="evenodd"/><path d="M923.643 475.56C924.66 478.257 923.25 481.271 920.494 482.293 919.377 482.707 918.155 482.742 917.022 482.394 916.404 484.596 914.09 485.904 911.854 485.314 911.463 485.211 911.09 485.053 910.746 484.844 910.286 486.658 908.421 487.774 906.578 487.338 906.068 487.218 905.594 486.984 905.193 486.654 904.207 488.494 901.894 489.217 900.025 488.269 899.24 487.871 898.623 487.216 898.281 486.417 895.964 486.327 894.174 484.406 894.283 482.125 894.293 481.934 894.315 481.743 894.352 481.554 892.093 479.715 891.797 476.413 893.69 474.18 894.28 473.485 895.04 472.949 895.899 472.624 895.374 470.214 896.944 467.826 899.405 467.289 900.227 467.11 901.081 467.157 901.874 467.425 902.095 464.541 904.648 462.361 907.577 462.556 908.804 462.638 909.962 463.137 910.852 463.967 913.286 461.671 917.135 461.739 919.449 464.12 919.478 464.15 919.507 464.18 919.535 464.211 921.326 463.584 923.283 464.493 923.905 466.241 924.237 467.173 924.132 468.204 923.616 469.061 925.416 469.619 926.408 471.514 925.83 473.294 925.497 474.321 924.689 475.132 923.654 475.479Z" stroke="#548235" stroke-width="1.33333" stroke-miterlimit="8" fill="#548235" fill-rule="evenodd"/><path d="M921.554 469.162C922.222 468.956 922.937 468.956 923.602 469.162M918.743 464.722C918.993 464.554 919.263 464.418 919.548 464.318M910.875 464.063C911.149 464.319 911.395 464.603 911.607 464.911M901.924 468.614C901.873 468.249 901.862 467.879 901.89 467.511M899.325 476.067C897.618 475.681 896.297 474.364 895.931 472.683M894.38 481.609C894.501 480.981 894.767 480.388 895.159 479.876M898.295 486.501C898.201 486.28 898.128 486.05 898.078 485.814M905.589 485.708C905.517 486.064 905.393 486.408 905.221 486.729M910.827 484.076C910.828 484.356 910.794 484.636 910.725 484.908M917.027 482.398C916.617 482.272 916.225 482.097 915.859 481.878M923.291 474.814C923.428 475.053 923.546 475.302 923.643 475.56" stroke="#548235" stroke-width="1.33333" stroke-miterlimit="8" fill="none" fill-rule="evenodd"/><path d="M369.5 354.5 376.25 238.5 389.75 238.5 396.5 354.5Z" stroke="#385723" stroke-miterlimit="8" fill="#385723" fill-rule="evenodd"/><path d="M391.5 296 401 280.5 410.5 280.5 391.5 311.5Z" stroke="#385723" stroke-miterlimit="8" fill="#385723" fill-rule="evenodd"/><path d="M425.807 267.838C425.724 277.315 417.823 284.887 408.159 284.75 404.243 284.694 400.451 283.352 397.39 280.939 392.88 286.96 384.232 288.224 378.075 283.763 376.998 282.982 376.042 282.054 375.235 281.006 371.673 286.023 364.626 287.234 359.493 283.711 358.072 282.736 356.897 281.455 356.056 279.967 350.85 284.441 342.896 283.914 338.291 278.79 336.355 276.636 335.241 273.896 335.139 271.038 328.139 268.013 324.93 259.997 327.971 253.133 328.227 252.556 328.523 251.998 328.858 251.462 324.115 243.141 327.124 232.665 335.581 228.061 338.213 226.628 341.182 225.887 344.2 225.91 345.451 217.897 353.099 212.435 361.283 213.709 364.017 214.135 366.583 215.294 368.695 217.056 372.795 208.471 383.213 204.815 391.964 208.891 395.631 210.599 398.589 213.502 400.333 217.105 410.523 212.95 422.246 217.726 426.519 227.774 426.573 227.9 426.625 228.027 426.676 228.155 432.914 228.357 437.836 233.467 437.67 239.567 437.582 242.819 436.033 245.858 433.437 247.874 438.295 251.722 439.086 258.711 435.203 263.483 432.963 266.236 429.521 267.766 425.937 267.603Z" stroke="#548235" stroke-width="1.33333" stroke-miterlimit="8" fill="#548235" fill-rule="evenodd"/><path d="M426.993 245.736C429.286 245.897 431.477 246.745 433.272 248.167M423.64 228.784C424.605 228.563 425.595 228.467 426.587 228.499M400.292 217.427C400.828 218.537 401.243 219.699 401.53 220.893M367.438 220.761C367.715 219.581 368.119 218.433 368.642 217.337M350.623 240.536C345.844 237.325 343.357 231.72 344.23 226.128M328.882 251.664C329.996 249.881 331.517 248.378 333.325 247.272M335.083 271.313C335.055 270.522 335.105 269.731 335.232 268.95M358.394 277.537C357.751 278.542 356.962 279.45 356.052 280.232M376.394 278.747C376.065 279.607 375.628 280.424 375.093 281.177M397.401 280.959C396.293 280.086 395.298 279.084 394.435 277.977M425.611 265.132C425.749 266.028 425.814 266.932 425.806 267.837" stroke="#548235" stroke-width="1.33333" stroke-miterlimit="8" fill="none" fill-rule="evenodd"/><path d="M358.953 300.28 375.497 306.039 380.89 317.191 347.801 305.672Z" stroke="#385723" stroke-width="1.33333" stroke-miterlimit="8" fill="#385723" fill-rule="evenodd"/><path d="M362.316 301.669C363.333 304.365 361.923 307.38 359.167 308.401 358.05 308.815 356.828 308.851 355.695 308.502 355.077 310.705 352.763 312.012 350.527 311.422 350.136 311.319 349.763 311.161 349.419 310.952 348.96 312.766 347.094 313.883 345.251 313.447 344.742 313.326 344.268 313.092 343.866 312.762 342.88 314.602 340.567 315.326 338.699 314.378 337.913 313.979 337.297 313.324 336.954 312.525 334.637 312.435 332.847 310.514 332.957 308.234 332.966 308.042 332.989 307.851 333.025 307.662 330.766 305.823 330.47 302.522 332.363 300.289 332.953 299.593 333.713 299.057 334.572 298.733 334.047 296.323 335.617 293.935 338.078 293.398 338.9 293.219 339.755 293.266 340.547 293.534 340.768 290.649 343.321 288.469 346.25 288.665 347.477 288.747 348.635 289.245 349.525 290.076 351.959 287.779 355.808 287.848 358.122 290.228 358.151 290.258 358.18 290.288 358.208 290.319 360 289.692 361.956 290.601 362.579 292.349 362.91 293.281 362.805 294.313 362.29 295.17 364.09 295.728 365.081 297.623 364.503 299.402 364.17 300.429 363.362 301.241 362.327 301.588Z" stroke="#548235" stroke-width="1.33333" stroke-miterlimit="8" fill="#548235" fill-rule="evenodd"/><path d="M360.227 295.27C360.895 295.064 361.61 295.064 362.275 295.271M357.416 290.831C357.666 290.662 357.936 290.526 358.221 290.427M349.549 290.172C349.823 290.428 350.068 290.712 350.28 291.019M340.597 294.723C340.546 294.357 340.535 293.987 340.563 293.619M337.998 302.176C336.291 301.789 334.97 300.473 334.604 298.791M333.054 307.717C333.174 307.089 333.44 306.496 333.832 305.984M336.968 312.609C336.874 312.388 336.801 312.158 336.751 311.923M344.262 311.817C344.19 312.172 344.066 312.516 343.894 312.838M349.5 310.185C349.501 310.465 349.467 310.744 349.398 311.016M355.7 308.507C355.29 308.381 354.898 308.206 354.532 307.987M361.964 300.923C362.101 301.162 362.219 301.411 362.316 301.668" stroke="#548235" stroke-width="1.33333" stroke-miterlimit="8" fill="none" fill-rule="evenodd"/><path d="M287.5 461.5 294.25 345.5 307.75 345.5 314.5 461.5Z" stroke="#385723" stroke-miterlimit="8" fill="#385723" fill-rule="evenodd"/><path d="M309.5 404 319 388.5 328.5 388.5 309.5 419.5Z" stroke="#385723" stroke-miterlimit="8" fill="#385723" fill-rule="evenodd"/><path d="M343.86 375.321C343.777 384.798 335.876 392.369 326.212 392.232 322.296 392.177 318.504 390.835 315.443 388.421 310.933 394.443 302.285 395.707 296.128 391.245 295.051 390.465 294.094 389.536 293.287 388.488 289.726 393.506 282.679 394.717 277.546 391.193 276.125 390.218 274.95 388.938 274.109 387.45 268.903 391.924 260.949 391.396 256.344 386.272 254.408 384.119 253.294 381.378 253.192 378.521 246.192 375.495 242.983 367.479 246.024 360.616 246.28 360.039 246.576 359.48 246.911 358.944 242.168 350.624 245.177 340.147 253.634 335.544 256.266 334.111 259.235 333.37 262.253 333.393 263.504 325.38 271.152 319.917 279.336 321.192 282.07 321.618 284.636 322.776 286.748 324.539 290.848 315.954 301.266 312.298 310.017 316.373 313.684 318.081 316.642 320.984 318.386 324.588 328.575 320.433 340.299 325.209 344.572 335.256 344.626 335.383 344.678 335.51 344.729 335.638 350.966 335.84 355.889 340.95 355.723 347.05 355.635 350.302 354.086 353.34 351.49 355.357 356.348 359.205 357.139 366.193 353.256 370.965 351.016 373.719 347.574 375.249 343.99 375.086Z" stroke="#548235" stroke-width="1.33333" stroke-miterlimit="8" fill="#548235" fill-rule="evenodd"/><path d="M345.046 353.219C347.339 353.379 349.53 354.228 351.325 355.65M341.693 336.267C342.658 336.046 343.648 335.95 344.64 335.982M318.344 324.91C318.881 326.019 319.296 327.181 319.582 328.376M285.491 328.244C285.768 327.063 286.172 325.915 286.695 324.82M268.676 348.019C263.897 344.808 261.41 339.203 262.283 333.611M246.935 359.147C248.049 357.364 249.569 355.86 251.377 354.755M253.136 378.795C253.108 378.005 253.158 377.213 253.285 376.433M276.447 385.02C275.804 386.025 275.015 386.932 274.105 387.714M294.447 386.229C294.118 387.09 293.681 387.906 293.146 388.66M315.454 388.442C314.346 387.569 313.35 386.567 312.488 385.46M343.664 372.615C343.802 373.51 343.867 374.415 343.859 375.32" stroke="#548235" stroke-width="1.33333" stroke-miterlimit="8" fill="none" fill-rule="evenodd"/><path d="M277.006 407.762 293.55 413.522 298.943 424.674 265.854 413.155Z" stroke="#385723" stroke-width="1.33333" stroke-miterlimit="8" fill="#385723" fill-rule="evenodd"/><path d="M280.369 409.151C281.386 411.848 279.976 414.862 277.22 415.884 276.103 416.298 274.881 416.333 273.748 415.985 273.13 418.187 270.816 419.495 268.58 418.905 268.189 418.802 267.816 418.644 267.472 418.435 267.012 420.249 265.147 421.365 263.304 420.929 262.794 420.809 262.321 420.575 261.919 420.245 260.933 422.085 258.62 422.808 256.751 421.86 255.966 421.462 255.349 420.807 255.007 420.008 252.69 419.918 250.9 417.997 251.009 415.716 251.019 415.525 251.041 415.334 251.078 415.145 248.819 413.306 248.523 410.005 250.416 407.771 251.006 407.076 251.766 406.54 252.625 406.215 252.1 403.805 253.67 401.417 256.131 400.881 256.953 400.701 257.807 400.748 258.6 401.016 258.821 398.132 261.374 395.952 264.303 396.147 265.53 396.229 266.688 396.728 267.578 397.559 270.012 395.262 273.861 395.33 276.175 397.711 276.204 397.741 276.233 397.771 276.261 397.802 278.052 397.175 280.009 398.084 280.631 399.832 280.963 400.764 280.858 401.795 280.342 402.652 282.142 403.21 283.134 405.106 282.556 406.885 282.223 407.912 281.415 408.723 280.38 409.07Z" stroke="#548235" stroke-width="1.33333" stroke-miterlimit="8" fill="#548235" fill-rule="evenodd"/><path d="M278.28 402.753C278.948 402.547 279.663 402.547 280.328 402.753M275.469 398.313C275.719 398.145 275.989 398.009 276.274 397.909M267.601 397.655C267.875 397.91 268.121 398.194 268.333 398.502M258.65 402.205C258.599 401.84 258.588 401.47 258.616 401.102M256.051 409.658C254.344 409.272 253.023 407.955 252.657 406.274M251.107 415.2C251.227 414.572 251.493 413.979 251.885 413.467M255.021 420.092C254.927 419.871 254.854 419.641 254.804 419.406M262.315 419.299C262.243 419.655 262.119 419.999 261.947 420.32M267.553 417.667C267.554 417.947 267.52 418.227 267.451 418.499M273.753 415.989C273.343 415.863 272.951 415.689 272.585 415.469M280.017 408.405C280.154 408.644 280.272 408.894 280.369 409.151" stroke="#548235" stroke-width="1.33333" stroke-miterlimit="8" fill="none" fill-rule="evenodd"/><path d="M222.5 377.5 229.25 261.5 242.75 261.5 249.5 377.5Z" stroke="#385723" stroke-miterlimit="8" fill="#385723" fill-rule="evenodd"/><path d="M244.5 320 254 304.5 263.5 304.5 244.5 335.5Z" stroke="#385723" stroke-miterlimit="8" fill="#385723" fill-rule="evenodd"/><path d="M279.046 291.339C278.963 300.815 271.062 308.387 261.398 308.25 257.482 308.195 253.69 306.853 250.629 304.439 246.119 310.461 237.471 311.725 231.314 307.263 230.237 306.483 229.281 305.554 228.473 304.506 224.912 309.524 217.865 310.735 212.732 307.211 211.311 306.236 210.136 304.956 209.295 303.468 204.089 307.941 196.135 307.414 191.53 302.29 189.594 300.137 188.48 297.396 188.378 294.538 181.378 291.513 178.169 283.497 181.21 276.634 181.466 276.057 181.762 275.498 182.097 274.962 177.354 266.642 180.363 256.165 188.82 251.562 191.452 250.129 194.421 249.388 197.439 249.41 198.69 241.398 206.338 235.935 214.522 237.21 217.256 237.636 219.822 238.794 221.934 240.556 226.034 231.972 236.452 228.316 245.203 232.391 248.87 234.099 251.828 237.002 253.572 240.605 263.762 236.45 275.485 241.227 279.758 251.274 279.812 251.401 279.864 251.528 279.915 251.655 286.153 251.858 291.075 256.967 290.909 263.068 290.821 266.319 289.272 269.358 286.676 271.375 291.534 275.223 292.325 282.211 288.442 286.983 286.202 289.736 282.76 291.267 279.176 291.104Z" stroke="#548235" stroke-width="1.33333" stroke-miterlimit="8" fill="#548235" fill-rule="evenodd"/><path d="M280.232 269.236C282.525 269.397 284.716 270.246 286.511 271.668M276.879 252.284C277.844 252.063 278.834 251.968 279.826 252M253.53 240.928C254.067 242.037 254.482 243.199 254.768 244.394M220.677 244.262C220.954 243.081 221.358 241.933 221.881 240.837M203.862 264.037C199.083 260.826 196.596 255.221 197.469 249.629M182.121 275.165C183.235 273.382 184.755 271.878 186.564 270.773M188.322 294.813C188.294 294.022 188.344 293.231 188.471 292.451M211.633 301.038C210.99 302.043 210.201 302.95 209.291 303.732M229.633 302.247C229.304 303.108 228.867 303.924 228.332 304.678M250.64 304.46C249.532 303.586 248.536 302.585 247.674 301.478M278.85 288.632C278.988 289.528 279.053 290.433 279.045 291.338" stroke="#548235" stroke-width="1.33333" stroke-miterlimit="8" fill="none" fill-rule="evenodd"/><path d="M212.192 323.78 228.736 329.54 234.129 340.691 201.04 329.173Z" stroke="#385723" stroke-width="1.33333" stroke-miterlimit="8" fill="#385723" fill-rule="evenodd"/><path d="M215.555 325.169C216.572 327.866 215.162 330.88 212.406 331.902 211.289 332.316 210.067 332.351 208.934 332.003 208.316 334.205 206.002 335.513 203.766 334.923 203.375 334.82 203.002 334.661 202.658 334.453 202.198 336.267 200.333 337.383 198.49 336.947 197.98 336.827 197.507 336.592 197.105 336.263 196.119 338.103 193.806 338.826 191.937 337.878 191.152 337.48 190.535 336.825 190.193 336.026 187.876 335.936 186.086 334.015 186.195 331.734 186.205 331.543 186.227 331.352 186.264 331.163 184.005 329.324 183.709 326.022 185.602 323.789 186.192 323.094 186.952 322.558 187.811 322.233 187.286 319.823 188.856 317.435 191.317 316.898 192.139 316.719 192.994 316.766 193.786 317.034 194.007 314.15 196.56 311.97 199.489 312.165 200.716 312.247 201.874 312.746 202.764 313.576 205.198 311.28 209.047 311.348 211.361 313.729 211.39 313.759 211.419 313.789 211.447 313.82 213.238 313.193 215.195 314.101 215.817 315.85 216.149 316.782 216.044 317.813 215.528 318.67 217.328 319.228 218.32 321.123 217.742 322.903 217.409 323.929 216.601 324.741 215.566 325.088Z" stroke="#548235" stroke-width="1.33333" stroke-miterlimit="8" fill="#548235" fill-rule="evenodd"/><path d="M213.466 318.771C214.134 318.565 214.849 318.565 215.514 318.771M210.655 314.331C210.905 314.163 211.175 314.027 211.46 313.927M202.787 313.672C203.061 313.928 203.307 314.212 203.519 314.52M193.836 318.223C193.785 317.858 193.774 317.488 193.802 317.12M191.237 325.676C189.53 325.29 188.209 323.973 187.843 322.292M186.293 331.218C186.413 330.59 186.679 329.997 187.071 329.485M190.207 336.11C190.113 335.888 190.04 335.659 189.99 335.423M197.501 335.317C197.429 335.673 197.305 336.017 197.133 336.338M202.739 333.685C202.74 333.965 202.706 334.245 202.637 334.517M208.939 332.007C208.529 331.881 208.137 331.706 207.771 331.487M215.203 324.423C215.34 324.662 215.458 324.911 215.555 325.169" stroke="#548235" stroke-width="1.33333" stroke-miterlimit="8" fill="none" fill-rule="evenodd"/><path d="M287.5 461.5 294.25 345.5 307.75 345.5 314.5 461.5Z" stroke="#385723" stroke-miterlimit="8" fill="#385723" fill-rule="evenodd"/><path d="M309.5 404 319 388.5 328.5 388.5 309.5 419.5Z" stroke="#385723" stroke-miterlimit="8" fill="#385723" fill-rule="evenodd"/><path d="M343.86 375.321C343.777 384.798 335.876 392.369 326.212 392.232 322.296 392.177 318.504 390.835 315.443 388.421 310.933 394.443 302.285 395.707 296.128 391.245 295.051 390.465 294.094 389.536 293.287 388.488 289.726 393.506 282.679 394.717 277.546 391.193 276.125 390.218 274.95 388.938 274.109 387.45 268.903 391.924 260.949 391.396 256.344 386.272 254.408 384.119 253.294 381.378 253.192 378.521 246.192 375.495 242.983 367.479 246.024 360.616 246.28 360.039 246.576 359.48 246.911 358.944 242.168 350.624 245.177 340.147 253.634 335.544 256.266 334.111 259.235 333.37 262.253 333.393 263.504 325.38 271.152 319.917 279.336 321.192 282.07 321.618 284.636 322.776 286.748 324.539 290.848 315.954 301.266 312.298 310.017 316.373 313.684 318.081 316.642 320.984 318.386 324.588 328.575 320.433 340.299 325.209 344.572 335.256 344.626 335.383 344.678 335.51 344.729 335.638 350.966 335.84 355.889 340.95 355.723 347.05 355.635 350.302 354.086 353.34 351.49 355.357 356.348 359.205 357.139 366.193 353.256 370.965 351.016 373.719 347.574 375.249 343.99 375.086Z" stroke="#548235" stroke-width="1.33333" stroke-miterlimit="8" fill="#548235" fill-rule="evenodd"/><path d="M345.046 353.219C347.339 353.379 349.53 354.228 351.325 355.65M341.693 336.267C342.658 336.046 343.648 335.95 344.64 335.982M318.344 324.91C318.881 326.019 319.296 327.181 319.582 328.376M285.491 328.244C285.768 327.063 286.172 325.915 286.695 324.82M268.676 348.019C263.897 344.808 261.41 339.203 262.283 333.611M246.935 359.147C248.049 357.364 249.569 355.86 251.377 354.755M253.136 378.795C253.108 378.005 253.158 377.213 253.285 376.433M276.447 385.02C275.804 386.025 275.015 386.932 274.105 387.714M294.447 386.229C294.118 387.09 293.681 387.906 293.146 388.66M315.454 388.442C314.346 387.569 313.35 386.567 312.488 385.46M343.664 372.615C343.802 373.51 343.867 374.415 343.859 375.32" stroke="#548235" stroke-width="1.33333" stroke-miterlimit="8" fill="none" fill-rule="evenodd"/><path d="M277.006 407.762 293.55 413.522 298.943 424.674 265.854 413.155Z" stroke="#385723" stroke-width="1.33333" stroke-miterlimit="8" fill="#385723" fill-rule="evenodd"/><path d="M280.369 409.151C281.386 411.848 279.976 414.862 277.22 415.884 276.103 416.298 274.881 416.333 273.748 415.985 273.13 418.187 270.816 419.495 268.58 418.905 268.189 418.802 267.816 418.644 267.472 418.435 267.012 420.249 265.147 421.365 263.304 420.929 262.794 420.809 262.321 420.575 261.919 420.245 260.933 422.085 258.62 422.808 256.751 421.86 255.966 421.462 255.349 420.807 255.007 420.008 252.69 419.918 250.9 417.997 251.009 415.716 251.019 415.525 251.041 415.334 251.078 415.145 248.819 413.306 248.523 410.005 250.416 407.771 251.006 407.076 251.766 406.54 252.625 406.215 252.1 403.805 253.67 401.417 256.131 400.881 256.953 400.701 257.807 400.748 258.6 401.016 258.821 398.132 261.374 395.952 264.303 396.147 265.53 396.229 266.688 396.728 267.578 397.559 270.012 395.262 273.861 395.33 276.175 397.711 276.204 397.741 276.233 397.771 276.261 397.802 278.052 397.175 280.009 398.084 280.631 399.832 280.963 400.764 280.858 401.795 280.342 402.652 282.142 403.21 283.134 405.106 282.556 406.885 282.223 407.912 281.415 408.723 280.38 409.07Z" stroke="#548235" stroke-width="1.33333" stroke-miterlimit="8" fill="#548235" fill-rule="evenodd"/><path d="M278.28 402.753C278.948 402.547 279.663 402.547 280.328 402.753M275.469 398.313C275.719 398.145 275.989 398.009 276.274 397.909M267.601 397.655C267.875 397.91 268.121 398.194 268.333 398.502M258.65 402.205C258.599 401.84 258.588 401.47 258.616 401.102M256.051 409.658C254.344 409.272 253.023 407.955 252.657 406.274M251.107 415.2C251.227 414.572 251.493 413.979 251.885 413.467M255.021 420.092C254.927 419.871 254.854 419.641 254.804 419.406M262.315 419.299C262.243 419.655 262.119 419.999 261.947 420.32M267.553 417.667C267.554 417.947 267.52 418.227 267.451 418.499M273.753 415.989C273.343 415.863 272.951 415.689 272.585 415.469M280.017 408.405C280.154 408.644 280.272 408.894 280.369 409.151" stroke="#548235" stroke-width="1.33333" stroke-miterlimit="8" fill="none" fill-rule="evenodd"/><path d="M147.5 477.5 154 361.5 167 361.5 173.5 477.5Z" stroke="#385723" stroke-miterlimit="8" fill="#385723" fill-rule="evenodd"/><path d="M169.5 420 179 404.5 188.5 404.5 169.5 435.5Z" stroke="#385723" stroke-miterlimit="8" fill="#385723" fill-rule="evenodd"/><path d="M203.517 391.348C203.434 400.825 195.533 408.397 185.869 408.26 181.953 408.204 178.161 406.863 175.101 404.449 170.59 410.47 161.943 411.734 155.785 407.273 154.708 406.492 153.752 405.564 152.945 404.516 149.384 409.533 142.336 410.744 137.203 407.221 135.783 406.246 134.607 404.965 133.766 403.478 128.56 407.951 120.607 407.424 116.001 402.3 114.065 400.146 112.951 397.406 112.85 394.548 105.849 391.523 102.64 383.507 105.681 376.643 105.937 376.066 106.234 375.508 106.568 374.972 101.825 366.651 104.834 356.175 113.291 351.571 115.923 350.138 118.892 349.397 121.91 349.42 123.161 341.407 130.809 335.945 138.993 337.219 141.728 337.645 144.293 338.804 146.405 340.566 150.505 331.981 160.923 328.325 169.674 332.401 173.341 334.109 176.299 337.012 178.043 340.615 188.233 336.46 199.957 341.236 204.229 351.284 204.283 351.41 204.335 351.537 204.386 351.665 210.624 351.867 215.546 356.977 215.38 363.077 215.292 366.329 213.743 369.368 211.147 371.384 216.005 375.232 216.796 382.221 212.913 386.993 210.673 389.746 207.231 391.276 203.647 391.113Z" stroke="#548235" stroke-width="1.33333" stroke-miterlimit="8" fill="#548235" fill-rule="evenodd"/><path d="M204.703 369.246C206.996 369.407 209.187 370.255 210.982 371.677M201.35 352.294C202.315 352.073 203.305 351.977 204.297 352.009M178.002 340.938C178.538 342.047 178.954 343.209 179.24 344.403M145.148 344.271C145.425 343.091 145.829 341.943 146.353 340.847M128.333 364.046C123.554 360.835 121.068 355.23 121.94 349.638M106.592 375.174C107.706 373.391 109.227 371.888 111.035 370.782M112.793 394.823C112.765 394.032 112.815 393.241 112.942 392.46M136.104 401.047C135.461 402.052 134.672 402.96 133.762 403.742M154.104 402.257C153.775 403.117 153.338 403.934 152.803 404.687M175.111 404.469C174.004 403.596 173.008 402.595 172.145 401.487M203.322 388.642C203.459 389.538 203.524 390.442 203.516 391.347" stroke="#548235" stroke-width="1.33333" stroke-miterlimit="8" fill="none" fill-rule="evenodd"/><path d="M136.663 423.79 153.208 429.549 158.6 440.701 125.511 429.182Z" stroke="#385723" stroke-width="1.33333" stroke-miterlimit="8" fill="#385723" fill-rule="evenodd"/><path d="M140.026 425.179C141.043 427.875 139.633 430.89 136.877 431.911 135.76 432.325 134.538 432.361 133.405 432.012 132.787 434.215 130.473 435.522 128.237 434.932 127.846 434.829 127.473 434.671 127.129 434.462 126.67 436.276 124.804 437.393 122.962 436.957 122.452 436.836 121.978 436.602 121.576 436.272 120.591 438.112 118.277 438.836 116.409 437.888 115.623 437.489 115.007 436.834 114.664 436.035 112.347 435.945 110.557 434.024 110.667 431.744 110.676 431.552 110.699 431.361 110.735 431.172 108.476 429.333 108.18 426.032 110.074 423.799 110.663 423.103 111.423 422.567 112.282 422.243 111.757 419.833 113.327 417.445 115.788 416.908 116.61 416.729 117.465 416.776 118.257 417.044 118.478 414.159 121.031 411.979 123.96 412.175 125.188 412.257 126.345 412.755 127.235 413.586 129.669 411.289 133.518 411.358 135.832 413.738 135.861 413.768 135.89 413.798 135.919 413.829 137.71 413.202 139.666 414.111 140.289 415.859 140.62 416.791 140.515 417.823 140 418.68 141.8 419.238 142.791 421.133 142.213 422.912 141.88 423.939 141.072 424.751 140.037 425.098Z" stroke="#548235" stroke-width="1.33333" stroke-miterlimit="8" fill="#548235" fill-rule="evenodd"/><path d="M137.938 418.78C138.606 418.574 139.32 418.574 139.985 418.781M135.127 414.341C135.376 414.172 135.646 414.036 135.931 413.937M127.259 413.682C127.533 413.938 127.778 414.222 127.99 414.529M118.307 418.233C118.256 417.867 118.245 417.497 118.273 417.129M115.708 425.686C114.001 425.299 112.681 423.983 112.314 422.301M110.764 431.227C110.884 430.599 111.15 430.006 111.542 429.494M114.679 436.119C114.584 435.898 114.511 435.668 114.461 435.433M121.972 435.327C121.9 435.682 121.776 436.026 121.604 436.348M127.21 433.695C127.211 433.975 127.177 434.254 127.108 434.526M133.41 432.017C133 431.891 132.608 431.716 132.242 431.497M139.674 424.433C139.811 424.672 139.929 424.921 140.026 425.178" stroke="#548235" stroke-width="1.33333" stroke-miterlimit="8" fill="none" fill-rule="evenodd"/><path d="M416.5 442.5 423 326.5 436 326.5 442.5 442.5Z" stroke="#385723" stroke-miterlimit="8" fill="#385723" fill-rule="evenodd"/><path d="M437.5 384 447 368.5 456.5 368.5 437.5 399.5Z" stroke="#385723" stroke-miterlimit="8" fill="#385723" fill-rule="evenodd"/><path d="M472.192 355.592C472.109 365.069 464.208 372.641 454.544 372.504 450.628 372.448 446.836 371.107 443.775 368.693 439.265 374.714 430.617 375.978 424.46 371.517 423.383 370.736 422.427 369.808 421.62 368.76 418.058 373.777 411.011 374.988 405.878 371.465 404.457 370.49 403.282 369.209 402.441 367.722 397.235 372.195 389.281 371.668 384.676 366.544 382.74 364.39 381.626 361.65 381.524 358.792 374.524 355.767 371.315 347.751 374.356 340.887 374.612 340.31 374.908 339.752 375.243 339.216 370.5 330.895 373.509 320.419 381.966 315.815 384.598 314.382 387.567 313.641 390.585 313.664 391.836 305.651 399.484 300.189 407.668 301.463 410.402 301.889 412.968 303.048 415.08 304.81 419.18 296.225 429.598 292.569 438.349 296.645 442.016 298.353 444.974 301.256 446.718 304.859 456.908 300.704 468.631 305.48 472.904 315.528 472.958 315.654 473.01 315.781 473.061 315.909 479.299 316.111 484.221 321.221 484.055 327.321 483.967 330.573 482.418 333.612 479.822 335.628 484.68 339.476 485.471 346.465 481.588 351.237 479.348 353.99 475.906 355.52 472.322 355.357Z" stroke="#548235" stroke-width="1.33333" stroke-miterlimit="8" fill="#548235" fill-rule="evenodd"/><path d="M473.378 333.49C475.671 333.651 477.862 334.499 479.657 335.921M470.025 316.538C470.99 316.317 471.98 316.221 472.972 316.253M446.676 305.181C447.213 306.291 447.628 307.453 447.914 308.647M413.823 308.515C414.1 307.335 414.504 306.187 415.027 305.091M397.008 328.29C392.229 325.079 389.742 319.474 390.615 313.882M375.267 339.418C376.381 337.635 377.902 336.132 379.71 335.026M381.468 359.067C381.44 358.276 381.49 357.485 381.617 356.704M404.779 365.291C404.136 366.296 403.347 367.204 402.437 367.986M422.779 366.501C422.45 367.361 422.013 368.178 421.478 368.931M443.786 368.713C442.678 367.84 441.682 366.839 440.82 365.731M471.996 352.886C472.134 353.782 472.199 354.686 472.191 355.591" stroke="#548235" stroke-width="1.33333" stroke-miterlimit="8" fill="none" fill-rule="evenodd"/><path d="M405.338 388.034 421.882 393.793 427.275 404.945 394.186 393.426Z" stroke="#385723" stroke-width="1.33333" stroke-miterlimit="8" fill="#385723" fill-rule="evenodd"/><path d="M408.701 389.423C409.718 392.119 408.308 395.134 405.552 396.155 404.435 396.569 403.213 396.605 402.08 396.256 401.462 398.459 399.148 399.766 396.912 399.176 396.521 399.073 396.148 398.915 395.804 398.706 395.345 400.52 393.479 401.637 391.636 401.201 391.127 401.08 390.653 400.846 390.251 400.516 389.265 402.356 386.952 403.079 385.083 402.132 384.298 401.733 383.682 401.078 383.339 400.279 381.022 400.189 379.232 398.268 379.342 395.988 379.351 395.796 379.374 395.605 379.41 395.416 377.151 393.577 376.855 390.276 378.748 388.043 379.338 387.347 380.098 386.811 380.957 386.487 380.432 384.077 382.002 381.688 384.463 381.152 385.285 380.973 386.14 381.02 386.932 381.288 387.153 378.403 389.706 376.223 392.635 376.419 393.862 376.501 395.02 376.999 395.91 377.83 398.344 375.533 402.193 375.602 404.507 377.982 404.536 378.012 404.565 378.042 404.593 378.073 406.384 377.446 408.341 378.355 408.964 380.103 409.295 381.035 409.19 382.067 408.675 382.924 410.475 383.482 411.466 385.377 410.888 387.156 410.555 388.183 409.747 388.995 408.712 389.342Z" stroke="#548235" stroke-width="1.33333" stroke-miterlimit="8" fill="#548235" fill-rule="evenodd"/><path d="M406.612 383.024C407.28 382.818 407.995 382.818 408.66 383.025M403.801 378.585C404.051 378.416 404.321 378.28 404.606 378.181M395.934 377.926C396.207 378.182 396.453 378.466 396.665 378.773M386.982 382.477C386.931 382.111 386.92 381.741 386.948 381.373M384.383 389.93C382.676 389.543 381.355 388.227 380.989 386.545M379.439 395.471C379.559 394.843 379.825 394.25 380.217 393.738M383.353 400.363C383.259 400.142 383.186 399.912 383.136 399.677M390.647 399.571C390.575 399.926 390.451 400.27 390.279 400.592M395.885 397.939C395.886 398.219 395.852 398.498 395.783 398.77M402.085 396.261C401.675 396.135 401.283 395.96 400.917 395.741M408.349 388.677C408.486 388.916 408.604 389.165 408.701 389.422" stroke="#548235" stroke-width="1.33333" stroke-miterlimit="8" fill="none" fill-rule="evenodd"/><path d="M368.5 550.5 375 434.5 388 434.5 394.5 550.5Z" stroke="#385723" stroke-miterlimit="8" fill="#385723" fill-rule="evenodd"/><path d="M390.5 492.5 400 476.5 409.5 476.5 390.5 508.5Z" stroke="#385723" stroke-miterlimit="8" fill="#385723" fill-rule="evenodd"/><path d="M424.311 463.943C424.229 473.42 416.328 480.992 406.663 480.855 402.747 480.799 398.956 479.458 395.895 477.044 391.385 483.065 382.737 484.33 376.58 479.868 375.503 479.087 374.546 478.159 373.739 477.111 370.178 482.128 363.13 483.339 357.998 479.816 356.577 478.841 355.402 477.56 354.561 476.073 349.355 480.546 341.401 480.019 336.796 474.895 334.86 472.741 333.746 470.001 333.644 467.143 326.644 464.118 323.435 456.102 326.476 449.238 326.732 448.661 327.028 448.103 327.363 447.567 322.619 439.246 325.629 428.77 334.085 424.167 336.718 422.734 339.686 421.993 342.705 422.015 343.955 414.002 351.604 408.54 359.788 409.815 362.522 410.24 365.088 411.399 367.2 413.161 371.3 404.576 381.718 400.921 390.468 404.996 394.136 406.704 397.094 409.607 398.837 413.21 409.027 409.055 420.751 413.831 425.024 423.879 425.077 424.005 425.13 424.132 425.181 424.26 431.418 424.463 436.34 429.572 436.175 435.672 436.087 438.924 434.538 441.963 431.942 443.979 436.8 447.827 437.59 454.816 433.708 459.588 431.468 462.341 428.026 463.871 424.441 463.708Z" stroke="#548235" stroke-width="1.33333" stroke-miterlimit="8" fill="#548235" fill-rule="evenodd"/><path d="M425.498 441.841C427.791 442.002 429.982 442.85 431.777 444.272M422.145 424.889C423.109 424.668 424.1 424.572 425.091 424.605M398.796 413.533C399.333 414.642 399.748 415.804 400.034 416.999M365.943 416.866C366.22 415.686 366.624 414.538 367.147 413.442M349.127 436.641C344.349 433.43 341.862 427.825 342.735 422.234M327.387 447.77C328.501 445.986 330.021 444.483 331.829 443.377M333.588 467.418C333.56 466.627 333.61 465.836 333.737 465.055M356.898 473.642C356.256 474.647 355.467 475.555 354.557 476.337M374.898 474.852C374.57 475.712 374.133 476.529 373.598 477.282M395.906 477.064C394.798 476.191 393.802 475.19 392.94 474.082M424.116 461.237C424.254 462.133 424.319 463.037 424.311 463.942" stroke="#548235" stroke-width="1.33333" stroke-miterlimit="8" fill="none" fill-rule="evenodd"/><path d="M357.458 496.385 374.002 502.144 379.395 513.296 346.306 501.777Z" stroke="#385723" stroke-width="1.33333" stroke-miterlimit="8" fill="#385723" fill-rule="evenodd"/><path d="M360.821 497.774C361.837 500.47 360.428 503.485 357.672 504.506 356.555 504.92 355.333 504.956 354.2 504.607 353.581 506.81 351.268 508.117 349.032 507.528 348.641 507.424 348.268 507.266 347.924 507.057 347.464 508.871 345.598 509.988 343.756 509.552 343.246 509.431 342.772 509.197 342.371 508.867 341.385 510.707 339.072 511.431 337.203 510.483 336.418 510.084 335.801 509.429 335.459 508.63 333.142 508.54 331.352 506.619 331.461 504.339 331.471 504.147 331.493 503.956 331.529 503.768 329.271 501.928 328.975 498.627 330.868 496.394 331.457 495.698 332.218 495.162 333.077 494.838 332.552 492.428 334.122 490.04 336.583 489.503 337.405 489.324 338.259 489.371 339.052 489.639 339.273 486.754 341.826 484.574 344.755 484.77 345.982 484.852 347.14 485.35 348.03 486.181 350.464 483.885 354.313 483.953 356.627 486.333 356.656 486.363 356.685 486.394 356.713 486.424 358.504 485.797 360.461 486.706 361.083 488.454 361.415 489.386 361.309 490.418 360.794 491.275 362.594 491.833 363.585 493.728 363.008 495.507 362.675 496.534 361.867 497.346 360.832 497.693Z" stroke="#548235" stroke-width="1.33333" stroke-miterlimit="8" fill="#548235" fill-rule="evenodd"/><path d="M358.732 491.375C359.4 491.169 360.115 491.17 360.78 491.376M355.921 486.936C356.17 486.767 356.441 486.631 356.726 486.532M348.053 486.277C348.327 486.533 348.572 486.817 348.785 487.124M339.102 490.828C339.051 490.462 339.039 490.092 339.068 489.724M336.503 498.281C334.795 497.895 333.475 496.578 333.109 494.896M331.558 503.823C331.679 503.195 331.945 502.601 332.336 502.089M335.473 508.714C335.378 508.493 335.306 508.263 335.256 508.028M342.767 507.922C342.695 508.277 342.571 508.621 342.399 508.943M348.005 506.29C348.006 506.57 347.971 506.849 347.902 507.121M354.205 504.612C353.795 504.486 353.403 504.311 353.037 504.092M360.469 497.028C360.606 497.267 360.724 497.516 360.821 497.774" stroke="#548235" stroke-width="1.33333" stroke-miterlimit="8" fill="none" fill-rule="evenodd"/><rect x="519" y="159" width="323" height="126" stroke="#2F5597" stroke-width="2" stroke-miterlimit="8" fill="#8FAADC"/><text font-family="Cambria Math,Cambria Math_MSFontService,sans-serif" font-weight="400" font-size="24" transform="translate(672.325 142)">𝑚<tspan x="-186.363" y="87">𝑛</tspan></text><rect x="519" y="159" width="5" height="126" stroke="#843C0C" stroke-width="2" stroke-miterlimit="8" fill="#C55A11"/><text font-family="Cambria Math,Cambria Math_MSFontService,sans-serif" font-weight="400" font-size="27" transform="translate(662.418 231)">𝑥<tspan font-size="20" x="11.5333" y="9">𝑗</tspan></text><path d="M694.26 203.079C696.161 203.58 697.621 204.662 698.64 206.326 699.659 207.989 700.168 209.996 700.168 212.346 700.168 214.703 699.66 216.71 698.645 218.367 697.629 220.024 696.167 221.103 694.26 221.604L694.025 220.852C695.529 220.351 696.647 219.361 697.38 217.883 698.112 216.405 698.479 214.527 698.479 212.248 698.479 210.048 698.114 208.22 697.385 206.765 696.656 205.31 695.526 204.332 693.996 203.831ZM685.711 203.079 685.975 203.831C684.451 204.332 683.323 205.31 682.591 206.765 681.859 208.22 681.492 210.048 681.492 212.248 681.492 214.527 681.859 216.405 682.591 217.883 683.323 219.361 684.442 220.351 685.945 220.852L685.711 221.604C683.803 221.103 682.342 220.024 681.326 218.367 680.311 216.71 679.803 214.703 679.803 212.346 679.803 209.996 680.312 207.989 681.331 206.326 682.35 204.662 683.81 203.58 685.711 203.079Z" fill-rule="evenodd"/><text font-family="Cambria Math,Cambria Math_MSFontService,sans-serif" font-weight="400" font-size="20" transform="translate(686.125 218)">𝑖</text><path d="M0-0.5 132.562-0.5 132.562 69.4101 131.562 69.4101 131.562 0 132.062 0.5 0 0.5ZM136.062 68.0767 132.062 76.0767 128.062 68.0767Z" fill="#4472C4" transform="matrix(-4.37114e-08 1 1 4.37114e-08 521.5 292.5)"/><text font-family="Source Han Serif CN,Source Han Serif CN_MSFontService,sans-serif" font-weight="400" font-size="21" transform="translate(537.622 412)">预测<tspan x="-341.582" y="174">作为训练样本</tspan><tspan x="216.16" y="165">作为袋外样本</tspan></text><path d="M213.5 539.5 220 423.5 233 423.5 239.5 539.5Z" stroke="#385723" stroke-miterlimit="8" fill="#385723" fill-rule="evenodd"/><path d="M234.5 481.5 244 465.5 253.5 465.5 234.5 497.5Z" stroke="#385723" stroke-miterlimit="8" fill="#385723" fill-rule="evenodd"/><path d="M269.097 453.024C269.014 462.501 261.113 470.072 251.449 469.936 247.533 469.88 243.741 468.538 240.681 466.124 236.17 472.146 227.523 473.41 221.365 468.948 220.289 468.168 219.332 467.239 218.525 466.191 214.964 471.209 207.916 472.42 202.783 468.897 201.363 467.921 200.187 466.641 199.346 465.153 194.14 469.627 186.187 469.099 181.581 463.975 179.646 461.822 178.531 459.081 178.43 456.224 171.429 453.198 168.22 445.182 171.262 438.319 171.517 437.742 171.814 437.183 172.149 436.647 167.405 428.327 170.415 417.85 178.871 413.247 181.503 411.814 184.472 411.073 187.49 411.096 188.741 403.083 196.389 397.621 204.573 398.895 207.308 399.321 209.873 400.479 211.986 402.242 216.085 393.657 226.503 390.001 235.254 394.076 238.921 395.784 241.879 398.687 243.623 402.291 253.813 398.136 265.537 402.912 269.809 412.959 269.863 413.086 269.915 413.213 269.967 413.341 276.204 413.543 281.126 418.653 280.96 424.753 280.872 428.005 279.324 431.043 276.727 433.06 281.585 436.908 282.376 443.896 278.493 448.668 276.253 451.422 272.812 452.952 269.227 452.789Z" stroke="#548235" stroke-width="1.33333" stroke-miterlimit="8" fill="#548235" fill-rule="evenodd"/><path d="M270.284 430.922C272.576 431.083 274.768 431.931 276.563 433.353M266.931 413.97C267.895 413.749 268.885 413.653 269.877 413.685M243.582 402.613C244.119 403.722 244.534 404.884 244.82 406.079M210.728 405.947C211.006 404.766 211.409 403.619 211.933 402.523M193.913 425.722C189.135 422.511 186.648 416.906 187.521 411.314M172.172 436.85C173.286 435.067 174.807 433.563 176.615 432.458M178.374 456.498C178.345 455.708 178.395 454.917 178.522 454.136M201.684 462.723C201.041 463.728 200.252 464.635 199.342 465.418M219.684 463.933C219.355 464.793 218.918 465.609 218.384 466.363M240.691 466.145C239.584 465.272 238.588 464.27 237.725 463.163M268.902 450.318C269.039 451.213 269.104 452.118 269.097 453.023" stroke="#548235" stroke-width="1.33333" stroke-miterlimit="8" fill="none" fill-rule="evenodd"/><path d="M202.243 485.466 218.788 491.225 224.18 502.377 191.092 490.858Z" stroke="#385723" stroke-width="1.33333" stroke-miterlimit="8" fill="#385723" fill-rule="evenodd"/><path d="M205.607 486.854C206.623 489.551 205.213 492.565 202.457 493.587 201.341 494.001 200.118 494.037 198.985 493.688 198.367 495.89 196.053 497.198 193.817 496.608 193.426 496.505 193.053 496.347 192.709 496.138 192.25 497.952 190.384 499.069 188.542 498.633 188.032 498.512 187.558 498.278 187.156 497.948 186.171 499.788 183.857 500.511 181.989 499.563 181.204 499.165 180.587 498.51 180.244 497.711 177.927 497.621 176.137 495.7 176.247 493.42 176.256 493.228 176.279 493.037 176.315 492.848 174.057 491.009 173.761 487.708 175.654 485.474 176.243 484.779 177.004 484.243 177.862 483.918 177.337 481.509 178.907 479.12 181.368 478.584 182.19 478.404 183.045 478.451 183.837 478.719 184.058 475.835 186.611 473.655 189.54 473.85 190.768 473.932 191.925 474.431 192.815 475.262 195.249 472.965 199.098 473.033 201.412 475.414 201.441 475.444 201.47 475.474 201.499 475.505 203.29 474.878 205.246 475.787 205.869 477.535 206.201 478.467 206.095 479.499 205.58 480.355 207.38 480.914 208.371 482.809 207.793 484.588 207.46 485.615 206.652 486.426 205.618 486.774Z" stroke="#548235" stroke-width="1.33333" stroke-miterlimit="8" fill="#548235" fill-rule="evenodd"/><path d="M203.518 480.456C204.186 480.25 204.9 480.25 205.565 480.456M200.707 476.016C200.956 475.848 201.226 475.712 201.511 475.612M192.839 475.358C193.113 475.613 193.358 475.897 193.57 476.205M183.887 479.908C183.836 479.543 183.825 479.173 183.853 478.805M181.288 487.362C179.581 486.975 178.261 485.658 177.895 483.977M176.344 492.903C176.464 492.275 176.73 491.682 177.122 491.17M180.259 497.795C180.164 497.574 180.091 497.344 180.042 497.109M187.552 497.002C187.48 497.358 187.356 497.702 187.184 498.023M192.79 495.37C192.791 495.65 192.757 495.93 192.688 496.202M198.99 493.693C198.581 493.566 198.188 493.392 197.822 493.172M205.254 486.108C205.392 486.347 205.509 486.597 205.606 486.854" stroke="#548235" stroke-width="1.33333" stroke-miterlimit="8" fill="none" fill-rule="evenodd"/></g></svg>