<svg width="689" height="533" xmlns="http://www.w3.org/2000/svg" xmlns:xlink="http://www.w3.org/1999/xlink" overflow="hidden"><defs><clipPath id="clip0"><path d="M67 31 756 31 756 564 67 564Z" fill-rule="evenodd" clip-rule="evenodd"/></clipPath></defs><g clip-path="url(#clip0)" transform="translate(-67 -31)"><rect x="425" y="71" width="324" height="126" stroke="#7F6000" stroke-width="2" stroke-miterlimit="8" fill="#BF9000"/><path d="M147.5 115C147.5 102.574 157.574 92.5001 170 92.5001 182.426 92.5001 192.5 102.574 192.5 115 192.5 127.426 182.426 137.5 170 137.5 157.574 137.5 147.5 127.426 147.5 115Z" stroke="#000000" stroke-width="3" stroke-miterlimit="8" fill="#FFFFFF" fill-rule="evenodd"/><text fill="#002060" font-family="Source Han Serif CN,Source Han Serif CN_MSFontService,sans-serif" font-weight="700" font-size="27" transform="translate(163.284 125)">?</text><rect x="426" y="103" width="214" height="94" stroke="#843C0C" stroke-width="2" stroke-miterlimit="8" fill="#C55A11"/><text font-family="Cambria Math,Cambria Math_MSFontService,sans-serif" font-weight="400" font-size="24" transform="translate(578.878 53)">­ЮЉџ<tspan x="-186.363" y="88">­ЮЉЏ</tspan><tspan font-size="27" x="-9.90668" y="89">­ЮЉЦ</tspan><tspan font-size="20" x="1.62665" y="97">­ЮЉЌ</tspan></text><path d="M600.813 113.518C602.714 114.02 604.174 115.102 605.192 116.766 606.211 118.429 606.721 120.436 606.721 122.786 606.721 125.143 606.213 127.15 605.197 128.807 604.182 130.463 602.72 131.543 600.813 132.044L600.578 131.292C602.082 130.791 603.2 129.801 603.933 128.323 604.665 126.845 605.031 124.967 605.031 122.688 605.031 120.488 604.667 118.66 603.938 117.205 603.208 115.75 602.079 114.772 600.549 114.27ZM592.264 113.518 592.527 114.27C591.004 114.772 589.876 115.75 589.144 117.205 588.411 118.66 588.045 120.488 588.045 122.688 588.045 124.967 588.411 126.845 589.144 128.323 589.876 129.801 590.994 130.791 592.498 131.292L592.264 132.044C590.356 131.543 588.895 130.463 587.879 128.807 586.863 127.15 586.356 125.143 586.356 122.786 586.356 120.436 586.865 118.429 587.884 116.766 588.903 115.102 590.363 114.02 592.264 113.518Z" fill-rule="evenodd"/><text font-family="Cambria Math,Cambria Math_MSFontService,sans-serif" font-weight="400" font-size="20" transform="translate(592.678 128)">­ЮЉќ</text><path d="M302.5 562.5 312.5 387.5 332.5 387.5 342.5 562.5Z" stroke="#385723" stroke-miterlimit="8" fill="#385723" fill-rule="evenodd"/><path d="M335.5 475 350 451.5 364.5 451.5 335.5 498.5Z" stroke="#385723" stroke-miterlimit="8" fill="#385723" fill-rule="evenodd"/><path d="M387.459 432.607C387.335 446.887 375.43 458.296 360.868 458.089 354.967 458.006 349.254 455.984 344.642 452.347 337.847 461.42 324.816 463.325 315.538 456.602 313.916 455.426 312.474 454.027 311.258 452.448 305.893 460.008 295.273 461.833 287.539 456.524 285.399 455.055 283.627 453.125 282.361 450.884 274.516 457.624 262.532 456.829 255.592 449.109 252.676 445.864 250.997 441.735 250.844 437.429 240.296 432.87 235.46 420.792 240.043 410.45 240.428 409.581 240.875 408.739 241.38 407.931 234.232 395.394 238.767 379.608 251.509 372.672 255.475 370.513 259.948 369.397 264.496 369.431 266.381 357.357 277.905 349.126 290.237 351.047 294.357 351.689 298.222 353.434 301.405 356.09 307.583 343.154 323.28 337.646 336.466 343.786 341.991 346.36 346.448 350.734 349.076 356.163 364.43 349.903 382.095 357.1 388.533 372.239 388.614 372.429 388.693 372.621 388.77 372.813 398.168 373.118 405.585 380.817 405.335 390.009 405.202 394.909 402.869 399.488 398.957 402.526 406.277 408.324 407.468 418.854 401.618 426.045 398.242 430.193 393.057 432.499 387.655 432.254Z" stroke="#548235" stroke-width="1.33333" stroke-miterlimit="8" fill="#548235" fill-rule="evenodd"/><path d="M389.247 399.304C392.702 399.546 396.004 400.825 398.709 402.967M384.195 373.761C385.648 373.428 387.141 373.284 388.635 373.332M349.014 356.649C349.823 358.321 350.448 360.071 350.879 361.872M299.51 361.673C299.928 359.894 300.537 358.164 301.326 356.513M274.174 391.469C266.974 386.631 263.227 378.185 264.542 369.76M241.415 408.237C243.094 405.55 245.385 403.285 248.109 401.619M250.759 437.843C250.717 436.651 250.792 435.459 250.983 434.283M285.883 447.221C284.914 448.736 283.726 450.103 282.354 451.282M313.005 449.044C312.51 450.341 311.851 451.571 311.046 452.706M344.658 452.378C342.99 451.062 341.489 449.553 340.189 447.884M387.165 428.529C387.373 429.879 387.471 431.242 387.459 432.606" stroke="#548235" stroke-width="1.33333" stroke-miterlimit="8" fill="none" fill-rule="evenodd"/><path d="M286.726 481.49 311.654 490.168 319.78 506.971 269.922 489.615Z" stroke="#385723" stroke-width="1.33333" stroke-miterlimit="8" fill="#385723" fill-rule="evenodd"/><path d="M291.793 483.582C293.325 487.646 291.2 492.188 287.048 493.727 285.366 494.351 283.523 494.404 281.816 493.879 280.885 497.198 277.398 499.168 274.029 498.279 273.44 498.124 272.878 497.885 272.36 497.571 271.668 500.304 268.856 501.987 266.08 501.329 265.312 501.148 264.598 500.795 263.993 500.298 262.508 503.07 259.022 504.16 256.207 502.732 255.023 502.132 254.094 501.145 253.578 499.941 250.086 499.805 247.39 496.911 247.555 493.475 247.569 493.186 247.603 492.898 247.657 492.614 244.254 489.843 243.808 484.868 246.661 481.503 247.549 480.455 248.695 479.648 249.988 479.158 249.198 475.527 251.563 471.929 255.271 471.12 256.51 470.85 257.798 470.921 258.992 471.325 259.324 466.978 263.172 463.694 267.585 463.988 269.435 464.112 271.178 464.863 272.519 466.115 276.187 462.654 281.986 462.757 285.473 466.344 285.517 466.389 285.561 466.435 285.604 466.481 288.303 465.536 291.251 466.906 292.189 469.54 292.688 470.944 292.529 472.499 291.753 473.79 294.465 474.631 295.959 477.486 295.088 480.168 294.586 481.714 293.369 482.938 291.81 483.461Z" stroke="#548235" stroke-width="1.33333" stroke-miterlimit="8" fill="#548235" fill-rule="evenodd"/><path d="M288.646 473.941C289.652 473.631 290.729 473.631 291.731 473.942M284.41 467.252C284.786 466.998 285.193 466.793 285.622 466.643M272.555 466.259C272.968 466.645 273.337 467.073 273.657 467.536M259.067 473.116C258.991 472.566 258.973 472.008 259.016 471.454M255.151 484.347C252.578 483.764 250.589 481.78 250.037 479.247M247.701 492.697C247.882 491.75 248.283 490.856 248.873 490.085M253.6 500.067C253.457 499.734 253.347 499.388 253.272 499.033M264.59 498.873C264.481 499.409 264.294 499.927 264.035 500.412M272.482 496.414C272.483 496.836 272.432 497.257 272.328 497.667M281.824 493.886C281.207 493.696 280.616 493.433 280.064 493.102M291.262 482.458C291.469 482.818 291.647 483.194 291.793 483.582" stroke="#548235" stroke-width="1.33333" stroke-miterlimit="8" fill="none" fill-rule="evenodd"/><text font-family="Cambria Math,Cambria Math_MSFontService,sans-serif" font-weight="400" font-size="24" transform="translate(92.3908 178)">­ЮЉЦ<tspan font-size="18" x="12.0467" y="5">1</tspan><tspan x="23.2067" y="0">,</tspan><tspan x="32.2067" y="0">­ЮЉЦ</tspan><tspan font-size="18" x="44.8067" y="5">2</tspan><tspan x="55.9667" y="0">,</tspan><tspan x="64.9667" y="0">­ЮЉЦ</tspan><tspan font-size="18" x="77.5667" y="5">3</tspan><tspan x="88.7267" y="0">,</tspan><tspan x="97.7267" y="0">Рђд</tspan><tspan x="119.727" y="0">,</tspan><tspan x="128.727" y="0">­ЮЉЦ</tspan><tspan font-size="18" x="141.327" y="5">­ЮЉЏ</tspan></text><path d="M534.768 256.5 534.768 413.707 432.167 413.707 432.167 412.707 534.268 412.707 533.768 413.207 533.768 256.5ZM433.5 417.207 425.5 413.207 433.5 409.207Z" fill="#4472C4"/><text font-family="Source Han Serif CN,Source Han Serif CN_MSFontService,sans-serif" font-weight="400" font-size="21" transform="translate(443.524 407)">ТаиТюгТійтЈќ<tspan x="45.8486" y="-178">У«Гу╗ЃТаиТюг</tspan><tspan x="213.732" y="-178">УбІтцќТаиТюг</tspan></text><path d="M0-0.5 49.9051-0.5 49.9051 176.6 48.9051 176.6 48.9051 0 49.4051 0.5 0 0.5ZM53.4051 175.266 49.4051 183.266 45.4051 175.266Z" fill="#4472C4" transform="matrix(-1 -8.74228e-08 -8.74228e-08 1 362.905 137.5)"/><text font-family="Source Han Serif CN,Source Han Serif CN_MSFontService,sans-serif" font-weight="400" font-size="21" transform="translate(320.708 278)">уЅ╣тЙЂТійтЈќ<tspan fill="#FFFFFF" font-size="19" x="-73.3423" y="123">жџЈТю║ТійтЈќуџёУ«Гу╗ЃжЏє</tspan><tspan fill="#FFFFFF" font-size="19" x="-64.009" y="145">жџЈТю║ТійтЈќ</tspan><tspan fill="#FFFFFF" font-size="19" x="10.6577" y="145">уџёуЅ╣тЙЂ</tspan></text><path d="M310.5 512C310.5 505.649 315.649 500.5 322 500.5 328.351 500.5 333.5 505.649 333.5 512 333.5 518.351 328.351 523.5 322 523.5 315.649 523.5 310.5 518.351 310.5 512Z" stroke="#FFFFFF" stroke-width="3" stroke-miterlimit="8" fill="none" fill-rule="evenodd"/><text fill="#002060" font-family="Cambria Math,Cambria Math_MSFontService,sans-serif" font-weight="400" font-size="19" transform="translate(313.129 518)"> <tspan fill="#FFFFFF" x="4.16666" y="0">­ЮњЋ</tspan></text></g></svg>