<svg id="kity_svg_6" xmlns="http://www.w3.org/2000/svg" xmlns:xlink="http://www.w3.org/1999/xlink" version="1.1" width="645" height="299" style="background: rgb(251, 251, 251); visibility: visible;" viewBox="0 0 645 299"><defs id="kity_defs_7"><linearGradient id="kity_linearGradient_17" x1="0" y1="0" x2="0" y2="1"><stop id="kity_stop_18" offset="0" stop-color="rgb(255, 255, 255)"></stop><stop id="kity_stop_19" offset="1" stop-color="rgb(204, 204, 204)"></stop></linearGradient><marker id="kity_marker_2" orient="auto" refX="6" refY="0" viewBox="-7 -7 14 14" markerWidth="7" markerHeight="7" markerUnits="userSpaceOnUse"><path id="kity_path_3" fill="rgb(115, 161, 191)" stroke="none" d="M6,0A6,6,0,1,1,-6,0A6,6,0,1,1,6,0"></path></marker></defs><g id="kity_g_8"><g id="minder1" text-rendering="optimize-speed"><g id="minder_connect_group1"><path id="kity_path_31" fill="none" stroke="rgb(115, 161, 191)" stroke-width="1" d="M101.99999556123169,150.49999992069442A96.5,105.5,0,0,1,198.49999556123169,44.99999992069442"></path><path id="kity_path_33" fill="none" stroke="rgb(115, 161, 191)" stroke-width="1" d="M376.4999955612317,-22.50000007930558C384.4999955612317,-23.00000007930558,384.4999955612317,-107.50000007930558,392.4999955612317,-107.50000007930558" display="none"></path><path id="kity_path_35" fill="none" stroke="rgb(115, 161, 191)" stroke-width="1" d="M513.4999955612317,-107.50000007930558C521.4999955612317,-107.50000007930558,521.4999955612317,-159.50000007930558,529.4999955612317,-159.50000007930558" display="none"></path><path id="kity_path_37" fill="none" stroke="rgb(115, 161, 191)" stroke-width="1" d="M513.4999955612317,-107.50000007930558C521.4999955612317,-107.50000007930558,521.4999955612317,-133.50000007930558,529.4999955612317,-133.50000007930558" display="none"></path><path id="kity_path_39" fill="none" stroke="rgb(115, 161, 191)" stroke-width="1" d="M513.4999955612317,-107.50000007930558C521.4999955612317,-107.50000007930558,521.4999955612317,-107.50000007930558,529.4999955612317,-107.50000007930558" display="none"></path><path id="kity_path_41" fill="none" stroke="rgb(115, 161, 191)" stroke-width="1" d="M513.4999955612317,-107.50000007930558C521.4999955612317,-107.50000007930558,521.4999955612317,-55.50000007930558,529.4999955612317,-55.50000007930558" display="none"></path><path id="kity_path_43" fill="none" stroke="rgb(115, 161, 191)" stroke-width="1" d="M376.4999955612317,-22.50000007930558C384.4999955612317,-23.00000007930558,384.4999955612317,61.49999992069442,392.4999955612317,61.49999992069442" display="none"></path><path id="kity_path_45" fill="none" stroke="rgb(115, 161, 191)" stroke-width="1" d="M526.4999955612317,61.49999992069442C534.4999955612317,61.49999992069442,534.4999955612317,-3.500000079305579,542.4999955612317,-3.500000079305579" display="none"></path><path id="kity_path_47" fill="none" stroke="rgb(115, 161, 191)" stroke-width="1" d="M526.4999955612317,61.49999992069442C534.4999955612317,61.49999992069442,534.4999955612317,22.49999992069442,542.4999955612317,22.49999992069442" display="none"></path><path id="kity_path_49" fill="none" stroke="rgb(115, 161, 191)" stroke-width="1" d="M526.4999955612317,61.49999992069442C534.4999955612317,61.49999992069442,534.4999955612317,48.49999992069442,542.4999955612317,48.49999992069442" display="none"></path><path id="kity_path_51" fill="none" stroke="rgb(115, 161, 191)" stroke-width="1" d="M777.4999955612317,48.49999992069442C785.4999955612317,48.49999992069442,785.4999955612317,48.49999992069442,793.4999955612317,48.49999992069442" display="none"></path><path id="kity_path_53" fill="none" stroke="rgb(115, 161, 191)" stroke-width="1" d="M526.4999955612317,61.49999992069442C534.4999955612317,61.49999992069442,534.4999955612317,74.49999992069442,542.4999955612317,74.49999992069442" display="none"></path><path id="kity_path_55" fill="none" stroke="rgb(115, 161, 191)" stroke-width="1" d="M526.4999955612317,61.49999992069442C534.4999955612317,61.49999992069442,534.4999955612317,100.49999992069442,542.4999955612317,100.49999992069442" display="none"></path><path id="kity_path_57" fill="none" stroke="rgb(115, 161, 191)" stroke-width="1" d="M526.4999955612317,61.49999992069442C534.4999955612317,61.49999992069442,534.4999955612317,126.49999992069442,542.4999955612317,126.49999992069442" display="none"></path><path id="kity_path_59" fill="none" stroke="rgb(115, 161, 191)" stroke-width="1" d="M101.99999556123169,150.49999992069442A96.5,42.5,0,0,1,198.49999556123169,107.99999992069442"></path><path id="kity_path_61" fill="none" stroke="rgb(115, 161, 191)" stroke-width="1" d="M393.4999955612317,108.49999992069442C401.4999955612317,107.99999992069442,401.4999955612317,95.49999992069442,409.4999955612317,95.49999992069442" display="none"></path><path id="kity_path_63" fill="none" stroke="rgb(115, 161, 191)" stroke-width="1" d="M526.4999955612317,95.49999992069442C534.4999955612317,95.49999992069442,534.4999955612317,95.49999992069442,542.4999955612317,95.49999992069442" display="none"></path><path id="kity_path_65" fill="none" stroke="rgb(115, 161, 191)" stroke-width="1" d="M393.4999955612317,108.49999992069442C401.4999955612317,107.99999992069442,401.4999955612317,121.49999992069442,409.4999955612317,121.49999992069442" display="none"></path><path id="kity_path_67" fill="none" stroke="rgb(115, 161, 191)" stroke-width="1" d="M614.4999955612317,121.49999992069442C622.4999955612317,121.49999992069442,622.4999955612317,121.49999992069442,630.4999955612317,121.49999992069442" display="none"></path><path id="kity_path_69" fill="none" stroke="rgb(115, 161, 191)" stroke-width="1" d="M101.99999556123169,150.49999992069442A96.5,106.5,0,0,0,198.49999556123169,256.99999992069445"></path><path id="kity_path_203" fill="none" stroke="rgb(115, 161, 191)" stroke-width="1" d="M101.99999556123169,150.49999992069442A96.5,31.5,0,0,0,198.49999556123169,181.99999992069442"></path><path id="kity_path_220" fill="none" stroke="rgb(115, 161, 191)" stroke-width="1" d="M367.4999955612317,182.49999992069442C375.4999955612317,181.99999992069442,375.4999955612317,156.49999992069442,383.4999955612317,156.49999992069442"></path><path id="kity_path_228" fill="none" stroke="rgb(115, 161, 191)" stroke-width="1" d="M367.4999955612317,182.49999992069442C375.4999955612317,181.99999992069442,375.4999955612317,182.49999992069442,383.4999955612317,182.49999992069442"></path><path id="kity_path_236" fill="none" stroke="rgb(115, 161, 191)" stroke-width="1" d="M367.4999955612317,182.49999992069442C375.4999955612317,181.99999992069442,375.4999955612317,208.49999992069442,383.4999955612317,208.49999992069442"></path><path id="kity_path_244" fill="none" stroke="rgb(115, 161, 191)" stroke-width="1" d="M441.4999955612317,156.49999992069442C449.4999955612317,156.49999992069442,449.4999955612317,156.49999992069442,457.4999955612317,156.49999992069442"></path><path id="kity_path_252" fill="none" stroke="rgb(115, 161, 191)" stroke-width="1" d="M716.4999955612317,22.49999992069442C724.4999955612317,22.49999992069442,724.4999955612317,22.49999992069442,732.4999955612317,22.49999992069442" display="none"></path><path id="kity_path_260" fill="none" stroke="rgb(115, 161, 191)" stroke-width="1" d="M694.4999955612317,-55.50000007930558C702.4999955612317,-55.50000007930558,702.4999955612317,-55.50000007930558,710.4999955612317,-55.50000007930558" display="none"></path><path id="kity_path_269" fill="none" stroke="rgb(115, 161, 191)" stroke-width="1" d="M925.4999955612317,-55.50000007930558C933.4999955612317,-55.50000007930558,933.4999955612317,-81.50000007930558,941.4999955612317,-81.50000007930558" display="none"></path><path id="kity_path_277" fill="none" stroke="rgb(115, 161, 191)" stroke-width="1" d="M925.4999955612317,-55.50000007930558C933.4999955612317,-55.50000007930558,933.4999955612317,-55.50000007930558,941.4999955612317,-55.50000007930558" display="none"></path><path id="kity_path_285" fill="none" stroke="rgb(115, 161, 191)" stroke-width="1" d="M925.4999955612317,-55.50000007930558C933.4999955612317,-55.50000007930558,933.4999955612317,-29.50000007930558,941.4999955612317,-29.50000007930558" display="none"></path><path id="kity_path_293" fill="none" stroke="rgb(115, 161, 191)" stroke-width="1" d="M746.4999955612317,-107.50000007930558C754.4999955612317,-107.50000007930558,754.4999955612317,-107.50000007930558,762.4999955612317,-107.50000007930558" display="none"></path></g><g id="minder_node1"><path id="node_outline1" fill="rgb(115, 161, 191)" stroke="rgb(115, 161, 191)" d="M26.499995561231685,124.49999992069442h151a5,5,0,0,1,5,5v42a5,5,0,0,1,-5,5h-151a5,5,0,0,1,-5,-5v-42a5,5,0,0,1,5,-5z" stroke-width="3"></path><g id="node_text1" fill="white"><text id="kity_text_22" text-rendering="inherit" font-size="16" dy=".8em" y="128.099999890043" x="33.499995561231685">机器学习</text><text id="kity_text_113" text-rendering="inherit" font-size="16" dy=".8em" y="152.099999890043" x="33.499995561231685">Machine Learning</text></g></g><g id="kity_g_14" display="none"><path id="kity_path_15" fill="rgba(0, 92, 153, 0.5)" stroke="none" d="M200.49999556123169,219.49999992069442h167v8h-167z"></path><path id="kity_path_16" fill="none" stroke="rgb(0, 76, 128)" d="M200.49999556123169,219.49999992069442L367.4999955612317,219.49999992069442" stroke-width="1"></path></g><g id="minder_node2"><g id="node_expander14" style="cursor: pointer;"><path id="kity_path_174" fill="white" stroke="gray" d="M199.49999275960425,45.00000225067134A6,6,0,1,1,187.49999275960425,45.00000225067134A6,6,0,1,1,199.49999275960425,45.00000225067134"></path><path id="kity_path_175" fill="none" stroke="gray" d="M188.99999275960425,45.00000225067134L197.99999275960425,45.00000225067134M193.49999275960425,40.50000225067134L193.49999275960425,49.50000225067134"></path></g><path id="node_outline15" fill="rgb(238, 243, 246)" stroke="rgb(115, 161, 191)" d="M203.49999143131998,21.500002261713888h170a3,3,0,0,1,3,3v41a3,3,0,0,1,-3,3h-170a3,3,0,0,1,-3,-3v-41a3,3,0,0,1,3,-3z" stroke-width="1"></path><g id="node_text15" fill="black"><text id="kity_text_97" text-rendering="inherit" font-size="14" dy=".8em" y="24.900002444032992" x="220.49999143131998">监督学习</text><text id="kity_text_98" text-rendering="inherit" font-size="14" dy=".8em" y="45.90000244403299" x="220.49999143131998">Supervised Learning</text></g></g><g id="minder_node3" display="none"><g id="node_expander5" style="cursor: pointer;" display="none"><path id="kity_path_147" fill="white" stroke="gray" d="M392.49998755605606,37.50000241630951A6,6,0,1,1,380.49998755605606,37.50000241630951A6,6,0,1,1,392.49998755605606,37.50000241630951"></path><path id="kity_path_148" fill="none" stroke="gray" d="M381.99998755605606,37.50000241630951L390.99998755605606,37.50000241630951"></path></g><path id="node_outline6" fill="none" stroke="none" d="M392.4999876326846,28.500002416309513h111a5,5,0,0,1,5,5v8a5,5,0,0,1,-5,5h-111a5,5,0,0,1,-5,-5v-8a5,5,0,0,1,5,-5z"></path><g id="node_text6" fill="black"><text id="kity_text_79" text-rendering="inherit" font-size="12" dy=".8em" y="29.700002602460046" x="392.4999876326846">回归（Regression）</text></g></g><g id="minder_node4" display="none"><g id="node_expander1" style="cursor: pointer;" display="none"><path id="kity_path_135" fill="white" stroke="gray" d="M408.4999872026946,13.500002946351657A6,6,0,1,1,396.4999872026946,13.500002946351657A6,6,0,1,1,408.4999872026946,13.500002946351657"></path><path id="kity_path_136" fill="none" stroke="gray"></path></g><path id="node_outline2" fill="none" stroke="none" d="M408.4999872793232,4.500002946351657h152a5,5,0,0,1,5,5v8a5,5,0,0,1,-5,5h-152a5,5,0,0,1,-5,-5v-8a5,5,0,0,1,5,-5z"></path><g id="node_text2" fill="black"><text id="kity_text_71" text-rendering="inherit" font-size="12" dy=".8em" y="5.700003132502189" x="408.4999872793232">代价函数（Cost Function）</text></g></g><g id="minder_node5" display="none"><g id="node_expander2" style="cursor: pointer;" display="none"><path id="kity_path_138" fill="white" stroke="gray" d="M408.4999872026946,21.500002769670942A6,6,0,1,1,396.4999872026946,21.500002769670942A6,6,0,1,1,408.4999872026946,21.500002769670942"></path><path id="kity_path_139" fill="none" stroke="gray"></path></g><path id="node_outline3" fill="none" stroke="none" d="M408.4999872793232,12.500002769670942h184a5,5,0,0,1,5,5v8a5,5,0,0,1,-5,5h-184a5,5,0,0,1,-5,-5v-8a5,5,0,0,1,5,-5z"></path><g id="node_text3" fill="black"><text id="kity_text_73" text-rendering="inherit" font-size="12" dy=".8em" y="13.700002955821475" x="408.4999872793232">梯度下降法（Gradient Descent）</text></g></g><g id="minder_node6" display="none"><g id="node_expander3" style="cursor: pointer;" display="none"><path id="kity_path_141" fill="white" stroke="gray" d="M408.4999872026946,29.500002592990228A6,6,0,1,1,396.4999872026946,29.500002592990228A6,6,0,1,1,408.4999872026946,29.500002592990228"></path><path id="kity_path_142" fill="none" stroke="gray" d="M397.9999872026946,29.500002592990228L406.9999872026946,29.500002592990228"></path></g><path id="node_outline4" fill="none" stroke="none" d="M408.4999872793232,20.500002592990228h207a5,5,0,0,1,5,5v8a5,5,0,0,1,-5,5h-207a5,5,0,0,1,-5,-5v-8a5,5,0,0,1,5,-5z" stroke-width="3"></path><g id="node_text4" fill="black"><text id="kity_text_75" text-rendering="inherit" font-size="12" dy=".8em" y="21.70000277914076" x="408.4999872793232">最小二乘法（Least Square Method）</text></g></g><g id="minder_node7" display="none"><g id="node_expander4" style="cursor: pointer;" display="none"><path id="kity_path_144" fill="white" stroke="gray" d="M408.4999872026946,37.50000241630951A6,6,0,1,1,396.4999872026946,37.50000241630951A6,6,0,1,1,408.4999872026946,37.50000241630951"></path><path id="kity_path_145" fill="none" stroke="gray" d="M397.9999872026946,37.50000241630951L406.9999872026946,37.50000241630951"></path></g><path id="node_outline5" fill="none" stroke="none" d="M408.4999872793232,28.500002416309513h155a5,5,0,0,1,5,5v8a5,5,0,0,1,-5,5h-155a5,5,0,0,1,-5,-5v-8a5,5,0,0,1,5,-5z" stroke-width="3"></path><g id="node_text5" fill="black"><text id="kity_text_77" text-rendering="inherit" font-size="12" dy=".8em" y="29.700002602460046" x="408.4999872793232">牛顿法（Newton Method）</text></g></g><g id="minder_node8" display="none"><g id="node_expander13" style="cursor: pointer;" display="none"><path id="kity_path_171" fill="white" stroke="gray" d="M392.49998755605606,45.5000022396288A6,6,0,1,1,380.49998755605606,45.5000022396288A6,6,0,1,1,392.49998755605606,45.5000022396288"></path><path id="kity_path_172" fill="none" stroke="gray" d="M381.99998755605606,45.5000022396288L390.99998755605606,45.5000022396288"></path></g><path id="node_outline14" fill="none" stroke="none" d="M392.4999876326846,36.5000022396288h124a5,5,0,0,1,5,5v8a5,5,0,0,1,-5,5h-124a5,5,0,0,1,-5,-5v-8a5,5,0,0,1,5,-5z" stroke-width="3"></path><g id="node_text14" fill="black"><text id="kity_text_95" text-rendering="inherit" font-size="12" dy=".8em" y="37.70000242577933" x="392.4999876326846">分类（Classification）</text></g></g><g id="minder_node9" display="none"><g id="node_expander6" style="cursor: pointer;" display="none"><path id="kity_path_150" fill="white" stroke="gray" d="M408.4999872026946,5.500003123032371A6,6,0,1,1,396.4999872026946,5.500003123032371A6,6,0,1,1,408.4999872026946,5.500003123032371"></path><path id="kity_path_151" fill="none" stroke="gray"></path></g><path id="node_outline7" fill="none" stroke="none" d="M408.4999872793232,-3.4999968769676286h183a5,5,0,0,1,5,5v8a5,5,0,0,1,-5,5h-183a5,5,0,0,1,-5,-5v-8a5,5,0,0,1,5,-5z" stroke-width="3"></path><g id="node_text7" fill="black"><text id="kity_text_81" text-rendering="inherit" font-size="12" dy=".8em" y="-2.299996690817096" x="408.4999872793232">逻辑回归（Logistic Regression）</text></g></g><g id="minder_node10" display="none"><g id="node_expander7" style="cursor: pointer;" display="none"><path id="kity_path_153" fill="white" stroke="gray" d="M408.4999872026946,13.500002946351657A6,6,0,1,1,396.4999872026946,13.500002946351657A6,6,0,1,1,408.4999872026946,13.500002946351657"></path><path id="kity_path_154" fill="none" stroke="gray" d="M397.9999872026946,13.500002946351657L406.9999872026946,13.500002946351657"></path></g><path id="node_outline8" fill="none" stroke="none" d="M408.4999872793232,4.500002946351657h164a5,5,0,0,1,5,5v8a5,5,0,0,1,-5,5h-164a5,5,0,0,1,-5,-5v-8a5,5,0,0,1,5,-5z" stroke-width="3"></path><g id="node_text8" fill="black"><text id="kity_text_83" text-rendering="inherit" font-size="12" dy=".8em" y="5.700003132502189" x="408.4999872793232">神经网络（Neural Network）</text></g></g><g id="minder_node11" display="none"><g id="node_expander9" style="cursor: pointer;" display="none"><path id="kity_path_159" fill="white" stroke="gray" d="M408.4999872026946,21.500002769670942A6,6,0,1,1,396.4999872026946,21.500002769670942A6,6,0,1,1,408.4999872026946,21.500002769670942"></path><path id="kity_path_160" fill="none" stroke="gray" d="M397.9999872026946,21.500002769670942L406.9999872026946,21.500002769670942"></path></g><path id="node_outline10" fill="none" stroke="none" d="M408.4999872793232,12.500002769670942h225a5,5,0,0,1,5,5v8a5,5,0,0,1,-5,5h-225a5,5,0,0,1,-5,-5v-8a5,5,0,0,1,5,-5z"></path><g id="node_text10" fill="black"><text id="kity_text_87" text-rendering="inherit" font-size="12" dy=".8em" y="13.700002955821475" x="408.4999872793232">支持向量机（Support Vector Machine）</text></g></g><g id="minder_node12" display="none"><g id="node_expander8" style="cursor: pointer;" display="none"><path id="kity_path_156" fill="white" stroke="gray" d="M424.49998684933325,21.500002769670942A6,6,0,1,1,412.49998684933325,21.500002769670942A6,6,0,1,1,424.49998684933325,21.500002769670942"></path><path id="kity_path_157" fill="none" stroke="gray"></path></g><path id="node_outline9" fill="none" stroke="none" d="M424.4999869259618,12.500002769670942h326a5,5,0,0,1,5,5v8a5,5,0,0,1,-5,5h-326a5,5,0,0,1,-5,-5v-8a5,5,0,0,1,5,-5z" stroke-width="3"></path><g id="node_text9" fill="black"><text id="kity_text_85" text-rendering="inherit" font-size="12" dy=".8em" y="13.700002955821475" x="424.4999869259618">序列最小优化（Sequential Minimal Optimization，SMO）</text></g></g><g id="minder_node13" display="none"><g id="node_expander10" style="cursor: pointer;" display="none"><path id="kity_path_162" fill="white" stroke="gray" d="M408.4999872026946,29.500002592990228A6,6,0,1,1,396.4999872026946,29.500002592990228A6,6,0,1,1,408.4999872026946,29.500002592990228"></path><path id="kity_path_163" fill="none" stroke="gray"></path></g><path id="node_outline11" fill="none" stroke="none" d="M408.4999872793232,20.500002592990228h176a5,5,0,0,1,5,5v8a5,5,0,0,1,-5,5h-176a5,5,0,0,1,-5,-5v-8a5,5,0,0,1,5,-5z"></path><g id="node_text11" fill="black"><text id="kity_text_89" text-rendering="inherit" font-size="12" dy=".8em" y="21.70000277914076" x="408.4999872793232">K-近邻（K-Nearest Neighbor）</text></g></g><g id="minder_node14" display="none"><g id="node_expander11" style="cursor: pointer;" display="none"><path id="kity_path_165" fill="white" stroke="gray" d="M408.4999872026946,37.50000241630951A6,6,0,1,1,396.4999872026946,37.50000241630951A6,6,0,1,1,408.4999872026946,37.50000241630951"></path><path id="kity_path_166" fill="none" stroke="gray"></path></g><path id="node_outline12" fill="none" stroke="none" d="M408.4999872793232,28.500002416309513h138a5,5,0,0,1,5,5v8a5,5,0,0,1,-5,5h-138a5,5,0,0,1,-5,-5v-8a5,5,0,0,1,5,-5z"></path><g id="node_text12" fill="black"><text id="kity_text_91" text-rendering="inherit" font-size="12" dy=".8em" y="29.700002602460046" x="408.4999872793232">决策树（Decision Tree）</text></g></g><g id="minder_node15" display="none"><g id="node_expander12" style="cursor: pointer;" display="none"><path id="kity_path_168" fill="white" stroke="gray" d="M408.4999872026946,45.5000022396288A6,6,0,1,1,396.4999872026946,45.5000022396288A6,6,0,1,1,408.4999872026946,45.5000022396288"></path><path id="kity_path_169" fill="none" stroke="gray"></path></g><path id="node_outline13" fill="none" stroke="none" d="M408.4999872793232,36.5000022396288h171a5,5,0,0,1,5,5v8a5,5,0,0,1,-5,5h-171a5,5,0,0,1,-5,-5v-8a5,5,0,0,1,5,-5z"></path><g id="node_text13" fill="black"><text id="kity_text_93" text-rendering="inherit" font-size="12" dy=".8em" y="37.70000242577933" x="408.4999872793232">朴素贝叶斯（Naive Bayesian）</text></g></g><g id="minder_node16"><g id="node_expander19" style="cursor: pointer;"><path id="kity_path_189" fill="white" stroke="gray" d="M199.49999275960425,108.00000085931072A6,6,0,1,1,187.49999275960425,108.00000085931072A6,6,0,1,1,199.49999275960425,108.00000085931072"></path><path id="kity_path_190" fill="none" stroke="gray" d="M188.99999275960425,108.00000085931072L197.99999275960425,108.00000085931072M193.49999275960425,103.50000085931072L193.49999275960425,112.50000085931072"></path></g><path id="node_outline20" fill="rgb(238, 243, 246)" stroke="rgb(115, 161, 191)" d="M203.49999143131998,84.50000087035326h187a3,3,0,0,1,3,3v41a3,3,0,0,1,-3,3h-187a3,3,0,0,1,-3,-3v-41a3,3,0,0,1,3,-3z" stroke-width="1"></path><g id="node_text20" fill="black"><text id="kity_text_108" text-rendering="inherit" font-size="14" dy=".8em" y="87.90000105267237" x="220.49999143131998">无监督学习</text><text id="kity_text_109" text-rendering="inherit" font-size="14" dy=".8em" y="108.90000105267237" x="220.49999143131998">Unsupervised Learning</text></g></g><g id="minder_node17" display="none"><g id="node_expander16" style="cursor: pointer;" display="none"><path id="kity_path_180" fill="white" stroke="gray" d="M409.49998718060954,100.50000102494889A6,6,0,1,1,397.49998718060954,100.50000102494889A6,6,0,1,1,409.49998718060954,100.50000102494889"></path><path id="kity_path_181" fill="none" stroke="gray" d="M398.99998718060954,100.50000102494889L407.99998718060954,100.50000102494889"></path></g><path id="node_outline17" fill="none" stroke="none" d="M409.4999872572381,91.50000102494889h107a5,5,0,0,1,5,5v8a5,5,0,0,1,-5,5h-107a5,5,0,0,1,-5,-5v-8a5,5,0,0,1,5,-5z" stroke-width="3"></path><g id="node_text17" fill="black"><text id="kity_text_102" text-rendering="inherit" font-size="12" dy=".8em" y="92.70000121109942" x="409.4999872572381">聚类（Clustering）</text></g></g><g id="minder_node18" display="none"><g id="node_expander15" style="cursor: pointer;" display="none"><path id="kity_path_177" fill="white" stroke="gray" d="M425.4999868272481,100.50000102494889A6,6,0,1,1,413.4999868272481,100.50000102494889A6,6,0,1,1,425.4999868272481,100.50000102494889"></path><path id="kity_path_178" fill="none" stroke="gray"></path></g><path id="node_outline16" fill="none" stroke="none" d="M425.4999869038767,91.50000102494889h112a5,5,0,0,1,5,5v8a5,5,0,0,1,-5,5h-112a5,5,0,0,1,-5,-5v-8a5,5,0,0,1,5,-5z"></path><g id="node_text16" fill="black"><text id="kity_text_100" text-rendering="inherit" font-size="12" dy=".8em" y="92.70000121109942" x="425.4999869038767">K-均值（K-Means）</text></g></g><g id="minder_node19" display="none"><g id="node_expander18" style="cursor: pointer;" display="none"><path id="kity_path_186" fill="white" stroke="gray" d="M409.49998718060954,108.50000084826817A6,6,0,1,1,397.49998718060954,108.50000084826817A6,6,0,1,1,409.49998718060954,108.50000084826817"></path><path id="kity_path_187" fill="none" stroke="gray" d="M398.99998718060954,108.50000084826817L407.99998718060954,108.50000084826817"></path></g><path id="node_outline19" fill="none" stroke="none" d="M409.4999872572381,99.50000084826817h195a5,5,0,0,1,5,5v8a5,5,0,0,1,-5,5h-195a5,5,0,0,1,-5,-5v-8a5,5,0,0,1,5,-5z" stroke-width="3"></path><g id="node_text19" fill="black"><text id="kity_text_106" text-rendering="inherit" font-size="12" dy=".8em" y="100.7000010344187" x="409.4999872572381">降维（Dimensionality Reduction）</text></g></g><g id="minder_node20" display="none"><g id="node_expander17" style="cursor: pointer;" display="none"><path id="kity_path_183" fill="white" stroke="gray" d="M425.4999868272481,108.50000084826817A6,6,0,1,1,413.4999868272481,108.50000084826817A6,6,0,1,1,425.4999868272481,108.50000084826817"></path><path id="kity_path_184" fill="none" stroke="gray"></path></g><path id="node_outline18" fill="none" stroke="none" d="M425.4999869038767,99.50000084826817h267a5,5,0,0,1,5,5v8a5,5,0,0,1,-5,5h-267a5,5,0,0,1,-5,-5v-8a5,5,0,0,1,5,-5z"></path><g id="node_text18" fill="black"><text id="kity_text_104" text-rendering="inherit" font-size="12" dy=".8em" y="100.7000010344187" x="425.4999869038767">主成分分析法（Principal Component Analysis）</text></g></g><g id="minder_node21" opacity="1"><g id="node_expander20" style="cursor: pointer;" display="none"><path id="kity_path_192" fill="white" stroke="gray" d="M199.49999275960425,256.99999756863247A6,6,0,1,1,187.49999275960425,256.99999756863247A6,6,0,1,1,199.49999275960425,256.99999756863247"></path><path id="kity_path_193" fill="none" stroke="gray"></path></g><path id="node_outline21" fill="rgb(238, 243, 246)" stroke="rgb(115, 161, 191)" d="M203.49999143131998,233.49999757967498h195a3,3,0,0,1,3,3v41a3,3,0,0,1,-3,3h-195a3,3,0,0,1,-3,-3v-41a3,3,0,0,1,3,-3z" stroke-width="1"></path><g id="node_text21" fill="black"><text id="kity_text_111" text-rendering="inherit" font-size="14" dy=".8em" y="236.8999977619941" x="220.49999143131998">强化学习</text><text id="kity_text_112" text-rendering="inherit" font-size="14" dy=".8em" y="257.8999977619941" x="220.49999143131998">Reinforcement Learning</text></g></g><g id="minder_node23" opacity="1"><g id="node_expander22" style="cursor: pointer;"><path id="kity_path_208" fill="white" stroke="gray" d="M199.49999275960425,181.9999992250141A6,6,0,1,1,187.49999275960425,181.9999992250141A6,6,0,1,1,199.49999275960425,181.9999992250141"></path><path id="kity_path_209" fill="none" stroke="gray" d="M188.99999275960425,181.9999992250141L197.99999275960425,181.9999992250141"></path></g><path id="node_outline23" fill="rgb(238, 243, 246)" stroke="rgb(115, 161, 191)" d="M203.49999143131998,158.49999923605665h161a3,3,0,0,1,3,3v41a3,3,0,0,1,-3,3h-161a3,3,0,0,1,-3,-3v-41a3,3,0,0,1,3,-3z" stroke-width="1"></path><g id="node_text23" fill="black"><text id="kity_text_205" text-rendering="inherit" font-size="14" dy=".8em" y="161.89999941837576" x="220.49999143131998">集成学习</text><text id="kity_text_218" text-rendering="inherit" font-size="14" dy=".8em" y="182.89999941837576" x="220.49999143131998">Ensemble Learning</text></g></g><g id="kity_g_12" display="none"><path id="kity_path_13" fill="none" stroke="rgb(66, 94, 112)" d="M203.49999556123169,167.49999992069442h161a3,3,0,0,1,3,3v41a3,3,0,0,1,-3,3h-161a3,3,0,0,1,-3,-3v-41a3,3,0,0,1,3,-3z" stroke-width="5"></path></g><g id="minder_node25"><g id="node_expander24" style="cursor: pointer;"><path id="kity_path_225" fill="white" stroke="gray" d="M383.4999878593914,156.49999978818389A6,6,0,1,1,371.4999878593914,156.49999978818389A6,6,0,1,1,383.4999878593914,156.49999978818389"></path><path id="kity_path_226" fill="none" stroke="gray" d="M372.9999878593914,156.49999978818389L381.9999878593914,156.49999978818389"></path></g><path id="node_outline25" fill="none" stroke="none" d="M388.499987721025,147.49999978818389h48a5,5,0,0,1,5,5v8a5,5,0,0,1,-5,5h-48a5,5,0,0,1,-5,-5v-8a5,5,0,0,1,5,-5z" stroke-width="3"></path><g id="node_text25" fill="black"><text id="kity_text_222" text-rendering="inherit" font-size="12" dy=".8em" y="148.69999997433442" x="388.499987721025">Bagging</text></g></g><g id="minder_node26"><g id="node_expander25" style="cursor: pointer;" display="none"><path id="kity_path_233" fill="white" stroke="gray" d="M383.4999878593914,182.49999921397156A6,6,0,1,1,371.4999878593914,182.49999921397156A6,6,0,1,1,383.4999878593914,182.49999921397156"></path><path id="kity_path_234" fill="none" stroke="gray"></path></g><path id="node_outline26" fill="none" stroke="none" d="M388.499987721025,173.49999921397156h51a5,5,0,0,1,5,5v8a5,5,0,0,1,-5,5h-51a5,5,0,0,1,-5,-5v-8a5,5,0,0,1,5,-5z" stroke-width="3"></path><g id="node_text26" fill="black"><text id="kity_text_230" text-rendering="inherit" font-size="12" dy=".8em" y="174.6999994001221" x="388.499987721025">Boosting</text></g></g><g id="minder_node27"><g id="node_expander26" style="cursor: pointer;" display="none"><path id="kity_path_241" fill="white" stroke="gray" d="M383.4999878593914,208.49999863975924A6,6,0,1,1,371.4999878593914,208.49999863975924A6,6,0,1,1,383.4999878593914,208.49999863975924"></path><path id="kity_path_242" fill="none" stroke="gray"></path></g><path id="node_outline27" fill="none" stroke="none" d="M388.499987721025,199.49999863975924h49a5,5,0,0,1,5,5v8a5,5,0,0,1,-5,5h-49a5,5,0,0,1,-5,-5v-8a5,5,0,0,1,5,-5z" stroke-width="3"></path><g id="node_text27" fill="black"><text id="kity_text_238" text-rendering="inherit" font-size="12" dy=".8em" y="200.69999882590977" x="388.499987721025">Stacking</text></g></g><g id="minder_node28"><g id="node_expander27" style="cursor: pointer;" display="none"><path id="kity_path_249" fill="white" stroke="gray" d="M457.4999862250948,156.49999978818389A6,6,0,1,1,445.4999862250948,156.49999978818389A6,6,0,1,1,457.4999862250948,156.49999978818389"></path><path id="kity_path_250" fill="none" stroke="gray"></path></g><path id="node_outline28" fill="none" stroke="none" d="M462.49998608672837,147.49999978818389h159a5,5,0,0,1,5,5v8a5,5,0,0,1,-5,5h-159a5,5,0,0,1,-5,-5v-8a5,5,0,0,1,5,-5z" stroke-width="3"></path><g id="node_text28" fill="black"><text id="kity_text_246" text-rendering="inherit" font-size="12" dy=".8em" y="148.69999997433442" x="462.49998608672837">随机森林（Random Forest）</text></g></g><g id="minder_node29" display="none"><g id="node_expander28" style="cursor: pointer;" display="none"><path id="kity_path_257" fill="white" stroke="gray" d="M424.49998684933325,13.500002946351657A6,6,0,1,1,412.49998684933325,13.500002946351657A6,6,0,1,1,424.49998684933325,13.500002946351657"></path><path id="kity_path_258" fill="none" stroke="gray"></path></g><path id="node_outline29" fill="none" stroke="none" d="M424.4999869259618,4.500002946351657h301a5,5,0,0,1,5,5v8a5,5,0,0,1,-5,5h-301a5,5,0,0,1,-5,-5v-8a5,5,0,0,1,5,-5z" stroke-width="3"></path><g id="node_text29" fill="black"><text id="kity_text_254" text-rendering="inherit" font-size="12" dy=".8em" y="5.700003132502189" x="424.4999869259618">前馈神经网络（Feedforward Neural Network，FNN）</text></g></g><g id="minder_node30" display="none"><g id="node_expander29" style="cursor: pointer;" display="none"><path id="kity_path_265" fill="white" stroke="gray" d="M424.49998684933325,37.50000241630951A6,6,0,1,1,412.49998684933325,37.50000241630951A6,6,0,1,1,424.49998684933325,37.50000241630951"></path><path id="kity_path_266" fill="none" stroke="gray" d="M413.99998684933325,37.50000241630951L422.99998684933325,37.50000241630951"></path></g><path id="node_outline30" fill="none" stroke="none" d="M424.4999869259618,28.500002416309513h205a5,5,0,0,1,5,5v8a5,5,0,0,1,-5,5h-205a5,5,0,0,1,-5,-5v-8a5,5,0,0,1,5,-5z" stroke-width="3"></path><g id="node_text30" fill="black"><text id="kity_text_262" text-rendering="inherit" font-size="12" dy=".8em" y="29.700002602460046" x="424.4999869259618">拟牛顿法（Quasi-Newton Method）</text></g></g><g id="minder_node31" display="none"><g id="node_expander30" style="cursor: pointer;" display="none"><path id="kity_path_274" fill="white" stroke="gray" d="M440.4999864959718,21.500002769670942A6,6,0,1,1,428.4999864959718,21.500002769670942A6,6,0,1,1,440.4999864959718,21.500002769670942"></path><path id="kity_path_275" fill="none" stroke="gray"></path></g><path id="node_outline31" fill="none" stroke="none" d="M440.4999865726004,12.500002769670942h23a5,5,0,0,1,5,5v8a5,5,0,0,1,-5,5h-23a5,5,0,0,1,-5,-5v-8a5,5,0,0,1,5,-5z" stroke-width="3"></path><g id="node_text31" fill="black"><text id="kity_text_271" text-rendering="inherit" font-size="12" dy=".8em" y="13.700002955821475" x="440.4999865726004">DFP</text></g></g><g id="minder_node32" display="none"><g id="node_expander31" style="cursor: pointer;" display="none"><path id="kity_path_282" fill="white" stroke="gray" d="M440.4999864959718,29.500002592990228A6,6,0,1,1,428.4999864959718,29.500002592990228A6,6,0,1,1,440.4999864959718,29.500002592990228"></path><path id="kity_path_283" fill="none" stroke="gray"></path></g><path id="node_outline32" fill="none" stroke="none" d="M440.4999865726004,20.500002592990228h30a5,5,0,0,1,5,5v8a5,5,0,0,1,-5,5h-30a5,5,0,0,1,-5,-5v-8a5,5,0,0,1,5,-5z" stroke-width="3"></path><g id="node_text32" fill="black"><text id="kity_text_279" text-rendering="inherit" font-size="12" dy=".8em" y="21.70000277914076" x="440.4999865726004">BFGS</text></g></g><g id="minder_node33" display="none"><g id="node_expander32" style="cursor: pointer;" display="none"><path id="kity_path_290" fill="white" stroke="gray" d="M440.4999864959718,37.50000241630951A6,6,0,1,1,428.4999864959718,37.50000241630951A6,6,0,1,1,440.4999864959718,37.50000241630951"></path><path id="kity_path_291" fill="none" stroke="gray"></path></g><path id="node_outline33" fill="none" stroke="none" d="M440.4999865726004,28.500002416309513h41a5,5,0,0,1,5,5v8a5,5,0,0,1,-5,5h-41a5,5,0,0,1,-5,-5v-8a5,5,0,0,1,5,-5z" stroke-width="3"></path><g id="node_text33" fill="black"><text id="kity_text_287" text-rendering="inherit" font-size="12" dy=".8em" y="29.700002602460046" x="440.4999865726004">L-BFGS</text></g></g><g id="minder_node34" display="none"><g id="node_expander33" style="cursor: pointer;" display="none"><path id="kity_path_298" fill="white" stroke="gray" d="M424.49998684933325,29.500002592990228A6,6,0,1,1,412.49998684933325,29.500002592990228A6,6,0,1,1,424.49998684933325,29.500002592990228"></path><path id="kity_path_299" fill="none" stroke="gray"></path></g><path id="node_outline34" fill="none" stroke="none" d="M424.4999869259618,20.500002592990228h169a5,5,0,0,1,5,5v8a5,5,0,0,1,-5,5h-169a5,5,0,0,1,-5,-5v-8a5,5,0,0,1,5,-5z" stroke-width="3"></path><g id="node_text34" fill="black"><text id="kity_text_295" text-rendering="inherit" font-size="12" dy=".8em" y="21.70000277914076" x="424.4999869259618">正规方程（Normal Function）</text></g></g></g></g></svg>