<svg id="kity_svg_6" xmlns="http://www.w3.org/2000/svg" xmlns:xlink="http://www.w3.org/1999/xlink" version="1.1" width="682" height="213" style="background: rgb(251, 251, 251); visibility: visible;" viewBox="0 0 682 213"><defs id="kity_defs_7"><linearGradient id="kity_linearGradient_17" x1="0" y1="0" x2="0" y2="1"><stop id="kity_stop_18" offset="0" stop-color="rgb(255, 255, 255)"></stop><stop id="kity_stop_19" offset="1" stop-color="rgb(204, 204, 204)"></stop></linearGradient><marker id="kity_marker_2" orient="auto" refX="6" refY="0" viewBox="-7 -7 14 14" markerWidth="7" markerHeight="7" markerUnits="userSpaceOnUse"><path id="kity_path_3" fill="rgb(115, 161, 191)" stroke="none" d="M6,0A6,6,0,1,1,-6,0A6,6,0,1,1,6,0"></path></marker></defs><g id="kity_g_8"><g id="minder1" text-rendering="optimize-speed"><g id="minder_connect_group1"><path id="kity_path_31" fill="none" stroke="rgb(115, 161, 191)" stroke-width="1" d="M101.00000636093318,106.50000451691449A96.5,62.5,0,0,1,197.50000636093318,44.00000451691449"></path><path id="kity_path_33" fill="none" stroke="rgb(115, 161, 191)" stroke-width="1" d="M375.5000063609332,44.50000451691449C383.5000063609332,44.00000451691449,383.5000063609332,31.500004516914487,391.5000063609332,31.500004516914487"></path><path id="kity_path_35" fill="none" stroke="none" display="none"></path><path id="kity_path_37" fill="none" stroke="none" display="none"></path><path id="kity_path_39" fill="none" stroke="none" display="none"></path><path id="kity_path_41" fill="none" stroke="rgb(115, 161, 191)" stroke-width="1" d="M375.5000063609332,44.50000451691449C383.5000063609332,44.00000451691449,383.5000063609332,57.50000451691449,391.5000063609332,57.50000451691449"></path><path id="kity_path_43" fill="none" stroke="none" display="none"></path><path id="kity_path_45" fill="none" stroke="none" display="none"></path><path id="kity_path_47" fill="none" stroke="none" display="none"></path><path id="kity_path_49" fill="none" stroke="rgb(115, 161, 191)" stroke-width="1" d="M101.00000636093318,106.50000451691449A96.5,0.5,0,0,0,197.50000636093318,107.00000451691449"></path><path id="kity_path_51" fill="none" stroke="rgb(115, 161, 191)" stroke-width="1" d="M392.5000063609332,107.50000451691449C400.5000063609332,107.00000451691449,400.5000063609332,94.50000451691449,408.5000063609332,94.50000451691449"></path><path id="kity_path_53" fill="none" stroke="rgb(115, 161, 191)" stroke-width="1" d="M524.5000063609332,94.50000451691449C532.5000063609332,94.50000451691449,532.5000063609332,94.50000451691449,540.5000063609332,94.50000451691449"></path><path id="kity_path_55" fill="none" stroke="rgb(115, 161, 191)" stroke-width="1" d="M392.5000063609332,107.50000451691449C400.5000063609332,107.00000451691449,400.5000063609332,120.50000451691449,408.5000063609332,120.50000451691449"></path><path id="kity_path_57" fill="none" stroke="rgb(115, 161, 191)" stroke-width="1" d="M101.00000636093318,106.50000451691449A96.5,63.5,0,0,0,197.50000636093318,170.0000045169145"></path></g><g id="minder_node1"><path id="node_outline1" fill="rgb(115, 161, 191)" stroke="rgb(115, 161, 191)" d="M25.500006360933185,80.50000451691449h151a5,5,0,0,1,5,5v42a5,5,0,0,1,-5,5h-151a5,5,0,0,1,-5,-5v-42a5,5,0,0,1,5,-5z" stroke-width="3"></path><g id="node_text1" fill="white"><text id="kity_text_22" text-rendering="inherit" font-size="16" dy=".8em" y="84.10000443903972" x="32.500006360933185">机器学习</text><text id="kity_text_89" text-rendering="inherit" font-size="16" dy=".8em" y="108.10000443903972" x="32.500006360933185">Machine Learning</text></g></g><g id="kity_g_12"><path id="kity_path_13" fill="none" stroke="none" d="M32.500006360933185,106.50000451691449h0v0h0z"></path></g><g id="kity_g_14"><path id="kity_path_15" fill="none" stroke="none" d="M32.500006360933185,106.50000451691449h0v0h0z"></path><path id="kity_path_16" fill="none" stroke="none"></path></g><g id="minder_node2"><g id="node_expander9" style="cursor: pointer;"><path id="kity_path_129" fill="white" stroke="gray" d="M198.50000934116542,44.00000335276127A6,6,0,1,1,186.50000934116542,44.00000335276127A6,6,0,1,1,198.50000934116542,44.00000335276127"></path><path id="kity_path_130" fill="none" stroke="gray" d="M188.00000934116542,44.00000335276127L197.00000934116542,44.00000335276127"></path></g><path id="node_outline10" fill="rgb(238, 243, 246)" stroke="rgb(115, 161, 191)" d="M202.5000098440796,20.500003343448043h170a3,3,0,0,1,3,3v41a3,3,0,0,1,-3,3h-170a3,3,0,0,1,-3,-3v-41a3,3,0,0,1,3,-3z" stroke-width="1"></path><g id="node_text10" fill="black"><text id="kity_text_75" text-rendering="inherit" font-size="14" dy=".8em" y="23.900003337503776" x="219.5000098440796">监督学习</text><text id="kity_text_76" text-rendering="inherit" font-size="14" dy=".8em" y="44.900003337503776" x="219.5000098440796">Supervised Learning</text></g></g><g id="minder_node3"><g id="node_expander4" style="cursor: pointer;"><path id="kity_path_114" fill="white" stroke="gray" d="M391.50001293607056,31.500003119930625A6,6,0,1,1,379.50001293607056,31.500003119930625A6,6,0,1,1,391.50001293607056,31.500003119930625"></path><path id="kity_path_115" fill="none" stroke="gray" d="M381.00001293607056,31.500003119930625L390.00001293607056,31.500003119930625M385.50001293607056,27.000003119930625L385.50001293607056,36.000003119930625"></path></g><path id="node_outline5" fill="none" stroke="none" d="M396.5000131409615,22.500003119930625h111a5,5,0,0,1,5,5v8a5,5,0,0,1,-5,5h-111a5,5,0,0,1,-5,-5v-8a5,5,0,0,1,5,-5z"></path><g id="node_text5" fill="black"><text id="kity_text_65" text-rendering="inherit" font-size="12" dy=".8em" y="23.700003185916856" x="396.5000131409615">回归（Regression）</text></g></g><g id="minder_node4" display="none"><g id="node_expander1" style="cursor: pointer;" display="none"><path id="kity_path_105" fill="white" stroke="gray" d="M528.5000154878944,15.500002821907401A6,6,0,1,1,516.5000154878944,15.500002821907401A6,6,0,1,1,528.5000154878944,15.500002821907401"></path><path id="kity_path_106" fill="none" stroke="gray"></path></g><path id="node_outline2" fill="none" stroke="none" d="M528.5000155996531,6.500002821907401h152a5,5,0,0,1,5,5v8a5,5,0,0,1,-5,5h-152a5,5,0,0,1,-5,-5v-8a5,5,0,0,1,5,-5z"></path><g id="node_text2" fill="black"><text id="kity_text_59" text-rendering="inherit" font-size="12" dy=".8em" y="7.700002887893632" x="528.5000155996531">代价函数（Cost Function）</text></g></g><g id="minder_node5" display="none"><g id="node_expander2" style="cursor: pointer;" display="none"><path id="kity_path_108" fill="white" stroke="gray" d="M528.5000154878944,23.500002970919013A6,6,0,1,1,516.5000154878944,23.500002970919013A6,6,0,1,1,528.5000154878944,23.500002970919013"></path><path id="kity_path_109" fill="none" stroke="gray"></path></g><path id="node_outline3" fill="none" stroke="none" d="M528.5000155996531,14.500002970919013h184a5,5,0,0,1,5,5v8a5,5,0,0,1,-5,5h-184a5,5,0,0,1,-5,-5v-8a5,5,0,0,1,5,-5z"></path><g id="node_text3" fill="black"><text id="kity_text_61" text-rendering="inherit" font-size="12" dy=".8em" y="15.700003036905244" x="528.5000155996531">梯度下降法（Gradient Descent）</text></g></g><g id="minder_node6" display="none"><g id="node_expander3" style="cursor: pointer;" display="none"><path id="kity_path_111" fill="white" stroke="gray" d="M528.5000154878944,31.500003119930625A6,6,0,1,1,516.5000154878944,31.500003119930625A6,6,0,1,1,528.5000154878944,31.500003119930625"></path><path id="kity_path_112" fill="none" stroke="gray"></path></g><path id="node_outline4" fill="none" stroke="none" d="M528.5000155996531,22.500003119930625h182a5,5,0,0,1,5,5v8a5,5,0,0,1,-5,5h-182a5,5,0,0,1,-5,-5v-8a5,5,0,0,1,5,-5z"></path><g id="node_text4" fill="black"><text id="kity_text_63" text-rendering="inherit" font-size="12" dy=".8em" y="23.700003185916856" x="528.5000155996531">正规方程法（Normal Equation）</text></g></g><g id="minder_node7"><g id="node_expander8" style="cursor: pointer;"><path id="kity_path_126" fill="white" stroke="gray" d="M391.50001293607056,57.500003604218364A6,6,0,1,1,379.50001293607056,57.500003604218364A6,6,0,1,1,391.50001293607056,57.500003604218364"></path><path id="kity_path_127" fill="none" stroke="gray" d="M381.00001293607056,57.500003604218364L390.00001293607056,57.500003604218364M385.50001293607056,53.000003604218364L385.50001293607056,62.000003604218364"></path></g><path id="node_outline9" fill="none" stroke="none" d="M396.5000131409615,48.500003604218364h124a5,5,0,0,1,5,5v8a5,5,0,0,1,-5,5h-124a5,5,0,0,1,-5,-5v-8a5,5,0,0,1,5,-5z"></path><g id="node_text9" fill="black"><text id="kity_text_73" text-rendering="inherit" font-size="12" dy=".8em" y="49.700003670204595" x="396.5000131409615">分类（Classification）</text></g></g><g id="minder_node8" display="none"><g id="node_expander5" style="cursor: pointer;" display="none"><path id="kity_path_117" fill="white" stroke="gray" d="M541.5000157300383,41.50000330619514A6,6,0,1,1,529.5000157300383,41.50000330619514A6,6,0,1,1,541.5000157300383,41.50000330619514"></path><path id="kity_path_118" fill="none" stroke="gray"></path></g><path id="node_outline6" fill="none" stroke="none" d="M541.500015841797,32.50000330619514h183a5,5,0,0,1,5,5v8a5,5,0,0,1,-5,5h-183a5,5,0,0,1,-5,-5v-8a5,5,0,0,1,5,-5z"></path><g id="node_text6" fill="black"><text id="kity_text_67" text-rendering="inherit" font-size="12" dy=".8em" y="33.70000337218137" x="541.500015841797">逻辑回归（Logistic Regression）</text></g></g><g id="minder_node9" display="none"><g id="node_expander6" style="cursor: pointer;" display="none"><path id="kity_path_120" fill="white" stroke="gray" d="M541.5000157300383,49.50000345520675A6,6,0,1,1,529.5000157300383,49.50000345520675A6,6,0,1,1,541.5000157300383,49.50000345520675"></path><path id="kity_path_121" fill="none" stroke="gray"></path></g><path id="node_outline7" fill="none" stroke="none" d="M541.500015841797,40.50000345520675h164a5,5,0,0,1,5,5v8a5,5,0,0,1,-5,5h-164a5,5,0,0,1,-5,-5v-8a5,5,0,0,1,5,-5z"></path><g id="node_text7" fill="black"><text id="kity_text_69" text-rendering="inherit" font-size="12" dy=".8em" y="41.70000352119298" x="541.500015841797">神经网络（Neural Network）</text></g></g><g id="minder_node10" display="none"><g id="node_expander7" style="cursor: pointer;" display="none"><path id="kity_path_123" fill="white" stroke="gray" d="M541.5000157300383,57.500003604218364A6,6,0,1,1,529.5000157300383,57.500003604218364A6,6,0,1,1,541.5000157300383,57.500003604218364"></path><path id="kity_path_124" fill="none" stroke="gray"></path></g><path id="node_outline8" fill="none" stroke="none" d="M541.500015841797,48.500003604218364h225a5,5,0,0,1,5,5v8a5,5,0,0,1,-5,5h-225a5,5,0,0,1,-5,-5v-8a5,5,0,0,1,5,-5z"></path><g id="node_text8" fill="black"><text id="kity_text_71" text-rendering="inherit" font-size="12" dy=".8em" y="49.700003670204595" x="541.500015841797">支持向量机（Support Vector Machine）</text></g></g><g id="minder_node11"><g id="node_expander13" style="cursor: pointer;"><path id="kity_path_141" fill="white" stroke="gray" d="M198.50000934116542,107.00000452622771A6,6,0,1,1,186.50000934116542,107.00000452622771A6,6,0,1,1,198.50000934116542,107.00000452622771"></path><path id="kity_path_142" fill="none" stroke="gray" d="M188.00000934116542,107.00000452622771L197.00000934116542,107.00000452622771"></path></g><path id="node_outline14" fill="rgb(238, 243, 246)" stroke="rgb(115, 161, 191)" d="M202.5000098440796,83.50000451691449h187a3,3,0,0,1,3,3v41a3,3,0,0,1,-3,3h-187a3,3,0,0,1,-3,-3v-41a3,3,0,0,1,3,-3z" stroke-width="1"></path><g id="node_text14" fill="black"><text id="kity_text_84" text-rendering="inherit" font-size="14" dy=".8em" y="86.90000451097022" x="219.5000098440796">无监督学习</text><text id="kity_text_85" text-rendering="inherit" font-size="14" dy=".8em" y="107.90000451097022" x="219.5000098440796">Unsupervised Learning</text></g></g><g id="minder_node12"><g id="node_expander11" style="cursor: pointer;"><path id="kity_path_135" fill="white" stroke="gray" d="M408.50001325272024,94.50000429339707A6,6,0,1,1,396.50001325272024,94.50000429339707A6,6,0,1,1,408.50001325272024,94.50000429339707"></path><path id="kity_path_136" fill="none" stroke="gray" d="M398.00001325272024,94.50000429339707L407.00001325272024,94.50000429339707"></path></g><path id="node_outline12" fill="none" stroke="none" d="M413.5000134576112,85.50000429339707h106a5,5,0,0,1,5,5v8a5,5,0,0,1,-5,5h-106a5,5,0,0,1,-5,-5v-8a5,5,0,0,1,5,-5z"></path><g id="node_text12" fill="black"><text id="kity_text_80" text-rendering="inherit" font-size="12" dy=".8em" y="86.7000043593833" x="413.5000134576112">聚类（Clustering）</text></g></g><g id="minder_node13"><g id="node_expander10" style="cursor: pointer;" display="none"><path id="kity_path_132" fill="white" stroke="gray" d="M540.5000157114118,94.50000429339707A6,6,0,1,1,528.5000157114118,94.50000429339707A6,6,0,1,1,540.5000157114118,94.50000429339707"></path><path id="kity_path_133" fill="none" stroke="gray"></path></g><path id="node_outline11" fill="none" stroke="none" d="M545.5000159163028,85.50000429339707h112a5,5,0,0,1,5,5v8a5,5,0,0,1,-5,5h-112a5,5,0,0,1,-5,-5v-8a5,5,0,0,1,5,-5z" stroke-width="3"></path><g id="node_text11" fill="black"><text id="kity_text_78" text-rendering="inherit" font-size="12" dy=".8em" y="86.7000043593833" x="545.5000159163028">K-均值（K-Means）</text></g></g><g id="minder_node14"><g id="node_expander12" style="cursor: pointer;" display="none"><path id="kity_path_138" fill="white" stroke="gray" d="M408.50001325272024,120.50000477768481A6,6,0,1,1,396.50001325272024,120.50000477768481A6,6,0,1,1,408.50001325272024,120.50000477768481"></path><path id="kity_path_139" fill="none" stroke="gray"></path></g><path id="node_outline13" fill="none" stroke="none" d="M413.5000134576112,111.50000477768481h146a5,5,0,0,1,5,5v8a5,5,0,0,1,-5,5h-146a5,5,0,0,1,-5,-5v-8a5,5,0,0,1,5,-5z"></path><g id="node_text13" fill="black"><text id="kity_text_82" text-rendering="inherit" font-size="12" dy=".8em" y="112.70000484367104" x="413.5000134576112">非聚类（Non-clustering）</text></g></g><g id="minder_node15"><g id="node_expander14" style="cursor: pointer;" display="none"><path id="kity_path_144" fill="white" stroke="gray" d="M198.50000934116542,170.00000569969416A6,6,0,1,1,186.50000934116542,170.00000569969416A6,6,0,1,1,198.50000934116542,170.00000569969416"></path><path id="kity_path_145" fill="none" stroke="gray"></path></g><path id="node_outline15" fill="rgb(238, 243, 246)" stroke="rgb(115, 161, 191)" d="M202.5000098440796,146.50000569038093h195a3,3,0,0,1,3,3v41a3,3,0,0,1,-3,3h-195a3,3,0,0,1,-3,-3v-41a3,3,0,0,1,3,-3z" stroke-width="1"></path><g id="node_text15" fill="black"><text id="kity_text_87" text-rendering="inherit" font-size="14" dy=".8em" y="149.90000568443668" x="219.5000098440796">强化学习</text><text id="kity_text_88" text-rendering="inherit" font-size="14" dy=".8em" y="170.90000568443668" x="219.5000098440796">Reinforcement Learning</text></g></g></g></g></svg>