<svg width="504" height="323" xmlns="http://www.w3.org/2000/svg" xmlns:xlink="http://www.w3.org/1999/xlink" overflow="hidden"><defs><clipPath id="clip0"><path d="M201 33 705 33 705 356 201 356Z" fill-rule="evenodd" clip-rule="evenodd"/></clipPath></defs><g clip-path="url(#clip0)" transform="translate(-201 -33)"><path d="M201.5 318 689.746 318 689.746 319 201.5 319ZM688.413 314.5 696.413 318.5 688.413 322.5Z" fill="#4472C4"/><path d="M0.5-1.85878e-07 0.500103 275.741-0.499897 275.741-0.5 1.85878e-07ZM4.0001 274.408 0.000104987 282.408-3.9999 274.408Z" fill="#4472C4" transform="matrix(1 0 0 -1 355.5 349.908)"/><text font-family="Cambria Math,Cambria Math_MSFontService,sans-serif" font-weight="400" font-size="24" transform="translate(672.526 343)">𝑥<tspan x="-323.521" y="-283">𝑧</tspan><tspan x="-304.406" y="0">0</tspan></text><path d="M295.5 142.5 544.82 238.548" stroke="#000000" stroke-width="3" stroke-miterlimit="8" fill="none" fill-rule="evenodd"/><path d="M0.999677-0.0254226 6.09266 200.243 4.09331 200.294-0.999677 0.0254226ZM9.05779 198.834 5.26247 206.933 1.06038 199.037Z" fill="#FF0000" transform="matrix(0.941106 0.338113 0.338113 -0.941106 355.925 317.394)"/><text font-family="Cambria Math,Cambria Math_MSFontService,sans-serif" font-weight="400" font-size="24" transform="translate(394.72 245)">𝜔<tspan x="166.888" y="5">𝜔</tspan><tspan font-size="18" x="184.748" y="-4">𝑇</tspan><tspan x="197.101" y="5">𝑥</tspan><tspan x="215.994" y="5">+</tspan><tspan x="239.327" y="5">𝑏</tspan><tspan x="259.521" y="5">=</tspan><tspan x="284.188" y="5">0</tspan></text><path d="M0.310124-0.392203 122.274 96.0478 121.654 96.8322-0.310124 0.392203ZM123.399 92.4754 127.193 100.575 118.437 98.7506Z" fill="#7F6000" transform="matrix(1 0 0 -1 356.5 317.075)"/><path d="M484.374 214.752 366.297 116.157 366.938 115.389 485.015 213.985ZM365.077 119.698 361.5 111.5 370.205 113.557Z" fill="#7F6000"/><text font-family="Cambria Math,Cambria Math_MSFontService,sans-serif" font-weight="400" font-size="24" transform="translate(430.68 275)">𝑎<tspan x="-73.5854" y="-174">𝑥</tspan></text><path d="M0 0 19.2624 49.6135" stroke="#FF0000" stroke-width="2" stroke-miterlimit="8" fill="none" fill-rule="evenodd" transform="matrix(1 0 0 -1 343 158.614)"/><text font-family="Cambria Math,Cambria Math_MSFontService,sans-serif" font-weight="400" font-size="19" transform="translate(332.082 140)">𝑑<tspan font-size="16" x="28.4514" y="2">𝜃</tspan></text><path d="M356.374 317.752 350.233 312.625 350.874 311.857 357.015 316.985ZM347.931 310.702 341.79 305.574 342.431 304.807 348.572 309.934ZM339.487 303.652 333.346 298.524 333.987 297.757 340.128 302.884ZM331.044 296.601 324.903 291.474 325.544 290.706 331.685 295.834ZM322.6 289.551 316.459 284.423 317.1 283.656 323.241 288.783ZM314.157 282.501 308.016 277.373 308.657 276.605 314.798 281.733ZM305.713 275.45 299.573 270.323 300.213 269.555 306.354 274.683ZM297.27 268.4 291.129 263.272 291.77 262.505 297.911 267.632ZM288.826 261.349 282.686 256.222 283.327 255.454 289.467 260.582ZM280.383 254.299 274.242 249.171 274.883 248.404 281.024 253.531ZM271.939 247.249 265.799 242.121 266.44 241.353 272.58 246.481ZM263.496 240.198 257.355 235.071 257.996 234.303 264.137 239.431ZM255.052 233.148 248.912 228.02 249.553 227.253 255.693 232.38ZM246.609 226.097 240.468 220.97 241.109 220.202 247.25 225.33ZM237.077 222.698 233.5 214.5 242.205 216.557Z" fill="#7F6000"/><text font-family="Cambria Math,Cambria Math_MSFontService,sans-serif" font-weight="400" font-size="16" transform="translate(347.131 300)">𝜃</text><path d="M359.5 111C359.5 109.619 360.619 108.5 362 108.5 363.381 108.5 364.5 109.619 364.5 111 364.5 112.381 363.381 113.5 362 113.5 360.619 113.5 359.5 112.381 359.5 111Z" stroke="#FF0000" stroke-miterlimit="8" fill="#FF0000" fill-rule="evenodd"/><text font-family="Cambria Math,Cambria Math_MSFontService,sans-serif" font-weight="400" font-size="19" transform="matrix(0.735087 0.677973 -0.677973 0.735087 436.062 161)">𝒙<tspan x="14.8742" y="-0.114702">−</tspan><tspan x="33.4935" y="0.397676">𝒂</tspan></text></g></svg>