<svg width="504" height="338" xmlns="http://www.w3.org/2000/svg" xmlns:xlink="http://www.w3.org/1999/xlink" overflow="hidden"><defs><clipPath id="clip0"><path d="M201 57 705 57 705 395 201 395Z" fill-rule="evenodd" clip-rule="evenodd"/></clipPath></defs><g clip-path="url(#clip0)" transform="translate(-201 -57)"><path d="M201.5 318 689.746 318 689.746 319 201.5 319ZM688.413 314.5 696.413 318.5 688.413 322.5Z" fill="#4472C4"/><path d="M0.5-1.85878e-07 0.500103 275.741-0.499897 275.741-0.5 1.85878e-07ZM4.0001 274.408 0.000104987 282.408-3.9999 274.408Z" fill="#4472C4" transform="matrix(1 0 0 -1 355.5 349.908)"/><text font-family="Cambria Math,Cambria Math_MSFontService,sans-serif" font-weight="400" font-size="24" transform="translate(672.526 343)">洧논<tspan x="-299.384" y="-258">洧녾</tspan><tspan x="-304.406" y="0">0</tspan></text><path d="M295.5 142.5 544.82 238.548" stroke="#000000" stroke-width="3" stroke-miterlimit="8" fill="none" fill-rule="evenodd"/><path d="M0.999677-0.0254226 6.09266 200.243 4.09331 200.294-0.999677 0.0254226ZM9.05779 198.834 5.26247 206.933 1.06038 199.037Z" fill="#FF0000" transform="matrix(0.941106 0.338113 0.338113 -0.941106 355.925 317.394)"/><path d="M249.5 276.5 498.82 372.548" stroke="#000000" stroke-width="3" stroke-miterlimit="8" stroke-dasharray="3 3" fill="none" fill-rule="evenodd"/><text font-family="Cambria Math,Cambria Math_MSFontService,sans-serif" font-weight="400" font-size="24" transform="translate(394.72 245)">洧랪<tspan x="166.888" y="5">洧랪</tspan><tspan font-size="18" x="184.748" y="-4">洧녢</tspan><tspan x="197.101" y="5">洧논</tspan><tspan x="215.994" y="5">+</tspan><tspan x="239.327" y="5">洧녪</tspan><tspan x="259.521" y="5">=</tspan><tspan x="284.188" y="5">0</tspan><tspan x="118.801" y="143">洧랪</tspan><tspan font-size="18" x="136.661" y="134">洧녢</tspan><tspan x="149.014" y="143">洧논</tspan><tspan x="169.241" y="143">=</tspan><tspan x="193.907" y="143">0</tspan></text><path d="M0.310124-0.392203 122.274 96.0478 121.654 96.8322-0.310124 0.392203ZM123.399 92.4754 127.193 100.575 118.437 98.7506Z" fill="#7F6000" transform="matrix(1 0 0 -1 356.5 317.075)"/><path d="M354.535 318.68 334.852 165.176 335.844 165.049 355.527 318.553ZM331.55 166.944 334.5 158.5 339.485 165.926Z" fill="#7F6000"/><text font-family="Cambria Math,Cambria Math_MSFontService,sans-serif" font-weight="400" font-size="24" transform="translate(430.68 275)">洧녩<tspan x="-110.709" y="-48">洧논</tspan></text></g></svg>