<svg id="kity_svg_6" xmlns="http://www.w3.org/2000/svg" xmlns:xlink="http://www.w3.org/1999/xlink" version="1.1" width="796" height="314" style="background: rgb(251, 251, 251); visibility: visible;" viewBox="0 0 796 314"><defs id="kity_defs_7"><linearGradient id="kity_linearGradient_17" x1="0" y1="0" x2="0" y2="1"><stop id="kity_stop_18" offset="0" stop-color="rgb(255, 255, 255)"></stop><stop id="kity_stop_19" offset="1" stop-color="rgb(204, 204, 204)"></stop></linearGradient><marker id="kity_marker_2" orient="auto" refX="6" refY="0" viewBox="-7 -7 14 14" markerWidth="7" markerHeight="7" markerUnits="userSpaceOnUse"><path id="kity_path_3" fill="rgb(115, 161, 191)" stroke="none" d="M6,0A6,6,0,1,1,-6,0A6,6,0,1,1,6,0"></path></marker></defs><g id="kity_g_8"><g id="minder1" text-rendering="optimize-speed"><g id="minder_connect_group1"><path id="kity_path_31" fill="none" stroke="rgb(115, 161, 191)" stroke-width="1" d="M101.000004703179,182.50000392086804A96.5,88.5,0,0,1,197.500004703179,94.00000392086804"></path><path id="kity_path_33" fill="none" stroke="rgb(115, 161, 191)" stroke-width="1" d="M375.500004703179,94.50000392086804C383.500004703179,94.00000392086804,383.500004703179,55.50000392086804,391.500004703179,55.50000392086804"></path><path id="kity_path_35" fill="none" stroke="rgb(115, 161, 191)" stroke-width="1" d="M512.500004703179,55.50000392086804C520.500004703179,55.50000392086804,520.500004703179,29.50000392086804,528.500004703179,29.50000392086804"></path><path id="kity_path_37" fill="none" stroke="rgb(115, 161, 191)" stroke-width="1" d="M512.500004703179,55.50000392086804C520.500004703179,55.50000392086804,520.500004703179,55.50000392086804,528.500004703179,55.50000392086804"></path><path id="kity_path_39" fill="none" stroke="rgb(115, 161, 191)" stroke-width="1" d="M512.500004703179,55.50000392086804C520.500004703179,55.50000392086804,520.500004703179,81.50000392086804,528.500004703179,81.50000392086804"></path><path id="kity_path_41" fill="none" stroke="rgb(115, 161, 191)" stroke-width="1" d="M375.500004703179,94.50000392086804C383.500004703179,94.00000392086804,383.500004703179,133.50000392086804,391.500004703179,133.50000392086804"></path><path id="kity_path_43" fill="none" stroke="rgb(115, 161, 191)" stroke-width="1" d="M525.500004703179,133.50000392086804C533.500004703179,133.50000392086804,533.500004703179,107.50000392086804,541.500004703179,107.50000392086804"></path><path id="kity_path_45" fill="none" stroke="rgb(115, 161, 191)" stroke-width="1" d="M525.500004703179,133.50000392086804C533.500004703179,133.50000392086804,533.500004703179,133.50000392086804,541.500004703179,133.50000392086804"></path><path id="kity_path_47" fill="none" stroke="rgb(115, 161, 191)" stroke-width="1" d="M525.500004703179,133.50000392086804C533.500004703179,133.50000392086804,533.500004703179,159.50000392086804,541.500004703179,159.50000392086804"></path><path id="kity_path_49" fill="none" stroke="rgb(115, 161, 191)" stroke-width="1" d="M101.000004703179,182.50000392086804A96.5,25.5,0,0,0,197.500004703179,208.00000392086804"></path><path id="kity_path_51" fill="none" stroke="none" display="none"></path><path id="kity_path_53" fill="none" stroke="none" display="none"></path><path id="kity_path_55" fill="none" stroke="rgb(115, 161, 191)" stroke-width="1" d="M101.000004703179,182.50000392086804A96.5,88.5,0,0,0,197.500004703179,271.00000392086804"></path></g><g id="minder_node1"><path id="node_outline1" fill="rgb(115, 161, 191)" stroke="rgb(115, 161, 191)" d="M25.500004703179002,156.50000392086804h151a5,5,0,0,1,5,5v42a5,5,0,0,1,-5,5h-151a5,5,0,0,1,-5,-5v-42a5,5,0,0,1,5,-5z" stroke-width="3"></path><g id="node_text1" fill="white"><text id="kity_text_22" text-rendering="inherit" font-size="16" dy=".8em" y="160.10000384299326" x="32.500004703179">机器学习</text><text id="kity_text_85" text-rendering="inherit" font-size="16" dy=".8em" y="184.10000384299326" x="32.500004703179">Machine Learning</text></g></g><g id="kity_g_12"><path id="kity_path_13" fill="none" stroke="none" d="M32.500004703179,182.50000392086804h0v0h0z"></path></g><g id="kity_g_14"><path id="kity_path_15" fill="none" stroke="none" d="M32.500004703179,182.50000392086804h0v0h0z"></path><path id="kity_path_16" fill="none" stroke="none"></path></g><g id="minder_node2"><g id="node_expander9" style="cursor: pointer;"><path id="kity_path_124" fill="white" stroke="gray" d="M198.50000768341124,94.00000227242708A6,6,0,1,1,186.50000768341124,94.00000227242708A6,6,0,1,1,198.50000768341124,94.00000227242708"></path><path id="kity_path_125" fill="none" stroke="gray" d="M188.00000768341124,94.00000227242708L197.00000768341124,94.00000227242708"></path></g><path id="node_outline10" fill="rgb(238, 243, 246)" stroke="rgb(115, 161, 191)" d="M202.50000818632543,70.50000226311386h170a3,3,0,0,1,3,3v41a3,3,0,0,1,-3,3h-170a3,3,0,0,1,-3,-3v-41a3,3,0,0,1,3,-3z" stroke-width="1"></path><g id="node_text10" fill="black"><text id="kity_text_73" text-rendering="inherit" font-size="14" dy=".8em" y="73.90000225716959" x="219.50000818632543">监督学习</text><text id="kity_text_74" text-rendering="inherit" font-size="14" dy=".8em" y="94.90000225716959" x="219.50000818632543">Supervised Learning</text></g></g><g id="minder_node3"><g id="node_expander4" style="cursor: pointer;"><path id="kity_path_109" fill="white" stroke="gray" d="M391.5000112783164,55.5000015553087A6,6,0,1,1,379.5000112783164,55.5000015553087A6,6,0,1,1,391.5000112783164,55.5000015553087"></path><path id="kity_path_110" fill="none" stroke="gray" d="M381.0000112783164,55.5000015553087L390.0000112783164,55.5000015553087"></path></g><path id="node_outline5" fill="none" stroke="none" d="M396.50001148320735,46.5000015553087h111a5,5,0,0,1,5,5v8a5,5,0,0,1,-5,5h-111a5,5,0,0,1,-5,-5v-8a5,5,0,0,1,5,-5z"></path><g id="node_text5" fill="black"><text id="kity_text_63" text-rendering="inherit" font-size="12" dy=".8em" y="47.70000162129493" x="396.50001148320735">回归（Regression）</text></g></g><g id="minder_node4"><g id="node_expander1" display="none" style="cursor: pointer;"><path id="kity_path_100" fill="white" stroke="gray" d="M528.5000138301402,29.50000107102096A6,6,0,1,1,516.5000138301402,29.50000107102096A6,6,0,1,1,528.5000138301402,29.50000107102096"></path><path id="kity_path_101" fill="none" stroke="gray"></path></g><path id="node_outline2" fill="none" stroke="none" d="M533.5000140350312,20.50000107102096h152a5,5,0,0,1,5,5v8a5,5,0,0,1,-5,5h-152a5,5,0,0,1,-5,-5v-8a5,5,0,0,1,5,-5z"></path><g id="node_text2" fill="black"><text id="kity_text_57" text-rendering="inherit" font-size="12" dy=".8em" y="21.70000113700719" x="533.5000140350312">代价函数（Cost Function）</text></g></g><g id="minder_node5"><g id="node_expander2" display="none" style="cursor: pointer;"><path id="kity_path_103" fill="white" stroke="gray" d="M528.5000138301402,55.5000015553087A6,6,0,1,1,516.5000138301402,55.5000015553087A6,6,0,1,1,528.5000138301402,55.5000015553087"></path><path id="kity_path_104" fill="none" stroke="gray"></path></g><path id="node_outline3" fill="none" stroke="none" d="M533.5000140350312,46.5000015553087h184a5,5,0,0,1,5,5v8a5,5,0,0,1,-5,5h-184a5,5,0,0,1,-5,-5v-8a5,5,0,0,1,5,-5z"></path><g id="node_text3" fill="black"><text id="kity_text_59" text-rendering="inherit" font-size="12" dy=".8em" y="47.70000162129493" x="533.5000140350312">梯度下降法（Gradient Descent）</text></g></g><g id="minder_node6"><g id="node_expander3" display="none" style="cursor: pointer;"><path id="kity_path_106" fill="white" stroke="gray" d="M528.5000138301402,81.50000203959644A6,6,0,1,1,516.5000138301402,81.50000203959644A6,6,0,1,1,528.5000138301402,81.50000203959644"></path><path id="kity_path_107" fill="none" stroke="gray"></path></g><path id="node_outline4" fill="none" stroke="none" d="M533.5000140350312,72.50000203959644h182a5,5,0,0,1,5,5v8a5,5,0,0,1,-5,5h-182a5,5,0,0,1,-5,-5v-8a5,5,0,0,1,5,-5z"></path><g id="node_text4" fill="black"><text id="kity_text_61" text-rendering="inherit" font-size="12" dy=".8em" y="73.70000210558267" x="533.5000140350312">正规方程法（Normal Equation）</text></g></g><g id="minder_node7"><g id="node_expander8" style="cursor: pointer;"><path id="kity_path_121" fill="white" stroke="gray" d="M391.5000112783164,133.50000300817192A6,6,0,1,1,379.5000112783164,133.50000300817192A6,6,0,1,1,391.5000112783164,133.50000300817192"></path><path id="kity_path_122" fill="none" stroke="gray" d="M381.0000112783164,133.50000300817192L390.0000112783164,133.50000300817192"></path></g><path id="node_outline9" fill="none" stroke="none" d="M396.50001148320735,124.50000300817192h124a5,5,0,0,1,5,5v8a5,5,0,0,1,-5,5h-124a5,5,0,0,1,-5,-5v-8a5,5,0,0,1,5,-5z"></path><g id="node_text9" fill="black"><text id="kity_text_71" text-rendering="inherit" font-size="12" dy=".8em" y="125.70000307415813" x="396.50001148320735">分类（Classification）</text></g></g><g id="minder_node8"><g id="node_expander5" display="none" style="cursor: pointer;"><path id="kity_path_112" fill="white" stroke="gray" d="M541.5000140722841,107.50000252388418A6,6,0,1,1,529.5000140722841,107.50000252388418A6,6,0,1,1,541.5000140722841,107.50000252388418"></path><path id="kity_path_113" fill="none" stroke="gray"></path></g><path id="node_outline6" fill="none" stroke="none" d="M546.5000142771751,98.50000252388418h183a5,5,0,0,1,5,5v8a5,5,0,0,1,-5,5h-183a5,5,0,0,1,-5,-5v-8a5,5,0,0,1,5,-5z"></path><g id="node_text6" fill="black"><text id="kity_text_65" text-rendering="inherit" font-size="12" dy=".8em" y="99.70000258987041" x="546.5000142771751">逻辑回归（Logistic Regression）</text></g></g><g id="minder_node9"><g id="node_expander6" display="none" style="cursor: pointer;"><path id="kity_path_115" fill="white" stroke="gray" d="M541.5000140722841,133.50000300817192A6,6,0,1,1,529.5000140722841,133.50000300817192A6,6,0,1,1,541.5000140722841,133.50000300817192"></path><path id="kity_path_116" fill="none" stroke="gray"></path></g><path id="node_outline7" fill="none" stroke="none" d="M546.5000142771751,124.50000300817192h164a5,5,0,0,1,5,5v8a5,5,0,0,1,-5,5h-164a5,5,0,0,1,-5,-5v-8a5,5,0,0,1,5,-5z"></path><g id="node_text7" fill="black"><text id="kity_text_67" text-rendering="inherit" font-size="12" dy=".8em" y="125.70000307415813" x="546.5000142771751">神经网络（Neural Network）</text></g></g><g id="minder_node10"><g id="node_expander7" display="none" style="cursor: pointer;"><path id="kity_path_118" fill="white" stroke="gray" d="M541.5000140722841,159.50000349245965A6,6,0,1,1,529.5000140722841,159.50000349245965A6,6,0,1,1,541.5000140722841,159.50000349245965"></path><path id="kity_path_119" fill="none" stroke="gray"></path></g><path id="node_outline8" fill="none" stroke="none" d="M546.5000142771751,150.50000349245965h225a5,5,0,0,1,5,5v8a5,5,0,0,1,-5,5h-225a5,5,0,0,1,-5,-5v-8a5,5,0,0,1,5,-5z"></path><g id="node_text8" fill="black"><text id="kity_text_69" text-rendering="inherit" font-size="12" dy=".8em" y="151.70000355844587" x="546.5000142771751">支持向量机（Support Vector Machine）</text></g></g><g id="minder_node11"><g id="node_expander12" style="cursor: pointer;"><path id="kity_path_133" fill="white" stroke="gray" d="M198.50000768341124,208.00000439584255A6,6,0,1,1,186.50000768341124,208.00000439584255A6,6,0,1,1,198.50000768341124,208.00000439584255"></path><path id="kity_path_134" fill="none" stroke="gray" d="M188.00000768341124,208.00000439584255L197.00000768341124,208.00000439584255M192.50000768341124,203.50000439584255L192.50000768341124,212.50000439584255"></path></g><path id="node_outline13" fill="rgb(238, 243, 246)" stroke="rgb(115, 161, 191)" d="M202.50000818632543,184.50000438652933h187a3,3,0,0,1,3,3v41a3,3,0,0,1,-3,3h-187a3,3,0,0,1,-3,-3v-41a3,3,0,0,1,3,-3z" stroke-width="1"></path><g id="node_text13" fill="black"><text id="kity_text_80" text-rendering="inherit" font-size="14" dy=".8em" y="187.90000438058507" x="219.50000818632543">无监督学习</text><text id="kity_text_81" text-rendering="inherit" font-size="14" dy=".8em" y="208.90000438058507" x="219.50000818632543">Unsupervised Learning</text></g></g><g id="minder_node12" display="none"><g id="node_expander10" display="none" style="cursor: pointer;"><path id="kity_path_127" fill="white" stroke="gray" d="M408.50001159496605,200.50000425614417A6,6,0,1,1,396.50001159496605,200.50000425614417A6,6,0,1,1,408.50001159496605,200.50000425614417"></path><path id="kity_path_128" fill="none" stroke="gray"></path></g><path id="node_outline11" fill="none" stroke="none" d="M408.50001170672476,191.50000425614417h106a5,5,0,0,1,5,5v8a5,5,0,0,1,-5,5h-106a5,5,0,0,1,-5,-5v-8a5,5,0,0,1,5,-5z"></path><g id="node_text11" fill="black"><text id="kity_text_76" text-rendering="inherit" font-size="12" dy=".8em" y="192.70000432213038" x="408.50001170672476">聚类（Clustering）</text></g></g><g id="minder_node13" display="none"><g id="node_expander11" display="none" style="cursor: pointer;"><path id="kity_path_130" fill="white" stroke="gray" d="M408.50001159496605,208.50000440515578A6,6,0,1,1,396.50001159496605,208.50000440515578A6,6,0,1,1,408.50001159496605,208.50000440515578"></path><path id="kity_path_131" fill="none" stroke="gray"></path></g><path id="node_outline12" fill="none" stroke="none" d="M408.50001170672476,199.50000440515578h146a5,5,0,0,1,5,5v8a5,5,0,0,1,-5,5h-146a5,5,0,0,1,-5,-5v-8a5,5,0,0,1,5,-5z"></path><g id="node_text12" fill="black"><text id="kity_text_78" text-rendering="inherit" font-size="12" dy=".8em" y="200.700004471142" x="408.50001170672476">非聚类（Non-clustering）</text></g></g><g id="minder_node14"><g id="node_expander13" display="none" style="cursor: pointer;"><path id="kity_path_136" fill="white" stroke="gray" d="M198.50000768341124,271.000005569309A6,6,0,1,1,186.50000768341124,271.000005569309A6,6,0,1,1,198.50000768341124,271.000005569309"></path><path id="kity_path_137" fill="none" stroke="gray"></path></g><path id="node_outline14" fill="rgb(238, 243, 246)" stroke="rgb(115, 161, 191)" d="M202.50000818632543,247.50000555999577h195a3,3,0,0,1,3,3v41a3,3,0,0,1,-3,3h-195a3,3,0,0,1,-3,-3v-41a3,3,0,0,1,3,-3z" stroke-width="1"></path><g id="node_text14" fill="black"><text id="kity_text_83" text-rendering="inherit" font-size="14" dy=".8em" y="250.90000555405152" x="219.50000818632543">强化学习</text><text id="kity_text_84" text-rendering="inherit" font-size="14" dy=".8em" y="271.9000055540515" x="219.50000818632543">Reinforcement Learning</text></g></g></g></g></svg>