<svg id="kity_svg_6" xmlns="http://www.w3.org/2000/svg" xmlns:xlink="http://www.w3.org/1999/xlink" version="1.1" width="765" height="261" style="background: rgb(251, 251, 251); visibility: visible;" viewBox="0 0 765 261"><defs id="kity_defs_7"><linearGradient id="kity_linearGradient_17" x1="0" y1="0" x2="0" y2="1"><stop id="kity_stop_18" offset="0" stop-color="rgb(255, 255, 255)"></stop><stop id="kity_stop_19" offset="1" stop-color="rgb(204, 204, 204)"></stop></linearGradient><marker id="kity_marker_2" orient="auto" refX="6" refY="0" viewBox="-7 -7 14 14" markerWidth="7" markerHeight="7" markerUnits="userSpaceOnUse"><path id="kity_path_3" fill="rgb(115, 161, 191)" stroke="none" d="M6,0A6,6,0,1,1,-6,0A6,6,0,1,1,6,0"></path></marker></defs><g id="kity_g_8"><g id="minder1" text-rendering="optimize-speed"><g id="minder_connect_group1"><path id="kity_path_31" fill="none" stroke="rgb(115, 161, 191)" stroke-width="1" d="M101.99999321624631,150.49998454560046A96.5,68.5,0,0,1,198.4999932162463,81.99998454560046"></path><path id="kity_path_33" fill="none" stroke="rgb(115, 161, 191)" stroke-width="1" d="M376.4999932162463,82.49998454560046C384.4999932162463,81.99998454560046,384.4999932162463,56.499984545600455,392.4999932162463,56.499984545600455"></path><path id="kity_path_35" fill="none" stroke="rgb(115, 161, 191)" stroke-width="1" d="M513.4999932162464,56.499984545600455C521.4999932162464,56.499984545600455,521.4999932162464,30.499984545600455,529.4999932162464,30.499984545600455"></path><path id="kity_path_37" fill="none" stroke="rgb(115, 161, 191)" stroke-width="1" d="M513.4999932162464,56.499984545600455C521.4999932162464,56.499984545600455,521.4999932162464,56.499984545600455,529.4999932162464,56.499984545600455"></path><path id="kity_path_39" fill="none" stroke="rgb(115, 161, 191)" stroke-width="1" d="M513.4999932162464,56.499984545600455C521.4999932162464,56.499984545600455,521.4999932162464,82.49998454560046,529.4999932162464,82.49998454560046"></path><path id="kity_path_41" fill="none" stroke="rgb(115, 161, 191)" stroke-width="1" d="M376.4999932162463,82.49998454560046C384.4999932162463,81.99998454560046,384.4999932162463,108.49998454560046,392.4999932162463,108.49998454560046"></path><path id="kity_path_43" fill="none" stroke="rgb(115, 161, 191)" stroke-width="1" d="M525.4999932162464,85.49998454560046C533.4999932162464,85.49998454560046,533.4999932162464,20.499984545600455,541.4999932162464,20.499984545600455" display="none"></path><path id="kity_path_45" fill="none" stroke="rgb(115, 161, 191)" stroke-width="1" d="M525.4999932162464,85.49998454560046C533.4999932162464,85.49998454560046,533.4999932162464,46.499984545600455,541.4999932162464,46.499984545600455" display="none"></path><path id="kity_path_47" fill="none" stroke="rgb(115, 161, 191)" stroke-width="1" d="M525.4999932162464,85.49998454560046C533.4999932162464,85.49998454560046,533.4999932162464,72.49998454560046,541.4999932162464,72.49998454560046" display="none"></path><path id="kity_path_49" fill="none" stroke="rgb(115, 161, 191)" stroke-width="1" d="M525.4999932162464,85.49998454560046C533.4999932162464,85.49998454560046,533.4999932162464,98.49998454560046,541.4999932162464,98.49998454560046" display="none"></path><path id="kity_path_51" fill="none" stroke="rgb(115, 161, 191)" stroke-width="1" d="M525.4999932162464,85.49998454560046C533.4999932162464,85.49998454560046,533.4999932162464,124.49998454560046,541.4999932162464,124.49998454560046" display="none"></path><path id="kity_path_53" fill="none" stroke="rgb(115, 161, 191)" stroke-width="1" d="M525.4999932162464,85.49998454560046C533.4999932162464,85.49998454560046,533.4999932162464,150.49998454560046,541.4999932162464,150.49998454560046" display="none"></path><path id="kity_path_55" fill="none" stroke="rgb(115, 161, 191)" stroke-width="1" d="M101.99999321624631,150.49998454560046A96.5,5.5,0,0,0,198.4999932162463,155.99998454560046"></path><path id="kity_path_57" fill="none" stroke="rgb(115, 161, 191)" stroke-width="1" d="M393.4999932162463,156.49998454560046C401.4999932162463,155.99998454560046,401.4999932162463,143.49998454560046,409.4999932162463,143.49998454560046"></path><path id="kity_path_59" fill="none" stroke="none" display="none"></path><path id="kity_path_61" fill="none" stroke="rgb(115, 161, 191)" stroke-width="1" d="M393.4999932162463,156.49998454560046C401.4999932162463,155.99998454560046,401.4999932162463,169.49998454560046,409.4999932162463,169.49998454560046"></path><path id="kity_path_63" fill="none" stroke="none" display="none"></path><path id="kity_path_65" fill="none" stroke="rgb(115, 161, 191)" stroke-width="1" d="M101.99999321624631,150.49998454560046A96.5,68.5,0,0,0,198.4999932162463,218.99998454560046"></path></g><g id="minder_node1"><path id="node_outline1" fill="rgb(115, 161, 191)" stroke="rgb(115, 161, 191)" d="M26.49999321624631,124.49998454560046h151a5,5,0,0,1,5,5v42a5,5,0,0,1,-5,5h-151a5,5,0,0,1,-5,-5v-42a5,5,0,0,1,5,-5z" stroke-width="3"></path><g id="node_text1" fill="white"><text id="kity_text_22" text-rendering="inherit" font-size="16" dy=".8em" y="128.09998447417945" x="33.49999321624631">机器学习</text><text id="kity_text_105" text-rendering="inherit" font-size="16" dy=".8em" y="152.09998447417945" x="33.49999321624631">Machine Learning</text></g></g><g id="kity_g_12"><path id="kity_path_13" fill="none" stroke="none" d="M33.49999321624631,150.49998454560046h0v0h0z"></path></g><g id="kity_g_14"><path id="kity_path_15" fill="none" stroke="none" d="M33.49999321624631,150.49998454560046h0v0h0z"></path><path id="kity_path_16" fill="none" stroke="none"></path></g><g id="minder_node2"><g id="node_expander12" style="cursor: pointer;"><path id="kity_path_158" fill="white" stroke="gray" d="M199.49998922168936,81.99998632740028A6,6,0,1,1,187.49998922168936,81.99998632740028A6,6,0,1,1,199.49998922168936,81.99998632740028"></path><path id="kity_path_159" fill="none" stroke="gray" d="M188.99998922168936,81.99998632740028L197.99998922168936,81.99998632740028"></path></g><path id="node_outline13" fill="rgb(238, 243, 246)" stroke="rgb(115, 161, 191)" d="M203.49998835206281,58.499986340406124h170a3,3,0,0,1,3,3v41a3,3,0,0,1,-3,3h-170a3,3,0,0,1,-3,-3v-41a3,3,0,0,1,3,-3z" stroke-width="1"></path><g id="node_text13" fill="black"><text id="kity_text_89" text-rendering="inherit" font-size="14" dy=".8em" y="61.89998644522403" x="220.49998835206281">监督学习</text><text id="kity_text_90" text-rendering="inherit" font-size="14" dy=".8em" y="82.89998644522403" x="220.49998835206281">Supervised Learning</text></g></g><g id="minder_node3"><g id="node_expander4" style="cursor: pointer;"><path id="kity_path_134" fill="white" stroke="gray" d="M392.49998420143584,56.499986990698034A6,6,0,1,1,380.49998420143584,56.499986990698034A6,6,0,1,1,392.49998420143584,56.499986990698034"></path><path id="kity_path_135" fill="none" stroke="gray" d="M381.99998420143584,56.499986990698034L390.99998420143584,56.499986990698034"></path></g><path id="node_outline5" fill="none" stroke="none" d="M397.4999837479961,47.499986990698034h111a5,5,0,0,1,5,5v8a5,5,0,0,1,-5,5h-111a5,5,0,0,1,-5,-5v-8a5,5,0,0,1,5,-5z" stroke-width="3"></path><g id="node_text5" fill="black"><text id="kity_text_73" text-rendering="inherit" font-size="12" dy=".8em" y="48.699987104443565" x="397.4999837479961">回归（Regression）</text></g></g><g id="minder_node4"><g id="node_expander1" style="cursor: pointer;" display="none"><path id="kity_path_125" fill="white" stroke="gray" d="M529.4999806378362,30.49998766700162A6,6,0,1,1,517.4999806378362,30.49998766700162A6,6,0,1,1,529.4999806378362,30.49998766700162"></path><path id="kity_path_126" fill="none" stroke="gray"></path></g><path id="node_outline2" fill="none" stroke="none" d="M534.4999801843965,21.49998766700162h152a5,5,0,0,1,5,5v8a5,5,0,0,1,-5,5h-152a5,5,0,0,1,-5,-5v-8a5,5,0,0,1,5,-5z" stroke-width="3"></path><g id="node_text2" fill="black"><text id="kity_text_67" text-rendering="inherit" font-size="12" dy=".8em" y="22.69998778074715" x="534.4999801843965">代价函数（Cost Function）</text></g></g><g id="minder_node5"><g id="node_expander2" style="cursor: pointer;" display="none"><path id="kity_path_128" fill="white" stroke="gray" d="M529.4999806378362,56.499986990698034A6,6,0,1,1,517.4999806378362,56.499986990698034A6,6,0,1,1,529.4999806378362,56.499986990698034"></path><path id="kity_path_129" fill="none" stroke="gray"></path></g><path id="node_outline3" fill="none" stroke="none" d="M534.4999801843965,47.499986990698034h184a5,5,0,0,1,5,5v8a5,5,0,0,1,-5,5h-184a5,5,0,0,1,-5,-5v-8a5,5,0,0,1,5,-5z" stroke-width="3"></path><g id="node_text3" fill="black"><text id="kity_text_69" text-rendering="inherit" font-size="12" dy=".8em" y="48.699987104443565" x="534.4999801843965">梯度下降法（Gradient Descent）</text></g></g><g id="minder_node6"><g id="node_expander3" style="cursor: pointer;" display="none"><path id="kity_path_131" fill="white" stroke="gray" d="M529.4999806378362,82.49998631439445A6,6,0,1,1,517.4999806378362,82.49998631439445A6,6,0,1,1,529.4999806378362,82.49998631439445"></path><path id="kity_path_132" fill="none" stroke="gray"></path></g><path id="node_outline4" fill="none" stroke="none" d="M534.4999801843965,73.49998631439445h207a5,5,0,0,1,5,5v8a5,5,0,0,1,-5,5h-207a5,5,0,0,1,-5,-5v-8a5,5,0,0,1,5,-5z" stroke-width="3"></path><g id="node_text4" fill="black"><text id="kity_text_71" text-rendering="inherit" font-size="12" dy=".8em" y="74.69998642813998" x="534.4999801843965">最小二乘法（Least Square Method）</text></g></g><g id="minder_node7"><g id="node_expander11" style="cursor: pointer;"><path id="kity_path_155" fill="white" stroke="gray" d="M392.49998420143584,108.49998563809086A6,6,0,1,1,380.49998420143584,108.49998563809086A6,6,0,1,1,392.49998420143584,108.49998563809086"></path><path id="kity_path_156" fill="none" stroke="gray" d="M381.99998420143584,108.49998563809086L390.99998420143584,108.49998563809086M386.49998420143584,103.99998563809086L386.49998420143584,112.99998563809086"></path></g><path id="node_outline12" fill="none" stroke="none" d="M397.4999837479961,99.49998563809086h123a5,5,0,0,1,5,5v8a5,5,0,0,1,-5,5h-123a5,5,0,0,1,-5,-5v-8a5,5,0,0,1,5,-5z" stroke-width="3"></path><g id="node_text12" fill="black"><text id="kity_text_87" text-rendering="inherit" font-size="12" dy=".8em" y="100.6999857518364" x="397.4999837479961">分类（Classification）</text></g></g><g id="minder_node8" display="none"><g id="node_expander5" style="cursor: pointer;" display="none"><path id="kity_path_137" fill="white" stroke="gray" d="M541.4999804930073,68.49998667855792A6,6,0,1,1,529.4999804930073,68.49998667855792A6,6,0,1,1,541.4999804930073,68.49998667855792"></path><path id="kity_path_138" fill="none" stroke="gray"></path></g><path id="node_outline6" fill="none" stroke="none" d="M541.4999800023147,59.49998667855792h183a5,5,0,0,1,5,5v8a5,5,0,0,1,-5,5h-183a5,5,0,0,1,-5,-5v-8a5,5,0,0,1,5,-5z"></path><g id="node_text6" fill="black"><text id="kity_text_75" text-rendering="inherit" font-size="12" dy=".8em" y="60.69998679230345" x="541.4999800023147">逻辑回归（Logistic Regression）</text></g></g><g id="minder_node9" display="none"><g id="node_expander6" style="cursor: pointer;" display="none"><path id="kity_path_140" fill="white" stroke="gray" d="M541.4999804930073,76.4999864704645A6,6,0,1,1,529.4999804930073,76.4999864704645A6,6,0,1,1,541.4999804930073,76.4999864704645"></path><path id="kity_path_141" fill="none" stroke="gray"></path></g><path id="node_outline7" fill="none" stroke="none" d="M541.4999800023147,67.4999864704645h164a5,5,0,0,1,5,5v8a5,5,0,0,1,-5,5h-164a5,5,0,0,1,-5,-5v-8a5,5,0,0,1,5,-5z"></path><g id="node_text7" fill="black"><text id="kity_text_77" text-rendering="inherit" font-size="12" dy=".8em" y="68.69998658421004" x="541.4999800023147">神经网络（Neural Network）</text></g></g><g id="minder_node10" display="none"><g id="node_expander7" style="cursor: pointer;" display="none"><path id="kity_path_143" fill="white" stroke="gray" d="M541.4999804930073,84.4999862623711A6,6,0,1,1,529.4999804930073,84.4999862623711A6,6,0,1,1,541.4999804930073,84.4999862623711"></path><path id="kity_path_144" fill="none" stroke="gray"></path></g><path id="node_outline8" fill="none" stroke="none" d="M541.4999800023147,75.4999862623711h225a5,5,0,0,1,5,5v8a5,5,0,0,1,-5,5h-225a5,5,0,0,1,-5,-5v-8a5,5,0,0,1,5,-5z"></path><g id="node_text8" fill="black"><text id="kity_text_79" text-rendering="inherit" font-size="12" dy=".8em" y="76.69998637611663" x="541.4999800023147">支持向量机（Support Vector Machine）</text></g></g><g id="minder_node11" display="none"><g id="node_expander8" style="cursor: pointer;" display="none"><path id="kity_path_146" fill="white" stroke="gray" d="M541.4999804930073,92.49998605427768A6,6,0,1,1,529.4999804930073,92.49998605427768A6,6,0,1,1,541.4999804930073,92.49998605427768"></path><path id="kity_path_147" fill="none" stroke="gray"></path></g><path id="node_outline9" fill="none" stroke="none" d="M541.4999800023147,83.49998605427768h176a5,5,0,0,1,5,5v8a5,5,0,0,1,-5,5h-176a5,5,0,0,1,-5,-5v-8a5,5,0,0,1,5,-5z"></path><g id="node_text9" fill="black"><text id="kity_text_81" text-rendering="inherit" font-size="12" dy=".8em" y="84.69998616802322" x="541.4999800023147">K-近邻（K-Nearest Neighbor）</text></g></g><g id="minder_node12" display="none"><g id="node_expander9" style="cursor: pointer;" display="none"><path id="kity_path_149" fill="white" stroke="gray" d="M541.4999804930073,100.49998584618427A6,6,0,1,1,529.4999804930073,100.49998584618427A6,6,0,1,1,541.4999804930073,100.49998584618427"></path><path id="kity_path_150" fill="none" stroke="gray"></path></g><path id="node_outline10" fill="none" stroke="none" d="M541.4999800023147,91.49998584618427h137a5,5,0,0,1,5,5v8a5,5,0,0,1,-5,5h-137a5,5,0,0,1,-5,-5v-8a5,5,0,0,1,5,-5z"></path><g id="node_text10" fill="black"><text id="kity_text_83" text-rendering="inherit" font-size="12" dy=".8em" y="92.6999859599298" x="541.4999800023147">决策树（Decision Tree）</text></g></g><g id="minder_node13" display="none"><g id="node_expander10" style="cursor: pointer;" display="none"><path id="kity_path_152" fill="white" stroke="gray" d="M541.4999804930073,108.49998563809086A6,6,0,1,1,529.4999804930073,108.49998563809086A6,6,0,1,1,541.4999804930073,108.49998563809086"></path><path id="kity_path_153" fill="none" stroke="gray"></path></g><path id="node_outline11" fill="none" stroke="none" d="M541.4999800023147,99.49998563809086h171a5,5,0,0,1,5,5v8a5,5,0,0,1,-5,5h-171a5,5,0,0,1,-5,-5v-8a5,5,0,0,1,5,-5z"></path><g id="node_text11" fill="black"><text id="kity_text_85" text-rendering="inherit" font-size="12" dy=".8em" y="100.6999857518364" x="541.4999800023147">朴素贝叶斯（Naive Bayesian）</text></g></g><g id="minder_node14"><g id="node_expander17" style="cursor: pointer;"><path id="kity_path_173" fill="white" stroke="gray" d="M199.49998922168936,155.99998440253626A6,6,0,1,1,187.49998922168936,155.99998440253626A6,6,0,1,1,199.49998922168936,155.99998440253626"></path><path id="kity_path_174" fill="none" stroke="gray" d="M188.99998922168936,155.99998440253626L197.99998922168936,155.99998440253626"></path></g><path id="node_outline18" fill="rgb(238, 243, 246)" stroke="rgb(115, 161, 191)" d="M203.49998835206281,132.4999844155421h187a3,3,0,0,1,3,3v41a3,3,0,0,1,-3,3h-187a3,3,0,0,1,-3,-3v-41a3,3,0,0,1,3,-3z" stroke-width="1"></path><g id="node_text18" fill="black"><text id="kity_text_100" text-rendering="inherit" font-size="14" dy=".8em" y="135.89998452036" x="220.49998835206281">无监督学习</text><text id="kity_text_101" text-rendering="inherit" font-size="14" dy=".8em" y="156.89998452036" x="220.49998835206281">Unsupervised Learning</text></g></g><g id="minder_node15"><g id="node_expander14" style="cursor: pointer;"><path id="kity_path_164" fill="white" stroke="gray" d="M409.49998375923735,143.4999847276822A6,6,0,1,1,397.49998375923735,143.4999847276822A6,6,0,1,1,409.49998375923735,143.4999847276822"></path><path id="kity_path_165" fill="none" stroke="gray" d="M398.99998375923735,143.4999847276822L407.99998375923735,143.4999847276822M403.49998375923735,138.9999847276822L403.49998375923735,147.9999847276822"></path></g><path id="node_outline15" fill="none" stroke="none" d="M414.4999833057976,134.4999847276822h106a5,5,0,0,1,5,5v8a5,5,0,0,1,-5,5h-106a5,5,0,0,1,-5,-5v-8a5,5,0,0,1,5,-5z"></path><g id="node_text15" fill="black"><text id="kity_text_94" text-rendering="inherit" font-size="12" dy=".8em" y="135.69998484142775" x="414.4999833057976">聚类（Clustering）</text></g></g><g id="minder_node16" display="none"><g id="node_expander13" style="cursor: pointer;" display="none"><path id="kity_path_161" fill="white" stroke="gray" d="M541.4999804930073,143.4999847276822A6,6,0,1,1,529.4999804930073,143.4999847276822A6,6,0,1,1,541.4999804930073,143.4999847276822"></path><path id="kity_path_162" fill="none" stroke="gray"></path></g><path id="node_outline14" fill="none" stroke="none" d="M541.4999800023147,134.4999847276822h112a5,5,0,0,1,5,5v8a5,5,0,0,1,-5,5h-112a5,5,0,0,1,-5,-5v-8a5,5,0,0,1,5,-5z"></path><g id="node_text14" fill="black"><text id="kity_text_92" text-rendering="inherit" font-size="12" dy=".8em" y="135.69998484142775" x="541.4999800023147">K-均值（K-Means）</text></g></g><g id="minder_node17"><g id="node_expander16" style="cursor: pointer;"><path id="kity_path_170" fill="white" stroke="gray" d="M409.49998375923735,169.49998405137862A6,6,0,1,1,397.49998375923735,169.49998405137862A6,6,0,1,1,409.49998375923735,169.49998405137862"></path><path id="kity_path_171" fill="none" stroke="gray" d="M398.99998375923735,169.49998405137862L407.99998375923735,169.49998405137862M403.49998375923735,164.99998405137862L403.49998375923735,173.99998405137862"></path></g><path id="node_outline17" fill="none" stroke="none" d="M414.4999833057976,160.49998405137862h195a5,5,0,0,1,5,5v8a5,5,0,0,1,-5,5h-195a5,5,0,0,1,-5,-5v-8a5,5,0,0,1,5,-5z"></path><g id="node_text17" fill="black"><text id="kity_text_98" text-rendering="inherit" font-size="12" dy=".8em" y="161.69998416512414" x="414.4999833057976">降维（Dimensionality Reduction）</text></g></g><g id="minder_node18" display="none"><g id="node_expander15" style="cursor: pointer;" display="none"><path id="kity_path_167" fill="white" stroke="gray" d="M630.4999781779682,169.49998405137862A6,6,0,1,1,618.4999781779682,169.49998405137862A6,6,0,1,1,630.4999781779682,169.49998405137862"></path><path id="kity_path_168" fill="none" stroke="gray"></path></g><path id="node_outline16" fill="none" stroke="none" d="M630.4999776872755,160.49998405137862h267a5,5,0,0,1,5,5v8a5,5,0,0,1,-5,5h-267a5,5,0,0,1,-5,-5v-8a5,5,0,0,1,5,-5z"></path><g id="node_text16" fill="black"><text id="kity_text_96" text-rendering="inherit" font-size="12" dy=".8em" y="161.69998416512414" x="630.4999776872755">主成分分析法（Principal Component Analysis）</text></g></g><g id="minder_node19"><g id="node_expander18" style="cursor: pointer;" display="none"><path id="kity_path_176" fill="white" stroke="gray" d="M199.49998922168936,218.99998276380063A6,6,0,1,1,187.49998922168936,218.99998276380063A6,6,0,1,1,199.49998922168936,218.99998276380063"></path><path id="kity_path_177" fill="none" stroke="gray"></path></g><path id="node_outline19" fill="rgb(238, 243, 246)" stroke="rgb(115, 161, 191)" d="M203.49998835206281,195.49998277680646h195a3,3,0,0,1,3,3v41a3,3,0,0,1,-3,3h-195a3,3,0,0,1,-3,-3v-41a3,3,0,0,1,3,-3z" stroke-width="1"></path><g id="node_text19" fill="black"><text id="kity_text_103" text-rendering="inherit" font-size="14" dy=".8em" y="198.89998288162437" x="220.49998835206281">强化学习</text><text id="kity_text_104" text-rendering="inherit" font-size="14" dy=".8em" y="219.89998288162437" x="220.49998835206281">Reinforcement Learning</text></g></g></g></g></svg>