<svg id="kity_svg_6" xmlns="http://www.w3.org/2000/svg" xmlns:xlink="http://www.w3.org/1999/xlink" version="1.1" width="920" height="403" style="background: rgb(251, 251, 251); visibility: visible;" viewBox="0 0 920 403"><defs id="kity_defs_7"><linearGradient id="kity_linearGradient_17" x1="0" y1="0" x2="0" y2="1"><stop id="kity_stop_18" offset="0" stop-color="rgb(255, 255, 255)"></stop><stop id="kity_stop_19" offset="1" stop-color="rgb(204, 204, 204)"></stop></linearGradient><marker id="kity_marker_2" orient="auto" refX="6" refY="0" viewBox="-7 -7 14 14" markerWidth="7" markerHeight="7" markerUnits="userSpaceOnUse"><path id="kity_path_3" fill="rgb(115, 161, 191)" stroke="none" d="M6,0A6,6,0,1,1,-6,0A6,6,0,1,1,6,0"></path></marker></defs><g id="kity_g_8"><g id="minder1" text-rendering="optimize-speed"><g id="minder_connect_group1"><path id="kity_path_31" fill="none" stroke="rgb(115, 161, 191)" stroke-width="1" d="M101.9999969917431,218.49998054153056A96.5,142.5,0,0,1,198.4999969917431,75.99998054153056"></path><path id="kity_path_33" fill="none" stroke="rgb(115, 161, 191)" stroke-width="1" d="M376.4999969917431,76.49998054153056C384.4999969917431,75.99998054153056,384.4999969917431,30.49998054153056,392.4999969917431,30.49998054153056"></path><path id="kity_path_35" fill="none" stroke="rgb(115, 161, 191)" stroke-width="1" d="M513.499996991743,-17.50001945846944C521.499996991743,-17.50001945846944,521.499996991743,-82.50001945846944,529.499996991743,-82.50001945846944" display="none"></path><path id="kity_path_37" fill="none" stroke="rgb(115, 161, 191)" stroke-width="1" d="M513.499996991743,-17.50001945846944C521.499996991743,-17.50001945846944,521.499996991743,-56.50001945846944,529.499996991743,-56.50001945846944" display="none"></path><path id="kity_path_39" fill="none" stroke="rgb(115, 161, 191)" stroke-width="1" d="M746.499996991743,-56.50001945846944C754.499996991743,-56.50001945846944,754.499996991743,-56.50001945846944,762.499996991743,-56.50001945846944" display="none"></path><path id="kity_path_41" fill="none" stroke="rgb(115, 161, 191)" stroke-width="1" d="M513.499996991743,-17.50001945846944C521.499996991743,-17.50001945846944,521.499996991743,-4.500019458469438,529.499996991743,-4.500019458469438" display="none"></path><path id="kity_path_43" fill="none" stroke="rgb(115, 161, 191)" stroke-width="1" d="M694.499996991743,-4.500019458469438C702.499996991743,-4.500019458469438,702.499996991743,-4.500019458469438,710.499996991743,-4.500019458469438" display="none"></path><path id="kity_path_45" fill="none" stroke="rgb(115, 161, 191)" stroke-width="1" d="M925.499996991743,-4.500019458469438C933.499996991743,-4.500019458469438,933.499996991743,-30.50001945846944,941.499996991743,-30.50001945846944" display="none"></path><path id="kity_path_47" fill="none" stroke="rgb(115, 161, 191)" stroke-width="1" d="M925.499996991743,-4.500019458469438C933.499996991743,-4.500019458469438,933.499996991743,-4.500019458469438,941.499996991743,-4.500019458469438" display="none"></path><path id="kity_path_49" fill="none" stroke="rgb(115, 161, 191)" stroke-width="1" d="M925.499996991743,-4.500019458469438C933.499996991743,-4.500019458469438,933.499996991743,21.49998054153056,941.499996991743,21.49998054153056" display="none"></path><path id="kity_path_51" fill="none" stroke="rgb(115, 161, 191)" stroke-width="1" d="M513.499996991743,-17.50001945846944C521.499996991743,-17.50001945846944,521.499996991743,47.49998054153056,529.499996991743,47.49998054153056" display="none"></path><path id="kity_path_53" fill="none" stroke="rgb(115, 161, 191)" stroke-width="1" d="M691.499996991743,47.49998054153056C699.499996991743,47.49998054153056,699.499996991743,47.49998054153056,707.499996991743,47.49998054153056" display="none"></path><path id="kity_path_55" fill="none" stroke="rgb(115, 161, 191)" stroke-width="1" d="M376.4999969917431,76.49998054153056C384.4999969917431,75.99998054153056,384.4999969917431,121.49998054153056,392.4999969917431,121.49998054153056"></path><path id="kity_path_57" fill="none" stroke="rgb(115, 161, 191)" stroke-width="1" d="M526.499996991743,121.49998054153056C534.499996991743,121.49998054153056,534.499996991743,56.49998054153056,542.499996991743,56.49998054153056"></path><path id="kity_path_59" fill="none" stroke="rgb(115, 161, 191)" stroke-width="1" d="M526.499996991743,121.49998054153056C534.499996991743,121.49998054153056,534.499996991743,82.49998054153056,542.499996991743,82.49998054153056"></path><path id="kity_path_61" fill="none" stroke="rgb(115, 161, 191)" stroke-width="1" d="M716.499996991743,61.49998054153056C724.499996991743,61.49998054153056,724.499996991743,61.49998054153056,732.499996991743,61.49998054153056" display="none"></path><path id="kity_path_63" fill="none" stroke="rgb(115, 161, 191)" stroke-width="1" d="M526.499996991743,121.49998054153056C534.499996991743,121.49998054153056,534.499996991743,108.49998054153056,542.499996991743,108.49998054153056"></path><path id="kity_path_65" fill="none" stroke="rgb(115, 161, 191)" stroke-width="1" d="M777.499996991743,87.49998054153056C785.499996991743,87.49998054153056,785.499996991743,87.49998054153056,793.499996991743,87.49998054153056" display="none"></path><path id="kity_path_67" fill="none" stroke="rgb(115, 161, 191)" stroke-width="1" d="M526.499996991743,121.49998054153056C534.499996991743,121.49998054153056,534.499996991743,134.49998054153056,542.499996991743,134.49998054153056"></path><path id="kity_path_69" fill="none" stroke="rgb(115, 161, 191)" stroke-width="1" d="M526.499996991743,121.49998054153056C534.499996991743,121.49998054153056,534.499996991743,160.49998054153056,542.499996991743,160.49998054153056"></path><path id="kity_path_71" fill="none" stroke="rgb(115, 161, 191)" stroke-width="1" d="M690.499996991743,133.49998054153056C698.499996991743,133.49998054153056,698.499996991743,107.49998054153056,706.499996991743,107.49998054153056" display="none"></path><path id="kity_path_73" fill="none" stroke="rgb(115, 161, 191)" stroke-width="1" d="M736.499996991743,107.49998054153056C744.499996991743,107.49998054153056,744.499996991743,107.49998054153056,752.499996991743,107.49998054153056" display="none"></path><path id="kity_path_75" fill="none" stroke="rgb(115, 161, 191)" stroke-width="1" d="M690.499996991743,133.49998054153056C698.499996991743,133.49998054153056,698.499996991743,133.49998054153056,706.499996991743,133.49998054153056" display="none"></path><path id="kity_path_77" fill="none" stroke="rgb(115, 161, 191)" stroke-width="1" d="M741.499996991743,133.49998054153056C749.499996991743,133.49998054153056,749.499996991743,133.49998054153056,757.499996991743,133.49998054153056" display="none"></path><path id="kity_path_79" fill="none" stroke="rgb(115, 161, 191)" stroke-width="1" d="M690.499996991743,133.49998054153056C698.499996991743,133.49998054153056,698.499996991743,159.49998054153056,706.499996991743,159.49998054153056" display="none"></path><path id="kity_path_81" fill="none" stroke="rgb(115, 161, 191)" stroke-width="1" d="M748.499996991743,159.49998054153056C756.499996991743,159.49998054153056,756.499996991743,159.49998054153056,764.499996991743,159.49998054153056" display="none"></path><path id="kity_path_83" fill="none" stroke="rgb(115, 161, 191)" stroke-width="1" d="M526.499996991743,121.49998054153056C534.499996991743,121.49998054153056,534.499996991743,186.49998054153056,542.499996991743,186.49998054153056"></path><path id="kity_path_85" fill="none" stroke="rgb(115, 161, 191)" stroke-width="1" d="M101.9999969917431,218.49998054153056A96.5,16.5,0,0,0,198.4999969917431,234.99998054153056"></path><path id="kity_path_87" fill="none" stroke="rgb(115, 161, 191)" stroke-width="1" d="M393.4999969917431,214.49998054153056C401.4999969917431,213.99998054153056,401.4999969917431,201.49998054153056,409.4999969917431,201.49998054153056" display="none"></path><path id="kity_path_89" fill="none" stroke="rgb(115, 161, 191)" stroke-width="1" d="M526.499996991743,201.49998054153056C534.499996991743,201.49998054153056,534.499996991743,201.49998054153056,542.499996991743,201.49998054153056" display="none"></path><path id="kity_path_91" fill="none" stroke="rgb(115, 161, 191)" stroke-width="1" d="M393.4999969917431,214.49998054153056C401.4999969917431,213.99998054153056,401.4999969917431,227.49998054153056,409.4999969917431,227.49998054153056" display="none"></path><path id="kity_path_93" fill="none" stroke="rgb(115, 161, 191)" stroke-width="1" d="M614.499996991743,227.49998054153056C622.499996991743,227.49998054153056,622.499996991743,227.49998054153056,630.499996991743,227.49998054153056" display="none"></path><path id="kity_path_95" fill="none" stroke="rgb(115, 161, 191)" stroke-width="1" d="M101.9999969917431,218.49998054153056A96.5,79.5,0,0,0,198.4999969917431,297.9999805415306"></path><path id="kity_path_97" fill="none" stroke="rgb(115, 161, 191)" stroke-width="1" d="M367.4999969917431,314.4999805415306C375.4999969917431,313.9999805415306,375.4999969917431,262.4999805415306,383.4999969917431,262.4999805415306" display="none"></path><path id="kity_path_99" fill="none" stroke="rgb(115, 161, 191)" stroke-width="1" d="M441.4999969917431,262.4999805415306C449.4999969917431,262.4999805415306,449.4999969917431,262.4999805415306,457.4999969917431,262.4999805415306" display="none"></path><path id="kity_path_101" fill="none" stroke="rgb(115, 161, 191)" stroke-width="1" d="M367.4999969917431,314.4999805415306C375.4999969917431,313.9999805415306,375.4999969917431,314.4999805415306,383.4999969917431,314.4999805415306" display="none"></path><path id="kity_path_103" fill="none" stroke="rgb(115, 161, 191)" stroke-width="1" d="M444.4999969917431,314.4999805415306C452.4999969917431,314.4999805415306,452.4999969917431,288.4999805415306,460.4999969917431,288.4999805415306" display="none"></path><path id="kity_path_105" fill="none" stroke="rgb(115, 161, 191)" stroke-width="1" d="M444.4999969917431,314.4999805415306C452.4999969917431,314.4999805415306,452.4999969917431,314.4999805415306,460.4999969917431,314.4999805415306" display="none"></path><path id="kity_path_107" fill="none" stroke="rgb(115, 161, 191)" stroke-width="1" d="M785.499996991743,314.4999805415306C793.499996991743,314.4999805415306,793.499996991743,314.4999805415306,801.499996991743,314.4999805415306" display="none"></path><path id="kity_path_109" fill="none" stroke="rgb(115, 161, 191)" stroke-width="1" d="M444.4999969917431,314.4999805415306C452.4999969917431,314.4999805415306,452.4999969917431,340.4999805415306,460.4999969917431,340.4999805415306" display="none"></path><path id="kity_path_111" fill="none" stroke="rgb(115, 161, 191)" stroke-width="1" d="M367.4999969917431,314.4999805415306C375.4999969917431,313.9999805415306,375.4999969917431,366.4999805415306,383.4999969917431,366.4999805415306" display="none"></path><path id="kity_path_113" fill="none" stroke="rgb(115, 161, 191)" stroke-width="1" d="M101.9999969917431,218.49998054153056A96.5,142.5,0,0,0,198.4999969917431,360.9999805415306"></path><path id="kity_path_372" fill="none" stroke="rgb(115, 161, 191)" stroke-width="1" d="M735.499996991743,56.49998054153056C743.499996991743,56.49998054153056,743.499996991743,56.49998054153056,751.499996991743,56.49998054153056"></path></g><g id="minder_node1"><path id="node_outline1" fill="rgb(115, 161, 191)" stroke="rgb(115, 161, 191)" d="M26.499996991743103,192.49998054153056h151a5,5,0,0,1,5,5v42a5,5,0,0,1,-5,5h-151a5,5,0,0,1,-5,-5v-42a5,5,0,0,1,5,-5z" stroke-width="3"></path><g id="node_text1" fill="white"><text id="kity_text_22" text-rendering="inherit" font-size="16" dy=".8em" y="196.09998051087913" x="33.4999969917431">机器学习</text><text id="kity_text_202" text-rendering="inherit" font-size="16" dy=".8em" y="220.09998051087913" x="33.4999969917431">Machine Learning</text></g></g><g id="kity_g_12"><path id="kity_path_13" fill="none" stroke="none" d="M33.4999969917431,218.49998054153056h0v0h0z"></path></g><g id="kity_g_14"><path id="kity_path_15" fill="none" stroke="none" d="M33.4999969917431,218.49998054153056h0v0h0z"></path><path id="kity_path_16" fill="none" stroke="none"></path></g><g id="minder_node2"><g id="node_expander27" style="cursor: pointer;"><path id="kity_path_324" fill="white" stroke="gray" d="M199.49999419011567,75.99998368865579A6,6,0,1,1,187.49999419011567,75.99998368865579A6,6,0,1,1,199.49999419011567,75.99998368865579"></path><path id="kity_path_325" fill="none" stroke="gray" d="M188.99999419011567,75.99998368865579L197.99999419011567,75.99998368865579"></path></g><path id="node_outline28" fill="rgb(238, 243, 246)" stroke="rgb(115, 161, 191)" d="M203.4999928618314,52.49998369969833h170a3,3,0,0,1,3,3v41a3,3,0,0,1,-3,3h-170a3,3,0,0,1,-3,-3v-41a3,3,0,0,1,3,-3z" stroke-width="1"></path><g id="node_text28" fill="black"><text id="kity_text_167" text-rendering="inherit" font-size="14" dy=".8em" y="55.89998388201744" x="220.4999928618314">监督学习</text><text id="kity_text_168" text-rendering="inherit" font-size="14" dy=".8em" y="76.89998388201744" x="220.4999928618314">Supervised Learning</text></g></g><g id="minder_node3"><g id="node_expander11" style="cursor: pointer;"><path id="kity_path_276" fill="white" stroke="gray" d="M392.499989091137,30.499984693527317A6,6,0,1,1,380.499989091137,30.499984693527317A6,6,0,1,1,392.499989091137,30.499984693527317"></path><path id="kity_path_277" fill="none" stroke="gray" d="M381.999989091137,30.499984693527317L390.999989091137,30.499984693527317M386.499989091137,25.999984693527317L386.499989091137,34.99998469352732"></path></g><path id="node_outline12" fill="none" stroke="none" d="M397.4999889527706,21.499984693527324h111a5,5,0,0,1,5,5v8a5,5,0,0,1,-5,5h-111a5,5,0,0,1,-5,-5v-8a5,5,0,0,1,5,-5z" stroke-width="3"></path><g id="node_text12" fill="black"><text id="kity_text_135" text-rendering="inherit" font-size="12" dy=".8em" y="22.69998487967785" x="397.4999889527706">回归（Regression）</text></g></g><g id="minder_node4" display="none"><g id="node_expander1" style="cursor: pointer;" display="none"><path id="kity_path_246" fill="white" stroke="gray" d="M529.4999859609102,6.49998522356946A6,6,0,1,1,517.4999859609102,6.49998522356946A6,6,0,1,1,529.4999859609102,6.49998522356946"></path><path id="kity_path_247" fill="none" stroke="gray"></path></g><path id="node_outline2" fill="none" stroke="none" d="M529.4999860375387,-2.5000147764305325h184a5,5,0,0,1,5,5v8a5,5,0,0,1,-5,5h-184a5,5,0,0,1,-5,-5v-8a5,5,0,0,1,5,-5z"></path><g id="node_text2" fill="black"><text id="kity_text_115" text-rendering="inherit" font-size="12" dy=".8em" y="-1.300014590280007" x="529.4999860375387">梯度下降法（Gradient Descent）</text></g></g><g id="minder_node5" display="none"><g id="node_expander3" style="cursor: pointer;" display="none"><path id="kity_path_252" fill="white" stroke="gray" d="M529.4999859609102,14.499985046888746A6,6,0,1,1,517.4999859609102,14.499985046888746A6,6,0,1,1,529.4999859609102,14.499985046888746"></path><path id="kity_path_253" fill="none" stroke="gray" d="M518.9999859609102,14.499985046888746L527.9999859609102,14.499985046888746"></path></g><path id="node_outline4" fill="none" stroke="none" d="M529.4999860375387,5.499985046888753h207a5,5,0,0,1,5,5v8a5,5,0,0,1,-5,5h-207a5,5,0,0,1,-5,-5v-8a5,5,0,0,1,5,-5z"></path><g id="node_text4" fill="black"><text id="kity_text_119" text-rendering="inherit" font-size="12" dy=".8em" y="6.699985233039278" x="529.4999860375387">最小二乘法（Least Square Method）</text></g></g><g id="minder_node6" display="none"><g id="node_expander2" style="cursor: pointer;" display="none"><path id="kity_path_249" fill="white" stroke="gray" d="M545.4999856075488,14.499985046888746A6,6,0,1,1,533.4999856075488,14.499985046888746A6,6,0,1,1,545.4999856075488,14.499985046888746"></path><path id="kity_path_250" fill="none" stroke="gray"></path></g><path id="node_outline3" fill="none" stroke="none" d="M545.4999856841773,5.499985046888753h169a5,5,0,0,1,5,5v8a5,5,0,0,1,-5,5h-169a5,5,0,0,1,-5,-5v-8a5,5,0,0,1,5,-5z"></path><g id="node_text3" fill="black"><text id="kity_text_117" text-rendering="inherit" font-size="12" dy=".8em" y="6.699985233039278" x="545.4999856841773">正规方程（Normal Function）</text></g></g><g id="minder_node7" display="none"><g id="node_expander8" style="cursor: pointer;" display="none"><path id="kity_path_267" fill="white" stroke="gray" d="M529.4999859609102,22.49998487020806A6,6,0,1,1,517.4999859609102,22.49998487020806A6,6,0,1,1,529.4999859609102,22.49998487020806"></path><path id="kity_path_268" fill="none" stroke="gray" d="M518.9999859609102,22.49998487020806L527.9999859609102,22.49998487020806"></path></g><path id="node_outline9" fill="none" stroke="none" d="M529.4999860375387,13.499984870208067h155a5,5,0,0,1,5,5v8a5,5,0,0,1,-5,5h-155a5,5,0,0,1,-5,-5v-8a5,5,0,0,1,5,-5z"></path><g id="node_text9" fill="black"><text id="kity_text_129" text-rendering="inherit" font-size="12" dy=".8em" y="14.699985056358592" x="529.4999860375387">牛顿法（Newton Method）</text></g></g><g id="minder_node8" display="none"><g id="node_expander7" style="cursor: pointer;" display="none"><path id="kity_path_264" fill="white" stroke="gray" d="M545.4999856075488,22.49998487020806A6,6,0,1,1,533.4999856075488,22.49998487020806A6,6,0,1,1,545.4999856075488,22.49998487020806"></path><path id="kity_path_265" fill="none" stroke="gray" d="M534.9999856075488,22.49998487020806L543.9999856075488,22.49998487020806"></path></g><path id="node_outline8" fill="none" stroke="none" d="M545.4999856841773,13.499984870208067h205a5,5,0,0,1,5,5v8a5,5,0,0,1,-5,5h-205a5,5,0,0,1,-5,-5v-8a5,5,0,0,1,5,-5z"></path><g id="node_text8" fill="black"><text id="kity_text_127" text-rendering="inherit" font-size="12" dy=".8em" y="14.699985056358592" x="545.4999856841773">拟牛顿法（Quasi-Newton Method）</text></g></g><g id="minder_node9" display="none"><g id="node_expander4" style="cursor: pointer;" display="none"><path id="kity_path_255" fill="white" stroke="gray" d="M561.4999852541873,6.49998522356946A6,6,0,1,1,549.4999852541873,6.49998522356946A6,6,0,1,1,561.4999852541873,6.49998522356946"></path><path id="kity_path_256" fill="none" stroke="gray"></path></g><path id="node_outline5" fill="none" stroke="none" d="M561.4999853308159,-2.5000147764305325h23a5,5,0,0,1,5,5v8a5,5,0,0,1,-5,5h-23a5,5,0,0,1,-5,-5v-8a5,5,0,0,1,5,-5z"></path><g id="node_text5" fill="black"><text id="kity_text_121" text-rendering="inherit" font-size="12" dy=".8em" y="-1.300014590280007" x="561.4999853308159">DFP</text></g></g><g id="minder_node10" display="none"><g id="node_expander5" style="cursor: pointer;" display="none"><path id="kity_path_258" fill="white" stroke="gray" d="M561.4999852541873,14.499985046888746A6,6,0,1,1,549.4999852541873,14.499985046888746A6,6,0,1,1,561.4999852541873,14.499985046888746"></path><path id="kity_path_259" fill="none" stroke="gray"></path></g><path id="node_outline6" fill="none" stroke="none" d="M561.4999853308159,5.499985046888753h30a5,5,0,0,1,5,5v8a5,5,0,0,1,-5,5h-30a5,5,0,0,1,-5,-5v-8a5,5,0,0,1,5,-5z"></path><g id="node_text6" fill="black"><text id="kity_text_123" text-rendering="inherit" font-size="12" dy=".8em" y="6.699985233039278" x="561.4999853308159">BFGS</text></g></g><g id="minder_node11" display="none"><g id="node_expander6" style="cursor: pointer;" display="none"><path id="kity_path_261" fill="white" stroke="gray" d="M561.4999852541873,22.49998487020806A6,6,0,1,1,549.4999852541873,22.49998487020806A6,6,0,1,1,561.4999852541873,22.49998487020806"></path><path id="kity_path_262" fill="none" stroke="gray"></path></g><path id="node_outline7" fill="none" stroke="none" d="M561.4999853308159,13.499984870208067h41a5,5,0,0,1,5,5v8a5,5,0,0,1,-5,5h-41a5,5,0,0,1,-5,-5v-8a5,5,0,0,1,5,-5z"></path><g id="node_text7" fill="black"><text id="kity_text_125" text-rendering="inherit" font-size="12" dy=".8em" y="14.699985056358592" x="561.4999853308159">L-BFGS</text></g></g><g id="minder_node12" display="none"><g id="node_expander10" style="cursor: pointer;" display="none"><path id="kity_path_273" fill="white" stroke="gray" d="M529.4999859609102,30.499984693527317A6,6,0,1,1,517.4999859609102,30.499984693527317A6,6,0,1,1,529.4999859609102,30.499984693527317"></path><path id="kity_path_274" fill="none" stroke="gray" d="M518.9999859609102,30.499984693527317L527.9999859609102,30.499984693527317"></path></g><path id="node_outline11" fill="none" stroke="none" d="M529.4999860375387,21.499984693527324h152a5,5,0,0,1,5,5v8a5,5,0,0,1,-5,5h-152a5,5,0,0,1,-5,-5v-8a5,5,0,0,1,5,-5z"></path><g id="node_text11" fill="black"><text id="kity_text_133" text-rendering="inherit" font-size="12" dy=".8em" y="22.69998487967785" x="529.4999860375387">回归树（Regression Tree）</text></g></g><g id="minder_node13" display="none"><g id="node_expander9" style="cursor: pointer;" display="none"><path id="kity_path_270" fill="white" stroke="gray" d="M545.4999856075488,30.499984693527317A6,6,0,1,1,533.4999856075488,30.499984693527317A6,6,0,1,1,545.4999856075488,30.499984693527317"></path><path id="kity_path_271" fill="none" stroke="gray"></path></g><path id="node_outline10" fill="none" stroke="none" d="M545.4999856841773,21.499984693527324h283a5,5,0,0,1,5,5v8a5,5,0,0,1,-5,5h-283a5,5,0,0,1,-5,-5v-8a5,5,0,0,1,5,-5z"></path><g id="node_text10" fill="black"><text id="kity_text_131" text-rendering="inherit" font-size="12" dy=".8em" y="22.69998487967785" x="545.4999856841773">最小二乘回归树（Least Squares Regression Tree）</text></g></g><g id="minder_node14"><g id="node_expander26" style="cursor: pointer;"><path id="kity_path_321" fill="white" stroke="gray" d="M392.499989091137,121.49998268378422A6,6,0,1,1,380.499989091137,121.49998268378422A6,6,0,1,1,392.499989091137,121.49998268378422"></path><path id="kity_path_322" fill="none" stroke="gray" d="M381.999989091137,121.49998268378422L390.999989091137,121.49998268378422"></path></g><path id="node_outline27" fill="none" stroke="none" d="M397.4999889527706,112.49998268378422h124a5,5,0,0,1,5,5v8a5,5,0,0,1,-5,5h-124a5,5,0,0,1,-5,-5v-8a5,5,0,0,1,5,-5z" stroke-width="3"></path><g id="node_text27" fill="black"><text id="kity_text_165" text-rendering="inherit" font-size="12" dy=".8em" y="113.69998286993476" x="397.4999889527706">分类（Classification）</text></g></g><g id="minder_node15"><g id="node_expander12" style="cursor: pointer;"><path id="kity_path_279" fill="white" stroke="gray" d="M542.4999857783737,56.49998411931502A6,6,0,1,1,530.4999857783737,56.49998411931502A6,6,0,1,1,542.4999857783737,56.49998411931502"></path><path id="kity_path_280" fill="none" stroke="gray" d="M531.9999857783737,56.49998411931502L540.9999857783737,56.49998411931502"></path></g><path id="node_outline13" fill="none" stroke="none" d="M547.4999856400073,47.49998411931503h183a5,5,0,0,1,5,5v8a5,5,0,0,1,-5,5h-183a5,5,0,0,1,-5,-5v-8a5,5,0,0,1,5,-5z" stroke-width="3"></path><g id="node_text13" fill="black"><text id="kity_text_137" text-rendering="inherit" font-size="12" dy=".8em" y="48.699984305465556" x="547.4999856400073">逻辑回归（Logistic Regression）</text></g></g><g id="minder_node16"><g id="node_expander14" style="cursor: pointer;"><path id="kity_path_285" fill="white" stroke="gray" d="M542.4999857783737,82.49998354510271A6,6,0,1,1,530.4999857783737,82.49998354510271A6,6,0,1,1,542.4999857783737,82.49998354510271"></path><path id="kity_path_286" fill="none" stroke="gray" d="M531.9999857783737,82.49998354510271L540.9999857783737,82.49998354510271M536.4999857783737,77.99998354510271L536.4999857783737,86.99998354510271"></path></g><path id="node_outline15" fill="none" stroke="none" d="M547.4999856400073,73.49998354510271h164a5,5,0,0,1,5,5v8a5,5,0,0,1,-5,5h-164a5,5,0,0,1,-5,-5v-8a5,5,0,0,1,5,-5z" stroke-width="3"></path><g id="node_text15" fill="black"><text id="kity_text_141" text-rendering="inherit" font-size="12" dy=".8em" y="74.69998373125324" x="547.4999856400073">神经网络（Neural Network）</text></g></g><g id="minder_node17" display="none"><g id="node_expander13" style="cursor: pointer;" display="none"><path id="kity_path_282" fill="white" stroke="gray" d="M732.499981477637,82.49998354510271A6,6,0,1,1,720.499981477637,82.49998354510271A6,6,0,1,1,732.499981477637,82.49998354510271"></path><path id="kity_path_283" fill="none" stroke="gray"></path></g><path id="node_outline14" fill="none" stroke="none" d="M732.4999815542656,73.49998354510271h301a5,5,0,0,1,5,5v8a5,5,0,0,1,-5,5h-301a5,5,0,0,1,-5,-5v-8a5,5,0,0,1,5,-5z"></path><g id="node_text14" fill="black"><text id="kity_text_139" text-rendering="inherit" font-size="12" dy=".8em" y="74.69998373125324" x="732.4999815542656">前馈神经网络（Feedforward Neural Network，FNN）</text></g></g><g id="minder_node18"><g id="node_expander16" style="cursor: pointer;"><path id="kity_path_291" fill="white" stroke="gray" d="M542.4999857783737,108.49998297089039A6,6,0,1,1,530.4999857783737,108.49998297089039A6,6,0,1,1,542.4999857783737,108.49998297089039"></path><path id="kity_path_292" fill="none" stroke="gray" d="M531.9999857783737,108.49998297089039L540.9999857783737,108.49998297089039M536.4999857783737,103.99998297089039L536.4999857783737,112.99998297089039"></path></g><path id="node_outline17" fill="none" stroke="none" d="M547.4999856400073,99.49998297089039h225a5,5,0,0,1,5,5v8a5,5,0,0,1,-5,5h-225a5,5,0,0,1,-5,-5v-8a5,5,0,0,1,5,-5z" stroke-width="3"></path><g id="node_text17" fill="black"><text id="kity_text_145" text-rendering="inherit" font-size="12" dy=".8em" y="100.69998315704092" x="547.4999856400073">支持向量机（Support Vector Machine）</text></g></g><g id="minder_node19" display="none"><g id="node_expander15" style="cursor: pointer;" display="none"><path id="kity_path_288" fill="white" stroke="gray" d="M793.4999801304466,108.49998297089039A6,6,0,1,1,781.4999801304466,108.49998297089039A6,6,0,1,1,793.4999801304466,108.49998297089039"></path><path id="kity_path_289" fill="none" stroke="gray"></path></g><path id="node_outline16" fill="none" stroke="none" d="M793.4999802070752,99.49998297089039h326a5,5,0,0,1,5,5v8a5,5,0,0,1,-5,5h-326a5,5,0,0,1,-5,-5v-8a5,5,0,0,1,5,-5z"></path><g id="node_text16" fill="black"><text id="kity_text_143" text-rendering="inherit" font-size="12" dy=".8em" y="100.69998315704092" x="793.4999802070752">序列最小优化（Sequential Minimal Optimization，SMO）</text></g></g><g id="minder_node20"><g id="node_expander17" style="cursor: pointer;" display="none"><path id="kity_path_294" fill="white" stroke="gray" d="M542.4999857783737,134.49998239667806A6,6,0,1,1,530.4999857783737,134.49998239667806A6,6,0,1,1,542.4999857783737,134.49998239667806"></path><path id="kity_path_295" fill="none" stroke="gray"></path></g><path id="node_outline18" fill="none" stroke="none" d="M547.4999856400073,125.49998239667806h176a5,5,0,0,1,5,5v8a5,5,0,0,1,-5,5h-176a5,5,0,0,1,-5,-5v-8a5,5,0,0,1,5,-5z" stroke-width="3"></path><g id="node_text18" fill="black"><text id="kity_text_147" text-rendering="inherit" font-size="12" dy=".8em" y="126.6999825828286" x="547.4999856400073">K-近邻（K-Nearest Neighbor）</text></g></g><g id="minder_node21"><g id="node_expander24" style="cursor: pointer;"><path id="kity_path_315" fill="white" stroke="gray" d="M542.4999857783737,160.49998182246574A6,6,0,1,1,530.4999857783737,160.49998182246574A6,6,0,1,1,542.4999857783737,160.49998182246574"></path><path id="kity_path_316" fill="none" stroke="gray" d="M531.9999857783737,160.49998182246574L540.9999857783737,160.49998182246574M536.4999857783737,155.99998182246574L536.4999857783737,164.99998182246574"></path></g><path id="node_outline25" fill="none" stroke="none" d="M547.4999856400073,151.49998182246574h138a5,5,0,0,1,5,5v8a5,5,0,0,1,-5,5h-138a5,5,0,0,1,-5,-5v-8a5,5,0,0,1,5,-5z" stroke-width="3"></path><g id="node_text25" fill="black"><text id="kity_text_161" text-rendering="inherit" font-size="12" dy=".8em" y="152.69998200861627" x="547.4999856400073">决策树（Decision Tree）</text></g></g><g id="minder_node22" display="none"><g id="node_expander19" style="cursor: pointer;" display="none"><path id="kity_path_300" fill="white" stroke="gray" d="M706.4999820518494,144.49998217582717A6,6,0,1,1,694.4999820518494,144.49998217582717A6,6,0,1,1,706.4999820518494,144.49998217582717"></path><path id="kity_path_301" fill="none" stroke="gray" d="M695.9999820518494,144.49998217582717L704.9999820518494,144.49998217582717"></path></g><path id="node_outline20" fill="none" stroke="none" d="M706.499982128478,135.49998217582717h20a5,5,0,0,1,5,5v8a5,5,0,0,1,-5,5h-20a5,5,0,0,1,-5,-5v-8a5,5,0,0,1,5,-5z"></path><g id="node_text20" fill="black"><text id="kity_text_151" text-rendering="inherit" font-size="12" dy=".8em" y="136.6999823619777" x="706.499982128478">ID3</text></g></g><g id="minder_node23" display="none"><g id="node_expander18" style="cursor: pointer;" display="none"><path id="kity_path_297" fill="white" stroke="gray" d="M722.499981698488,144.49998217582717A6,6,0,1,1,710.499981698488,144.49998217582717A6,6,0,1,1,722.499981698488,144.49998217582717"></path><path id="kity_path_298" fill="none" stroke="gray"></path></g><path id="node_outline19" fill="none" stroke="none" d="M722.4999817751166,135.49998217582717h170a5,5,0,0,1,5,5v8a5,5,0,0,1,-5,5h-170a5,5,0,0,1,-5,-5v-8a5,5,0,0,1,5,-5z"></path><g id="node_text19" fill="black"><text id="kity_text_149" text-rendering="inherit" font-size="12" dy=".8em" y="136.6999823619777" x="722.4999817751166">信息增益（Information Gain）</text></g></g><g id="minder_node24" display="none"><g id="node_expander21" style="cursor: pointer;" display="none"><path id="kity_path_306" fill="white" stroke="gray" d="M706.4999820518494,152.49998199914646A6,6,0,1,1,694.4999820518494,152.49998199914646A6,6,0,1,1,706.4999820518494,152.49998199914646"></path><path id="kity_path_307" fill="none" stroke="gray" d="M695.9999820518494,152.49998199914646L704.9999820518494,152.49998199914646"></path></g><path id="node_outline22" fill="none" stroke="none" d="M706.499982128478,143.49998199914646h25a5,5,0,0,1,5,5v8a5,5,0,0,1,-5,5h-25a5,5,0,0,1,-5,-5v-8a5,5,0,0,1,5,-5z"></path><g id="node_text22" fill="black"><text id="kity_text_155" text-rendering="inherit" font-size="12" dy=".8em" y="144.699982185297" x="706.499982128478">C4.5</text></g></g><g id="minder_node25" display="none"><g id="node_expander20" style="cursor: pointer;" display="none"><path id="kity_path_303" fill="white" stroke="gray" d="M722.499981698488,152.49998199914646A6,6,0,1,1,710.499981698488,152.49998199914646A6,6,0,1,1,722.499981698488,152.49998199914646"></path><path id="kity_path_304" fill="none" stroke="gray"></path></g><path id="node_outline21" fill="none" stroke="none" d="M722.4999817751166,143.49998199914646h120a5,5,0,0,1,5,5v8a5,5,0,0,1,-5,5h-120a5,5,0,0,1,-5,-5v-8a5,5,0,0,1,5,-5z"></path><g id="node_text21" fill="black"><text id="kity_text_153" text-rendering="inherit" font-size="12" dy=".8em" y="144.699982185297" x="722.4999817751166">增益率（Gain Ratio）</text></g></g><g id="minder_node26" display="none"><g id="node_expander23" style="cursor: pointer;" display="none"><path id="kity_path_312" fill="white" stroke="gray" d="M706.4999820518494,160.49998182246574A6,6,0,1,1,694.4999820518494,160.49998182246574A6,6,0,1,1,706.4999820518494,160.49998182246574"></path><path id="kity_path_313" fill="none" stroke="gray" d="M695.9999820518494,160.49998182246574L704.9999820518494,160.49998182246574"></path></g><path id="node_outline24" fill="none" stroke="none" d="M706.499982128478,151.49998182246574h32a5,5,0,0,1,5,5v8a5,5,0,0,1,-5,5h-32a5,5,0,0,1,-5,-5v-8a5,5,0,0,1,5,-5z"></path><g id="node_text24" fill="black"><text id="kity_text_159" text-rendering="inherit" font-size="12" dy=".8em" y="152.69998200861627" x="706.499982128478">CART</text></g></g><g id="minder_node27" display="none"><g id="node_expander22" style="cursor: pointer;" display="none"><path id="kity_path_309" fill="white" stroke="gray" d="M722.499981698488,160.49998182246574A6,6,0,1,1,710.499981698488,160.49998182246574A6,6,0,1,1,722.499981698488,160.49998182246574"></path><path id="kity_path_310" fill="none" stroke="gray"></path></g><path id="node_outline23" fill="none" stroke="none" d="M722.4999817751166,151.49998182246574h131a5,5,0,0,1,5,5v8a5,5,0,0,1,-5,5h-131a5,5,0,0,1,-5,-5v-8a5,5,0,0,1,5,-5z"></path><g id="node_text23" fill="black"><text id="kity_text_157" text-rendering="inherit" font-size="12" dy=".8em" y="152.69998200861627" x="722.4999817751166">基尼系数（Gini Index）</text></g></g><g id="minder_node28"><g id="node_expander25" style="cursor: pointer;" display="none"><path id="kity_path_318" fill="white" stroke="gray" d="M542.4999857783737,186.49998124825342A6,6,0,1,1,530.4999857783737,186.49998124825342A6,6,0,1,1,542.4999857783737,186.49998124825342"></path><path id="kity_path_319" fill="none" stroke="gray"></path></g><path id="node_outline26" fill="none" stroke="none" d="M547.4999856400073,177.49998124825342h171a5,5,0,0,1,5,5v8a5,5,0,0,1,-5,5h-171a5,5,0,0,1,-5,-5v-8a5,5,0,0,1,5,-5z" stroke-width="3"></path><g id="node_text26" fill="black"><text id="kity_text_163" text-rendering="inherit" font-size="12" dy=".8em" y="178.69998143440395" x="547.4999856400073">朴素贝叶斯（Naive Bayesian）</text></g></g><g id="minder_node29"><g id="node_expander32" style="cursor: pointer;"><path id="kity_path_339" fill="white" stroke="gray" d="M199.49999419011567,234.9999801771266A6,6,0,1,1,187.49999419011567,234.9999801771266A6,6,0,1,1,199.49999419011567,234.9999801771266"></path><path id="kity_path_340" fill="none" stroke="gray" d="M188.99999419011567,234.9999801771266L197.99999419011567,234.9999801771266M193.49999419011567,230.4999801771266L193.49999419011567,239.4999801771266"></path></g><path id="node_outline33" fill="rgb(238, 243, 246)" stroke="rgb(115, 161, 191)" d="M203.4999928618314,211.49998018816913h187a3,3,0,0,1,3,3v41a3,3,0,0,1,-3,3h-187a3,3,0,0,1,-3,-3v-41a3,3,0,0,1,3,-3z" stroke-width="1"></path><g id="node_text33" fill="black"><text id="kity_text_178" text-rendering="inherit" font-size="14" dy=".8em" y="214.89998037048824" x="220.4999928618314">无监督学习</text><text id="kity_text_179" text-rendering="inherit" font-size="14" dy=".8em" y="235.89998037048824" x="220.4999928618314">Unsupervised Learning</text></g></g><g id="minder_node30" display="none"><g id="node_expander29" style="cursor: pointer;" display="none"><path id="kity_path_330" fill="white" stroke="gray" d="M409.49998861112095,227.49998034276476A6,6,0,1,1,397.49998861112095,227.49998034276476A6,6,0,1,1,409.49998861112095,227.49998034276476"></path><path id="kity_path_331" fill="none" stroke="gray" d="M398.99998861112095,227.49998034276476L407.99998861112095,227.49998034276476"></path></g><path id="node_outline30" fill="none" stroke="none" d="M409.4999886877495,218.49998034276476h107a5,5,0,0,1,5,5v8a5,5,0,0,1,-5,5h-107a5,5,0,0,1,-5,-5v-8a5,5,0,0,1,5,-5z"></path><g id="node_text30" fill="black"><text id="kity_text_172" text-rendering="inherit" font-size="12" dy=".8em" y="219.6999805289153" x="409.4999886877495">聚类（Clustering）</text></g></g><g id="minder_node31" display="none"><g id="node_expander28" style="cursor: pointer;" display="none"><path id="kity_path_327" fill="white" stroke="gray" d="M425.4999882577595,227.49998034276476A6,6,0,1,1,413.4999882577595,227.49998034276476A6,6,0,1,1,425.4999882577595,227.49998034276476"></path><path id="kity_path_328" fill="none" stroke="gray"></path></g><path id="node_outline29" fill="none" stroke="none" d="M425.4999883343881,218.49998034276476h112a5,5,0,0,1,5,5v8a5,5,0,0,1,-5,5h-112a5,5,0,0,1,-5,-5v-8a5,5,0,0,1,5,-5z"></path><g id="node_text29" fill="black"><text id="kity_text_170" text-rendering="inherit" font-size="12" dy=".8em" y="219.6999805289153" x="425.4999883343881">K-均值（K-Means）</text></g></g><g id="minder_node32" display="none"><g id="node_expander31" style="cursor: pointer;" display="none"><path id="kity_path_336" fill="white" stroke="gray" d="M409.49998861112095,235.49998016608404A6,6,0,1,1,397.49998861112095,235.49998016608404A6,6,0,1,1,409.49998861112095,235.49998016608404"></path><path id="kity_path_337" fill="none" stroke="gray" d="M398.99998861112095,235.49998016608404L407.99998861112095,235.49998016608404"></path></g><path id="node_outline32" fill="none" stroke="none" d="M409.4999886877495,226.49998016608404h195a5,5,0,0,1,5,5v8a5,5,0,0,1,-5,5h-195a5,5,0,0,1,-5,-5v-8a5,5,0,0,1,5,-5z"></path><g id="node_text32" fill="black"><text id="kity_text_176" text-rendering="inherit" font-size="12" dy=".8em" y="227.69998035223458" x="409.4999886877495">降维（Dimensionality Reduction）</text></g></g><g id="minder_node33" display="none"><g id="node_expander30" style="cursor: pointer;" display="none"><path id="kity_path_333" fill="white" stroke="gray" d="M425.4999882577595,235.49998016608404A6,6,0,1,1,413.4999882577595,235.49998016608404A6,6,0,1,1,425.4999882577595,235.49998016608404"></path><path id="kity_path_334" fill="none" stroke="gray"></path></g><path id="node_outline31" fill="none" stroke="none" d="M425.4999883343881,226.49998016608404h267a5,5,0,0,1,5,5v8a5,5,0,0,1,-5,5h-267a5,5,0,0,1,-5,-5v-8a5,5,0,0,1,5,-5z"></path><g id="node_text31" fill="black"><text id="kity_text_174" text-rendering="inherit" font-size="12" dy=".8em" y="227.69998035223458" x="425.4999883343881">主成分分析法（Principal Component Analysis）</text></g></g><g id="minder_node34"><g id="node_expander41" style="cursor: pointer;"><path id="kity_path_366" fill="white" stroke="gray" d="M199.49999419011567,297.9999787857659A6,6,0,1,1,187.49999419011567,297.9999787857659A6,6,0,1,1,199.49999419011567,297.9999787857659"></path><path id="kity_path_367" fill="none" stroke="gray" d="M188.99999419011567,297.9999787857659L197.99999419011567,297.9999787857659M193.49999419011567,293.4999787857659L193.49999419011567,302.4999787857659"></path></g><path id="node_outline42" fill="rgb(238, 243, 246)" stroke="rgb(115, 161, 191)" d="M203.4999928618314,274.4999787968085h161a3,3,0,0,1,3,3v41a3,3,0,0,1,-3,3h-161a3,3,0,0,1,-3,-3v-41a3,3,0,0,1,3,-3z" stroke-width="1"></path><g id="node_text42" fill="black"><text id="kity_text_197" text-rendering="inherit" font-size="14" dy=".8em" y="277.8999789791276" x="220.4999928618314">集成学习</text><text id="kity_text_198" text-rendering="inherit" font-size="14" dy=".8em" y="298.8999789791276" x="220.4999928618314">Ensemble Learning</text></g></g><g id="minder_node35" display="none"><g id="node_expander34" style="cursor: pointer;" display="none"><path id="kity_path_345" fill="white" stroke="gray" d="M383.49998918533333,282.4999791280848A6,6,0,1,1,371.49998918533333,282.4999791280848A6,6,0,1,1,383.49998918533333,282.4999791280848"></path><path id="kity_path_346" fill="none" stroke="gray" d="M372.99998918533333,282.4999791280848L381.99998918533333,282.4999791280848"></path></g><path id="node_outline35" fill="none" stroke="none" d="M383.4999892619619,273.4999791280848h48a5,5,0,0,1,5,5v8a5,5,0,0,1,-5,5h-48a5,5,0,0,1,-5,-5v-8a5,5,0,0,1,5,-5z"></path><g id="node_text35" fill="black"><text id="kity_text_183" text-rendering="inherit" font-size="12" dy=".8em" y="274.69997931423535" x="383.4999892619619">Bagging</text></g></g><g id="minder_node36" display="none"><g id="node_expander33" style="cursor: pointer;" display="none"><path id="kity_path_342" fill="white" stroke="gray" d="M399.49998883197185,282.4999791280848A6,6,0,1,1,387.49998883197185,282.4999791280848A6,6,0,1,1,399.49998883197185,282.4999791280848"></path><path id="kity_path_343" fill="none" stroke="gray"></path></g><path id="node_outline34" fill="none" stroke="none" d="M399.4999889086004,273.4999791280848h159a5,5,0,0,1,5,5v8a5,5,0,0,1,-5,5h-159a5,5,0,0,1,-5,-5v-8a5,5,0,0,1,5,-5z"></path><g id="node_text34" fill="black"><text id="kity_text_181" text-rendering="inherit" font-size="12" dy=".8em" y="274.69997931423535" x="399.4999889086004">随机森林（Random Forest）</text></g></g><g id="minder_node37" display="none"><g id="node_expander39" style="cursor: pointer;" display="none"><path id="kity_path_360" fill="white" stroke="gray" d="M383.49998918533333,290.49997895140416A6,6,0,1,1,371.49998918533333,290.49997895140416A6,6,0,1,1,383.49998918533333,290.49997895140416"></path><path id="kity_path_361" fill="none" stroke="gray" d="M372.99998918533333,290.49997895140416L381.99998918533333,290.49997895140416"></path></g><path id="node_outline40" fill="none" stroke="none" d="M383.4999892619619,281.49997895140416h51a5,5,0,0,1,5,5v8a5,5,0,0,1,-5,5h-51a5,5,0,0,1,-5,-5v-8a5,5,0,0,1,5,-5z"></path><g id="node_text40" fill="black"><text id="kity_text_193" text-rendering="inherit" font-size="12" dy=".8em" y="282.6999791375547" x="383.4999892619619">Boosting</text></g></g><g id="minder_node38" display="none"><g id="node_expander35" style="cursor: pointer;" display="none"><path id="kity_path_348" fill="white" stroke="gray" d="M399.49998883197185,274.49997930476553A6,6,0,1,1,387.49998883197185,274.49997930476553A6,6,0,1,1,399.49998883197185,274.49997930476553"></path><path id="kity_path_349" fill="none" stroke="gray"></path></g><path id="node_outline36" fill="none" stroke="none" d="M399.4999889086004,265.49997930476553h57a5,5,0,0,1,5,5v8a5,5,0,0,1,-5,5h-57a5,5,0,0,1,-5,-5v-8a5,5,0,0,1,5,-5z"></path><g id="node_text36" fill="black"><text id="kity_text_185" text-rendering="inherit" font-size="12" dy=".8em" y="266.69997949091606" x="399.4999889086004">AdaBoost</text></g></g><g id="minder_node39" display="none"><g id="node_expander37" style="cursor: pointer;" display="none"><path id="kity_path_354" fill="white" stroke="gray" d="M399.49998883197185,282.4999791280848A6,6,0,1,1,387.49998883197185,282.4999791280848A6,6,0,1,1,399.49998883197185,282.4999791280848"></path><path id="kity_path_355" fill="none" stroke="gray" d="M388.99998883197185,282.4999791280848L397.99998883197185,282.4999791280848"></path></g><path id="node_outline38" fill="none" stroke="none" d="M399.4999889086004,273.4999791280848h315a5,5,0,0,1,5,5v8a5,5,0,0,1,-5,5h-315a5,5,0,0,1,-5,-5v-8a5,5,0,0,1,5,-5z"></path><g id="node_text38" fill="black"><text id="kity_text_189" text-rendering="inherit" font-size="12" dy=".8em" y="274.69997931423535" x="399.4999889086004">梯度提升树（Gradient Boosting Decision Tree，GBDT）</text></g></g><g id="minder_node40" display="none"><g id="node_expander36" style="cursor: pointer;" display="none"><path id="kity_path_351" fill="white" stroke="gray" d="M415.4999884786104,282.4999791280848A6,6,0,1,1,403.4999884786104,282.4999791280848A6,6,0,1,1,415.4999884786104,282.4999791280848"></path><path id="kity_path_352" fill="none" stroke="gray"></path></g><path id="node_outline37" fill="none" stroke="none" d="M415.499988555239,273.4999791280848h265a5,5,0,0,1,5,5v8a5,5,0,0,1,-5,5h-265a5,5,0,0,1,-5,-5v-8a5,5,0,0,1,5,-5z"></path><g id="node_text37" fill="black"><text id="kity_text_187" text-rendering="inherit" font-size="12" dy=".8em" y="274.69997931423535" x="415.499988555239">前向分布算法（Forward Stagewise Algorithm）</text></g></g><g id="minder_node41" display="none"><g id="node_expander38" style="cursor: pointer;" display="none"><path id="kity_path_357" fill="white" stroke="gray" d="M399.49998883197185,290.49997895140416A6,6,0,1,1,387.49998883197185,290.49997895140416A6,6,0,1,1,399.49998883197185,290.49997895140416"></path><path id="kity_path_358" fill="none" stroke="gray"></path></g><path id="node_outline39" fill="none" stroke="none" d="M399.4999889086004,281.49997895140416h50a5,5,0,0,1,5,5v8a5,5,0,0,1,-5,5h-50a5,5,0,0,1,-5,-5v-8a5,5,0,0,1,5,-5z"></path><g id="node_text39" fill="black"><text id="kity_text_191" text-rendering="inherit" font-size="12" dy=".8em" y="282.6999791375547" x="399.4999889086004">XgBoost</text></g></g><g id="minder_node42" display="none"><g id="node_expander40" style="cursor: pointer;" display="none"><path id="kity_path_363" fill="white" stroke="gray" d="M383.49998918533333,298.4999787747234A6,6,0,1,1,371.49998918533333,298.4999787747234A6,6,0,1,1,383.49998918533333,298.4999787747234"></path><path id="kity_path_364" fill="none" stroke="gray"></path></g><path id="node_outline41" fill="none" stroke="none" d="M383.4999892619619,289.4999787747234h49a5,5,0,0,1,5,5v8a5,5,0,0,1,-5,5h-49a5,5,0,0,1,-5,-5v-8a5,5,0,0,1,5,-5z"></path><g id="node_text41" fill="black"><text id="kity_text_195" text-rendering="inherit" font-size="12" dy=".8em" y="290.6999789608739" x="383.4999892619619">Stacking</text></g></g><g id="minder_node43"><g id="node_expander42" style="cursor: pointer;" display="none"><path id="kity_path_369" fill="white" stroke="gray" d="M199.49999419011567,360.9999773944053A6,6,0,1,1,187.49999419011567,360.9999773944053A6,6,0,1,1,199.49999419011567,360.9999773944053"></path><path id="kity_path_370" fill="none" stroke="gray"></path></g><path id="node_outline43" fill="rgb(238, 243, 246)" stroke="rgb(115, 161, 191)" d="M203.4999928618314,337.49997740544785h195a3,3,0,0,1,3,3v41a3,3,0,0,1,-3,3h-195a3,3,0,0,1,-3,-3v-41a3,3,0,0,1,3,-3z" stroke-width="1"></path><g id="node_text43" fill="black"><text id="kity_text_200" text-rendering="inherit" font-size="14" dy=".8em" y="340.89997758776695" x="220.4999928618314">强化学习</text><text id="kity_text_201" text-rendering="inherit" font-size="14" dy=".8em" y="361.89997758776695" x="220.4999928618314">Reinforcement Learning</text></g></g><g id="minder_node44"><g id="node_expander43" style="cursor: pointer;" display="none"><path id="kity_path_377" fill="white" stroke="gray" d="M751.4999811625898,56.49998411931502A6,6,0,1,1,739.4999811625898,56.49998411931502A6,6,0,1,1,751.4999811625898,56.49998411931502"></path><path id="kity_path_378" fill="none" stroke="gray"></path></g><path id="node_outline44" fill="none" stroke="none" d="M756.4999810242234,47.49998411931503h140a5,5,0,0,1,5,5v8a5,5,0,0,1,-5,5h-140a5,5,0,0,1,-5,-5v-8a5,5,0,0,1,5,-5z" stroke-width="3"></path><g id="node_text44" fill="black"><text id="kity_text_374" text-rendering="inherit" font-size="12" dy=".8em" y="48.699984305465556" x="756.4999810242234">交叉熵（Cross Entropy）</text></g></g></g></g></svg>