<svg width="538" height="361" xmlns="http://www.w3.org/2000/svg" xmlns:xlink="http://www.w3.org/1999/xlink" overflow="hidden"><defs><clipPath id="clip0"><path d="M340 173 878 173 878 534 340 534Z" fill-rule="evenodd" clip-rule="evenodd"/></clipPath></defs><g clip-path="url(#clip0)" transform="translate(-340 -173)"><path d="M341 353C341 333.118 357.118 317 377 317 396.882 317 413 333.118 413 353 413 372.882 396.882 389 377 389 357.118 389 341 372.882 341 353Z" fill="#8FAADC" fill-rule="evenodd"/><text fill="#FFFFFF" font-family="Cambria Math,Cambria Math_MSFontService,sans-serif" font-weight="400" font-size="24" transform="translate(362.156 361)">𝑥<tspan font-size="18" x="12.0467" y="5">1</tspan></text><path d="M341 497C341 477.118 357.118 461 377 461 396.882 461 413 477.118 413 497 413 516.882 396.882 533 377 533 357.118 533 341 516.882 341 497Z" fill="#8FAADC" fill-rule="evenodd"/><text fill="#FFFFFF" font-family="Cambria Math,Cambria Math_MSFontService,sans-serif" font-weight="400" font-size="24" transform="translate(361.88 505)">𝑥<tspan font-size="18" x="12.6" y="5">2</tspan></text><path d="M661 425C661 405.118 677.118 389 697 389 716.882 389 733 405.118 733 425 733 444.882 716.882 461 697 461 677.118 461 661 444.882 661 425Z" fill="#F4B183" fill-rule="evenodd"/><text fill="#FFFFFF" font-family="Cambria Math,Cambria Math_MSFontService,sans-serif" font-weight="400" font-size="24" transform="translate(670.024 433)">𝑔<tspan x="15.08" y="0">(</tspan>𝑧<tspan x="37.16" y="0">)</tspan></text><path d="M413.64 353.02 655.082 423.16 654.803 424.12 413.361 353.98ZM654.778 419.427 661.345 425.5 652.546 427.109Z" fill="#4472C4"/><path d="M0.139486-0.48015 241.582 69.6601 241.303 70.6204-0.139486 0.48015ZM241.278 65.927 247.845 72 239.046 73.6094Z" fill="#4472C4" transform="matrix(1 0 0 -1 413.5 497.5)"/><text font-family="Cambria Math,Cambria Math_MSFontService,sans-serif" font-weight="400" font-size="24" transform="translate(496.293 408)">𝜃<tspan font-size="18" x="12.1" y="5">1</tspan><tspan x="-0.585388" y="91">𝜃</tspan><tspan font-size="18" x="12.0679" y="96">2</tspan></text><path d="M733.5 425 863.571 425 863.571 426 733.5 426ZM862.238 421.5 870.238 425.5 862.238 429.5Z" fill="#4472C4"/><text font-family="Cambria Math,Cambria Math_MSFontService,sans-serif" font-weight="400" font-size="24" transform="translate(775.038 416)">ℎ<tspan font-size="18" x="13.3333" y="5">𝜃</tspan><tspan x="26.0067" y="0">(</tspan>𝑥<tspan x="49.5667" y="0">)</tspan></text><path d="M341 209C341 189.118 357.118 173 377 173 396.882 173 413 189.118 413 209 413 228.882 396.882 245 377 245 357.118 245 341 228.882 341 209Z" fill="#B4C7E7" fill-rule="evenodd"/><text fill="#FFFFFF" font-family="Cambria Math,Cambria Math_MSFontService,sans-serif" font-weight="400" font-size="24" transform="translate(361.88 217)">𝑥<tspan font-size="18" x="12.6" y="5">0</tspan></text><path d="M413.829 209.123 656.647 420.743 655.99 421.497 413.172 209.877ZM657.942 417.228 661.345 425.5 652.686 423.259Z" fill="#4472C4"/><text font-family="Cambria Math,Cambria Math_MSFontService,sans-serif" font-weight="400" font-size="24" transform="translate(500.521 324)">𝜃<tspan font-size="18" x="12.6534" y="4">0</tspan></text></g></svg>