<svg width="759" height="476" xmlns="http://www.w3.org/2000/svg" xmlns:xlink="http://www.w3.org/1999/xlink" overflow="hidden"><defs><clipPath id="clip0"><path d="M250 121 1009 121 1009 597 250 597Z" fill-rule="evenodd" clip-rule="evenodd"/></clipPath></defs><g clip-path="url(#clip0)" transform="translate(-250 -121)"><path d="M291 158C291 138.118 307.118 122 327 122 346.882 122 363 138.118 363 158 363 177.882 346.882 194 327 194 307.118 194 291 177.882 291 158Z" fill="#8FAADC" fill-rule="evenodd"/><text fill="#FFFFFF" font-family="Cambria Math,Cambria Math_MSFontService,sans-serif" font-weight="400" font-size="24" transform="translate(311.824 165)">ğ‘¥<tspan font-size="18" x="12.0467" y="5">1</tspan></text><path d="M291 302C291 282.118 307.118 266 327 266 346.882 266 363 282.118 363 302 363 321.882 346.882 338 327 338 307.118 338 291 321.882 291 302Z" fill="#8FAADC" fill-rule="evenodd"/><text fill="#FFFFFF" font-family="Cambria Math,Cambria Math_MSFontService,sans-serif" font-weight="400" font-size="24" transform="translate(311.548 309)">ğ‘¥<tspan font-size="18" x="12.6" y="5">2</tspan></text><path d="M792 302C792 282.118 808.118 266 828 266 847.882 266 864 282.118 864 302 864 321.882 847.882 338 828 338 808.118 338 792 321.882 792 302Z" fill="#F4B183" fill-rule="evenodd"/><path d="M864.5 302 994.571 302 994.571 303 864.5 303ZM993.238 298.5 1001.24 302.5 993.238 306.5Z" fill="#4472C4"/><text font-family="Cambria Math,Cambria Math_MSFontService,sans-serif" font-weight="400" font-size="24" transform="translate(916.889 290)">â„<tspan font-size="18" x="13.3333" y="4">Î˜</tspan><tspan x="27.16" y="0">(</tspan>ğ‘¥<tspan x="50.72" y="0">)</tspan></text><path d="M291 446C291 426.118 307.118 410 327 410 346.882 410 363 426.118 363 446 363 465.882 346.882 482 327 482 307.118 482 291 465.882 291 446Z" fill="#8FAADC" fill-rule="evenodd"/><text fill="#FFFFFF" font-family="Cambria Math,Cambria Math_MSFontService,sans-serif" font-weight="400" font-size="24" transform="translate(312.131 453)">ğ‘¥<tspan font-size="18" x="12.6" y="5">3</tspan></text><path d="M527 158C527 138.118 543.118 122 563 122 582.882 122 599 138.118 599 158 599 177.882 582.882 194 563 194 543.118 194 527 177.882 527 158Z" fill="#C9C9C9" fill-rule="evenodd"/><text fill="#FFFFFF" font-family="Cambria Math,Cambria Math_MSFontService,sans-serif" font-weight="400" font-size="24" transform="translate(539.398 169)">ğ‘<tspan font-size="18" x="12.78" y="7">1</tspan><tspan font-size="18" x="13.92" y="-13">(</tspan><tspan font-size="18" x="21.2534" y="-13">2</tspan><tspan font-size="18" x="31.42" y="-13">)</tspan></text><path d="M527 302C527 282.118 543.118 266 563 266 582.882 266 599 282.118 599 302 599 321.882 582.882 338 563 338 543.118 338 527 321.882 527 302Z" fill="#C9C9C9" fill-rule="evenodd"/><text fill="#FFFFFF" font-family="Cambria Math,Cambria Math_MSFontService,sans-serif" font-weight="400" font-size="24" transform="translate(539.398 313)">ğ‘<tspan font-size="18" x="13.3334" y="7">2</tspan><tspan font-size="18" x="13.92" y="-13">(</tspan><tspan font-size="18" x="21.2534" y="-13">2</tspan><tspan font-size="18" x="31.42" y="-13">)</tspan></text><path d="M527 446C527 426.118 543.118 410 563 410 582.882 410 599 426.118 599 446 599 465.882 582.882 482 563 482 543.118 482 527 465.882 527 446Z" fill="#C9C9C9" fill-rule="evenodd"/><text fill="#FFFFFF" font-family="Cambria Math,Cambria Math_MSFontService,sans-serif" font-weight="400" font-size="24" transform="translate(539.398 456)">ğ‘<tspan font-size="18" x="13.3334" y="8">3</tspan><tspan font-size="18" x="13.92" y="-12">(</tspan><tspan font-size="18" x="21.2534" y="-12">2</tspan><tspan font-size="18" x="31.42" y="-12">)</tspan></text><path d="M363.5 158 520.677 158 520.677 159 363.5 159ZM519.344 154.5 527.344 158.5 519.344 162.5Z" fill="#4472C4"/><path d="M363.83 158.124 522.667 297.724 522.006 298.475 363.17 158.876ZM523.975 294.214 527.344 302.5 518.694 300.223Z" fill="#4472C4"/><path d="M363.935 158.253 524.482 440.459 523.613 440.953 363.065 158.747ZM526.865 437.569 527.344 446.5 519.911 441.524Z" fill="#4472C4"/><path d="M0.330078-0.375564 159.167 139.224 158.506 139.975-0.330078 0.375564ZM160.475 135.714 163.844 144 155.194 141.723Z" fill="#4472C4" transform="matrix(1 0 0 -1 363.5 302.5)"/><path d="M363.5 302 520.677 302 520.677 303 363.5 303ZM519.344 298.5 527.344 302.5 519.344 306.5Z" fill="#4472C4"/><path d="M363.83 302.125 522.667 441.724 522.006 442.475 363.17 302.876ZM523.975 438.214 527.344 446.5 518.694 444.223Z" fill="#4472C4"/><path d="M0.434972-0.246575 160.408 281.954 159.538 282.447-0.434972 0.246575ZM162.795 279.068 163.26 288 155.835 283.013Z" fill="#4472C4" transform="matrix(1 0 0 -1 363.5 446.5)"/><path d="M0.330742-0.374979 158.591 139.215 157.929 139.965-0.330742 0.374979ZM159.906 135.708 163.26 144 154.615 141.708Z" fill="#4472C4" transform="matrix(1 0 0 -1 363.5 446.5)"/><path d="M363.5 446 520.094 446 520.094 447 363.5 447ZM518.76 442.5 526.76 446.5 518.76 450.5Z" fill="#4472C4"/><path d="M599.799 158.099 787.622 298.115 787.024 298.916 599.201 158.901ZM788.645 294.512 792.668 302.5 783.863 300.926Z" fill="#4472C4"/><path d="M599.5 302 786.002 302 786.002 303 599.5 303ZM784.668 298.5 792.668 302.5 784.668 306.5Z" fill="#4472C4"/><path d="M0.298835-0.400871 188.122 139.614 187.524 140.416-0.298835 0.400871ZM189.145 136.012 193.168 144 184.363 142.426Z" fill="#4472C4" transform="matrix(1 0 0 -1 599.5 446.5)"/><text font-family="DengXian,DengXian_MSFontService,sans-serif" font-weight="400" font-size="21" transform="translate(294.678 552)">è¾“å…¥å±‚<tspan x="-19.1667" y="26">Input Layer</tspan><tspan x="235.84" y="0">éšè—å±‚</tspan><tspan x="207.094" y="26">Hidden Layer</tspan><tspan x="501.008" y="0">è¾“å‡ºå±‚</tspan><tspan x="472.928" y="26">O</tspan><tspan x="489.095" y="26">ut</tspan><tspan x="507.762" y="26">put Layer</tspan></text></g></svg>