<svg width="928" height="225" xmlns="http://www.w3.org/2000/svg" xmlns:xlink="http://www.w3.org/1999/xlink" overflow="hidden"><defs><clipPath id="clip0"><path d="M152 172 1080 172 1080 397 152 397Z" fill-rule="evenodd" clip-rule="evenodd"/></clipPath></defs><g clip-path="url(#clip0)" transform="translate(-152 -172)"><path d="M153 360C153 340.118 169.118 324 189 324 208.882 324 225 340.118 225 360 225 379.882 208.882 396 189 396 169.118 396 153 379.882 153 360Z" fill="#8FAADC" fill-rule="evenodd"/><text fill="#FFFFFF" font-family="Cambria Math,Cambria Math_MSFontService,sans-serif" font-weight="400" font-size="24" transform="translate(173.883 368)">𝑥<tspan font-size="18" x="12.0467" y="5">1</tspan></text><path d="M389 360C389 340.118 405.118 324 425 324 444.882 324 461 340.118 461 360 461 379.882 444.882 396 425 396 405.118 396 389 379.882 389 360Z" fill="#C9C9C9" fill-rule="evenodd"/><text fill="#FFFFFF" font-family="Cambria Math,Cambria Math_MSFontService,sans-serif" font-weight="400" font-size="24" transform="translate(401.456 371)">𝑎<tspan font-size="18" x="12.78" y="7">1</tspan><tspan font-size="18" x="13.92" y="-13">(</tspan><tspan font-size="18" x="21.2533" y="-13">2</tspan><tspan font-size="18" x="31.42" y="-13">)</tspan></text><path d="M225.5 360 382.677 360 382.677 361 225.5 361ZM381.344 356.5 389.344 360.5 381.344 364.5Z" fill="#4472C4"/><path d="M624 360C624 340.118 640.118 324 660 324 679.882 324 696 340.118 696 360 696 379.882 679.882 396 660 396 640.118 396 624 379.882 624 360Z" fill="#C9C9C9" fill-rule="evenodd"/><text fill="#FFFFFF" font-family="Cambria Math,Cambria Math_MSFontService,sans-serif" font-weight="400" font-size="24" transform="translate(637.3 371)">𝑎<tspan font-size="18" x="12.78" y="7">1</tspan><tspan font-size="18" x="13.92" y="-13">(</tspan><tspan font-size="18" x="21.2533" y="-13">3</tspan><tspan font-size="18" x="31.42" y="-13">)</tspan></text><path d="M860 360C860 340.118 876.118 324 896 324 915.882 324 932 340.118 932 360 932 379.882 915.882 396 896 396 876.118 396 860 379.882 860 360Z" fill="#F4B183" fill-rule="evenodd"/><text fill="#FFFFFF" font-family="Cambria Math,Cambria Math_MSFontService,sans-serif" font-weight="400" font-size="24" transform="translate(873.143 369)">𝑎<tspan font-size="18" x="13.92" y="-9">(</tspan><tspan font-size="18" x="21.2534" y="-9">4</tspan><tspan font-size="18" x="31.42" y="-9">)</tspan></text><path d="M932.5 360 1064.83 360 1064.83 361 932.5 361ZM1063.5 356.5 1071.5 360.5 1063.5 364.5Z" fill="#4472C4"/><text font-family="Cambria Math,Cambria Math_MSFontService,sans-serif" font-weight="400" font-size="24" transform="translate(973.859 348)">ℎ<tspan font-size="18" x="13.3333" y="5">Θ</tspan><tspan x="27.16" y="0">(</tspan>𝑥<tspan x="50.72" y="0">)</tspan></text><path d="M461.5 360 618.677 360 618.677 361 461.5 361ZM617.344 356.5 625.344 360.5 617.344 364.5Z" fill="#4472C4"/><path d="M696.5 360 853.677 360 853.677 361 696.5 361ZM852.344 356.5 860.344 360.5 852.344 364.5Z" fill="#4472C4"/><text font-family="Cambria Math,Cambria Math_MSFontService,sans-serif" font-weight="400" font-size="24" transform="translate(262.625 348)">Θ<tspan font-size="18" x="15.1133" y="8">1</tspan><tspan font-size="18" x="15.6667" y="-12">(</tspan><tspan font-size="18" x="23" y="-12">1</tspan><tspan font-size="18" x="33.1667" y="-12">)</tspan><tspan x="235.844" y="0">Θ</tspan><tspan font-size="18" x="250.957" y="8">1</tspan><tspan font-size="18" x="251.51" y="-12">(</tspan><tspan font-size="18" x="258.844" y="-12">2</tspan><tspan font-size="18" x="269.01" y="-12">)</tspan><tspan x="471.687" y="2">Θ</tspan><tspan font-size="18" x="486.801" y="9">1</tspan><tspan font-size="18" x="487.354" y="-11">(</tspan><tspan font-size="18" x="494.687" y="-11">3</tspan><tspan font-size="18" x="504.854" y="-11">)</tspan></text><path d="M153 208C153 188.118 169.118 172 189 172 208.882 172 225 188.118 225 208 225 227.882 208.882 244 189 244 169.118 244 153 227.882 153 208Z" fill="#9DC3E6" fill-rule="evenodd"/><text fill="#FFFFFF" font-family="Cambria Math,Cambria Math_MSFontService,sans-serif" font-weight="400" font-size="24" transform="translate(173.606 216)">𝑥<tspan font-size="18" x="12.6" y="5">0</tspan></text><path d="M225.793 208.095 394.782 330.495 394.195 331.305 225.207 208.905ZM395.755 326.879 399.888 334.811 391.062 333.358Z" fill="#4472C4"/><path d="M388 209C388 189.118 404.118 173 424 173 443.882 173 460 189.118 460 209 460 228.882 443.882 245 424 245 404.118 245 388 228.882 388 209Z" fill="#9DC3E6" fill-rule="evenodd"/><text fill="#FFFFFF" font-family="Cambria Math,Cambria Math_MSFontService,sans-serif" font-weight="400" font-size="24" transform="translate(401.145 220)">𝑎<tspan font-size="18" x="13.3333" y="8">0</tspan><tspan font-size="18" x="13.92" y="-12">(</tspan><tspan font-size="18" x="21.2533" y="-12">2</tspan><tspan font-size="18" x="31.42" y="-12">)</tspan></text><path d="M460.793 209.095 629.782 331.495 629.195 332.305 460.207 209.905ZM630.755 327.879 634.888 335.811 626.063 334.358Z" fill="#4472C4"/><path d="M624 210C624 190.118 640.118 174 660 174 679.882 174 696 190.118 696 210 696 229.882 679.882 246 660 246 640.118 246 624 229.882 624 210Z" fill="#9DC3E6" fill-rule="evenodd"/><text fill="#FFFFFF" font-family="Cambria Math,Cambria Math_MSFontService,sans-serif" font-weight="400" font-size="24" transform="translate(637.3 221)">𝑎<tspan font-size="18" x="13.3333" y="7">0</tspan><tspan font-size="18" x="13.92" y="-13">(</tspan><tspan font-size="18" x="21.2533" y="-13">3</tspan><tspan font-size="18" x="31.42" y="-13">)</tspan></text><path d="M696.791 210.093 865.755 330.897 865.174 331.71 696.209 210.907ZM866.707 327.274 870.888 335.181 862.054 333.782Z" fill="#4472C4"/><text font-family="Cambria Math,Cambria Math_MSFontService,sans-serif" font-weight="400" font-size="24" transform="translate(310.078 265)">Θ<tspan font-size="18" x="15.6667" y="7">0</tspan><tspan font-size="18" x="15.6667" y="-13">(</tspan><tspan font-size="18" x="23" y="-13">1</tspan><tspan font-size="18" x="33.1667" y="-13">)</tspan><tspan x="235.844" y="0">Θ</tspan><tspan font-size="18" x="251.51" y="7">0</tspan><tspan font-size="18" x="251.51" y="-13">(</tspan><tspan font-size="18" x="258.844" y="-13">2</tspan><tspan font-size="18" x="269.01" y="-13">)</tspan><tspan x="471.687" y="1">Θ</tspan><tspan font-size="18" x="487.354" y="8">0</tspan><tspan font-size="18" x="487.354" y="-12">(</tspan><tspan font-size="18" x="494.687" y="-12">3</tspan><tspan font-size="18" x="504.854" y="-12">)</tspan></text></g></svg>