<svg width="782" height="594" xmlns="http://www.w3.org/2000/svg" xmlns:xlink="http://www.w3.org/1999/xlink" overflow="hidden"><defs><clipPath id="clip0"><path d="M250 41 1032 41 1032 635 250 635Z" fill-rule="evenodd" clip-rule="evenodd"/></clipPath></defs><g clip-path="url(#clip0)" transform="translate(-250 -41)"><path d="M251 208C251 188.118 267.118 172 287 172 306.882 172 323 188.118 323 208 323 227.882 306.882 244 287 244 267.118 244 251 227.882 251 208Z" fill="#8FAADC" fill-rule="evenodd"/><text fill="#FFFFFF" font-family="Cambria Math,Cambria Math_MSFontService,sans-serif" font-weight="400" font-size="24" transform="translate(271.747 215)">𝑥<tspan font-size="18" x="12.0467" y="5">1</tspan></text><path d="M251 338C251 318.118 267.118 302 287 302 306.882 302 323 318.118 323 338 323 357.882 306.882 374 287 374 267.118 374 251 357.882 251 338Z" fill="#8FAADC" fill-rule="evenodd"/><text fill="#FFFFFF" font-family="Cambria Math,Cambria Math_MSFontService,sans-serif" font-weight="400" font-size="24" transform="translate(271.47 345)">𝑥<tspan font-size="18" x="12.6" y="5">2</tspan></text><path d="M251 468C251 448.118 267.118 432 287 432 306.882 432 323 448.118 323 468 323 487.882 306.882 504 287 504 267.118 504 251 487.882 251 468Z" fill="#8FAADC" fill-rule="evenodd"/><text fill="#FFFFFF" font-family="Cambria Math,Cambria Math_MSFontService,sans-serif" font-weight="400" font-size="24" transform="translate(272.053 475)">𝑥<tspan font-size="18" x="12.6" y="5">3</tspan></text><path d="M486 338C486 318.118 502.118 302 522 302 541.882 302 558 318.118 558 338 558 357.882 541.882 374 522 374 502.118 374 486 357.882 486 338Z" fill="#C9C9C9" fill-rule="evenodd"/><text fill="#FFFFFF" font-family="Cambria Math,Cambria Math_MSFontService,sans-serif" font-weight="400" font-size="24" transform="translate(499.32 349)">𝑎<tspan font-size="18" x="13.3333" y="7">3</tspan><tspan font-size="18" x="13.92" y="-13">(</tspan><tspan font-size="18" x="21.2533" y="-13">2</tspan><tspan font-size="18" x="31.42" y="-13">)</tspan></text><path d="M486 468C486 448.118 502.118 432 522 432 541.882 432 558 448.118 558 468 558 487.882 541.882 504 522 504 502.118 504 486 487.882 486 468Z" fill="#C9C9C9" fill-rule="evenodd"/><text fill="#FFFFFF" font-family="Cambria Math,Cambria Math_MSFontService,sans-serif" font-weight="400" font-size="24" transform="translate(499.32 479)">𝑎<tspan font-size="18" x="13.3333" y="7">4</tspan><tspan font-size="18" x="13.92" y="-13">(</tspan><tspan font-size="18" x="21.2533" y="-13">2</tspan><tspan font-size="18" x="31.42" y="-13">)</tspan></text><path d="M323.5 208 480.094 208 480.094 209 323.5 209ZM478.76 204.5 486.76 208.5 478.76 212.5Z" fill="#4472C4"/><path d="M323.811 208.108 482.432 333.983 481.811 334.766 323.189 208.892ZM483.564 330.413 487.344 338.519 478.591 336.679Z" fill="#4472C4"/><path d="M323.923 208.234 484.213 462.631 483.367 463.164 323.077 208.767ZM486.463 459.637 487.344 468.538 479.695 463.902Z" fill="#4472C4"/><path d="M0.311486-0.391122 158.357 125.475 157.734 126.257-0.311486 0.391122ZM159.494 121.906 163.26 130.019 154.51 128.164Z" fill="#4472C4" transform="matrix(1 0 0 -1 323.5 338.519)"/><path d="M323.5 338 480.677 338 480.677 339 323.5 339ZM479.344 334.5 487.344 338.5 479.344 342.5Z" fill="#4472C4"/><path d="M323.811 338.108 482.432 463.983 481.811 464.766 323.189 338.892ZM483.564 460.413 487.344 468.519 478.591 466.679Z" fill="#4472C4"/><path d="M0.423887-0.265179 159.565 254.121 158.717 254.651-0.423887 0.265179ZM161.825 251.134 162.677 260.038 155.043 255.377Z" fill="#4472C4" transform="matrix(1 0 0 -1 323.5 468.538)"/><path d="M0.311486-0.391122 158.357 125.475 157.734 126.257-0.311486 0.391122ZM159.494 121.906 163.26 130.019 154.51 128.164Z" fill="#4472C4" transform="matrix(1 0 0 -1 323.5 468.519)"/><path d="M323.5 468 480.094 468 480.094 469 323.5 469ZM478.76 464.5 486.76 468.5 478.76 472.5Z" fill="#4472C4"/><path d="M486 208C486 188.118 502.118 172 522 172 541.882 172 558 188.118 558 208 558 227.882 541.882 244 522 244 502.118 244 486 227.882 486 208Z" fill="#C9C9C9" fill-rule="evenodd"/><text fill="#FFFFFF" font-family="Cambria Math,Cambria Math_MSFontService,sans-serif" font-weight="400" font-size="24" transform="translate(498.737 219)">𝑎<tspan font-size="18" x="13.3333" y="7">2</tspan><tspan font-size="18" x="13.92" y="-13">(</tspan><tspan font-size="18" x="21.2534" y="-13">2</tspan><tspan font-size="18" x="31.42" y="-13">)</tspan></text><path d="M486 78C486 58.1177 502.118 42 522 42 541.882 42 558 58.1177 558 78 558 97.8822 541.882 114 522 114 502.118 114 486 97.8822 486 78Z" fill="#C9C9C9" fill-rule="evenodd"/><text fill="#FFFFFF" font-family="Cambria Math,Cambria Math_MSFontService,sans-serif" font-weight="400" font-size="24" transform="translate(498.737 89)">𝑎<tspan font-size="18" x="12.78" y="7">1</tspan><tspan font-size="18" x="13.92" y="-13">(</tspan><tspan font-size="18" x="21.2534" y="-13">2</tspan><tspan font-size="18" x="31.42" y="-13">)</tspan></text><path d="M486 598C486 578.118 502.118 562 522 562 541.882 562 558 578.118 558 598 558 617.882 541.882 634 522 634 502.118 634 486 617.882 486 598Z" fill="#C9C9C9" fill-rule="evenodd"/><text fill="#FFFFFF" font-family="Cambria Math,Cambria Math_MSFontService,sans-serif" font-weight="400" font-size="24" transform="translate(498.737 609)">𝑎<tspan font-size="18" x="13.3333" y="7">5</tspan><tspan font-size="18" x="13.92" y="-13">(</tspan><tspan font-size="18" x="21.2534" y="-13">2</tspan><tspan font-size="18" x="31.42" y="-13">)</tspan></text><path d="M723 338C723 318.118 739.118 302 759 302 778.882 302 795 318.118 795 338 795 357.882 778.882 374 759 374 739.118 374 723 357.882 723 338Z" fill="#C9C9C9" fill-rule="evenodd"/><text fill="#FFFFFF" font-family="Cambria Math,Cambria Math_MSFontService,sans-serif" font-weight="400" font-size="24" transform="translate(735.653 349)">𝑎<tspan font-size="18" x="13.3334" y="7">3</tspan><tspan font-size="18" x="13.92" y="-13">(</tspan><tspan font-size="18" x="21.2534" y="-13">3</tspan><tspan font-size="18" x="31.42" y="-13">)</tspan></text><path d="M723 468C723 448.118 739.118 432 759 432 778.882 432 795 448.118 795 468 795 487.882 778.882 504 759 504 739.118 504 723 487.882 723 468Z" fill="#C9C9C9" fill-rule="evenodd"/><text fill="#FFFFFF" font-family="Cambria Math,Cambria Math_MSFontService,sans-serif" font-weight="400" font-size="24" transform="translate(735.653 479)">𝑎<tspan font-size="18" x="13.3334" y="7">4</tspan><tspan font-size="18" x="13.92" y="-13">(</tspan><tspan font-size="18" x="21.2534" y="-13">3</tspan><tspan font-size="18" x="31.42" y="-13">)</tspan></text><path d="M722 208C722 188.118 738.118 172 758 172 777.882 172 794 188.118 794 208 794 227.882 777.882 244 758 244 738.118 244 722 227.882 722 208Z" fill="#C9C9C9" fill-rule="evenodd"/><text fill="#FFFFFF" font-family="Cambria Math,Cambria Math_MSFontService,sans-serif" font-weight="400" font-size="24" transform="translate(735.07 219)">𝑎<tspan font-size="18" x="13.3333" y="7">2</tspan><tspan font-size="18" x="13.92" y="-13">(</tspan><tspan font-size="18" x="21.2534" y="-13">3</tspan><tspan font-size="18" x="31.42" y="-13">)</tspan></text><path d="M722 78C722 58.1177 738.118 42 758 42 777.882 42 794 58.1177 794 78 794 97.8822 777.882 114 758 114 738.118 114 722 97.8822 722 78Z" fill="#C9C9C9" fill-rule="evenodd"/><text fill="#FFFFFF" font-family="Cambria Math,Cambria Math_MSFontService,sans-serif" font-weight="400" font-size="24" transform="translate(735.07 89)">𝑎<tspan font-size="18" x="12.78" y="7">1</tspan><tspan font-size="18" x="13.92" y="-13">(</tspan><tspan font-size="18" x="21.2534" y="-13">3</tspan><tspan font-size="18" x="31.42" y="-13">)</tspan></text><path d="M722 598C722 578.118 738.118 562 758 562 777.882 562 794 578.118 794 598 794 617.882 777.882 634 758 634 738.118 634 722 617.882 722 598Z" fill="#C9C9C9" fill-rule="evenodd"/><text fill="#FFFFFF" font-family="Cambria Math,Cambria Math_MSFontService,sans-serif" font-weight="400" font-size="24" transform="translate(735.07 609)">𝑎<tspan font-size="18" x="13.3333" y="7">5</tspan><tspan font-size="18" x="13.92" y="-13">(</tspan><tspan font-size="18" x="21.2534" y="-13">3</tspan><tspan font-size="18" x="31.42" y="-13">)</tspan></text><path d="M957 208C957 188.118 973.118 172 993 172 1012.88 172 1029 188.118 1029 208 1029 227.882 1012.88 244 993 244 973.118 244 957 227.882 957 208Z" fill="#F4B183" fill-rule="evenodd"/><text fill="#FFFFFF" font-family="Cambria Math,Cambria Math_MSFontService,sans-serif" font-weight="400" font-size="24" transform="translate(978.46 215)">𝑦</text><path d="M5.75391-16.8984 9.73828-13.207 9.10547-12.5391 4.96875-15.3867 4.83984-15.3867 0.632813-12.5391 0-13.207 4.18359-16.8984Z" fill="#FFFFFF" transform="translate(981.607 215)"/><text fill="#FFFFFF" font-family="Cambria Math,Cambria Math_MSFontService,sans-serif" font-weight="400" font-size="18" transform="translate(990.68 220)">1</text><path d="M0.311486-0.391122 158.357 125.475 157.734 126.257-0.311486 0.391122ZM159.494 121.906 163.26 130.019 154.51 128.164Z" fill="#4472C4" transform="matrix(1 0 0 -1 323.5 208.519)"/><path d="M323.961 208.307 484.647 592.214 483.725 592.6 323.039 208.693ZM487.361 589.633 486.76 598.557 479.982 592.721Z" fill="#4472C4"/><path d="M0.423459-0.265861 160.139 254.126 159.292 254.658-0.423459 0.265861ZM162.394 251.136 163.26 260.038 155.619 255.389Z" fill="#4472C4" transform="matrix(1 0 0 -1 323.5 338.538)"/><path d="M323.924 338.234 483.639 592.626 482.792 593.158 323.077 338.766ZM485.894 589.636 486.76 598.538 479.119 593.889Z" fill="#4472C4"/><path d="M0.461474-0.192462 160.572 383.711 159.649 384.096-0.461474 0.192462ZM163.289 381.133 162.677 390.057 155.905 384.213Z" fill="#4472C4" transform="matrix(1 0 0 -1 323.5 468.557)"/><path d="M323.812 468.109 481.281 593.966 480.657 594.747 323.188 468.891ZM482.425 590.4 486.177 598.519 477.43 596.649Z" fill="#4472C4"/><path d="M558.5 78.0001 716.166 78.0002 716.166 79.0002 558.5 79.0001ZM714.833 74.5002 722.833 78.5002 714.833 82.5002Z" fill="#4472C4"/><path d="M558.81 78.1079 717.915 203.991 717.295 204.775 558.19 78.8922ZM719.041 200.418 722.833 208.519 714.077 206.692Z" fill="#4472C4"/><path d="M558.922 78.2323 720.268 332.64 719.424 333.176 558.078 78.7678ZM722.51 329.64 723.417 338.538 715.754 333.924Z" fill="#4472C4"/><path d="M558.961 78.3053 721.281 462.221 720.36 462.61 558.04 78.6948ZM723.985 459.631 723.417 468.557 716.617 462.746Z" fill="#4472C4"/><path d="M558.977 78.3494 721.301 592.069 720.348 592.37 558.023 78.6507ZM724.237 589.742 722.833 598.576 716.609 592.153Z" fill="#4472C4"/><path d="M0.310237-0.392114 159.415 125.491 158.795 126.275-0.310237 0.392114ZM160.541 121.918 164.333 130.019 155.577 128.192Z" fill="#4472C4" transform="matrix(1 0 0 -1 558.5 208.519)"/><path d="M558.5 208 716.166 208 716.166 209 558.5 209ZM714.833 204.5 722.833 208.5 714.833 212.5Z" fill="#4472C4"/><path d="M558.81 208.107 718.491 333.999 717.872 334.784 558.19 208.893ZM719.611 330.425 723.417 338.519 714.658 336.707Z" fill="#4472C4"/><path d="M558.922 208.232 720.268 462.64 719.424 463.176 558.078 208.768ZM722.51 459.64 723.417 468.538 715.754 463.924Z" fill="#4472C4"/><path d="M558.961 208.306 720.705 592.219 719.784 592.607 558.039 208.694ZM723.413 589.631 722.833 598.557 716.041 592.737Z" fill="#4472C4"/><path d="M0.4231-0.266432 160.62 254.129 159.774 254.662-0.4231 0.266432ZM162.871 251.137 163.749 260.038 156.102 255.4Z" fill="#4472C4" transform="matrix(1 0 0 -1 558.5 338.538)"/><path d="M0.310915-0.391576 158.84 125.482 158.218 126.265-0.310915 0.391576ZM159.972 121.912 163.749 130.019 154.997 128.177Z" fill="#4472C4" transform="matrix(1 0 0 -1 558.5 338.519)"/><path d="M558.5 338 716.166 338 716.166 339 558.5 339ZM714.833 334.5 722.833 338.5 714.833 342.5Z" fill="#4472C4"/><path d="M558.81 338.108 717.915 463.991 717.295 464.775 558.19 338.892ZM719.041 460.418 722.833 468.519 714.077 466.692Z" fill="#4472C4"/><path d="M559.924 338.234 719.546 592.624 718.699 593.156 559.077 338.766ZM721.802 589.635 722.666 598.538 715.026 593.888Z" fill="#4472C4"/><path d="M0.461022-0.193542 161.63 383.716 160.708 384.103-0.461022 0.193542ZM164.341 381.132 163.749 390.057 156.965 384.229Z" fill="#4472C4" transform="matrix(1 0 0 -1 558.5 468.557)"/><path d="M0.4231-0.266432 160.62 254.129 159.774 254.662-0.4231 0.266432ZM162.871 251.137 163.749 260.038 156.102 255.4Z" fill="#4472C4" transform="matrix(1 0 0 -1 558.5 468.538)"/><path d="M0.310237-0.392114 159.415 125.491 158.795 126.275-0.310237 0.392114ZM160.541 121.918 164.333 130.019 155.577 128.192Z" fill="#4472C4" transform="matrix(1 0 0 -1 558.5 468.519)"/><path d="M558.5 468 716.166 468 716.166 469 558.5 469ZM714.833 464.5 722.833 468.5 714.833 472.5Z" fill="#4472C4"/><path d="M558.811 468.108 717.34 593.982 716.718 594.765 558.189 468.892ZM718.472 590.412 722.25 598.519 713.497 596.677Z" fill="#4472C4"/><path d="M0.476765-0.150648 162.801 513.569 161.848 513.87-0.476765 0.150648ZM165.737 511.242 164.333 520.076 158.109 513.653Z" fill="#4472C4" transform="matrix(1 0 0 -1 558.5 598.576)"/><path d="M0.460776-0.194127 162.205 383.719 161.284 384.107-0.460776 0.194127ZM164.913 381.131 164.333 390.057 157.541 384.237Z" fill="#4472C4" transform="matrix(1 0 0 -1 558.5 598.557)"/><path d="M0.422244-0.267788 161.768 254.14 160.924 254.676-0.422244 0.267788ZM164.01 251.14 164.917 260.038 157.254 255.424Z" fill="#4472C4" transform="matrix(1 0 0 -1 558.5 598.538)"/><path d="M0.30956-0.392648 159.991 125.499 159.372 126.284-0.30956 0.392648ZM161.111 121.925 164.917 130.019 156.158 128.207Z" fill="#4472C4" transform="matrix(1 0 0 -1 558.5 598.519)"/><path d="M558.5 598 716.166 598 716.166 599 558.5 599ZM714.833 594.5 722.833 598.5 714.833 602.5Z" fill="#4472C4"/><path d="M794.812 78.109 952.804 203.974 952.181 204.756 794.189 78.8911ZM953.942 200.406 957.707 208.519 948.958 206.663Z" fill="#4472C4"/><path d="M794.922 78.2323 956.268 332.64 955.424 333.176 794.078 78.7678ZM958.51 329.64 959.417 338.538 951.754 333.924Z" fill="#4472C4"/><path d="M794.961 78.3053 957.281 462.221 956.36 462.61 794.04 78.6948ZM959.985 459.631 959.417 468.557 952.617 462.746Z" fill="#4472C4"/><path d="M794.5 208 951.04 208 951.04 209 794.5 209ZM949.707 204.5 957.707 208.5 949.707 212.5Z" fill="#4472C4"/><path d="M794.81 208.107 954.491 333.999 953.872 334.784 794.19 208.893ZM955.611 330.425 959.417 338.519 950.658 336.707Z" fill="#4472C4"/><path d="M794.922 208.232 956.268 462.64 955.424 463.176 794.078 208.768ZM958.51 459.64 959.417 468.538 951.754 463.924Z" fill="#4472C4"/><path d="M0.31223-0.390528 157.729 125.465 157.104 126.246-0.31223 0.390528ZM158.873 121.899 162.624 130.019 153.877 128.147Z" fill="#4472C4" transform="matrix(1 0 0 -1 795.5 338.519)"/><path d="M795.5 338 953.166 338 953.166 339 795.5 339ZM951.833 334.5 959.833 338.5 951.833 342.5Z" fill="#4472C4"/><path d="M795.81 338.108 954.915 463.991 954.295 464.775 795.19 338.892ZM956.041 460.418 959.833 468.519 951.077 466.692Z" fill="#4472C4"/><path d="M0.423926-0.265117 159.512 254.12 158.665 254.65-0.423926 0.265117ZM161.773 251.134 162.624 260.038 154.99 255.376Z" fill="#4472C4" transform="matrix(1 0 0 -1 795.5 468.538)"/><path d="M0.310237-0.392114 159.415 125.491 158.795 126.275-0.310237 0.392114ZM160.541 121.918 164.333 130.019 155.577 128.192Z" fill="#4472C4" transform="matrix(1 0 0 -1 795.5 468.519)"/><path d="M795.5 468 953.166 468 953.166 469 795.5 469ZM951.833 464.5 959.833 468.5 951.833 472.5Z" fill="#4472C4"/><path d="M0.30956-0.392648 159.991 125.499 159.372 126.284-0.30956 0.392648ZM161.111 121.925 164.917 130.019 156.158 128.207Z" fill="#4472C4" transform="matrix(1 0 0 -1 794.5 598.519)"/><path d="M0.422244-0.267788 161.768 254.14 160.924 254.676-0.422244 0.267788ZM164.01 251.14 164.917 260.038 157.254 255.424Z" fill="#4472C4" transform="matrix(1 0 0 -1 794.5 598.538)"/><path d="M0.461251-0.192996 161.095 383.714 160.173 384.1-0.461251 0.192996ZM163.809 381.133 163.207 390.057 156.429 384.221Z" fill="#4472C4" transform="matrix(1 0 0 -1 794.5 598.557)"/><path d="M959 338C959 318.118 975.118 302 995 302 1014.88 302 1031 318.118 1031 338 1031 357.882 1014.88 374 995 374 975.118 374 959 357.882 959 338Z" fill="#F4B183" fill-rule="evenodd"/><text fill="#FFFFFF" font-family="Cambria Math,Cambria Math_MSFontService,sans-serif" font-weight="400" font-size="24" transform="translate(979.893 345)">𝑦</text><path d="M5.75391-16.8984 9.73828-13.207 9.10547-12.5391 4.96875-15.3867 4.83984-15.3867 0.632813-12.5391 0-13.207 4.18359-16.8984Z" fill="#FFFFFF" transform="translate(983.04 345)"/><text fill="#FFFFFF" font-family="Cambria Math,Cambria Math_MSFontService,sans-serif" font-weight="400" font-size="18" transform="translate(992.666 350)">2</text><path d="M959 468C959 448.118 975.118 432 995 432 1014.88 432 1031 448.118 1031 468 1031 487.882 1014.88 504 995 504 975.118 504 959 487.882 959 468Z" fill="#F4B183" fill-rule="evenodd"/><text fill="#FFFFFF" font-family="Cambria Math,Cambria Math_MSFontService,sans-serif" font-weight="400" font-size="24" transform="translate(979.893 475)">𝑦</text><path d="M5.75391-16.8984 9.73828-13.207 9.10547-12.5391 4.96875-15.3867 4.83984-15.3867 0.632813-12.5391 0-13.207 4.18359-16.8984Z" fill="#FFFFFF" transform="translate(983.04 475)"/><text fill="#FFFFFF" font-family="Cambria Math,Cambria Math_MSFontService,sans-serif" font-weight="400" font-size="18" transform="translate(992.666 480)">3</text></g></svg>