<svg id="kity_svg_6" xmlns="http://www.w3.org/2000/svg" xmlns:xlink="http://www.w3.org/1999/xlink" version="1.1" width="754" height="288" style="background: rgb(251, 251, 251); visibility: visible;" viewBox="0 0 754 288"><defs id="kity_defs_7"><linearGradient id="kity_linearGradient_17" x1="0" y1="0" x2="0" y2="1"><stop id="kity_stop_18" offset="0" stop-color="rgb(255, 255, 255)"></stop><stop id="kity_stop_19" offset="1" stop-color="rgb(204, 204, 204)"></stop></linearGradient><marker id="kity_marker_2" orient="auto" refX="6" refY="0" viewBox="-7 -7 14 14" markerWidth="7" markerHeight="7" markerUnits="userSpaceOnUse"><path id="kity_path_3" fill="rgb(115, 161, 191)" stroke="none" d="M6,0A6,6,0,1,1,-6,0A6,6,0,1,1,6,0"></path></marker></defs><g id="kity_g_8"><g id="minder1" text-rendering="optimize-speed"><g id="minder_connect_group1"><path id="kity_path_31" fill="none" stroke="rgb(115, 161, 191)" stroke-width="1" d="M101.00000315718353,166.50000371597707A96.5,78.5,0,0,1,197.50000315718353,88.00000371597707"></path><path id="kity_path_33" fill="none" stroke="rgb(115, 161, 191)" stroke-width="1" d="M375.5000031571835,88.50000371597707C383.5000031571835,88.00000371597707,383.5000031571835,55.50000371597707,391.5000031571835,55.50000371597707"></path><path id="kity_path_35" fill="none" stroke="rgb(115, 161, 191)" stroke-width="1" d="M512.5000031571835,55.50000371597707C520.5000031571835,55.50000371597707,520.5000031571835,29.500003715977073,528.5000031571835,29.500003715977073"></path><path id="kity_path_37" fill="none" stroke="rgb(115, 161, 191)" stroke-width="1" d="M512.5000031571835,55.50000371597707C520.5000031571835,55.50000371597707,520.5000031571835,55.50000371597707,528.5000031571835,55.50000371597707"></path><path id="kity_path_39" fill="none" stroke="rgb(115, 161, 191)" stroke-width="1" d="M512.5000031571835,55.50000371597707C520.5000031571835,55.50000371597707,520.5000031571835,81.50000371597707,528.5000031571835,81.50000371597707"></path><path id="kity_path_41" fill="none" stroke="rgb(115, 161, 191)" stroke-width="1" d="M375.5000031571835,88.50000371597707C383.5000031571835,88.00000371597707,383.5000031571835,120.50000371597707,391.5000031571835,120.50000371597707"></path><path id="kity_path_43" fill="none" stroke="rgb(115, 161, 191)" stroke-width="1" d="M525.5000031571835,120.50000371597707C533.5000031571835,120.50000371597707,533.5000031571835,107.50000371597707,541.5000031571835,107.50000371597707"></path><path id="kity_path_45" fill="none" stroke="rgb(115, 161, 191)" stroke-width="1" d="M101.00000315718353,166.50000371597707A96.5,15.5,0,0,0,197.50000315718353,182.00000371597707"></path><path id="kity_path_47" fill="none" stroke="none" display="none"></path><path id="kity_path_49" fill="none" stroke="none" display="none"></path><path id="kity_path_51" fill="none" stroke="rgb(115, 161, 191)" stroke-width="1" d="M101.00000315718353,166.50000371597707A96.5,78.5,0,0,0,197.50000315718353,245.00000371597707"></path><path id="kity_path_123" fill="none" stroke="rgb(115, 161, 191)" stroke-width="1" d="M525.5000031571835,120.50000371597707C533.5000031571835,120.50000371597707,533.5000031571835,133.50000371597707,541.5000031571835,133.50000371597707"></path></g><g id="minder_node1"><path id="node_outline1" fill="rgb(115, 161, 191)" stroke="rgb(115, 161, 191)" d="M25.500003157183528,140.50000371597707h151a5,5,0,0,1,5,5v42a5,5,0,0,1,-5,5h-151a5,5,0,0,1,-5,-5v-42a5,5,0,0,1,5,-5z" stroke-width="3"></path><g id="node_text1" fill="white"><text id="kity_text_22" text-rendering="inherit" font-size="16" dy=".8em" y="144.1000036381023" x="32.50000315718353">机器学习</text><text id="kity_text_77" text-rendering="inherit" font-size="16" dy=".8em" y="168.1000036381023" x="32.50000315718353">Machine Learning</text></g></g><g id="kity_g_12"><path id="kity_path_13" fill="none" stroke="none" d="M32.50000315718353,166.50000371597707h0v0h0z"></path></g><g id="kity_g_14"><path id="kity_path_15" fill="none" stroke="none" d="M32.50000315718353,166.50000371597707h0v0h0z"></path><path id="kity_path_16" fill="none" stroke="none"></path></g><g id="minder_node2"><g id="node_expander7" style="cursor: pointer;"><path id="kity_path_108" fill="white" stroke="gray" d="M198.50000613741577,88.00000225380063A6,6,0,1,1,186.50000613741577,88.00000225380063A6,6,0,1,1,198.50000613741577,88.00000225380063"></path><path id="kity_path_109" fill="none" stroke="gray" d="M188.00000613741577,88.00000225380063L197.00000613741577,88.00000225380063"></path></g><path id="node_outline8" fill="rgb(238, 243, 246)" stroke="rgb(115, 161, 191)" d="M202.50000664032996,64.5000022444874h170a3,3,0,0,1,3,3v41a3,3,0,0,1,-3,3h-170a3,3,0,0,1,-3,-3v-41a3,3,0,0,1,3,-3z" stroke-width="1"></path><g id="node_text8" fill="black"><text id="kity_text_65" text-rendering="inherit" font-size="14" dy=".8em" y="67.90000223854314" x="219.50000664032996">监督学习</text><text id="kity_text_66" text-rendering="inherit" font-size="14" dy=".8em" y="88.90000223854314" x="219.50000664032996">Supervised Learning</text></g></g><g id="minder_node3"><g id="node_expander4" style="cursor: pointer;"><path id="kity_path_99" fill="white" stroke="gray" d="M391.5000097323209,55.50000164844096A6,6,0,1,1,379.5000097323209,55.50000164844096A6,6,0,1,1,391.5000097323209,55.50000164844096"></path><path id="kity_path_100" fill="none" stroke="gray" d="M381.0000097323209,55.50000164844096L390.0000097323209,55.50000164844096"></path></g><path id="node_outline5" fill="none" stroke="none" d="M396.50000993721187,46.50000164844096h111a5,5,0,0,1,5,5v8a5,5,0,0,1,-5,5h-111a5,5,0,0,1,-5,-5v-8a5,5,0,0,1,5,-5z"></path><g id="node_text5" fill="black"><text id="kity_text_59" text-rendering="inherit" font-size="12" dy=".8em" y="47.70000171442719" x="396.50000993721187">回归（Regression）</text></g></g><g id="minder_node4"><g id="node_expander1" style="cursor: pointer;" display="none"><path id="kity_path_90" fill="white" stroke="gray" d="M528.5000122841448,29.50000116415322A6,6,0,1,1,516.5000122841448,29.50000116415322A6,6,0,1,1,528.5000122841448,29.50000116415322"></path><path id="kity_path_91" fill="none" stroke="gray"></path></g><path id="node_outline2" fill="none" stroke="none" d="M533.5000124890357,20.50000116415322h152a5,5,0,0,1,5,5v8a5,5,0,0,1,-5,5h-152a5,5,0,0,1,-5,-5v-8a5,5,0,0,1,5,-5z"></path><g id="node_text2" fill="black"><text id="kity_text_53" text-rendering="inherit" font-size="12" dy=".8em" y="21.70000123013945" x="533.5000124890357">代价函数（Cost Function）</text></g></g><g id="minder_node5"><g id="node_expander2" style="cursor: pointer;" display="none"><path id="kity_path_93" fill="white" stroke="gray" d="M528.5000122841448,55.50000164844096A6,6,0,1,1,516.5000122841448,55.50000164844096A6,6,0,1,1,528.5000122841448,55.50000164844096"></path><path id="kity_path_94" fill="none" stroke="gray"></path></g><path id="node_outline3" fill="none" stroke="none" d="M533.5000124890357,46.50000164844096h184a5,5,0,0,1,5,5v8a5,5,0,0,1,-5,5h-184a5,5,0,0,1,-5,-5v-8a5,5,0,0,1,5,-5z"></path><g id="node_text3" fill="black"><text id="kity_text_55" text-rendering="inherit" font-size="12" dy=".8em" y="47.70000171442719" x="533.5000124890357">梯度下降法（Gradient Descent）</text></g></g><g id="minder_node6"><g id="node_expander3" style="cursor: pointer;" display="none"><path id="kity_path_96" fill="white" stroke="gray" d="M528.5000122841448,81.5000021327287A6,6,0,1,1,516.5000122841448,81.5000021327287A6,6,0,1,1,528.5000122841448,81.5000021327287"></path><path id="kity_path_97" fill="none" stroke="gray"></path></g><path id="node_outline4" fill="none" stroke="none" d="M533.5000124890357,72.5000021327287h182a5,5,0,0,1,5,5v8a5,5,0,0,1,-5,5h-182a5,5,0,0,1,-5,-5v-8a5,5,0,0,1,5,-5z"></path><g id="node_text4" fill="black"><text id="kity_text_57" text-rendering="inherit" font-size="12" dy=".8em" y="73.70000219871493" x="533.5000124890357">正规方程法（Normal Equation）</text></g></g><g id="minder_node7"><g id="node_expander6" style="cursor: pointer;"><path id="kity_path_105" fill="white" stroke="gray" d="M391.5000097323209,120.5000028591603A6,6,0,1,1,379.5000097323209,120.5000028591603A6,6,0,1,1,391.5000097323209,120.5000028591603"></path><path id="kity_path_106" fill="none" stroke="gray" d="M381.0000097323209,120.5000028591603L390.0000097323209,120.5000028591603"></path></g><path id="node_outline7" fill="none" stroke="none" d="M396.50000993721187,111.5000028591603h124a5,5,0,0,1,5,5v8a5,5,0,0,1,-5,5h-124a5,5,0,0,1,-5,-5v-8a5,5,0,0,1,5,-5z" stroke-width="3"></path><g id="node_text7" fill="black"><text id="kity_text_63" text-rendering="inherit" font-size="12" dy=".8em" y="112.70000292514653" x="396.50000993721187">分类（Classification）</text></g></g><g id="minder_node8"><g id="node_expander5" style="cursor: pointer;" display="none"><path id="kity_path_102" fill="white" stroke="gray" d="M541.5000125262886,107.50000261701643A6,6,0,1,1,529.5000125262886,107.50000261701643A6,6,0,1,1,541.5000125262886,107.50000261701643"></path><path id="kity_path_103" fill="none" stroke="gray"></path></g><path id="node_outline6" fill="none" stroke="none" d="M546.5000127311796,98.50000261701643h183a5,5,0,0,1,5,5v8a5,5,0,0,1,-5,5h-183a5,5,0,0,1,-5,-5v-8a5,5,0,0,1,5,-5z"></path><g id="node_text6" fill="black"><text id="kity_text_61" text-rendering="inherit" font-size="12" dy=".8em" y="99.70000268300267" x="546.5000127311796">逻辑回归（Logistic Regression）</text></g></g><g id="minder_node9"><g id="node_expander10" style="cursor: pointer;"><path id="kity_path_117" fill="white" stroke="gray" d="M198.50000613741577,182.00000400468707A6,6,0,1,1,186.50000613741577,182.00000400468707A6,6,0,1,1,198.50000613741577,182.00000400468707"></path><path id="kity_path_118" fill="none" stroke="gray" d="M188.00000613741577,182.00000400468707L197.00000613741577,182.00000400468707M192.50000613741577,177.50000400468707L192.50000613741577,186.50000400468707"></path></g><path id="node_outline11" fill="rgb(238, 243, 246)" stroke="rgb(115, 161, 191)" d="M202.50000664032996,158.50000399537385h187a3,3,0,0,1,3,3v41a3,3,0,0,1,-3,3h-187a3,3,0,0,1,-3,-3v-41a3,3,0,0,1,3,-3z" stroke-width="1"></path><g id="node_text11" fill="black"><text id="kity_text_72" text-rendering="inherit" font-size="14" dy=".8em" y="161.9000039894296" x="219.50000664032996">无监督学习</text><text id="kity_text_73" text-rendering="inherit" font-size="14" dy=".8em" y="182.9000039894296" x="219.50000664032996">Unsupervised Learning</text></g></g><g id="minder_node10" display="none"><g id="node_expander8" style="cursor: pointer;" display="none"><path id="kity_path_111" fill="white" stroke="gray" d="M408.5000100489706,174.50000386498868A6,6,0,1,1,396.5000100489706,174.50000386498868A6,6,0,1,1,408.5000100489706,174.50000386498868"></path><path id="kity_path_112" fill="none" stroke="gray"></path></g><path id="node_outline9" fill="none" stroke="none" d="M408.5000101607293,165.50000386498868h106a5,5,0,0,1,5,5v8a5,5,0,0,1,-5,5h-106a5,5,0,0,1,-5,-5v-8a5,5,0,0,1,5,-5z"></path><g id="node_text9" fill="black"><text id="kity_text_68" text-rendering="inherit" font-size="12" dy=".8em" y="166.7000039309749" x="408.5000101607293">聚类（Clustering）</text></g></g><g id="minder_node11" display="none"><g id="node_expander9" style="cursor: pointer;" display="none"><path id="kity_path_114" fill="white" stroke="gray" d="M408.5000100489706,182.5000040140003A6,6,0,1,1,396.5000100489706,182.5000040140003A6,6,0,1,1,408.5000100489706,182.5000040140003"></path><path id="kity_path_115" fill="none" stroke="gray"></path></g><path id="node_outline10" fill="none" stroke="none" d="M408.5000101607293,173.5000040140003h146a5,5,0,0,1,5,5v8a5,5,0,0,1,-5,5h-146a5,5,0,0,1,-5,-5v-8a5,5,0,0,1,5,-5z"></path><g id="node_text10" fill="black"><text id="kity_text_70" text-rendering="inherit" font-size="12" dy=".8em" y="174.7000040799865" x="408.5000101607293">非聚类（Non-clustering）</text></g></g><g id="minder_node12"><g id="node_expander11" style="cursor: pointer;" display="none"><path id="kity_path_120" fill="white" stroke="gray" d="M198.50000613741577,245.00000517815351A6,6,0,1,1,186.50000613741577,245.00000517815351A6,6,0,1,1,198.50000613741577,245.00000517815351"></path><path id="kity_path_121" fill="none" stroke="gray"></path></g><path id="node_outline12" fill="rgb(238, 243, 246)" stroke="rgb(115, 161, 191)" d="M202.50000664032996,221.5000051688403h195a3,3,0,0,1,3,3v41a3,3,0,0,1,-3,3h-195a3,3,0,0,1,-3,-3v-41a3,3,0,0,1,3,-3z" stroke-width="1"></path><g id="node_text12" fill="black"><text id="kity_text_75" text-rendering="inherit" font-size="14" dy=".8em" y="224.90000516289604" x="219.50000664032996">强化学习</text><text id="kity_text_76" text-rendering="inherit" font-size="14" dy=".8em" y="245.90000516289604" x="219.50000664032996">Reinforcement Learning</text></g></g><g id="minder_node13"><g id="node_expander12" style="cursor: pointer;" display="none"><path id="kity_path_128" fill="white" stroke="gray" d="M541.5000125262886,133.50000310130417A6,6,0,1,1,529.5000125262886,133.50000310130417A6,6,0,1,1,541.5000125262886,133.50000310130417"></path><path id="kity_path_129" fill="none" stroke="gray"></path></g><path id="node_outline13" fill="none" stroke="none" d="M546.5000127311796,124.50000310130417h164a5,5,0,0,1,5,5v8a5,5,0,0,1,-5,5h-164a5,5,0,0,1,-5,-5v-8a5,5,0,0,1,5,-5z" stroke-width="3"></path><g id="node_text13" fill="black"><text id="kity_text_125" text-rendering="inherit" font-size="12" dy=".8em" y="125.70000316729039" x="546.5000127311796">神经网络（Neural Network）</text></g></g></g></g></svg>