<svg width="568" height="377" xmlns="http://www.w3.org/2000/svg" xmlns:xlink="http://www.w3.org/1999/xlink" overflow="hidden"><defs><clipPath id="clip0"><path d="M384 57 952 57 952 434 384 434Z" fill-rule="evenodd" clip-rule="evenodd"/></clipPath></defs><g clip-path="url(#clip0)" transform="translate(-384 -57)"><path d="M385.5 318 925.233 318 925.233 319 385.5 319ZM923.9 314.5 931.9 318.5 923.9 322.5Z" fill="#4472C4"/><path d="M0.5-1.4705e-07 0.500103 350.31-0.499897 350.31-0.5 1.4705e-07ZM4.0001 348.976 0.000104987 356.976-3.9999 348.976Z" fill="#4472C4" transform="matrix(1 0 0 -1 437.5 434.476)"/><text font-family="Cambria Math,Cambria Math_MSFontService,sans-serif" font-weight="400" font-size="27" transform="translate(923.147 345)">洧논<tspan x="-512.987" y="-258">洧녽</tspan><tspan font-size="24" x="-506.014" y="-1">0</tspan><tspan font-size="24" x="-331.715" y="-36">洧논</tspan><tspan font-size="18" x="-319.115" y="-31">0</tspan></text><path d="M602.5 317.5 602.5 379.392" stroke="#4472C4" stroke-miterlimit="8" stroke-dasharray="8 3" stroke-opacity="0.180392" fill="none" fill-rule="evenodd"/><path d="M0 0 312.784 80.2079" stroke="#4472C4" stroke-miterlimit="8" stroke-opacity="0.180392" fill="none" fill-rule="evenodd" transform="matrix(-1 -8.74228e-08 -8.74228e-08 1 844.284 318.5)"/><text font-family="Cambria Math,Cambria Math_MSFontService,sans-serif" font-weight="400" font-size="24" transform="translate(838.875 340)">洧논<tspan font-size="18" x="12.0466" y="5">1</tspan></text><path d="M600.5 318C600.5 316.619 601.619 315.5 603 315.5 604.381 315.5 605.5 316.619 605.5 318 605.5 319.381 604.381 320.5 603 320.5 601.619 320.5 600.5 319.381 600.5 318Z" stroke="#FF0000" stroke-miterlimit="8" fill="#FF0000" fill-rule="evenodd"/><path d="M843.5 175.5 843.5 317.705" stroke="#8FAADC" stroke-miterlimit="8" stroke-dasharray="8 3" fill="none" fill-rule="evenodd"/><path d="M841.5 318C841.5 316.619 842.619 315.5 844 315.5 845.381 315.5 846.5 316.619 846.5 318 846.5 319.381 845.381 320.5 844 320.5 842.619 320.5 841.5 319.381 841.5 318Z" stroke="#FF0000" stroke-miterlimit="8" fill="#FF0000" fill-rule="evenodd"/><path d="M866.642 96.0115C852.63 147.694 838.617 199.377 805.53 242.958 772.444 286.539 729.512 329.917 668.123 357.497 606.734 385.077 505.388 398.842 437.197 408.437" stroke="#2F528F" stroke-width="2" stroke-miterlimit="8" fill="none" fill-rule="evenodd"/><path d="M0 0 80 209.86" stroke="#000000" stroke-miterlimit="8" fill="none" fill-rule="evenodd" transform="matrix(-1 -8.74228e-08 -8.74228e-08 1 868.5 108.5)"/><text font-family="Cambria Math,Cambria Math_MSFontService,sans-serif" font-weight="400" font-size="24" transform="translate(784.632 340)">洧논<tspan font-size="18" x="12.6" y="5">2</tspan></text><path d="M787.5 318C787.5 316.619 788.396 315.5 789.5 315.5 790.605 315.5 791.5 316.619 791.5 318 791.5 319.381 790.605 320.5 789.5 320.5 788.396 320.5 787.5 319.381 787.5 318Z" stroke="#FF0000" stroke-miterlimit="8" fill="#FF0000" fill-rule="evenodd"/><path d="M731.5 318C731.5 316.619 732.619 315.5 734 315.5 735.381 315.5 736.5 316.619 736.5 318 736.5 319.381 735.381 320.5 734 320.5 732.619 320.5 731.5 319.381 731.5 318Z" stroke="#FF0000" stroke-miterlimit="8" fill="#FF0000" fill-rule="evenodd"/></g></svg>