<svg id="kity_svg_6" xmlns="http://www.w3.org/2000/svg" xmlns:xlink="http://www.w3.org/1999/xlink" version="1.1" width="1022" height="450" style="background: rgb(251, 251, 251); visibility: visible;" viewBox="0 0 1022 450"><defs id="kity_defs_7"><linearGradient id="kity_linearGradient_17" x1="0" y1="0" x2="0" y2="1"><stop id="kity_stop_18" offset="0" stop-color="rgb(255, 255, 255)"></stop><stop id="kity_stop_19" offset="1" stop-color="rgb(204, 204, 204)"></stop></linearGradient><marker id="kity_marker_2" orient="auto" refX="6" refY="0" viewBox="-7 -7 14 14" markerWidth="7" markerHeight="7" markerUnits="userSpaceOnUse"><path id="kity_path_3" fill="rgb(115, 161, 191)" stroke="none" d="M6,0A6,6,0,1,1,-6,0A6,6,0,1,1,6,0"></path></marker></defs><g id="kity_g_8"><g id="minder1" text-rendering="optimize-speed"><g id="minder_connect_group1"><path id="kity_path_82" fill="none" stroke="rgb(115, 161, 191)" stroke-width="1" d="M127.9999939945289,201.49999208734755A224.5,167,0,0,1,352.4999939945289,34.49999208734755"></path><path id="kity_path_84" fill="none" stroke="rgb(115, 161, 191)" stroke-width="1" d="M636.499993994529,34.49999208734755C656.499993994529,34.49999208734755,656.499993994529,34.49999208734755,676.499993994529,34.49999208734755"></path><path id="kity_path_98" fill="none" stroke="rgb(115, 161, 191)" stroke-width="1" d="M127.9999939945289,201.49999208734755A224.5,51,0,0,1,352.4999939945289,150.49999208734755"></path><path id="kity_path_106" fill="none" stroke="rgb(115, 161, 191)" stroke-width="1" d="M609.499993994529,150.49999208734755C629.499993994529,150.49999208734755,629.499993994529,98.49999208734755,649.499993994529,98.49999208734755"></path><path id="kity_path_114" fill="none" stroke="rgb(115, 161, 191)" stroke-width="1" d="M609.499993994529,150.49999208734755C629.499993994529,150.49999208734755,629.499993994529,150.49999208734755,649.499993994529,150.49999208734755"></path><path id="kity_path_122" fill="none" stroke="rgb(115, 161, 191)" stroke-width="1" d="M609.499993994529,150.49999208734755C629.499993994529,150.49999208734755,629.499993994529,202.49999208734755,649.499993994529,202.49999208734755"></path><path id="kity_path_191" fill="none" stroke="rgb(115, 161, 191)" stroke-width="1" d="M127.9999939945289,201.49999208734755A224.5,167,0,0,0,352.4999939945289,368.49999208734755"></path><path id="kity_path_193" fill="none" stroke="rgb(115, 161, 191)" stroke-width="1" d="M575.499993994529,368.49999208734755C595.499993994529,368.49999208734755,595.499993994529,316.49999208734755,615.499993994529,316.49999208734755"></path><path id="kity_path_195" fill="none" stroke="rgb(115, 161, 191)" stroke-width="1" d="M840.499993994529,316.49999208734755C860.499993994529,316.49999208734755,860.499993994529,264.49999208734755,880.499993994529,264.49999208734755"></path><path id="kity_path_197" fill="none" stroke="rgb(115, 161, 191)" stroke-width="1" d="M840.499993994529,316.49999208734755C860.499993994529,316.49999208734755,860.499993994529,316.49999208734755,880.499993994529,316.49999208734755"></path><path id="kity_path_199" fill="none" stroke="rgb(115, 161, 191)" stroke-width="1" d="M840.499993994529,316.49999208734755C860.499993994529,316.49999208734755,860.499993994529,368.49999208734755,880.499993994529,368.49999208734755"></path><path id="kity_path_201" fill="none" stroke="rgb(115, 161, 191)" stroke-width="1" d="M575.499993994529,368.49999208734755C595.499993994529,368.49999208734755,595.499993994529,420.49999208734755,615.499993994529,420.49999208734755"></path></g><g id="minder_node1"><path id="node_outline1" fill="rgb(115, 161, 191)" stroke="rgb(115, 161, 191)" d="M26.499993994528893,169.49999208734755h203a5,5,0,0,1,5,5v54a5,5,0,0,1,-5,5h-203a5,5,0,0,1,-5,-5v-54a5,5,0,0,1,5,-5z" stroke-width="3"></path><g id="node_text1" fill="white"><text id="kity_text_22" text-rendering="inherit" font-size="16" dy=".8em" y="179.09999205669612" x="45.49999399452889">最优化方法</text><text id="kity_text_30" text-rendering="inherit" font-size="16" dy=".8em" y="203.09999205669612" x="45.49999399452889">Optimization Method</text></g></g><g id="kity_g_14" display="none"><path id="kity_path_15" fill="none" stroke="none" d="M45.49999399452889,201.49999208734755h0v0h0z"></path><path id="kity_path_16" fill="none" stroke="none"></path></g><g id="minder_node7"><g id="node_expander7" style="cursor: pointer;"><path id="kity_path_95" fill="white" stroke="gray" d="M353.49998805681884,34.499995775557466A6,6,0,1,1,341.49998805681884,34.499995775557466A6,6,0,1,1,353.49998805681884,34.499995775557466"></path><path id="kity_path_96" fill="none" stroke="gray" d="M342.99998805681884,34.499995775557466L351.99998805681884,34.499995775557466"></path></g><path id="node_outline8" fill="rgb(238, 243, 246)" stroke="rgb(115, 161, 191)" d="M357.49998672853457,21.499995775557466h276a3,3,0,0,1,3,3v20a3,3,0,0,1,-3,3h-276a3,3,0,0,1,-3,-3v-20a3,3,0,0,1,3,-3z" stroke-width="1"></path><g id="node_text8" fill="black"><text id="kity_text_88" text-rendering="inherit" font-size="14" dy=".8em" y="25.39999595787657" x="374.49998672853457">最小二乘法（Least Square Method）</text></g></g><g id="minder_node8"><g id="node_expander6" style="cursor: pointer;" display="none"><path id="kity_path_92" fill="white" stroke="gray" d="M676.4999801913482,34.499995775557466A6,6,0,1,1,664.4999801913482,34.499995775557466A6,6,0,1,1,676.4999801913482,34.499995775557466"></path><path id="kity_path_93" fill="none" stroke="gray"></path></g><path id="node_outline7" fill="none" stroke="none" d="M681.4999798379868,23.499995775557466h179a5,5,0,0,1,5,5v12a5,5,0,0,1,-5,5h-179a5,5,0,0,1,-5,-5v-12a5,5,0,0,1,5,-5z" stroke-width="3"></path><g id="node_text7" fill="black"><text id="kity_text_86" text-rendering="inherit" font-size="12" dy=".8em" y="26.699995961707998" x="686.4999798379868">正规方程（Normal Function）</text></g></g><g id="minder_node9"><g id="node_expander8" style="cursor: pointer;"><path id="kity_path_103" fill="white" stroke="gray" d="M353.49998805681884,150.4999932136871A6,6,0,1,1,341.49998805681884,150.4999932136871A6,6,0,1,1,353.49998805681884,150.4999932136871"></path><path id="kity_path_104" fill="none" stroke="gray" d="M342.99998805681884,150.4999932136871L351.99998805681884,150.4999932136871"></path></g><path id="node_outline9" fill="rgb(238, 243, 246)" stroke="rgb(115, 161, 191)" d="M357.49998672853457,137.4999932136871h249a3,3,0,0,1,3,3v20a3,3,0,0,1,-3,3h-249a3,3,0,0,1,-3,-3v-20a3,3,0,0,1,3,-3z" stroke-width="1"></path><g id="node_text9" fill="black"><text id="kity_text_100" text-rendering="inherit" font-size="14" dy=".8em" y="141.3999933960062" x="374.49998672853457">梯度下降法（Gradient Descent）</text></g></g><g id="minder_node10"><g id="node_expander9" style="cursor: pointer;" display="none"><path id="kity_path_111" fill="white" stroke="gray" d="M649.4999807876457,98.49999436211175A6,6,0,1,1,637.4999807876457,98.49999436211175A6,6,0,1,1,649.4999807876457,98.49999436211175"></path><path id="kity_path_112" fill="none" stroke="gray"></path></g><path id="node_outline10" fill="none" stroke="none" d="M654.4999804342842,87.49999436211175h242a5,5,0,0,1,5,5v12a5,5,0,0,1,-5,5h-242a5,5,0,0,1,-5,-5v-12a5,5,0,0,1,5,-5z" stroke-width="3"></path><g id="node_text10" fill="black"><text id="kity_text_108" text-rendering="inherit" font-size="12" dy=".8em" y="90.69999454826228" x="659.4999804342842">批量梯度下降（Batch Gradient Descent）</text></g></g><g id="minder_node11"><g id="node_expander10" style="cursor: pointer;" display="none"><path id="kity_path_119" fill="white" stroke="gray" d="M649.4999807876457,150.4999932136871A6,6,0,1,1,637.4999807876457,150.4999932136871A6,6,0,1,1,649.4999807876457,150.4999932136871"></path><path id="kity_path_120" fill="none" stroke="gray"></path></g><path id="node_outline11" fill="none" stroke="none" d="M654.4999804342842,139.4999932136871h267a5,5,0,0,1,5,5v12a5,5,0,0,1,-5,5h-267a5,5,0,0,1,-5,-5v-12a5,5,0,0,1,5,-5z" stroke-width="3"></path><g id="node_text11" fill="black"><text id="kity_text_116" text-rendering="inherit" font-size="12" dy=".8em" y="142.69999339983764" x="659.4999804342842">随机梯度下降（Stochastic Gradient Descent）</text></g></g><g id="minder_node12"><g id="node_expander11" style="cursor: pointer;" display="none"><path id="kity_path_127" fill="white" stroke="gray" d="M649.4999807876457,202.49999206526246A6,6,0,1,1,637.4999807876457,202.49999206526246A6,6,0,1,1,649.4999807876457,202.49999206526246"></path><path id="kity_path_128" fill="none" stroke="gray"></path></g><path id="node_outline12" fill="none" stroke="none" d="M654.4999804342842,191.49999206526246h285a5,5,0,0,1,5,5v12a5,5,0,0,1,-5,5h-285a5,5,0,0,1,-5,-5v-12a5,5,0,0,1,5,-5z" stroke-width="3"></path><g id="node_text12" fill="black"><text id="kity_text_124" text-rendering="inherit" font-size="12" dy=".8em" y="194.699992251413" x="659.4999804342842">小批量梯度下降（Mini-Batch Gradient Descent）</text></g></g><g id="kity_g_12" display="none"><path id="kity_path_13" fill="none" stroke="rgb(66, 94, 112)" d="M26.499993994528893,169.49999208734755h203a5,5,0,0,1,5,5v54a5,5,0,0,1,-5,5h-203a5,5,0,0,1,-5,-5v-54a5,5,0,0,1,5,-5z" stroke-width="5"></path></g><g id="minder_node20"><g id="node_expander24" style="cursor: pointer;"><path id="kity_path_236" fill="white" stroke="gray" d="M353.49998805681884,368.4999883991377A6,6,0,1,1,341.49998805681884,368.4999883991377A6,6,0,1,1,353.49998805681884,368.4999883991377"></path><path id="kity_path_237" fill="none" stroke="gray" d="M342.99998805681884,368.4999883991377L351.99998805681884,368.4999883991377"></path></g><path id="node_outline25" fill="rgb(238, 243, 246)" stroke="rgb(115, 161, 191)" d="M357.49998672853457,355.4999883991377h215a3,3,0,0,1,3,3v20a3,3,0,0,1,-3,3h-215a3,3,0,0,1,-3,-3v-20a3,3,0,0,1,3,-3z" stroke-width="1"></path><g id="node_text25" fill="black"><text id="kity_text_213" text-rendering="inherit" font-size="14" dy=".8em" y="359.3999885814568" x="374.49998672853457">牛顿法（Newton Method）</text></g></g><g id="minder_node21"><g id="node_expander22" style="cursor: pointer;"><path id="kity_path_230" fill="white" stroke="gray" d="M615.4999815385386,316.4999895475623A6,6,0,1,1,603.4999815385386,316.4999895475623A6,6,0,1,1,615.4999815385386,316.4999895475623"></path><path id="kity_path_231" fill="none" stroke="gray" d="M604.9999815385386,316.4999895475623L613.9999815385386,316.4999895475623"></path></g><path id="node_outline23" fill="none" stroke="none" d="M620.4999811851771,305.4999895475623h215a5,5,0,0,1,5,5v12a5,5,0,0,1,-5,5h-215a5,5,0,0,1,-5,-5v-12a5,5,0,0,1,5,-5z"></path><g id="node_text23" fill="black"><text id="kity_text_209" text-rendering="inherit" font-size="12" dy=".8em" y="308.6999897337128" x="625.4999811851771">拟牛顿法（Quasi-Newton Method）</text></g></g><g id="minder_node22"><g id="node_expander19" display="none" style="cursor: pointer;"><path id="kity_path_221" fill="white" stroke="gray" d="M880.49997568599,264.4999906959869A6,6,0,1,1,868.49997568599,264.4999906959869A6,6,0,1,1,880.49997568599,264.4999906959869"></path><path id="kity_path_222" fill="none" stroke="gray"></path></g><path id="node_outline20" fill="none" stroke="none" d="M885.4999753326285,253.49999069598692h33a5,5,0,0,1,5,5v12a5,5,0,0,1,-5,5h-33a5,5,0,0,1,-5,-5v-12a5,5,0,0,1,5,-5z"></path><g id="node_text20" fill="black"><text id="kity_text_203" text-rendering="inherit" font-size="12" dy=".8em" y="256.69999088213746" x="890.4999753326285">DFP</text></g></g><g id="minder_node23"><g id="node_expander20" display="none" style="cursor: pointer;"><path id="kity_path_224" fill="white" stroke="gray" d="M880.49997568599,316.4999895475623A6,6,0,1,1,868.49997568599,316.4999895475623A6,6,0,1,1,880.49997568599,316.4999895475623"></path><path id="kity_path_225" fill="none" stroke="gray"></path></g><path id="node_outline21" fill="none" stroke="none" d="M885.4999753326285,305.4999895475623h113a5,5,0,0,1,5,5v12a5,5,0,0,1,-5,5h-113a5,5,0,0,1,-5,-5v-12a5,5,0,0,1,5,-5z"></path><g id="node_text21" fill="black"><text id="kity_text_205" text-rendering="inherit" font-size="12" dy=".8em" y="308.6999897337128" x="890.4999753326285">变尺度法（BFGS）</text></g></g><g id="minder_node24"><g id="node_expander21" display="none" style="cursor: pointer;"><path id="kity_path_227" fill="white" stroke="gray" d="M880.49997568599,368.4999883991377A6,6,0,1,1,868.49997568599,368.4999883991377A6,6,0,1,1,880.49997568599,368.4999883991377"></path><path id="kity_path_228" fill="none" stroke="gray"></path></g><path id="node_outline22" fill="none" stroke="none" d="M885.4999753326285,357.4999883991377h51a5,5,0,0,1,5,5v12a5,5,0,0,1,-5,5h-51a5,5,0,0,1,-5,-5v-12a5,5,0,0,1,5,-5z"></path><g id="node_text22" fill="black"><text id="kity_text_207" text-rendering="inherit" font-size="12" dy=".8em" y="360.6999885852882" x="890.4999753326285">L-BFGS</text></g></g><g id="minder_node25"><g id="node_expander23" display="none" style="cursor: pointer;"><path id="kity_path_233" fill="white" stroke="gray" d="M615.4999815385386,420.499987250713A6,6,0,1,1,603.4999815385386,420.499987250713A6,6,0,1,1,615.4999815385386,420.499987250713"></path><path id="kity_path_234" fill="none" stroke="gray"></path></g><path id="node_outline24" fill="none" stroke="none" d="M620.4999811851771,409.499987250713h229a5,5,0,0,1,5,5v12a5,5,0,0,1,-5,5h-229a5,5,0,0,1,-5,-5v-12a5,5,0,0,1,5,-5z"></path><g id="node_text24" fill="black"><text id="kity_text_211" text-rendering="inherit" font-size="12" dy=".8em" y="412.6999874368635" x="625.4999811851771">高斯牛顿法（Gauss-Newton Method）</text></g></g></g></g></svg>