<svg id="kity_svg_6" xmlns="http://www.w3.org/2000/svg" xmlns:xlink="http://www.w3.org/1999/xlink" version="1.1" width="804" height="325" style="background: rgb(251, 251, 251); visibility: visible;" viewBox="0 0 804 325"><defs id="kity_defs_7"><linearGradient id="kity_linearGradient_17" x1="0" y1="0" x2="0" y2="1"><stop id="kity_stop_18" offset="0" stop-color="rgb(255, 255, 255)"></stop><stop id="kity_stop_19" offset="1" stop-color="rgb(204, 204, 204)"></stop></linearGradient><marker id="kity_marker_2" orient="auto" refX="6" refY="0" viewBox="-7 -7 14 14" markerWidth="7" markerHeight="7" markerUnits="userSpaceOnUse"><path id="kity_path_3" fill="rgb(115, 161, 191)" stroke="none" d="M6,0A6,6,0,1,1,-6,0A6,6,0,1,1,6,0"></path></marker></defs><g id="kity_g_8"><g id="minder1" text-rendering="optimize-speed"><g id="minder_connect_group1"><path id="kity_path_31" fill="none" stroke="rgb(115, 161, 191)" stroke-width="1" d="M101.99999167860602,162.5000035649015A96.5,118.5,0,0,1,198.49999167860602,44.000003564901505"></path><path id="kity_path_33" fill="none" stroke="rgb(115, 161, 191)" stroke-width="1" d="M376.499991678606,-39.499996435098495C384.499991678606,-39.999996435098495,384.499991678606,-130.4999964350985,392.499991678606,-130.4999964350985" display="none"></path><path id="kity_path_37" fill="none" stroke="rgb(115, 161, 191)" stroke-width="1" d="M513.499991678606,-130.4999964350985C521.499991678606,-130.4999964350985,521.499991678606,-195.4999964350985,529.499991678606,-195.4999964350985" display="none"></path><path id="kity_path_39" fill="none" stroke="rgb(115, 161, 191)" stroke-width="1" d="M513.499991678606,-130.4999964350985C521.499991678606,-130.4999964350985,521.499991678606,-169.4999964350985,529.499991678606,-169.4999964350985" display="none"></path><path id="kity_path_41" fill="none" stroke="rgb(115, 161, 191)" stroke-width="1" d="M746.499991678606,-169.4999964350985C754.499991678606,-169.4999964350985,754.499991678606,-169.4999964350985,762.499991678606,-169.4999964350985" display="none"></path><path id="kity_path_43" fill="none" stroke="rgb(115, 161, 191)" stroke-width="1" d="M513.499991678606,-130.4999964350985C521.499991678606,-130.4999964350985,521.499991678606,-117.4999964350985,529.499991678606,-117.4999964350985" display="none"></path><path id="kity_path_45" fill="none" stroke="rgb(115, 161, 191)" stroke-width="1" d="M694.499991678606,-117.4999964350985C702.499991678606,-117.4999964350985,702.499991678606,-117.4999964350985,710.499991678606,-117.4999964350985" display="none"></path><path id="kity_path_47" fill="none" stroke="rgb(115, 161, 191)" stroke-width="1" d="M925.499991678606,-117.4999964350985C933.499991678606,-117.4999964350985,933.499991678606,-143.4999964350985,941.499991678606,-143.4999964350985" display="none"></path><path id="kity_path_49" fill="none" stroke="rgb(115, 161, 191)" stroke-width="1" d="M925.499991678606,-117.4999964350985C933.499991678606,-117.4999964350985,933.499991678606,-117.4999964350985,941.499991678606,-117.4999964350985" display="none"></path><path id="kity_path_51" fill="none" stroke="rgb(115, 161, 191)" stroke-width="1" d="M925.499991678606,-117.4999964350985C933.499991678606,-117.4999964350985,933.499991678606,-91.4999964350985,941.499991678606,-91.4999964350985" display="none"></path><path id="kity_path_53" fill="none" stroke="rgb(115, 161, 191)" stroke-width="1" d="M513.499991678606,-130.4999964350985C521.499991678606,-130.4999964350985,521.499991678606,-65.4999964350985,529.499991678606,-65.4999964350985" display="none"></path><path id="kity_path_55" fill="none" stroke="rgb(115, 161, 191)" stroke-width="1" d="M691.499991678606,-65.4999964350985C699.499991678606,-65.4999964350985,699.499991678606,-65.4999964350985,707.499991678606,-65.4999964350985" display="none"></path><path id="kity_path_57" fill="none" stroke="rgb(115, 161, 191)" stroke-width="1" d="M376.499991678606,-39.499996435098495C384.499991678606,-39.999996435098495,384.499991678606,51.500003564901505,392.499991678606,51.500003564901505" display="none"></path><path id="kity_path_59" fill="none" stroke="rgb(115, 161, 191)" stroke-width="1" d="M526.499991678606,51.500003564901505C534.499991678606,51.500003564901505,534.499991678606,-39.499996435098495,542.499991678606,-39.499996435098495" display="none"></path><path id="kity_path_61" fill="none" stroke="rgb(115, 161, 191)" stroke-width="1" d="M526.499991678606,51.500003564901505C534.499991678606,51.500003564901505,534.499991678606,-13.499996435098495,542.499991678606,-13.499996435098495" display="none"></path><path id="kity_path_63" fill="none" stroke="rgb(115, 161, 191)" stroke-width="1" d="M716.499991678606,-13.499996435098495C724.499991678606,-13.499996435098495,724.499991678606,-13.499996435098495,732.499991678606,-13.499996435098495" display="none"></path><path id="kity_path_65" fill="none" stroke="rgb(115, 161, 191)" stroke-width="1" d="M526.499991678606,51.500003564901505C534.499991678606,51.500003564901505,534.499991678606,12.500003564901505,542.499991678606,12.500003564901505" display="none"></path><path id="kity_path_67" fill="none" stroke="rgb(115, 161, 191)" stroke-width="1" d="M777.499991678606,12.500003564901505C785.499991678606,12.500003564901505,785.499991678606,12.500003564901505,793.499991678606,12.500003564901505" display="none"></path><path id="kity_path_69" fill="none" stroke="rgb(115, 161, 191)" stroke-width="1" d="M526.499991678606,51.500003564901505C534.499991678606,51.500003564901505,534.499991678606,38.500003564901505,542.499991678606,38.500003564901505" display="none"></path><path id="kity_path_71" fill="none" stroke="rgb(115, 161, 191)" stroke-width="1" d="M526.499991678606,51.500003564901505C534.499991678606,51.500003564901505,534.499991678606,90.5000035649015,542.499991678606,90.5000035649015" display="none"></path><path id="kity_path_73" fill="none" stroke="rgb(115, 161, 191)" stroke-width="1" d="M690.499991678606,90.5000035649015C698.499991678606,90.5000035649015,698.499991678606,64.5000035649015,706.499991678606,64.5000035649015" display="none"></path><path id="kity_path_75" fill="none" stroke="rgb(115, 161, 191)" stroke-width="1" d="M736.499991678606,64.5000035649015C744.499991678606,64.5000035649015,744.499991678606,64.5000035649015,752.499991678606,64.5000035649015" display="none"></path><path id="kity_path_77" fill="none" stroke="rgb(115, 161, 191)" stroke-width="1" d="M690.499991678606,90.5000035649015C698.499991678606,90.5000035649015,698.499991678606,90.5000035649015,706.499991678606,90.5000035649015" display="none"></path><path id="kity_path_79" fill="none" stroke="rgb(115, 161, 191)" stroke-width="1" d="M741.499991678606,90.5000035649015C749.499991678606,90.5000035649015,749.499991678606,90.5000035649015,757.499991678606,90.5000035649015" display="none"></path><path id="kity_path_81" fill="none" stroke="rgb(115, 161, 191)" stroke-width="1" d="M690.499991678606,90.5000035649015C698.499991678606,90.5000035649015,698.499991678606,116.5000035649015,706.499991678606,116.5000035649015" display="none"></path><path id="kity_path_83" fill="none" stroke="rgb(115, 161, 191)" stroke-width="1" d="M748.499991678606,116.5000035649015C756.499991678606,116.5000035649015,756.499991678606,116.5000035649015,764.499991678606,116.5000035649015" display="none"></path><path id="kity_path_85" fill="none" stroke="rgb(115, 161, 191)" stroke-width="1" d="M526.499991678606,51.500003564901505C534.499991678606,51.500003564901505,534.499991678606,142.5000035649015,542.499991678606,142.5000035649015" display="none"></path><path id="kity_path_87" fill="none" stroke="rgb(115, 161, 191)" stroke-width="1" d="M101.99999167860602,162.5000035649015A96.5,55.5,0,0,1,198.49999167860602,107.0000035649015"></path><path id="kity_path_89" fill="none" stroke="rgb(115, 161, 191)" stroke-width="1" d="M393.499991678606,190.5000035649015C401.499991678606,190.0000035649015,401.499991678606,177.5000035649015,409.499991678606,177.5000035649015" display="none"></path><path id="kity_path_91" fill="none" stroke="rgb(115, 161, 191)" stroke-width="1" d="M526.499991678606,177.5000035649015C534.499991678606,177.5000035649015,534.499991678606,177.5000035649015,542.499991678606,177.5000035649015" display="none"></path><path id="kity_path_93" fill="none" stroke="rgb(115, 161, 191)" stroke-width="1" d="M393.499991678606,190.5000035649015C401.499991678606,190.0000035649015,401.499991678606,203.5000035649015,409.499991678606,203.5000035649015" display="none"></path><path id="kity_path_95" fill="none" stroke="rgb(115, 161, 191)" stroke-width="1" d="M614.499991678606,203.5000035649015C622.499991678606,203.5000035649015,622.499991678606,203.5000035649015,630.499991678606,203.5000035649015" display="none"></path><path id="kity_path_97" fill="none" stroke="rgb(115, 161, 191)" stroke-width="1" d="M101.99999167860602,162.5000035649015A96.5,31.5,0,0,0,198.49999167860602,194.0000035649015"></path><path id="kity_path_99" fill="none" stroke="rgb(115, 161, 191)" stroke-width="1" d="M367.499991678606,194.5000035649015C375.499991678606,194.0000035649015,375.499991678606,155.5000035649015,383.499991678606,155.5000035649015"></path><path id="kity_path_101" fill="none" stroke="rgb(115, 161, 191)" stroke-width="1" d="M441.499991678606,155.5000035649015C449.499991678606,155.5000035649015,449.499991678606,155.5000035649015,457.499991678606,155.5000035649015"></path><path id="kity_path_103" fill="none" stroke="rgb(115, 161, 191)" stroke-width="1" d="M367.499991678606,194.5000035649015C375.499991678606,194.0000035649015,375.499991678606,194.5000035649015,383.499991678606,194.5000035649015"></path><path id="kity_path_105" fill="none" stroke="rgb(115, 161, 191)" stroke-width="1" d="M444.499991678606,194.5000035649015C452.499991678606,194.5000035649015,452.499991678606,181.5000035649015,460.499991678606,181.5000035649015"></path><path id="kity_path_107" fill="none" stroke="rgb(115, 161, 191)" stroke-width="1" d="M367.499991678606,194.5000035649015C375.499991678606,194.0000035649015,375.499991678606,233.5000035649015,383.499991678606,233.5000035649015"></path><path id="kity_path_109" fill="none" stroke="rgb(115, 161, 191)" stroke-width="1" d="M101.99999167860602,162.5000035649015A96.5,119.5,0,0,0,198.49999167860602,282.0000035649015"></path><path id="kity_path_356" fill="none" stroke="rgb(115, 161, 191)" stroke-width="1" d="M444.499991678606,194.5000035649015C452.499991678606,194.5000035649015,452.499991678606,207.5000035649015,460.499991678606,207.5000035649015"></path></g><g id="minder_node1"><path id="node_outline1" fill="rgb(115, 161, 191)" stroke="rgb(115, 161, 191)" d="M26.499991678606023,136.5000035649015h151a5,5,0,0,1,5,5v42a5,5,0,0,1,-5,5h-151a5,5,0,0,1,-5,-5v-42a5,5,0,0,1,5,-5z" stroke-width="3"></path><g id="node_text1" fill="white"><text id="kity_text_22" text-rendering="inherit" font-size="16" dy=".8em" y="140.10000353425008" x="33.49999167860602">机器学习</text><text id="kity_text_194" text-rendering="inherit" font-size="16" dy=".8em" y="164.10000353425008" x="33.49999167860602">Machine Learning</text></g></g><g id="kity_g_12"><path id="kity_path_13" fill="none" stroke="none" d="M33.49999167860602,162.5000035649015h0v0h0z"></path></g><g id="kity_g_14"><path id="kity_path_15" fill="none" stroke="none" d="M33.49999167860602,162.5000035649015h0v0h0z"></path><path id="kity_path_16" fill="none" stroke="none"></path></g><g id="minder_node2"><g id="node_expander28" style="cursor: pointer;"><path id="kity_path_317" fill="white" stroke="gray" d="M199.4999888769786,44.0000061819846A6,6,0,1,1,187.4999888769786,44.0000061819846A6,6,0,1,1,199.4999888769786,44.0000061819846"></path><path id="kity_path_318" fill="none" stroke="gray" d="M188.9999888769786,44.0000061819846L197.9999888769786,44.0000061819846M193.4999888769786,39.5000061819846L193.4999888769786,48.5000061819846"></path></g><path id="node_outline29" fill="rgb(238, 243, 246)" stroke="rgb(115, 161, 191)" d="M203.49998754869432,20.500006193027147h170a3,3,0,0,1,3,3v41a3,3,0,0,1,-3,3h-170a3,3,0,0,1,-3,-3v-41a3,3,0,0,1,3,-3z" stroke-width="1"></path><g id="node_text29" fill="black"><text id="kity_text_165" text-rendering="inherit" font-size="14" dy=".8em" y="23.90000637534625" x="220.49998754869432">监督学习</text><text id="kity_text_166" text-rendering="inherit" font-size="14" dy=".8em" y="44.90000637534625" x="220.49998754869432">Supervised Learning</text></g></g><g id="minder_node3" display="none"><g id="node_expander12" style="cursor: pointer;" display="none"><path id="kity_path_269" fill="white" stroke="gray" d="M392.4999836734304,36.50000634762276A6,6,0,1,1,380.4999836734304,36.50000634762276A6,6,0,1,1,392.4999836734304,36.50000634762276"></path><path id="kity_path_270" fill="none" stroke="gray" d="M381.9999836734304,36.50000634762276L390.9999836734304,36.50000634762276"></path></g><path id="node_outline13" fill="none" stroke="none" d="M392.49998375005896,27.500006347622758h111a5,5,0,0,1,5,5v8a5,5,0,0,1,-5,5h-111a5,5,0,0,1,-5,-5v-8a5,5,0,0,1,5,-5z"></path><g id="node_text13" fill="black"><text id="kity_text_133" text-rendering="inherit" font-size="12" dy=".8em" y="28.70000653377329" x="392.49998375005896">回归（Regression）</text></g></g><g id="minder_node5" display="none"><g id="node_expander2" style="cursor: pointer;" display="none"><path id="kity_path_239" fill="white" stroke="gray" d="M408.49998332006896,12.500006877664902A6,6,0,1,1,396.49998332006896,12.500006877664902A6,6,0,1,1,408.49998332006896,12.500006877664902"></path><path id="kity_path_240" fill="none" stroke="gray"></path></g><path id="node_outline3" fill="none" stroke="none" d="M408.49998339669753,3.5000068776649016h184a5,5,0,0,1,5,5v8a5,5,0,0,1,-5,5h-184a5,5,0,0,1,-5,-5v-8a5,5,0,0,1,5,-5z" stroke-width="3"></path><g id="node_text3" fill="black"><text id="kity_text_113" text-rendering="inherit" font-size="12" dy=".8em" y="4.700007063815434" x="408.49998339669753">梯度下降法（Gradient Descent）</text></g></g><g id="minder_node6" display="none"><g id="node_expander4" style="cursor: pointer;" display="none"><path id="kity_path_245" fill="white" stroke="gray" d="M408.49998332006896,20.500006700984187A6,6,0,1,1,396.49998332006896,20.500006700984187A6,6,0,1,1,408.49998332006896,20.500006700984187"></path><path id="kity_path_246" fill="none" stroke="gray" d="M397.99998332006896,20.500006700984187L406.99998332006896,20.500006700984187"></path></g><path id="node_outline5" fill="none" stroke="none" d="M408.49998339669753,11.500006700984187h207a5,5,0,0,1,5,5v8a5,5,0,0,1,-5,5h-207a5,5,0,0,1,-5,-5v-8a5,5,0,0,1,5,-5z"></path><g id="node_text5" fill="black"><text id="kity_text_117" text-rendering="inherit" font-size="12" dy=".8em" y="12.70000688713472" x="408.49998339669753">最小二乘法（Least Square Method）</text></g></g><g id="minder_node7" display="none"><g id="node_expander3" style="cursor: pointer;" display="none"><path id="kity_path_242" fill="white" stroke="gray" d="M424.4999829667075,20.500006700984187A6,6,0,1,1,412.4999829667075,20.500006700984187A6,6,0,1,1,424.4999829667075,20.500006700984187"></path><path id="kity_path_243" fill="none" stroke="gray"></path></g><path id="node_outline4" fill="none" stroke="none" d="M424.49998304333604,11.500006700984187h169a5,5,0,0,1,5,5v8a5,5,0,0,1,-5,5h-169a5,5,0,0,1,-5,-5v-8a5,5,0,0,1,5,-5z"></path><g id="node_text4" fill="black"><text id="kity_text_115" text-rendering="inherit" font-size="12" dy=".8em" y="12.70000688713472" x="424.49998304333604">正规方程（Normal Function）</text></g></g><g id="minder_node8" display="none"><g id="node_expander9" style="cursor: pointer;" display="none"><path id="kity_path_260" fill="white" stroke="gray" d="M408.49998332006896,28.500006524303473A6,6,0,1,1,396.49998332006896,28.500006524303473A6,6,0,1,1,408.49998332006896,28.500006524303473"></path><path id="kity_path_261" fill="none" stroke="gray" d="M397.99998332006896,28.500006524303473L406.99998332006896,28.500006524303473"></path></g><path id="node_outline10" fill="none" stroke="none" d="M408.49998339669753,19.500006524303473h155a5,5,0,0,1,5,5v8a5,5,0,0,1,-5,5h-155a5,5,0,0,1,-5,-5v-8a5,5,0,0,1,5,-5z"></path><g id="node_text10" fill="black"><text id="kity_text_127" text-rendering="inherit" font-size="12" dy=".8em" y="20.700006710454005" x="408.49998339669753">牛顿法（Newton Method）</text></g></g><g id="minder_node9" display="none"><g id="node_expander8" style="cursor: pointer;" display="none"><path id="kity_path_257" fill="white" stroke="gray" d="M424.4999829667075,28.500006524303473A6,6,0,1,1,412.4999829667075,28.500006524303473A6,6,0,1,1,424.4999829667075,28.500006524303473"></path><path id="kity_path_258" fill="none" stroke="gray" d="M413.9999829667075,28.500006524303473L422.9999829667075,28.500006524303473"></path></g><path id="node_outline9" fill="none" stroke="none" d="M424.49998304333604,19.500006524303473h205a5,5,0,0,1,5,5v8a5,5,0,0,1,-5,5h-205a5,5,0,0,1,-5,-5v-8a5,5,0,0,1,5,-5z"></path><g id="node_text9" fill="black"><text id="kity_text_125" text-rendering="inherit" font-size="12" dy=".8em" y="20.700006710454005" x="424.49998304333604">拟牛顿法（Quasi-Newton Method）</text></g></g><g id="minder_node10" display="none"><g id="node_expander5" style="cursor: pointer;" display="none"><path id="kity_path_248" fill="white" stroke="gray" d="M440.4999826133461,12.500006877664902A6,6,0,1,1,428.4999826133461,12.500006877664902A6,6,0,1,1,440.4999826133461,12.500006877664902"></path><path id="kity_path_249" fill="none" stroke="gray"></path></g><path id="node_outline6" fill="none" stroke="none" d="M440.4999826899747,3.5000068776649016h23a5,5,0,0,1,5,5v8a5,5,0,0,1,-5,5h-23a5,5,0,0,1,-5,-5v-8a5,5,0,0,1,5,-5z"></path><g id="node_text6" fill="black"><text id="kity_text_119" text-rendering="inherit" font-size="12" dy=".8em" y="4.700007063815434" x="440.4999826899747">DFP</text></g></g><g id="minder_node11" display="none"><g id="node_expander6" style="cursor: pointer;" display="none"><path id="kity_path_251" fill="white" stroke="gray" d="M440.4999826133461,20.500006700984187A6,6,0,1,1,428.4999826133461,20.500006700984187A6,6,0,1,1,440.4999826133461,20.500006700984187"></path><path id="kity_path_252" fill="none" stroke="gray"></path></g><path id="node_outline7" fill="none" stroke="none" d="M440.4999826899747,11.500006700984187h30a5,5,0,0,1,5,5v8a5,5,0,0,1,-5,5h-30a5,5,0,0,1,-5,-5v-8a5,5,0,0,1,5,-5z"></path><g id="node_text7" fill="black"><text id="kity_text_121" text-rendering="inherit" font-size="12" dy=".8em" y="12.70000688713472" x="440.4999826899747">BFGS</text></g></g><g id="minder_node12" display="none"><g id="node_expander7" style="cursor: pointer;" display="none"><path id="kity_path_254" fill="white" stroke="gray" d="M440.4999826133461,28.500006524303473A6,6,0,1,1,428.4999826133461,28.500006524303473A6,6,0,1,1,440.4999826133461,28.500006524303473"></path><path id="kity_path_255" fill="none" stroke="gray"></path></g><path id="node_outline8" fill="none" stroke="none" d="M440.4999826899747,19.500006524303473h41a5,5,0,0,1,5,5v8a5,5,0,0,1,-5,5h-41a5,5,0,0,1,-5,-5v-8a5,5,0,0,1,5,-5z"></path><g id="node_text8" fill="black"><text id="kity_text_123" text-rendering="inherit" font-size="12" dy=".8em" y="20.700006710454005" x="440.4999826899747">L-BFGS</text></g></g><g id="minder_node13" display="none"><g id="node_expander11" style="cursor: pointer;" display="none"><path id="kity_path_266" fill="white" stroke="gray" d="M408.49998332006896,36.50000634762276A6,6,0,1,1,396.49998332006896,36.50000634762276A6,6,0,1,1,408.49998332006896,36.50000634762276"></path><path id="kity_path_267" fill="none" stroke="gray" d="M397.99998332006896,36.50000634762276L406.99998332006896,36.50000634762276"></path></g><path id="node_outline12" fill="none" stroke="none" d="M408.49998339669753,27.500006347622758h152a5,5,0,0,1,5,5v8a5,5,0,0,1,-5,5h-152a5,5,0,0,1,-5,-5v-8a5,5,0,0,1,5,-5z"></path><g id="node_text12" fill="black"><text id="kity_text_131" text-rendering="inherit" font-size="12" dy=".8em" y="28.70000653377329" x="408.49998339669753">回归树（Regression Tree）</text></g></g><g id="minder_node14" display="none"><g id="node_expander10" style="cursor: pointer;" display="none"><path id="kity_path_263" fill="white" stroke="gray" d="M424.4999829667075,36.50000634762276A6,6,0,1,1,412.4999829667075,36.50000634762276A6,6,0,1,1,424.4999829667075,36.50000634762276"></path><path id="kity_path_264" fill="none" stroke="gray"></path></g><path id="node_outline11" fill="none" stroke="none" d="M424.49998304333604,27.500006347622758h283a5,5,0,0,1,5,5v8a5,5,0,0,1,-5,5h-283a5,5,0,0,1,-5,-5v-8a5,5,0,0,1,5,-5z" stroke-width="3"></path><g id="node_text11" fill="black"><text id="kity_text_129" text-rendering="inherit" font-size="12" dy=".8em" y="28.70000653377329" x="424.49998304333604">最小二乘回归树（Least Squares Regression Tree）</text></g></g><g id="minder_node15" display="none"><g id="node_expander27" style="cursor: pointer;" display="none"><path id="kity_path_314" fill="white" stroke="gray" d="M392.4999836734304,44.500006170942044A6,6,0,1,1,380.4999836734304,44.500006170942044A6,6,0,1,1,392.4999836734304,44.500006170942044"></path><path id="kity_path_315" fill="none" stroke="gray" d="M381.9999836734304,44.500006170942044L390.9999836734304,44.500006170942044"></path></g><path id="node_outline28" fill="none" stroke="none" d="M392.49998375005896,35.500006170942044h124a5,5,0,0,1,5,5v8a5,5,0,0,1,-5,5h-124a5,5,0,0,1,-5,-5v-8a5,5,0,0,1,5,-5z"></path><g id="node_text28" fill="black"><text id="kity_text_163" text-rendering="inherit" font-size="12" dy=".8em" y="36.700006357092576" x="392.49998375005896">分类（Classification）</text></g></g><g id="minder_node16" display="none"><g id="node_expander13" style="cursor: pointer;" display="none"><path id="kity_path_272" fill="white" stroke="gray" d="M408.49998332006896,4.500007054345616A6,6,0,1,1,396.49998332006896,4.500007054345616A6,6,0,1,1,408.49998332006896,4.500007054345616"></path><path id="kity_path_273" fill="none" stroke="gray"></path></g><path id="node_outline14" fill="none" stroke="none" d="M408.49998339669753,-4.499992945654384h183a5,5,0,0,1,5,5v8a5,5,0,0,1,-5,5h-183a5,5,0,0,1,-5,-5v-8a5,5,0,0,1,5,-5z"></path><g id="node_text14" fill="black"><text id="kity_text_135" text-rendering="inherit" font-size="12" dy=".8em" y="-3.2999927595038514" x="408.49998339669753">逻辑回归（Logistic Regression）</text></g></g><g id="minder_node17" display="none"><g id="node_expander15" style="cursor: pointer;" display="none"><path id="kity_path_278" fill="white" stroke="gray" d="M408.49998332006896,12.500006877664902A6,6,0,1,1,396.49998332006896,12.500006877664902A6,6,0,1,1,408.49998332006896,12.500006877664902"></path><path id="kity_path_279" fill="none" stroke="gray" d="M397.99998332006896,12.500006877664902L406.99998332006896,12.500006877664902"></path></g><path id="node_outline16" fill="none" stroke="none" d="M408.49998339669753,3.5000068776649016h164a5,5,0,0,1,5,5v8a5,5,0,0,1,-5,5h-164a5,5,0,0,1,-5,-5v-8a5,5,0,0,1,5,-5z"></path><g id="node_text16" fill="black"><text id="kity_text_139" text-rendering="inherit" font-size="12" dy=".8em" y="4.700007063815434" x="408.49998339669753">神经网络（Neural Network）</text></g></g><g id="minder_node18" display="none"><g id="node_expander14" style="cursor: pointer;" display="none"><path id="kity_path_275" fill="white" stroke="gray" d="M424.4999829667075,12.500006877664902A6,6,0,1,1,412.4999829667075,12.500006877664902A6,6,0,1,1,424.4999829667075,12.500006877664902"></path><path id="kity_path_276" fill="none" stroke="gray"></path></g><path id="node_outline15" fill="none" stroke="none" d="M424.49998304333604,3.5000068776649016h301a5,5,0,0,1,5,5v8a5,5,0,0,1,-5,5h-301a5,5,0,0,1,-5,-5v-8a5,5,0,0,1,5,-5z"></path><g id="node_text15" fill="black"><text id="kity_text_137" text-rendering="inherit" font-size="12" dy=".8em" y="4.700007063815434" x="424.49998304333604">前馈神经网络（Feedforward Neural Network，FNN）</text></g></g><g id="minder_node19" display="none"><g id="node_expander17" style="cursor: pointer;" display="none"><path id="kity_path_284" fill="white" stroke="gray" d="M408.49998332006896,20.500006700984187A6,6,0,1,1,396.49998332006896,20.500006700984187A6,6,0,1,1,408.49998332006896,20.500006700984187"></path><path id="kity_path_285" fill="none" stroke="gray" d="M397.99998332006896,20.500006700984187L406.99998332006896,20.500006700984187"></path></g><path id="node_outline18" fill="none" stroke="none" d="M408.49998339669753,11.500006700984187h225a5,5,0,0,1,5,5v8a5,5,0,0,1,-5,5h-225a5,5,0,0,1,-5,-5v-8a5,5,0,0,1,5,-5z"></path><g id="node_text18" fill="black"><text id="kity_text_143" text-rendering="inherit" font-size="12" dy=".8em" y="12.70000688713472" x="408.49998339669753">支持向量机（Support Vector Machine）</text></g></g><g id="minder_node20" display="none"><g id="node_expander16" style="cursor: pointer;" display="none"><path id="kity_path_281" fill="white" stroke="gray" d="M424.4999829667075,20.500006700984187A6,6,0,1,1,412.4999829667075,20.500006700984187A6,6,0,1,1,424.4999829667075,20.500006700984187"></path><path id="kity_path_282" fill="none" stroke="gray"></path></g><path id="node_outline17" fill="none" stroke="none" d="M424.49998304333604,11.500006700984187h326a5,5,0,0,1,5,5v8a5,5,0,0,1,-5,5h-326a5,5,0,0,1,-5,-5v-8a5,5,0,0,1,5,-5z"></path><g id="node_text17" fill="black"><text id="kity_text_141" text-rendering="inherit" font-size="12" dy=".8em" y="12.70000688713472" x="424.49998304333604">序列最小优化（Sequential Minimal Optimization，SMO）</text></g></g><g id="minder_node21" display="none"><g id="node_expander18" style="cursor: pointer;" display="none"><path id="kity_path_287" fill="white" stroke="gray" d="M408.49998332006896,28.500006524303473A6,6,0,1,1,396.49998332006896,28.500006524303473A6,6,0,1,1,408.49998332006896,28.500006524303473"></path><path id="kity_path_288" fill="none" stroke="gray"></path></g><path id="node_outline19" fill="none" stroke="none" d="M408.49998339669753,19.500006524303473h176a5,5,0,0,1,5,5v8a5,5,0,0,1,-5,5h-176a5,5,0,0,1,-5,-5v-8a5,5,0,0,1,5,-5z"></path><g id="node_text19" fill="black"><text id="kity_text_145" text-rendering="inherit" font-size="12" dy=".8em" y="20.700006710454005" x="408.49998339669753">K-近邻（K-Nearest Neighbor）</text></g></g><g id="minder_node22" display="none"><g id="node_expander25" style="cursor: pointer;" display="none"><path id="kity_path_308" fill="white" stroke="gray" d="M408.49998332006896,36.50000634762276A6,6,0,1,1,396.49998332006896,36.50000634762276A6,6,0,1,1,408.49998332006896,36.50000634762276"></path><path id="kity_path_309" fill="none" stroke="gray" d="M397.99998332006896,36.50000634762276L406.99998332006896,36.50000634762276"></path></g><path id="node_outline26" fill="none" stroke="none" d="M408.49998339669753,27.500006347622758h138a5,5,0,0,1,5,5v8a5,5,0,0,1,-5,5h-138a5,5,0,0,1,-5,-5v-8a5,5,0,0,1,5,-5z"></path><g id="node_text26" fill="black"><text id="kity_text_159" text-rendering="inherit" font-size="12" dy=".8em" y="28.70000653377329" x="408.49998339669753">决策树（Decision Tree）</text></g></g><g id="minder_node23" display="none"><g id="node_expander20" style="cursor: pointer;" display="none"><path id="kity_path_293" fill="white" stroke="gray" d="M424.4999829667075,20.500006700984187A6,6,0,1,1,412.4999829667075,20.500006700984187A6,6,0,1,1,424.4999829667075,20.500006700984187"></path><path id="kity_path_294" fill="none" stroke="gray" d="M413.9999829667075,20.500006700984187L422.9999829667075,20.500006700984187"></path></g><path id="node_outline21" fill="none" stroke="none" d="M424.49998304333604,11.500006700984187h20a5,5,0,0,1,5,5v8a5,5,0,0,1,-5,5h-20a5,5,0,0,1,-5,-5v-8a5,5,0,0,1,5,-5z"></path><g id="node_text21" fill="black"><text id="kity_text_149" text-rendering="inherit" font-size="12" dy=".8em" y="12.70000688713472" x="424.49998304333604">ID3</text></g></g><g id="minder_node24" display="none"><g id="node_expander19" style="cursor: pointer;" display="none"><path id="kity_path_290" fill="white" stroke="gray" d="M440.4999826133461,20.500006700984187A6,6,0,1,1,428.4999826133461,20.500006700984187A6,6,0,1,1,440.4999826133461,20.500006700984187"></path><path id="kity_path_291" fill="none" stroke="gray"></path></g><path id="node_outline20" fill="none" stroke="none" d="M440.4999826899747,11.500006700984187h170a5,5,0,0,1,5,5v8a5,5,0,0,1,-5,5h-170a5,5,0,0,1,-5,-5v-8a5,5,0,0,1,5,-5z"></path><g id="node_text20" fill="black"><text id="kity_text_147" text-rendering="inherit" font-size="12" dy=".8em" y="12.70000688713472" x="440.4999826899747">信息增益（Information Gain）</text></g></g><g id="minder_node25" display="none"><g id="node_expander22" style="cursor: pointer;" display="none"><path id="kity_path_299" fill="white" stroke="gray" d="M424.4999829667075,28.500006524303473A6,6,0,1,1,412.4999829667075,28.500006524303473A6,6,0,1,1,424.4999829667075,28.500006524303473"></path><path id="kity_path_300" fill="none" stroke="gray" d="M413.9999829667075,28.500006524303473L422.9999829667075,28.500006524303473"></path></g><path id="node_outline23" fill="none" stroke="none" d="M424.49998304333604,19.500006524303473h25a5,5,0,0,1,5,5v8a5,5,0,0,1,-5,5h-25a5,5,0,0,1,-5,-5v-8a5,5,0,0,1,5,-5z"></path><g id="node_text23" fill="black"><text id="kity_text_153" text-rendering="inherit" font-size="12" dy=".8em" y="20.700006710454005" x="424.49998304333604">C4.5</text></g></g><g id="minder_node26" display="none"><g id="node_expander21" style="cursor: pointer;" display="none"><path id="kity_path_296" fill="white" stroke="gray" d="M440.4999826133461,28.500006524303473A6,6,0,1,1,428.4999826133461,28.500006524303473A6,6,0,1,1,440.4999826133461,28.500006524303473"></path><path id="kity_path_297" fill="none" stroke="gray"></path></g><path id="node_outline22" fill="none" stroke="none" d="M440.4999826899747,19.500006524303473h120a5,5,0,0,1,5,5v8a5,5,0,0,1,-5,5h-120a5,5,0,0,1,-5,-5v-8a5,5,0,0,1,5,-5z"></path><g id="node_text22" fill="black"><text id="kity_text_151" text-rendering="inherit" font-size="12" dy=".8em" y="20.700006710454005" x="440.4999826899747">增益率（Gain Ratio）</text></g></g><g id="minder_node27" display="none"><g id="node_expander24" style="cursor: pointer;" display="none"><path id="kity_path_305" fill="white" stroke="gray" d="M424.4999829667075,36.50000634762276A6,6,0,1,1,412.4999829667075,36.50000634762276A6,6,0,1,1,424.4999829667075,36.50000634762276"></path><path id="kity_path_306" fill="none" stroke="gray" d="M413.9999829667075,36.50000634762276L422.9999829667075,36.50000634762276"></path></g><path id="node_outline25" fill="none" stroke="none" d="M424.49998304333604,27.500006347622758h32a5,5,0,0,1,5,5v8a5,5,0,0,1,-5,5h-32a5,5,0,0,1,-5,-5v-8a5,5,0,0,1,5,-5z"></path><g id="node_text25" fill="black"><text id="kity_text_157" text-rendering="inherit" font-size="12" dy=".8em" y="28.70000653377329" x="424.49998304333604">CART</text></g></g><g id="minder_node28" display="none"><g id="node_expander23" style="cursor: pointer;" display="none"><path id="kity_path_302" fill="white" stroke="gray" d="M440.4999826133461,36.50000634762276A6,6,0,1,1,428.4999826133461,36.50000634762276A6,6,0,1,1,440.4999826133461,36.50000634762276"></path><path id="kity_path_303" fill="none" stroke="gray"></path></g><path id="node_outline24" fill="none" stroke="none" d="M440.4999826899747,27.500006347622758h131a5,5,0,0,1,5,5v8a5,5,0,0,1,-5,5h-131a5,5,0,0,1,-5,-5v-8a5,5,0,0,1,5,-5z"></path><g id="node_text24" fill="black"><text id="kity_text_155" text-rendering="inherit" font-size="12" dy=".8em" y="28.70000653377329" x="440.4999826899747">基尼系数（Gini Index）</text></g></g><g id="minder_node29" display="none"><g id="node_expander26" style="cursor: pointer;" display="none"><path id="kity_path_311" fill="white" stroke="gray" d="M408.49998332006896,44.500006170942044A6,6,0,1,1,396.49998332006896,44.500006170942044A6,6,0,1,1,408.49998332006896,44.500006170942044"></path><path id="kity_path_312" fill="none" stroke="gray"></path></g><path id="node_outline27" fill="none" stroke="none" d="M408.49998339669753,35.500006170942044h171a5,5,0,0,1,5,5v8a5,5,0,0,1,-5,5h-171a5,5,0,0,1,-5,-5v-8a5,5,0,0,1,5,-5z"></path><g id="node_text27" fill="black"><text id="kity_text_161" text-rendering="inherit" font-size="12" dy=".8em" y="36.700006357092576" x="408.49998339669753">朴素贝叶斯（Naive Bayesian）</text></g></g><g id="minder_node30"><g id="node_expander33" style="cursor: pointer;"><path id="kity_path_332" fill="white" stroke="gray" d="M199.4999888769786,107.00000479062396A6,6,0,1,1,187.4999888769786,107.00000479062396A6,6,0,1,1,199.4999888769786,107.00000479062396"></path><path id="kity_path_333" fill="none" stroke="gray" d="M188.9999888769786,107.00000479062396L197.9999888769786,107.00000479062396M193.4999888769786,102.50000479062396L193.4999888769786,111.50000479062396"></path></g><path id="node_outline34" fill="rgb(238, 243, 246)" stroke="rgb(115, 161, 191)" d="M203.49998754869432,83.5000048016665h187a3,3,0,0,1,3,3v41a3,3,0,0,1,-3,3h-187a3,3,0,0,1,-3,-3v-41a3,3,0,0,1,3,-3z" stroke-width="1"></path><g id="node_text34" fill="black"><text id="kity_text_176" text-rendering="inherit" font-size="14" dy=".8em" y="86.90000498398561" x="220.49998754869432">无监督学习</text><text id="kity_text_177" text-rendering="inherit" font-size="14" dy=".8em" y="107.90000498398561" x="220.49998754869432">Unsupervised Learning</text></g></g><g id="minder_node31" display="none"><g id="node_expander30" style="cursor: pointer;" display="none"><path id="kity_path_323" fill="white" stroke="gray" d="M409.4999832979839,99.50000495626213A6,6,0,1,1,397.4999832979839,99.50000495626213A6,6,0,1,1,409.4999832979839,99.50000495626213"></path><path id="kity_path_324" fill="none" stroke="gray" d="M398.9999832979839,99.50000495626213L407.9999832979839,99.50000495626213"></path></g><path id="node_outline31" fill="none" stroke="none" d="M409.49998337461244,90.50000495626213h107a5,5,0,0,1,5,5v8a5,5,0,0,1,-5,5h-107a5,5,0,0,1,-5,-5v-8a5,5,0,0,1,5,-5z" stroke-width="3"></path><g id="node_text31" fill="black"><text id="kity_text_170" text-rendering="inherit" font-size="12" dy=".8em" y="91.70000514241266" x="409.49998337461244">聚类（Clustering）</text></g></g><g id="minder_node32" display="none"><g id="node_expander29" style="cursor: pointer;" display="none"><path id="kity_path_320" fill="white" stroke="gray" d="M425.49998294462245,99.50000495626213A6,6,0,1,1,413.49998294462245,99.50000495626213A6,6,0,1,1,425.49998294462245,99.50000495626213"></path><path id="kity_path_321" fill="none" stroke="gray"></path></g><path id="node_outline30" fill="none" stroke="none" d="M425.499983021251,90.50000495626213h112a5,5,0,0,1,5,5v8a5,5,0,0,1,-5,5h-112a5,5,0,0,1,-5,-5v-8a5,5,0,0,1,5,-5z"></path><g id="node_text30" fill="black"><text id="kity_text_168" text-rendering="inherit" font-size="12" dy=".8em" y="91.70000514241266" x="425.499983021251">K-均值（K-Means）</text></g></g><g id="minder_node33" display="none"><g id="node_expander32" style="cursor: pointer;" display="none"><path id="kity_path_329" fill="white" stroke="gray" d="M409.4999832979839,107.50000477958142A6,6,0,1,1,397.4999832979839,107.50000477958142A6,6,0,1,1,409.4999832979839,107.50000477958142"></path><path id="kity_path_330" fill="none" stroke="gray" d="M398.9999832979839,107.50000477958142L407.9999832979839,107.50000477958142"></path></g><path id="node_outline33" fill="none" stroke="none" d="M409.49998337461244,98.50000477958142h195a5,5,0,0,1,5,5v8a5,5,0,0,1,-5,5h-195a5,5,0,0,1,-5,-5v-8a5,5,0,0,1,5,-5z"></path><g id="node_text33" fill="black"><text id="kity_text_174" text-rendering="inherit" font-size="12" dy=".8em" y="99.70000496573195" x="409.49998337461244">降维（Dimensionality Reduction）</text></g></g><g id="minder_node34" display="none"><g id="node_expander31" style="cursor: pointer;" display="none"><path id="kity_path_326" fill="white" stroke="gray" d="M425.49998294462245,107.50000477958142A6,6,0,1,1,413.49998294462245,107.50000477958142A6,6,0,1,1,425.49998294462245,107.50000477958142"></path><path id="kity_path_327" fill="none" stroke="gray"></path></g><path id="node_outline32" fill="none" stroke="none" d="M425.499983021251,98.50000477958142h267a5,5,0,0,1,5,5v8a5,5,0,0,1,-5,5h-267a5,5,0,0,1,-5,-5v-8a5,5,0,0,1,5,-5z"></path><g id="node_text32" fill="black"><text id="kity_text_172" text-rendering="inherit" font-size="12" dy=".8em" y="99.70000496573195" x="425.499983021251">主成分分析法（Principal Component Analysis）</text></g></g><g id="minder_node35"><g id="node_expander39" style="cursor: pointer;"><path id="kity_path_350" fill="white" stroke="gray" d="M199.4999888769786,194.0000028692212A6,6,0,1,1,187.4999888769786,194.0000028692212A6,6,0,1,1,199.4999888769786,194.0000028692212"></path><path id="kity_path_351" fill="none" stroke="gray" d="M188.9999888769786,194.0000028692212L197.9999888769786,194.0000028692212"></path></g><path id="node_outline40" fill="rgb(238, 243, 246)" stroke="rgb(115, 161, 191)" d="M203.49998754869432,170.50000288026374h161a3,3,0,0,1,3,3v41a3,3,0,0,1,-3,3h-161a3,3,0,0,1,-3,-3v-41a3,3,0,0,1,3,-3z" stroke-width="1"></path><g id="node_text40" fill="black"><text id="kity_text_189" text-rendering="inherit" font-size="14" dy=".8em" y="173.90000306258284" x="220.49998754869432">集成学习</text><text id="kity_text_190" text-rendering="inherit" font-size="14" dy=".8em" y="194.90000306258284" x="220.49998754869432">Ensemble Learning</text></g></g><g id="minder_node36"><g id="node_expander35" style="cursor: pointer;"><path id="kity_path_338" fill="white" stroke="gray" d="M383.49998397676575,155.50000371949713A6,6,0,1,1,371.49998397676575,155.50000371949713A6,6,0,1,1,383.49998397676575,155.50000371949713"></path><path id="kity_path_339" fill="none" stroke="gray" d="M372.99998397676575,155.50000371949713L381.99998397676575,155.50000371949713"></path></g><path id="node_outline36" fill="none" stroke="none" d="M388.4999838383993,146.50000371949713h48a5,5,0,0,1,5,5v8a5,5,0,0,1,-5,5h-48a5,5,0,0,1,-5,-5v-8a5,5,0,0,1,5,-5z"></path><g id="node_text36" fill="black"><text id="kity_text_181" text-rendering="inherit" font-size="12" dy=".8em" y="147.70000390564766" x="388.4999838383993">Bagging</text></g></g><g id="minder_node37"><g id="node_expander34" style="cursor: pointer;" display="none"><path id="kity_path_335" fill="white" stroke="gray" d="M457.49998234246914,155.50000371949713A6,6,0,1,1,445.49998234246914,155.50000371949713A6,6,0,1,1,457.49998234246914,155.50000371949713"></path><path id="kity_path_336" fill="none" stroke="gray"></path></g><path id="node_outline35" fill="none" stroke="none" d="M462.4999822041027,146.50000371949713h159a5,5,0,0,1,5,5v8a5,5,0,0,1,-5,5h-159a5,5,0,0,1,-5,-5v-8a5,5,0,0,1,5,-5z"></path><g id="node_text35" fill="black"><text id="kity_text_179" text-rendering="inherit" font-size="12" dy=".8em" y="147.70000390564766" x="462.4999822041027">随机森林（Random Forest）</text></g></g><g id="minder_node38"><g id="node_expander37" style="cursor: pointer;"><path id="kity_path_344" fill="white" stroke="gray" d="M383.49998397676575,194.50000285817865A6,6,0,1,1,371.49998397676575,194.50000285817865A6,6,0,1,1,383.49998397676575,194.50000285817865"></path><path id="kity_path_345" fill="none" stroke="gray" d="M372.99998397676575,194.50000285817865L381.99998397676575,194.50000285817865"></path></g><path id="node_outline38" fill="none" stroke="none" d="M388.4999838383993,185.50000285817865h51a5,5,0,0,1,5,5v8a5,5,0,0,1,-5,5h-51a5,5,0,0,1,-5,-5v-8a5,5,0,0,1,5,-5z" stroke-width="3"></path><g id="node_text38" fill="black"><text id="kity_text_185" text-rendering="inherit" font-size="12" dy=".8em" y="186.70000304432918" x="388.4999838383993">Boosting</text></g></g><g id="minder_node39"><g id="node_expander36" style="cursor: pointer;" display="none"><path id="kity_path_341" fill="white" stroke="gray" d="M460.49998227621387,181.5000031452848A6,6,0,1,1,448.49998227621387,181.5000031452848A6,6,0,1,1,460.49998227621387,181.5000031452848"></path><path id="kity_path_342" fill="none" stroke="gray" d="M449.99998227621387,181.5000031452848L458.99998227621387,181.5000031452848"></path></g><path id="node_outline37" fill="none" stroke="none" d="M465.49998213784744,172.5000031452848h57a5,5,0,0,1,5,5v8a5,5,0,0,1,-5,5h-57a5,5,0,0,1,-5,-5v-8a5,5,0,0,1,5,-5z" stroke-width="3"></path><g id="node_text37" fill="black"><text id="kity_text_183" text-rendering="inherit" font-size="12" dy=".8em" y="173.70000333143534" x="465.49998213784744">AdaBoost</text></g></g><g id="minder_node40"><g id="node_expander38" style="cursor: pointer;" display="none"><path id="kity_path_347" fill="white" stroke="gray" d="M383.49998397676575,233.5000019968602A6,6,0,1,1,371.49998397676575,233.5000019968602A6,6,0,1,1,383.49998397676575,233.5000019968602"></path><path id="kity_path_348" fill="none" stroke="gray"></path></g><path id="node_outline39" fill="none" stroke="none" d="M388.4999838383993,224.5000019968602h49a5,5,0,0,1,5,5v8a5,5,0,0,1,-5,5h-49a5,5,0,0,1,-5,-5v-8a5,5,0,0,1,5,-5z"></path><g id="node_text39" fill="black"><text id="kity_text_187" text-rendering="inherit" font-size="12" dy=".8em" y="225.70000218301072" x="388.4999838383993">Stacking</text></g></g><g id="minder_node41"><g id="node_expander40" style="cursor: pointer;" display="none"><path id="kity_path_353" fill="white" stroke="gray" d="M199.4999888769786,282.0000009257334A6,6,0,1,1,187.4999888769786,282.0000009257334A6,6,0,1,1,199.4999888769786,282.0000009257334"></path><path id="kity_path_354" fill="none" stroke="gray"></path></g><path id="node_outline41" fill="rgb(238, 243, 246)" stroke="rgb(115, 161, 191)" d="M203.49998754869432,258.5000009367759h195a3,3,0,0,1,3,3v41a3,3,0,0,1,-3,3h-195a3,3,0,0,1,-3,-3v-41a3,3,0,0,1,3,-3z" stroke-width="1"></path><g id="node_text41" fill="black"><text id="kity_text_192" text-rendering="inherit" font-size="14" dy=".8em" y="261.900001119095" x="220.49998754869432">强化学习</text><text id="kity_text_193" text-rendering="inherit" font-size="14" dy=".8em" y="282.900001119095" x="220.49998754869432">Reinforcement Learning</text></g></g><g id="minder_node42"><g id="node_expander41" style="cursor: pointer;" display="none"><path id="kity_path_361" fill="white" stroke="gray" d="M460.49998227621387,207.50000257107249A6,6,0,1,1,448.49998227621387,207.50000257107249A6,6,0,1,1,460.49998227621387,207.50000257107249"></path><path id="kity_path_362" fill="none" stroke="gray"></path></g><path id="node_outline42" fill="none" stroke="none" d="M465.49998213784744,198.50000257107249h315a5,5,0,0,1,5,5v8a5,5,0,0,1,-5,5h-315a5,5,0,0,1,-5,-5v-8a5,5,0,0,1,5,-5z" stroke-width="3"></path><g id="node_text42" fill="black"><text id="kity_text_358" text-rendering="inherit" font-size="12" dy=".8em" y="199.70000275722302" x="465.49998213784744">梯度提升树（Gradient Boosting Decision Tree，GBDT）</text></g></g></g></g></svg>