<svg width="742" height="454" xmlns="http://www.w3.org/2000/svg" xmlns:xlink="http://www.w3.org/1999/xlink" overflow="hidden"><defs><clipPath id="clip0"><rect x="157" y="133" width="742" height="454"/></clipPath></defs><g clip-path="url(#clip0)" transform="translate(-157 -133)"><path d="M158 360C158 334.595 178.595 314 204 314 229.405 314 250 334.595 250 360 250 385.405 229.405 406 204 406 178.595 406 158 385.405 158 360Z" fill="#5B9BD5" fill-rule="evenodd"/><text fill="#FFFFFF" font-family="Cambria Math,Cambria Math_MSFontService,sans-serif" font-weight="400" font-size="48" transform="translate(186.103 376)">𝑥<tspan font-size="35" x="25.0333" y="10">𝑖</tspan></text><path d="M330 179C330 153.595 350.595 133 376 133 401.405 133 422 153.595 422 179 422 204.405 401.405 225 376 225 350.595 225 330 204.405 330 179Z" fill="#5B9BD5" fill-rule="evenodd"/><text fill="#FFFFFF" font-family="Cambria Math,Cambria Math_MSFontService,sans-serif" font-weight="400" font-size="48" transform="translate(355.348 196)">𝜇</text><path d="M330 541C330 515.595 350.595 495 376 495 401.405 495 422 515.595 422 541 422 566.405 401.405 587 376 587 350.595 587 330 566.405 330 541Z" fill="#5B9BD5" fill-rule="evenodd"/><text fill="#FFFFFF" font-family="Cambria Math,Cambria Math_MSFontService,sans-serif" font-weight="400" font-size="48" transform="translate(342.588 557)">𝜎<tspan font-size="35" x="30.8133" y="-18">2</tspan></text><path d="M520 360C520 334.595 540.595 314 566 314 591.405 314 612 334.595 612 360 612 385.405 591.405 406 566 406 540.595 406 520 385.405 520 360Z" fill="#5B9BD5" fill-rule="evenodd"/><text fill="#FFFFFF" font-family="Cambria Math,Cambria Math_MSFontService,sans-serif" font-weight="400" font-size="48" transform="translate(548.426 376)">𝑥</text><path d="M11.5078-33.7969 19.4766-26.4141 18.2109-25.0781 9.9375-30.7734 9.67969-30.7734 1.26562-25.0781 0-26.4141 8.36719-33.7969Z" fill="#FFFFFF" transform="translate(554.252 376)"/><text fill="#FFFFFF" font-family="Cambria Math,Cambria Math_MSFontService,sans-serif" font-weight="400" font-size="35" transform="translate(573.459 386)">𝑖</text><path d="M806 360C806 334.595 826.595 314 852 314 877.405 314 898 334.595 898 360 898 385.405 877.405 406 852 406 826.595 406 806 385.405 806 360Z" fill="#5B9BD5" fill-rule="evenodd"/><text fill="#FFFFFF" font-family="Cambria Math,Cambria Math_MSFontService,sans-serif" font-weight="400" font-size="48" transform="translate(834.015 376)">𝑦</text><path d="M11.5078-33.7969 19.4766-26.4141 18.2109-25.0781 9.9375-30.7734 9.67969-30.7734 1.26562-25.0781 0-26.4141 8.36719-33.7969Z" fill="#FFFFFF" transform="translate(840.315 376)"/><text fill="#FFFFFF" font-family="Cambria Math,Cambria Math_MSFontService,sans-serif" font-weight="400" font-size="35" transform="translate(859.395 386)">𝑖</text><path d="M1.46882-1.35741 101.59 106.981 98.6519 109.696-1.46882 1.35741ZM103.17 102.797 106.908 115.683 94.357 110.942Z" fill="#4472C4" transform="matrix(1 0 0 -1 236 327.683)"/><path d="M237.469 390.643 337.59 498.981 334.652 501.696 234.531 393.357ZM339.17 494.798 342.908 507.683 330.357 502.942Z" fill="#4472C4"/><path d="M250 358 510.451 358 510.451 362 250 362ZM508.452 354 520.452 360 508.452 366Z" fill="#4472C4"/><path d="M409.356 210.529 527.492 319.434 524.781 322.375 406.644 213.471ZM528.733 315.137 533.489 327.683 520.6 323.961Z" fill="#4472C4"/><path d="M2-7.79356e-07 2.0001 259.419-1.9999 259.419-2 7.79356e-07ZM6.0001 257.42 0.000104987 269.42-5.9999 257.42Z" fill="#4472C4" transform="matrix(-1 0 0 1 376 225)"/><path d="M1.35559-1.4705 119.493 107.434 116.781 110.375-1.35559 1.4705ZM120.733 103.138 125.489 115.683 112.6 111.961Z" fill="#4472C4" transform="matrix(1 0 0 -1 408 507.683)"/><path d="M612 358 796.065 358 796.065 362 612 362ZM794.065 354 806.065 360 794.065 366Z" fill="#4472C4"/></g></svg>