<svg width="547" height="300" xmlns="http://www.w3.org/2000/svg" xmlns:xlink="http://www.w3.org/1999/xlink" overflow="hidden"><defs><clipPath id="clip0"><rect x="228" y="175" width="547" height="300"/></clipPath></defs><g clip-path="url(#clip0)" transform="translate(-228 -175)"><rect x="229" y="175" width="123" height="299" fill="#FFE699"/><text font-family="Bahnschrift,Bahnschrift_MSFontService,sans-serif" font-weight="600" font-stretch="condensed" font-size="37" transform="translate(258.228 339)">CONV</text><rect x="440" y="175" width="123" height="299" fill="#FFE699"/><text font-family="Bahnschrift,Bahnschrift_MSFontService,sans-serif" font-weight="600" font-stretch="condensed" font-size="37" transform="translate(485.442 339)">BN</text><rect x="652" y="175" width="123" height="299" fill="#FFE699"/><text font-family="Bahnschrift,Bahnschrift_MSFontService,sans-serif" font-weight="600" font-stretch="condensed" font-size="37" transform="translate(683.072 339)">RELU</text><path d="M3.5624e-06-3 73.4125-2.99991 73.4125 3.00009-3.5624e-06 3ZM70.4125-8.99992 88.4125 0.000104987 70.4125 9.00008Z" fill="#4472C4" transform="matrix(1 0 0 -1 352 325)"/><path d="M563 322 636.412 322 636.412 328 563 328ZM633.412 316 651.412 325 633.412 334Z" fill="#4472C4"/></g></svg>