<svg id="kity_svg_6" xmlns="http://www.w3.org/2000/svg" xmlns:xlink="http://www.w3.org/1999/xlink" version="1.1" width="796" height="314" style="background: rgb(251, 251, 251); visibility: visible;" viewBox="0 0 796 314"><defs id="kity_defs_7"><linearGradient id="kity_linearGradient_17" x1="0" y1="0" x2="0" y2="1"><stop id="kity_stop_18" offset="0" stop-color="rgb(255, 255, 255)"></stop><stop id="kity_stop_19" offset="1" stop-color="rgb(204, 204, 204)"></stop></linearGradient><marker id="kity_marker_2" orient="auto" refX="6" refY="0" viewBox="-7 -7 14 14" markerWidth="7" markerHeight="7" markerUnits="userSpaceOnUse"><path id="kity_path_3" fill="rgb(115, 161, 191)" stroke="none" d="M6,0A6,6,0,1,1,-6,0A6,6,0,1,1,6,0"></path></marker></defs><g id="kity_g_8"><g id="minder1" text-rendering="optimize-speed"><g id="minder_connect_group1"><path id="kity_path_31" fill="none" stroke="rgb(115, 161, 191)" stroke-width="1" d="M101.00000388361514,169.5000039022416A96.5,101.5,0,0,1,197.50000388361514,68.00000390224159"></path><path id="kity_path_33" fill="none" stroke="rgb(115, 161, 191)" stroke-width="1" d="M375.50000388361514,68.50000390224159C383.50000388361514,68.00000390224159,383.50000388361514,29.500003902241588,391.50000388361514,29.500003902241588"></path><path id="kity_path_35" fill="none" stroke="rgb(115, 161, 191)" stroke-width="1" d="M512.5000038836151,10.500003902241588C520.5000038836151,10.500003902241588,520.5000038836151,-15.499996097758412,528.5000038836151,-15.499996097758412" display="none"></path><path id="kity_path_37" fill="none" stroke="rgb(115, 161, 191)" stroke-width="1" d="M512.5000038836151,10.500003902241588C520.5000038836151,10.500003902241588,520.5000038836151,10.500003902241588,528.5000038836151,10.500003902241588" display="none"></path><path id="kity_path_39" fill="none" stroke="rgb(115, 161, 191)" stroke-width="1" d="M512.5000038836151,10.500003902241588C520.5000038836151,10.500003902241588,520.5000038836151,36.50000390224159,528.5000038836151,36.50000390224159" display="none"></path><path id="kity_path_41" fill="none" stroke="rgb(115, 161, 191)" stroke-width="1" d="M375.50000388361514,68.50000390224159C383.50000388361514,68.00000390224159,383.50000388361514,107.50000390224159,391.50000388361514,107.50000390224159"></path><path id="kity_path_43" fill="none" stroke="rgb(115, 161, 191)" stroke-width="1" d="M525.5000038836151,107.50000390224159C533.5000038836151,107.50000390224159,533.5000038836151,55.50000390224159,541.5000038836151,55.50000390224159"></path><path id="kity_path_45" fill="none" stroke="rgb(115, 161, 191)" stroke-width="1" d="M525.5000038836151,107.50000390224159C533.5000038836151,107.50000390224159,533.5000038836151,81.50000390224159,541.5000038836151,81.50000390224159"></path><path id="kity_path_47" fill="none" stroke="rgb(115, 161, 191)" stroke-width="1" d="M525.5000038836151,107.50000390224159C533.5000038836151,107.50000390224159,533.5000038836151,107.50000390224159,541.5000038836151,107.50000390224159"></path><path id="kity_path_49" fill="none" stroke="rgb(115, 161, 191)" stroke-width="1" d="M525.5000038836151,107.50000390224159C533.5000038836151,107.50000390224159,533.5000038836151,133.5000039022416,541.5000038836151,133.5000039022416"></path><path id="kity_path_51" fill="none" stroke="rgb(115, 161, 191)" stroke-width="1" d="M101.00000388361514,169.5000039022416A96.5,38.5,0,0,0,197.50000388361514,208.0000039022416"></path><path id="kity_path_53" fill="none" stroke="rgb(115, 161, 191)" stroke-width="1" d="M392.50000388361514,208.5000039022416C400.50000388361514,208.0000039022416,400.50000388361514,195.5000039022416,408.50000388361514,195.5000039022416"></path><path id="kity_path_55" fill="none" stroke="rgb(115, 161, 191)" stroke-width="1" d="M524.5000038836151,201.5000039022416C532.5000038836151,201.5000039022416,532.5000038836151,201.5000039022416,540.5000038836151,201.5000039022416" display="none"></path><path id="kity_path_57" fill="none" stroke="rgb(115, 161, 191)" stroke-width="1" d="M392.50000388361514,208.5000039022416C400.50000388361514,208.0000039022416,400.50000388361514,221.5000039022416,408.50000388361514,221.5000039022416"></path><path id="kity_path_59" fill="none" stroke="rgb(115, 161, 191)" stroke-width="1" d="M613.5000038836151,227.5000039022416C621.5000038836151,227.5000039022416,621.5000038836151,227.5000039022416,629.5000038836151,227.5000039022416" display="none"></path><path id="kity_path_61" fill="none" stroke="rgb(115, 161, 191)" stroke-width="1" d="M101.00000388361514,169.5000039022416A96.5,101.5,0,0,0,197.50000388361514,271.0000039022416"></path><path id="kity_path_163" fill="none" stroke="rgb(115, 161, 191)" stroke-width="1" d="M525.5000038836151,107.50000390224159C533.5000038836151,107.50000390224159,533.5000038836151,159.5000039022416,541.5000038836151,159.5000039022416"></path></g><g id="minder_node1"><path id="node_outline1" fill="rgb(115, 161, 191)" stroke="rgb(115, 161, 191)" d="M25.500003883615136,143.5000039022416h151a5,5,0,0,1,5,5v42a5,5,0,0,1,-5,5h-151a5,5,0,0,1,-5,-5v-42a5,5,0,0,1,5,-5z" stroke-width="3"></path><g id="node_text1" fill="white"><text id="kity_text_22" text-rendering="inherit" font-size="16" dy=".8em" y="147.1000038243668" x="32.500003883615136">机器学习</text><text id="kity_text_97" text-rendering="inherit" font-size="16" dy=".8em" y="171.1000038243668" x="32.500003883615136">Machine Learning</text></g></g><g id="kity_g_12"><path id="kity_path_13" fill="none" stroke="none" d="M32.500003883615136,169.5000039022416h0v0h0z"></path></g><g id="kity_g_14"><path id="kity_path_15" fill="none" stroke="none" d="M32.500003883615136,169.5000039022416h0v0h0z"></path><path id="kity_path_16" fill="none" stroke="none"></path></g><g id="minder_node2"><g id="node_expander10" style="cursor: pointer;"><path id="kity_path_142" fill="white" stroke="gray" d="M198.50000686384737,68.00000201165676A6,6,0,1,1,186.50000686384737,68.00000201165676A6,6,0,1,1,198.50000686384737,68.00000201165676"></path><path id="kity_path_143" fill="none" stroke="gray" d="M188.00000686384737,68.00000201165676L197.00000686384737,68.00000201165676"></path></g><path id="node_outline11" fill="rgb(238, 243, 246)" stroke="rgb(115, 161, 191)" d="M202.50000736676157,44.500002002343535h170a3,3,0,0,1,3,3v41a3,3,0,0,1,-3,3h-170a3,3,0,0,1,-3,-3v-41a3,3,0,0,1,3,-3z" stroke-width="1"></path><g id="node_text11" fill="black"><text id="kity_text_81" text-rendering="inherit" font-size="14" dy=".8em" y="47.90000199639927" x="219.50000736676157">监督学习</text><text id="kity_text_82" text-rendering="inherit" font-size="14" dy=".8em" y="68.90000199639927" x="219.50000736676157">Supervised Learning</text></g></g><g id="minder_node3"><g id="node_expander4" style="cursor: pointer;"><path id="kity_path_124" fill="white" stroke="gray" d="M391.5000104587525,29.50000129453838A6,6,0,1,1,379.5000104587525,29.50000129453838A6,6,0,1,1,391.5000104587525,29.50000129453838"></path><path id="kity_path_125" fill="none" stroke="gray" d="M381.0000104587525,29.50000129453838L390.0000104587525,29.50000129453838M385.5000104587525,25.00000129453838L385.5000104587525,34.00000129453838"></path></g><path id="node_outline5" fill="none" stroke="none" d="M396.5000106636435,20.50000129453838h111a5,5,0,0,1,5,5v8a5,5,0,0,1,-5,5h-111a5,5,0,0,1,-5,-5v-8a5,5,0,0,1,5,-5z" stroke-width="3"></path><g id="node_text5" fill="black"><text id="kity_text_69" text-rendering="inherit" font-size="12" dy=".8em" y="21.70000136052461" x="396.5000106636435">回归（Regression）</text></g></g><g id="minder_node4" display="none"><g id="node_expander1" style="cursor: pointer;" display="none"><path id="kity_path_115" fill="white" stroke="gray" d="M528.5000130105764,13.500000996515155A6,6,0,1,1,516.5000130105764,13.500000996515155A6,6,0,1,1,528.5000130105764,13.500000996515155"></path><path id="kity_path_116" fill="none" stroke="gray"></path></g><path id="node_outline2" fill="none" stroke="none" d="M528.5000131223351,4.500000996515155h152a5,5,0,0,1,5,5v8a5,5,0,0,1,-5,5h-152a5,5,0,0,1,-5,-5v-8a5,5,0,0,1,5,-5z"></path><g id="node_text2" fill="black"><text id="kity_text_63" text-rendering="inherit" font-size="12" dy=".8em" y="5.700001062501386" x="528.5000131223351">代价函数（Cost Function）</text></g></g><g id="minder_node5" display="none"><g id="node_expander2" style="cursor: pointer;" display="none"><path id="kity_path_118" fill="white" stroke="gray" d="M528.5000130105764,21.500001145526767A6,6,0,1,1,516.5000130105764,21.500001145526767A6,6,0,1,1,528.5000130105764,21.500001145526767"></path><path id="kity_path_119" fill="none" stroke="gray"></path></g><path id="node_outline3" fill="none" stroke="none" d="M528.5000131223351,12.500001145526767h184a5,5,0,0,1,5,5v8a5,5,0,0,1,-5,5h-184a5,5,0,0,1,-5,-5v-8a5,5,0,0,1,5,-5z"></path><g id="node_text3" fill="black"><text id="kity_text_65" text-rendering="inherit" font-size="12" dy=".8em" y="13.700001211512998" x="528.5000131223351">梯度下降法（Gradient Descent）</text></g></g><g id="minder_node6" display="none"><g id="node_expander3" style="cursor: pointer;" display="none"><path id="kity_path_121" fill="white" stroke="gray" d="M528.5000130105764,29.50000129453838A6,6,0,1,1,516.5000130105764,29.50000129453838A6,6,0,1,1,528.5000130105764,29.50000129453838"></path><path id="kity_path_122" fill="none" stroke="gray"></path></g><path id="node_outline4" fill="none" stroke="none" d="M528.5000131223351,20.50000129453838h182a5,5,0,0,1,5,5v8a5,5,0,0,1,-5,5h-182a5,5,0,0,1,-5,-5v-8a5,5,0,0,1,5,-5z"></path><g id="node_text4" fill="black"><text id="kity_text_67" text-rendering="inherit" font-size="12" dy=".8em" y="21.70000136052461" x="528.5000131223351">正规方程法（Normal Equation）</text></g></g><g id="minder_node7"><g id="node_expander9" style="cursor: pointer;"><path id="kity_path_139" fill="white" stroke="gray" d="M391.5000104587525,107.5000027474016A6,6,0,1,1,379.5000104587525,107.5000027474016A6,6,0,1,1,391.5000104587525,107.5000027474016"></path><path id="kity_path_140" fill="none" stroke="gray" d="M381.0000104587525,107.5000027474016L390.0000104587525,107.5000027474016"></path></g><path id="node_outline10" fill="none" stroke="none" d="M396.5000106636435,98.5000027474016h124a5,5,0,0,1,5,5v8a5,5,0,0,1,-5,5h-124a5,5,0,0,1,-5,-5v-8a5,5,0,0,1,5,-5z" stroke-width="3"></path><g id="node_text10" fill="black"><text id="kity_text_79" text-rendering="inherit" font-size="12" dy=".8em" y="99.70000281338783" x="396.5000106636435">分类（Classification）</text></g></g><g id="minder_node8"><g id="node_expander5" style="cursor: pointer;" display="none"><path id="kity_path_127" fill="white" stroke="gray" d="M541.5000132527202,55.50000177882612A6,6,0,1,1,529.5000132527202,55.50000177882612A6,6,0,1,1,541.5000132527202,55.50000177882612"></path><path id="kity_path_128" fill="none" stroke="gray"></path></g><path id="node_outline6" fill="none" stroke="none" d="M546.5000134576112,46.50000177882612h183a5,5,0,0,1,5,5v8a5,5,0,0,1,-5,5h-183a5,5,0,0,1,-5,-5v-8a5,5,0,0,1,5,-5z" stroke-width="3"></path><g id="node_text6" fill="black"><text id="kity_text_71" text-rendering="inherit" font-size="12" dy=".8em" y="47.70000184481235" x="546.5000134576112">逻辑回归（Logistic Regression）</text></g></g><g id="minder_node9"><g id="node_expander6" style="cursor: pointer;" display="none"><path id="kity_path_130" fill="white" stroke="gray" d="M541.5000132527202,81.50000226311386A6,6,0,1,1,529.5000132527202,81.50000226311386A6,6,0,1,1,541.5000132527202,81.50000226311386"></path><path id="kity_path_131" fill="none" stroke="gray"></path></g><path id="node_outline7" fill="none" stroke="none" d="M546.5000134576112,72.50000226311386h164a5,5,0,0,1,5,5v8a5,5,0,0,1,-5,5h-164a5,5,0,0,1,-5,-5v-8a5,5,0,0,1,5,-5z" stroke-width="3"></path><g id="node_text7" fill="black"><text id="kity_text_73" text-rendering="inherit" font-size="12" dy=".8em" y="73.70000232910009" x="546.5000134576112">神经网络（Neural Network）</text></g></g><g id="minder_node10"><g id="node_expander7" style="cursor: pointer;" display="none"><path id="kity_path_133" fill="white" stroke="gray" d="M541.5000132527202,107.5000027474016A6,6,0,1,1,529.5000132527202,107.5000027474016A6,6,0,1,1,541.5000132527202,107.5000027474016"></path><path id="kity_path_134" fill="none" stroke="gray"></path></g><path id="node_outline8" fill="none" stroke="none" d="M546.5000134576112,98.5000027474016h225a5,5,0,0,1,5,5v8a5,5,0,0,1,-5,5h-225a5,5,0,0,1,-5,-5v-8a5,5,0,0,1,5,-5z" stroke-width="3"></path><g id="node_text8" fill="black"><text id="kity_text_75" text-rendering="inherit" font-size="12" dy=".8em" y="99.70000281338783" x="546.5000134576112">支持向量机（Support Vector Machine）</text></g></g><g id="minder_node11"><g id="node_expander8" style="cursor: pointer;" display="none"><path id="kity_path_136" fill="white" stroke="gray" d="M541.5000132527202,133.50000323168933A6,6,0,1,1,529.5000132527202,133.50000323168933A6,6,0,1,1,541.5000132527202,133.50000323168933"></path><path id="kity_path_137" fill="none" stroke="gray"></path></g><path id="node_outline9" fill="none" stroke="none" d="M546.5000134576112,124.50000323168933h176a5,5,0,0,1,5,5v8a5,5,0,0,1,-5,5h-176a5,5,0,0,1,-5,-5v-8a5,5,0,0,1,5,-5z" stroke-width="3"></path><g id="node_text9" fill="black"><text id="kity_text_77" text-rendering="inherit" font-size="12" dy=".8em" y="125.70000329767555" x="546.5000134576112">K-近邻（K-Nearest Neighbor）</text></g></g><g id="minder_node12"><g id="node_expander15" style="cursor: pointer;"><path id="kity_path_157" fill="white" stroke="gray" d="M198.50000686384737,208.00000461935997A6,6,0,1,1,186.50000686384737,208.00000461935997A6,6,0,1,1,198.50000686384737,208.00000461935997"></path><path id="kity_path_158" fill="none" stroke="gray" d="M188.00000686384737,208.00000461935997L197.00000686384737,208.00000461935997"></path></g><path id="node_outline16" fill="rgb(238, 243, 246)" stroke="rgb(115, 161, 191)" d="M202.50000736676157,184.50000461004674h187a3,3,0,0,1,3,3v41a3,3,0,0,1,-3,3h-187a3,3,0,0,1,-3,-3v-41a3,3,0,0,1,3,-3z" stroke-width="1"></path><g id="node_text16" fill="black"><text id="kity_text_92" text-rendering="inherit" font-size="14" dy=".8em" y="187.9000046041025" x="219.50000736676157">无监督学习</text><text id="kity_text_93" text-rendering="inherit" font-size="14" dy=".8em" y="208.9000046041025" x="219.50000736676157">Unsupervised Learning</text></g></g><g id="minder_node13"><g id="node_expander12" style="cursor: pointer;"><path id="kity_path_148" fill="white" stroke="gray" d="M408.5000107754022,195.50000438652933A6,6,0,1,1,396.5000107754022,195.50000438652933A6,6,0,1,1,408.5000107754022,195.50000438652933"></path><path id="kity_path_149" fill="none" stroke="gray" d="M398.0000107754022,195.50000438652933L407.0000107754022,195.50000438652933M402.5000107754022,191.00000438652933L402.5000107754022,200.00000438652933"></path></g><path id="node_outline13" fill="none" stroke="none" d="M413.50001098029315,186.50000438652933h106a5,5,0,0,1,5,5v8a5,5,0,0,1,-5,5h-106a5,5,0,0,1,-5,-5v-8a5,5,0,0,1,5,-5z" stroke-width="3"></path><g id="node_text13" fill="black"><text id="kity_text_86" text-rendering="inherit" font-size="12" dy=".8em" y="187.70000445251554" x="413.50001098029315">聚类（Clustering）</text></g></g><g id="minder_node14" display="none"><g id="node_expander11" style="cursor: pointer;" display="none"><path id="kity_path_145" fill="white" stroke="gray" d="M540.5000132340938,195.50000438652933A6,6,0,1,1,528.5000132340938,195.50000438652933A6,6,0,1,1,540.5000132340938,195.50000438652933"></path><path id="kity_path_146" fill="none" stroke="gray"></path></g><path id="node_outline12" fill="none" stroke="none" d="M540.5000133458525,186.50000438652933h112a5,5,0,0,1,5,5v8a5,5,0,0,1,-5,5h-112a5,5,0,0,1,-5,-5v-8a5,5,0,0,1,5,-5z"></path><g id="node_text12" fill="black"><text id="kity_text_84" text-rendering="inherit" font-size="12" dy=".8em" y="187.70000445251554" x="540.5000133458525">K-均值（K-Means）</text></g></g><g id="minder_node15"><g id="node_expander14" style="cursor: pointer;"><path id="kity_path_154" fill="white" stroke="gray" d="M408.5000107754022,221.50000487081707A6,6,0,1,1,396.5000107754022,221.50000487081707A6,6,0,1,1,408.5000107754022,221.50000487081707"></path><path id="kity_path_155" fill="none" stroke="gray" d="M398.0000107754022,221.50000487081707L407.0000107754022,221.50000487081707M402.5000107754022,217.00000487081707L402.5000107754022,226.00000487081707"></path></g><path id="node_outline15" fill="none" stroke="none" d="M413.50001098029315,212.50000487081707h195a5,5,0,0,1,5,5v8a5,5,0,0,1,-5,5h-195a5,5,0,0,1,-5,-5v-8a5,5,0,0,1,5,-5z" stroke-width="3"></path><g id="node_text15" fill="black"><text id="kity_text_90" text-rendering="inherit" font-size="12" dy=".8em" y="213.70000493680328" x="413.50001098029315">降维（Dimensionality Reduction）</text></g></g><g id="minder_node16" display="none"><g id="node_expander13" style="cursor: pointer;" display="none"><path id="kity_path_151" fill="white" stroke="gray" d="M629.500014891848,221.50000487081707A6,6,0,1,1,617.500014891848,221.50000487081707A6,6,0,1,1,629.500014891848,221.50000487081707"></path><path id="kity_path_152" fill="none" stroke="gray"></path></g><path id="node_outline14" fill="none" stroke="none" d="M629.5000150036067,212.50000487081707h267a5,5,0,0,1,5,5v8a5,5,0,0,1,-5,5h-267a5,5,0,0,1,-5,-5v-8a5,5,0,0,1,5,-5z"></path><g id="node_text14" fill="black"><text id="kity_text_88" text-rendering="inherit" font-size="12" dy=".8em" y="213.70000493680328" x="629.5000150036067">主成分分析法（Principal Component Analysis）</text></g></g><g id="minder_node17"><g id="node_expander16" style="cursor: pointer;" display="none"><path id="kity_path_160" fill="white" stroke="gray" d="M198.50000686384737,271.0000057928264A6,6,0,1,1,186.50000686384737,271.0000057928264A6,6,0,1,1,198.50000686384737,271.0000057928264"></path><path id="kity_path_161" fill="none" stroke="gray"></path></g><path id="node_outline17" fill="rgb(238, 243, 246)" stroke="rgb(115, 161, 191)" d="M202.50000736676157,247.5000057835132h195a3,3,0,0,1,3,3v41a3,3,0,0,1,-3,3h-195a3,3,0,0,1,-3,-3v-41a3,3,0,0,1,3,-3z" stroke-width="1"></path><g id="node_text17" fill="black"><text id="kity_text_95" text-rendering="inherit" font-size="14" dy=".8em" y="250.90000577756894" x="219.50000736676157">强化学习</text><text id="kity_text_96" text-rendering="inherit" font-size="14" dy=".8em" y="271.90000577756894" x="219.50000736676157">Reinforcement Learning</text></g></g><g id="minder_node18"><g id="node_expander17" style="cursor: pointer;" display="none"><path id="kity_path_168" fill="white" stroke="gray" d="M541.5000132527202,159.50000371597707A6,6,0,1,1,529.5000132527202,159.50000371597707A6,6,0,1,1,541.5000132527202,159.50000371597707"></path><path id="kity_path_169" fill="none" stroke="gray"></path></g><path id="node_outline18" fill="none" stroke="none" d="M546.5000134576112,150.50000371597707h138a5,5,0,0,1,5,5v8a5,5,0,0,1,-5,5h-138a5,5,0,0,1,-5,-5v-8a5,5,0,0,1,5,-5z" stroke-width="3"></path><g id="node_text18" fill="black"><text id="kity_text_165" text-rendering="inherit" font-size="12" dy=".8em" y="151.7000037819633" x="546.5000134576112">决策树（Decision Tree）</text></g></g></g></g></svg>