<svg width="799" height="532" xmlns="http://www.w3.org/2000/svg" xmlns:xlink="http://www.w3.org/1999/xlink" overflow="hidden"><defs><clipPath id="clip0"><path d="M62 94 861 94 861 626 62 626Z" fill-rule="evenodd" clip-rule="evenodd"/></clipPath></defs><g clip-path="url(#clip0)" transform="translate(-62 -94)"><path d="M461 105C461 98.925 465.925 94 472 94L650 94C656.075 94 661 98.925 661 105L661 149C661 155.075 656.075 160 650 160L472 160C465.925 160 461 155.075 461 149Z" fill="#2E75B6" fill-rule="evenodd"/><text fill="#FFFFFF" font-family="Source Han Serif CN,Source Han Serif CN_MSFontService,sans-serif" font-weight="600" font-size="24" transform="translate(501.087 136)">想学习吗？</text><path d="M262 260C262 253.925 266.925 249 273 249L450 249C456.075 249 461 253.925 461 260L461 304C461 310.075 456.075 315 450 315L273 315C266.925 315 262 310.075 262 304Z" fill="#F4B183" fill-rule="evenodd"/><text fill="#FFFFFF" font-family="Source Han Serif CN,Source Han Serif CN_MSFontService,sans-serif" font-weight="600" font-size="24" transform="translate(313.631 291)">饿了吗？</text><path d="M661 260C661 253.925 665.925 249 672 249L849 249C855.075 249 860 253.925 860 260L860 304C860 310.075 855.075 315 849 315L672 315C665.925 315 661 310.075 661 304Z" fill="#8FAADC" fill-rule="evenodd"/><text fill="#FFFFFF" font-family="Source Han Serif CN,Source Han Serif CN_MSFontService,sans-serif" font-weight="600" font-size="24" transform="translate(736.544 291)">学习</text><path d="M62 415C62 408.925 66.925 404 73.0002 404L251 404C257.075 404 262 408.925 262 415L262 459C262 465.075 257.075 470 251 470L73.0002 470C66.925 470 62 465.075 62 459Z" fill="#8FAADC" fill-rule="evenodd"/><text fill="#FFFFFF" font-family="Source Han Serif CN,Source Han Serif CN_MSFontService,sans-serif" font-weight="600" font-size="24" transform="translate(126.175 446)">吃零食</text><path d="M461 415C461 408.925 465.925 404 472 404L650 404C656.075 404 661 408.925 661 415L661 459C661 465.075 656.075 470 650 470L472 470C465.925 470 461 465.075 461 459Z" fill="#F4B183" fill-rule="evenodd"/><text fill="#FFFFFF" font-family="Source Han Serif CN,Source Han Serif CN_MSFontService,sans-serif" font-weight="600" font-size="24" transform="translate(513.087 446)">困了吗？</text><path d="M0.203168-0.456862 193.568 85.5333 193.162 86.447-0.203168 0.456862ZM193.772 81.7934 199.456 88.699 190.521 89.1032Z" fill="#4472C4" transform="matrix(-1 -8.74228e-08 -8.74228e-08 1 561.956 160.5)"/><path d="M561.703 160.043 755.068 246.033 754.662 246.947 561.297 160.957ZM755.272 242.293 760.956 249.199 752.021 249.603Z" fill="#4472C4"/><path d="M262 570C262 563.925 266.925 559 273 559L450 559C456.075 559 461 563.925 461 570L461 614C461 620.075 456.075 625 450 625L273 625C266.925 625 262 620.075 262 614Z" fill="#8FAADC" fill-rule="evenodd"/><text fill="#FFFFFF" font-family="Source Han Serif CN,Source Han Serif CN_MSFontService,sans-serif" font-weight="600" font-size="24" transform="translate(325.631 600)">眯一会</text><path d="M661 570C661 563.925 665.925 559 672 559L849 559C855.075 559 860 563.925 860 570L860 614C860 620.075 855.075 625 849 625L672 625C665.925 625 661 620.075 661 614Z" fill="#8FAADC" fill-rule="evenodd"/><text fill="#FFFFFF" font-family="Source Han Serif CN,Source Han Serif CN_MSFontService,sans-serif" font-weight="600" font-size="24" transform="translate(724.544 600)">玩游戏<tspan fill="#000000" font-size="21" x="-302.283" y="-391">不想</tspan><tspan fill="#000000" font-size="21" x="-69.9727" y="-391">还行</tspan></text><path d="M0.203168-0.456862 193.568 85.5333 193.162 86.4471-0.203168 0.456862ZM193.772 81.7934 199.456 88.699 190.521 89.1032Z" fill="#4472C4" transform="matrix(-1 -8.74228e-08 -8.74228e-08 1 361.956 315.5)"/><path d="M362.703 315.043 556.068 401.033 555.662 401.947 362.297 315.957ZM556.272 397.293 561.957 404.199 553.021 404.603Z" fill="#4472C4"/><text font-family="Source Han Serif CN,Source Han Serif CN_MSFontService,sans-serif" font-weight="600" font-size="21" transform="translate(220.163 364)">还行<tspan x="232.311" y="0">不饿</tspan></text><path d="M0.203168-0.456862 193.568 85.5332 193.162 86.4469-0.203168 0.456862ZM193.772 81.7934 199.456 88.699 190.521 89.1032Z" fill="#4472C4" transform="matrix(-1 -8.74228e-08 -8.74228e-08 1 561.957 470.5)"/><path d="M561.703 470.043 755.068 556.033 754.662 556.947 561.297 470.957ZM755.272 552.293 760.956 559.199 752.021 559.603Z" fill="#4472C4"/><text font-family="Source Han Serif CN,Source Han Serif CN_MSFontService,sans-serif" font-weight="600" font-size="21" transform="translate(422.26 519)">还行<tspan x="232.311" y="0">不困</tspan></text></g></svg>