<svg width="433" height="210" xmlns="http://www.w3.org/2000/svg" xmlns:xlink="http://www.w3.org/1999/xlink" overflow="hidden"><defs><clipPath id="clip0"><path d="M354 91 787 91 787 301 354 301Z" fill-rule="evenodd" clip-rule="evenodd"/></clipPath></defs><g clip-path="url(#clip0)" transform="translate(-354 -91)"><path d="M529 103C529 96.925 533.925 92 540 92L601 92C607.075 92 612 96.925 612 103L612 147C612 153.075 607.075 158 601 158L540 158C533.925 158 529 153.075 529 147Z" fill="#2E75B6" fill-rule="evenodd"/><text fill="#FFFFFF" font-family="Cambria Math,Cambria Math_MSFontService,sans-serif" font-weight="400" font-size="24" transform="translate(557.025 133)">ğ‘¥<tspan font-size="18" x="10.4667" y="4">ğ‘—</tspan></text><path d="M355 245C355 238.925 359.925 234 366 234L427 234C433.075 234 438 238.925 438 245L438 289C438 295.075 433.075 300 427 300L366 300C359.925 300 355 295.075 355 289Z" fill="#F4B183" fill-rule="evenodd"/><text fill="#FFFFFF" font-family="Cambria Math,Cambria Math_MSFontService,sans-serif" font-weight="400" font-size="24" transform="translate(382.861 275)">ğ‘<tspan font-size="18" x="9.85999" y="5">1</tspan></text><path d="M702 245C702 238.925 706.925 234 713 234L775 234C781.075 234 786 238.925 786 245L786 289C786 295.075 781.075 300 775 300L713 300C706.925 300 702 295.075 702 289Z" fill="#8FAADC" fill-rule="evenodd"/><text fill="#FFFFFF" font-family="Cambria Math,Cambria Math_MSFontService,sans-serif" font-weight="400" font-size="24" transform="translate(730.119 275)">ğ‘<tspan font-size="18" x="10.4133" y="5">2</tspan></text><path d="M0.199972-0.45827 167.857 72.7007 167.457 73.6173-0.199972 0.45827ZM168.034 68.9596 173.767 75.8253 164.835 76.2919Z" fill="#4472C4" transform="matrix(-1 -8.74228e-08 -8.74228e-08 1 571.267 158.5)"/><path d="M570.7 158.042 738.356 231.201 737.956 232.117 570.3 158.958ZM738.534 227.46 744.267 234.325 735.335 234.792Z" fill="#4472C4"/><text font-family="Cambria Math,Cambria Math_MSFontService,sans-serif" font-weight="400" font-size="21" transform="translate(410.161 196)">ğ‘¥<tspan font-size="15" x="9.23334" y="4">ğ‘—</tspan><tspan x="23.9133" y="0">â‰¤</tspan><tspan x="45.84" y="0">ğ‘ </tspan><tspan x="264.194" y="0">ğ‘¥</tspan><tspan font-size="15" x="273.428" y="5">ğ‘—</tspan><tspan x="288.108" y="0">&gt;</tspan><tspan x="310.034" y="0">ğ‘ </tspan></text></g></svg>