<svg id="kity_svg_6" xmlns="http://www.w3.org/2000/svg" xmlns:xlink="http://www.w3.org/1999/xlink" version="1.1" width="765" height="376" style="background: rgb(251, 251, 251); visibility: visible;" viewBox="0 0 765 376"><defs id="kity_defs_7"><linearGradient id="kity_linearGradient_17" x1="0" y1="0" x2="0" y2="1"><stop id="kity_stop_18" offset="0" stop-color="rgb(255, 255, 255)"></stop><stop id="kity_stop_19" offset="1" stop-color="rgb(204, 204, 204)"></stop></linearGradient><marker id="kity_marker_2" orient="auto" refX="6" refY="0" viewBox="-7 -7 14 14" markerWidth="7" markerHeight="7" markerUnits="userSpaceOnUse"><path id="kity_path_3" fill="rgb(115, 161, 191)" stroke="none" d="M6,0A6,6,0,1,1,-6,0A6,6,0,1,1,6,0"></path></marker></defs><g id="kity_g_8"><g id="minder1" text-rendering="optimize-speed"><g id="minder_connect_group1"><path id="kity_path_31" fill="none" stroke="rgb(115, 161, 191)" stroke-width="1" d="M101.99999300689032,227.4999993076659A96.5,106.5,0,0,1,198.49999300689032,120.99999930766589"></path><path id="kity_path_71" fill="none" stroke="rgb(115, 161, 191)" stroke-width="1" d="M101.99999300689032,227.4999993076659A96.5,19.5,0,0,1,198.49999300689032,207.9999993076659"></path><path id="kity_path_73" fill="none" stroke="none" display="none"></path><path id="kity_path_75" fill="none" stroke="none" display="none"></path><path id="kity_path_77" fill="none" stroke="none" display="none"></path><path id="kity_path_79" fill="none" stroke="none" display="none"></path><path id="kity_path_81" fill="none" stroke="rgb(115, 161, 191)" stroke-width="1" d="M101.99999300689032,227.4999993076659A96.5,43.5,0,0,0,198.49999300689032,270.9999993076659"></path><path id="kity_path_83" fill="none" stroke="rgb(115, 161, 191)" stroke-width="1" d="M367.49999300689035,271.4999993076659C375.49999300689035,270.9999993076659,375.49999300689035,245.4999993076659,383.49999300689035,245.4999993076659" display="none"></path><path id="kity_path_85" fill="none" stroke="rgb(115, 161, 191)" stroke-width="1" d="M441.49999300689035,245.4999993076659C449.49999300689035,245.4999993076659,449.49999300689035,245.4999993076659,457.49999300689035,245.4999993076659" display="none"></path><path id="kity_path_87" fill="none" stroke="rgb(115, 161, 191)" stroke-width="1" d="M367.49999300689035,271.4999993076659C375.49999300689035,270.9999993076659,375.49999300689035,271.4999993076659,383.49999300689035,271.4999993076659" display="none"></path><path id="kity_path_89" fill="none" stroke="rgb(115, 161, 191)" stroke-width="1" d="M444.49999300689035,271.4999993076659C452.49999300689035,271.4999993076659,452.49999300689035,271.4999993076659,460.49999300689035,271.4999993076659" display="none"></path><path id="kity_path_91" fill="none" stroke="rgb(115, 161, 191)" stroke-width="1" d="M367.49999300689035,271.4999993076659C375.49999300689035,270.9999993076659,375.49999300689035,297.4999993076659,383.49999300689035,297.4999993076659" display="none"></path><path id="kity_path_93" fill="none" stroke="rgb(115, 161, 191)" stroke-width="1" d="M101.99999300689032,227.4999993076659A96.5,106.5,0,0,0,198.49999300689032,333.9999993076659"></path><path id="kity_path_407" fill="none" stroke="rgb(115, 161, 191)" stroke-width="1" d="M513.4999930068903,82.49999930766589C521.4999930068903,82.49999930766589,521.4999930068903,30.499999307665888,529.4999930068903,30.499999307665888"></path><path id="kity_path_408" fill="none" stroke="rgb(115, 161, 191)" stroke-width="1" d="M513.4999930068903,82.49999930766589C521.4999930068903,82.49999930766589,521.4999930068903,56.49999930766589,529.4999930068903,56.49999930766589"></path><path id="kity_path_409" fill="none" stroke="none" display="none"></path><path id="kity_path_410" fill="none" stroke="rgb(115, 161, 191)" stroke-width="1" d="M513.4999930068903,82.49999930766589C521.4999930068903,82.49999930766589,521.4999930068903,82.49999930766589,529.4999930068903,82.49999930766589"></path><path id="kity_path_411" fill="none" stroke="none" display="none"></path><path id="kity_path_412" fill="none" stroke="none" display="none"></path><path id="kity_path_413" fill="none" stroke="none" display="none"></path><path id="kity_path_414" fill="none" stroke="none" display="none"></path><path id="kity_path_415" fill="none" stroke="rgb(115, 161, 191)" stroke-width="1" d="M513.4999930068903,82.49999930766589C521.4999930068903,82.49999930766589,521.4999930068903,108.49999930766589,529.4999930068903,108.49999930766589"></path><path id="kity_path_416" fill="none" stroke="rgb(115, 161, 191)" stroke-width="1" d="M513.4999930068903,82.49999930766589C521.4999930068903,82.49999930766589,521.4999930068903,134.4999993076659,529.4999930068903,134.4999993076659"></path><path id="kity_path_417" fill="none" stroke="rgb(115, 161, 191)" stroke-width="1" d="M376.49999300689035,121.49999930766589C384.49999300689035,120.99999930766589,384.49999300689035,82.49999930766589,392.49999300689035,82.49999930766589"></path><path id="kity_path_418" fill="none" stroke="none" display="none"></path><path id="kity_path_419" fill="none" stroke="none" display="none"></path><path id="kity_path_420" fill="none" stroke="none" display="none"></path><path id="kity_path_421" fill="none" stroke="none" display="none"></path><path id="kity_path_422" fill="none" stroke="none" display="none"></path><path id="kity_path_423" fill="none" stroke="none" display="none"></path><path id="kity_path_424" fill="none" stroke="none" display="none"></path><path id="kity_path_425" fill="none" stroke="none" display="none"></path><path id="kity_path_426" fill="none" stroke="none" display="none"></path><path id="kity_path_427" fill="none" stroke="none" display="none"></path><path id="kity_path_428" fill="none" stroke="none" display="none"></path><path id="kity_path_429" fill="none" stroke="none" display="none"></path><path id="kity_path_430" fill="none" stroke="none" display="none"></path><path id="kity_path_431" fill="none" stroke="none" display="none"></path><path id="kity_path_432" fill="none" stroke="rgb(115, 161, 191)" stroke-width="1" d="M376.49999300689035,121.49999930766589C384.49999300689035,120.99999930766589,384.49999300689035,160.4999993076659,392.49999300689035,160.4999993076659"></path></g><g id="minder_node1"><path id="node_outline1" fill="rgb(115, 161, 191)" stroke="rgb(115, 161, 191)" d="M26.49999300689032,201.4999993076659h151a5,5,0,0,1,5,5v42a5,5,0,0,1,-5,5h-151a5,5,0,0,1,-5,-5v-42a5,5,0,0,1,5,-5z" stroke-width="3"></path><g id="node_text1" fill="white"><text id="kity_text_22" text-rendering="inherit" font-size="16" dy=".8em" y="205.09999927701446" x="33.49999300689032">机器学习</text><text id="kity_text_162" text-rendering="inherit" font-size="16" dy=".8em" y="229.09999927701446" x="33.49999300689032">Machine Learning</text></g></g><g id="kity_g_12" display="none"><path id="kity_path_13" fill="none" stroke="none" d="M33.49999300689032,227.4999993076659h0v0h0z"></path></g><g id="kity_g_14" display="none"><path id="kity_path_15" fill="rgba(0, 92, 153, 0.5)" stroke="none" d="M200.49999300689032,171.4999993076659h193v8h-193z"></path><path id="kity_path_16" fill="none" stroke="rgb(0, 76, 128)" d="M200.49999300689032,179.4999993076659L393.49999300689035,179.4999993076659" stroke-width="1"></path></g><g id="minder_node2" opacity="1"><g id="node_expander20" style="cursor: pointer;"><path id="kity_path_253" fill="white" stroke="gray" d="M199.4999902052629,121.0000016597279A6,6,0,1,1,187.4999902052629,121.0000016597279A6,6,0,1,1,199.4999902052629,121.0000016597279"></path><path id="kity_path_254" fill="none" stroke="gray" d="M188.9999902052629,121.0000016597279L197.9999902052629,121.0000016597279"></path></g><path id="node_outline21" fill="rgb(238, 243, 246)" stroke="rgb(115, 161, 191)" d="M203.49998887697862,97.50000167077044h170a3,3,0,0,1,3,3v41a3,3,0,0,1,-3,3h-170a3,3,0,0,1,-3,-3v-41a3,3,0,0,1,3,-3z" stroke-width="1"></path><g id="node_text21" fill="black"><text id="kity_text_133" text-rendering="inherit" font-size="14" dy=".8em" y="100.90000185308955" x="220.49998887697862">监督学习</text><text id="kity_text_134" text-rendering="inherit" font-size="14" dy=".8em" y="121.90000185308955" x="220.49998887697862">Supervised Learning</text></g></g><g id="minder_node22"><g id="node_expander25" style="cursor: pointer;"><path id="kity_path_268" fill="white" stroke="gray" d="M199.4999902052629,207.99999973832513A6,6,0,1,1,187.4999902052629,207.99999973832513A6,6,0,1,1,199.4999902052629,207.99999973832513"></path><path id="kity_path_269" fill="none" stroke="gray" d="M188.9999902052629,207.99999973832513L197.9999902052629,207.99999973832513M193.4999902052629,203.49999973832513L193.4999902052629,212.49999973832513"></path></g><path id="node_outline26" fill="rgb(238, 243, 246)" stroke="rgb(115, 161, 191)" d="M203.49998887697862,184.49999974936767h187a3,3,0,0,1,3,3v41a3,3,0,0,1,-3,3h-187a3,3,0,0,1,-3,-3v-41a3,3,0,0,1,3,-3z" stroke-width="1"></path><g id="node_text26" fill="black"><text id="kity_text_144" text-rendering="inherit" font-size="14" dy=".8em" y="187.89999993168678" x="220.49998887697862">无监督学习</text><text id="kity_text_145" text-rendering="inherit" font-size="14" dy=".8em" y="208.89999993168678" x="220.49998887697862">Unsupervised Learning</text></g></g><g id="minder_node23" display="none"><g id="node_expander22" style="cursor: pointer;" display="none"><path id="kity_path_259" fill="white" stroke="gray" d="M409.4999846262681,200.4999999039633A6,6,0,1,1,397.4999846262681,200.4999999039633A6,6,0,1,1,409.4999846262681,200.4999999039633"></path><path id="kity_path_260" fill="none" stroke="gray"></path></g><path id="node_outline23" fill="none" stroke="none" d="M409.49998470289665,191.4999999039633h107a5,5,0,0,1,5,5v8a5,5,0,0,1,-5,5h-107a5,5,0,0,1,-5,-5v-8a5,5,0,0,1,5,-5z"></path><g id="node_text23" fill="black"><text id="kity_text_138" text-rendering="inherit" font-size="12" dy=".8em" y="192.70000009011383" x="409.49998470289665">聚类（Clustering）</text></g></g><g id="minder_node24" display="none"><g id="node_expander21" style="cursor: pointer;" display="none"><path id="kity_path_256" fill="white" stroke="gray" d="M425.49998427290666,200.4999999039633A6,6,0,1,1,413.49998427290666,200.4999999039633A6,6,0,1,1,425.49998427290666,200.4999999039633"></path><path id="kity_path_257" fill="none" stroke="gray"></path></g><path id="node_outline22" fill="none" stroke="none" d="M425.4999843495352,191.4999999039633h112a5,5,0,0,1,5,5v8a5,5,0,0,1,-5,5h-112a5,5,0,0,1,-5,-5v-8a5,5,0,0,1,5,-5z"></path><g id="node_text22" fill="black"><text id="kity_text_136" text-rendering="inherit" font-size="12" dy=".8em" y="192.70000009011383" x="425.4999843495352">K-均值（K-Means）</text></g></g><g id="minder_node25" display="none"><g id="node_expander24" style="cursor: pointer;" display="none"><path id="kity_path_265" fill="white" stroke="gray" d="M409.4999846262681,208.49999972728259A6,6,0,1,1,397.4999846262681,208.49999972728259A6,6,0,1,1,409.4999846262681,208.49999972728259"></path><path id="kity_path_266" fill="none" stroke="gray"></path></g><path id="node_outline25" fill="none" stroke="none" d="M409.49998470289665,199.49999972728259h195a5,5,0,0,1,5,5v8a5,5,0,0,1,-5,5h-195a5,5,0,0,1,-5,-5v-8a5,5,0,0,1,5,-5z"></path><g id="node_text25" fill="black"><text id="kity_text_142" text-rendering="inherit" font-size="12" dy=".8em" y="200.69999991343312" x="409.49998470289665">降维（Dimensionality Reduction）</text></g></g><g id="minder_node26" display="none"><g id="node_expander23" style="cursor: pointer;" display="none"><path id="kity_path_262" fill="white" stroke="gray" d="M425.49998427290666,208.49999972728259A6,6,0,1,1,413.49998427290666,208.49999972728259A6,6,0,1,1,425.49998427290666,208.49999972728259"></path><path id="kity_path_263" fill="none" stroke="gray"></path></g><path id="node_outline24" fill="none" stroke="none" d="M425.4999843495352,199.49999972728259h267a5,5,0,0,1,5,5v8a5,5,0,0,1,-5,5h-267a5,5,0,0,1,-5,-5v-8a5,5,0,0,1,5,-5z"></path><g id="node_text24" fill="black"><text id="kity_text_140" text-rendering="inherit" font-size="12" dy=".8em" y="200.69999991343312" x="425.4999843495352">主成分分析法（Principal Component Analysis）</text></g></g><g id="minder_node27"><g id="node_expander31" style="cursor: pointer;"><path id="kity_path_286" fill="white" stroke="gray" d="M199.4999902052629,270.9999983469645A6,6,0,1,1,187.4999902052629,270.9999983469645A6,6,0,1,1,199.4999902052629,270.9999983469645"></path><path id="kity_path_287" fill="none" stroke="gray" d="M188.9999902052629,270.9999983469645L197.9999902052629,270.9999983469645M193.4999902052629,266.4999983469645L193.4999902052629,275.4999983469645"></path></g><path id="node_outline32" fill="rgb(238, 243, 246)" stroke="rgb(115, 161, 191)" d="M203.49998887697862,247.49999835800702h161a3,3,0,0,1,3,3v41a3,3,0,0,1,-3,3h-161a3,3,0,0,1,-3,-3v-41a3,3,0,0,1,3,-3z" stroke-width="1"></path><g id="node_text32" fill="black"><text id="kity_text_157" text-rendering="inherit" font-size="14" dy=".8em" y="250.89999854032612" x="220.49998887697862">集成学习</text><text id="kity_text_158" text-rendering="inherit" font-size="14" dy=".8em" y="271.8999985403261" x="220.49998887697862">Ensemble Learning</text></g></g><g id="minder_node28" display="none"><g id="node_expander27" style="cursor: pointer;" display="none"><path id="kity_path_274" fill="white" stroke="gray" d="M383.4999852004804,255.4999986892834A6,6,0,1,1,371.4999852004804,255.4999986892834A6,6,0,1,1,383.4999852004804,255.4999986892834"></path><path id="kity_path_275" fill="none" stroke="gray" d="M372.9999852004804,255.4999986892834L381.9999852004804,255.4999986892834"></path></g><path id="node_outline28" fill="none" stroke="none" d="M383.499985277109,246.4999986892834h48a5,5,0,0,1,5,5v8a5,5,0,0,1,-5,5h-48a5,5,0,0,1,-5,-5v-8a5,5,0,0,1,5,-5z"></path><g id="node_text28" fill="black"><text id="kity_text_149" text-rendering="inherit" font-size="12" dy=".8em" y="247.69999887543392" x="383.499985277109">Bagging</text></g></g><g id="minder_node29" display="none"><g id="node_expander26" style="cursor: pointer;" display="none"><path id="kity_path_271" fill="white" stroke="gray" d="M399.499984847119,255.4999986892834A6,6,0,1,1,387.499984847119,255.4999986892834A6,6,0,1,1,399.499984847119,255.4999986892834"></path><path id="kity_path_272" fill="none" stroke="gray"></path></g><path id="node_outline27" fill="none" stroke="none" d="M399.49998492374755,246.4999986892834h159a5,5,0,0,1,5,5v8a5,5,0,0,1,-5,5h-159a5,5,0,0,1,-5,-5v-8a5,5,0,0,1,5,-5z"></path><g id="node_text27" fill="black"><text id="kity_text_147" text-rendering="inherit" font-size="12" dy=".8em" y="247.69999887543392" x="399.49998492374755">随机森林（Random Forest）</text></g></g><g id="minder_node30" display="none"><g id="node_expander29" style="cursor: pointer;" display="none"><path id="kity_path_280" fill="white" stroke="gray" d="M383.4999852004804,263.4999985126027A6,6,0,1,1,371.4999852004804,263.4999985126027A6,6,0,1,1,383.4999852004804,263.4999985126027"></path><path id="kity_path_281" fill="none" stroke="gray" d="M372.9999852004804,263.4999985126027L381.9999852004804,263.4999985126027"></path></g><path id="node_outline30" fill="none" stroke="none" d="M383.499985277109,254.4999985126027h51a5,5,0,0,1,5,5v8a5,5,0,0,1,-5,5h-51a5,5,0,0,1,-5,-5v-8a5,5,0,0,1,5,-5z"></path><g id="node_text30" fill="black"><text id="kity_text_153" text-rendering="inherit" font-size="12" dy=".8em" y="255.69999869875323" x="383.499985277109">Boosting</text></g></g><g id="minder_node31" display="none"><g id="node_expander28" style="cursor: pointer;" display="none"><path id="kity_path_277" fill="white" stroke="gray" d="M399.499984847119,263.4999985126027A6,6,0,1,1,387.499984847119,263.4999985126027A6,6,0,1,1,399.499984847119,263.4999985126027"></path><path id="kity_path_278" fill="none" stroke="gray"></path></g><path id="node_outline29" fill="none" stroke="none" d="M399.49998492374755,254.4999985126027h57a5,5,0,0,1,5,5v8a5,5,0,0,1,-5,5h-57a5,5,0,0,1,-5,-5v-8a5,5,0,0,1,5,-5z"></path><g id="node_text29" fill="black"><text id="kity_text_151" text-rendering="inherit" font-size="12" dy=".8em" y="255.69999869875323" x="399.49998492374755">AdaBoost</text></g></g><g id="minder_node32" display="none"><g id="node_expander30" style="cursor: pointer;" display="none"><path id="kity_path_283" fill="white" stroke="gray" d="M383.4999852004804,271.499998335922A6,6,0,1,1,371.4999852004804,271.499998335922A6,6,0,1,1,383.4999852004804,271.499998335922"></path><path id="kity_path_284" fill="none" stroke="gray"></path></g><path id="node_outline31" fill="none" stroke="none" d="M383.499985277109,262.499998335922h49a5,5,0,0,1,5,5v8a5,5,0,0,1,-5,5h-49a5,5,0,0,1,-5,-5v-8a5,5,0,0,1,5,-5z"></path><g id="node_text31" fill="black"><text id="kity_text_155" text-rendering="inherit" font-size="12" dy=".8em" y="263.6999985220725" x="383.499985277109">Stacking</text></g></g><g id="minder_node33"><g id="node_expander32" style="cursor: pointer;" display="none"><path id="kity_path_289" fill="white" stroke="gray" d="M199.4999902052629,333.9999969556038A6,6,0,1,1,187.4999902052629,333.9999969556038A6,6,0,1,1,199.4999902052629,333.9999969556038"></path><path id="kity_path_290" fill="none" stroke="gray"></path></g><path id="node_outline33" fill="rgb(238, 243, 246)" stroke="rgb(115, 161, 191)" d="M203.49998887697862,310.4999969666464h195a3,3,0,0,1,3,3v41a3,3,0,0,1,-3,3h-195a3,3,0,0,1,-3,-3v-41a3,3,0,0,1,3,-3z" stroke-width="1"></path><g id="node_text33" fill="black"><text id="kity_text_160" text-rendering="inherit" font-size="14" dy=".8em" y="313.8999971489655" x="220.49998887697862">强化学习</text><text id="kity_text_161" text-rendering="inherit" font-size="14" dy=".8em" y="334.8999971489655" x="220.49998887697862">Reinforcement Learning</text></g></g><g id="minder_node4"><g id="node_expander1" style="cursor: pointer;" display="none"><path id="kity_path_196" fill="white" stroke="gray" d="M529.499982080627,30.500003658428483A6,6,0,1,1,517.499982080627,30.500003658428483A6,6,0,1,1,529.499982080627,30.500003658428483"></path><path id="kity_path_197" fill="none" stroke="gray"></path></g><path id="node_outline2" fill="none" stroke="none" d="M534.4999819422605,21.500003658428483h152a5,5,0,0,1,5,5v8a5,5,0,0,1,-5,5h-152a5,5,0,0,1,-5,-5v-8a5,5,0,0,1,5,-5z"></path><g id="node_text2" fill="black"><text id="kity_text_95" text-rendering="inherit" font-size="12" dy=".8em" y="22.700003844579015" x="534.4999819422605">代价函数（Cost Function）</text></g></g><g id="minder_node5"><g id="node_expander2" style="cursor: pointer;" display="none"><path id="kity_path_199" fill="white" stroke="gray" d="M529.499982080627,56.50000308421616A6,6,0,1,1,517.499982080627,56.50000308421616A6,6,0,1,1,529.499982080627,56.50000308421616"></path><path id="kity_path_200" fill="none" stroke="gray"></path></g><path id="node_outline3" fill="none" stroke="none" d="M534.4999819422605,47.50000308421616h184a5,5,0,0,1,5,5v8a5,5,0,0,1,-5,5h-184a5,5,0,0,1,-5,-5v-8a5,5,0,0,1,5,-5z"></path><g id="node_text3" fill="black"><text id="kity_text_97" text-rendering="inherit" font-size="12" dy=".8em" y="48.70000327036669" x="534.4999819422605">梯度下降法（Gradient Descent）</text></g></g><g id="minder_node7" display="none"><g id="node_expander3" style="cursor: pointer;" display="none"><path id="kity_path_202" fill="white" stroke="gray" d="M762.4999768302317,82.50000251000384A6,6,0,1,1,750.4999768302317,82.50000251000384A6,6,0,1,1,762.4999768302317,82.50000251000384"></path><path id="kity_path_203" fill="none" stroke="gray"></path></g><path id="node_outline4" fill="none" stroke="none" d="M762.4999769068603,73.50000251000384h169a5,5,0,0,1,5,5v8a5,5,0,0,1,-5,5h-169a5,5,0,0,1,-5,-5v-8a5,5,0,0,1,5,-5z"></path><g id="node_text4" fill="black"><text id="kity_text_99" text-rendering="inherit" font-size="12" dy=".8em" y="74.70000269615437" x="762.4999769068603">正规方程（Normal Function）</text></g></g><g id="minder_node6"><g id="node_expander4" style="cursor: pointer;"><path id="kity_path_205" fill="white" stroke="gray" d="M529.499982080627,82.50000251000384A6,6,0,1,1,517.499982080627,82.50000251000384A6,6,0,1,1,529.499982080627,82.50000251000384"></path><path id="kity_path_206" fill="none" stroke="gray" d="M518.999982080627,82.50000251000384L527.999982080627,82.50000251000384M523.499982080627,78.00000251000384L523.499982080627,87.00000251000384"></path></g><path id="node_outline5" fill="none" stroke="none" d="M534.4999819422605,73.50000251000384h207a5,5,0,0,1,5,5v8a5,5,0,0,1,-5,5h-207a5,5,0,0,1,-5,-5v-8a5,5,0,0,1,5,-5z" stroke-width="3"></path><g id="node_text5" fill="black"><text id="kity_text_101" text-rendering="inherit" font-size="12" dy=".8em" y="74.70000269615437" x="534.4999819422605">最小二乘法（Least Square Method）</text></g></g><g id="minder_node10" display="none"><g id="node_expander5" style="cursor: pointer;" display="none"><path id="kity_path_208" fill="white" stroke="gray" d="M726.499977625295,92.50000228915295A6,6,0,1,1,714.499977625295,92.50000228915295A6,6,0,1,1,726.499977625295,92.50000228915295"></path><path id="kity_path_209" fill="none" stroke="gray"></path></g><path id="node_outline6" fill="none" stroke="none" d="M726.4999777019235,83.50000228915295h23a5,5,0,0,1,5,5v8a5,5,0,0,1,-5,5h-23a5,5,0,0,1,-5,-5v-8a5,5,0,0,1,5,-5z"></path><g id="node_text6" fill="black"><text id="kity_text_103" text-rendering="inherit" font-size="12" dy=".8em" y="84.70000247530348" x="726.4999777019235">DFP</text></g></g><g id="minder_node11" display="none"><g id="node_expander6" style="cursor: pointer;" display="none"><path id="kity_path_211" fill="white" stroke="gray" d="M726.499977625295,100.50000211247225A6,6,0,1,1,714.499977625295,100.50000211247225A6,6,0,1,1,726.499977625295,100.50000211247225"></path><path id="kity_path_212" fill="none" stroke="gray"></path></g><path id="node_outline7" fill="none" stroke="none" d="M726.4999777019235,91.50000211247225h30a5,5,0,0,1,5,5v8a5,5,0,0,1,-5,5h-30a5,5,0,0,1,-5,-5v-8a5,5,0,0,1,5,-5z"></path><g id="node_text7" fill="black"><text id="kity_text_105" text-rendering="inherit" font-size="12" dy=".8em" y="92.70000229862278" x="726.4999777019235">BFGS</text></g></g><g id="minder_node12" display="none"><g id="node_expander7" style="cursor: pointer;" display="none"><path id="kity_path_214" fill="white" stroke="gray" d="M726.499977625295,108.50000193579153A6,6,0,1,1,714.499977625295,108.50000193579153A6,6,0,1,1,726.499977625295,108.50000193579153"></path><path id="kity_path_215" fill="none" stroke="gray"></path></g><path id="node_outline8" fill="none" stroke="none" d="M726.4999777019235,99.50000193579153h41a5,5,0,0,1,5,5v8a5,5,0,0,1,-5,5h-41a5,5,0,0,1,-5,-5v-8a5,5,0,0,1,5,-5z"></path><g id="node_text8" fill="black"><text id="kity_text_107" text-rendering="inherit" font-size="12" dy=".8em" y="100.70000212194206" x="726.4999777019235">L-BFGS</text></g></g><g id="minder_node9" display="none"><g id="node_expander8" style="cursor: pointer;" display="none"><path id="kity_path_217" fill="white" stroke="gray" d="M710.4999779786564,108.50000193579153A6,6,0,1,1,698.4999779786564,108.50000193579153A6,6,0,1,1,710.4999779786564,108.50000193579153"></path><path id="kity_path_218" fill="none" stroke="gray" d="M699.9999779786564,108.50000193579153L708.9999779786564,108.50000193579153"></path></g><path id="node_outline9" fill="none" stroke="none" d="M710.4999780552849,99.50000193579153h205a5,5,0,0,1,5,5v8a5,5,0,0,1,-5,5h-205a5,5,0,0,1,-5,-5v-8a5,5,0,0,1,5,-5z"></path><g id="node_text9" fill="black"><text id="kity_text_109" text-rendering="inherit" font-size="12" dy=".8em" y="100.70000212194206" x="710.4999780552849">拟牛顿法（Quasi-Newton Method）</text></g></g><g id="minder_node8"><g id="node_expander9" style="cursor: pointer;"><path id="kity_path_220" fill="white" stroke="gray" d="M529.499982080627,108.50000193579153A6,6,0,1,1,517.499982080627,108.50000193579153A6,6,0,1,1,529.499982080627,108.50000193579153"></path><path id="kity_path_221" fill="none" stroke="gray" d="M518.999982080627,108.50000193579153L527.999982080627,108.50000193579153M523.499982080627,104.00000193579153L523.499982080627,113.00000193579153"></path></g><path id="node_outline10" fill="none" stroke="none" d="M534.4999819422605,99.50000193579153h155a5,5,0,0,1,5,5v8a5,5,0,0,1,-5,5h-155a5,5,0,0,1,-5,-5v-8a5,5,0,0,1,5,-5z" stroke-width="3"></path><g id="node_text10" fill="black"><text id="kity_text_111" text-rendering="inherit" font-size="12" dy=".8em" y="100.70000212194206" x="534.4999819422605">牛顿法（Newton Method）</text></g></g><g id="minder_node41"><g id="node_expander40" style="cursor: pointer;" display="none"><path id="kity_path_353" fill="white" stroke="gray" d="M529.499982080627,134.5000013615792A6,6,0,1,1,517.499982080627,134.5000013615792A6,6,0,1,1,529.499982080627,134.5000013615792"></path><path id="kity_path_354" fill="none" stroke="gray"></path></g><path id="node_outline41" fill="none" stroke="none" d="M534.4999819422605,125.5000013615792h152a5,5,0,0,1,5,5v8a5,5,0,0,1,-5,5h-152a5,5,0,0,1,-5,-5v-8a5,5,0,0,1,5,-5z" stroke-width="3"></path><g id="node_text41" fill="black"><text id="kity_text_350" text-rendering="inherit" font-size="12" dy=".8em" y="126.70000154772973" x="534.4999819422605">回归树（Regression Tree）</text></g></g><g id="minder_node3"><g id="node_expander10" style="cursor: pointer;"><path id="kity_path_223" fill="white" stroke="gray" d="M392.49998510628427,82.50000251000384A6,6,0,1,1,380.49998510628427,82.50000251000384A6,6,0,1,1,392.49998510628427,82.50000251000384"></path><path id="kity_path_224" fill="none" stroke="gray" d="M381.99998510628427,82.50000251000384L390.99998510628427,82.50000251000384"></path></g><path id="node_outline11" fill="none" stroke="none" d="M397.49998496791784,73.50000251000384h111a5,5,0,0,1,5,5v8a5,5,0,0,1,-5,5h-111a5,5,0,0,1,-5,-5v-8a5,5,0,0,1,5,-5z" stroke-width="3"></path><g id="node_text11" fill="black"><text id="kity_text_113" text-rendering="inherit" font-size="12" dy=".8em" y="74.70000269615437" x="397.49998496791784">回归（Regression）</text></g></g><g id="minder_node14" display="none"><g id="node_expander11" style="cursor: pointer;" display="none"><path id="kity_path_226" fill="white" stroke="gray" d="M542.4999816889513,120.50000167077044A6,6,0,1,1,530.4999816889513,120.50000167077044A6,6,0,1,1,542.4999816889513,120.50000167077044"></path><path id="kity_path_227" fill="none" stroke="gray"></path></g><path id="node_outline12" fill="none" stroke="none" d="M542.4999817655798,111.50000167077044h183a5,5,0,0,1,5,5v8a5,5,0,0,1,-5,5h-183a5,5,0,0,1,-5,-5v-8a5,5,0,0,1,5,-5z"></path><g id="node_text12" fill="black"><text id="kity_text_115" text-rendering="inherit" font-size="12" dy=".8em" y="112.70000185692098" x="542.4999817655798">逻辑回归（Logistic Regression）</text></g></g><g id="minder_node16" display="none"><g id="node_expander12" style="cursor: pointer;" display="none"><path id="kity_path_229" fill="white" stroke="gray" d="M558.49998133559,128.50000149408973A6,6,0,1,1,546.49998133559,128.50000149408973A6,6,0,1,1,558.49998133559,128.50000149408973"></path><path id="kity_path_230" fill="none" stroke="gray"></path></g><path id="node_outline13" fill="none" stroke="none" d="M558.4999814122185,119.50000149408973h301a5,5,0,0,1,5,5v8a5,5,0,0,1,-5,5h-301a5,5,0,0,1,-5,-5v-8a5,5,0,0,1,5,-5z"></path><g id="node_text13" fill="black"><text id="kity_text_117" text-rendering="inherit" font-size="12" dy=".8em" y="120.70000168024026" x="558.4999814122185">前馈神经网络（Feedforward Neural Network，FNN）</text></g></g><g id="minder_node15" display="none"><g id="node_expander13" style="cursor: pointer;" display="none"><path id="kity_path_232" fill="white" stroke="gray" d="M542.4999816889513,128.50000149408973A6,6,0,1,1,530.4999816889513,128.50000149408973A6,6,0,1,1,542.4999816889513,128.50000149408973"></path><path id="kity_path_233" fill="none" stroke="gray" d="M531.9999816889513,128.50000149408973L540.9999816889513,128.50000149408973"></path></g><path id="node_outline14" fill="none" stroke="none" d="M542.4999817655798,119.50000149408973h164a5,5,0,0,1,5,5v8a5,5,0,0,1,-5,5h-164a5,5,0,0,1,-5,-5v-8a5,5,0,0,1,5,-5z"></path><g id="node_text14" fill="black"><text id="kity_text_119" text-rendering="inherit" font-size="12" dy=".8em" y="120.70000168024026" x="542.4999817655798">神经网络（Neural Network）</text></g></g><g id="minder_node18" display="none"><g id="node_expander14" style="cursor: pointer;" display="none"><path id="kity_path_235" fill="white" stroke="gray" d="M558.49998133559,136.50000131740902A6,6,0,1,1,546.49998133559,136.50000131740902A6,6,0,1,1,558.49998133559,136.50000131740902"></path><path id="kity_path_236" fill="none" stroke="gray"></path></g><path id="node_outline15" fill="none" stroke="none" d="M558.4999814122185,127.50000131740902h326a5,5,0,0,1,5,5v8a5,5,0,0,1,-5,5h-326a5,5,0,0,1,-5,-5v-8a5,5,0,0,1,5,-5z"></path><g id="node_text15" fill="black"><text id="kity_text_121" text-rendering="inherit" font-size="12" dy=".8em" y="128.70000150355955" x="558.4999814122185">序列最小优化（Sequential Minimal Optimization，SMO）</text></g></g><g id="minder_node17" display="none"><g id="node_expander15" style="cursor: pointer;" display="none"><path id="kity_path_238" fill="white" stroke="gray" d="M542.4999816889513,136.50000131740902A6,6,0,1,1,530.4999816889513,136.50000131740902A6,6,0,1,1,542.4999816889513,136.50000131740902"></path><path id="kity_path_239" fill="none" stroke="gray" d="M531.9999816889513,136.50000131740902L540.9999816889513,136.50000131740902"></path></g><path id="node_outline16" fill="none" stroke="none" d="M542.4999817655798,127.50000131740902h225a5,5,0,0,1,5,5v8a5,5,0,0,1,-5,5h-225a5,5,0,0,1,-5,-5v-8a5,5,0,0,1,5,-5z"></path><g id="node_text16" fill="black"><text id="kity_text_123" text-rendering="inherit" font-size="12" dy=".8em" y="128.70000150355955" x="542.4999817655798">支持向量机（Support Vector Machine）</text></g></g><g id="minder_node19" display="none"><g id="node_expander16" style="cursor: pointer;" display="none"><path id="kity_path_241" fill="white" stroke="gray" d="M542.4999816889513,144.5000011407283A6,6,0,1,1,530.4999816889513,144.5000011407283A6,6,0,1,1,542.4999816889513,144.5000011407283"></path><path id="kity_path_242" fill="none" stroke="gray"></path></g><path id="node_outline17" fill="none" stroke="none" d="M542.4999817655798,135.5000011407283h176a5,5,0,0,1,5,5v8a5,5,0,0,1,-5,5h-176a5,5,0,0,1,-5,-5v-8a5,5,0,0,1,5,-5z"></path><g id="node_text17" fill="black"><text id="kity_text_125" text-rendering="inherit" font-size="12" dy=".8em" y="136.70000132687883" x="542.4999817655798">K-近邻（K-Nearest Neighbor）</text></g></g><g id="minder_node38" display="none"><g id="node_expander37" style="cursor: pointer;" display="none"><path id="kity_path_329" fill="white" stroke="gray" d="M574.4999809822285,136.50000131740902A6,6,0,1,1,562.4999809822285,136.50000131740902A6,6,0,1,1,574.4999809822285,136.50000131740902"></path><path id="kity_path_330" fill="none" stroke="gray"></path></g><path id="node_outline38" fill="none" stroke="none" d="M574.4999810588571,127.50000131740902h170a5,5,0,0,1,5,5v8a5,5,0,0,1,-5,5h-170a5,5,0,0,1,-5,-5v-8a5,5,0,0,1,5,-5z" stroke-width="3"></path><g id="node_text38" fill="black"><text id="kity_text_326" text-rendering="inherit" font-size="12" dy=".8em" y="128.70000150355955" x="574.4999810588571">信息增益（Information Gain）</text></g></g><g id="minder_node34" display="none"><g id="node_expander33" style="cursor: pointer;" display="none"><path id="kity_path_297" fill="white" stroke="gray" d="M558.49998133559,136.50000131740902A6,6,0,1,1,546.49998133559,136.50000131740902A6,6,0,1,1,558.49998133559,136.50000131740902"></path><path id="kity_path_298" fill="none" stroke="gray" d="M547.99998133559,136.50000131740902L556.99998133559,136.50000131740902"></path></g><path id="node_outline34" fill="none" stroke="none" d="M558.4999814122185,127.50000131740902h20a5,5,0,0,1,5,5v8a5,5,0,0,1,-5,5h-20a5,5,0,0,1,-5,-5v-8a5,5,0,0,1,5,-5z" stroke-width="3"></path><g id="node_text34" fill="black"><text id="kity_text_294" text-rendering="inherit" font-size="12" dy=".8em" y="128.70000150355955" x="558.4999814122185">ID3</text></g></g><g id="minder_node39" display="none"><g id="node_expander38" style="cursor: pointer;" display="none"><path id="kity_path_337" fill="white" stroke="gray" d="M574.4999809822285,144.5000011407283A6,6,0,1,1,562.4999809822285,144.5000011407283A6,6,0,1,1,574.4999809822285,144.5000011407283"></path><path id="kity_path_338" fill="none" stroke="gray"></path></g><path id="node_outline39" fill="none" stroke="none" d="M574.4999810588571,135.5000011407283h120a5,5,0,0,1,5,5v8a5,5,0,0,1,-5,5h-120a5,5,0,0,1,-5,-5v-8a5,5,0,0,1,5,-5z" stroke-width="3"></path><g id="node_text39" fill="black"><text id="kity_text_334" text-rendering="inherit" font-size="12" dy=".8em" y="136.70000132687883" x="574.4999810588571">增益率（Gain Ratio）</text></g></g><g id="minder_node35" display="none"><g id="node_expander34" style="cursor: pointer;" display="none"><path id="kity_path_305" fill="white" stroke="gray" d="M558.49998133559,144.5000011407283A6,6,0,1,1,546.49998133559,144.5000011407283A6,6,0,1,1,558.49998133559,144.5000011407283"></path><path id="kity_path_306" fill="none" stroke="gray" d="M547.99998133559,144.5000011407283L556.99998133559,144.5000011407283"></path></g><path id="node_outline35" fill="none" stroke="none" d="M558.4999814122185,135.5000011407283h25a5,5,0,0,1,5,5v8a5,5,0,0,1,-5,5h-25a5,5,0,0,1,-5,-5v-8a5,5,0,0,1,5,-5z" stroke-width="3"></path><g id="node_text35" fill="black"><text id="kity_text_302" text-rendering="inherit" font-size="12" dy=".8em" y="136.70000132687883" x="558.4999814122185">C4.5</text></g></g><g id="minder_node40" display="none"><g id="node_expander39" style="cursor: pointer;" display="none"><path id="kity_path_345" fill="white" stroke="gray" d="M574.4999809822285,152.5000009640476A6,6,0,1,1,562.4999809822285,152.5000009640476A6,6,0,1,1,574.4999809822285,152.5000009640476"></path><path id="kity_path_346" fill="none" stroke="gray"></path></g><path id="node_outline40" fill="none" stroke="none" d="M574.4999810588571,143.5000009640476h131a5,5,0,0,1,5,5v8a5,5,0,0,1,-5,5h-131a5,5,0,0,1,-5,-5v-8a5,5,0,0,1,5,-5z" stroke-width="3"></path><g id="node_text40" fill="black"><text id="kity_text_342" text-rendering="inherit" font-size="12" dy=".8em" y="144.70000115019812" x="574.4999810588571">基尼系数（Gini Index）</text></g></g><g id="minder_node36" display="none"><g id="node_expander35" style="cursor: pointer;" display="none"><path id="kity_path_313" fill="white" stroke="gray" d="M558.49998133559,152.5000009640476A6,6,0,1,1,546.49998133559,152.5000009640476A6,6,0,1,1,558.49998133559,152.5000009640476"></path><path id="kity_path_314" fill="none" stroke="gray" d="M547.99998133559,152.5000009640476L556.99998133559,152.5000009640476"></path></g><path id="node_outline36" fill="none" stroke="none" d="M558.4999814122185,143.5000009640476h32a5,5,0,0,1,5,5v8a5,5,0,0,1,-5,5h-32a5,5,0,0,1,-5,-5v-8a5,5,0,0,1,5,-5z" stroke-width="3"></path><g id="node_text36" fill="black"><text id="kity_text_310" text-rendering="inherit" font-size="12" dy=".8em" y="144.70000115019812" x="558.4999814122185">CART</text></g></g><g id="minder_node20" display="none"><g id="node_expander17" style="cursor: pointer;" display="none"><path id="kity_path_244" fill="white" stroke="gray" d="M542.4999816889513,152.5000009640476A6,6,0,1,1,530.4999816889513,152.5000009640476A6,6,0,1,1,542.4999816889513,152.5000009640476"></path><path id="kity_path_245" fill="none" stroke="gray" d="M531.9999816889513,152.5000009640476L540.9999816889513,152.5000009640476"></path></g><path id="node_outline18" fill="none" stroke="none" d="M542.4999817655798,143.5000009640476h138a5,5,0,0,1,5,5v8a5,5,0,0,1,-5,5h-138a5,5,0,0,1,-5,-5v-8a5,5,0,0,1,5,-5z" stroke-width="3"></path><g id="node_text18" fill="black"><text id="kity_text_127" text-rendering="inherit" font-size="12" dy=".8em" y="144.70000115019812" x="542.4999817655798">决策树（Decision Tree）</text></g></g><g id="minder_node21" display="none"><g id="node_expander18" style="cursor: pointer;" display="none"><path id="kity_path_247" fill="white" stroke="gray" d="M542.4999816889513,160.50000078736687A6,6,0,1,1,530.4999816889513,160.50000078736687A6,6,0,1,1,542.4999816889513,160.50000078736687"></path><path id="kity_path_248" fill="none" stroke="gray"></path></g><path id="node_outline19" fill="none" stroke="none" d="M542.4999817655798,151.50000078736687h171a5,5,0,0,1,5,5v8a5,5,0,0,1,-5,5h-171a5,5,0,0,1,-5,-5v-8a5,5,0,0,1,5,-5z"></path><g id="node_text19" fill="black"><text id="kity_text_129" text-rendering="inherit" font-size="12" dy=".8em" y="152.7000009735174" x="542.4999817655798">朴素贝叶斯（Naive Bayesian）</text></g></g><g id="minder_node13"><g id="node_expander19" style="cursor: pointer;"><path id="kity_path_250" fill="white" stroke="gray" d="M392.49998510628427,160.50000078736687A6,6,0,1,1,380.49998510628427,160.50000078736687A6,6,0,1,1,392.49998510628427,160.50000078736687"></path><path id="kity_path_251" fill="none" stroke="gray" d="M381.99998510628427,160.50000078736687L390.99998510628427,160.50000078736687M386.49998510628427,156.00000078736687L386.49998510628427,165.00000078736687"></path></g><path id="node_outline20" fill="none" stroke="none" d="M397.49998496791784,151.50000078736687h124a5,5,0,0,1,5,5v8a5,5,0,0,1,-5,5h-124a5,5,0,0,1,-5,-5v-8a5,5,0,0,1,5,-5z" stroke-width="3"></path><g id="node_text20" fill="black"><text id="kity_text_131" text-rendering="inherit" font-size="12" dy=".8em" y="152.7000009735174" x="397.49998496791784">分类（Classification）</text></g></g></g></g></svg>